<svg xmlns="http://www.w3.org/2000/svg" width="32.2261" height="33.9556" viewBox="0 0 32.2261 33.9556"><defs><style>.cls-1{isolation:isolate;}.cls-13,.cls-2{mix-blend-mode:multiply;}.cls-3{fill:#53a79e;}.cls-4{fill:#f89c41;}.cls-5{fill:#623906;}.cls-6{fill:#2f292b;}.cls-7{fill:#775326;}.cls-8{fill:#00bdb8;}.cls-9{fill:#f2e2c2;}.cls-10,.cls-11,.cls-12{fill:none;stroke-linecap:round;stroke-miterlimit:10;}.cls-10,.cls-12{stroke:#2f292b;}.cls-10,.cls-11{stroke-width:0.2282px;}.cls-11{stroke:#c0a975;}.cls-12{stroke-width:0.3043px;}.cls-13{opacity:0.58;}.cls-14{fill:#bcbcbc;}.cls-15{fill:#58bab0;}</style></defs><g class="cls-1"><g id="Layer_2" data-name="Layer 2"><g id="Layer_1-2" data-name="Layer 1"><g id="New_Symbol" data-name="New Symbol" class="cls-2"><g id="New_Symbol_10" data-name="New Symbol 10"><g id="New_Symbol_8" data-name="New Symbol 8"><path class="cls-3" d="M16.4877,17.1382c-.7268-1.4567.4573-3.1237,1.6613-4.2194s2.6362-2.3612,2.4894-3.9825c-.0593-.656-.3723-1.3762-.0116-1.9274.5019-.7669,1.8413-.2784,2.1176.5955a3.7121,3.7121,0,0,1-.5231,2.63,3.8875,3.8875,0,0,0,1.77-4.72c-.2864-.7225-.8055-1.4888-.5026-2.2045a1.3415,1.3415,0,0,1,1.857-.5038,2.1849,2.1849,0,0,1,.9686,1.8432,6.447,6.447,0,0,1-.4132,2.1242,1.5087,1.5087,0,0,0,1.61-1.201,4.8527,4.8527,0,0,0-.1349-2.1948,3.6888,3.6888,0,0,1,.0263-2.1843A2.4292,2.4292,0,0,1,31.0335.5292,3.852,3.852,0,0,1,32.09,4.4339c-.966,3.89-4.6093,4.98-7.909,6.188-3.3019,1.2092-7.5662,5.0343-6.2985,9.0231Z"/><path class="cls-3" d="M15.7384,17.1382c.7267-1.4567-.4574-3.1237-1.6614-4.2194s-2.6362-2.3612-2.4894-3.9825c.0593-.656.3723-1.3762.0116-1.9274-.5019-.7669-1.8413-.2784-2.1176.5955a3.7121,3.7121,0,0,0,.5231,2.63,3.8876,3.8876,0,0,1-1.77-4.72c.2864-.7225.8055-1.4888.5026-2.2045a1.3415,1.3415,0,0,0-1.857-.5038,2.1849,2.1849,0,0,0-.9686,1.8432,6.447,6.447,0,0,0,.4132,2.1242,1.5087,1.5087,0,0,1-1.61-1.201A4.8527,4.8527,0,0,1,4.85,3.3777a3.6888,3.6888,0,0,0-.0263-2.1843A2.4292,2.4292,0,0,0,1.1925.5292,3.852,3.852,0,0,0,.1359,4.4339c.966,3.89,4.6093,4.98,7.909,6.188,3.3019,1.2092,7.5662,5.0343,6.2985,9.0231Z"/><path class="cls-4" d="M26.7228,22.0105l-2.1753-2.4546L21.192,15.7642s3.9342-4.1794,5.5365-4.8152a.7444.7444,0,0,1,.459-.0656S29.5138,16.6936,26.7228,22.0105Z"/><path class="cls-5" d="M27.1875,10.8834a15.7574,15.7574,0,0,1-.79,6.0667,13.4243,13.4243,0,0,1-1.85,2.6058l2.1753,2.4546C29.5138,16.6936,27.1875,10.8834,27.1875,10.8834Z"/><path class="cls-6" d="M5.5429,22.0105l2.1753-2.4546,3.3555-3.7917S7.1394,11.5848,5.5372,10.949a.7444.7444,0,0,0-.459-.0656S2.7519,16.6936,5.5429,22.0105Z"/><path class="cls-7" d="M5.0782,10.8834a15.7555,15.7555,0,0,0,.79,6.0667,13.42,13.42,0,0,0,1.85,2.6058L5.5429,22.0105C2.7519,16.6936,5.0782,10.8834,5.0782,10.8834Z"/><path class="cls-8" d="M25.7772,18.0242,16.5914,24.283l-9.32-6.7882c.1644-.1825.3256-.3742.4808-.5751.0091-.0091.0152-.0182.0243-.0273,1.7374-2.0873,3.7121-4.4758,8.203-4.631q.1553-.009.31-.0091t.31.0091c5.1543.1765,6.9921,3.2983,8.9668,5.5286.0608.073.1277.146.1917.216Z"/><path class="cls-9" d="M30.4964,20.7687a14.433,14.433,0,0,1-.2647,1.95,14.3266,14.3266,0,0,1-4.9535,8.4191,15.7556,15.7556,0,0,1-8.988,2.8175,15.5775,15.5775,0,0,1-8.9911-2.8175A14.3569,14.3569,0,0,1,2.3457,22.719a14.4171,14.4171,0,0,1-.2647-1.95,7.5632,7.5632,0,0,0,4.74-2.7627c.1491-.1643.3013-.3347.45-.5112.1644-.1825.3256-.3742.4808-.5751.0091-.0091.0152-.0182.0243-.0273,1.7374-2.0873,3.7121-4.4758,8.203-4.631q.1553-.009.31-.0091t.31.0091c5.1543.1765,6.9921,3.2983,8.9668,5.5286.0608.073.1277.146.1917.216l.0182.0182A7.5239,7.5239,0,0,0,30.4964,20.7687Z"/><path class="cls-4" d="M30.4964,20.7682a14.4193,14.4193,0,0,1-.2647,1.95,12.3773,12.3773,0,0,1-8.2669-1.9351,12.0574,12.0574,0,0,1-3.4991-3.6482,15.7348,15.7348,0,0,1-1.8651-4.8743c5.3216.1825,7.1076,3.5051,9.1584,5.7445A7.5491,7.5491,0,0,0,30.4964,20.7682Z"/><path class="cls-7" d="M15.98,12.2609a15.7321,15.7321,0,0,1-1.8652,4.8743,12.0571,12.0571,0,0,1-3.499,3.6482,12.3861,12.3861,0,0,1-8.27,1.9351,14.4193,14.4193,0,0,1-.2647-1.95,7.564,7.564,0,0,0,4.7405-2.7628C8.8692,15.766,10.6583,12.4434,15.98,12.2609Z"/><path class="cls-10" d="M16.2651,27.4959a2.8354,2.8354,0,0,0,.6693,1.9306,1.3285,1.3285,0,0,0,1.9547.0122"/><path class="cls-10" d="M16.2651,27.4959a2.836,2.836,0,0,1-.6694,1.9306,1.3284,1.3284,0,0,1-1.9546.0122"/><path class="cls-6" d="M17.489,26.8592c.135.067-1.1815,1.0934-1.1815,1.0934l-1.1816-1.0934A2.631,2.631,0,0,1,17.489,26.8592Z"/><path class="cls-11" d="M1.4275,27.5679a16.6425,16.6425,0,0,1,7.6693-.9973"/><path class="cls-11" d="M1.67,30.0427a24.034,24.034,0,0,1,7.622-2.6512"/><path class="cls-11" d="M3.7335,31.5551a17.7692,17.7692,0,0,1,6.1876-3.3425"/><path class="cls-11" d="M23.1378,26.442a15.36,15.36,0,0,1,8.012,1.6026"/><path class="cls-11" d="M23.3964,27.2656a27.5769,27.5769,0,0,1,7.0577,2.6117"/><path class="cls-11" d="M23.4531,28.3624a33.0213,33.0213,0,0,1,5.8528,3.4861"/><path class="cls-12" d="M23.5741,23.49a1.4477,1.4477,0,1,1-2.8954,0"/><line class="cls-12" x1="22.1264" y1="24.938" x2="22.1264" y2="25.4993"/><line class="cls-12" x1="22.8765" y1="24.8071" x2="23.1516" y2="25.2187"/><line class="cls-12" x1="23.357" y1="24.2521" x2="23.8532" y2="24.6054"/><path class="cls-12" d="M9.0033,23.49a1.4477,1.4477,0,1,0,2.8954,0"/><line class="cls-12" x1="10.451" y1="24.938" x2="10.451" y2="25.4993"/><line class="cls-12" x1="9.7009" y1="24.8071" x2="9.4258" y2="25.2187"/><line class="cls-12" x1="9.2204" y1="24.2521" x2="8.7242" y2="24.6054"/><g class="cls-13"><path class="cls-14" d="M24.559,16.5989c-1.6842-2.012-3.6769-4.1909-7.9585-4.3375q-.1551-.009-.31-.0091t-.31.0091A9.4672,9.4672,0,0,0,8.618,15.9031C13.7259,13.3619,17.9689,12.3874,24.559,16.5989Z"/></g><path class="cls-15" d="M25.5673,17.79c-1.9747-2.23-5.0407-5.1874-9.2771-5.1874-2.9839,0-6.776,2.2025-8.5134,4.29,1.7861-2.279,3.3561-5.5924,8.203-5.76q.1553-.0091.31-.0091t.31.0091C21.7548,11.3091,23.5926,15.4927,25.5673,17.79Z"/></g></g></g></g></g></g></svg>