<svg xmlns="http://www.w3.org/2000/svg" width="135" height="148.5" viewBox="0 0 135 148.5"><defs><style>.cls-1{fill:#a9611d;}.cls-2{fill:#979797;}.cls-3{fill:#ff8588;}.cls-4{fill:#adadad;}.cls-5{fill:#ff3b40;}.cls-6{fill:#fff;}.cls-7{fill:#424242;}</style></defs><g id="Layer_2" data-name="Layer 2"><g id="Layer_1-2" data-name="Layer 1"><path class="cls-1" d="M124.5,0a6,6,0,0,0-6,6,40.3045,40.3045,0,0,1-2.3084,13.4591A9.0087,9.0087,0,0,1,108,10.5a6,6,0,0,0-12,0,21.0228,21.0228,0,0,0,14.3086,19.888,40.8229,40.8229,0,0,1-4.2025,4.73C103.5,36,100.5,36,100.5,31.5a6,6,0,0,0-12,0,14.9721,14.9721,0,0,0,5.5845,11.66A40.26,40.26,0,0,1,78,46.5a6,6,0,0,0,0,12A52.56,52.56,0,0,0,130.5,6,6,6,0,0,0,124.5,0Z"/><path class="cls-1" d="M10.5,0a6,6,0,0,1,6,6,40.3045,40.3045,0,0,0,2.3084,13.4591A9.0087,9.0087,0,0,0,27,10.5a6,6,0,0,1,12,0A21.0228,21.0228,0,0,1,24.6914,30.388a40.8229,40.8229,0,0,0,4.2025,4.73C31.5,36,34.5,36,34.5,31.5a6,6,0,0,1,12,0,14.9721,14.9721,0,0,1-5.5845,11.66A40.26,40.26,0,0,0,57,46.5a6,6,0,0,1,0,12A52.56,52.56,0,0,1,4.5,6,6,6,0,0,1,10.5,0Z"/><path class="cls-2" d="M118.0987,82.8028C109.8144,97.1516,99.12,99.558,90.51,94.5874S78.6375,79.1516,86.9218,64.8028,119.0372,39.1773,120.51,42.6259,126.383,68.454,118.0987,82.8028Z"/><path class="cls-3" d="M121.1171,44.5567c1.7167,6.61,4.3053,25.5612-3.0184,38.2461-6.9132,11.974-15.5015,15.61-23.1593,13.6039-3.8975-6.2524-3.4112-16.2365,4.1942-29.41C104.1605,58.29,113.1762,50.1062,121.1171,44.5567Z"/><path class="cls-2" d="M16.9013,82.8028C25.1856,97.1516,35.8805,99.558,44.49,94.5874s11.8727-15.4358,3.5884-29.7846S15.9628,39.1773,14.49,42.6259,8.617,68.454,16.9013,82.8028Z"/><path class="cls-3" d="M13.8829,44.5567c-1.7167,6.61-4.3053,25.5612,3.0184,38.2461,6.9132,11.974,15.5015,15.61,23.1593,13.6039,3.8975-6.2524,3.4112-16.2365-4.1942-29.41C30.84,58.29,21.8238,50.1062,13.8829,44.5567Z"/><path class="cls-4" d="M119.9966,103.5c.3161,26.7168-21.327,45.2681-52.4966,44.9971-31.17.2711-52.8127-18.28-52.4966-44.9971C14.6873,76.7832,36.33,52.2292,67.5,52.5,98.67,52.229,120.3127,76.783,119.9966,103.5Z"/><path class="cls-5" d="M67.5,52.5a52.6938,52.6938,0,0,1,30.3177,8.9257C93.9784,51.9379,81.8776,45,67.5,45S41.0214,51.938,37.1821,61.426A52.6943,52.6943,0,0,1,67.5,52.5Z"/><path class="cls-6" d="M67.7261,82.0854,67.5,81l-.4083,1.96a37.27,37.27,0,0,1-13.0183,20.9068,21,21,0,1,0,26.4249-.3468A36.5944,36.5944,0,0,1,67.7261,82.0854Z"/><path class="cls-7" d="M61.5,131.2581a.75.75,0,0,1,0-1.5,5.2564,5.2564,0,0,0,5.25-5.25.75.75,0,0,1,1.5,0A6.7574,6.7574,0,0,1,61.5,131.2581Z"/><path class="cls-7" d="M73.5,131.2581a6.7574,6.7574,0,0,1-6.75-6.75.75.75,0,0,1,1.5,0,5.2564,5.2564,0,0,0,5.25,5.25.75.75,0,0,1,0,1.5Z"/><path class="cls-7" d="M67.5,126.7581a.75.75,0,0,1-.75-.75v-9a.75.75,0,0,1,1.5,0v9A.75.75,0,0,1,67.5,126.7581Z"/><path class="cls-3" d="M60,114.008c0,3.3137,3.3579,6,7.5,6s7.5-2.6863,7.5-6c0-3.0824-3.3579-3-7.5-3S60,110.6942,60,114.008Z"/><circle class="cls-7" cx="46.5" cy="96" r="4.5"/><circle class="cls-7" cx="88.5" cy="97.5" r="4.5"/><path class="cls-7" d="M41.0961,118.9245A70.5373,70.5373,0,0,0,20.5,115.51,69.3705,69.3705,0,0,0,0,118.2706a68.6452,68.6452,0,0,1,40.22,3.1063,1.3028,1.3028,0,1,0,.9547-2.4244C41.15,118.9428,41.1207,118.9326,41.0961,118.9245Z"/><path class="cls-7" d="M40.6567,125.7949A54.4653,54.4653,0,0,0,10.5,136.5a53.1827,53.1827,0,0,1,30.1715-8.1457,1.2808,1.2808,0,0,0,.0954-2.56c-.0335-.0013-.0666-.0012-.0995,0Z"/><path class="cls-7" d="M93.9039,118.93a70.534,70.534,0,0,1,20.5963-3.415,69.3672,69.3672,0,0,1,20.5,2.761,68.6474,68.6474,0,0,0-40.2195,3.1063,1.3028,1.3028,0,1,1-.9547-2.4244C93.85,118.9478,93.8793,118.9376,93.9039,118.93Z"/><path class="cls-7" d="M94.3433,125.7951A54.4653,54.4653,0,0,1,124.5,136.5a53.1827,53.1827,0,0,0-30.1715-8.1457,1.2808,1.2808,0,0,1-.0954-2.56c.0335-.0012.0666-.0011.1,0Z"/></g></g></svg>