<svg xmlns="http://www.w3.org/2000/svg" width="135" height="154.5" viewBox="0 0 135 154.5"><defs><style>.cls-1{fill:#87b71a;}.cls-2{fill:#fff;}.cls-3{fill:#7b532c;}.cls-4{fill:#ff8588;}.cls-5{fill:#ffddb0;}.cls-6{fill:#424242;}.cls-7{fill:#e1e8e8;}.cls-8{fill:#ebf0f0;}</style></defs><g id="Layer_2" data-name="Layer 2"><g id="Layer_1-2" data-name="Layer 1"><path class="cls-1" d="M118.5991,11.668C106.5,3,82.7783-4.5,61.5,13.0376,45.0132,26.6259,33,51,33,66l78.6005-.3484c-1.4781-1.9181-10.5877-14.1584-7.4867-30.6341A39.0473,39.0473,0,0,1,118.5991,11.668Z"/><path class="cls-2" d="M39.0212,43.1743c-.601,1.3053-1.1557,2.604-1.6743,3.8963C45.2306,43.9363,55.5857,42,66.75,42c15.9647,0,30.272,3.9586,38.0615,9.7213a38.99,38.99,0,0,1-.8861-4.2554C95.3419,42.2794,82.002,39,66.75,39A87.4164,87.4164,0,0,0,39.0212,43.1743Z"/><path class="cls-2" d="M52.43,22.0749C51.44,23.24,50.4843,24.44,49.5531,25.6631A73.4672,73.4672,0,0,1,65.25,24c16.5387,0,30.9777,5.259,38.571,13.0242.0878-.6653.1648-1.3265.2928-2.0067.0921-.4894.2113-.9535.32-1.4275C95.936,26,81.5431,21,65.25,21A76.4269,76.4269,0,0,0,52.43,22.0749Z"/><path class="cls-2" d="M77.3628,10.4019c12.6747,2.5367,23.7618,7.4648,30.966,13.1289.5289-.9349,1.0781-1.8111,1.6375-2.6381-7.5293-5.86-18.78-10.7837-32.0146-13.4323C75.8975,7.05,73.87,6.7151,71.8692,6.44a46.0316,46.0316,0,0,0-4.6541,2.5116A92.4283,92.4283,0,0,1,77.3628,10.4019Z"/><path class="cls-3" d="M51.4945,64.6035C56.0279,77.059,49.0519,81.4552,39.71,84.8552s-17.5113,4.5165-22.0448-7.939S23.2933,39.75,23.2933,39.75,46.961,52.148,51.4945,64.6035Z"/><path class="cls-4" d="M28.4448,81.0268c2.5332.4466,6.2545-.7327,9.214-1.81,3.0756-1.1191,6.8069-2.6678,8.3731-4.7254.4941-.6514,1.81-2.38-.1759-7.8349-2.135-5.8681-11.4306-13.1535-19.3675-18.131-2.8823,8.9147-5.32,20.4706-3.185,26.3387,2.0381,5.6,4.2815,6.0109,5.1341,6.1612Z"/><path class="cls-3" d="M83.5055,64.6035C78.9721,77.059,85.9481,81.4552,95.29,84.8552s17.5113,4.5165,22.0448-7.939S111.7067,39.75,111.7067,39.75,88.039,52.148,83.5055,64.6035Z"/><path class="cls-4" d="M106.5552,81.0268c-2.5332.4466-6.2545-.7327-9.214-1.81-3.0756-1.1191-6.8069-2.6678-8.3731-4.7254-.4941-.6514-1.81-2.38.1759-7.8349,2.135-5.8681,11.4306-13.1535,19.3675-18.131,2.8823,8.9147,5.32,20.4706,3.185,26.3387-2.0381,5.6-4.2815,6.0109-5.1341,6.1612Z"/><path class="cls-5" d="M106.5126,148.3392a25.93,25.93,0,0,0,16.9427-31.923C116.4926,92.6191,109.2314,58.5,67.5,58.5S18.5073,92.6191,11.5446,116.4162a25.93,25.93,0,0,0,16.9428,31.923,126.6019,126.6019,0,0,0,78.0252,0Z"/><path class="cls-6" d="M61.5,129a.75.75,0,0,1,0-1.5,5.2564,5.2564,0,0,0,5.25-5.25.75.75,0,0,1,1.5,0A6.7573,6.7573,0,0,1,61.5,129Z"/><path class="cls-6" d="M73.5,129a6.7573,6.7573,0,0,1-6.75-6.75.75.75,0,0,1,1.5,0,5.2564,5.2564,0,0,0,5.25,5.25.75.75,0,0,1,0,1.5Z"/><path class="cls-6" d="M67.5,124.5a.75.75,0,0,1-.75-.75v-9a.75.75,0,0,1,1.5,0v9A.75.75,0,0,1,67.5,124.5Z"/><path class="cls-3" d="M33.3713,121.5662a65.9281,65.9281,0,0,0,16.4119-9.0271,29.3008,29.3008,0,0,1,35.4339,0,65.922,65.922,0,0,0,16.4116,9.0269q.08.03.159.0592c7.7061,2.8563,15.3886-4.5474,13.3918-12.7886C110.8782,91.0847,99.1138,65.25,67.5,65.25S24.1217,91.0848,19.82,108.8369c-1.9968,8.2411,5.6858,15.6448,13.3919,12.7885Q33.2918,121.596,33.3713,121.5662Z"/><circle class="cls-2" cx="88.5" cy="93.75" r="9"/><circle class="cls-6" cx="88.5" cy="93.75" r="6"/><circle class="cls-2" cx="87" cy="92.25" r="1.5"/><circle class="cls-2" cx="46.5" cy="93.75" r="9"/><circle class="cls-6" cx="46.5" cy="93.75" r="6"/><circle class="cls-2" cx="45" cy="92.25" r="1.5"/><path class="cls-6" d="M60,114.75c0,3.3137,3.3579,6,7.5,6s7.5-2.6863,7.5-6c0-3.0824-3.3579-3-7.5-3S60,111.4363,60,114.75Z"/><circle class="cls-7" cx="121.5" cy="10.5" r="10.5"/><circle class="cls-8" cx="124.5" cy="10.5" r="5.9999"/><path class="cls-6" d="M41.0961,121.9245A70.5373,70.5373,0,0,0,20.5,118.51,69.3705,69.3705,0,0,0,0,121.2706a68.6452,68.6452,0,0,1,40.22,3.1063,1.3028,1.3028,0,1,0,.9547-2.4244C41.15,121.9428,41.1207,121.9326,41.0961,121.9245Z"/><path class="cls-6" d="M40.6567,128.7949A54.4653,54.4653,0,0,0,10.5,139.5a53.1827,53.1827,0,0,1,30.1715-8.1457,1.2808,1.2808,0,1,0,.0954-2.56c-.0335-.0013-.0666-.0012-.0995,0Z"/><path class="cls-6" d="M93.9039,121.93a70.534,70.534,0,0,1,20.5963-3.415,69.3672,69.3672,0,0,1,20.5,2.761,68.6474,68.6474,0,0,0-40.2195,3.1063,1.3028,1.3028,0,1,1-.9547-2.4244C93.85,121.9478,93.8793,121.9376,93.9039,121.93Z"/><path class="cls-6" d="M94.3433,128.7951A54.4653,54.4653,0,0,1,124.5,139.5a53.1827,53.1827,0,0,0-30.1715-8.1457,1.2808,1.2808,0,0,1-.0954-2.56c.0335-.0012.0666-.0011.1,0Z"/></g></g></svg>