<svg xmlns="http://www.w3.org/2000/svg" width="26.8584" height="35.8308" viewBox="0 0 26.8584 35.8308"><defs><style>.cls-1{isolation:isolate;}.cls-13,.cls-2,.cls-5{mix-blend-mode:multiply;}.cls-3{fill:#7b2d10;}.cls-4,.cls-5{fill:#f5a3a1;}.cls-6{fill:#767676;}.cls-7{fill:#fbedcd;}.cls-8{fill:none;stroke:#2f292b;stroke-linecap:round;stroke-miterlimit:10;stroke-width:0.2378px;}.cls-9{fill:#fff;}.cls-10{fill:#2f292b;}.cls-11{fill:#3ba091;}.cls-12{fill:#fb4751;}.cls-13{fill:#bcbcbc;}</style></defs><g class="cls-1"><g id="Layer_2" data-name="Layer 2"><g id="Layer_1-2" data-name="Layer 1"><g id="New_Symbol" data-name="New Symbol" class="cls-2"><g id="New_Symbol_10" data-name="New Symbol 10"><g id="New_Symbol_1" data-name="New Symbol 1"><path class="cls-3" d="M23.1143,25.6676c-.0749.1194-.1523.2354-.2331.3539L19.6533,21.14l-1.5119-2.2831s3.3852-4.006,7.2341-4.93l.0043.01C25.4645,14.1773,27.2521,19.36,23.1143,25.6676Z"/><path class="cls-4" d="M23.1143,25.6676l-3.461-4.528c.765-1.8541,3.07-6.0179,5.7222-7.2126l.0043.01C25.4645,14.1773,27.2521,19.36,23.1143,25.6676Z"/><path class="cls-5" d="M19.6533,21.14a14.7394,14.7394,0,0,1,1.56-2.9612c1.397,1.647,3.1054,3.9773,2.5972,6.3418a4.7633,4.7633,0,0,1-.696,1.1474Z"/><path class="cls-3" d="M2.7214,25.6676c.075.1194.1524.2354.2332.3539L6.1825,21.14l1.5119-2.2831S4.3092,14.8505.46,13.927l-.0043.01C.3713,14.1773-1.4163,19.36,2.7214,25.6676Z"/><path class="cls-4" d="M2.7214,25.6676,6.1825,21.14c-.765-1.8541-3.07-6.0179-5.7222-7.2126l-.0043.01C.3713,14.1773-1.4163,19.36,2.7214,25.6676Z"/><path class="cls-5" d="M4.5819,18.1128A20.8906,20.8906,0,0,1,6.1825,21.14l-3.461,4.528c-.2654-.4045-.5055-.8041-.7241-1.1983C2.1535,21.9858,2.5823,19.5841,4.5819,18.1128Z"/><path class="cls-6" d="M2.0271,24.0666A10.3869,10.3869,0,0,0,5.1233,31.265a17.3944,17.3944,0,0,0,5.0447,3.62c.185.09.3642.1706.5377.2457a5.2314,5.2314,0,0,0,4.3451-.11c.13-.0636.2631-.13.4018-.2024a20.2979,20.2979,0,0,0,5.1632-3.8189A10.1794,10.1794,0,0,0,23.81,24.0666c0-1.6507-1.0378-3.3651-2.4717-4.9464a11.342,11.342,0,0,0-16.8426,0C3.0621,20.7015,2.0271,22.4159,2.0271,24.0666Z"/><path class="cls-3" d="M6.1791,17.5989a11.338,11.338,0,0,1,15.16,1.5213,13.6412,13.6412,0,0,1,1.3746,1.7677C19.3183,17.8915,11.7342,16.8563,6.1791,17.5989Z"/><path class="cls-7" d="M5.958,32.12a14.1167,14.1167,0,0,0,4.21,2.7647A3.7489,3.7489,0,0,0,12.9173,31.95a3.7577,3.7577,0,0,0,2.5353,2.8678,17.69,17.69,0,0,0,4.2132-2.8736,1.3492,1.3492,0,0,0-.5952-2.3067,9.0021,9.0021,0,0,1-1.3573-.4281c-3.5038-1.4253-4.5879-6.2618-4.796-7.0539-.2053.7921-.5709,4.9534-4.7123,7.0539a8.7586,8.7586,0,0,1-1.67.6128A1.3524,1.3524,0,0,0,5.958,32.12Z"/><path class="cls-3" d="M11.3491,28.6679c-.18.0893,1.5753,1.4577,1.5753,1.4577L14.5,28.6679A3.5077,3.5077,0,0,0,11.3491,28.6679Z"/><path class="cls-8" d="M8.9879,30.7493A18.7608,18.7608,0,0,0,.1266,32.0106"/><path class="cls-8" d="M9.1265,31.3978A26.7328,26.7328,0,0,0,.5733,33.7684"/><path class="cls-8" d="M8.8466,32.1306a26.1047,26.1047,0,0,0-6.5915,3.5813"/><path class="cls-8" d="M16.7258,30.7493a18.7608,18.7608,0,0,1,8.8613,1.2613"/><path class="cls-8" d="M16.5872,31.3978A26.7328,26.7328,0,0,1,25.14,33.7684"/><path class="cls-8" d="M16.8671,32.1306a26.1047,26.1047,0,0,1,6.5915,3.5813"/><path class="cls-9" d="M5.5508,26.0215A1.3812,1.3812,0,1,0,6.9319,24.64,1.3812,1.3812,0,0,0,5.5508,26.0215Z"/><path class="cls-10" d="M6.0671,26.0215a.8649.8649,0,1,0,.8648-.8649A.8648.8648,0,0,0,6.0671,26.0215Z"/><path class="cls-9" d="M17.2766,26.0215A1.3811,1.3811,0,1,0,18.6577,24.64,1.3811,1.3811,0,0,0,17.2766,26.0215Z"/><path class="cls-10" d="M17.7928,26.0215a.8649.8649,0,1,0,.8649-.8649A.8648.8648,0,0,0,17.7928,26.0215Z"/><path class="cls-11" d="M6.3617,17.4853a30.0609,30.0609,0,0,1,14.5674,1.2085,17.2486,17.2486,0,0,1-.83-2.16c-.104-.3324-.1937-.6649-.2746-.9973a15.2994,15.2994,0,0,1-.3614-2.2492c-.026-.3064-.0433-.61-.0462-.9106a14.4671,14.4671,0,0,1,.0433-1.5033c.0232-.2978.0579-.5956.1012-.89a14.8522,14.8522,0,0,1,.373-1.7924c.0751-.28.1618-.558.2514-.8326q.2515-.7458.5811-1.4773c.1157-.263.24-.5261.3759-.7834a18.628,18.628,0,0,1,1.94-3.0268,44.66,44.66,0,0,0-4.744,1.9253q-.5725.269-1.1246.5609c-.7574.396-1.4889.8152-2.1884,1.2662-.3528.2226-.6939.4539-1.0263.6938a20.718,20.718,0,0,0-2.11,1.7115c-.28.2573-.5493.5261-.8095.8008a16.3235,16.3235,0,0,0-1.5958,1.9513c-.1937.2805-.3787.5667-.5522.8615a14.7429,14.7429,0,0,0-1.1476,2.35L8.2,13.0593c-.1647.3845-.3324.7835-.4972,1.1853-.1243.3007-.2515.6071-.3729.9135C7.0064,15.9445,6.6826,16.7366,6.3617,17.4853Z"/><path class="cls-11" d="M7.7031,14.2446a15.65,15.65,0,0,1,1.2286-2.4024c.1735-.2948.3585-.581.5522-.8615A16.3235,16.3235,0,0,1,11.08,9.0294c.26-.2747.5291-.5435.8095-.8008A20.718,20.718,0,0,1,14,6.5171c.3324-.24.6735-.4712,1.0263-.6938.7-.451,1.431-.87,2.1884-1.2662q.5506-.2905,1.1246-.5609a44.66,44.66,0,0,1,4.744-1.9253,18.628,18.628,0,0,0-1.94,3.0268c-.1359.2573-.26.52-.3759.7834q-.33.7329-.5811,1.4773c-.09.2746-.1763.5522-.2514.8326a14.8522,14.8522,0,0,0-.373,1.7924c-.0433.2948-.078.5926-.1012.89a14.4671,14.4671,0,0,0-.0433,1.5033c.0029.3006.02.6042.0462.9106a15.2994,15.2994,0,0,0,.3614,2.2492q.0622.2559.1325.512c-3.8953-1.6274-8.2568-1.3643-12.551-1.0772C7.5045,14.728,7.6042,14.4839,7.7031,14.2446Z"/><path class="cls-11" d="M7.7031,14.2446c.1648-.4018.3325-.8008.4972-1.1853Z"/><path class="cls-9" d="M8.9317,11.8422a41.9706,41.9706,0,0,1,10.5317,1.4455c-.026-.3064-.0433-.61-.0462-.9106a42.8511,42.8511,0,0,0-9.9333-1.3964C9.29,11.2612,9.1052,11.5474,8.9317,11.8422Z"/><path class="cls-9" d="M11.08,9.0294a29.4833,29.4833,0,0,1,8.3808,1.8444c.0232-.2978.0579-.5956.1012-.89a30.54,30.54,0,0,0-7.6725-1.7548C11.6088,8.4859,11.34,8.7547,11.08,9.0294Z"/><path class="cls-9" d="M14,6.5171A28.4623,28.4623,0,0,1,19.9347,8.191c.0751-.28.1618-.558.2514-.8326a29.4817,29.4817,0,0,0-5.16-1.5351C14.6731,6.0459,14.332,6.2772,14,6.5171Z"/><path class="cls-9" d="M17.2143,4.5571a24.4144,24.4144,0,0,1,3.5529,1.324c.1157-.263.24-.5261.3759-.7834a24.5364,24.5364,0,0,0-2.8042-1.1015Q17.7664,4.2652,17.2143,4.5571Z"/><path class="cls-12" d="M23.0829,1.8878A1.8878,1.8878,0,1,0,24.9707,0,1.8878,1.8878,0,0,0,23.0829,1.8878Z"/><path class="cls-13" d="M7.7031,14.2446c.1648-.4018.3325-.8008.4972-1.1853l-.4.95a12.835,12.835,0,0,1,1.1316-2.1671c.1735-.2948.3585-.581.5522-.8615A16.3235,16.3235,0,0,1,11.08,9.0294c.26-.2747.5291-.5435.8095-.8008A20.718,20.718,0,0,1,14,6.5171c.3324-.24.6735-.4712,1.0263-.6938.7-.451,1.431-.87,2.1884-1.2662q.5506-.2905,1.1246-.5609c.4866-.2335.9854-.4548,1.4893-.6708C15.4359,6.0336,11.08,9.0294,8.8466,14.7572c-.7884.04-.6532.1618-1.44.2145C7.5045,14.728,7.6042,14.4839,7.7031,14.2446Z"/><path class="cls-12" d="M7.33,15.1581c.0247-.0625.0509-.1239.0761-.1864h0c.0982-.2437.1979-.4878.2968-.7271a31.1719,31.1719,0,0,1,12.1217,1.2923c.0809.3324.1706.6649.2746.9973a17.2486,17.2486,0,0,0,.83,2.16A30.0609,30.0609,0,0,0,6.3617,17.4853C6.6826,16.7366,7.0064,15.9445,7.33,15.1581Z"/><path class="cls-12" d="M7.33,15.1581c.0247-.0625.0509-.1239.0761-.1864.0982-.2437.1979-.4878.2968-.7271.4869-.0446.904-.0736,1.3926-.0949a12.1647,12.1647,0,0,0-.61,3.1106c-.72.0626-1.3542.132-2.1243.225C6.6826,16.7366,7.0064,15.9445,7.33,15.1581Z"/><path class="cls-9" d="M5.8977,25.6007a.4208.4208,0,1,0,.4208-.4209A.4208.4208,0,0,0,5.8977,25.6007Z"/><path class="cls-9" d="M17.7206,25.6007a.4208.4208,0,1,0,.4208-.4209A.4208.4208,0,0,0,17.7206,25.6007Z"/></g></g></g></g></g></g></svg>