<svg xmlns="http://www.w3.org/2000/svg" width="151.5" height="154.5" viewBox="0 0 151.5 154.5"><defs><style>.cls-1{fill:#ff2328;}.cls-2{fill:#717171;}.cls-3{fill:#ff8588;}.cls-4{fill:#424242;}.cls-5{fill:#ebf0f0;}.cls-6{fill:#e1e8e8;}</style></defs><g id="Layer_2" data-name="Layer 2"><g id="Layer_1-2" data-name="Layer 1"><path class="cls-1" d="M6,52.867c1.946-1.364,15.73-10.6825,33-6a39.8906,39.8906,0,0,1,22.5,16.5H126c.3745-4.1271,3.3758-42.31-18-57C84.9706-9.4594,35.9368,3.5564,6,52.867Z"/><path class="cls-2" d="M33.49,83.0557C39.39,93.2735,47.0053,94.9871,53.136,91.4475s8.4546-10.9918,2.5553-21.21S32.8219,51.99,31.773,54.4457,27.591,72.8379,33.49,83.0557Z"/><path class="cls-3" d="M31.3408,55.8206C30.1183,60.5273,28.275,74.0228,33.49,83.0557c4.9229,8.5267,11.0387,11.1159,16.4918,9.6874,2.7754-4.4524,2.4291-11.5621-2.9867-20.9426C43.4156,65.6,36.9956,59.7725,31.3408,55.8206Z"/><path class="cls-2" d="M137.51,83.0557c-5.8993,10.2178-13.5151,11.9314-19.6458,8.3918s-8.4546-10.9918-2.5553-21.21S138.1781,51.99,139.227,54.4457,143.409,72.8379,137.51,83.0557Z"/><path class="cls-3" d="M139.6592,55.8206c1.2225,4.7067,3.0658,18.2022-2.1494,27.2351-4.9229,8.5267-11.0387,11.1159-16.4918,9.6874-2.7754-4.4524-2.4291-11.5621,2.9867-20.9426C127.5844,65.6,134.0044,59.7725,139.6592,55.8206Z"/><ellipse class="cls-2" cx="85.5" cy="108" rx="52.4966" ry="46.497"/><path class="cls-4" d="M79.5,130.18a.75.75,0,0,1,0-1.5,5.2563,5.2563,0,0,0,5.25-5.25.75.75,0,0,1,1.5,0A6.7573,6.7573,0,0,1,79.5,130.18Z"/><path class="cls-4" d="M91.5,130.18a6.7573,6.7573,0,0,1-6.75-6.75.75.75,0,0,1,1.5,0,5.2563,5.2563,0,0,0,5.25,5.25.75.75,0,0,1,0,1.5Z"/><path class="cls-4" d="M114,105.75a.75.75,0,0,1-.75-.75,6.75,6.75,0,0,0-13.5,0,.75.75,0,0,1-1.5,0,8.25,8.25,0,0,1,16.5,0A.75.75,0,0,1,114,105.75Z"/><path class="cls-4" d="M72,105.75a.75.75,0,0,1-.75-.75,6.75,6.75,0,0,0-13.5,0,.75.75,0,0,1-1.5,0,8.25,8.25,0,0,1,16.5,0A.75.75,0,0,1,72,105.75Z"/><path class="cls-4" d="M85.5,125.68a.75.75,0,0,1-.75-.75v-9a.75.75,0,0,1,1.5,0v9A.75.75,0,0,1,85.5,125.68Z"/><path class="cls-3" d="M78,112.93c0,3.3137,3.3579,6,7.5,6s7.5-2.6863,7.5-6c0-3.0824-3.3579-3-7.5-3S78,109.6159,78,112.93Z"/><path class="cls-5" d="M117.1729,41.2689a169.4575,169.4575,0,0,0-63.3459,0C38.3131,44.2207,34.24,64.8561,47.6013,73.2749q.1416.0891.2844.1764a139.4493,139.4493,0,0,1,75.2284,0q.1424-.087.2835-.1758C136.76,64.858,132.6872,44.2208,117.1729,41.2689Z"/><path class="cls-6" d="M124.3616,44.389a17.1165,17.1165,0,0,1-7.0594,18.9192q-.1388.0926-.2788.1833a139.4472,139.4472,0,0,0-75.2016,2.0046q-.1449-.0834-.289-.1688c-.3194-.1895-.62-.3928-.9206-.5959a16.91,16.91,0,0,0,6.9891,8.5435q.1416.0891.2844.1764a139.4493,139.4493,0,0,1,75.2284,0q.1424-.087.2835-.1758C134.3686,66.3645,133.5793,51.2235,124.3616,44.389Z"/><circle class="cls-6" cx="10.5" cy="49.5" r="10.5"/><circle class="cls-5" cx="7.5" cy="49.5" r="5.9999"/><path class="cls-4" d="M60.5961,120.4245A70.5373,70.5373,0,0,0,40,117.01a69.3705,69.3705,0,0,0-20.5,2.7611,68.6452,68.6452,0,0,1,40.22,3.1063,1.3028,1.3028,0,1,0,.9547-2.4244C60.65,120.4428,60.6207,120.4326,60.5961,120.4245Z"/><path class="cls-4" d="M58.6567,125.7678A54.4653,54.4653,0,0,0,28.5,136.4727a53.1819,53.1819,0,0,1,30.1715-8.1457,1.2808,1.2808,0,0,0,.0954-2.56c-.0335-.0012-.0666-.0012-.0995,0Z"/><path class="cls-4" d="M110.4039,120.43A70.534,70.534,0,0,1,131,117.0146a69.3672,69.3672,0,0,1,20.5,2.761,68.6474,68.6474,0,0,0-40.2195,3.1063,1.3028,1.3028,0,1,1-.9547-2.4244C110.35,120.4478,110.3793,120.4376,110.4039,120.43Z"/><path class="cls-4" d="M112.3433,125.7679A54.4662,54.4662,0,0,1,142.5,136.4729a53.1819,53.1819,0,0,0-30.1715-8.1457,1.2808,1.2808,0,0,1-.0954-2.56c.0335-.0012.0666-.0012.1,0Z"/></g></g></svg>