<svg xmlns="http://www.w3.org/2000/svg" width="26.5203" height="38.4125" viewBox="0 0 26.5203 38.4125"><defs><style>.cls-1{isolation:isolate;}.cls-15,.cls-18,.cls-2{mix-blend-mode:multiply;}.cls-3{fill:#00bdb8;}.cls-4{fill:#99d4d1;}.cls-5{fill:#b1e7e1;}.cls-10,.cls-6{fill:none;stroke:#623906;stroke-linecap:round;stroke-miterlimit:10;}.cls-6{stroke-width:0.2433px;}.cls-7{fill:#f08b88;}.cls-8{fill:#fff;}.cls-9{fill:#623906;}.cls-10{stroke-width:0.2075px;}.cls-11{fill:#d7c391;}.cls-12{fill:#cd2a1b;}.cls-13{fill:#fa4751;}.cls-14{fill:#fa8581;}.cls-15{opacity:0.55;}.cls-16{fill:#919390;}.cls-17{fill:#eedcae;}.cls-18{opacity:0.21;}</style></defs><g class="cls-1"><g id="Layer_2" data-name="Layer 2"><g id="Layer_1-2" data-name="Layer 1"><g id="New_Symbol" data-name="New Symbol" class="cls-2"><g id="New_Symbol_10" data-name="New Symbol 10"><g id="New_Symbol_14" data-name="New Symbol 14"><path class="cls-3" d="M2.6473,7.572,4.1264,5.903,7.0432,2.764a8.1767,8.1767,0,0,0-4.4-2.7133C2.5072.032,2.4089-.0172,2.3313.0061A9.9124,9.9124,0,0,0,2.6473,7.572Z"/><path class="cls-4" d="M2.8683,4.1312A10.7129,10.7129,0,0,1,2.3313.0061a9.9124,9.9124,0,0,0,.316,7.5659L4.1264,5.903A9.1254,9.1254,0,0,1,2.8683,4.1312Z"/><path class="cls-3" d="M24.022,7.572,22.543,5.903,19.6262,2.764a8.1762,8.1762,0,0,1,4.4-2.7133c.1363-.0187.2346-.0679.3121-.0446A9.9124,9.9124,0,0,1,24.022,7.572Z"/><path class="cls-4" d="M23.801,4.1312A10.7129,10.7129,0,0,0,24.338.0061a9.9124,9.9124,0,0,1-.316,7.5659L22.543,5.903A9.1291,9.1291,0,0,0,23.801,4.1312Z"/><path class="cls-5" d="M25.2822,8.3566a9.6293,9.6293,0,0,1,.3563,5.0317,6.5542,6.5542,0,0,1-4.1864,4.7626c-2.6665,1.0231-5.3626.28-8.0907.019a9.4833,9.4833,0,0,0-3.0079.3471,10.3269,10.3269,0,0,1-2.5748.1814,9.9639,9.9639,0,0,1-3.8452-.9172A5.1577,5.1577,0,0,1,1.25,14.9762a7.5235,7.5235,0,0,1-.0258-5.5243,13.4048,13.4048,0,0,1,11.68-9.18c.03-.005.0577-.007.0881-.0092,4.2927-.3145,9.1835,2.5129,11.3945,6.1715A9.9664,9.9664,0,0,1,25.2822,8.3566Z"/><path class="cls-6" d="M13.4231,8.8568A3.1053,3.1053,0,0,0,13.97,11.089a2.4877,2.4877,0,0,0,1.9172.8489"/><path class="cls-6" d="M13.42,8.8568a3.1052,3.1052,0,0,1-.5472,2.2322,2.4878,2.4878,0,0,1-1.9172.8489"/><path class="cls-7" d="M14.4108,8.2808c.1139.0566-.997.9227-.997.9227l-.997-.9227A2.22,2.22,0,0,1,14.4108,8.2808Z"/><path class="cls-8" d="M6.1962,6.8323a1.66,1.66,0,0,0,3.2458,0Z"/><path class="cls-9" d="M7.1485,6.8323a.9636.9636,0,0,0,1.8844,0Z"/><path class="cls-8" d="M7.485,7.0991a.1683.1683,0,1,1-.1683-.1682A.1683.1683,0,0,1,7.485,7.0991Z"/><path class="cls-8" d="M17.7966,6.8323a1.66,1.66,0,0,0,3.2458,0Z"/><path class="cls-9" d="M18.7489,6.8323a.9636.9636,0,0,0,1.8844,0Z"/><circle class="cls-8" cx="18.9171" cy="7.0991" r="0.1682"/><path class="cls-10" d="M21.2175,9.8129a10.3939,10.3939,0,0,1,3.9956-.1092"/><path class="cls-10" d="M20.8651,10.6776A9.9161,9.9161,0,0,1,24.9492,11.77"/><path class="cls-10" d="M20.5492,11.5438a6.1076,6.1076,0,0,1,2.9241,1.8592"/><path class="cls-10" d="M4.863,9.8129a10.37,10.37,0,0,0-3.1478-.2156"/><path class="cls-10" d="M5.2155,10.6776a9.9161,9.9161,0,0,0-3.7992.9509"/><path class="cls-10" d="M5.5314,11.5438a6.1083,6.1083,0,0,0-2.8238,1.7468"/><path class="cls-4" d="M10.5312,5.0672c.1721-.1154.36.0739.1224.1254C10.5181,5.2232,10.4181,5.1521,10.5312,5.0672Z"/><path class="cls-4" d="M8.9221,2.7756a.0929.0929,0,0,1,.04-.0482.5291.5291,0,0,1,.468-.1022c.1477.0474.2431.1767.0925.2864a.48.48,0,0,1-.35.0739C9.1024,2.9749,8.89,2.9072,8.9221,2.7756Z"/><path class="cls-4" d="M11.3546.9588c.0237.26-.5517.48-.52.1227C10.8572.8193,11.3377.785,11.3546.9588Z"/><path class="cls-4" d="M8.7634,3.7475c.0151-.3653.6546-.1713.4577.0962C9.1005,4.0017,8.7587,3.9293,8.7634,3.7475Z"/><path class="cls-4" d="M11.4758,4.11c.0516.1906-.2529.3921-.2819.1321C11.1705,4.0507,11.4427,3.9907,11.4758,4.11Z"/><path class="cls-4" d="M8.8522,4.3873c.0841.1767-.1833.4236-.2569.176C8.5391,4.3815,8.7988,4.2774,8.8522,4.3873Z"/><path class="cls-4" d="M8.3892,2.2928c.1136.2338-.3028.5819-.3979.2515C7.9183,2.3019,8.3164,2.1467,8.3892,2.2928Z"/><path class="cls-4" d="M11.2553,2.3626c.0555.1551-.1466.2764-.24.3114a.2668.2668,0,0,1-.2067.0106c-.0618-.0325-.1422-.1409-.1145-.22a.1545.1545,0,0,1,.1008-.09c.0424-.0151.0876-.0207.1292-.0386C10.9993,2.3035,11.2092,2.2353,11.2553,2.3626Z"/><path class="cls-4" d="M10.1757,1.8605c-.0168.2276-.6487.17-.5537-.11C9.6934,1.5358,10.1883,1.7107,10.1757,1.8605Z"/><path class="cls-4" d="M10.3142,3.7277c.0858.2426-.3053.5444-.37.2063C9.8941,3.6868,10.2586,3.5735,10.3142,3.7277Z"/><path class="cls-4" d="M11.5222,5.2342c.0178.065-.0793.1327-.0887.0441C11.4259,5.2131,11.5111,5.1936,11.5222,5.2342Z"/><path class="cls-4" d="M9.3413,5.2148c.1325-.0794.22.2126.0227.1466C9.2952,5.3391,9.24,5.2785,9.3413,5.2148Z"/><path class="cls-4" d="M10.2973,6.2234c.0872-.0467.1388.1613.0117.1025C10.2647,6.3055,10.23,6.26,10.2973,6.2234Z"/><path class="cls-4" d="M9.9926,4.6448c.1423-.1574.3106.1776.0593.1769C9.9645,4.8214,9.8844,4.7664,9.9926,4.6448Z"/><path class="cls-4" d="M12.9484,6.7355c-.0023.0193-.0228.01-.0339.0072a.1186.1186,0,0,1-.0469-.0213.0711.0711,0,0,1-.0223-.0292c-.011-.0288.0081-.056.03-.0523s.043.0278.0588.0532A.0721.0721,0,0,1,12.9484,6.7355Z"/><path class="cls-4" d="M11.3427,5.7854a.0475.0475,0,0,1,.031.0285.0633.0633,0,0,1-.0124.056.1374.1374,0,0,1-.0381.0356.0408.0408,0,0,1-.0566-.0061.0841.0841,0,0,1-.012-.0246.1306.1306,0,0,1-.0074-.0572C11.2545,5.7611,11.3121,5.7746,11.3427,5.7854Z"/><path class="cls-4" d="M10.9973,3.5228a.111.111,0,0,1-.058-.1312c.0155-.0477.0607-.0709.0959-.0951a.2965.2965,0,0,1,.1079-.0463.1115.1115,0,0,1,.119.0356.2033.2033,0,0,1,.0117.1551.2213.2213,0,0,1-.0287.0788C11.185,3.6065,11.0728,3.5641,10.9973,3.5228Z"/><path class="cls-4" d="M9.14,1.4825a.0962.0962,0,0,1,.0792.1139c-.0116.0489-.0579.08-.0927.11a.4431.4431,0,0,1-.11.0679.1286.1286,0,0,1-.1332-.005.17.17,0,0,1-.0375-.1443.2028.2028,0,0,1,.0193-.0822C8.9185,1.4448,9.051,1.4569,9.14,1.4825Z"/><path class="cls-4" d="M13.5938,4.79c.1936-.0759.3369.1452.0928.1487C13.5471,4.9416,13.4645,4.8432,13.5938,4.79Z"/><path class="cls-4" d="M12.5183,2.2021a.0947.0947,0,0,1,.0492-.0391.5123.5123,0,0,1,.4789.0049c.1339.0765.199.2225.0282.2994a.4733.4733,0,0,1-.3583-.0085C12.6506,2.4343,12.4584,2.3245,12.5183,2.2021Z"/><path class="cls-4" d="M15.1594.8509c-.0333.2625-.6411.3417-.5334.0055C14.7046.5991,15.18.6824,15.1594.8509Z"/><path class="cls-4" d="M12.0847.597c.3895-.2609.77.2813.2467.3477C12.0349.98,11.8284.7676,12.0847.597Z"/><path class="cls-4" d="M12.1505,3.1128c.0955-.3423.6773-.0257.4267.1969C12.4252,3.4447,12.1057,3.2871,12.1505,3.1128Z"/><path class="cls-4" d="M14.7248,4.0558c.01.1939-.3316.3291-.3041.07C14.4389,3.9341,14.7184,3.9281,14.7248,4.0558Z"/><path class="cls-4" d="M12.0967,3.7577c.0434.19-.2728.3779-.29.12C11.7919,3.6879,12.0687,3.639,12.0967,3.7577Z"/><path class="cls-4" d="M12.1039,1.6131c.0595.2485-.4221.505-.4423.1612C11.6439,1.5229,12.0646,1.45,12.1039,1.6131Z"/><path class="cls-4" d="M14.8852,2.3022c.0209.1623-.2023.2357-.3011.2531A.2667.2667,0,0,1,14.38,2.524a.2227.2227,0,0,1-.0644-.24.1608.1608,0,0,1,.1179-.0667c.0447-.0062.09-.0026.1346-.0116C14.648,2.19,14.8679,2.1643,14.8852,2.3022Z"/><path class="cls-4" d="M13.9394,1.58c-.0657.2254-.6694.0207-.5164-.2293C13.5388,1.1622,13.9839,1.4387,13.9394,1.58Z"/><path class="cls-4" d="M13.6714,3.4362c.0315.2555-.4166.4567-.4062.1181C13.27,3.2973,13.65,3.2718,13.6714,3.4362Z"/><path class="cls-4" d="M14.5283,5.1623c.0034.0671-.1063.1141-.0965.0255C14.4385,5.1225,14.5261,5.12,14.5283,5.1623Z"/><path class="cls-4" d="M12.3941,4.675c.1478-.0467.17.2586-.01.1473C12.3211,4.7836,12.28,4.7112,12.3941,4.675Z"/><path class="cls-4" d="M13.1125,5.8686c.0959-.0285.1012.1857-.0109.1028C13.0624,5.9425,13.0384,5.8907,13.1125,5.8686Z"/><path class="cls-4" d="M13.1578,4.26c.1735-.1255.2656.2366.02.1852C13.0918,4.4277,13.0253,4.3576,13.1578,4.26Z"/><path class="cls-4" d="M12.075,5.8323c-.0065.0185-.0247.0053-.035,0a.1171.1171,0,0,1-.0413-.03.0687.0687,0,0,1-.0154-.0331c-.0044-.03.02-.0534.0413-.0453a.1042.1042,0,0,1,.0461.0642A.07.07,0,0,1,12.075,5.8323Z"/><path class="cls-4" d="M14.2335,5.6662a.0464.0464,0,0,1,.0243.034.0645.0645,0,0,1-.0243.0524.14.14,0,0,1-.045.0272.04.04,0,0,1-.0542-.0175.0884.0884,0,0,1-.0064-.0269.13.13,0,0,1,.0051-.0574C14.1524,5.6256,14.2059,5.6492,14.2335,5.6662Z"/><path class="cls-4" d="M14.3833,3.3823a.11.11,0,0,1-.0284-.14.2087.2087,0,0,1,.1143-.0738.3027.3027,0,0,1,.1155-.0236.11.11,0,0,1,.1087.0588.2033.2033,0,0,1-.022.1541.2256.2256,0,0,1-.045.0714C14.5489,3.5019,14.4483,3.4378,14.3833,3.3823Z"/><path class="cls-4" d="M13.86.4771a.1215.1215,0,0,1,.0672.163A.3069.3069,0,0,1,13.781.754a.473.473,0,0,1-.1551.0536.1664.1664,0,0,1-.1642-.0471.2174.2174,0,0,1-.007-.19.2522.2522,0,0,1,.0467-.096C13.5949.3691,13.7562.4242,13.86.4771Z"/><path class="cls-4" d="M16.6426,5.1775c.2054-.0353.2972.209.0583.1637C16.5643,5.3159,16.505,5.2032,16.6426,5.1775Z"/><path class="cls-4" d="M16.1536,2.4153a.0877.0877,0,0,1,.0564-.0268.5414.5414,0,0,1,.4665.1093c.1146.1019.1468.2575-.0371.2981a.4573.4573,0,0,1-.3485-.0829C16.2325,2.6721,16.0689,2.5209,16.1536,2.4153Z"/><path class="cls-4" d="M19.9019,2.494c-.0913.252-.7033.1958-.5235-.112C19.51,2.1546,19.9587,2.3344,19.9019,2.494Z"/><path class="cls-4" d="M16.0748.7587c.4382-.1784.6915.4418.1667.39C15.9436,1.1233,15.7871.8734,16.0748.7587Z"/><path class="cls-4" d="M15.5975,3.2312c.1678-.3182.6674.116.3751.2782C15.7948,3.6108,15.5162,3.3927,15.5975,3.2312Z"/><path class="cls-4" d="M17.9008,4.707c-.0345.1953-.3921.2429-.3091-.0028C17.652,4.5193,17.9212,4.5855,17.9008,4.707Z"/><path class="cls-4" d="M15.4067,3.8467c.0019.1925-.3472.3078-.3089.0544C15.1244,3.7113,15.4054,3.7209,15.4067,3.8467Z"/><path class="cls-4" d="M15.8748,1.7558c.0041.2592-.52.3935-.4661.059C15.4461,1.56,15.8711,1.5909,15.8748,1.7558Z"/><path class="cls-4" d="M18.7349,2.7758c-.0157.1645-.2492.1859-.348.1768a.2733.2733,0,0,1-.1931-.0733.2206.2206,0,0,1-.0109-.2471.1637.1637,0,0,1,.13-.0409c.0452.0031.0889.016.1344.0163C18.5292,2.61,18.7471,2.6408,18.7349,2.7758Z"/><path class="cls-4" d="M17.3563,2.0478c-.113.2057-.6605-.1175-.4563-.3311C17.0539,1.5587,17.4312,1.9172,17.3563,2.0478Z"/><path class="cls-4" d="M17.0119,3.8715c-.0253.2587-.5055.3589-.4211.026C16.65,3.6517,17.0263,3.71,17.0119,3.8715Z"/><path class="cls-4" d="M17.4672,5.7439c-.0116.0665-.1269.0853-.098.0011C17.39,5.6828,17.4743,5.7024,17.4672,5.7439Z"/><path class="cls-4" d="M15.5,4.8073c.1546-.0162.11.2866-.0415.142C15.4049,4.8989,15.38,4.82,15.5,4.8073Z"/><path class="cls-4" d="M15.9422,6.1255c.1-.0088.0586.2014-.0328.0982C15.8774,6.1878,15.8652,6.1324,15.9422,6.1255Z"/><path class="cls-4" d="M16.3336,4.5638c.1962-.0856.2067.2917-.0209.1848C16.233,4.714,16.1832,4.6323,16.3336,4.5638Z"/><path class="cls-4" d="M14.94,5.8665c-.01.0167-.0254,0-.0343-.0067a.1129.1129,0,0,1-.0339-.0379.0679.0679,0,0,1-.008-.0355c.0023-.0308.0314-.0482.05-.0361a.1012.1012,0,0,1,.0312.0718A.0707.0707,0,0,1,14.94,5.8665Z"/><path class="cls-4" d="M13.7054,7.27c-.01.0167-.0254,0-.0343-.0067a.1123.1123,0,0,1-.0339-.038.0674.0674,0,0,1-.008-.0354c.0023-.0308.0314-.0482.05-.0361a.1012.1012,0,0,1,.0312.0718A.0714.0714,0,0,1,13.7054,7.27Z"/><path class="cls-4" d="M14.47,6.6045a.045.045,0,0,1,.0161.038.0649.0649,0,0,1-.035.0462.1408.1408,0,0,1-.05.0176.0391.0391,0,0,1-.0488-.0278.0847.0847,0,0,1,0-.0276A.1313.1313,0,0,1,14.37,6.596C14.4,6.5488,14.447,6.5824,14.47,6.6045Z"/><path class="cls-4" d="M17.7173,3.9723A.1092.1092,0,0,1,17.72,3.83a.2129.2129,0,0,1,.1279-.0486.2589.2589,0,0,1,.1173.0034.1128.1128,0,0,1,.092.0842.2027.2027,0,0,1-.0551.1453.2168.2168,0,0,1-.0591.0587C17.8526,4.124,17.7692,4.0383,17.7173,3.9723Z"/><path class="cls-4" d="M17.31,2.9687a.1091.1091,0,0,1,.0027-.1424.2127.2127,0,0,1,.1279-.0486.2589.2589,0,0,1,.1173.0034.1128.1128,0,0,1,.092.0842.2027.2027,0,0,1-.0551.1453.2168.2168,0,0,1-.0591.0587C17.4448,3.12,17.3613,3.0347,17.31,2.9687Z"/><path class="cls-4" d="M18.2032,1.4a.12.12,0,0,1,.0307.1728.3143.3143,0,0,1-.1679.0812.4819.4819,0,0,1-.1639.0206.1659.1659,0,0,1-.1509-.08.217.217,0,0,1,.0344-.1875.2558.2558,0,0,1,.0665-.084C17.9667,1.24,18.1132,1.327,18.2032,1.4Z"/><path class="cls-11" d="M21.7433,37.25a17.8132,17.8132,0,0,1-.6167-2.3422c.2027-.0094.303-.0145.5056-.0236.0931.4425.4015,1.8009.5333,2.2909C22.2973,37.6676,21.9791,37.7267,21.7433,37.25Z"/><path class="cls-11" d="M20.625,36.8857a7.8821,7.8821,0,0,1-.5285-1.9385c.3085-.0123.4622-.0173.7705-.03.0448.415.2292,1.376.3248,1.8244C21.2974,37.2352,20.8843,37.3478,20.625,36.8857Z"/><path class="cls-11" d="M20.3785,38.2229c-.4637-.0252-1.1195-2.417-1.3285-3.24.3656-.0123.5466-.02.9123-.032C20.0916,35.7151,21.0335,38.2561,20.3785,38.2229Z"/><path class="cls-11" d="M17.4757,37.9992c-.399-.03-1.037-2.3261-1.1375-2.9676.2716-.0026.4081-.0038.68-.0065C17.127,35.7574,17.8672,38.0266,17.4757,37.9992Z"/><path class="cls-11" d="M16.55,38.2256c-.4914,0-1.0945-2.5343-1.17-3.1978.28.0015.4194.0026.6986.005C16.1432,35.7219,17.0526,38.2229,16.55,38.2256Z"/><path class="cls-11" d="M18.36,37.6518c-.1718.0026-.43-.4375-.4836-.5295a7.2851,7.2851,0,0,1-.5742-2.1007c.2793-.0053.419-.0079.6985-.0135.0328-.0006.3,1.8314.3175,1.9061.03.129.2262.6467.0815.7261Z"/><path class="cls-11" d="M18.8177,37.433a9.5746,9.5746,0,0,1-.622-2.4282c.2343-.0067.3525-.01.5871-.0164.0975.5271.4708,1.7283.6539,2.332C19.5857,37.8125,19.0828,37.9022,18.8177,37.433Z"/><path class="cls-11" d="M14.237,35.2548c.02.2269.0762,1.03.15,1.3557a6.104,6.104,0,0,1,.1309.7887c.0379.4265-.5078.369-.6252-.1182a7.4258,7.4258,0,0,1-.1062-.8719,3.9446,3.9446,0,0,1,.0527-1.1632c.0108-.0064.2447-.2828.3751-.2713C14.2218,35.0863,14.2266,35.1427,14.237,35.2548Z"/><path class="cls-11" d="M14.4229,35l.7757.0256c.0362.6858.9556,3.4335.4457,3.3864-.2856-.0267-.812-.9727-1.0083-1.7773-.0735-.3-.1475-1.1015-.18-1.3558C14.44,35.1589,14.4307,35.061,14.4229,35Z"/><path class="cls-12" d="M12.5985,19.64a4.5052,4.5052,0,0,1,3.4282-.3775c1.7358.33.682.0721,2.8215,1.452,2.2883,1.4759,3.0786,4.5832,3.1607,6.7092.1005,2.5922-.466,5.0556-.35,7.6943-2.7361.1049-5.0912.1367-7.8373.1423C14.65,31.0566,18.0577,21.786,12.5985,19.64Z"/><path class="cls-13" d="M25.8163,11.9229c-2.8714,7.0535-16.5422,5.1656-21.7655,2.7509A6.4483,6.4483,0,0,1,.72,11.6a10.8652,10.8652,0,0,0-.0575,7.6461c1.4406,3.0281,5.4685,4.0712,10.669,4.351,4.4477.239,12.0555-.013,14.5993-3.92C27.3208,17.5418,25.8163,11.9229,25.8163,11.9229Z"/><path class="cls-14" d="M4.0508,14.9414A6.45,6.45,0,0,1,.72,11.8671a12.052,12.052,0,0,0-.7174,4.02A12.09,12.09,0,0,1,.72,11.6a6.4483,6.4483,0,0,0,3.3305,3.074c5.2233,2.4147,18.8941,4.3026,21.7655-2.7509a22.33,22.33,0,0,1,.7021,5.1094,22.886,22.886,0,0,0-.7021-4.8425C22.9449,19.2438,9.2741,17.356,4.0508,14.9414Z"/><g class="cls-15"><path class="cls-16" d="M21.6952,33.7141c.071.1951.0331.3242-.0544.3827-.0048-.2158-.0174-.4236-.0319-.6261C21.64,33.5588,21.6687,33.6409,21.6952,33.7141Z"/><path class="cls-16" d="M16.0954,31.3329c1.4932-5.0606,4.0907-11.3424-2.4889-14.2544l8.1821.42a8.2776,8.2776,0,0,1,2.8523,6.2306c.0205,2.5375-.74,4.9542-.67,7.5311H21.726a3.82,3.82,0,0,1,.273-.6458,3.82,3.82,0,0,0-.273.6458h0a3.8081,3.8081,0,0,0-.1705,1.1371c-.1122-.3413-.2067-.6573-.2692-.8913-.0912.002-.1822.0044-.2729.0065.1091.4988.39,1.371.5955,1.9584.0145.2025.0271.41.0319.6261-.1328.0888-.381.0118-.5579-.27a7.7574,7.7574,0,0,1-.6623-2.3027c-.0613.0012-.123.0027-.1847.0033.0875.4112.3018,1.7173.3193,1.78.0369.129.2622.6477.1234.7276l-.039.01c-.1713.0027-.4574-.4373-.5155-.5288a6.228,6.228,0,0,1-.6-1.9772c-.0938.0012-.1878.003-.2813.0038.166.8331.9128,2.8759.5389,2.8494-.379-.0273-1.0612-2.0715-1.2186-2.8412-.0875.0006-.1744.0019-.2623.0024.1491.8237,1.0514,3.0643.5763,3.067-.4625,0-1.1356-2.2439-1.2728-3.0611-.0626,0-.1254.0006-.1875.0011.1356.8555,1.0562,3.2892.5711,3.2449-.2877-.0267-.9-.9725-1.1264-1.7771-.0843-.3007-.1721-1.1009-.2046-1.3551-.0054-.04-.0088-.0744-.0122-.1088-.0716,0-.142.0006-.2139.0006.0026.025.005.052.0079.0841a11.6554,11.6554,0,0,0,.1744,1.3554,7.6866,7.6866,0,0,1,.1677.7879c.0635.4271-.4857.37-.6311-.1179a5.8608,5.8608,0,0,1-.1446-.8713A5.7237,5.7237,0,0,1,16.0954,31.3329Z"/></g><path class="cls-17" d="M24.4732,33.5277a14.3,14.3,0,0,1-.6677-2.3429c.2025-.0094.3034-.0144.5061-.0236.09.4425.4222,1.8009.58,2.2915C25.05,33.9454,24.736,34.0045,24.4732,33.5277Z"/><path class="cls-17" d="M23.3373,33.1623a7.0748,7.0748,0,0,1-.5622-1.9373c.3081-.012.4633-.0185.7714-.0311a17.7926,17.7926,0,0,0,.3517,1.8252C24.0227,33.5124,23.617,33.6244,23.3373,33.1623Z"/><path class="cls-17" d="M23.1806,34.5c-.4666-.0256-1.2485-2.4176-1.452-3.2407.3656-.0126.5469-.0188.9122-.0317C22.765,31.9926,23.8384,34.5333,23.1806,34.5Z"/><path class="cls-17" d="M20.2576,34.2759c-.4014-.03-1.1446-2.325-1.2417-2.9665.2719-.0027.4086-.0044.68-.0065C19.8016,32.0352,20.6515,34.3032,20.2576,34.2759Z"/><path class="cls-17" d="M19.3528,34.5039c-.4914,0-1.2208-2.5345-1.2923-3.1989.2791.0021.4182.0026.6973.005C18.8188,31.999,19.8549,34.501,19.3528,34.5039Z"/><path class="cls-17" d="M21.1152,33.9284c-.1713.0023-.4567-.4374-.515-.5289a6.5575,6.5575,0,0,1-.6206-2.1c.28-.0053.4193-.0085.699-.0141.0329-.0012.3315,1.8311.3528,1.9055.0363.129.2621.6473.1231.7272Z"/><path class="cls-17" d="M21.5585,33.71a8.3433,8.3433,0,0,1-.6845-2.4269c.235-.0071.3526-.0106.5872-.0171a20.6158,20.6158,0,0,0,.71,2.3321C22.3492,34.09,21.8527,34.1791,21.5585,33.71Z"/><path class="cls-17" d="M16.8646,31.584a11.6533,11.6533,0,0,0,.1742,1.3557,7.6769,7.6769,0,0,1,.1679.7876c.0634.4271-.4854.37-.6308-.1176a6.4178,6.4178,0,0,1-.1451-.8719,3.7935,3.7935,0,0,1,.0285-1.2179c.1378.0235.2532-.2281.3833-.2166C16.85,31.4161,16.8541,31.4717,16.8646,31.584Z"/><path class="cls-17" d="M17.1012,31.2765c.31.0105.4653.0165.7753.0268.0324.6857,1.1024,3.4323.5877,3.385-.2882-.0265-.9-.9719-1.1263-1.7765-.0849-.3007-.1726-1.1009-.2051-1.3552C17.1171,31.4367,17.1092,31.3385,17.1012,31.2765Z"/><path class="cls-13" d="M13.7453,17.0732a5.2126,5.2126,0,0,1,3.7159-.48c1.7608.33,1.6029-.9809,3.9943.3987,2.5583,1.4751,3.5317,4.5823,3.5491,6.7083.0212,2.5913-.7749,5.0556-.6674,7.6942-2.7365.105-5.1539.1359-7.9.1412C17.836,26.4874,20.6,19.9723,13.7453,17.0732Z"/><path class="cls-14" d="M24.37,29.8066c-2.5041.1394-4.94.0021-7.4278-.0132.12-.4068.24-.8192.3573-1.2343h7.2C24.4481,28.9729,24.4006,29.3881,24.37,29.8066Z"/><path class="cls-14" d="M24.8612,25.8951c-.0662.5583-.1456,1.115-.2255,1.6736a51.2938,51.2938,0,0,1-7.0531-.0653c.104-.41.1993-.8213.2825-1.2314A40.4026,40.4026,0,0,0,24.8612,25.8951Z"/><path class="cls-14" d="M21.4555,16.9921c2.5583,1.4751,3.5317,4.5823,3.5491,6.7083.0172,2.1383-.52,4.1908-.6489,6.3259l-.0283-.0515c.091-2.0328.3789-4.0826.3628-6.06-.0166-2.1251-1.1646-5.4228-3.7228-6.8982a4.1757,4.1757,0,0,0-1.6392-.6377A3.0242,3.0242,0,0,1,21.4555,16.9921Z"/><g class="cls-18"><path class="cls-16" d="M18.9016,16.8747c-.0144,0-.0283.0009-.0425.0021.1568.1359,1.1212,1.0513.8507,1.2323-.1807.1215-.8711-.75-1.1057-.8325.0333.1549.2139.2934.157.4574-.3812-.1987-.6458-.6-1.045-.757-.485-.1907-.1721.2346.0009.3936.13.12.6539.4669.5678.6942-.0983.2625-.8073-.2514-.9429-.3508-.2268-.164-.4238-.3669-.6614-.5182-.1485-.0941-.3317-.3243-.5134-.27-.1034.2217.4195.6209.5721.8963.1291.2343.1.37-.2463.2414a2.7431,2.7431,0,0,1-.8143-.652,2.3086,2.3086,0,0,0-1.2876-.6209,5.1956,5.1956,0,0,1,3.07-.1976c1.1725.22,1.4969-.2845,2.2867-.241a3.9089,3.9089,0,0,1,.5883.7361c.1272.21.3759.6573-.1176.455C19.7279,17.3419,19.4744,16.855,18.9016,16.8747Z"/></g></g></g></g></g></g></g></svg>