<svg xmlns="http://www.w3.org/2000/svg" width="29.6052" height="32.3159" viewBox="0 0 29.6052 32.3159"><defs><style>.cls-1{isolation:isolate;}.cls-10,.cls-13,.cls-2{mix-blend-mode:multiply;}.cls-3{fill:#00beb9;}.cls-4{fill:#00cec1;}.cls-5{fill:#e8d5a8;}.cls-6{fill:#ac9058;}.cls-7{fill:#fff;}.cls-10,.cls-8{fill:#fb4751;}.cls-9{fill:#2f292b;}.cls-11{fill:none;stroke:#545454;stroke-linecap:round;stroke-miterlimit:10;stroke-width:0.19px;}.cls-12{fill:#c0a975;}.cls-13{fill:#a4a6a8;opacity:0.58;}</style></defs><g class="cls-1"><g id="Layer_2" data-name="Layer 2"><g id="Layer_1-2" data-name="Layer 1"><g id="New_Symbol" data-name="New Symbol" class="cls-2"><g id="New_Symbol_10" data-name="New Symbol 10"><g id="New_Symbol_2" data-name="New Symbol 2"><path class="cls-3" d="M18.5805,1.5211c.97-.2193,1.2822.23.7371,1.0578.98.1547,1.1032.6873.29,1.2565.85.52.7585,1.079-.2273,1.3174.568.8387.2591,1.3126-.7172,1.1255.2192.97-.23,1.2822-1.0578.737-.1533.9767-.6858,1.1-1.2565.29-.3806.6242-.7838.7424-1.0649.3646a1.5513,1.5513,0,0,1-.2525-.5919,1.558,1.558,0,0,1-.5712.2649.4652.4652,0,0,1-.1924.0138c-.333-.0285-.4766-.3779-.3619-.9959-.97.2192-1.2785-.229-.737-1.0579-.9768-.1532-1.1-.6858-.2859-1.255-.85-.52-.7585-1.079.2273-1.3174-.5717-.84-.2591-1.3126.7172-1.1255-.2192-.97.23-1.2822,1.0578-.737a1.1589,1.1589,0,0,1,.3334-.7533c.2178-.1653.5117-.0586.8223.3307a1.4,1.4,0,0,1,.1008.1331c.0327-.051.0654-.1019.0952-.1455.49-.6874.9931-.55,1.2186.3713C18.2974.2374,18.7676.5448,18.5805,1.5211Z"/><path class="cls-4" d="M16.5947,1.4271c.9734-.2177,1.2822.23.737,1.0579.98.1547,1.1033.6871.29,1.2564.85.52.7585,1.0791-.2273,1.3175.568.8386.2591,1.3125-.7172,1.1255.2193.97-.23,1.2822-1.0578.737a1.1243,1.1243,0,0,1-.3356.7481c-.2178.1653-.51.0638-.8237-.327-.03-.0417-.0645-.0848-.0972-.1316-.0327.0509-.0654.1018-.0952.1454-.333-.0285-.4766-.3779-.3619-.9959-.97.2192-1.2785-.229-.737-1.0579-.9768-.1532-1.1-.6858-.2859-1.255-.85-.52-.7585-1.079.2273-1.3174-.5717-.84-.2591-1.3126.7172-1.1255-.2192-.97.23-1.2822,1.0578-.737a1.1589,1.1589,0,0,1,.3334-.7533A1.7372,1.7372,0,0,1,15.4693.71,1.7273,1.7273,0,0,1,16.0405.445a.5176.5176,0,0,1,.196-.0124C16.57.4611,16.713.8106,16.5947,1.4271Z"/><path class="cls-5" d="M28.3964,26.4907C27.7042,19.3376,24.5448,7.62,15.3334,7.8263a.2584.2584,0,0,1-.0542,0H15.231a.2447.2447,0,0,0-.0482.0034c-.1084,0-.2143,0-.3193.0035A8.5785,8.5785,0,0,0,11.055,8.8476a.2534.2534,0,0,0-.06.03,14.9068,14.9068,0,0,0-4.0058,3.4182A27.386,27.386,0,0,0,2.2313,26.5911,3.8756,3.8756,0,0,0,4.89,30.5124a31.42,31.42,0,0,0,20.861.043,3.872,3.872,0,0,0,2.6483-4.0337Z"/><path class="cls-6" d="M22.2783,13.3056a12.8592,12.8592,0,0,0-3.4689-2.9384l-.02-.0109a7.0036,7.0036,0,0,0-1.9238-.6878l.0046-.032a7.9953,7.9953,0,0,0-1.2973-.1053c-.0575,0-.1151.0006-.1794.0018l-.0455.0018-.0133.0023H15.31l-.0134-.0023-.0454-.0018c-.0643-.0012-.1219-.0018-.1794-.0018a7.9975,7.9975,0,0,0-1.2974.1053l.0047.032a7.0025,7.0025,0,0,0-1.9238.6878l-.02.0109a12.8576,12.8576,0,0,0-3.4689,2.9384,23.2823,23.2823,0,0,0-3.8386,9.05,2.6317,2.6317,0,0,0,3.7592,2.89c2.2669-1.1434,4.2007-3.4553,6.819-3.7627,3.31-.3886,4.6271,2.4386,7.2523,3.7628a2.6317,2.6317,0,0,0,3.7591-2.89A23.2805,23.2805,0,0,0,22.2783,13.3056Z"/><path class="cls-7" d="M14.2608,22.5133a3.6014,3.6014,0,0,0-2.4687,2.2873,1.5468,1.5468,0,0,0,.0529,1.3337,1.38,1.38,0,0,0,1.224.5235,2.62,2.62,0,0,0,2.0315-1.2339,3.719,3.719,0,0,0,.5059-2.3712Z"/><path class="cls-7" d="M16.3785,22.5133a3.6017,3.6017,0,0,1,2.4688,2.2873,1.5468,1.5468,0,0,1-.053,1.3337,1.3794,1.3794,0,0,1-1.224.5235,2.62,2.62,0,0,1-2.0314-1.2339,3.7184,3.7184,0,0,1-.5059-2.3712Z"/><path class="cls-8" d="M16.77,22.6048c.1558.0774-1.3645,1.2627-1.3645,1.2627l-1.3645-1.2627A3.0385,3.0385,0,0,1,16.77,22.6048Z"/><path class="cls-3" d="M22.8953,19.4922A1.6825,1.6825,0,1,1,21.2128,17.81,1.6824,1.6824,0,0,1,22.8953,19.4922Z"/><path class="cls-9" d="M22.2664,19.4922a1.0536,1.0536,0,1,1-1.0536-1.0536A1.0536,1.0536,0,0,1,22.2664,19.4922Z"/><path class="cls-9" d="M21.8156,19.4922a.6028.6028,0,1,1-.6028-.6028A.6027.6027,0,0,1,21.8156,19.4922Z"/><circle class="cls-7" cx="22.0096" cy="19.2117" r="0.5289"/><path class="cls-3" d="M11.1879,19.4922A1.6825,1.6825,0,1,1,9.5054,17.81,1.6824,1.6824,0,0,1,11.1879,19.4922Z"/><path class="cls-9" d="M10.559,19.4922a1.0536,1.0536,0,1,1-1.0536-1.0536A1.0536,1.0536,0,0,1,10.559,19.4922Z"/><path class="cls-9" d="M10.1082,19.4922a.6028.6028,0,1,1-.6028-.6028A.6027.6027,0,0,1,10.1082,19.4922Z"/><path class="cls-7" d="M9.7733,19.2117a.5289.5289,0,1,0,.5289-.5289A.5289.5289,0,0,0,9.7733,19.2117Z"/><path class="cls-8" d="M27.4948,18.7151c-1.9535-6.9165-5.5848-13.221-11.9591-13.05a.22.22,0,0,1-.0573,0h-.051a.2116.2116,0,0,0-.0509.0044c-.1146,0-.2265.0006-.3374.0044a7.9358,7.9358,0,0,0-4.025,1.2849.2531.2531,0,0,0-.0638.0381,16.9334,16.9334,0,0,0-4.2335,4.33,30.671,30.671,0,0,0-2.9544,6.551C11.6067,15.7938,19.6172,15.287,27.4948,18.7151Z"/><path class="cls-10" d="M4.5162,15.7861q-.4064,1.0275-.7538,2.0914c7.8443-2.0837,15.6546-3.0889,23.7324.8376-.3242-1.1476-.6956-2.2773-1.1169-3.3643C20.4267,10.6161,10.0412,10.5074,4.5162,15.7861Z"/><path class="cls-11" d="M22.8392,24.464a12.7887,12.7887,0,0,1,6.671,1.3344"/><path class="cls-11" d="M23.0545,25.15a22.9618,22.9618,0,0,1,5.8764,2.1745"/><path class="cls-11" d="M23.1017,26.063a27.4929,27.4929,0,0,1,4.8732,2.9026"/><path class="cls-11" d="M6.766,24.464A12.7887,12.7887,0,0,0,.095,25.7984"/><path class="cls-11" d="M6.5507,25.15A22.9618,22.9618,0,0,0,.6743,27.3243"/><path class="cls-11" d="M6.5036,26.063A27.4973,27.4973,0,0,0,1.63,28.9656"/><path class="cls-9" d="M25.3805,14.8581a6.3064,6.3064,0,0,0-.3248-.8043A12.19,12.19,0,0,0,21.037,9.6684c-.2252-.1572-.4322-.2934-.61-.4087a14.4119,14.4119,0,0,1,5.0848-2.1953.5837.5837,0,0,1,.5266.0577.5866.5866,0,0,1,.1388.3982C26.4205,10.14,26.5515,12.4217,25.3805,14.8581Z"/><path class="cls-12" d="M25.0557,14.0538A16.2136,16.2136,0,0,0,21.037,9.6684a14.0111,14.0111,0,0,1,3.4109-1.21.5847.5847,0,0,1,.5265.0576.6.6,0,0,1,.1389.3982A17.2705,17.2705,0,0,1,25.0557,14.0538Z"/><path class="cls-13" d="M20.6885,9.0884c-.1321.0841-.1328.0833-.2618.1713.1781.1153.3851.2515.61.4087a16.3986,16.3986,0,0,1,4.0187,4.3854,4.297,4.297,0,0,1,.321.8474,3.926,3.926,0,0,0,.3283-.8A13.0673,13.0673,0,0,0,20.6885,9.0884Z"/><path class="cls-9" d="M5.9156,14.5125a6.16,6.16,0,0,1,.3184-.7882,11.9456,11.9456,0,0,1,3.9382-4.2976c.2207-.154.4235-.2875.5981-.4005a14.1241,14.1241,0,0,0-4.983-2.1513.572.572,0,0,0-.5161.0565.5743.5743,0,0,0-.136.39C4.8964,9.8888,4.7681,12.1249,5.9156,14.5125Z"/><path class="cls-12" d="M6.234,13.7243a15.8877,15.8877,0,0,1,3.9382-4.2976A13.7314,13.7314,0,0,0,6.83,8.2407a.5727.5727,0,0,0-.516.0564.5874.5874,0,0,0-.1361.39A16.92,16.92,0,0,0,6.234,13.7243Z"/><path class="cls-13" d="M10.5137,8.8584c.13.0824.13.0815.2566.1678-.1746.113-.3774.2465-.5981.4005a16.073,16.073,0,0,0-3.9383,4.2976,4.2127,4.2127,0,0,0-.3145.8305,3.8455,3.8455,0,0,1-.3218-.7836A12.8063,12.8063,0,0,1,10.5137,8.8584Z"/></g></g></g></g></g></g></svg>