<svg xmlns="http://www.w3.org/2000/svg" width="135" height="154.5" viewBox="0 0 135 154.5"><defs><style>.cls-1{fill:#87b71a;}.cls-2{fill:#76a017;}.cls-3{fill:#9ad11e;}.cls-4{fill:#717171;}.cls-5{fill:#ff8588;}.cls-6{fill:#ebf0f0;}.cls-7{fill:#fff;}.cls-8{fill:#424242;}</style></defs><g id="Layer_2" data-name="Layer 2"><g id="Layer_1-2" data-name="Layer 1"><path class="cls-1" d="M105.6608,116.4205a94.1593,94.1593,0,0,1-76.3216,0c-4.6-2.0347-6.5227-7.3262-4.5969-11.3337h0a7.7733,7.7733,0,0,1,10.2111-3.9254,80.5233,80.5233,0,0,0,65.0932,0,7.774,7.774,0,0,1,10.2111,3.9254h0C112.1835,109.0939,110.2613,114.3866,105.6608,116.4205Z"/><path class="cls-2" d="M89.0163,116.7987c-5.7315,5.9512-10.29,6.6908-16.1,12.5321-3.9225,3.9435-7.8239,13.1584-3.568,25.1692,14.4756-.78,21.2834-5.1585,24.088-12.6322,2.3017-6.1335,1.3943-9.6144,3.6887-15.7287"/><path class="cls-2" d="M105.9837,116.7987c5.7315,5.9512,10.29,6.6908,16.1,12.5321,3.9225,3.9435,7.8239,13.1584,3.568,25.1692-14.4756-.78-21.2834-5.1585-24.088-12.6322-2.3017-6.1335-1.3943-9.6144-3.6887-15.7287"/><circle class="cls-3" cx="97.5" cy="117" r="9"/><path class="cls-4" d="M121.279,40.7436C114.2768,55.76,103.8323,59.0891,94.8226,54.8879S81.65,40.5455,88.6519,25.5293s29.76-28.327,31.5278-25.02S128.2811,25.7274,121.279,40.7436Z"/><path class="cls-5" d="M121.279,40.7435a39.7831,39.7831,0,0,1-4.469,7.485,17.3276,17.3276,0,0,1-4.6-1.4094c-9.01-4.2013-13.0613-14.5815-5.81-30.1311,2.8177-6.0426,8.0271-11.8469,13.4445-16.4941a.8231.8231,0,0,1,.3359.3154C121.9477,3.8164,128.2812,25.7273,121.279,40.7435Z"/><path class="cls-4" d="M13.721,40.7436C20.7232,55.76,31.1677,59.0891,40.1774,54.8879S53.35,40.5455,46.3481,25.5293,16.5884-2.7977,14.82.5094,6.7189,25.7274,13.721,40.7436Z"/><path class="cls-5" d="M13.721,40.7435a39.7831,39.7831,0,0,0,4.469,7.485,17.3276,17.3276,0,0,0,4.6-1.4094c9.01-4.2013,13.0613-14.5815,5.81-30.1311C25.783,10.6454,20.5736,4.8411,15.1562.1939A.8231.8231,0,0,0,14.82.5093C13.0523,3.8164,6.7188,25.7273,13.721,40.7435Z"/><path class="cls-6" d="M113.7887,40.6431c-.5437-1.0229-.8752-2.1065-1.42-3.0483C103.853,22.8582,85.59,15.34,67.5,15c-18.09.34-36.353,7.8582-44.8691,22.5948-.5444.9418-.8759,2.0254-1.42,3.0483C16.6989,49.1325,9.8438,54.9191,7.5,56.0319,8.0969,60.6787,11.937,85.9,26.3506,96.9781a58.6073,58.6073,0,0,0,25.5531,11.3774A22.5567,22.5567,0,0,1,63.1574,114,14.6243,14.6243,0,0,1,67.5,109.5392,14.6243,14.6243,0,0,1,71.8426,114a22.5567,22.5567,0,0,1,11.2537-5.6445,58.6073,58.6073,0,0,0,25.5531-11.3774C123.063,85.9,126.9031,60.6787,127.5,56.0319,125.1562,54.9191,118.3011,49.1325,113.7887,40.6431Z"/><path class="cls-4" d="M97.2727,91.6682c10.177-3.0282,15.9377-12.975,12.93-22.4459C104.889,52.49,96.4992,28.5,67.5,28.5S30.11,52.49,24.7965,69.2224c-3.0077,9.4708,2.753,19.4176,12.93,22.4458A104.34,104.34,0,0,0,67.5,96,104.3413,104.3413,0,0,0,97.2727,91.6682Z"/><circle class="cls-7" cx="88.5" cy="60" r="9"/><circle class="cls-8" cx="88.5" cy="60" r="6"/><circle class="cls-7" cx="87" cy="58.5" r="1.5"/><circle class="cls-7" cx="46.5" cy="60" r="9"/><circle class="cls-8" cx="46.5" cy="60" r="6"/><circle class="cls-7" cx="45" cy="58.5" r="1.5"/><path class="cls-8" d="M67.5,84.2468a.75.75,0,0,1-.75-.75v-9a.75.75,0,0,1,1.5,0v9A.75.75,0,0,1,67.5,84.2468Z"/><path class="cls-5" d="M75,71.4974c0,3.3137-3.3579,6-7.5,6s-7.5-2.6863-7.5-6c0-3.0824,3.3579-3,7.5-3S75,68.1837,75,71.4974Z"/><path class="cls-8" d="M41.0961,75.4245A70.5373,70.5373,0,0,0,20.5,72.01,69.3705,69.3705,0,0,0,0,74.7706a68.6452,68.6452,0,0,1,40.22,3.1063,1.3028,1.3028,0,1,0,.9547-2.4244C41.15,75.4428,41.1207,75.4326,41.0961,75.4245Z"/><path class="cls-8" d="M40.6567,82.2949A54.4653,54.4653,0,0,0,10.5,93a53.1827,53.1827,0,0,1,30.1715-8.1457,1.2808,1.2808,0,1,0,.0954-2.56c-.0335-.0013-.0666-.0012-.0995,0Z"/><path class="cls-8" d="M93.9039,75.43A70.534,70.534,0,0,1,114.5,72.0146a69.3672,69.3672,0,0,1,20.5,2.761,68.6474,68.6474,0,0,0-40.2195,3.1063,1.3028,1.3028,0,1,1-.9547-2.4244C93.85,75.4478,93.8793,75.4376,93.9039,75.43Z"/><path class="cls-8" d="M94.3433,82.2951A54.4653,54.4653,0,0,1,124.5,93a53.1827,53.1827,0,0,0-30.1715-8.1457,1.2808,1.2808,0,0,1-.0954-2.56c.0335-.0012.0666-.0011.1,0Z"/><path class="cls-8" d="M61.5,87a.75.75,0,0,1,0-1.5,5.2564,5.2564,0,0,0,5.25-5.25.75.75,0,0,1,1.5,0A6.7573,6.7573,0,0,1,61.5,87Z"/><path class="cls-8" d="M73.5,87a6.7573,6.7573,0,0,1-6.75-6.75.75.75,0,0,1,1.5,0A5.2564,5.2564,0,0,0,73.5,85.5a.75.75,0,0,1,0,1.5Z"/></g></g></svg>