<svg xmlns="http://www.w3.org/2000/svg" width="135" height="157.5" viewBox="0 0 135 157.5"><defs><style>.cls-1{fill:#a9611d;}.cls-2{fill:#ff8588;}.cls-3{fill:#ebf0f0;}.cls-4{fill:#b37336;}.cls-5{fill:#424242;}.cls-6{fill:#ff2328;}.cls-7{fill:#ff5458;}</style></defs><g id="Layer_2" data-name="Layer 2"><g id="Layer_1-2" data-name="Layer 1"><path class="cls-1" d="M19.7215,92.1788c7.0022,15.0162,17.4467,18.3455,26.4564,14.1442s13.1729-14.3423,6.1707-29.3585-29.76-28.327-31.5278-25.02S12.7194,77.1626,19.7215,92.1788Z"/><path class="cls-2" d="M20.048,53.8152c-2.2862,6.4347-6.5167,25.0887-.3265,38.3636C25.5649,104.71,33.8036,109.08,41.607,107.7494c4.4276-5.889,4.8134-15.8774-1.615-29.6632C35.7431,68.9744,27.475,60.0357,20.048,53.8152Z"/><path class="cls-1" d="M115.2785,92.1788c-7.0022,15.0162-17.4467,18.3455-26.4564,14.1442S75.6492,91.9807,82.6514,76.9645s29.76-28.327,31.5278-25.02S122.2806,77.1626,115.2785,92.1788Z"/><path class="cls-2" d="M114.952,53.8152c2.2862,6.4347,6.5167,25.0887.3265,38.3636-5.8434,12.531-14.0821,16.9016-21.8855,15.5706C88.9654,101.86,88.58,91.872,95.008,78.0862,99.2569,68.9744,107.525,60.0357,114.952,53.8152Z"/><path class="cls-3" d="M118.4967,119.5232c.3071,27.607-20.7176,38.2515-50.9967,37.9714-30.279.28-51.3038-10.3645-50.9967-37.9714C16.1963,91.9163,37.2209,64.2223,67.5,64.5021,97.779,64.2221,118.8038,91.9161,118.4967,119.5232Z"/><path class="cls-4" d="M16.5033,119.5232c-.0857,7.705,1.4935,14.0858,4.4686,19.2795A57.34,57.34,0,0,0,64.6247,64.5619C35.8988,65.9951,16.2061,92.799,16.5033,119.5232Z"/><path class="cls-5" d="M61.5,138.749a.75.75,0,0,1,0-1.5,5.2563,5.2563,0,0,0,5.25-5.25.75.75,0,0,1,1.5,0A6.7573,6.7573,0,0,1,61.5,138.749Z"/><path class="cls-5" d="M73.5,138.749a6.7573,6.7573,0,0,1-6.75-6.75.75.75,0,0,1,1.5,0,5.2563,5.2563,0,0,0,5.25,5.25.75.75,0,0,1,0,1.5Z"/><path class="cls-5" d="M90,111.7417c-4.5483,0-8.25-3.0278-8.25-6.75a.75.75,0,1,1,1.5,0c0,2.8945,3.0278,5.25,6.75,5.25s6.75-2.3555,6.75-5.25a.75.75,0,1,1,1.5,0C98.25,108.7139,94.5483,111.7417,90,111.7417Z"/><path class="cls-5" d="M48,111.7417c-4.5483,0-8.25-3.0278-8.25-6.75a.75.75,0,1,1,1.5,0c0,2.8945,3.0278,5.25,6.75,5.25s6.75-2.3555,6.75-5.25a.75.75,0,1,1,1.5,0C56.25,108.7139,52.5483,111.7417,48,111.7417Z"/><path class="cls-5" d="M67.5,134.249a.75.75,0,0,1-.75-.75v-9a.75.75,0,0,1,1.5,0v9A.75.75,0,0,1,67.5,134.249Z"/><path class="cls-2" d="M60,121.4993c0,3.3137,3.3579,6,7.5,6s7.5-2.6863,7.5-6c0-3.0824-3.3579-3-7.5-3S60,118.1856,60,121.4993Z"/><path class="cls-5" d="M41.0961,127.9245A70.5373,70.5373,0,0,0,20.5,124.51,69.3705,69.3705,0,0,0,0,127.2706a68.6452,68.6452,0,0,1,40.22,3.1063,1.3028,1.3028,0,1,0,.9547-2.4244C41.15,127.9428,41.1207,127.9326,41.0961,127.9245Z"/><path class="cls-5" d="M40.6567,134.7949A54.4653,54.4653,0,0,0,10.5,145.5a53.1827,53.1827,0,0,1,30.1715-8.1457,1.2808,1.2808,0,1,0,.0954-2.56c-.0335-.0013-.0666-.0012-.0995,0Z"/><path class="cls-5" d="M93.9039,127.93a70.534,70.534,0,0,1,20.5963-3.415,69.3672,69.3672,0,0,1,20.5,2.761,68.6474,68.6474,0,0,0-40.2195,3.1063,1.3028,1.3028,0,1,1-.9547-2.4244C93.85,127.9478,93.8793,127.9376,93.9039,127.93Z"/><path class="cls-5" d="M94.3433,134.7951A54.4653,54.4653,0,0,1,124.5,145.5a53.1827,53.1827,0,0,0-30.1715-8.1457,1.2808,1.2808,0,0,1-.0954-2.56c.0335-.0012.0666-.0011.1,0Z"/><path class="cls-6" d="M81.6331,20.28l-.0134.0065.0007.0011a4.2013,4.2013,0,0,1-3.7838,6.547l-.0033,0,0,.0024A4.2013,4.2013,0,0,1,71.2861,30.62h0l-.0065.0132a4.2012,4.2012,0,0,1-7.5593,0l-.0065-.0134-.0011.0007a4.2013,4.2013,0,0,1-6.547-3.7838l0-.0033-.0024,0A4.2013,4.2013,0,0,1,53.38,20.2861h0L53.367,20.28a4.2012,4.2012,0,0,1,0-7.5593l.0134-.0065-.0007-.0011a4.2013,4.2013,0,0,1,3.7838-6.547l.0033,0,0-.0024A4.2013,4.2013,0,0,1,63.7139,2.38h0L63.72,2.367a4.2012,4.2012,0,0,1,7.5593,0l.0065.0134.0011-.0007a4.2013,4.2013,0,0,1,6.547,3.7838l0,.0033.0024,0A4.2013,4.2013,0,0,1,81.62,12.7139h0l.0132.0065A4.2012,4.2012,0,0,1,81.6331,20.28Z"/><circle class="cls-7" cx="62.25" cy="12.1386" r="5.25"/><path class="cls-3" d="M67.5,18c23.9726,0,43.5888,37.3131,33.11,52.5-11.0366,0-22.0731-9.79-33.11-9.79S45.4269,70.5,34.39,70.5C23.9112,55.3131,43.5274,18,67.5,18Z"/><path class="cls-6" d="M101.3221,48q-.7557-2.2084-1.7493-4.4053A24.9456,24.9456,0,0,1,96.0005,40.5c.4469-.4424.8975-.8645,1.3454-1.2782q-.94-1.6536-1.9991-3.2492c-.6695.5914-1.339,1.2221-2.0151,1.8925C90.6593,35.3181,87.6975,33,84.3742,33c-2.9453,0-5.538,2.24-8.205,4.8615C73.49,35.2742,70.6852,33,67.4946,33s-5.9958,2.276-8.6746,4.8633C56.1512,35.2412,53.5575,33,50.6123,33c-3.3216,0-6.2833,2.3172-8.9548,4.8642q-1.0108-1.002-2.0083-1.8858-1.06,1.5938-1.9988,3.25c.4456.4117.8937.8315,1.3383,1.2715a25.0924,25.0924,0,0,1-3.5571,3.0844Q34.4379,45.78,33.679,47.997c.0209,0,.039.003.06.003,2.7823,0,5.3018-2.27,7.9184-4.8651C44.33,45.6819,47.2917,48,50.615,48c2.9453,0,5.538-2.24,8.205-4.8615C61.4988,45.7258,64.304,48,67.4946,48s5.9958-2.276,8.6746-4.8633C78.838,45.7588,81.4317,48,84.3769,48c3.3216,0,6.2833-2.3172,8.9548-4.8642C95.9492,45.73,98.4687,48,101.251,48ZM50.615,44.25c-1.9674,0-4.1775-1.75-6.2869-3.75,2.1085-2.0013,4.3185-3.75,6.2842-3.75,1.506,0,3.57,1.8219,5.5407,3.7509C54.1837,42.429,52.1211,44.25,50.615,44.25Zm16.88,0c-1.7972,0-3.9478-1.7734-6.0059-3.7491,2.0581-1.9766,4.2087-3.7509,6.0059-3.7509s3.9478,1.7734,6.0059,3.7491C71.4424,42.4757,69.2918,44.25,67.4946,44.25Zm16.8823,0c-1.506,0-3.57-1.8219-5.5407-3.7509,1.9693-1.9281,4.0319-3.7491,5.538-3.7491,1.9674,0,4.1775,1.75,6.2869,3.75C88.5526,42.5013,86.3426,44.25,84.3769,44.25Z"/><path class="cls-6" d="M106.328,73.4591a7.9061,7.9061,0,0,1-9.679,2.253A67.485,67.485,0,0,0,67.5,69.4533a67.4238,67.4238,0,0,0-29.153,6.2543,7.9044,7.9044,0,0,1-9.6787-2.2531h0A7.89,7.89,0,0,1,31.464,61.4963,82.9383,82.9383,0,0,1,67.5,53.6585a82.9383,82.9383,0,0,1,36.036,7.8378,7.89,7.89,0,0,1,2.7957,11.9582Z"/><path class="cls-7" d="M42.0814,57.3663a76.3387,76.3387,0,0,0-8.5174,3.1659l4.1322,15.4217c.2172-.0819.4383-.1444.6507-.2464a58.5732,58.5732,0,0,1,6.503-2.64Z"/><path class="cls-7" d="M53.8139,54.6955a84.0213,84.0213,0,0,0-8.6774,1.8055l2.7543,15.6205a68.031,68.031,0,0,1,7.3037-1.6453Z"/><path class="cls-7" d="M92.9186,57.3663l-2.77,15.7074a58.7965,58.7965,0,0,1,6.5,2.6384c.2134.1024.4354.1652.6534.2472l4.1337-15.4271A76.3387,76.3387,0,0,0,92.9186,57.3663Z"/><path class="cls-7" d="M65.9205,53.684c-3.15.0536-6.1428.2608-8.9724.5918l1.3771,15.7394a74.37,74.37,0,0,1,7.5953-.5364Z"/><path class="cls-7" d="M104.33,61.9368l-3.8973,14.5448a7.8557,7.8557,0,0,0,5.8952-3.0225l.0037-.0046A7.8924,7.8924,0,0,0,104.33,61.9368Z"/><path class="cls-7" d="M30.67,61.9368a7.8827,7.8827,0,0,0,3.8963,14.5408Z"/><path class="cls-7" d="M89.8635,56.501a84.0213,84.0213,0,0,0-8.6774-1.8055L79.8053,70.4792a68.0713,68.0713,0,0,1,7.3028,1.648Z"/><path class="cls-7" d="M78.0519,54.2758c-2.83-.331-5.8228-.5382-8.9724-.5918V69.4789a74.2071,74.2071,0,0,1,7.5952.538Z"/></g></g></svg>