<svg xmlns="http://www.w3.org/2000/svg" width="135" height="159" viewBox="0 0 135 159"><defs><style>.cls-1{fill:#df3438;}.cls-2{fill:#fff;}.cls-3{fill:#ff676a;}.cls-4{fill:#ebf0f0;}.cls-5{fill:#ff8588;}.cls-6{fill:#ffd3d5;}.cls-7{fill:#424242;}.cls-8{fill:#7b532c;}</style></defs><g id="Layer_2" data-name="Layer 2"><g id="Layer_1-2" data-name="Layer 1"><path class="cls-1" d="M123,130.5c0,19.468-24.8482,28.5-55.5,28.5S12,149.968,12,130.5,36.8482,87,67.5,87,123,111.032,123,130.5Z"/><path class="cls-2" d="M12.9274,136.6528a19.7087,19.7087,0,0,0,1.722,3.96C24.6315,149.7479,43.45,155.25,67.5,155.25s42.8685-5.5021,52.8506-14.6375a19.7087,19.7087,0,0,0,1.722-3.96C113.493,147.2265,93.6752,153.75,67.5,153.75S21.507,147.2265,12.9274,136.6528Z"/><path class="cls-2" d="M114.7111,109.653c-5.39,11.0165-20.56,20.097-47.2111,20.097s-41.8211-9.08-47.2111-20.097c-.372.4743-.7276.9528-1.077,1.4332,6.51,12.4,24.3009,20.1638,48.2881,20.1638s41.7777-7.7639,48.2881-20.1638C115.4387,110.6058,115.0831,110.1273,114.7111,109.653Z"/><ellipse class="cls-3" cx="67.5" cy="94.5" rx="48" ry="30"/><path class="cls-2" d="M73.5,151.5a1.4948,1.4948,0,0,1-1.0605-.44l-12-12a1.5,1.5,0,0,1,2.121-2.121l12,12A1.5,1.5,0,0,1,73.5,151.5Z"/><path class="cls-2" d="M61.5,151.5a1.5,1.5,0,0,1-1.06-2.56l12-12a1.5,1.5,0,0,1,2.121,2.121l-12,12A1.4948,1.4948,0,0,1,61.5,151.5Z"/><path class="cls-2" d="M115.7117,137.042a1.497,1.497,0,0,1-.5127-.0908l-15.947-5.8037a1.5,1.5,0,0,1,1.0253-2.82l15.9471,5.8037a1.5006,1.5006,0,0,1-.5127,2.9107Z"/><path class="cls-2" d="M104.8359,142.114a1.4819,1.4819,0,0,1-.5127-.0915,1.4991,1.4991,0,0,1-.8964-1.9219l5.8044-15.947a1.5,1.5,0,0,1,2.8184,1.0254l-5.8045,15.947A1.5,1.5,0,0,1,104.8359,142.114Z"/><path class="cls-2" d="M95.6953,145.9929a1.4929,1.4929,0,0,1-.7485-.2007L80.25,137.3064a1.5,1.5,0,1,1,1.5-2.5986l14.6968,8.4858a1.5,1.5,0,0,1-.7515,2.7993Z"/><path class="cls-2" d="M84.104,149.0984a1.5,1.5,0,0,1-1.2978-2.25l8.4858-14.6968a1.5,1.5,0,1,1,2.5986,1.5l-8.4858,14.6968A1.5,1.5,0,0,1,84.104,149.0984Z"/><path class="cls-2" d="M61.5,151.5a1.5,1.5,0,0,1-1.06-2.56l12-12a1.5,1.5,0,0,1,2.121,2.121l-12,12A1.4948,1.4948,0,0,1,61.5,151.5Z"/><path class="cls-2" d="M73.5,151.5a1.4948,1.4948,0,0,1-1.0605-.44l-12-12a1.5,1.5,0,0,1,2.121-2.121l12,12A1.5,1.5,0,0,1,73.5,151.5Z"/><path class="cls-2" d="M19.2883,137.042a1.5006,1.5006,0,0,1-.5127-2.9107l15.9471-5.8037a1.5,1.5,0,0,1,1.0253,2.82l-15.947,5.8037A1.497,1.497,0,0,1,19.2883,137.042Z"/><path class="cls-2" d="M30.1641,142.114a1.5,1.5,0,0,1-1.4092-.988L22.95,125.179a1.5,1.5,0,0,1,2.8184-1.0254l5.8044,15.947a1.4991,1.4991,0,0,1-.8964,1.9219A1.4819,1.4819,0,0,1,30.1641,142.114Z"/><path class="cls-2" d="M39.3047,145.9929a1.5,1.5,0,0,1-.7515-2.7993L53.25,134.7078a1.5,1.5,0,0,1,1.5,2.5986l-14.6968,8.4858A1.4929,1.4929,0,0,1,39.3047,145.9929Z"/><path class="cls-2" d="M50.896,149.0984a1.5,1.5,0,0,1-1.3008-.75l-8.4858-14.6968a1.5,1.5,0,0,1,2.5986-1.5l8.4858,14.6968a1.5,1.5,0,0,1-1.2978,2.25Z"/><path class="cls-4" d="M116.5987,40.8028C108.3144,55.1516,97.62,57.558,89.01,52.5874S77.1375,37.1516,85.4218,22.8028,117.5372-2.8227,119.01.6259,124.883,26.454,116.5987,40.8028Z"/><path class="cls-5" d="M119.6171,2.5567c1.7167,6.61,4.3053,25.5612-3.0184,38.2461-6.9132,11.974-15.5015,15.61-23.1593,13.6039-3.8975-6.2524-3.4112-16.2365,4.1942-29.41C102.6605,16.29,111.6762,8.1062,119.6171,2.5567Z"/><path class="cls-4" d="M18.4013,40.8028C26.6856,55.1516,37.3805,57.558,45.99,52.5874s11.8727-15.4358,3.5884-29.7846S17.4628-2.8227,15.99.6259,10.117,26.454,18.4013,40.8028Z"/><path class="cls-5" d="M15.3829,2.5567c-1.7167,6.61-4.3053,25.5612,3.0184,38.2461,6.9132,11.974,15.5015,15.61,23.1593,13.6039,3.8975-6.2524,3.4112-16.2365-4.1942-29.41C32.34,16.29,23.3238,8.1062,15.3829,2.5567Z"/><ellipse class="cls-4" cx="67.5" cy="63" rx="52.4966" ry="44.9971"/><ellipse class="cls-6" cx="96" cy="69.75" rx="9" ry="6.75"/><ellipse class="cls-6" cx="40.5" cy="69.75" rx="9" ry="6.75"/><path class="cls-7" d="M73.5,75.75a5.2564,5.2564,0,0,1-5.25-5.25V63a.75.75,0,0,0-1.5,0v7.5a5.2564,5.2564,0,0,1-5.25,5.25.75.75,0,0,0,0,1.5,6.7331,6.7331,0,0,0,6-3.7225,6.7331,6.7331,0,0,0,6,3.7225.75.75,0,0,0,0-1.5Z"/><path class="cls-8" d="M60,60c0,3.3137,3.3579,6,7.5,6S75,63.3137,75,60c0-3.0824-3.3579-3-7.5-3S60,56.6863,60,60Z"/><path class="cls-7" d="M45,48a8.26,8.26,0,0,1,8.25,8.25.75.75,0,0,1-1.5,0,6.75,6.75,0,0,0-13.5,0,.75.75,0,0,1-1.5,0A8.26,8.26,0,0,1,45,48Z"/><path class="cls-7" d="M90,48a8.26,8.26,0,0,1,8.25,8.25.75.75,0,0,1-1.5,0,6.75,6.75,0,0,0-13.5,0,.75.75,0,0,1-1.5,0A8.26,8.26,0,0,1,90,48Z"/><path class="cls-7" d="M41.0961,64.9245A70.5373,70.5373,0,0,0,20.5,61.51,69.3705,69.3705,0,0,0,0,64.2706a68.6452,68.6452,0,0,1,40.22,3.1063,1.3028,1.3028,0,1,0,.9547-2.4244C41.15,64.9428,41.1207,64.9326,41.0961,64.9245Z"/><path class="cls-7" d="M40.6567,71.7949A54.4653,54.4653,0,0,0,10.5,82.5a53.1827,53.1827,0,0,1,30.1715-8.1457,1.2808,1.2808,0,1,0,.0954-2.56c-.0335-.0013-.0666-.0012-.0995,0Z"/><path class="cls-7" d="M93.9039,64.93A70.534,70.534,0,0,1,114.5,61.5146a69.3672,69.3672,0,0,1,20.5,2.761,68.6474,68.6474,0,0,0-40.2195,3.1063,1.3028,1.3028,0,1,1-.9547-2.4244C93.85,64.9478,93.8793,64.9376,93.9039,64.93Z"/><path class="cls-7" d="M94.3433,71.7951A54.4653,54.4653,0,0,1,124.5,82.5a53.1827,53.1827,0,0,0-30.1715-8.1457,1.2808,1.2808,0,0,1-.0954-2.56c.0335-.0012.0666-.0011.1,0Z"/></g></g></svg>