<svg xmlns="http://www.w3.org/2000/svg" width="30.8036" height="35.0283" viewBox="0 0 30.8036 35.0283"><defs><style>.cls-1{isolation:isolate;}.cls-10,.cls-12,.cls-2{mix-blend-mode:multiply;}.cls-3{fill:#444;}.cls-4{fill:#cd2a1b;}.cls-5{fill:#623906;}.cls-6{fill:#fa4751;}.cls-7{fill:#fff;}.cls-8{fill:#efddaf;}.cls-10,.cls-9{fill:#42958f;}.cls-10{opacity:0.53;}.cls-11,.cls-12{fill:#f99d41;}.cls-12{opacity:0.49;}.cls-13{fill:none;stroke:#545454;stroke-linecap:round;stroke-miterlimit:10;stroke-width:0.2088px;}.cls-14{fill:#545454;}.cls-15{fill:#e48225;}.cls-16{fill:#00bdb8;}.cls-17{fill:#00d4cb;}</style></defs><g class="cls-1"><g id="Layer_2" data-name="Layer 2"><g id="Layer_1-2" data-name="Layer 1"><g id="New_Symbol" data-name="New Symbol" class="cls-2"><g id="New_Symbol_10" data-name="New Symbol 10"><line class="cls-3" x1="23.3743" y1="9.2164" x2="22.1808" y2="11.1794"/><path class="cls-3" d="M22.063,11.3727a.226.226,0,0,1-.0757-.311h0l1.1936-1.9632a.2267.2267,0,0,1,.3111-.0758h0a.2267.2267,0,0,1,.076.3111h0l-1.1939,1.9631a.2263.2263,0,0,1-.1937.109h0a.2249.2249,0,0,1-.1174-.0332Z"/><line class="cls-3" x1="22.0888" y1="9.2164" x2="20.8952" y2="11.1794"/><path class="cls-3" d="M20.7775,11.3727a.2262.2262,0,0,1-.076-.311h0l1.1938-1.9632a.2268.2268,0,0,1,.3111-.0758h0a.2265.2265,0,0,1,.0758.3111h0l-1.1935,1.9631a.2265.2265,0,0,1-.1938.109h0a.2249.2249,0,0,1-.1174-.0332Z"/><polygon class="cls-4" points="18.192 1.491 16.096 2.22 17.836 3.142 18.192 1.491"/><polygon class="cls-5" points="26.804 7.174 30.804 10.866 28.732 11.228 25.635 7.293 26.804 7.174"/><path class="cls-5" d="M22.28,2.9547,19.1067,0a5.4965,5.4965,0,0,0-1.5918,4.756A4.4285,4.4285,0,0,1,22.28,2.9547Z"/><path class="cls-6" d="M22.28,2.9547A4.4285,4.4285,0,0,0,17.5149,4.756a5.5033,5.5033,0,0,0,9.6382,2.7387Z"/><path class="cls-7" d="M22.9916,5.9847c-1.0426.268-2.3046.4632-3.11-.3133.0287.0947.06.1889.0957.28a3.7164,3.7164,0,0,0,3.7815.6948Z"/><path class="cls-5" d="M23.7584,6.6466a3.7164,3.7164,0,0,1-3.7815-.6948,3.14,3.14,0,0,0,4.6655,1.456Z"/><path class="cls-8" d="M23.0464,5.9914,20.0551,3.4535a3.1176,3.1176,0,0,0-.1739,2.2179A2.8311,2.8311,0,0,0,23.0464,5.9914Z"/><path class="cls-7" d="M19.43,1.7693a.2955.2955,0,1,1-.2535-.3322A.2941.2941,0,0,1,19.43,1.7693Z"/><path class="cls-9" d="M22.6814,11.384q.1192.076.2356.1576a8.5463,8.5463,0,0,1,3.155,5.0472,25.413,25.413,0,0,1,.4815,6.0487c0-.4592-3.2282-2.4992-3.7129-2.7734-1.2275-.6944-2.5054-1.4374-3.7874-2.0549A17.3371,17.3371,0,0,0,7.6,16.58a13.8626,13.8626,0,0,1,9.25-6.1729A8.3206,8.3206,0,0,1,22.6814,11.384Z"/><path class="cls-10" d="M9.904,13.8745A16.43,16.43,0,0,0,7.6,16.58a17.3371,17.3371,0,0,1,11.4528,1.23c1.282.6175,2.56,1.36,3.7874,2.0549.4847.2742,3.7129,2.3142,3.7129,2.7734,0-.5888-.0012-1.1793-.013-1.7694C23.5647,14.9991,17.5149,11.9819,9.904,13.8745Z"/><path class="cls-11" d="M25.85,25.258a8.9165,8.9165,0,0,1-3.253,7.0009A11.5482,11.5482,0,0,1,15.29,35.0283c-5.8341,0-10.56-4.1077-10.56-9.77,0-5.6344,4.6785-9.45,10.47-9.4863.0309-.0028.059-.0028.09-.0028C21.1207,15.7689,25.85,19.5955,25.85,25.258Z"/><path class="cls-12" d="M15.29,15.7689c-.031,0-.0591,0-.09.0028A11.3135,11.3135,0,0,0,7.92,18.3087c6.7074-1.0845,14.3984,1.9507,17.892,7.7707.0225-.27.0374-.5425.0374-.8214C25.85,19.5955,21.1207,15.7689,15.29,15.7689Z"/><path class="cls-13" d="M15.2039,25.8827c-.0434.7579-.124,1.6316.75,1.9616a1.2792,1.2792,0,0,0,1.402-.3744"/><path class="cls-13" d="M15.1558,25.8827c.0435.7579.1241,1.6316-.75,1.9616a1.2792,1.2792,0,0,1-1.402-.3744"/><path class="cls-14" d="M16.1963,25.2974l-1.0131.82-1.02-.8259a.3152.3152,0,0,1,.1044-.5293,2.82,2.82,0,0,1,.9207-.142,2.7446,2.7446,0,0,1,.902.1474A.3157.3157,0,0,1,16.1963,25.2974Z"/><path class="cls-7" d="M21.2577,23.4673a1.5556,1.5556,0,0,1-1.6476.9813,1.5718,1.5718,0,0,1-1.65-.9813,2.8974,2.8974,0,0,1,1.223-.9362,1.3,1.3,0,0,1,.4274-.0731,1.8383,1.8383,0,0,1,1.1218.4723A3.26,3.26,0,0,1,21.2577,23.4673Z"/><path d="M20.7347,22.9556a.8351.8351,0,1,1-1.67,0,.81.81,0,0,1,.1181-.4245,1.3,1.3,0,0,1,.4274-.0731,1.8383,1.8383,0,0,1,1.1218.4723A.0781.0781,0,0,1,20.7347,22.9556Z"/><path class="cls-7" d="M19.4291,23.49a.26.26,0,1,1-.26-.2595A.26.26,0,0,1,19.4291,23.49Z"/><path class="cls-7" d="M12.016,23.4673a1.5574,1.5574,0,0,1-1.65.9813,1.57,1.57,0,0,1-1.6476-.9813,2.88,2.88,0,0,1,1.22-.9362,1.35,1.35,0,0,1,.4274-.0731,1.8357,1.8357,0,0,1,1.1218.47A3.1707,3.1707,0,0,1,12.016,23.4673Z"/><path d="M11.49,22.9556a.8351.8351,0,1,1-1.67,0,.81.81,0,0,1,.1181-.4245,1.35,1.35,0,0,1,.4274-.0731,1.8357,1.8357,0,0,1,1.1218.47A.0959.0959,0,0,1,11.49,22.9556Z"/><path class="cls-7" d="M10.1859,23.49a.26.26,0,1,1-.26-.2595A.26.26,0,0,1,10.1859,23.49Z"/><path class="cls-15" d="M19.1993,32.2987c-.1946.1273-.4043-.0521-.1375-.1218C19.214,32.1367,19.3285,32.2116,19.1993,32.2987Z"/><path class="cls-15" d="M18.1224,33.3053c-.0549-.19.2916-.4039.3214-.14C18.468,33.3588,18.1585,33.43,18.1224,33.3053Z"/><path class="cls-15" d="M21.1042,32.8894c-.0959-.1745.2051-.454.29-.2054C21.4587,32.8663,21.165,32.9979,21.1042,32.8894Z"/><path class="cls-15" d="M19.439,33.657c-.0961-.244.3517-.5641.4228-.2268C19.92,33.6846,19.5016,33.8135,19.439,33.657Z"/><path class="cls-15" d="M18.0863,32.1623c-.019-.0657.09-.1376.1-.0475C18.1939,32.181,18.0982,32.2034,18.0863,32.1623Z"/><path class="cls-15" d="M20.5459,32.0755c-.15.0908-.2506-.2037-.0261-.1483C20.5983,31.9463,20.6617,32.0052,20.5459,32.0755Z"/><path class="cls-15" d="M19.6747,31.5721c-.0977.0531-.1559-.1568-.0134-.1042C19.711,31.4861,19.75,31.5309,19.6747,31.5721Z"/><path class="cls-15" d="M19.8086,32.7048c-.1614.17-.3512-.1625-.0669-.1776C19.8405,32.5221,19.9312,32.5735,19.8086,32.7048Z"/><path class="cls-15" d="M21.4035,31.5507c.0025-.02.0256-.0125.0381-.0105a.1283.1283,0,0,1,.0529.0178.0669.0669,0,0,1,.0253.028.0391.0391,0,0,1-.0335.0567.106.106,0,0,1-.0667-.05A.0658.0658,0,0,1,21.4035,31.5507Z"/><path class="cls-15" d="M18.2923,31.5952a.0489.0489,0,0,1-.0342-.0282.0617.0617,0,0,1,.0143-.0574.1523.1523,0,0,1,.0426-.0372.0483.0483,0,0,1,.0629.0046.0784.0784,0,0,1,.0132.0248.1186.1186,0,0,1,.0078.0581C18.39,31.618,18.3264,31.6054,18.2923,31.5952Z"/><path class="cls-15" d="M18.6584,33.8927a.1057.1057,0,0,1,.0646.1321c-.0183.0491-.07.0741-.1108.1a.3758.3758,0,0,1-.1239.05.1331.1331,0,0,1-.1354-.0327.1858.1858,0,0,1-.0109-.1579.22.22,0,0,1,.0339-.0813C18.4456,33.8129,18.5728,33.8529,18.6584,33.8927Z"/><path class="cls-15" d="M15.7748,32.5665c-.2174.0666-.3616-.1647-.0938-.1558C15.8338,32.4154,15.92,32.52,15.7748,32.5665Z"/><path class="cls-15" d="M17.3335,34.32c-.1193.35-.775.0146-.4809-.2047C17.03,33.9793,17.3888,34.143,17.3335,34.32Z"/><path class="cls-15" d="M14.4793,33.2174c.0054-.1972.3912-.3.3418-.0393C14.7874,33.37,14.4757,33.3478,14.4793,33.2174Z"/><path class="cls-15" d="M17.4114,33.6644c-.0442-.1942.3175-.3808.3319-.1185C17.7563,33.7388,17.44,33.7853,17.4114,33.6644Z"/><path class="cls-15" d="M14.8913,34.7437c-.0113-.1667.25-.2166.3642-.2239a.3432.3432,0,0,1,.2316.0539c.0581.0506.1137.18.0584.2487a.1811.1811,0,0,1-.14.0568c-.0518.0014-.1038-.0072-.1556-.0029C15.1561,34.8842,14.9005,34.886,14.8913,34.7437Z"/><path class="cls-15" d="M15.6165,33.9366c-.0211-.2608.4916-.44.4649-.0973C16.0652,34.1,15.6312,34.1049,15.6165,33.9366Z"/><path class="cls-15" d="M14.7834,32.1155c.0019-.0683.1233-.1054.1058-.0165C14.877,32.1645,14.7823,32.1582,14.7834,32.1155Z"/><path class="cls-15" d="M17.1,32.7286c-.1664.0459-.1817-.2648.0152-.15C17.1844,32.6191,17.2286,32.6931,17.1,32.7286Z"/><path class="cls-15" d="M16.3493,31.4978c-.1045.0234-.1011-.1944.0158-.1037C16.4061,31.4254,16.43,31.4794,16.3493,31.4978Z"/><path class="cls-15" d="M16.233,33.1283c-.2.1178-.2851-.2548-.0139-.1892C16.3133,32.962,16.3848,33.0369,16.233,33.1283Z"/><path class="cls-15" d="M17.5325,30.5742c.0076-.0186.0274-.005.0386,0a.1262.1262,0,0,1,.045.0316.067.067,0,0,1,.0165.0337.0383.0383,0,0,1-.0464.0454.1059.1059,0,0,1-.05-.0659A.0675.0675,0,0,1,17.5325,30.5742Z"/><path class="cls-15" d="M15.1826,31.4636a.0483.0483,0,0,1-.0231-.0369.0629.0629,0,0,1,.03-.0507.1452.1452,0,0,1,.05-.0232.0447.0447,0,0,1,.0559.0226.0835.0835,0,0,1,.0051.0275.1264.1264,0,0,1-.01.0579C15.2654,31.5139,15.2107,31.4832,15.1826,31.4636Z"/><path class="cls-15" d="M14.81,33.9363a.1065.1065,0,0,1,.0224.1453.2333.2333,0,0,1-.1342.0628.372.372,0,0,1-.1323.0117.1312.1312,0,0,1-.1184-.0712.1871.1871,0,0,1,.0365-.1539.2217.2217,0,0,1,.0561-.0677C14.6326,33.7975,14.7407,33.873,14.81,33.9363Z"/><path class="cls-15" d="M12.537,31.7965c-.2233-.0063-.28-.27-.0357-.177C12.6408,31.6723,12.6862,31.7985,12.537,31.7965Z"/><path class="cls-15" d="M12.7173,34.4356a.1022.1022,0,0,1-.0673.0175.6881.6881,0,0,1-.5189-.1962c-.1165-.13-.1319-.2952.0791-.2959a.6249.6249,0,0,1,.3844.1486C12.6557,34.1615,12.8251,34.3431,12.7173,34.4356Z"/><path class="cls-15" d="M13.4318,33.9462c-.2215.2955-.7348-.2276-.3884-.3435C13.2524,33.5284,13.5382,33.7952,13.4318,33.9462Z"/><path class="cls-15" d="M11.1157,31.9913c.0713-.1835.4655-.1549.3323.0749C11.3526,32.236,11.0683,32.1133,11.1157,31.9913Z"/><path class="cls-15" d="M13.7071,33.3464c.0189-.198.4115-.2668.3456-.0125C14.0067,33.5217,13.6967,33.47,13.7071,33.3464Z"/><path class="cls-15" d="M10.2261,33.5444c.0451-.1608.3081-.1211.4181-.09a.3431.3431,0,0,1,.2.1278c.0381.0668.0476.2078-.0272.2539a.18.18,0,0,1-.1512.0072c-.0494-.0159-.0956-.0413-.146-.0545C10.4294,33.7649,10.1871,33.6818,10.2261,33.5444Z"/><path class="cls-15" d="M11.9414,33.04c.0659-.2527.603-.2585.4672.0571C12.3093,33.34,11.9,33.2046,11.9414,33.04Z"/><path class="cls-15" d="M11.7688,31.0532c.0247-.0638.1495-.0595.1035.0186C11.839,31.13,11.7534,31.0929,11.7688,31.0532Z"/><path class="cls-15" d="M13.7079,32.3619c-.1675-.0071-.0843-.3069.06-.1377C13.8191,32.2833,13.837,32.3672,13.7079,32.3619Z"/><path class="cls-15" d="M13.4689,30.42c-.1026-.01-.0291-.2152.0477-.0933C13.5437,30.3691,13.5481,30.4277,13.4689,30.42Z"/><path class="cls-15" d="M12.7793,32.4726c-.2236.0485-.1822-.3309.0481-.1835C12.9073,32.3405,12.95,32.4341,12.7793,32.4726Z"/><path class="cls-15" d="M14.4122,31.36c.0124-.0156.026.0033.0345.0117a.1239.1239,0,0,1,.0309.0434.0718.0718,0,0,1,.0047.0371.0366.0366,0,0,1-.0553.03.1066.1066,0,0,1-.0248-.0775A.0709.0709,0,0,1,14.4122,31.36Z"/><path class="cls-15" d="M12.2574,30.7129a.0483.0483,0,0,1-.0089-.0422.0637.0637,0,0,1,.0442-.0383.14.14,0,0,1,.0533-.0059.0431.0431,0,0,1,.044.039.0822.0822,0,0,1-.0046.0275.1277.1277,0,0,1-.0281.0515C12.3169,30.787,12.2767,30.74,12.2574,30.7129Z"/><path class="cls-15" d="M11.185,32.7775a.1068.1068,0,0,1-.0273.1444.231.231,0,0,1-.1467.0148.3662.3662,0,0,1-.1281-.0326.1307.1307,0,0,1-.0876-.1062.1883.1883,0,0,1,.0858-.1331.2251.2251,0,0,1,.0752-.0452C11.0651,32.5881,11.1411,32.6949,11.185,32.7775Z"/><path class="cls-15" d="M9.8,30.0159c-.2028-.08-.16-.343.0307-.1761C9.94,29.9347,9.936,30.0671,9.8,30.0159Z"/><path class="cls-15" d="M8.9674,32.7784a.1011.1011,0,0,1-.0694-.0063.6892.6892,0,0,1-.4211-.3623c-.0649-.1622-.022-.3228.176-.2507a.6247.6247,0,0,1,.31.271C9.0025,32.5,9.1,32.7281,8.9674,32.7784Z"/><path class="cls-15" d="M9.8882,32.3282c-.3081.2033-.6118-.4615-.2473-.4536C9.8619,31.8749,10.0388,32.222,9.8882,32.3282Z"/><path class="cls-15" d="M8.4247,29.7155c.1335-.1437.4843.0174.2778.184C8.5526,30.0239,8.3353,29.8118,8.4247,29.7155Z"/><path class="cls-15" d="M10.35,31.8561c.0849-.18.4756-.1135.3281.1039C10.5712,32.1214,10.2979,31.969,10.35,31.8561Z"/><path class="cls-15" d="M7.0311,30.8386c.1-.133.3306,0,.4222.0674a.3417.3417,0,0,1,.1408.191c.0111.0762-.03.2108-.1162.2275a.1791.1791,0,0,1-.1438-.0476c-.04-.0327-.0744-.0731-.1168-.1036C7.141,31.1184,6.9444,30.9528,7.0311,30.8386Z"/><path class="cls-15" d="M8.8081,30.9742c.1506-.2129.65-.0368.4144.2124C9.0455,31.38,8.7114,31.1134,8.8081,30.9742Z"/><path class="cls-15" d="M9.3713,29.076c.0465-.05.1583-.0051.0872.0512C9.4067,29.1692,9.3425,29.1072,9.3713,29.076Z"/><path class="cls-15" d="M10.6847,30.9311c-.1534-.0621.0267-.3159.1031-.1093C10.8148,30.8942,10.8028,30.9789,10.6847,30.9311Z"/><path class="cls-15" d="M11.2682,28.5909c-.09-.0424.05-.21.0764-.0716C11.3542,28.5673,11.3376,28.6233,11.2682,28.5909Z"/><path class="cls-15" d="M9.7846,30.7267c-.224-.03-.0523-.37.1087-.1554C9.949,30.6458,9.9556,30.7476,9.7846,30.7267Z"/><path class="cls-15" d="M11.6808,30.2219c.0168-.0106.0231.0116.0281.0223a.1227.1227,0,0,1,.0139.0511.071.071,0,0,1-.008.0362.0362.0362,0,0,1-.0615.01.1073.1073,0,0,1,.0032-.081A.0721.0721,0,0,1,11.6808,30.2219Z"/><path class="cls-15" d="M9.9414,28.9244a.0477.0477,0,0,1,.0079-.0414.0652.0652,0,0,1,.0541-.0208.1313.1313,0,0,1,.05.0117.04.04,0,0,1,.0248.05.0851.0851,0,0,1-.0144.0238.1364.1364,0,0,1-.0445.0381C9.967,29.0116,9.9486,28.9558,9.9414,28.9244Z"/><path class="cls-15" d="M8.2,30.4676a.1077.1077,0,0,1-.0775.1248.2285.2285,0,0,1-.1414-.0379.3589.3589,0,0,1-.107-.0756.1281.1281,0,0,1-.0426-.13.19.19,0,0,1,.1281-.093.2264.2264,0,0,1,.0862-.0155C8.1585,30.25,8.19,30.3755,8.2,30.4676Z"/><path class="cls-15" d="M7.9924,27.4447c-.1535-.15-.01-.3711.0983-.1478C8.1522,27.4239,8.0961,27.5428,7.9924,27.4447Z"/><path class="cls-15" d="M6.1474,29.6562a.1007.1007,0,0,1-.0616-.0326.6889.6889,0,0,1-.2492-.4977c.0032-.175.1055-.306.26-.1627a.63.63,0,0,1,.1811.3693C6.2867,29.412,6.2893,29.6606,6.1474,29.6562Z"/><path class="cls-15" d="M7.1692,29.5876c-.1772.0388-.2777-.1283-.2887-.282-.0132-.1535.0758-.2976.2349-.2269C7.3186,29.1609,7.348,29.5449,7.1692,29.5876Z"/><path class="cls-15" d="M6.8538,26.6368c.18-.078.4369.2065.1809.2773C6.848,26.9686,6.7332,26.69,6.8538,26.6368Z"/><path class="cls-15" d="M7.773,29.3215c.1469-.1339.4783.0638.261.2117C7.8759,29.6442,7.6827,29.4063,7.773,29.3215Z"/><path class="cls-15" d="M5.1277,27.11c.145-.0819.3038.1313.3605.23a.3414.3414,0,0,1,.053.2312c-.02.0742-.1108.1816-.1969.1625a.1782.1782,0,0,1-.1131-.1008c-.0241-.0461-.0392-.0968-.0659-.1417C5.1174,27.4107,5.0024,27.18,5.1277,27.11Z"/><path class="cls-15" d="M6.7039,27.9363a.2918.2918,0,0,1,.3482.0758c.085.0878.1087.2072-.052.2781a.2379.2379,0,0,1-.2929-.1014C6.6472,28.0965,6.6339,27.9805,6.7039,27.9363Z"/><path class="cls-15" d="M7.9769,26.4271c.0626-.0272.1468.0572.0592.0806C7.9719,26.5255,7.938,26.4443,7.9769,26.4271Z"/><path class="cls-15" d="M8.4363,28.5972c-.1152-.1106.1481-.2766.1363-.0628C8.5688,28.6094,8.5249,28.6823,8.4363,28.5972Z"/><path class="cls-15" d="M9.6332,26.8109c-.0641-.07.13-.17.0979-.0367C9.72,26.8205,9.6828,26.8649,9.6332,26.8109Z"/><path class="cls-15" d="M7.6961,28.084c-.1933-.1114.0985-.3553.1607-.1006C7.8782,28.072,7.844,28.1672,7.6961,28.084Z"/><path class="cls-15" d="M9.6116,28.2925c.0191-.0041.0158.0178.016.029a.1179.1179,0,0,1-.0077.05.0769.0769,0,0,1-.0217.03c-.0248.02-.0557.0106-.0583-.0111a.1093.1093,0,0,1,.0349-.0717A.0773.0773,0,0,1,9.6116,28.2925Z"/><path class="cls-15" d="M8.5589,26.5115a.0477.0477,0,0,1,.0239-.0345.0661.0661,0,0,1,.0578.0022.1284.1284,0,0,1,.0411.03.0386.0386,0,0,1,.0027.0547.0875.0875,0,0,1-.0227.0159.14.14,0,0,1-.056.0174C8.5472,26.6005,8.5528,26.5426,8.5589,26.5115Z"/><path class="cls-15" d="M6.3479,27.2351a.108.108,0,0,1-.1209.0835c-.051-.0095-.0832-.0556-.1144-.0906a.3578.3578,0,0,1-.0679-.1116.1276.1276,0,0,1,.0126-.1354.1915.1915,0,0,1,.1546-.0343.228.228,0,0,1,.0852.02C6.3964,27.0194,6.3749,27.1466,6.3479,27.2351Z"/><path class="cls-15" d="M7.3731,24.41c-.0788-.1931.1427-.33.15-.0911C7.5275,24.4543,7.4275,24.537,7.3731,24.41Z"/><path class="cls-15" d="M4.9926,25.3145a.1.1,0,0,1-.0435-.0546.69.69,0,0,1-.0276-.5565c.0739-.1591.2205-.2371.3032-.0439a.63.63,0,0,1,.0168.4108C5.2179,25.1468,5.1208,25.3754,4.9926,25.3145Z"/><path class="cls-15" d="M5.7545,26.0189c-.178-.0352-.2029-.2284-.1513-.3734.05-.1458.1886-.2412.3062-.1134C6.0626,25.6884,5.9352,26.0511,5.7545,26.0189Z"/><path class="cls-15" d="M6.8364,22.8425c.195.0071.31.3616.0479.3183C6.6918,23.132,6.7043,22.8377,6.8364,22.8425Z"/><path class="cls-15" d="M6.4145,26.0166c.1883-.064.4126.25.1543.2986C6.38,26.3536,6.2978,26.0582,6.4145,26.0166Z"/><path class="cls-15" d="M5.23,23.2572c.129-.01.17.193.1783.2812a.2649.2649,0,0,1-.0383.18c-.039.0457-.1374.0924-.1924.0508a.1383.1383,0,0,1-.0469-.1084c-.0019-.0405.004-.0814,0-.1219C5.1226,23.4662,5.1175,23.265,5.23,23.2572Z"/><path class="cls-15" d="M5.9963,24.3311a.2919.2919,0,0,1,.2866.2086c.0417.113.0152.23-.1606.23a.2369.2369,0,0,1-.2264-.21C5.879,24.4525,5.9143,24.3425,5.9963,24.3311Z"/><path class="cls-15" d="M8.0532,22.7952c.0682.0025.11.1086.0207.0929C8.0082,22.8773,8.0108,22.7939,8.0532,22.7952Z"/><path class="cls-15" d="M7.3123,25.6191c-.061-.1463.2468-.1928.15-.0031C7.4286,25.6827,7.3591,25.7317,7.3123,25.6191Z"/><path class="cls-15" d="M8.4757,24.8436c-.03-.0862.1877-.0984.1044.0055C8.5514,24.8856,8.499,24.91,8.4757,24.8436Z"/><path class="cls-15" d="M6.2207,22.5663c-.03-.0863.1877-.0985.1044.0054C6.2964,22.6082,6.244,22.6327,6.2207,22.5663Z"/><path class="cls-15" d="M6.842,24.8616c-.1313-.177.2344-.2792.1878-.0265C7.0133,24.9228,6.9433,24.9949,6.842,24.8616Z"/><path class="cls-15" d="M9.18,25.4243c.0191.0039.0074.0226.0031.033a.1177.1177,0,0,1-.0272.043.0749.0749,0,0,1-.0316.0189c-.0309.0082-.0558-.0125-.0493-.0335a.1092.1092,0,0,1,.0607-.0518A.0764.0764,0,0,1,9.18,25.4243Z"/><path class="cls-15" d="M7.097,21.7982a.0472.0472,0,0,1,.036-.02.0693.0693,0,0,1,.0518.0248.121.121,0,0,1,.0249.0413.0344.0344,0,0,1-.02.047.0954.0954,0,0,1-.0271.0045.1479.1479,0,0,1-.0582-.0076C7.0494,21.8682,7.0787,21.8219,7.097,21.7982Z"/><path class="cls-15" d="M5.9623,23.5565a.1091.1091,0,0,1-.1448.0245.2235.2235,0,0,1-.0658-.1287.35.35,0,0,1-.0148-.1283.1249.1249,0,0,1,.0681-.1159.1941.1941,0,0,1,.1546.0344.23.23,0,0,1,.069.0536C6.0967,23.3845,6.024,23.4887,5.9623,23.5565Z"/><path class="cls-16" d="M21.2517,20.3564a14.8084,14.8084,0,0,1,1.8853,1.69,14.465,14.465,0,0,1,1.803,2.3187c.285.4672.9268,2.5664.5407,3.1154a7.688,7.688,0,0,0,1.0569-6.964,10.2136,10.2136,0,0,0-4.834-5.0962,16.9164,16.9164,0,0,0-6.9082-1.7222c-3.641-.2012-6.4775.6572-9.0168,3.5866a5.1082,5.1082,0,0,0-.6032,5.4488,6.8836,6.8836,0,0,1,2.878-4.3009c2.7779-1.7954,7.1184-1.0971,10.0108.0992A14.5548,14.5548,0,0,1,21.2517,20.3564Z"/><path class="cls-13" d="M22.104,25.0957a11.7047,11.7047,0,0,1,5.1874-1.1643"/><path class="cls-13" d="M22.3206,25.9594a12.86,12.86,0,0,1,7.275.2853"/><path class="cls-13" d="M22.3849,27.0068a11.8618,11.8618,0,0,1,4.1888,1.2967"/><path class="cls-13" d="M7.5959,25.0957a11.704,11.704,0,0,0-5.1873-1.1643"/><path class="cls-13" d="M7.3793,25.9594a12.86,12.86,0,0,0-7.2749.2853"/><path class="cls-13" d="M7.315,27.0068a11.863,11.863,0,0,0-4.1888,1.2967"/><path class="cls-17" d="M8.8146,17.5167c.042.1069.1174.2314.2174.2152a.144.144,0,0,0,.0975-.1511.5332.5332,0,0,0-.0556-.2019c-.1764-.4125-.5658-1.4673-.6994-1.8368-.0446-.1243-.2549-.0881-.29.0376a.1957.1957,0,0,0,.0062.1018c.039.1477.1278.268.18.4085l.18.48Z"/><path class="cls-17" d="M9.2614,14.7247l-.0246.0076a.1449.1449,0,0,0-.1058.1761c.1228.3979.4756,1.6.614,2.1065a.5564.5564,0,0,0,.0879.2068.1505.1505,0,0,0,.1826.0585.222.222,0,0,0,.0733-.1771,2.431,2.431,0,0,0-.1793-.9474l-.464-1.35A.145.145,0,0,0,9.2614,14.7247Z"/><path class="cls-17" d="M11.0245,16.9236c.024.1059.084.2407.1779.2209s.1011-.1637.0841-.2721l-.201-1.2867-.097-.6363c-.0247-.159-.0036-.3926-.119-.52-.0773-.0848-.1476-.0659-.2527-.0426a.1557.1557,0,0,0-.13.18Z"/><path class="cls-17" d="M12.0677,16.61c.0079.13.0469.2934.1622.3076a.1659.1659,0,0,0,.1607-.13.5966.5966,0,0,0,.01-.2382c-.0489-.5085-.1072-1.7872-.1251-2.2341-.0057-.15-.2432-.1845-.3237-.0607a.2228.2228,0,0,0-.0282.1129c-.0089.1747.045.3346.0525.5054l.0281.5844Z"/><path class="cls-17" d="M13.3721,14.1242l-.0273,0a.1521.1521,0,0,0-.1614.1444c.0008.4411-.0159,1.7673-.0337,2.3236a.577.577,0,0,0,.0249.2365c.03.0737.1.1342.17.1172.0643-.0157.1044-.0876.1313-.1556a2.5224,2.5224,0,0,0,.1118-1.0141l-.0544-1.5114A.1548.1548,0,0,0,13.3721,14.1242Z"/><path class="cls-17" d="M14.4084,16.7386c-.0076.1083.0114.2548.1075.2634s.1451-.13.16-.2378l.1768-1.29.0894-.6373c.0221-.1594.1088-.3771.0354-.5322-.049-.1046-.1219-.1025-.2286-.1121a.1546.1546,0,0,0-.1753.1349Z"/><path class="cls-17" d="M15.5058,16.7365c-.0289.126-.0377.2967.0707.34a.1674.1674,0,0,0,.1924-.079.5928.5928,0,0,0,.076-.226c.0948-.502.3948-1.7462.5015-2.1805.0361-.1456-.18-.2459-.2909-.148a.2339.2339,0,0,0-.0587.1014c-.0573.1651-.0507.3338-.0913.5l-.1369.5687Z"/><path class="cls-17" d="M17.4422,14.7045l-.0259-.0074a.1507.1507,0,0,0-.1924.0957c-.1186.4243-.4947,1.6975-.6638,2.2285a.57.57,0,0,0-.04.2339c.0094.0774.0617.1563.1344.1588a.2323.2323,0,0,0,.17-.1135,2.4875,2.4875,0,0,0,.38-.9466l.3528-1.4709A.1544.1544,0,0,0,17.4422,14.7045Z"/><path class="cls-17" d="M17.7524,17.5c-.0352.1027-.0539.25.0387.2836s.176-.0894.2173-.1894l.4974-1.2036.2474-.5941c.0616-.1486.2-.3377.1689-.5059-.0207-.1125-.0907-.128-.1894-.1647a.1529.1529,0,0,0-.2014.0859Z"/><path class="cls-17" d="M18.829,17.7783c-.0587.1151-.1087.2786-.0125.3482a.1732.1732,0,0,0,.2086-.03.5854.5854,0,0,0,.1283-.2009c.2123-.4647.8017-1.6007,1.0089-1.9971.0694-.1323-.1119-.2815-.2436-.2111a.234.234,0,0,0-.0809.0842c-.0954.1463-.13.3116-.21.4627l-.2706.5185Z"/><path class="cls-17" d="M21.1889,16.2588l-.0232-.013a.15.15,0,0,0-.2079.05c-.2134.3859-.8732,1.5382-1.1609,2.0152a.561.561,0,0,0-.0926.2185.1692.1692,0,0,0,.0968.1858.2326.2326,0,0,0,.1933-.07,2.4555,2.4555,0,0,0,.5858-.8346l.6783-1.3523A.1536.1536,0,0,0,21.1889,16.2588Z"/><path class="cls-17" d="M20.8637,19.0527c-.0567.0926-.1068.2319-.0228.2864s.1921-.0474.2544-.1366l.7464-1.0683.37-.5267c.0922-.1317.2675-.2873.2741-.4571.0036-.1124-.06-.1438-.1471-.2a.1516.1516,0,0,0-.2136.04Z"/><path class="cls-17" d="M21.8641,19.5607c-.0816.1-.1647.25-.0844.3391a.1768.1768,0,0,0,.2124.0134.58.58,0,0,0,.1674-.17c.3041-.4105,1.1162-1.4,1.4008-1.7447.0957-.1155-.05-.2968-.1934-.2545a.2352.2352,0,0,0-.0964.0655c-.1236.1232-.1926.2774-.3019.4086l-.373.45Z"/><path class="cls-17" d="M24.4888,18.5606l-.02-.0176a.152.152,0,0,0-.215.0079c-.288.3341-1.1695,1.3265-1.5485,1.7343a.5607.5607,0,0,0-.1356.1951.1655.1655,0,0,0,.0576.2006.2318.2318,0,0,0,.2031-.03,2.461,2.461,0,0,0,.7445-.6967l.9414-1.1843A.1538.1538,0,0,0,24.4888,18.5606Z"/><path class="cls-17" d="M23.5912,21.2252c-.0751.0785-.1539.2039-.085.274s.1962-.0066.2761-.08l.9577-.8831.4745-.4349c.1183-.1089.3235-.2221.3658-.388.0274-.11-.0285-.1548-.1027-.23a.1519.1519,0,0,0-.2184-.0077Z"/><path class="cls-17" d="M24.4434,21.9263c-.1022.0791-.2176.2055-.1627.3087a.1725.1725,0,0,0,.2.0587.5962.5962,0,0,0,.2021-.1263c.392-.3276,1.2055-.9544,1.5639-1.2218.1209-.09.0167-.3053-.1334-.2989a.23.23,0,0,0-.1093.0408c-.1488.091-.2511.2259-.3878.3284l-.2576.2091Z"/><path class="cls-17" d="M26.6526,22.0066l-.0152-.0229a.1555.1555,0,0,0-.213-.0507c-.3636.25-.8864.5787-1.3555.8783a.5777.5777,0,0,0-.181.1539.1588.1588,0,0,0,.0016.2035.2288.2288,0,0,0,.2007.0206,2.5353,2.5353,0,0,0,.9-.4787l.6367-.49A.1571.1571,0,0,0,26.6526,22.0066Z"/><path class="cls-15" d="M9.2614,17.8348c-.81-.6634-3.8933-3.221-4.0243-2.7254a7.6924,7.6924,0,0,0,.7086,5.7711A8.9647,8.9647,0,0,1,9.2614,17.8348Z"/><path class="cls-5" d="M8.8443,18.06c-.7259-.5949-2.3476-1.957-2.5017-1.6891-.5278.9172-.0269,2.5118.3767,3.4939A7.9963,7.9963,0,0,1,8.8443,18.06Z"/></g></g></g></g></g></svg>