<svg xmlns="http://www.w3.org/2000/svg" width="40.3392" height="27.4014" viewBox="0 0 40.3392 27.4014"><defs><style>.cls-1{isolation:isolate;}.cls-11,.cls-2{mix-blend-mode:multiply;}.cls-3{fill:#dd6c49;}.cls-4{fill:#f99d41;}.cls-5{fill:#f1e0bf;}.cls-6,.cls-9{fill:none;stroke:#623906;stroke-linecap:round;stroke-miterlimit:10;}.cls-6{stroke-width:0.2882px;}.cls-7{fill:#623906;}.cls-8{fill:#fff;}.cls-9{stroke-width:0.2571px;}.cls-10{fill:#dec999;}.cls-11{fill:#dcc2bc;}.cls-12{fill:#e8d5a8;}.cls-13{fill:#fb4751;}.cls-14{fill:#ce382e;}.cls-15{fill:#fbedcd;}</style></defs><g class="cls-1"><g id="Layer_2" data-name="Layer 2"><g id="Layer_1-2" data-name="Layer 1"><g id="New_Symbol" data-name="New Symbol" class="cls-2"><g id="New_Symbol_10" data-name="New Symbol 10"><g id="New_Symbol_16" data-name="New Symbol 16"><path class="cls-3" d="M7.6967,14.8489A11.5147,11.5147,0,0,1,8.3092,12.58c.1875.125.35.2344.4532.2937q1.0595.5907,2.1189,1.1845c.0812.0469.175.1063.1844.2031.0125.1407-.1625.2188-.3032.2438a6.7111,6.7111,0,0,1-1.9845.0781,1.7125,1.7125,0,0,0-.7969.025A.5933.5933,0,0,0,7.6967,14.8489Z"/><path class="cls-3" d="M11.4469,17.1022a1.4624,1.4624,0,0,1-.6969.1437c-1.0751.0438-2.1533.0844-3.2283.1282.0031-.0344.0031-.0719.0031-.1094.0063-.1594.0094-.325.0094-.4907,0-.1594.0031-.3156.0125-.4719.0062-.1781.0156-.3563.0312-.5313.0157-.1875.0375-.3781.0657-.5625l.0187.0375a.7134.7134,0,0,0,.5219.2906q1.4814.3236,2.9565.65a.7368.7368,0,0,1,.5438.3063A.5.5,0,0,1,11.4469,17.1022Z"/><path class="cls-4" d="M29.5239,9.6653l-1.8783-.7437-1.86-.7376-1.1688-.4625c0-.1032,0-.2063.0062-.3063a8.346,8.346,0,0,1,1.8908-4.866.58.58,0,0,1,.4625-.2187.5969.5969,0,0,1,.4907.2562A11.1416,11.1416,0,0,1,29.5239,9.6653Z"/><path class="cls-3" d="M27.6456,8.9216c-.0312.1406-.0656.2843-.1062.425L25.7861,8.184l-1.1626-.7688a8.346,8.346,0,0,1,1.8908-4.866.58.58,0,0,1,.4625-.2187.4057.4057,0,0,1,.0438.0812A10.56,10.56,0,0,1,27.6456,8.9216Z"/><path class="cls-4" d="M10.1011,9.6653l1.8783-.7437,1.86-.7376,1.1688-.4625c0-.1032,0-.2063-.0063-.3063a8.3452,8.3452,0,0,0-1.8907-4.866.58.58,0,0,0-.4626-.2187.5968.5968,0,0,0-.4906.2562A11.1416,11.1416,0,0,0,10.1011,9.6653Z"/><path class="cls-3" d="M11.9794,8.9216c.0312.1406.0656.2843.1062.425L13.8389,8.184l1.1625-.7688a8.3452,8.3452,0,0,0-1.8907-4.866.58.58,0,0,0-.4626-.2187.41.41,0,0,0-.0437.0812A10.5591,10.5591,0,0,0,11.9794,8.9216Z"/><path class="cls-4" d="M33.0516,25.9965c-2.21,1.8471-18.9732,1.4564-22.4953,1.1282-4.71-.4375-4.3285-2.0845-3.66-5.2691.0344-.1687.0719-.3437.1094-.5219.0625-.3062.125-.6219.1844-.9532q.0421-.2484.0844-.5063V19.868c.0281-.1657.0531-.3313.075-.5032v-.0094q.0281-.2155.0562-.4406c.025-.2.0438-.4063.0625-.6157.0125-.1687.0251-.3375.0344-.5125v-.0094c0-.0156.0031-.0281.0031-.0437V17.73c.0094-.1187.0125-.2344.0157-.3562.0031-.0344.0031-.0719.0031-.1094.0063-.1594.0094-.325.0094-.4907,0-.1594.0031-.3156.0125-.4719.0062-.1781.0156-.3563.0312-.5313.0157-.1875.0375-.3781.0657-.5625V15.202c.0124-.1187.0312-.2375.0531-.3531A11.5147,11.5147,0,0,1,8.3092,12.58a12.3158,12.3158,0,0,1,5.0566-6.0661,12.0739,12.0739,0,0,1,2.0971-1.0282,11.1858,11.1858,0,0,1,1.2-.3844c.2657-.0718.5344-.1343.8063-.1844.3094-.0625.622-.1125.9407-.1468l.0657-.0094c.2062-.0219.4156-.0407.625-.05.2156-.0156.4375-.0219.6563-.025.0375-.0032.0687-.0032.1063-.0032.3937,0,.7844.0157,1.1688.0469.1906.0157.375.0313.5625.0532a.3849.3849,0,0,1,.0594.0062c.2532.0313.5063.0688.7532.1125.3594.0625.7125.1375,1.0594.2281.3.0782.5969.1657.8876.2626a12.2124,12.2124,0,0,1,2.2627,1.0094,10.8521,10.8521,0,0,1,5,6.11,11.7736,11.7736,0,0,1,.5469,3.1877.1752.1752,0,0,1,.0032.0407c.0062.2031.0156.4.0312.5969.0187.2906.0469.5719.0813.8469.0124.1094.025.2157.0406.3219.0094.0625.0219.125.0312.1875.0063.0313.0094.0657.0157.0938,0,.0094.0031.0156.0031.025.0281.175.0594.3438.0906.5125.05.2719.1063.5344.1719.7876.0094.0469.0188.0937.0313.1375.0406.1719.0843.3375.1281.5.0125.0469.025.0907.0375.1344.0312.1156.0656.2313.0969.3438l.0468.1594c.0844.2781.1688.5469.25.8032q.1078.3375.2062.6563C34.0079,23.6745,34.3142,24.95,33.0516,25.9965Z"/><path class="cls-5" d="M33.0516,25.9965c-2.21,1.8471-18.9732,1.4564-22.4953,1.1282-4.71-.4375-4.3285-2.0845-3.66-5.2691.0344-.1687.0719-.3437.1094-.5219.0625-.3062.125-.6219.1844-.9532q.0421-.2484.0844-.5063V19.868c.0281-.1657.0531-.3313.075-.5032a6.2253,6.2253,0,0,0,5.3347.0875A10.2178,10.2178,0,0,0,17.338,14.73,8.62,8.62,0,0,1,18.36,13.0456a2.1334,2.1334,0,0,1,1.7189-.8094,2.2272,2.2272,0,0,1,1.6157,1.1813,17.1939,17.1939,0,0,1,.8188,1.9095,8.8009,8.8009,0,0,0,6.41,4.7973,12.4735,12.4735,0,0,0,4.0034.1031l.0468.1594c.0844.2781.1688.5469.25.8032q.1078.3375.2062.6563C34.0079,23.6745,34.3142,24.95,33.0516,25.9965Z"/><path class="cls-6" d="M20.0194,17.0035a2.1707,2.1707,0,0,0,.0784,1.163,3.5632,3.5632,0,0,0,.6282.6853l.7706.7819"/><path class="cls-6" d="M18.5079,19.6254l.7705-.7819a5.6389,5.6389,0,0,0,.7547-.8955"/><path class="cls-7" d="M21.121,16.2794a3.9245,3.9245,0,0,1-.4743.47c-.2069.1858-.4351.3521-.6515.5271a7.2087,7.2087,0,0,1-.5617-.4547,2.1812,2.1812,0,0,1-.6011-.6613.581.581,0,0,1,.1512-.6973.73.73,0,0,1,.5844-.05,2.3056,2.3056,0,0,0,.59.1212,2.94,2.94,0,0,0,.4907-.095.6043.6043,0,0,1,.4808.0693.4937.4937,0,0,1,.1037.5933A.9692.9692,0,0,1,21.121,16.2794Z"/><path class="cls-8" d="M27.8638,14.15a1.493,1.493,0,1,1-1.493-1.4931A1.493,1.493,0,0,1,27.8638,14.15Z"/><path class="cls-7" d="M27.3057,14.15a.9349.9349,0,1,1-.9349-.935A.9349.9349,0,0,1,27.3057,14.15Z"/><path class="cls-8" d="M15.988,14.15a1.493,1.493,0,1,1-1.493-1.4931A1.493,1.493,0,0,1,15.988,14.15Z"/><path class="cls-7" d="M15.43,14.15a.9349.9349,0,1,1-.9349-.935A.9349.9349,0,0,1,15.43,14.15Z"/><path class="cls-3" d="M16.6629,5.1013c.2657-.0718.5344-.1343.8063-.1844q-.0046,1.7721-.0031,3.544c0,.1875-.0219.4126-.1906.4938-.2282.1094-.4532-.1469-.5719-.3688a15.1821,15.1821,0,0,1-1.2407-3.1A11.1858,11.1858,0,0,1,16.6629,5.1013Z"/><path class="cls-3" d="M21.5945,4.7826a27.2947,27.2947,0,0,1-1.0563,5.3691c-.1125.3656-.3313.8032-.7126.7844-.4031-.0219-.5625-.525-.6125-.9219C18.985,8.2578,18.5693,6.5264,18.41,4.77l.0657-.0094c.2062-.0219.4156-.0407.625-.05.2156-.0156.4375-.0219.6563-.025.0375-.0032.0687-.0032.1063-.0032.3937,0,.7844.0157,1.1688.0469C21.2226,4.7451,21.407,4.7607,21.5945,4.7826Z"/><path class="cls-3" d="M24.3541,5.392a8.4521,8.4521,0,0,1-1.497,3.1c-.125.1625-.2938.3375-.4969.3063a.4139.4139,0,0,1-.3031-.3063,1.2986,1.2986,0,0,1-.0063-.4532c.1188-1.0469.2375-2.0907.3563-3.1377.3594.0625.7125.1375,1.0594.2281C23.7666,5.2076,24.0634,5.2951,24.3541,5.392Z"/><path class="cls-3" d="M32.32,17.5053Q30.6,17.44,28.8732,17.3678a1.4578,1.4578,0,0,1-.6938-.1438.5008.5008,0,0,1-.2407-.6094.7424.7424,0,0,1,.5438-.3062q1.4814-.3235,2.9565-.65a.72.72,0,0,0,.525-.2906.5048.5048,0,0,0-.3219-.6376,1.6587,1.6587,0,0,0-.7938-.0218,6.732,6.732,0,0,1-1.9876-.0813c-.1407-.025-.3157-.1031-.3032-.2438.0094-.0968.1031-.1562.1875-.2031.7063-.3938,1.4126-.7907,2.1158-1.1845.1594-.0875.4469-.2969.7563-.4844a11.7736,11.7736,0,0,1,.5469,3.1877.1752.1752,0,0,1,.0032.0407c.0062.2031.0156.4.0312.5969.0187.2906.0469.5719.0813.8469C32.2921,17.2928,32.3047,17.3991,32.32,17.5053Z"/><path class="cls-3" d="M32.6328,19.1117a5.7765,5.7765,0,0,1-1.7782-.6c-.0813-.0375-.1782-.1031-.1594-.1906.0125-.075.1-.1094.175-.1281q.7453-.2063,1.497-.4063c0,.0094.0031.0156.0031.025.0281.175.0594.3438.0906.5125C32.5109,18.596,32.5672,18.8585,32.6328,19.1117Z"/><path class="cls-9" d="M28.6121,16.6156A20.2636,20.2636,0,0,1,39.4,18.5132"/><path class="cls-9" d="M28.4623,17.3166a28.8942,28.8942,0,0,1,9.6753,2.7678"/><path class="cls-9" d="M28.7649,18.1089a28.2111,28.2111,0,0,1,8.5479,5.0085"/><path class="cls-9" d="M10.9165,16.6156A20.2636,20.2636,0,0,0,.1285,18.5132"/><path class="cls-9" d="M11.0663,17.3166A28.8942,28.8942,0,0,0,1.391,20.0844"/><path class="cls-9" d="M10.7637,18.1089a28.2094,28.2094,0,0,0-8.5478,5.0085"/><path class="cls-10" d="M33.2154,22.3116c-.2212.1869-.5061.0347-.1854-.1039C33.213,22.1271,33.363,22.1843,33.2154,22.3116Z"/><path class="cls-10" d="M32.0568,23.6679c-.1045-.1981.28-.5177.3623-.2335C32.4816,23.6428,32.1229,23.7914,32.0568,23.6679Z"/><path class="cls-10" d="M32.6611,25.5633c-.1008-.1581.1423-.3511.2588-.4169a.4213.4213,0,0,1,.2693-.07c.086.0179.2106.1229.1865.2171a.2216.2216,0,0,1-.1168.1283c-.0526.0288-.11.0478-.1616.0794C33.0051,25.5581,32.7444,25.693,32.6611,25.5633Z"/><path class="cls-10" d="M33.2963,23.5782c-.1119-.1871.2526-.5182.3474-.2471C33.7162,23.53,33.3669,23.6946,33.2963,23.5782Z"/><path class="cls-10" d="M31.8022,22.4176c-.0357-.0675.09-.1747.1177-.0778C31.941,22.4109,31.8246,22.46,31.8022,22.4176Z"/><path class="cls-10" d="M33.1658,21.6727c-.0831.1035-.2118-.0547-.048-.0878C33.1748,21.5734,33.23,21.5927,33.1658,21.6727Z"/><path class="cls-10" d="M31.97,21.7377a.0584.0584,0,0,1-.0486-.0222.0647.0647,0,0,1,.0094-.0674.2173.2173,0,0,1,.0493-.0527.07.07,0,0,1,.0821-.0113.0825.0825,0,0,1,.0209.0244.1138.1138,0,0,1,.0188.0624C32.0989,21.7357,32.0154,21.74,31.97,21.7377Z"/><path class="cls-10" d="M32.8018,24.1861a.1122.1122,0,0,1,.0989.131c-.0129.0583-.0694.0975-.1122.1349a.4781.4781,0,0,1-.1358.0833.1647.1647,0,0,1-.1646-.0055.1933.1933,0,0,1-.0425-.1708.2393.2393,0,0,1,.0249-.0969C32.5362,24.147,32.6942,24.1617,32.8018,24.1861Z"/><path class="cls-10" d="M28.9674,23.5593c-.2536.1417-.5179-.0579-.1711-.1354C28.9954,23.3809,29.1347,23.4542,28.9674,23.5593Z"/><path class="cls-10" d="M31.0421,26.0935a.1238.1238,0,0,1-.056.0555.8424.8424,0,0,1-.6273.1265c-.1927-.0453-.3145-.1869-.1085-.3223a.7252.7252,0,0,1,.4732-.0942C30.8163,25.87,31.0943,25.9431,31.0421,26.0935Z"/><path class="cls-10" d="M31.331,24.9673c-.0256.2053-.2509.2665-.4321.235-.1823-.0342-.3208-.1665-.1788-.32C30.8956,24.6873,31.3555,24.7576,31.331,24.9673Z"/><path class="cls-10" d="M27.602,24.7279c-.0748-.2075.3586-.4644.3971-.1751C28.0311,24.7706,27.6512,24.8649,27.602,24.7279Z"/><path class="cls-10" d="M31.2734,24.2351c-.0983-.2.301-.4974.3728-.2144C31.7015,24.2286,31.3354,24.3594,31.2734,24.2351Z"/><path class="cls-10" d="M31.7761,26.3081c-.1321-.2644.445-.6741.5386-.2968C32.3867,26.2881,31.86,26.4734,31.7761,26.3081Z"/><path class="cls-10" d="M27.9283,26.69c-.0774-.1723.193-.3172.3171-.37a.4217.4217,0,0,1,.2764-.0329c.0824.03.19.1509.1524.241a.2246.2246,0,0,1-.134.1114c-.0561.0213-.116.0322-.1709.0565C28.27,26.7432,27.9928,26.8351,27.9283,26.69Z"/><path class="cls-10" d="M29.2142,25.0713c-.11-.2667.4479-.6425.5181-.26C29.7873,25.0894,29.2872,25.25,29.2142,25.0713Z"/><path class="cls-10" d="M27.5329,23.4587c-.0255-.07.117-.16.13-.06C27.6733,23.4721,27.55,23.5056,27.5329,23.4587Z"/><path class="cls-10" d="M29.7242,22.861c-.0256-.07.117-.16.13-.06C29.8646,22.8744,29.7409,22.9079,29.7242,22.861Z"/><path class="cls-10" d="M28.291,21.2c-.0255-.07.117-.1595.13-.06C28.4314,21.2133,28.3077,21.2469,28.291,21.2Z"/><path class="cls-10" d="M30.6786,23.3055c-.1953.1017-.2906-.2306-.0164-.1676C30.7579,23.16,30.8294,23.2267,30.6786,23.3055Z"/><path class="cls-10" d="M29.3882,22.208c-.1335.0632-.1929-.1715-.0083-.1172C29.4443,22.11,29.4913,22.159,29.3882,22.208Z"/><path class="cls-10" d="M29.7076,23.9988c-.2088.1924-.4273-.1777-.0718-.1983C29.7594,23.7932,29.8677,23.85,29.7076,23.9988Z"/><path class="cls-10" d="M30.9074,21.9157c.0062-.0227.035-.0135.0508-.0109a.1663.1663,0,0,1,.0655.0214.0679.0679,0,0,1,.0284.0324A.05.05,0,0,1,31,22.0217a.1179.1179,0,0,1-.0784-.0577A.0625.0625,0,0,1,30.9074,21.9157Z"/><path class="cls-10" d="M27.8036,22.8072a.0582.0582,0,0,1-.0455-.0285.065.065,0,0,1,.02-.0657.2254.2254,0,0,1,.0575-.0459.0719.0719,0,0,1,.0842,0,.08.08,0,0,1,.0174.027.1122.1122,0,0,1,.0093.0646C27.9335,22.8224,27.8489,22.8158,27.8036,22.8072Z"/><path class="cls-10" d="M28.2687,25.3509a.111.111,0,0,1,.0788.1434c-.0213.0561-.0831.0874-.131.1187a.4833.4833,0,0,1-.1468.0642.1611.1611,0,0,1-.1628-.0293.1909.1909,0,0,1-.0172-.1747.2482.2482,0,0,1,.039-.0919C28.0108,25.2759,28.1656,25.312,28.2687,25.3509Z"/><path class="cls-10" d="M24.5194,24.2008c-.2729.1117-.5128-.1172-.1542-.1543C24.5705,24.0244,24.7025,24.1236,24.5194,24.2008Z"/><path class="cls-10" d="M26.252,26.9152a.1247.1247,0,0,1-.0629.0482.8393.8393,0,0,1-.6372.048c-.1846-.0688-.287-.2245-.065-.3335a.7254.7254,0,0,1,.4812-.0351C26.0587,26.6648,26.3239,26.7722,26.252,26.9152Z"/><path class="cls-10" d="M26.6941,25.9179c-.1092.41-.9252.093-.5977-.1764C26.3,25.5808,26.7484,25.7165,26.6941,25.9179Z"/><path class="cls-10" d="M23.0019,25.1941c-.0506-.2194.417-.4157.42-.12C23.4266,25.2913,23.034,25.3313,23.0019,25.1941Z"/><path class="cls-10" d="M26.739,25.1834c-.07-.2107.37-.4553.4016-.1649C27.166,25.2321,26.7834,25.3148,26.739,25.1834Z"/><path class="cls-10" d="M23.09,27.0339c-.0562-.18.23-.2958.36-.3255a.4585.4585,0,0,1,.2787.0043c.0782.039.17.1721.1214.2573a.2262.2262,0,0,1-.1466.0949c-.0582.0151-.1189.0185-.1764.0334C23.423,27.1268,23.1366,27.1819,23.09,27.0339Z"/><path class="cls-10" d="M24.5705,25.7329c-.0773-.2857.5335-.5646.552-.1834C25.1415,25.8406,24.6194,25.9118,24.5705,25.7329Z"/><path class="cls-10" d="M23.0877,23.9243c-.0173-.0749.1383-.1416.1391-.0409C23.2282,23.9575,23.0985,23.971,23.0877,23.9243Z"/><path class="cls-10" d="M26.2754,24.1838c-.2119.0669-.2609-.2738.0072-.1685C26.3754,24.0492,26.4375,24.1248,26.2754,24.1838Z"/><path class="cls-10" d="M25.1261,22.9213c-.1434.0467-.1716-.1937.0077-.1175C25.1962,22.83,25.237,22.885,25.1261,22.9213Z"/><path class="cls-10" d="M25.2056,24.74c-.2343.1657-.4042-.2286-.0454-.2058C25.285,24.5417,25.3857,24.6113,25.2056,24.74Z"/><path class="cls-10" d="M26.7037,22.8319c.0095-.0217.0372-.0089.0528-.0044a.1686.1686,0,0,1,.0628.03.0662.0662,0,0,1,.0238.0358.0516.0516,0,0,1-.0614.0562.1166.1166,0,0,1-.07-.0673A.061.061,0,0,1,26.7037,22.8319Z"/><path class="cls-10" d="M25.1268,22.0978c.01-.0218.0372-.009.0528-.0045a.1681.1681,0,0,1,.0628.03.0662.0662,0,0,1,.0238.0358.0516.0516,0,0,1-.0613.0562.117.117,0,0,1-.0706-.0674A.0607.0607,0,0,1,25.1268,22.0978Z"/><path class="cls-10" d="M30.0745,21.4267c.01-.0217.0373-.0089.0528-.0044a.1706.1706,0,0,1,.0629.03.0658.0658,0,0,1,.0237.0358.0515.0515,0,0,1-.0613.0562.1164.1164,0,0,1-.07-.0673A.0614.0614,0,0,1,30.0745,21.4267Z"/><path class="cls-10" d="M23.4441,23.319a.058.058,0,0,1-.0423-.0335.0649.0649,0,0,1,.0281-.063.2286.2286,0,0,1,.064-.039.0739.0739,0,0,1,.0851.0093.078.078,0,0,1,.0141.0289.1091.1091,0,0,1,.0012.0652C23.5733,23.3491,23.4888,23.3329,23.4441,23.319Z"/><path class="cls-10" d="M23.5927,25.9006a.11.11,0,0,1,.0608.1518.283.283,0,0,1-.1453.1012.4805.4805,0,0,1-.1546.0412.1709.1709,0,0,1-.1589-.0523.19.19,0,0,1,.004-.1756.2334.2334,0,0,1,.05-.0858C23.3439,25.7887,23.4948,25.8509,23.5927,25.9006Z"/><path class="cls-10" d="M19.9665,24.3234c-.2863.0842-.5035-.1672-.1387-.1687C20.0369,24.1529,20.159,24.2647,19.9665,24.3234Z"/><path class="cls-10" d="M21.2252,26.9723a.1262.1262,0,0,1-.0679.0414.8384.8384,0,0,1-.638-.0189c-.1758-.0878-.2607-.2556-.0281-.3386a.7266.7266,0,0,1,.4825.0154C21.0613,26.703,21.3127,26.8376,21.2252,26.9723Z"/><path class="cls-10" d="M21.9539,26.2735c-.1565.3811-.9329-.0086-.5763-.2457C21.5984,25.884,22.0316,26.0791,21.9539,26.2735Z"/><path class="cls-10" d="M18.3394,25.1558c-.0289-.2231.46-.3748.4333-.08C18.7552,25.2922,18.3579,25.2953,18.3394,25.1558Z"/><path class="cls-10" d="M22.0844,25.5519c-.0456-.2172.4244-.4118.4211-.12C22.5053,25.6475,22.1134,25.6875,22.0844,25.5519Z"/><path class="cls-10" d="M18.2292,27.1422c-.0381-.1846.258-.273.3908-.29a.4255.4255,0,0,1,.277.0353c.0738.0488.1511.1927.0943.2712a.2194.2194,0,0,1-.1552.0755c-.0593.0071-.12.0031-.1788.0134C18.551,27.2657,18.2607,27.2938,18.2292,27.1422Z"/><path class="cls-10" d="M19.8541,25.8528c-.0472-.2922.5945-.51.5718-.1226C20.4128,26.0156,19.8841,26.0352,19.8541,25.8528Z"/><path class="cls-10" d="M18.5531,23.9c-.01-.0762.1537-.128.1443-.0277C18.6912,23.9461,18.5593,23.9475,18.5531,23.9Z"/><path class="cls-10" d="M17.8448,21.8862c-.01-.0761.1537-.1279.1442-.0277C17.9829,21.9324,17.8509,21.9337,17.8448,21.8862Z"/><path class="cls-10" d="M21.7349,24.4972c-.2205.0446-.2309-.3011.0269-.1658C21.8517,24.3784,21.9054,24.4623,21.7349,24.4972Z"/><path class="cls-10" d="M20.72,23.1217c-.15.0315-.1522-.21.0209-.1161C20.8008,23.0384,20.8358,23.0971,20.72,23.1217Z"/><path class="cls-10" d="M20.5981,24.9384c-.2537.133-.3818-.282-.0229-.21C20.7,24.75,20.793,24.8293,20.5981,24.9384Z"/><path class="cls-10" d="M22.3274,23.21c.0123-.0206.0387-.0049.0539.0013a.1694.1694,0,0,1,.06.0363.0651.0651,0,0,1,.02.0382.0528.0528,0,0,1-.0688.0492.116.116,0,0,1-.0632-.0747A.06.06,0,0,1,22.3274,23.21Z"/><path class="cls-10" d="M18.9743,23.3329a.0613.0613,0,0,1-.0394-.0389c-.005-.0242.0151-.0459.035-.0589a.23.23,0,0,1,.0689-.03.0777.0777,0,0,1,.0854.0205.0791.0791,0,0,1,.0113.03.1072.1072,0,0,1-.0055.0649C19.1022,23.38,19.0183,23.3525,18.9743,23.3329Z"/><path class="cls-10" d="M18.8594,25.9163a.1122.1122,0,0,1,.0453.1585.29.29,0,0,1-.1554.0832.4852.4852,0,0,1-.1585.0266.17.17,0,0,1-.1535-.0669.19.19,0,0,1,.0216-.1744.2362.2362,0,0,1,.0588-.0807C18.6221,25.78,18.7667,25.8533,18.8594,25.9163Z"/><path class="cls-10" d="M15.3727,24.0028c-.2952.06-.492-.2089-.1247-.18C15.4586,23.8389,15.5716,23.96,15.3727,24.0028Z"/><path class="cls-10" d="M16.5305,27.0783a.1275.1275,0,0,1-.0714.0352.8088.8088,0,0,1-.6329-.0791c-.1664-.1075-.2361-.2821.0029-.34a.7665.7665,0,0,1,.4789.0628C16.3925,26.7958,16.63,26.9518,16.5305,27.0783Z"/><path class="cls-10" d="M17.1857,26.1248c-.1924.3657-.9309-.0907-.5527-.2954C16.8673,25.7057,17.282,25.9381,17.1857,26.1248Z"/><path class="cls-10" d="M13.6681,24.6921c-.0107-.2246.493-.337.4413-.0459C14.0735,24.8608,13.6751,24.8326,13.6681,24.6921Z"/><path class="cls-10" d="M17.3853,25.4192c-.0251-.22.4651-.36.4331-.0728C17.7971,25.5635,17.4013,25.56,17.3853,25.4192Z"/><path class="cls-10" d="M13.3934,26.6624c-.0227-.1868.28-.2516.414-.2586a.4247.4247,0,0,1,.2734.0569c.0695.0544.1343.2038.071.2775a.2212.2212,0,0,1-.1612.063c-.06.0025-.12-.0063-.1792-.0007C13.7037,26.8108,13.4122,26.816,13.3934,26.6624Z"/><path class="cls-10" d="M15.1255,25.5166c-.0219-.295.6407-.4583.5831-.0744C15.67,25.7253,15.1394,25.7008,15.1255,25.5166Z"/><path class="cls-10" d="M13.9867,23.4578c-.0037-.0766.1654-.1152.1476-.0161C14.1219,23.5148,13.989,23.5057,13.9867,23.4578Z"/><path class="cls-10" d="M13.5936,21.6205c-.0038-.0767.1653-.1153.1475-.0162C13.7287,21.6774,13.5958,21.6683,13.5936,21.6205Z"/><path class="cls-10" d="M21.8887,22.12c-.0037-.0767.1654-.1153.1475-.0162C22.0239,22.1767,21.891,22.1676,21.8887,22.12Z"/><path class="cls-10" d="M17.1352,24.337c-.2259.025-.2038-.32.0427-.1627C17.2639,24.2291,17.31,24.3174,17.1352,24.337Z"/><path class="cls-10" d="M16.2393,22.873c-.1549.0137-.135-.2276.0317-.1131C16.3291,22.8,16.3592,22.8623,16.2393,22.873Z"/><path class="cls-10" d="M15.9525,24.6685c-.2665.11-.3581-.313-.004-.2113C16.0716,24.4925,16.1579,24.5827,15.9525,24.6685Z"/><path class="cls-10" d="M17.8567,23.1182c.0144-.0193.04-.0012.0544.0064a.172.172,0,0,1,.057.0418.0648.0648,0,0,1,.0162.04.0539.0539,0,0,1-.0743.0425.1156.1156,0,0,1-.0566-.08A.0594.0594,0,0,1,17.8567,23.1182Z"/><path class="cls-10" d="M14.4585,22.9264a.0615.0615,0,0,1-.0365-.0419c-.003-.0246.0191-.0445.04-.0559a.2353.2353,0,0,1,.0721-.0247.079.079,0,0,1,.0844.0272.0779.0779,0,0,1,.0088.0313.1065.1065,0,0,1-.011.0642C14.5836,22.9832,14.5012,22.9494,14.4585,22.9264Z"/><path class="cls-10" d="M14.1254,25.4907a.1115.1115,0,0,1,.0319.1615.294.294,0,0,1-.1624.0707.4892.4892,0,0,1-.1608.0139.17.17,0,0,1-.1478-.0786.19.19,0,0,1,.0362-.1721.2359.2359,0,0,1,.0655-.0757C13.8993,25.3367,14.038,25.4207,14.1254,25.4907Z"/><path class="cls-10" d="M10.8719,23.2987c-.2816.0287-.4308-.2578-.0947-.1914C10.9688,23.1455,11.0645,23.2737,10.8719,23.2987Z"/><path class="cls-10" d="M11.7049,26.4618a.1274.1274,0,0,1-.0742.029.8249.8249,0,0,1-.6245-.138c-.1568-.1212-.2091-.3006.0343-.3384a.7443.7443,0,0,1,.47.1064C11.5912,26.1687,11.815,26.3445,11.7049,26.4618Z"/><path class="cls-10" d="M12.4365,25.565c-.223.3523-.9158-.1677-.5236-.3389C12.1543,25.1238,12.5471,25.3868,12.4365,25.565Z"/><path class="cls-10" d="M9.2,23.79c.0279-.2217.5036-.2671.4148.0118C9.5488,24.0119,9.1825,23.93,9.2,23.79Z"/><path class="cls-10" d="M12.6926,24.877c-.0078-.2216.4936-.3245.4381-.0378C13.0921,25.0506,12.6964,25.017,12.6926,24.877Z"/><path class="cls-10" d="M11.8838,26.899c-.01-.2949.6829-.4242.6078-.044C12.44,27.1375,11.891,27.0853,11.8838,26.899Z"/><path class="cls-10" d="M8.6248,25.6947c.0071-.1889.314-.2036.447-.1936a.42.42,0,0,1,.2619.0923c.061.0636.1066.219.0341.2845a.2208.2208,0,0,1-.1687.0411c-.06-.0057-.1186-.0225-.1788-.0249C8.9111,25.892,8.62,25.849,8.6248,25.6947Z"/><path class="cls-10" d="M9.7088,26.4366c.1347-.2292.8757.1526.6189.39C10.1361,27.007,9.621,26.5825,9.7088,26.4366Z"/><path class="cls-10" d="M10.4678,24.7774c.0119-.2928.6668-.3935.5735-.0176C10.976,25.0385,10.46,24.964,10.4678,24.7774Z"/><path class="cls-10" d="M9.6882,22.615c.01-.076.1626-.0933.1316.0021C9.7972,22.688,9.6823,22.6624,9.6882,22.615Z"/><path class="cls-10" d="M12.5337,23.7806c-.2235.0065-.173-.3352.0558-.1588C12.67,23.6826,12.7083,23.7739,12.5337,23.7806Z"/><path class="cls-10" d="M11.8019,22.2475c-.1462.0023-.1033-.2359.0407-.11C11.8928,22.1811,11.915,22.2455,11.8019,22.2475Z"/><path class="cls-10" d="M11.3538,24.01c-.2682.0885-.3128-.3394.0168-.21C11.4854,23.8445,11.56,23.941,11.3538,24.01Z"/><path class="cls-10" d="M13.35,22.62c.016-.0179.04.0026.0539.0116a.1774.1774,0,0,1,.0538.0472.0656.0656,0,0,1,.013.0413.0535.0535,0,0,1-.0779.0353.1178.1178,0,0,1-.05-.0855A.0591.0591,0,0,1,13.35,22.62Z"/><path class="cls-10" d="M10.1847,22.1425a.0562.0562,0,0,1-.0255-.0449.0661.0661,0,0,1,.0435-.0512.1971.1971,0,0,1,.0662-.0172.0625.0625,0,0,1,.0691.0353.086.086,0,0,1,.0031.0318.1212.1212,0,0,1-.0189.0623C10.2853,22.2112,10.2183,22.17,10.1847,22.1425Z"/><path class="cls-10" d="M9.5089,24.6386a.1132.1132,0,0,1,.0082.1637.283.283,0,0,1-.1662.05.4664.4664,0,0,1-.1572-.0064.1619.1619,0,0,1-.13-.0992.1957.1957,0,0,1,.0608-.1648.2369.2369,0,0,1,.0737-.0655C9.3144,24.46,9.4352,24.5577,9.5089,24.6386Z"/><path class="cls-10" d="M7.33,21.8163c-.22-.0206-.1936-.2961-.0011-.1912C7.4483,21.6869,7.4836,21.8281,7.33,21.8163Z"/><path class="cls-10" d="M7.1406,25.2169a.1054.1054,0,0,1-.0655.0091.6735.6735,0,0,1-.48-.2346c-.1018-.13-.103-.286.0977-.2635a.6067.6067,0,0,1,.3547.1785C7.1031,24.9584,7.2508,25.1429,7.1406,25.2169Z"/><path class="cls-10" d="M7.8907,24.45c-.2872.3031-.83-.3495-.4185-.4339C7.7178,23.968,8.0308,24.2935,7.8907,24.45Z"/><path class="cls-10" d="M8.27,23.8215c.04-.2182.5119-.2363.41.0336C8.6045,24.06,8.2461,23.9577,8.27,23.8215Z"/><path class="cls-10" d="M7.2139,26.005c.05-.2867.7651-.2811.6235.08C7.737,26.3522,7.183,26.1934,7.2139,26.005Z"/><path class="cls-10" d="M6.7785,23.4292c.078-.2139.5493-.1739.4078.0936C7.0767,23.7229,6.7207,23.5663,6.7785,23.4292Z"/><path class="cls-10" d="M6.8446,21.35c.0572-.05.0971-.0943.0285-.0218C6.8181,21.3788,6.8094,21.38,6.8446,21.35Z"/><path class="cls-10" d="M8.3609,22.7254c-.1983-.03-.0741-.3525.0838-.1451C8.5,22.6527,8.5137,22.7483,8.3609,22.7254Z"/><path class="cls-10" d="M8.1361,21.1274c-.1173-.023-.0146-.2411.0639-.0983C8.2282,21.0785,8.2285,21.1434,8.1361,21.1274Z"/><path class="cls-10" d="M7.2692,22.7255c-.26.0242-.176-.3932.0726-.1982C7.4277,22.5956,7.47,22.702,7.2692,22.7255Z"/><path class="cls-10" d="M9.2993,21.7142c.0165-.0151.0322.0076.0423.0179a.1459.1459,0,0,1,.0358.0521.0708.0708,0,0,1,.0028.0419.0466.0466,0,0,1-.0724.0254.111.111,0,0,1-.0247-.09A.0709.0709,0,0,1,9.2993,21.7142Z"/><path class="cls-10" d="M9.0271,20.5424c.0164-.0152.0321.0075.0423.0179a.1444.1444,0,0,1,.0357.0521.0689.0689,0,0,1,.0028.0418.0467.0467,0,0,1-.0724.0255.111.111,0,0,1-.0246-.09A.07.07,0,0,1,9.0271,20.5424Z"/><path class="cls-10" d="M7.26,20.9313a.2389.2389,0,0,1,.0241-.0279l.0393-.0458.0254-.0241c.0077-.0061.0071-.0058-.0059.0159l-.0172.0243a.6316.6316,0,0,1-.041.0506C7.2412,20.9684,7.2526,20.9459,7.26,20.9313Z"/><path class="cls-11" d="M31.6556,12.6474c-.0138-.0448-.0242-.0916-.0385-.1362a10.8521,10.8521,0,0,0-5-6.11A12.2154,12.2154,0,0,0,24.3541,5.392c-.2907-.0969-.5875-.1844-.8875-.2626-.347-.0906-.7-.1656-1.0595-.2281-.2469-.0437-.5-.0812-.7532-.1125a.3862.3862,0,0,0-.0593-.0062c-.1876-.0219-.372-.0375-.5626-.0532-.3844-.0312-.775-.0469-1.1688-.0469-.0376,0-.0688,0-.1063.0032-.2188.0031-.4406.0094-.6563.025-.2094.0093-.4188.0281-.625.05L18.41,4.77c-.3187.0343-.6313.0843-.9407.1468-.2718.05-.5406.1126-.8062.1844a11.1892,11.1892,0,0,0-1.2.3844,12.0765,12.0765,0,0,0-2.097,1.0282l-.041.0264C21.2869,5.404,26.7031,8.3755,31.6556,12.6474Z"/><path class="cls-12" d="M40.3392,13.3348a1.84,1.84,0,1,1-1.84-1.84A1.84,1.84,0,0,1,40.3392,13.3348Z"/><path class="cls-13" d="M31.978,4.1886a31.6054,31.6054,0,0,0,2.305,4.8608,10.9245,10.9245,0,0,0,3.3456,3.5211c.0771.0183.1522.0421.2306.0563-1.5731-2.0979-.7355-5.1363-1.6236-7.6035a7.0836,7.0836,0,0,0-3.6845-3.822A13.9435,13.9435,0,0,0,27.27.026a15.6734,15.6734,0,0,0-5.07.46C20.8818.8707,19.782,1.655,18.5172,2.15a27.5673,27.5673,0,0,1,9.0511,2.9463,17.4541,17.4541,0,0,1,3.6185,2.12c.0818.0673.16.1385.2392.2084A6.073,6.073,0,0,1,31.978,4.1886Z"/><path class="cls-14" d="M21.5945.695c-.851.3927-2.1957,1.11-3.0773,1.4551a27.5673,27.5673,0,0,1,9.0511,2.9463,17.4541,17.4541,0,0,1,3.6185,2.12c.0818.0673.16.1385.2392.2084-.0088-.093-.0129-.1863-.0178-.28A16.3443,16.3443,0,0,0,21.5945.695Z"/><path class="cls-14" d="M34.2042,10.369a7.3068,7.3068,0,0,0,3.4244,2.2015A10.9245,10.9245,0,0,1,34.283,9.0494a31.6054,31.6054,0,0,1-2.305-4.8608,6.073,6.073,0,0,0-.552,3.2359C32.4379,8.3145,33.2668,9.3974,34.2042,10.369Z"/><path class="cls-15" d="M24.84,7.0676A16.5173,16.5173,0,0,1,32.1173,13.99c1.4678-1.8738,1.9593-5.27.2029-7.0433a19.2014,19.2014,0,0,0-6.9964-4.4754c-2.89-1.0632-6.7182-2.034-9.3126.1431a4.1788,4.1788,0,0,0-1.105,1.4273,5.9651,5.9651,0,0,0-.3977,1.8969A5.6469,5.6469,0,0,1,16.5158,5.49a16.5835,16.5835,0,0,1,6.8663.9623Q24.1255,6.7239,24.84,7.0676Z"/><path class="cls-12" d="M32.32,6.947c-.1-.1014-.207-.1964-.31-.2954a5.1567,5.1567,0,0,1,.5176,4.9521,15.93,15.93,0,0,1-.9135,1.5346c.1754.2793.3449.5624.5027.8521C33.5851,12.1165,34.0766,8.7206,32.32,6.947Z"/></g></g></g></g></g></g></svg>