<svg xmlns="http://www.w3.org/2000/svg" width="26.1216" height="39.1451" viewBox="0 0 26.1216 39.1451"><defs><style>.cls-1{isolation:isolate;}.cls-16,.cls-2,.cls-7{mix-blend-mode:multiply;}.cls-3{fill:#6baea8;}.cls-4{fill:#fb4751;}.cls-5{fill:#00beb9;}.cls-6{fill:#efddaf;}.cls-7{fill:#999;opacity:0.41;}.cls-8{fill:#7b2d10;}.cls-9{fill:#e8d5a8;}.cls-10{fill:none;stroke:#e8d5a8;stroke-linecap:round;stroke-miterlimit:10;stroke-width:0.2617px;}.cls-11{fill:#f08b88;}.cls-12{fill:#3a9c92;}.cls-13{fill:#2f292b;}.cls-14{fill:#fff;}.cls-15{fill:#eb3a30;}.cls-16{fill:#bdbdbd;opacity:0.63;}</style></defs><g class="cls-1"><g id="Layer_2" data-name="Layer 2"><g id="Layer_1-2" data-name="Layer 1"><g id="New_Symbol" data-name="New Symbol" class="cls-2"><g id="New_Symbol_10" data-name="New Symbol 10"><g id="New_Symbol_12" data-name="New Symbol 12"><path class="cls-3" d="M7.8519,34.7973a.1929.1929,0,0,0,.0287.2826c.1143.0709.2127-.0212.2619-.1017q.5639-.93,1.1009-1.877l.0357-.0613a2.0718,2.0718,0,0,1-.1781-.11Q8.46,33.8525,7.8519,34.7973Z"/><path class="cls-3" d="M8.8688,35.1437c-.036.1071-.0507.2575.0714.31a.1836.1836,0,0,0,.2068-.0571A.4418.4418,0,0,0,9.2205,35.2c.1064-.516.4663-1.9334.4857-2.0329l-.2123-.0483Q9.1992,34.1364,8.8688,35.1437Z"/><path class="cls-3" d="M10.3786,33.2918l-.2719-.0569c.0013.0061-.02.1054-.0538.26l-.1344.59c-.1049.4524-.2286.9725-.3028,1.2551a.4719.4719,0,0,0-.0222.207.1524.1524,0,0,0,.136.1321.2093.2093,0,0,0,.1506-.1081,2.0238,2.0238,0,0,0,.27-.85Z"/><path class="cls-3" d="M10.3949,35.5906c-.0175.0934-.0119.2234.0832.2434s.1535-.0976.1741-.19l.4771-2.1232.0164-.0689-.3356-.0687Z"/><path class="cls-3" d="M10.9949,35.578c-.027.11-.0342.26.0765.3026a.1741.1741,0,0,0,.192-.07.451.451,0,0,0,.0637-.1992c.0823-.52.3778-1.9523.3933-2.0525l-.2311-.0407Z"/><path class="cls-3" d="M12.2445,33.6353l-.2411-.0321c.0014.006-.0133.1064-.0381.2625s-.0607.3678-.0985.597c-.0777.4579-.1724.9839-.2326,1.27a.4277.4277,0,0,0-.0088.2082.1714.1714,0,0,0,.1647.1254.214.214,0,0,0,.1557-.1172,1.8281,1.8281,0,0,0,.1984-.8715Z"/><path class="cls-3" d="M12.5144,35.9164c-.0047.0952.0227.2233.1335.2288s.1515-.1191.1569-.214l.113-2.1733.004-.0707-.1467-.0062c-.0731-.0025-.1486-.0087-.1486-.0087Z"/><path class="cls-3" d="M13.1633,35.8042c-.0052.1131.02.2611.1537.2785a.1943.1943,0,0,0,.1935-.1121.4034.4034,0,0,0,.0181-.2092c-.0418-.5252-.1028-1.9863-.1154-2.087l-.0961.0078-.0992.0032Q13.2105,34.7443,13.1633,35.8042Z"/><path class="cls-3" d="M13.8615,33.613s-.22.04-.2149.0358c.0026.0055.0172.1058.0382.2625l.0761.6c.056.461.1119.9926.1312,1.2844a.3772.3772,0,0,0,.0524.202.197.197,0,0,0,.2141.071.216.216,0,0,0,.1217-.1608,1.7708,1.7708,0,0,0-.0749-.89Q14.0269,34.3174,13.8615,33.613Z"/><path class="cls-3" d="M14.6177,35.71c.0144.0939.0652.2145.1644.2006s.1124-.1435.1-.238l-.2681-2.16-.0077-.07-.3325.0473Z"/><path class="cls-3" d="M15.211,35.4348c.0153.1122.0641.2537.1718.2554a.1526.1526,0,0,0,.1353-.1291.5122.5122,0,0,0-.011-.2086c-.1016-.5171-.304-1.9656-.32-2.0656l-.2652.0486Z"/><path class="cls-3" d="M15.896,33.2251c.01-.0049-.309.0182-.309.0182.0032.0054.0112.1066.0216.2643l.0367.6039c.0247.4637.0531.9974.0686,1.2891a.5292.5292,0,0,0,.0358.205c.029.0626.0927.1088.1472.0908.05-.0177.08-.0823.1033-.1416a2.0567,2.0567,0,0,0,.042-.888Z"/><path class="cls-3" d="M16.3428,35.3985c.0023.0951.0328.2219.1236.2238s.1219-.1237.1244-.2188l.0608-2.1745.0033-.0707-.3678-.0065Z"/><path class="cls-3" d="M16.9169,35.1491c-.01.1126.0032.2619.1085.2882a.157.157,0,0,0,.1647-.0951.4959.4959,0,0,0,.0369-.2057c.0181-.5266.1457-1.9838.1517-2.085l-.2625-.0117Z"/><path class="cls-3" d="M17.921,33.0078l-.2834.0035c.0025.0057.0018.1071-.0011.2652s-.009.3728-.0146.605c-.0129.4645-.0307.9991-.0468,1.2911a.4726.4726,0,0,0,.0192.2069.1468.1468,0,0,0,.1574.0994.2131.2131,0,0,0,.1233-.1385,2.0964,2.0964,0,0,0,.0992-.8891Z"/><path class="cls-4" d="M19.3732,28.36c-.0131.0823-.0292.1675-.0423.25-.0125.07-.0279.1409-.04.2114-.02.1027-.04.2055-.0631.3081l-.0034.0087c-.0947.4665-.2071.9322-.3372,1.3939-.0215.0731-.04.1492-.0646.2221q-.0865.3024-.1813.5955c-.0249.0818-.0528.1633-.08.242q-.2672.8-.6014,1.5762a18.2726,18.2726,0,0,1-9.38.489,7.1537,7.1537,0,0,0,.9185-1.75c.0408-.1047.0788-.21.1138-.3174a11.7843,11.7843,0,0,0,.5163-2.8226q.015-.2082.0211-.4169c.0381-.8132.02-1.6323-.0224-2.4289C9.77,19.3187,7.99,18.5172,7.4118,18.4613a5.8812,5.8812,0,0,1,4.4288-.6475c.2519.06.5037.1233.756.1746a3.8374,3.8374,0,0,0,1.3237.0847,6.6558,6.6558,0,0,1,1.959-.1677,4.1765,4.1765,0,0,1,2.9543,2.31,8.9254,8.9254,0,0,1,.8257,3.7769A20.9842,20.9842,0,0,1,19.3732,28.36Z"/><path class="cls-5" d="M10.2649,28.631a.557.557,0,0,1-.0538.184.0272.0272,0,0,1-.0507.0063.41.41,0,0,1-.0328-.055q.015-.2082.0211-.4169a.03.03,0,0,1,.041.011.5143.5143,0,0,1,.0685.17A.556.556,0,0,1,10.2649,28.631Z"/><path class="cls-5" d="M10.2966,28.8492a.4486.4486,0,0,0,.13-.1287.4538.4538,0,0,0,.0426-.0905.5509.5509,0,0,0,.0212-.192c-.0016-.0278-.0234-.0408-.0448-.0265a.42.42,0,0,0-.1724.22.5331.5331,0,0,0-.0226.1916C10.2523,28.8507,10.2747,28.8636,10.2966,28.8492Z"/><path class="cls-5" d="M10.4989,29.3085a.4431.4431,0,0,1-.0764-.1689.452.452,0,0,1-.007-.1007.5337.5337,0,0,1,.05-.1861.0284.0284,0,0,1,.0521-.0067.4781.4781,0,0,1,.0755.1674.4431.4431,0,0,1,.0078.1.5234.5234,0,0,1-.0488.1869A.0294.0294,0,0,1,10.4989,29.3085Z"/><path class="cls-5" d="M10.64,29.3318a.4651.4651,0,0,0,.13-.1326.4515.4515,0,0,0,.0413-.0918.535.535,0,0,0,.0172-.1921c-.0023-.0277-.025-.04-.0465-.0248a.4811.4811,0,0,0-.1289.1328.4639.4639,0,0,0-.0419.0917.5243.5243,0,0,0-.0186.1918A.0292.0292,0,0,0,10.64,29.3318Z"/><path class="cls-5" d="M10.9878,28.972a.4057.4057,0,0,1-.0863-.2667.55.55,0,0,1,.046-.1875c.0112-.0254.0362-.03.0512-.0088a.4783.4783,0,0,1,.0765.1672.4693.4693,0,0,1,.0093.1.539.539,0,0,1-.0447.1875A.0285.0285,0,0,1,10.9878,28.972Z"/><path class="cls-5" d="M11.1258,28.995a.4487.4487,0,0,0,.1252-.1331A.4716.4716,0,0,0,11.29,28.77a.5433.5433,0,0,0,.0134-.1925c-.0027-.0278-.0249-.04-.0457-.025a.4662.4662,0,0,0-.1238.1339.4449.4449,0,0,0-.04.0919.5329.5329,0,0,0-.0151.1925C11.0817,28.998,11.1046,29.01,11.1258,28.995Z"/><path class="cls-5" d="M11.4616,28.6273a.4521.4521,0,0,1-.0793-.1637.4629.4629,0,0,1-.01-.0993.5573.5573,0,0,1,.0424-.1885c.01-.026.035-.031.05-.0106a.4218.4218,0,0,1,.0889.2632.5525.5525,0,0,1-.0409.1886C11.5022,28.6429,11.4772,28.6478,11.4616,28.6273Z"/><path class="cls-5" d="M11.5976,28.6451a.4566.4566,0,0,0,.1208-.1375.4669.4669,0,0,0,.0367-.0932.56.56,0,0,0,.01-.1927c-.0032-.0277-.0255-.039-.0455-.0231a.4254.4254,0,0,0-.1569.2311.546.546,0,0,0-.0117.1924C11.5543,28.65,11.5772,28.6609,11.5976,28.6451Z"/><path class="cls-5" d="M11.9207,28.2726a.4622.4622,0,0,1-.08-.1641.4783.4783,0,0,1-.0117-.1.5718.5718,0,0,1,.0383-.1892c.01-.0256.0337-.0308.0488-.01a.4793.4793,0,0,1,.079.1639.47.47,0,0,1,.0123.1.5508.5508,0,0,1-.0368.1889C11.9606,28.2879,11.9363,28.2929,11.9207,28.2726Z"/><path class="cls-6" d="M10.0933,29.8927a.4494.4494,0,0,0,.1352-.1278.4377.4377,0,0,0,.0439-.09.5252.5252,0,0,0,.02-.1921c-.0019-.0279-.0249-.0411-.0472-.027a.4738.4738,0,0,0-.1343.1284.4482.4482,0,0,0-.0444.09.511.511,0,0,0-.0219.1917A.03.03,0,0,0,10.0933,29.8927Z"/><path class="cls-6" d="M10.3092,30.3546a.445.445,0,0,1-.0813-.17.4265.4265,0,0,1-.0082-.1009.5047.5047,0,0,1,.0507-.1859.03.03,0,0,1,.0545-.0063.4779.4779,0,0,1,.0805.1683.419.419,0,0,1,.0091.1.5006.5006,0,0,1-.05.1867A.0314.0314,0,0,1,10.3092,30.3546Z"/><path class="cls-6" d="M10.4569,30.3791a.4663.4663,0,0,0,.1351-.1318.436.436,0,0,0,.0425-.0916.5087.5087,0,0,0,.0165-.1922.03.03,0,0,0-.049-.0252.4766.4766,0,0,0-.1339.132.4369.4369,0,0,0-.0432.0914.4993.4993,0,0,0-.0178.192A.0309.0309,0,0,0,10.4569,30.3791Z"/><path class="cls-6" d="M10.8188,30.0216a.4584.4584,0,0,1-.0829-.1677.4421.4421,0,0,1-.01-.1.5241.5241,0,0,1,.0467-.1873.03.03,0,0,1,.0537-.0085.48.48,0,0,1,.0815.1681.4415.4415,0,0,1,.0106.1.5129.5129,0,0,1-.0455.1874A.03.03,0,0,1,10.8188,30.0216Z"/><path class="cls-6" d="M10.9637,30.0457a.4506.4506,0,0,0,.13-.1324.4428.4428,0,0,0,.04-.0921.5169.5169,0,0,0,.0128-.1926c-.0031-.0278-.0265-.04-.0481-.0254a.4654.4654,0,0,0-.129.1331.43.43,0,0,0-.0408.0918.5109.5109,0,0,0-.0144.1925A.0305.0305,0,0,0,10.9637,30.0457Z"/><path class="cls-6" d="M11.3133,29.68a.3978.3978,0,0,1-.0959-.2639.5313.5313,0,0,1,.0431-.1884.0292.0292,0,0,1,.0525-.01.4684.4684,0,0,1,.0831.1644.443.443,0,0,1,.0121.1.5236.5236,0,0,1-.0416.1886A.03.03,0,0,1,11.3133,29.68Z"/><path class="cls-6" d="M11.4561,29.6987a.456.456,0,0,0,.1258-.1368.4386.4386,0,0,0,.0379-.093.5312.5312,0,0,0,.01-.1928c-.0036-.0278-.027-.0392-.0479-.0235a.4728.4728,0,0,0-.1247.1372.4476.4476,0,0,0-.0385.0931.5186.5186,0,0,0-.0109.1925A.03.03,0,0,0,11.4561,29.6987Z"/><path class="cls-6" d="M11.7929,29.328a.4628.4628,0,0,1-.0853-.1647.4556.4556,0,0,1-.0129-.1.54.54,0,0,1,.0391-.1891c.01-.0256.0352-.0306.0512-.01a.4787.4787,0,0,1,.084.1645.4478.4478,0,0,1,.0136.1.5282.5282,0,0,1-.0375.1889A.029.029,0,0,1,11.7929,29.328Z"/><path class="cls-5" d="M9.89,30.9362a.4557.4557,0,0,0,.14-.1268.4235.4235,0,0,0,.0451-.09.5021.5021,0,0,0,.02-.1923.0316.0316,0,0,0-.05-.0274.4755.4755,0,0,0-.1394.1274.4349.4349,0,0,0-.0456.09.4877.4877,0,0,0-.0212.1919A.0323.0323,0,0,0,9.89,30.9362Z"/><path class="cls-5" d="M10.12,31.4007a.4465.4465,0,0,1-.0865-.1709.4142.4142,0,0,1-.01-.1011.4892.4892,0,0,1,.0515-.1858.032.032,0,0,1,.057-.0058.48.48,0,0,1,.0856.1692.4118.4118,0,0,1,.01.1.48.48,0,0,1-.05.1866A.0332.0332,0,0,1,10.12,31.4007Z"/><path class="cls-5" d="M10.2742,31.4264a.4715.4715,0,0,0,.14-.1309.4169.4169,0,0,0,.0436-.0914.4872.4872,0,0,0,.0158-.1923.0322.0322,0,0,0-.0514-.0257.4813.4813,0,0,0-.139.1311.4252.4252,0,0,0-.0444.0912.4784.4784,0,0,0-.0171.1921A.0329.0329,0,0,0,10.2742,31.4264Z"/><path class="cls-5" d="M10.65,31.0712a.46.46,0,0,1-.0881-.1686.4273.4273,0,0,1-.0108-.1.4991.4991,0,0,1,.0475-.1872.0315.0315,0,0,1,.056-.0081.48.48,0,0,1,.0867.1689.4224.4224,0,0,1,.0117.1005.4929.4929,0,0,1-.0461.1873A.0322.0322,0,0,1,10.65,31.0712Z"/><path class="cls-5" d="M10.8015,31.0963a.4511.4511,0,0,0,.1354-.1316.4275.4275,0,0,0,.0413-.0919A.4946.4946,0,0,0,10.99,30.68a.0318.0318,0,0,0-.0507-.0257.467.467,0,0,0-.134.1323.4161.4161,0,0,0-.0421.0916.4888.4888,0,0,0-.0136.1926A.0323.0323,0,0,0,10.8015,31.0963Z"/><path class="cls-5" d="M11.1649,30.7327a.4509.4509,0,0,1-.0895-.1651.4344.4344,0,0,1-.0127-.1.506.506,0,0,1,.0439-.1883.0309.0309,0,0,1,.0549-.01.4693.4693,0,0,1,.0882.1651.4291.4291,0,0,1,.0133.1.4984.4984,0,0,1-.0424.1884A.0315.0315,0,0,1,11.1649,30.7327Z"/><path class="cls-5" d="M11.3145,30.7524a.4593.4593,0,0,0,.1309-.1361.4239.4239,0,0,0,.0392-.0929.5076.5076,0,0,0,.0088-.1929.0308.0308,0,0,0-.05-.0238.4751.4751,0,0,0-.13.1365.4391.4391,0,0,0-.04.0929.4966.4966,0,0,0-.01.1926A.0314.0314,0,0,0,11.3145,30.7524Z"/><path class="cls-5" d="M11.6651,30.3834a.462.462,0,0,1-.09-.1654.4347.4347,0,0,1-.0142-.1.5158.5158,0,0,1,.04-.189.03.03,0,0,1,.0537-.01.4787.4787,0,0,1,.0891.1651.44.44,0,0,1,.0148.1.5027.5027,0,0,1-.0383.1888A.0307.0307,0,0,1,11.6651,30.3834Z"/><path class="cls-6" d="M9.6414,31.7565a.4577.4577,0,0,1-.054.187.0348.0348,0,0,1-.0595.0058l-.03-.043c.0408-.1047.0788-.21.1138-.3174.0078.0212.0157.0423.0234.0664A.4067.4067,0,0,1,9.6414,31.7565Z"/><path class="cls-6" d="M9.6866,31.98a.4566.4566,0,0,0,.1454-.1259.4082.4082,0,0,0,.0464-.09.4811.4811,0,0,0,.0189-.1924.0336.0336,0,0,0-.0521-.028.479.479,0,0,0-.1445.1265.4216.4216,0,0,0-.0469.09.4692.4692,0,0,0-.02.192A.0342.0342,0,0,0,9.6866,31.98Z"/><path class="cls-6" d="M9.93,32.4467a.4523.4523,0,0,1-.0916-.1717.3992.3992,0,0,1-.0106-.1014.4678.4678,0,0,1,.0521-.1857.034.034,0,0,1,.0595-.0053.483.483,0,0,1,.0907.17.4062.4062,0,0,1,.0116.1006.4622.4622,0,0,1-.0511.1864A.0351.0351,0,0,1,9.93,32.4467Z"/><path class="cls-6" d="M10.0915,32.4737a.4709.4709,0,0,0,.1451-.13.3982.3982,0,0,0,.045-.0911.4678.4678,0,0,0,.0151-.1925.0341.0341,0,0,0-.0539-.026.4826.4826,0,0,0-.1441.13.4131.4131,0,0,0-.0456.0911.4612.4612,0,0,0-.0165.1922A.035.035,0,0,0,10.0915,32.4737Z"/><path class="cls-6" d="M10.4808,32.1208a.4622.4622,0,0,1-.0931-.1694.4114.4114,0,0,1-.0122-.1005.4794.4794,0,0,1,.0483-.187.0335.0335,0,0,1,.0585-.0077.482.482,0,0,1,.0918.17.4059.4059,0,0,1,.0129.1007.4681.4681,0,0,1-.0469.1871A.034.034,0,0,1,10.4808,32.1208Z"/><path class="cls-6" d="M10.6393,32.147a.454.454,0,0,0,.1406-.1308.4165.4165,0,0,0,.0425-.0918.474.474,0,0,0,.0114-.1927.0337.0337,0,0,0-.0531-.0262.4682.4682,0,0,0-.1391.1316.4006.4006,0,0,0-.0434.0913.4676.4676,0,0,0-.0128.1928A.0341.0341,0,0,0,10.6393,32.147Z"/><path class="cls-6" d="M11.0165,31.7854a.4549.4549,0,0,1-.0946-.1658.4171.4171,0,0,1-.0139-.1.4864.4864,0,0,1,.0446-.1882.0328.0328,0,0,1,.0574-.0095.4683.4683,0,0,1,.0932.1658.4166.4166,0,0,1,.0146.1.4776.4776,0,0,1-.0431.1883A.0334.0334,0,0,1,11.0165,31.7854Z"/><path class="cls-6" d="M11.173,31.806a.46.46,0,0,0,.1359-.1354.4115.4115,0,0,0,.04-.0928.4882.4882,0,0,0,.0081-.193.0328.0328,0,0,0-.0529-.0241.4788.4788,0,0,0-.1348.1358.4179.4179,0,0,0-.0409.0928.4742.4742,0,0,0-.0095.1927A.0332.0332,0,0,0,11.173,31.806Z"/><path class="cls-6" d="M11.5373,31.4388a.4652.4652,0,0,1-.0954-.166.4226.4226,0,0,1-.0154-.1.4915.4915,0,0,1,.0406-.1889.0317.0317,0,0,1,.056-.0094.479.479,0,0,1,.0942.1658.4151.4151,0,0,1,.016.1.4778.4778,0,0,1-.039.1887A.0325.0325,0,0,1,11.5373,31.4388Z"/><path class="cls-5" d="M12.3407,28.3181a.4138.4138,0,0,0,.1471-.2363.5655.5655,0,0,0,.0042-.1931c-.0039-.0272-.0261-.0376-.0453-.0211a.4765.4765,0,0,0-.1129.1419.4664.4664,0,0,0-.0338.0944.5521.5521,0,0,0-.0055.1925C12.2984,28.3239,12.3211,28.3344,12.3407,28.3181Z"/><path class="cls-5" d="M12.5742,28.7543a.4647.4647,0,0,1-.0878-.1613.4768.4768,0,0,1-.0153-.0992.5558.5558,0,0,1,.0323-.19c.0091-.0264.0333-.0323.0493-.0123a.4816.4816,0,0,1,.0865.1615.4637.4637,0,0,1,.0161.0993.5428.5428,0,0,1-.0308.19C12.6155,28.7687,12.5907,28.7744,12.5742,28.7543Z"/><path class="cls-5" d="M12.7109,28.7678a.42.42,0,0,0,.1452-.24.555.555,0,0,0,0-.1928c-.0046-.0274-.0274-.0371-.0468-.02a.499.499,0,0,0-.1122.1438.4658.4658,0,0,0-.0322.0945.546.546,0,0,0-.0016.1931C12.6679,28.7738,12.6912,28.7843,12.7109,28.7678Z"/><path class="cls-5" d="M12.9585,29.1969a.449.449,0,0,1-.093-.1581.4669.4669,0,0,1-.0178-.0985.5462.5462,0,0,1,.0289-.191c.0087-.0264.0332-.0333.05-.014a.4738.4738,0,0,1,.0916.1586.4557.4557,0,0,1,.0185.0986.5312.5312,0,0,1-.0274.1909C13.0008,29.21,12.9757,29.2164,12.9585,29.1969Z"/><path class="cls-5" d="M13.0982,29.2058a.4543.4543,0,0,0,.1124-.1451.4655.4655,0,0,0,.03-.0954.551.551,0,0,0-.0042-.193c-.0052-.0274-.0285-.0373-.0479-.02a.4215.4215,0,0,0-.1424.2411.5346.5346,0,0,0,.0027.1929C13.0544,29.2132,13.0783,29.2229,13.0982,29.2058Z"/><path class="cls-5" d="M13.3589,29.6352a.47.47,0,0,1-.0977-.1587.441.441,0,0,1-.02-.0988.5316.5316,0,0,1,.0253-.1911c.0083-.0264.0332-.0332.0508-.0136a.4847.4847,0,0,1,.0966.1583.4385.4385,0,0,1,.0208.098.5221.5221,0,0,1-.0241.1916A.029.029,0,0,1,13.3589,29.6352Z"/><path class="cls-5" d="M13.5016,29.6406a.4688.4688,0,0,0,.1116-.1489.4507.4507,0,0,0,.029-.0964.5357.5357,0,0,0-.0079-.1927c-.006-.0271-.03-.0361-.05-.0183a.4819.4819,0,0,0-.1105.1488.4606.4606,0,0,0-.03.0965.5219.5219,0,0,0,.0065.1925A.0293.0293,0,0,0,13.5016,29.6406Z"/><path class="cls-5" d="M13.8,29.2375a.4557.4557,0,0,1-.099-.155.4492.4492,0,0,1-.0214-.0978.549.549,0,0,1,.0212-.1919c.0077-.0267.032-.0344.05-.0156a.4758.4758,0,0,1,.0978.1554.46.46,0,0,1,.0223.098.5384.5384,0,0,1-.02.1918A.0286.0286,0,0,1,13.8,29.2375Z"/><path class="cls-5" d="M13.94,29.2418a.45.45,0,0,0,.1069-.1487.4648.4648,0,0,0,.0266-.0964.544.544,0,0,0-.0115-.1928c-.0064-.0272-.03-.0363-.0487-.0187a.4684.4684,0,0,0-.1056.1493.4534.4534,0,0,0-.0273.0964.5364.5364,0,0,0,.01.1927C13.8967,29.2506,13.921,29.26,13.94,29.2418Z"/><path class="cls-5" d="M14.2255,28.8351a.4392.4392,0,0,1-.1-.1522.4788.4788,0,0,1-.0231-.098.5546.5546,0,0,1,.0175-.1919c.007-.0269.0307-.0341.0483-.0162a.4631.4631,0,0,1,.0987.1518.4543.4543,0,0,1,.0238.0972.5478.5478,0,0,1-.016.1924C14.2677,28.8452,14.2436,28.8535,14.2255,28.8351Z"/><path class="cls-5" d="M14.3628,28.8346a.4589.4589,0,0,0,.1019-.1523.4531.4531,0,0,0,.0243-.0973.5548.5548,0,0,0-.0148-.1923c-.0068-.0271-.03-.0352-.0482-.0169a.4262.4262,0,0,0-.1256.25.5425.5425,0,0,0,.0134.1922C14.32,28.845,14.3445,28.8531,14.3628,28.8346Z"/><path class="cls-5" d="M14.635,28.4224a.4195.4195,0,0,1-.1254-.2491.5656.5656,0,0,1,.0135-.1927c.0064-.0267.0293-.0349.0471-.0167a.4774.4774,0,0,1,.1.1519.4678.4678,0,0,1,.0251.0971.5493.5493,0,0,1-.0119.1922C14.6766,28.4322,14.6531,28.44,14.635,28.4224Z"/><path class="cls-6" d="M12.2344,29.3759a.4583.4583,0,0,0,.1192-.1414.4386.4386,0,0,0,.0342-.0943.5366.5366,0,0,0,.0034-.1932c-.0042-.0272-.0275-.0377-.0477-.0213a.4734.4734,0,0,0-.118.1413.4476.4476,0,0,0-.035.0943.5291.5291,0,0,0-.0048.1926A.0291.0291,0,0,0,12.2344,29.3759Z"/><path class="cls-6" d="M12.4816,29.8134a.4669.4669,0,0,1-.0929-.1618.461.461,0,0,1-.0165-.0993.5263.5263,0,0,1,.0331-.19.0288.0288,0,0,1,.0517-.012.4832.4832,0,0,1,.0916.1619.45.45,0,0,1,.0172.0994.5188.5188,0,0,1-.0314.19A.03.03,0,0,1,12.4816,29.8134Z"/><path class="cls-6" d="M12.6252,29.8274a.4619.4619,0,0,0,.1184-.1445.4538.4538,0,0,0,.0331-.0953.5288.5288,0,0,0-.0008-.1928.0288.0288,0,0,0-.0492-.02.4993.4993,0,0,0-.1173.1433.4532.4532,0,0,0-.0334.0945.517.517,0,0,0-.0008.1932A.03.03,0,0,0,12.6252,29.8274Z"/><path class="cls-6" d="M12.8864,30.2575a.3969.3969,0,0,1-.117-.257.5215.5215,0,0,1,.03-.1909.03.03,0,0,1,.0526-.0138.4709.4709,0,0,1,.0967.1589.4354.4354,0,0,1,.02.0986.5069.5069,0,0,1-.0281.191A.03.03,0,0,1,12.8864,30.2575Z"/><path class="cls-6" d="M13.033,30.2669a.4531.4531,0,0,0,.1174-.1448.4393.4393,0,0,0,.0318-.0953.5286.5286,0,0,0-.0049-.1931.03.03,0,0,0-.05-.02.4766.4766,0,0,0-.1164.1453.4582.4582,0,0,0-.0323.0954.5108.5108,0,0,0,.0034.1929A.03.03,0,0,0,13.033,30.2669Z"/><path class="cls-6" d="M13.3074,30.6971a.4713.4713,0,0,1-.1028-.159.4268.4268,0,0,1-.0214-.0989.51.51,0,0,1,.0261-.191.03.03,0,0,1,.0533-.0135.4827.4827,0,0,1,.1016.1586.43.43,0,0,1,.0222.098.5015.5015,0,0,1-.0249.1916A.0308.0308,0,0,1,13.3074,30.6971Z"/><path class="cls-6" d="M13.4569,30.7027a.4684.4684,0,0,0,.1168-.1486.4368.4368,0,0,0,.03-.0964.51.51,0,0,0-.0086-.1927.03.03,0,0,0-.0519-.0184.4812.4812,0,0,0-.1156.1486.45.45,0,0,0-.0309.0964.4992.4992,0,0,0,.0074.1926A.0309.0309,0,0,0,13.4569,30.7027Z"/><path class="cls-6" d="M13.7692,30.3a.4541.4541,0,0,1-.1041-.1551.4354.4354,0,0,1-.0227-.0979.5236.5236,0,0,1,.022-.1918.03.03,0,0,1,.0521-.0156.4773.4773,0,0,1,.1028.1557.4426.4426,0,0,1,.0235.0979.5142.5142,0,0,1-.0207.1918A.03.03,0,0,1,13.7692,30.3Z"/><path class="cls-6" d="M13.9159,30.3046a.45.45,0,0,0,.112-.1486.443.443,0,0,0,.0278-.0963.522.522,0,0,0-.0123-.1929.03.03,0,0,0-.0511-.0187.4676.4676,0,0,0-.1106.1492.4314.4314,0,0,0-.0286.0963.5088.5088,0,0,0,.0109.1928A.03.03,0,0,0,13.9159,30.3046Z"/><path class="cls-6" d="M14.2151,29.8982a.4413.4413,0,0,1-.1051-.1523.4563.4563,0,0,1-.0243-.098.5267.5267,0,0,1,.0183-.1919.0292.0292,0,0,1,.0508-.0162.4674.4674,0,0,1,.1038.1519.45.45,0,0,1,.0249.0972.5231.5231,0,0,1-.0168.1924A.03.03,0,0,1,14.2151,29.8982Z"/><path class="cls-6" d="M14.3592,29.8978a.4612.4612,0,0,0,.107-.1524.4385.4385,0,0,0,.0255-.0973.5271.5271,0,0,0-.0155-.1923c-.0071-.0271-.0318-.0352-.0506-.0169a.477.477,0,0,0-.1059.1526.4528.4528,0,0,0-.026.0974.516.516,0,0,0,.0141.1922A.03.03,0,0,0,14.3592,29.8978Z"/><path class="cls-6" d="M14.6451,29.4854a.46.46,0,0,1-.1059-.1519.45.45,0,0,1-.0258-.0971.5416.5416,0,0,1,.0142-.1927c.0068-.0267.031-.0349.05-.0167a.4759.4759,0,0,1,.1048.1518.447.447,0,0,1,.0263.0972.5246.5246,0,0,1-.0126.1922A.0291.0291,0,0,1,14.6451,29.4854Z"/><path class="cls-5" d="M12.1281,30.4337a.4585.4585,0,0,0,.1242-.1409.4112.4112,0,0,0,.0354-.0942.5113.5113,0,0,0,.0028-.1933.03.03,0,0,0-.05-.0215.4712.4712,0,0,0-.123.1408.4335.4335,0,0,0-.0363.0941.506.506,0,0,0-.0041.1927A.031.031,0,0,0,12.1281,30.4337Z"/><path class="cls-5" d="M12.389,30.8724a.4668.4668,0,0,1-.098-.1622.4459.4459,0,0,1-.0178-.0994.507.507,0,0,1,.0339-.19.0306.0306,0,0,1,.0542-.0118.4818.4818,0,0,1,.0966.1623.43.43,0,0,1,.0185.0995.4959.4959,0,0,1-.0321.19A.0313.0313,0,0,1,12.389,30.8724Z"/><path class="cls-5" d="M12.5394,30.887a.462.462,0,0,0,.1235-.144.4315.4315,0,0,0,.0343-.0952.5061.5061,0,0,0-.0014-.1929.0306.0306,0,0,0-.0517-.02.4991.4991,0,0,0-.1224.1429.432.432,0,0,0-.0346.0944.4928.4928,0,0,0,0,.1932A.0317.0317,0,0,0,12.5394,30.887Z"/><path class="cls-5" d="M12.8143,31.3182a.4529.4529,0,0,1-.103-.1588.4255.4255,0,0,1-.02-.0987.4984.4984,0,0,1,.03-.1908.0316.0316,0,0,1,.0549-.0137.4737.4737,0,0,1,.1018.1593.4162.4162,0,0,1,.021.0987.4889.4889,0,0,1-.0289.1909A.0322.0322,0,0,1,12.8143,31.3182Z"/><path class="cls-5" d="M12.9679,31.328a.4554.4554,0,0,0,.1223-.1445.4214.4214,0,0,0,.0331-.0952.5033.5033,0,0,0-.0056-.1931.0317.0317,0,0,0-.0529-.0206.4781.4781,0,0,0-.1215.145.4328.4328,0,0,0-.0334.0953.49.49,0,0,0,.004.193A.0324.0324,0,0,0,12.9679,31.328Z"/><path class="cls-5" d="M13.256,31.7589a.4707.4707,0,0,1-.1079-.1592.41.41,0,0,1-.0226-.0989.49.49,0,0,1,.0267-.191.0321.0321,0,0,1,.0558-.0134.4852.4852,0,0,1,.1067.1588.4125.4125,0,0,1,.0233.0981.48.48,0,0,1-.0255.1916A.0325.0325,0,0,1,13.256,31.7589Z"/><path class="cls-5" d="M13.4123,31.7649a.4707.4707,0,0,0,.1217-.1484.4153.4153,0,0,0,.0315-.0964.4878.4878,0,0,0-.0094-.1927.0321.0321,0,0,0-.0543-.0185.4842.4842,0,0,0-.1207.1484.4255.4255,0,0,0-.032.0963.4813.4813,0,0,0,.0079.1927A.0329.0329,0,0,0,13.4123,31.7649Z"/><path class="cls-5" d="M13.7382,31.3628a.4592.4592,0,0,1-.1091-.1553.4182.4182,0,0,1-.0239-.0979.5008.5008,0,0,1,.0227-.1918.0316.0316,0,0,1,.0545-.0155.4768.4768,0,0,1,.1079.1558.423.423,0,0,1,.0247.098.49.49,0,0,1-.0214.1917A.0322.0322,0,0,1,13.7382,31.3628Z"/><path class="cls-5" d="M13.8918,31.3674a.4529.4529,0,0,0,.1171-.1485.4334.4334,0,0,0,.029-.0963.4973.4973,0,0,0-.013-.1928.0318.0318,0,0,0-.0536-.0188.467.467,0,0,0-.1156.149.4165.4165,0,0,0-.03.0964.4894.4894,0,0,0,.0116.1928A.0322.0322,0,0,0,13.8918,31.3674Z"/><path class="cls-5" d="M14.2047,30.9613a.3923.3923,0,0,1-.1357-.25.5054.5054,0,0,1,.019-.1919.031.031,0,0,1,.0533-.0161.466.466,0,0,1,.1088.1519.4309.4309,0,0,1,.0262.0972.5019.5019,0,0,1-.0175.1923A.0316.0316,0,0,1,14.2047,30.9613Z"/><path class="cls-5" d="M14.3556,30.9608a.46.46,0,0,0,.1121-.1523.4255.4255,0,0,0,.0268-.0973.508.508,0,0,0-.0163-.1923.0308.0308,0,0,0-.0531-.0169.48.48,0,0,0-.1109.1526.4449.4449,0,0,0-.0273.0973.4943.4943,0,0,0,.0149.1923A.0312.0312,0,0,0,14.3556,30.9608Z"/><path class="cls-5" d="M14.6552,30.5485a.4641.4641,0,0,1-.111-.1519.441.441,0,0,1-.027-.0971.5172.5172,0,0,1,.015-.1927.03.03,0,0,1,.0519-.0167.4753.4753,0,0,1,.11.1518.4376.4376,0,0,1,.0276.0971.5052.5052,0,0,1-.0135.1922A.0308.0308,0,0,1,14.6552,30.5485Z"/><path class="cls-6" d="M12.0217,31.4914a.4609.4609,0,0,0,.1294-.14.4074.4074,0,0,0,.0366-.0941.49.49,0,0,0,.002-.1934.0319.0319,0,0,0-.0526-.0217.4732.4732,0,0,0-.1281.14.4147.4147,0,0,0-.0375.094.4849.4849,0,0,0-.0034.1928A.0328.0328,0,0,0,12.0217,31.4914Z"/><path class="cls-6" d="M12.2964,31.9315a.4684.4684,0,0,1-.1031-.1627.4331.4331,0,0,1-.019-.0995.4856.4856,0,0,1,.0346-.19.0324.0324,0,0,1,.0566-.0116.4841.4841,0,0,1,.1018.1628.4217.4217,0,0,1,.02.1.4773.4773,0,0,1-.0329.19A.0332.0332,0,0,1,12.2964,31.9315Z"/><path class="cls-6" d="M12.4536,31.9467a.4631.4631,0,0,0,.1286-.1437.4134.4134,0,0,0,.0356-.0951.4863.4863,0,0,0-.0022-.1929.0325.0325,0,0,0-.0541-.0206.502.502,0,0,0-.1275.1426.4178.4178,0,0,0-.0358.0943.4747.4747,0,0,0,.0005.1932A.0337.0337,0,0,0,12.4536,31.9467Z"/><path class="cls-6" d="M12.7423,32.3788a.4526.4526,0,0,1-.1081-.1591.4144.4144,0,0,1-.0215-.0988.4759.4759,0,0,1,.0311-.1907.0334.0334,0,0,1,.0573-.0135.4721.4721,0,0,1,.1069.16.4056.4056,0,0,1,.0222.0988.4676.4676,0,0,1-.03.1908A.034.034,0,0,1,12.7423,32.3788Z"/><path class="cls-6" d="M12.9026,32.3891a.4579.4579,0,0,0,.1275-.1442.4052.4052,0,0,0,.0343-.0951.4808.4808,0,0,0-.0064-.1932.0335.0335,0,0,0-.0553-.0207.48.48,0,0,0-.1265.1447.4188.4188,0,0,0-.0347.0952.47.47,0,0,0,.0048.193A.0341.0341,0,0,0,12.9026,32.3891Z"/><path class="cls-6" d="M13.2044,32.8208a.4774.4774,0,0,1-.1129-.16.4.4,0,0,1-.0238-.099.4713.4713,0,0,1,.0274-.191.034.034,0,0,1,.0582-.0132.486.486,0,0,1,.1119.1591.4008.4008,0,0,1,.0245.0981.46.46,0,0,1-.0262.1915A.0345.0345,0,0,1,13.2044,32.8208Z"/><path class="cls-6" d="M13.3677,32.8271a.4741.4741,0,0,0,.1268-.1483.4022.4022,0,0,0,.0326-.0963.4666.4666,0,0,0-.01-.1927.034.034,0,0,0-.0567-.0186.4832.4832,0,0,0-.1258.1482.4186.4186,0,0,0-.0333.0962.46.46,0,0,0,.0088.1927A.0347.0347,0,0,0,13.3677,32.8271Z"/><path class="cls-6" d="M13.7073,32.4255a.4606.4606,0,0,1-.1143-.1555.4115.4115,0,0,1-.025-.098.4822.4822,0,0,1,.0233-.1917.0336.0336,0,0,1,.0571-.0154.4776.4776,0,0,1,.1129.1559.412.412,0,0,1,.026.098.4729.4729,0,0,1-.0222.1918A.0341.0341,0,0,1,13.7073,32.4255Z"/><path class="cls-6" d="M13.8677,32.43a.4563.4563,0,0,0,.1221-.1484.4178.4178,0,0,0,.03-.0963.4738.4738,0,0,0-.0138-.1929.0336.0336,0,0,0-.056-.0188.4714.4714,0,0,0-.1207.1489.409.409,0,0,0-.0311.0963.4678.4678,0,0,0,.0124.1928A.0341.0341,0,0,0,13.8677,32.43Z"/><path class="cls-6" d="M14.1943,32.0243a.4465.4465,0,0,1-.1153-.1524.43.43,0,0,1-.0267-.098.4824.4824,0,0,1,.02-.1919.0327.0327,0,0,1,.0556-.0161.4675.4675,0,0,1,.1139.1519.4184.4184,0,0,1,.0275.0972.48.48,0,0,1-.0183.1924A.0334.0334,0,0,1,14.1943,32.0243Z"/><path class="cls-6" d="M14.3521,32.0239a.4619.4619,0,0,0,.1171-.1523.4087.4087,0,0,0,.028-.0973.485.485,0,0,0-.017-.1923.0326.0326,0,0,0-.0555-.0169.4788.4788,0,0,0-.116.1526.4317.4317,0,0,0-.0286.0973.4776.4776,0,0,0,.0157.1923A.0331.0331,0,0,0,14.3521,32.0239Z"/><path class="cls-6" d="M14.6654,31.6116a.4642.4642,0,0,1-.1161-.1519.4178.4178,0,0,1-.0282-.0971.4915.4915,0,0,1,.0157-.1927.0318.0318,0,0,1,.0544-.0167.4762.4762,0,0,1,.1148.1517.415.415,0,0,1,.0289.0971.4819.4819,0,0,1-.0142.1922A.0326.0326,0,0,1,14.6654,31.6116Z"/><path class="cls-5" d="M15.0578,28.4141a.462.462,0,0,0,.0948-.1558.4529.4529,0,0,0,.0205-.098.5631.5631,0,0,0-.0209-.192c-.0074-.0264-.0307-.0338-.0476-.0148a.4742.4742,0,0,0-.0937.1556.4681.4681,0,0,0-.0213.0981.5532.5532,0,0,0,.02.1915C15.0165,28.4255,15.04,28.4329,15.0578,28.4141Z"/><path class="cls-5" d="M15.3458,28.8154a.4643.4643,0,0,1-.1079-.1482.48.48,0,0,1-.0281-.0963.5569.5569,0,0,1,.0075-.1928c.0056-.0273.0288-.0364.0474-.0187a.483.483,0,0,1,.1067.1485.4693.4693,0,0,1,.0287.0963.5452.5452,0,0,1-.0059.1927C15.3887,28.8241,15.3648,28.8331,15.3458,28.8154Z"/><path class="cls-5" d="M15.4832,28.8105a.4406.4406,0,0,0,.0937-.156.4533.4533,0,0,0,.0193-.0989.553.553,0,0,0-.0249-.191c-.0081-.0267-.0319-.0329-.049-.0143a.4659.4659,0,0,0-.0928.1555.4792.4792,0,0,0-.02.0981.543.543,0,0,0,.0234.1916C15.4413,28.8222,15.4658,28.83,15.4832,28.8105Z"/><path class="cls-5" d="M15.7843,29.2056a.4466.4466,0,0,1-.1126-.1444.4635.4635,0,0,1-.03-.0952.5429.5429,0,0,1,.004-.1931c.0051-.0274.0286-.0375.0478-.0206a.467.467,0,0,1,.1113.145.4394.4394,0,0,1,.0311.0953.5334.5334,0,0,1-.0024.1929C15.828,29.2128,15.804,29.2227,15.7843,29.2056Z"/><path class="cls-5" d="M15.924,29.1959a.4561.4561,0,0,0,.0926-.1588.4607.4607,0,0,0,.018-.0986.5507.5507,0,0,0-.0291-.1908c-.0087-.0265-.0331-.0332-.05-.0137a.48.48,0,0,0-.0915.1591.471.471,0,0,0-.0184.0988.5344.5344,0,0,0,.0275.1908A.0286.0286,0,0,0,15.924,29.1959Z"/><path class="cls-5" d="M16.238,29.5869a.4659.4659,0,0,1-.1175-.1443.4431.4431,0,0,1-.0326-.0953.535.535,0,0,1,0-.1928c.0049-.0273.0288-.0373.0487-.02a.4782.4782,0,0,1,.1163.1443.46.46,0,0,1,.0334.0953.52.52,0,0,1,.0009.1926A.0291.0291,0,0,1,16.238,29.5869Z"/><path class="cls-5" d="M16.38,29.576a.47.47,0,0,0,.0915-.1624.4514.4514,0,0,0,.0162-.0995.53.53,0,0,0-.0328-.19.0285.0285,0,0,0-.0513-.0116.4855.4855,0,0,0-.09.162.4415.4415,0,0,0-.017.0987.5235.5235,0,0,0,.0315.1905C16.3375,29.59,16.363,29.5964,16.38,29.576Z"/><path class="cls-5" d="M16.6241,29.1366a.4037.4037,0,0,1-.1521-.2346.5506.5506,0,0,1-.0037-.193c.0043-.0276.0273-.0384.0472-.0222a.4747.4747,0,0,1,.117.1412.4528.4528,0,0,1,.0347.0941.5382.5382,0,0,1,.005.1929C16.6681,29.1423,16.6445,29.153,16.6241,29.1366Z"/><path class="cls-5" d="M16.7634,29.1223a.452.452,0,0,0,.0867-.1617.4614.4614,0,0,0,.0138-.099.5442.5442,0,0,0-.0363-.19c-.01-.0261-.0345-.032-.0507-.012a.4705.4705,0,0,0-.0853.162.4483.4483,0,0,0-.0146.0992.5349.5349,0,0,0,.0349.19C16.7216,29.1368,16.7468,29.1425,16.7634,29.1223Z"/><path class="cls-5" d="M16.994,28.6838a.462.462,0,0,1-.1192-.14.4846.4846,0,0,1-.0355-.0941.5552.5552,0,0,1-.0074-.1926c.0034-.0276.026-.0381.0459-.0218a.5.5,0,0,1,.1176.1393.4627.4627,0,0,1,.0361.0932.55.55,0,0,1,.009.1929C17.0371,28.6882,17.0143,28.7,16.994,28.6838Z"/><path class="cls-5" d="M17.13,28.665a.4159.4159,0,0,0,.0927-.2643.5554.5554,0,0,0-.04-.1888c-.01-.0259-.0346-.0309-.05-.01a.4826.4826,0,0,0-.08.1647.4747.4747,0,0,0-.012.1.5415.5415,0,0,0,.0382.1889C17.0893,28.681,17.1142,28.6857,17.13,28.665Z"/><path class="cls-5" d="M17.3462,28.22a.4583.4583,0,0,1-.12-.1373.4706.4706,0,0,1-.0369-.093.57.57,0,0,1-.0116-.1929c.0029-.0273.0246-.0385.0444-.0228a.4744.4744,0,0,1,.1185.1373.4673.4673,0,0,1,.0374.093.55.55,0,0,1,.013.1922C17.3887,28.2241,17.3665,28.2355,17.3462,28.22Z"/><path class="cls-6" d="M15.0893,29.4767a.4591.4591,0,0,0,.1-.1559.4384.4384,0,0,0,.0217-.0981.534.534,0,0,0-.0216-.1919c-.0078-.0264-.0322-.0338-.05-.0148a.4745.4745,0,0,0-.0986.1558.446.446,0,0,0-.0227.0981.5318.5318,0,0,0,.02.1915A.0291.0291,0,0,0,15.0893,29.4767Z"/><path class="cls-6" d="M15.391,29.8775a.4039.4039,0,0,1-.1422-.2442.5288.5288,0,0,1,.0082-.1928c.0059-.0274.03-.0365.05-.0188a.48.48,0,0,1,.1117.1482.45.45,0,0,1,.03.0963.52.52,0,0,1-.0066.1927A.03.03,0,0,1,15.391,29.8775Z"/><path class="cls-6" d="M15.5353,29.8723a.4.4,0,0,0,.1192-.2551.5288.5288,0,0,0-.0255-.1911.0292.0292,0,0,0-.0515-.0141.4643.4643,0,0,0-.0979.1558.4535.4535,0,0,0-.0209.098.5164.5164,0,0,0,.0242.1916A.03.03,0,0,0,15.5353,29.8723Z"/><path class="cls-6" d="M15.85,30.2667a.4468.4468,0,0,1-.1176-.1441.4418.4418,0,0,1-.0317-.0952.5206.5206,0,0,1,.0047-.1931.03.03,0,0,1,.05-.0207.471.471,0,0,1,.1164.1446.4326.4326,0,0,1,.0323.0952.51.51,0,0,1-.0031.193A.03.03,0,0,1,15.85,30.2667Z"/><path class="cls-6" d="M15.9966,30.2565a.4553.4553,0,0,0,.0976-.1591.4344.4344,0,0,0,.0192-.0987.5241.5241,0,0,0-.03-.1908.03.03,0,0,0-.0526-.0135.4794.4794,0,0,0-.0966.16.4482.4482,0,0,0-.02.0988.511.511,0,0,0,.0282.1908A.03.03,0,0,0,15.9966,30.2565Z"/><path class="cls-6" d="M16.3242,30.6466a.4691.4691,0,0,1-.1224-.144.42.42,0,0,1-.0339-.0952.5089.5089,0,0,1,.001-.1928.03.03,0,0,1,.0511-.0205.4782.4782,0,0,1,.1214.144.4434.4434,0,0,1,.0346.0951.4984.4984,0,0,1,0,.1928A.0309.0309,0,0,1,16.3242,30.6466Z"/><path class="cls-6" d="M16.4734,30.635a.4708.4708,0,0,0,.0965-.1629.435.435,0,0,0,.0174-.1.5068.5068,0,0,0-.0335-.19.03.03,0,0,0-.0537-.0114.4871.4871,0,0,0-.0954.1625.4329.4329,0,0,0-.0183.0988.5056.5056,0,0,0,.0322.1905A.0309.0309,0,0,0,16.4734,30.635Z"/><path class="cls-6" d="M16.7308,30.1944a.4549.4549,0,0,1-.1232-.14.4328.4328,0,0,1-.0351-.0941.5235.5235,0,0,1-.003-.1931.03.03,0,0,1,.05-.0223.4731.4731,0,0,1,.1221.1406.4441.4441,0,0,1,.0359.094.5139.5139,0,0,1,.0043.1929A.03.03,0,0,1,16.7308,30.1944Z"/><path class="cls-6" d="M16.8769,30.1793a.3967.3967,0,0,0,.1069-.2614.52.52,0,0,0-.0371-.19.03.03,0,0,0-.0531-.0117.47.47,0,0,0-.09.1625.4341.4341,0,0,0-.0158.0994.5085.5085,0,0,0,.0356.19A.03.03,0,0,0,16.8769,30.1793Z"/><path class="cls-6" d="M17.1212,29.7393a.4612.4612,0,0,1-.1242-.14.45.45,0,0,1-.0367-.094.5274.5274,0,0,1-.0067-.1927.0288.0288,0,0,1,.0483-.022.4972.4972,0,0,1,.1227.1387.4508.4508,0,0,1,.0373.093.5253.5253,0,0,1,.0083.193A.03.03,0,0,1,17.1212,29.7393Z"/><path class="cls-6" d="M17.264,29.72a.4631.4631,0,0,0,.0863-.1652.441.441,0,0,0,.0127-.1.5313.5313,0,0,0-.04-.1887.029.029,0,0,0-.0524-.01.4788.4788,0,0,0-.0851.1653.4592.4592,0,0,0-.0132.1.5166.5166,0,0,0,.0389.1888A.0294.0294,0,0,0,17.264,29.72Z"/><path class="cls-6" d="M17.4939,29.2728a.46.46,0,0,1-.1247-.1366.45.45,0,0,1-.038-.0929A.5383.5383,0,0,1,17.32,28.85c.0033-.0274.0261-.0388.0468-.0232a.4721.4721,0,0,1,.1235.1366.4483.4483,0,0,1,.0387.0929.5266.5266,0,0,1,.0123.1922C17.5384,29.2766,17.5151,29.2881,17.4939,29.2728Z"/><path class="cls-5" d="M15.1208,30.5394a.4618.4618,0,0,0,.105-.1561.4205.4205,0,0,0,.0229-.0981.51.51,0,0,0-.0223-.192.03.03,0,0,0-.0526-.0147.4766.4766,0,0,0-.1037.156.4339.4339,0,0,0-.0238.0981.5051.5051,0,0,0,.021.1916A.0308.0308,0,0,0,15.1208,30.5394Z"/><path class="cls-5" d="M15.4363,30.94a.4654.4654,0,0,1-.1181-.1478.4433.4433,0,0,1-.03-.0962.506.506,0,0,1,.009-.1929.0307.0307,0,0,1,.0522-.0189.4828.4828,0,0,1,.1168.1481.4311.4311,0,0,1,.0312.0962.4978.4978,0,0,1-.0073.1927A.0314.0314,0,0,1,15.4363,30.94Z"/><path class="cls-5" d="M15.5873,30.9342a.4444.4444,0,0,0,.1039-.1566.4307.4307,0,0,0,.0217-.0989.5053.5053,0,0,0-.0264-.1911.031.031,0,0,0-.0539-.014.4672.4672,0,0,0-.1029.1561.4348.4348,0,0,0-.0221.0981.497.497,0,0,0,.0248.1916A.0318.0318,0,0,0,15.5873,30.9342Z"/><path class="cls-5" d="M15.9158,31.3278a.4507.4507,0,0,1-.1227-.1438.425.425,0,0,1-.0329-.0951.4986.4986,0,0,1,.0054-.1932.0317.0317,0,0,1,.0527-.0209.4707.4707,0,0,1,.1215.1444.42.42,0,0,1,.0335.0951.4869.4869,0,0,1-.0039.1931A.0322.0322,0,0,1,15.9158,31.3278Z"/><path class="cls-5" d="M16.0692,31.3171a.4573.4573,0,0,0,.1026-.1594.4174.4174,0,0,0,.02-.0988.5037.5037,0,0,0-.03-.1908.0316.0316,0,0,0-.055-.0133.4792.4792,0,0,0-.1017.16.4385.4385,0,0,0-.0209.0989.4911.4911,0,0,0,.029.1907A.0322.0322,0,0,0,16.0692,31.3171Z"/><path class="cls-5" d="M16.4105,31.7062a.4707.4707,0,0,1-.1276-.1436.4149.4149,0,0,1-.0351-.0951.4874.4874,0,0,1,.0018-.1929.0321.0321,0,0,1,.0535-.0206.4782.4782,0,0,1,.1264.1435.4227.4227,0,0,1,.0358.095.4766.4766,0,0,1,0,.1929A.0327.0327,0,0,1,16.4105,31.7062Z"/><path class="cls-5" d="M16.5665,31.694a.4745.4745,0,0,0,.1015-.1633.4179.4179,0,0,0,.0187-.1.4887.4887,0,0,0-.0342-.19.0321.0321,0,0,0-.0563-.0112.4874.4874,0,0,0-.1.1629.4157.4157,0,0,0-.02.0989.484.484,0,0,0,.0329.19A.0327.0327,0,0,0,16.5665,31.694Z"/><path class="cls-5" d="M16.8376,31.2521a.4552.4552,0,0,1-.1283-.1395.4216.4216,0,0,1-.0363-.0939.4991.4991,0,0,1-.0023-.1932.0317.0317,0,0,1,.052-.0226.4761.4761,0,0,1,.1272.14.4311.4311,0,0,1,.0371.0939.4941.4941,0,0,1,.0036.193A.0322.0322,0,0,1,16.8376,31.2521Z"/><path class="cls-5" d="M16.9905,31.2363a.4559.4559,0,0,0,.0968-.1627.4328.4328,0,0,0,.0163-.0994.4936.4936,0,0,0-.0379-.1895.0317.0317,0,0,0-.0555-.0115.4724.4724,0,0,0-.0954.1631.4171.4171,0,0,0-.017.0995.489.489,0,0,0,.0363.19A.0322.0322,0,0,0,16.9905,31.2363Z"/><path class="cls-5" d="M17.2484,30.7947a.4632.4632,0,0,1-.1293-.1391.4441.4441,0,0,1-.0379-.0938.5064.5064,0,0,1-.006-.1928.0306.0306,0,0,1,.0508-.0223.4981.4981,0,0,1,.1277.1381.4306.4306,0,0,1,.0386.0929.5023.5023,0,0,1,.0075.1931A.0316.0316,0,0,1,17.2484,30.7947Z"/><path class="cls-5" d="M17.398,30.7743a.4634.4634,0,0,0,.0913-.166.4217.4217,0,0,0,.014-.1.5079.5079,0,0,0-.041-.1886.0307.0307,0,0,0-.0548-.01.4791.4791,0,0,0-.09.166.4383.4383,0,0,0-.0145.1.4938.4938,0,0,0,.04.1887A.0312.0312,0,0,0,17.398,30.7743Z"/><path class="cls-5" d="M17.6416,30.3256a.46.46,0,0,1-.13-.1359.4341.4341,0,0,1-.0393-.0927.5165.5165,0,0,1-.01-.193.03.03,0,0,1,.0493-.0235.4729.4729,0,0,1,.1286.1359.4388.4388,0,0,1,.04.0926.5015.5015,0,0,1,.0115.1924A.0308.0308,0,0,1,17.6416,30.3256Z"/><path class="cls-6" d="M15.1523,31.602a.4622.4622,0,0,0,.11-.1563.4071.4071,0,0,0,.0242-.0981.4913.4913,0,0,0-.0231-.1919.0318.0318,0,0,0-.055-.0146.4749.4749,0,0,0-.1088.1561.4206.4206,0,0,0-.025.0981.484.484,0,0,0,.0217.1916A.0326.0326,0,0,0,15.1523,31.602Z"/><path class="cls-6" d="M15.4815,32.0018a.4672.4672,0,0,1-.1231-.1476.4183.4183,0,0,1-.0317-.0961.4811.4811,0,0,1,.01-.1929.0324.0324,0,0,1,.0546-.019.4823.4823,0,0,1,.1219.1479.4169.4169,0,0,1,.0324.0961.478.478,0,0,1-.008.1928A.0333.0333,0,0,1,15.4815,32.0018Z"/><path class="cls-6" d="M15.6393,31.996a.4458.4458,0,0,0,.109-.1568.4149.4149,0,0,0,.0229-.099.482.482,0,0,0-.0271-.191.0327.0327,0,0,0-.0562-.0139.4661.4661,0,0,0-.1081.1563.422.422,0,0,0-.0233.0982.4726.4726,0,0,0,.0256.1915A.0335.0335,0,0,0,15.6393,31.996Z"/><path class="cls-6" d="M15.9815,32.3888a.4524.4524,0,0,1-.1278-.1435.4065.4065,0,0,1-.034-.095.4746.4746,0,0,1,.0061-.1932.0335.0335,0,0,1,.0551-.021.4718.4718,0,0,1,.1266.144.409.409,0,0,1,.0348.0951.4672.4672,0,0,1-.0047.1931A.0341.0341,0,0,1,15.9815,32.3888Z"/><path class="cls-6" d="M16.1417,32.3777a.4587.4587,0,0,0,.1078-.16.4143.4143,0,0,0,.0216-.0989.482.482,0,0,0-.0312-.1906.0335.0335,0,0,0-.0576-.0132.4839.4839,0,0,0-.1067.16.4265.4265,0,0,0-.0221.099.47.47,0,0,0,.03.1907A.034.034,0,0,0,16.1417,32.3777Z"/><path class="cls-6" d="M16.4967,32.7658a.4745.4745,0,0,1-.1326-.1432.3984.3984,0,0,1-.0364-.095.4679.4679,0,0,1,.0026-.193.034.034,0,0,1,.0559-.0208.4819.4819,0,0,1,.1315.1432.4129.4129,0,0,1,.0371.0949.4572.4572,0,0,1-.0014.1929A.0346.0346,0,0,1,16.4967,32.7658Z"/><path class="cls-6" d="M16.66,32.7531a.4778.4778,0,0,0,.1066-.1638.4024.4024,0,0,0,.02-.1.4671.4671,0,0,0-.0349-.19.034.034,0,0,0-.0587-.011.4915.4915,0,0,0-.1055.1634.4041.4041,0,0,0-.0207.099.464.464,0,0,0,.0337.19A.0345.0345,0,0,0,16.66,32.7531Z"/><path class="cls-6" d="M16.9444,32.31a.458.458,0,0,1-.1335-.139.4114.4114,0,0,1-.0375-.0938.48.48,0,0,1-.0016-.1932.0336.0336,0,0,1,.0546-.0228.4776.4776,0,0,1,.1322.14.4128.4128,0,0,1,.0383.0938.4717.4717,0,0,1,.0028.193A.034.034,0,0,1,16.9444,32.31Z"/><path class="cls-6" d="M17.104,32.2934a.4579.4579,0,0,0,.1019-.1634.4146.4146,0,0,0,.0175-.0994.4741.4741,0,0,0-.0386-.1895.0335.0335,0,0,0-.0579-.0112.4729.4729,0,0,0-.1.1637.4.4,0,0,0-.0184.1.47.47,0,0,0,.0371.1895A.0341.0341,0,0,0,17.104,32.2934Z"/><path class="cls-6" d="M17.3756,31.85a.4649.4649,0,0,1-.1343-.1385.4175.4175,0,0,1-.0391-.0937.4848.4848,0,0,1-.0053-.1928.0324.0324,0,0,1,.0532-.0227.5035.5035,0,0,1,.1328.1375.419.419,0,0,1,.04.0928.483.483,0,0,1,.0068.1931A.0336.0336,0,0,1,17.3756,31.85Z"/><path class="cls-6" d="M17.532,31.8289a.4652.4652,0,0,0,.0965-.1666.4153.4153,0,0,0,.0151-.1.4866.4866,0,0,0-.0417-.1885.0326.0326,0,0,0-.0572-.0093.48.48,0,0,0-.0953.1666.4262.4262,0,0,0-.0157.1.4741.4741,0,0,0,.04.1886A.033.033,0,0,0,17.532,31.8289Z"/><path class="cls-6" d="M17.7893,31.3784a.4617.4617,0,0,1-.1347-.1352.418.418,0,0,1-.0406-.0926.4941.4941,0,0,1-.0094-.1931.0319.0319,0,0,1,.0517-.0238.4735.4735,0,0,1,.1336.1352.4165.4165,0,0,1,.0411.0924.481.481,0,0,1,.0109.1925A.0327.0327,0,0,1,17.7893,31.3784Z"/><path class="cls-5" d="M17.7641,28.1581a.4183.4183,0,0,0,.0812-.2671.5575.5575,0,0,0-.0456-.1876c-.0107-.0252-.0347-.0294-.049-.0084a.4776.4776,0,0,0-.0725.1669.4674.4674,0,0,0-.0084.1.5552.5552,0,0,0,.0441.1873C17.7247,28.1749,17.7493,28.179,17.7641,28.1581Z"/><path class="cls-5" d="M18.1014,28.5176a.46.46,0,0,1-.1261-.1326.4663.4663,0,0,1-.04-.0917.5539.5539,0,0,1-.0177-.1922c.002-.0278.0237-.04.0444-.0249a.4781.4781,0,0,1,.1249.1331.4671.4671,0,0,1,.041.0917.5452.5452,0,0,1,.0192.1918C18.1449,28.5206,18.1225,28.5326,18.1014,28.5176Z"/><path class="cls-5" d="M18.2368,28.4945a.4086.4086,0,0,0,.079-.2663.5572.5572,0,0,0-.05-.1867c-.0115-.0255-.0362-.03-.0505-.0086a.4673.4673,0,0,0-.0717.1666.4734.4734,0,0,0-.0068.1.5452.5452,0,0,0,.0481.1869C18.1968,28.5117,18.222,28.5156,18.2368,28.4945Z"/><path class="cls-5" d="M18.5867,28.8487a.4442.4442,0,0,1-.13-.1281.4558.4558,0,0,1-.0425-.0907.5429.5429,0,0,1-.0212-.1918c.0015-.0278.0234-.041.0447-.0267a.4662.4662,0,0,1,.129.1289.4468.4468,0,0,1,.0432.09.5336.5336,0,0,1,.0227.1917C18.6309,28.85,18.6085,28.863,18.5867,28.8487Z"/><path class="cls-5" d="M18.7238,28.82a.4127.4127,0,0,0,.0758-.27.5506.5506,0,0,0-.0536-.1854c-.0121-.025-.0371-.0284-.0514-.0069a.4821.4821,0,0,0-.07.17.4723.4723,0,0,0-.0053.1.5315.5315,0,0,0,.0521.1856A.0285.0285,0,0,0,18.7238,28.82Z"/><path class="cls-5" d="M19.0856,29.1663a.4663.4663,0,0,1-.1351-.1275.44.44,0,0,1-.0448-.09.5364.5364,0,0,1-.0248-.1913c.0013-.0277.0236-.0408.0456-.0265a.4764.4764,0,0,1,.1339.1276.458.458,0,0,1,.0455.09.52.52,0,0,1,.026.191A.0291.0291,0,0,1,19.0856,29.1663Z"/><path class="cls-5" d="M19.2906,28.8207c-.02.1027-.04.2055-.0631.3081l-.0034.0087c-.0129.023-.0394.0187-.053-.0057a.5464.5464,0,0,1-.0558-.1866.5388.5388,0,0,1,.0049-.0975.4765.4765,0,0,1,.068-.1715c.013-.0231.0394-.0188.053.0056A.5562.5562,0,0,1,19.2906,28.8207Z"/><path class="cls-5" d="M19.3732,28.36c-.0131.0823-.0292.1675-.0423.25a.2782.2782,0,0,1-.0561-.0621.3594.3594,0,0,1-.0459-.0883.5087.5087,0,0,1-.0289-.1912c.0014-.03.0229-.0433.0429-.0275A.4426.4426,0,0,1,19.3732,28.36Z"/><path class="cls-6" d="M17.9332,29.2077a.4643.4643,0,0,0,.0787-.168.4352.4352,0,0,0,.0088-.1.5374.5374,0,0,0-.0463-.1874.0283.0283,0,0,0-.0516-.008.4762.4762,0,0,0-.0774.1677.44.44,0,0,0-.01.1.5319.5319,0,0,0,.0448.1873A.0291.0291,0,0,0,17.9332,29.2077Z"/><path class="cls-6" d="M18.2841,29.5649a.4044.4044,0,0,1-.1727-.2232.53.53,0,0,1-.0168-.1924c.0023-.0278.0253-.04.0468-.0252a.477.477,0,0,1,.13.1321.45.45,0,0,1,.0422.0915.5224.5224,0,0,1,.0185.1919A.03.03,0,0,1,18.2841,29.5649Z"/><path class="cls-6" d="M18.4263,29.5405a.4506.4506,0,0,0,.0777-.1675.433.433,0,0,0,.0076-.1.5329.5329,0,0,0-.05-.1865c-.0119-.0255-.0377-.0294-.053-.0082a.4676.4676,0,0,0-.0767.1675.4573.4573,0,0,0-.008.1.5161.5161,0,0,0,.0489.1867A.03.03,0,0,0,18.4263,29.5405Z"/><path class="cls-6" d="M18.79,29.8922a.4448.4448,0,0,1-.1353-.1271.4349.4349,0,0,1-.0438-.09.5222.5222,0,0,1-.02-.1919c.0019-.0279.025-.0413.0471-.0272a.4667.4667,0,0,1,.1341.1279.4342.4342,0,0,1,.0445.09.5116.5116,0,0,1,.022.1918A.03.03,0,0,1,18.79,29.8922Z"/><path class="cls-6" d="M18.9338,29.8625a.4557.4557,0,0,0,.0759-.1708.4382.4382,0,0,0,.0062-.1.5253.5253,0,0,0-.0544-.1853.03.03,0,0,0-.0538-.0064.4813.4813,0,0,0-.0749.1712.45.45,0,0,0-.0066.1006.51.51,0,0,0,.0528.1855A.03.03,0,0,0,18.9338,29.8625Z"/><path class="cls-5" d="M18.1023,30.2572a.4637.4637,0,0,0,.0837-.1688.4207.4207,0,0,0,.01-.1.51.51,0,0,0-.047-.1874.03.03,0,0,0-.054-.0075.4773.4773,0,0,0-.0825.1684.4379.4379,0,0,0-.011.1005.5082.5082,0,0,0,.0457.1872A.0308.0308,0,0,0,18.1023,30.2572Z"/><path class="cls-5" d="M18.4669,30.6122a.4608.4608,0,0,1-.1363-.1309.4394.4394,0,0,1-.0427-.0913.5085.5085,0,0,1-.0162-.1924.0307.0307,0,0,1,.0493-.0257.4759.4759,0,0,1,.135.1313.4218.4218,0,0,1,.0434.0912.496.496,0,0,1,.0178.1921A.0314.0314,0,0,1,18.4669,30.6122Z"/><path class="cls-5" d="M18.6158,30.5866a.4532.4532,0,0,0,.0828-.1684.4159.4159,0,0,0,.0088-.1.5072.5072,0,0,0-.0511-.1864.0309.0309,0,0,0-.0553-.0077.4677.4677,0,0,0-.0818.1684.4368.4368,0,0,0-.0092.1.4921.4921,0,0,0,.05.1866A.0316.0316,0,0,0,18.6158,30.5866Z"/><path class="cls-5" d="M18.8869,30.5314c-.0215.0731-.04.1492-.0646.2221a.3194.3194,0,0,1-.0132-.0333.4411.4411,0,0,1-.02-.1937.0314.0314,0,0,1,.0487-.0272C18.8524,30.5089,18.87,30.5187,18.8869,30.5314Z"/><path class="cls-6" d="M18.2713,31.3068a.4637.4637,0,0,0,.0888-.17.41.41,0,0,0,.0113-.1006.49.49,0,0,0-.0478-.1872.0318.0318,0,0,0-.0564-.0071.4787.4787,0,0,0-.0876.1692.4244.4244,0,0,0-.0122.1007.4859.4859,0,0,0,.0464.187A.0326.0326,0,0,0,18.2713,31.3068Z"/><path class="cls-6" d="M18.641,31.349c-.0249.0818-.0528.1633-.08.242a.3639.3639,0,0,1-.0532-.062.4313.4313,0,0,1-.0428-.0911.5422.5422,0,0,1-.0169-.1935.0321.0321,0,0,1,.0517-.0241A.4706.4706,0,0,1,18.641,31.349Z"/><path class="cls-7" d="M19.3732,28.36c-.0131.0823-.0292.1675-.0423.25-.0125.07-.0279.1409-.04.2114-.02.1027-.04.2055-.0631.3081l-.0034.0087c-.0947.4665-.2071.9322-.3372,1.3939-.0215.0731-.04.1492-.0646.2221q-.0865.3024-.1813.5955c-.0249.0818-.0528.1633-.08.242q-.2672.8-.6014,1.5762a18.2726,18.2726,0,0,1-9.38.489,7.1537,7.1537,0,0,0,.9185-1.75c.0408-.1047.0788-.21.1138-.3174a11.7843,11.7843,0,0,0,.5163-2.8226q.015-.2082.0211-.4169c.0381-.8132.02-1.6323-.0224-2.4289C9.77,19.3187,7.99,18.5172,7.4118,18.4613a5.8812,5.8812,0,0,1,4.4288-.6475c.2519.06.5037.1233.756.1746a3.8374,3.8374,0,0,0,1.3237.0847,6.6558,6.6558,0,0,1,1.959-.1677,4.1765,4.1765,0,0,1,2.9543,2.31,8.9254,8.9254,0,0,1,.8257,3.7769A20.9842,20.9842,0,0,1,19.3732,28.36Z"/><path class="cls-3" d="M11.4168,38.0412a.193.193,0,0,0,.0429.2808c.1178.065.2113-.032.2565-.1148q.5161-.9575,1.0047-1.93l.0325-.063a2.0715,2.0715,0,0,1-.1834-.1005Q11.9763,37.067,11.4168,38.0412Z"/><path class="cls-3" d="M12.45,38.3358c-.03.1088-.0376.26.087.3059a.1836.1836,0,0,0,.2036-.0675.442.442,0,0,0,.0635-.2c.08-.5208.368-1.9546.3824-2.0549l-.2144-.0375Q12.729,37.3131,12.45,38.3358Z"/><path class="cls-3" d="M13.8642,36.41l-.2744-.0431c.0016.006-.0142.1062-.0406.2621l-.1044.5959c-.082.4572-.1793.9829-.2391,1.2688a.4715.4715,0,0,0-.0117.2078.1524.1524,0,0,0,.1425.1251.21.21,0,0,0,.145-.1155,2.025,2.025,0,0,0,.2271-.8631Z"/><path class="cls-3" d="M13.9966,38.705c-.0127.0942-.0006.2238.0954.2389s.1484-.1052.1643-.1989l.3692-2.1445.013-.07L14.3,36.4792Z"/><path class="cls-3" d="M14.5952,38.6622c-.0214.111-.0211.261.0917.2982a.1741.1741,0,0,0,.1882-.08.4521.4521,0,0,0,.0536-.2022c.0558-.5239.2787-1.9689.2891-2.07L14.985,36.58Z"/><path class="cls-3" d="M15.7451,36.6588l-.2424-.02c.0017.0059-.0079.1069-.0248.2641s-.0421.37-.0682.6012c-.0545.4613-.1225.9914-.1682,1.28a.4271.4271,0,0,0,.0017.2084.1714.1714,0,0,0,.1709.1169.2135.2135,0,0,0,.1495-.1249,1.8283,1.8283,0,0,0,.1542-.88Z"/><path class="cls-3" d="M16.13,38.9233c0,.0954.0339.2219.1448.2218s.1454-.1266.1459-.2217l.0031-2.1761,0-.0709-.1469.0012c-.0731.0013-.1488-.0012-.1488-.0012Z"/><path class="cls-3" d="M16.7723,38.7785c0,.1132.0329.26.1675.27a.1943.1943,0,0,0,.1876-.1218.4047.4047,0,0,0,.0076-.21c-.0683-.5224-.2031-1.9786-.2208-2.0785l-.0955.0126-.099.0083Q16.7659,37.7175,16.7723,38.7785Z"/><path class="cls-3" d="M17.3589,36.5549s-.2181.0507-.2128.0465c.0028.0054.0225.1049.0514.26l.1063.5954c.0792.4575.1619.9857.1959,1.2761a.3777.3777,0,0,0,.0626.1991.1969.1969,0,0,0,.2173.06.2162.2162,0,0,0,.1135-.1668,1.7708,1.7708,0,0,0-.12-.885Q17.56,37.25,17.3589,36.5549Z"/><path class="cls-3" d="M18.22,38.611c.0192.093.076.2109.1744.192s.1049-.149.0883-.2427l-.3769-2.1432-.0113-.07-.33.0641Z"/><path class="cls-3" d="M18.7987,38.3061c.021.1113.0768.25.1845.2464a.1524.1524,0,0,0,.1286-.1358.5106.5106,0,0,0-.0216-.2077c-.1275-.5113-.4028-1.9477-.4235-2.0468l-.2625.062Z"/><path class="cls-3" d="M19.3712,36.0647c.01-.0055-.3077.0337-.3077.0337.0035.0053.0165.1059.0349.2629s.0414.37.0673.6012c.048.4619.1033.9935.1335,1.2841a.5291.5291,0,0,0,.0462.2029c.0321.061.098.104.1516.0832.0489-.02.0761-.0862.096-.1465a2.059,2.059,0,0,0-.0029-.889Z"/><path class="cls-3" d="M19.9272,38.2128c.0072.0948.044.22.1348.2172s.1155-.13.1132-.2248L20.1261,36.03l0-.0708-.3677.0121Z"/><path class="cls-3" d="M20.488,37.9346c-.0045.113.0164.2614.1229.2824a.1571.1571,0,0,0,.16-.1033.497.497,0,0,0,.0265-.2074c-.0086-.5268.0452-1.9885.0461-2.09l-.2627.0015Z"/><path class="cls-3" d="M21.3827,35.7453l-.283.0178c.0029.0056.0073.107.0124.265s.01.3727.016.605c.0105.4645.02.9993.0184,1.2918a.4733.4733,0,0,0,.03.2056.1471.1471,0,0,0,.1622.0914.2135.2135,0,0,0,.1162-.1446,2.0972,2.0972,0,0,0,.0541-.893Z"/><path class="cls-8" d="M23.33,12.4163c-.078.1269-.1586.25-.2427.3759L19.6326,7.67,18.0145,5.2738S21.55,1.012,25.604,0l.0046.01C25.7.2634,27.6375,5.7172,23.33,12.4163Z"/><path class="cls-8" d="M2.7914,12.8109c.078.1269.1586.25.2428.3759L6.4889,8.0642,8.1071,5.6684S4.5719,1.4067.5175.3946l-.0046.01C.4212.658-1.5159,6.1118,2.7914,12.8109Z"/><path class="cls-9" d="M23.9657,9.9947,25.2563,12.38c1.25,2.31.2058,4.8523-1.8193,6.5249-2.1909,1.81-4.8147,3.7877-7.87,4.4571a11.6873,11.6873,0,0,1-6.9944-.8993,24.8329,24.8329,0,0,1-3.7393-2.0464,18.8758,18.8758,0,0,1-3.1213-2.25,4.9212,4.9212,0,0,1-.8-5.86l1.4027-2.474a9.4411,9.4411,0,0,1,8.2129-4.7846h5.135A9.4412,9.4412,0,0,1,23.9657,9.9947Z"/><path class="cls-8" d="M6.7875,19.079c1.8879,1.23,4.2,2.5113,6.4537,2.48,2.2539.0315,4.5658-1.25,6.4538-2.48A6.8772,6.8772,0,0,0,22.9907,12.65a4.9052,4.9052,0,0,0-4.0627-4.33,12.4534,12.4534,0,0,0-4.5616.6872,4.88,4.88,0,0,1-2.25,0,12.4539,12.4539,0,0,0-4.5617-.6872,4.9051,4.9051,0,0,0-4.0626,4.33A6.8769,6.8769,0,0,0,6.7875,19.079Z"/><path class="cls-10" d="M13.5129,15.9756c-.0417.7289-.1223,1.8121.9242,1.8184a1.0137,1.0137,0,0,0,.922-.6173"/><path class="cls-10" d="M13.4713,15.9756c.0418.7289.1224,1.8121-.9242,1.8184a1.0138,1.0138,0,0,1-.922-.6173"/><path class="cls-11" d="M14.5134,15.3181a3.57,3.57,0,0,1-.4308.427c-.1879.1688-.3952.32-.5916.4787a6.5422,6.5422,0,0,1-.51-.413,1.98,1.98,0,0,1-.546-.6005.5275.5275,0,0,1,.1374-.6332.6627.6627,0,0,1,.5307-.0454,2.0923,2.0923,0,0,0,.5359.11,2.6721,2.6721,0,0,0,.4456-.0863.549.549,0,0,1,.4367.0629.4485.4485,0,0,1,.0941.5389A.88.88,0,0,1,14.5134,15.3181Z"/><path class="cls-12" d="M20.6725,13.5748a2.06,2.06,0,1,1-2.06-2.06A2.06,2.06,0,0,1,20.6725,13.5748Z"/><path class="cls-13" d="M19.9024,13.5748a1.29,1.29,0,1,1-1.29-1.29A1.29,1.29,0,0,1,19.9024,13.5748Z"/><path class="cls-13" d="M19.35,13.5748a.7381.7381,0,1,1-.738-.7381A.738.738,0,0,1,19.35,13.5748Z"/><path class="cls-14" d="M18.94,13.2313a.6476.6476,0,1,0,.6476-.6476A.6476.6476,0,0,0,18.94,13.2313Z"/><path class="cls-12" d="M9.9153,13.5748a2.06,2.06,0,1,1-2.06-2.06A2.06,2.06,0,0,1,9.9153,13.5748Z"/><path class="cls-13" d="M9.1452,13.5748a1.29,1.29,0,1,1-1.29-1.29A1.29,1.29,0,0,1,9.1452,13.5748Z"/><path class="cls-13" d="M8.5932,13.5748a.7381.7381,0,1,1-.738-.7381A.738.738,0,0,1,8.5932,13.5748Z"/><path class="cls-14" d="M8.1831,13.2313a.6477.6477,0,1,0,.6477-.6476A.6477.6477,0,0,0,8.1831,13.2313Z"/><path class="cls-15" d="M22.1718,27.5273a6.9665,6.9665,0,0,1-3.2,1.27,32.3208,32.3208,0,0,1-3.4076.4856c-.9829.0917-1.9717.1362-2.96.1362-.1392,0-.2783,0-.4175-.003a33.2491,33.2491,0,0,1-4.3075-.3316,12.574,12.574,0,0,1-2.9636-.7076,11.059,11.059,0,0,1-2.49-1.1664,2.331,2.331,0,0,1-.6957-.8586,1.6048,1.6048,0,0,1-.1421-1.0006c.08-.4145.34-.7816.3819-1.202a4.0826,4.0826,0,0,0-.4767-1.6283,2.81,2.81,0,0,1-.0414-1.6076v-.0089a5.9321,5.9321,0,0,1,.8645-1.83c.0118-.0178.0237-.0355.0325-.05l.003-.003.0089-.0148c.0769-.1066.1243-.1658.1243-.1658l.0533.0444.003.003c.447.3523,3.65,2.7,10.7349,3.0612A14.9192,14.9192,0,0,0,23.436,18.9032a4.6011,4.6011,0,0,1,.2783.9385,29.544,29.544,0,0,1,.08,3.2329A5.2777,5.2777,0,0,1,22.1718,27.5273Z"/><path class="cls-16" d="M19.0515,22.0532a26.1152,26.1152,0,0,1-4.3994.7638,11.4992,11.4992,0,0,1,.9118,6.4659c-.9829.0917-1.9717.1362-2.96.1362-.1392,0-.2783,0-.4175-.003.2577-2.23.21-6.4824-2.6676-6.9894-.6507-.1146-1.3292-.1711-1.9664-.3309a10.3714,10.3714,0,0,1-1.8927-.7516,13.7558,13.7558,0,0,1-1.8115-1.04,10.8358,10.8358,0,0,1-1.5322-1.2289c.1006-.151.1687-.2339.1687-.2339S5.6076,21.5588,13.2754,21.95A14.9192,14.9192,0,0,0,23.436,18.9032a4.6011,4.6011,0,0,1,.2783.9385A11.4538,11.4538,0,0,1,19.0515,22.0532Z"/><path class="cls-4" d="M22.5982,31.03c-.0089.0829-.0208.1688-.03.2516-.0089.0711-.0208.1421-.03.2132-.0148.1036-.03.2072-.0474.3109l-.003.0088c-.071.4708-.16.9415-.2664,1.4093-.0178.074-.0326.1509-.0533.225q-.0711.3063-.151.6039c-.0207.0829-.0444.1658-.0681.2457q-.2264.8127-.521,1.6046a18.2726,18.2726,0,0,1-9.3435.9622,7.15,7.15,0,0,0,.8289-1.7941c.0355-.1065.0681-.2131.0977-.3227a11.7834,11.7834,0,0,0,.373-2.8451q.0045-.2086,0-.4174a24.2692,24.2692,0,0,0-.145-2.4247c-.69-6.5754-2.5076-7.2859-3.0879-7.3125a5.8811,5.8811,0,0,1,4.3905-.87c.2546.0473.5093.0977.7638.1362a3.84,3.84,0,0,0,1.3263.0177,6.6584,6.6584,0,0,1,1.9481-.2664,4.1763,4.1763,0,0,1,3.0672,2.1582,8.9253,8.9253,0,0,1,1.0154,3.73A20.9835,20.9835,0,0,1,22.5982,31.03Z"/><path class="cls-16" d="M2.348,19.0246l-.0651.0473a.83.83,0,0,1,.077-.0651,1.4469,1.4469,0,0,1,.1776-.1214.4929.4929,0,0,1,.0829-.0533l-.08.0563-.19.1332Z"/><path class="cls-16" d="M2.4813,25.6592a1.1666,1.1666,0,0,0,.5595.3286,1.82,1.82,0,0,1-1.3115.3641,1.6048,1.6048,0,0,1-.1421-1.0006c.08-.4145.34-.7816.3819-1.202a4.0826,4.0826,0,0,0-.4767-1.6283,2.81,2.81,0,0,1-.0414-1.6076,3.0781,3.0781,0,0,0,.219,1.3293,5.2755,5.2755,0,0,0,2.7682,2.5757c-.5566.0651-1.1132.1332-1.67.1983a.6007.6007,0,0,0-.24.0622A.4047.4047,0,0,0,2.4813,25.6592Z"/><path class="cls-5" d="M13.5152,31.7608a.5562.5562,0,0,1-.0444.1866.0272.0272,0,0,1-.05.0089.4188.4188,0,0,1-.0356-.0534q.0045-.2086,0-.4174a.03.03,0,0,1,.0415.0089.5115.5115,0,0,1,.077.1658A.5518.5518,0,0,1,13.5152,31.7608Z"/><path class="cls-5" d="M13.558,31.9772a.407.407,0,0,0,.1614-.2277.5519.5519,0,0,0,.0115-.1928c-.003-.0277-.0254-.04-.0461-.0242a.4762.4762,0,0,0-.1225.1358.467.467,0,0,0-.0385.0926.5368.5368,0,0,0-.013.1925C13.5137,31.9809,13.5368,31.9927,13.558,31.9772Z"/><path class="cls-5" d="M13.7831,32.4257a.4051.4051,0,0,1-.0968-.2651.5339.5339,0,0,1,.0405-.1883.0284.0284,0,0,1,.0517-.0093.4758.4758,0,0,1,.0838.1633.4452.4452,0,0,1,.0129.0993.5235.5235,0,0,1-.0393.1891A.03.03,0,0,1,13.7831,32.4257Z"/><path class="cls-5" d="M13.9249,32.4419a.4667.4667,0,0,0,.1231-.1391.4487.4487,0,0,0,.0366-.0938.5347.5347,0,0,0,.0075-.1927c-.0038-.0275-.027-.0385-.0477-.0224a.48.48,0,0,0-.122.1392.4553.4553,0,0,0-.0372.0937.5227.5227,0,0,0-.0089.1925A.0292.0292,0,0,0,13.9249,32.4419Z"/><path class="cls-5" d="M14.2544,32.065a.4057.4057,0,0,1-.1-.2621.5461.5461,0,0,1,.0365-.19c.01-.026.0346-.0317.0506-.0115a.479.479,0,0,1,.0849.1632.4692.4692,0,0,1,.0143.0995.5382.5382,0,0,1-.0352.1895A.0285.0285,0,0,1,14.2544,32.065Z"/><path class="cls-5" d="M14.3934,32.0809a.4472.4472,0,0,0,.1183-.1393.4631.4631,0,0,0,.0342-.0941.5406.5406,0,0,0,.0037-.1929c-.0041-.0276-.0269-.0388-.0469-.0227a.4661.4661,0,0,0-.1169.14.4411.4411,0,0,0-.0349.0938.5333.5333,0,0,0-.0054.193C14.35,32.0861,14.3731,32.0971,14.3934,32.0809Z"/><path class="cls-5" d="M14.71,31.6967a.452.452,0,0,1-.0875-.1594.472.472,0,0,1-.0152-.0987.5587.5587,0,0,1,.0328-.19c.0091-.0265.0334-.0328.05-.0131a.4218.4218,0,0,1,.102.2583.55.55,0,0,1-.0313.1905C14.7515,31.71,14.7268,31.7165,14.71,31.6967Z"/><path class="cls-5" d="M14.847,31.7076a.4132.4132,0,0,0,.1456-.2383.5582.5582,0,0,0,.0005-.193c-.0046-.0276-.0274-.0376-.0466-.0208a.4253.4253,0,0,0-.145.2387.5453.5453,0,0,0-.0019.1928C14.804,31.7144,14.8273,31.7245,14.847,31.7076Z"/><path class="cls-5" d="M15.1508,31.3193a.4221.4221,0,0,1-.105-.2587.5715.5715,0,0,1,.0286-.191c.0086-.026.0321-.0324.0483-.0127a.48.48,0,0,1,.0871.16.47.47,0,0,1,.0173.0989.55.55,0,0,1-.0272.1906C15.1915,31.3325,15.1674,31.3388,15.1508,31.3193Z"/><path class="cls-6" d="M13.4076,33.03a.45.45,0,0,0,.1285-.1344.4364.4364,0,0,0,.0394-.0924.5307.5307,0,0,0,.0107-.1929.03.03,0,0,0-.0486-.0245.4746.4746,0,0,0-.1277.135.4574.4574,0,0,0-.04.0924.51.51,0,0,0-.0122.1926A.03.03,0,0,0,13.4076,33.03Z"/><path class="cls-6" d="M13.6466,33.48a.4444.4444,0,0,1-.09-.1656.4286.4286,0,0,1-.0133-.1.5086.5086,0,0,1,.0413-.1883.03.03,0,0,1,.0541-.0089.4754.4754,0,0,1,.0889.1639.4214.4214,0,0,1,.0142.0995.5024.5024,0,0,1-.04.189A.0313.0313,0,0,1,13.6466,33.48Z"/><path class="cls-6" d="M13.7953,33.4971a.4686.4686,0,0,0,.1283-.1385.4379.4379,0,0,0,.0378-.0936.5086.5086,0,0,0,.0067-.1928.03.03,0,0,0-.05-.0227.4793.4793,0,0,0-.1272.1385.4411.4411,0,0,0-.0384.0935.5006.5006,0,0,0-.0082.1927A.031.031,0,0,0,13.7953,33.4971Z"/><path class="cls-6" d="M14.1387,33.1217a.4576.4576,0,0,1-.0913-.1633.439.439,0,0,1-.0148-.0995A.5265.5265,0,0,1,14.07,32.67a.03.03,0,0,1,.0532-.0111.4785.4785,0,0,1,.09.1637.4421.4421,0,0,1,.0156.1.5144.5144,0,0,1-.036.1895A.03.03,0,0,1,14.1387,33.1217Z"/><path class="cls-6" d="M14.2846,33.1384a.3931.3931,0,0,0,.1588-.2328.5181.5181,0,0,0,.003-.1929c-.0045-.0277-.0285-.0389-.0493-.023a.4653.4653,0,0,0-.1221.1395.4281.4281,0,0,0-.0362.0937.5111.5111,0,0,0-.0046.193A.03.03,0,0,0,14.2846,33.1384Z"/><path class="cls-6" d="M14.6153,32.7556a.3975.3975,0,0,1-.1091-.2588.5305.5305,0,0,1,.0335-.19c.0094-.0264.0349-.0326.0519-.0129a.4667.4667,0,0,1,.0913.16.4442.4442,0,0,1,.0171.099.52.52,0,0,1-.032.19A.03.03,0,0,1,14.6153,32.7556Z"/><path class="cls-6" d="M14.7589,32.7671a.46.46,0,0,0,.1187-.143.4376.4376,0,0,0,.0331-.0949.53.53,0,0,0,0-.193c-.005-.0276-.029-.0377-.0491-.021a.4747.4747,0,0,0-.1176.1433.4518.4518,0,0,0-.0337.0949.52.52,0,0,0-.0012.1928A.03.03,0,0,0,14.7589,32.7671Z"/><path class="cls-6" d="M15.0765,32.38a.463.463,0,0,1-.0935-.16.451.451,0,0,1-.0179-.099.5416.5416,0,0,1,.0294-.1909c.0089-.026.0336-.0322.0507-.0125a.4779.4779,0,0,1,.0922.16.4487.4487,0,0,1,.0186.099.5278.5278,0,0,1-.0279.1906A.0289.0289,0,0,1,15.0765,32.38Z"/><path class="cls-5" d="M13.2572,34.0821a.4539.4539,0,0,0,.1337-.1338.4238.4238,0,0,0,.0406-.0922.5031.5031,0,0,0,.01-.193.0317.0317,0,0,0-.051-.0249.4769.4769,0,0,0-.1328.1344.4361.4361,0,0,0-.041.0922.4867.4867,0,0,0-.0114.1927A.0323.0323,0,0,0,13.2572,34.0821Z"/><path class="cls-5" d="M13.51,34.5343a.4475.4475,0,0,1-.095-.1662.4221.4221,0,0,1-.0146-.1.49.49,0,0,1,.042-.1882.0321.0321,0,0,1,.0567-.0087.4794.4794,0,0,1,.094.1647.4087.4087,0,0,1,.0154.1.4792.4792,0,0,1-.0408.1888A.0331.0331,0,0,1,13.51,34.5343Z"/><path class="cls-5" d="M13.6657,34.5522a.47.47,0,0,0,.1334-.1378.4115.4115,0,0,0,.0389-.0935.4838.4838,0,0,0,.0061-.1929.0322.0322,0,0,0-.0526-.023.4826.4826,0,0,0-.1322.1379.43.43,0,0,0-.04.0934.4807.4807,0,0,0-.0073.1927A.0328.0328,0,0,0,13.6657,34.5522Z"/><path class="cls-5" d="M14.0229,34.1785a.4615.4615,0,0,1-.0965-.1639.425.425,0,0,1-.0159-.1.4986.4986,0,0,1,.038-.1893.0316.0316,0,0,1,.0556-.0109.48.48,0,0,1,.0951.1643.4288.4288,0,0,1,.0168.1.4924.4924,0,0,1-.0367.1894A.0321.0321,0,0,1,14.0229,34.1785Z"/><path class="cls-5" d="M14.1757,34.1959a.45.45,0,0,0,.1285-.1382.43.43,0,0,0,.0367-.0939.4947.4947,0,0,0,.0023-.1931.0318.0318,0,0,0-.0519-.0231.4667.4667,0,0,0-.1271.1389.4117.4117,0,0,0-.0375.0936.4876.4876,0,0,0-.0038.1931A.0323.0323,0,0,0,14.1757,34.1959Z"/><path class="cls-5" d="M14.52,33.8144a.4528.4528,0,0,1-.0977-.16.43.43,0,0,1-.0177-.0989.5065.5065,0,0,1,.0343-.19.031.031,0,0,1,.0544-.0127.469.469,0,0,1,.0964.16.4356.4356,0,0,1,.0184.0991.5012.5012,0,0,1-.0329.19A.0315.0315,0,0,1,14.52,33.8144Z"/><path class="cls-5" d="M14.6707,33.8265a.4588.4588,0,0,0,.1238-.1425.42.42,0,0,0,.0344-.0948.5072.5072,0,0,0-.0008-.1931.0309.0309,0,0,0-.0516-.0212.4745.4745,0,0,0-.1227.1429.436.436,0,0,0-.0349.0948.4962.4962,0,0,0-.0005.1929A.0313.0313,0,0,0,14.6707,33.8265Z"/><path class="cls-5" d="M15.0022,33.44a.4635.4635,0,0,1-.0986-.1606.4356.4356,0,0,1-.0192-.0991.5151.5151,0,0,1,.03-.1908.03.03,0,0,1,.0531-.0123.4788.4788,0,0,1,.0974.16.4387.4387,0,0,1,.02.0991.5024.5024,0,0,1-.0287.1905A.0307.0307,0,0,1,15.0022,33.44Z"/><path class="cls-6" d="M13.05,34.9138a.458.458,0,0,1-.0444.1895.0349.0349,0,0,1-.0592.0089l-.0326-.0415c.0355-.1065.0681-.2131.0977-.3227.0089.0208.0178.0415.0267.0652A.4041.4041,0,0,1,13.05,34.9138Z"/><path class="cls-6" d="M13.1069,35.1345a.456.456,0,0,0,.1387-.133.4059.4059,0,0,0,.0419-.092.4828.4828,0,0,0,.0092-.1932.0336.0336,0,0,0-.0535-.0252.4768.4768,0,0,0-.1379.1336.4149.4149,0,0,0-.0423.092.4694.4694,0,0,0-.0107.1929A.0343.0343,0,0,0,13.1069,35.1345Z"/><path class="cls-6" d="M13.3736,35.5886a.4513.4513,0,0,1-.1-.1669.3968.3968,0,0,1-.0158-.1007.469.469,0,0,1,.0427-.1881.0341.0341,0,0,1,.0592-.0083.4834.4834,0,0,1,.0991.1653.3992.3992,0,0,1,.0166.1.4626.4626,0,0,1-.0415.1888A.0351.0351,0,0,1,13.3736,35.5886Z"/><path class="cls-6" d="M13.5361,35.6074a.47.47,0,0,0,.1385-.1372.401.401,0,0,0,.04-.0933.4663.4663,0,0,0,.0054-.193.0341.0341,0,0,0-.0551-.0233.4832.4832,0,0,0-.1373.1373.4072.4072,0,0,0-.041.0932.46.46,0,0,0-.0068.1928A.0349.0349,0,0,0,13.5361,35.6074Z"/><path class="cls-6" d="M13.9071,35.2353a.4631.4631,0,0,1-.1015-.1645.4086.4086,0,0,1-.0172-.1.48.48,0,0,1,.0387-.1893.0335.0335,0,0,1,.0581-.0106.4836.4836,0,0,1,.1.1649.4071.4071,0,0,1,.018.1.4729.4729,0,0,1-.0373.1893A.0341.0341,0,0,1,13.9071,35.2353Z"/><path class="cls-6" d="M14.0668,35.2535a.4534.4534,0,0,0,.1337-.1378.4162.4162,0,0,0,.0379-.0938.4725.4725,0,0,0,.0016-.1931.0337.0337,0,0,0-.0544-.0234.4686.4686,0,0,0-.1322.1384.396.396,0,0,0-.0387.0934.4682.4682,0,0,0-.0031.1932A.0342.0342,0,0,0,14.0668,35.2535Z"/><path class="cls-6" d="M14.4252,34.8732a.4543.4543,0,0,1-.1029-.1608.4175.4175,0,0,1-.0189-.099.4856.4856,0,0,1,.0351-.19.0328.0328,0,0,1,.0568-.0125.4711.4711,0,0,1,.1015.1609.4183.4183,0,0,1,.02.0992.4792.4792,0,0,1-.0335.19A.0334.0334,0,0,1,14.4252,34.8732Z"/><path class="cls-6" d="M14.5826,34.886a.4615.4615,0,0,0,.1289-.1422.4118.4118,0,0,0,.0357-.0947.4852.4852,0,0,0-.0017-.1931.0327.0327,0,0,0-.054-.0214.4763.4763,0,0,0-.1278.1424.4276.4276,0,0,0-.0362.0947.4758.4758,0,0,0,0,.193A.0332.0332,0,0,0,14.5826,34.886Z"/><path class="cls-6" d="M14.9278,34.5008a.4661.4661,0,0,1-.1037-.161.4228.4228,0,0,1-.02-.0991.493.493,0,0,1,.031-.1908.0317.0317,0,0,1,.0555-.0121.4779.4779,0,0,1,.1025.1607.4154.4154,0,0,1,.021.0992.4794.4794,0,0,1-.0294.19A.0325.0325,0,0,1,14.9278,34.5008Z"/><path class="cls-5" d="M15.5726,31.3435a.4146.4146,0,0,0,.1349-.2434.5618.5618,0,0,0-.0055-.1931c-.0053-.0269-.0279-.0362-.0464-.0187a.4759.4759,0,0,0-.1055.1473.466.466,0,0,0-.029.096.5554.5554,0,0,0,.0042.1926C15.5306,31.3515,15.5538,31.3608,15.5726,31.3435Z"/><path class="cls-5" d="M15.8278,31.7674a.4668.4668,0,0,1-.0958-.1567.4781.4781,0,0,1-.02-.0983.5519.5519,0,0,1,.0227-.1915c.0077-.0268.0315-.0339.0486-.0148a.4838.4838,0,0,1,.0945.1569.4648.4648,0,0,1,.0211.0984.5457.5457,0,0,1-.0211.1915C15.87,31.78,15.8453,31.7866,15.8278,31.7674Z"/><path class="cls-5" d="M15.965,31.7739a.4177.4177,0,0,0,.1328-.2473.5544.5544,0,0,0-.01-.1925c-.006-.0272-.0293-.0357-.0477-.0176a.4982.4982,0,0,0-.1048.1493.4629.4629,0,0,0-.0274.0961.5443.5443,0,0,0,.0081.1929C15.9224,31.7821,15.9462,31.7914,15.965,31.7739Z"/><path class="cls-5" d="M16.2339,32.19a.45.45,0,0,1-.1008-.1532.4646.4646,0,0,1-.0227-.0974.5434.5434,0,0,1,.0192-.1922c.0073-.0268.0314-.035.0493-.0165a.4742.4742,0,0,1,.1.1537.4563.4563,0,0,1,.0234.0975.5322.5322,0,0,1-.0176.1922C16.2769,32.2007,16.2522,32.2086,16.2339,32.19Z"/><path class="cls-5" d="M16.374,32.1918a.41.41,0,0,0,.1305-.2473.5517.5517,0,0,0-.0139-.1927c-.0066-.027-.03-.0358-.0489-.0178a.4207.4207,0,0,0-.13.248.5345.5345,0,0,0,.0124.1925A.0287.0287,0,0,0,16.374,32.1918Z"/><path class="cls-5" d="M16.656,32.6075a.47.47,0,0,1-.1056-.1536.4458.4458,0,0,1-.0251-.0976.5339.5339,0,0,1,.0156-.1921c.007-.0268.0315-.0349.05-.0162a.4837.4837,0,0,1,.1045.1532.4487.4487,0,0,1,.0258.0968.5253.5253,0,0,1-.0144.1926A.029.029,0,0,1,16.656,32.6075Z"/><path class="cls-5" d="M16.7988,32.6057a.468.468,0,0,0,.1039-.1543.4464.4464,0,0,0,.0241-.0979.5334.5334,0,0,0-.0176-.1919c-.0074-.0268-.0319-.0346-.05-.0159a.481.481,0,0,0-.1029.1543.4659.4659,0,0,0-.0247.0978.5215.5215,0,0,0,.0163.192A.0292.0292,0,0,0,16.7988,32.6057Z"/><path class="cls-5" d="M17.0766,32.188a.4044.4044,0,0,1-.1331-.2464.55.55,0,0,1,.0115-.1927c.0064-.0271.03-.036.0488-.0181a.476.476,0,0,1,.1055.15.4576.4576,0,0,1,.0272.0967.54.54,0,0,1-.01.1926C17.12,32.1973,17.0955,32.206,17.0766,32.188Z"/><path class="cls-5" d="M17.2165,32.1852a.447.447,0,0,0,.0992-.1539.4585.4585,0,0,0,.0217-.0976.5455.5455,0,0,0-.0212-.192c-.0078-.0268-.0319-.0347-.05-.0161a.4686.4686,0,0,0-.0979.1543.4492.4492,0,0,0-.0224.0977.5359.5359,0,0,0,.02.192C17.1736,32.1962,17.1984,32.204,17.2165,32.1852Z"/><path class="cls-5" d="M17.4811,31.7647a.44.44,0,0,1-.1076-.147.4788.4788,0,0,1-.028-.0967.5561.5561,0,0,1,.0078-.1925c.0056-.0273.0289-.0356.0474-.0187a.4647.4647,0,0,1,.1063.1466.4594.4594,0,0,1,.0286.0959.5485.5485,0,0,1-.0063.193C17.5238,31.7726,17.5,31.7821,17.4811,31.7647Z"/><path class="cls-5" d="M17.6182,31.7573a.4618.4618,0,0,0,.0941-.1573.4536.4536,0,0,0,.0193-.0984.5529.5529,0,0,0-.0245-.1914c-.0081-.0267-.0321-.0336-.049-.0144a.4272.4272,0,0,0-.1128.256.5454.5454,0,0,0,.0231.1913C17.5764,31.77,17.6008,31.7766,17.6182,31.7573Z"/><path class="cls-5" d="M17.8692,31.3318a.462.462,0,0,1-.1084-.1467.4707.4707,0,0,1-.0294-.0958.5659.5659,0,0,1,.0037-.1931c.0051-.0269.0276-.0364.0462-.019a.4768.4768,0,0,1,.1072.1466.4644.4644,0,0,1,.03.0958.5472.5472,0,0,1-.0023.1925C17.9113,31.3394,17.8882,31.3489,17.8692,31.3318Z"/><path class="cls-6" d="M15.52,32.4053a.4558.4558,0,0,0,.1119-.1472.4314.4314,0,0,0,.0294-.0959.5352.5352,0,0,0-.0063-.1931c-.0056-.027-.0294-.0363-.0487-.0189a.4717.4717,0,0,0-.1107.1471.4519.4519,0,0,0-.03.0959.5315.5315,0,0,0,.005.1926A.0291.0291,0,0,0,15.52,32.4053Z"/><path class="cls-6" d="M15.7888,32.83a.4647.4647,0,0,1-.1009-.1569.47.47,0,0,1-.0216-.0983.53.53,0,0,1,.0235-.1916.0289.0289,0,0,1,.0511-.0146.4819.4819,0,0,1,.1.1571.4487.4487,0,0,1,.0222.0984.5193.5193,0,0,1-.0217.1915A.03.03,0,0,1,15.7888,32.83Z"/><path class="cls-6" d="M15.9329,32.8365a.461.461,0,0,0,.111-.15.45.45,0,0,0,.0282-.0968.5281.5281,0,0,0-.0105-.1925.0288.0288,0,0,0-.05-.0177.4988.4988,0,0,0-.11.1491.455.455,0,0,0-.0285.0961.5152.5152,0,0,0,.0089.1929A.03.03,0,0,0,15.9329,32.8365Z"/><path class="cls-6" d="M16.2155,33.2529A.4507.4507,0,0,1,16.11,33.1a.4386.4386,0,0,1-.024-.0975.5187.5187,0,0,1,.02-.1921.03.03,0,0,1,.0517-.0165.47.47,0,0,1,.1046.1538.4305.4305,0,0,1,.0247.0975.5087.5087,0,0,1-.0184.1922A.03.03,0,0,1,16.2155,33.2529Z"/><path class="cls-6" d="M16.3625,33.2548a.4537.4537,0,0,0,.11-.1505.4346.4346,0,0,0,.027-.0968.5285.5285,0,0,0-.0146-.1926.03.03,0,0,0-.0514-.0178.4766.4766,0,0,0-.1089.151.4538.4538,0,0,0-.0274.0969.5109.5109,0,0,0,.0131.1925A.03.03,0,0,0,16.3625,33.2548Z"/><path class="cls-6" d="M16.6582,33.6706a.47.47,0,0,1-.1107-.1536.4268.4268,0,0,1-.0263-.0976.51.51,0,0,1,.0163-.1921.03.03,0,0,1,.0526-.0162.4826.4826,0,0,1,.11.1532.43.43,0,0,1,.0271.0968.5009.5009,0,0,1-.0151.1926A.0308.0308,0,0,1,16.6582,33.6706Z"/><path class="cls-6" d="M16.8078,33.6687a.4656.4656,0,0,0,.1091-.1543.4322.4322,0,0,0,.0252-.0979.5079.5079,0,0,0-.0183-.1919.03.03,0,0,0-.0527-.0158.4811.4811,0,0,0-.108.1543.4436.4436,0,0,0-.0259.0978.501.501,0,0,0,.017.192A.0309.0309,0,0,0,16.8078,33.6687Z"/><path class="cls-6" d="M17.0993,33.2509a.4573.4573,0,0,1-.1118-.15.4409.4409,0,0,1-.0275-.0966.523.523,0,0,1,.0122-.1927.03.03,0,0,1,.0513-.0182.4773.4773,0,0,1,.1105.15.4359.4359,0,0,1,.0284.0967.5157.5157,0,0,1-.0109.1926A.03.03,0,0,1,17.0993,33.2509Z"/><path class="cls-6" d="M17.2461,33.2479a.4487.4487,0,0,0,.1043-.1541.4432.4432,0,0,0,.023-.0976.5178.5178,0,0,0-.0221-.1919.03.03,0,0,0-.052-.0161.4675.4675,0,0,0-.1029.1545.4289.4289,0,0,0-.0236.0977.51.51,0,0,0,.0205.1919A.03.03,0,0,0,17.2461,33.2479Z"/><path class="cls-6" d="M17.5244,32.8269a.4407.4407,0,0,1-.1127-.1468.4622.4622,0,0,1-.0292-.0966.5259.5259,0,0,1,.0086-.1926.0291.0291,0,0,1,.05-.0187.4649.4649,0,0,1,.1113.1464.4481.4481,0,0,1,.03.0958.5255.5255,0,0,1-.0071.193A.03.03,0,0,1,17.5244,32.8269Z"/><path class="cls-6" d="M17.6683,32.8192a.4591.4591,0,0,0,.0991-.1576.4384.4384,0,0,0,.0206-.0984.5317.5317,0,0,0-.0251-.1913c-.0086-.0267-.0336-.0336-.0515-.0143a.4767.4767,0,0,0-.098.1577.4618.4618,0,0,0-.0211.0986.5169.5169,0,0,0,.0238.1913A.03.03,0,0,0,17.6683,32.8192Z"/><path class="cls-6" d="M17.933,32.393a.4647.4647,0,0,1-.1135-.1464.4546.4546,0,0,1-.0306-.0957.54.54,0,0,1,.0045-.1932c.0054-.027.0291-.0364.0485-.0191a.4758.4758,0,0,1,.1124.1463.4468.4468,0,0,1,.0312.0957.5248.5248,0,0,1-.003.1926A.0291.0291,0,0,1,17.933,32.393Z"/><path class="cls-5" d="M15.4671,33.4671a.46.46,0,0,0,.117-.1469.419.419,0,0,0,.0306-.0959.5142.5142,0,0,0-.007-.1932.03.03,0,0,0-.0513-.0189.4709.4709,0,0,0-.1157.1468.43.43,0,0,0-.0315.0959.5059.5059,0,0,0,.0057.1926A.0309.0309,0,0,0,15.4671,33.4671Z"/><path class="cls-5" d="M15.75,33.8922a.4689.4689,0,0,1-.106-.1571.448.448,0,0,1-.0228-.0984.5058.5058,0,0,1,.0242-.1915.0306.0306,0,0,1,.0535-.0145.4816.4816,0,0,1,.1048.1572.4363.4363,0,0,1,.0234.0985.4973.4973,0,0,1-.0224.1915A.0314.0314,0,0,1,15.75,33.8922Z"/><path class="cls-5" d="M15.9008,33.8991a.4623.4623,0,0,0,.116-.15.4314.4314,0,0,0,.0295-.0968.5057.5057,0,0,0-.0112-.1926.0306.0306,0,0,0-.0526-.0177.5.5,0,0,0-.115.149.435.435,0,0,0-.03.096.4974.4974,0,0,0,.01.193A.0317.0317,0,0,0,15.9008,33.8991Z"/><path class="cls-5" d="M16.1972,34.3158a.451.451,0,0,1-.111-.1534.4238.4238,0,0,1-.0252-.0975.4965.4965,0,0,1,.0207-.1921.0316.0316,0,0,1,.0542-.0164.4717.4717,0,0,1,.11.1539.4164.4164,0,0,1,.026.0975.4866.4866,0,0,1-.0192.1921A.0321.0321,0,0,1,16.1972,34.3158Z"/><path class="cls-5" d="M16.351,34.3179a.4574.4574,0,0,0,.1149-.1505.4232.4232,0,0,0,.0282-.0968.5056.5056,0,0,0-.0153-.1926.0317.0317,0,0,0-.0539-.0178.478.478,0,0,0-.114.1509.4343.4343,0,0,0-.0286.0969.4894.4894,0,0,0,.0138.1925A.0323.0323,0,0,0,16.351,34.3179Z"/><path class="cls-5" d="M16.6605,34.7337a.47.47,0,0,1-.1158-.1536.4149.4149,0,0,1-.0276-.0976.4887.4887,0,0,1,.0171-.1921.0321.0321,0,0,1,.055-.0162.4861.4861,0,0,1,.1146.1532.4073.4073,0,0,1,.0282.0968.4806.4806,0,0,1-.0157.1926A.0326.0326,0,0,1,16.6605,34.7337Z"/><path class="cls-5" d="M16.8169,34.7318a.47.47,0,0,0,.1141-.1544.41.41,0,0,0,.0265-.0979.4884.4884,0,0,0-.019-.1919.0321.0321,0,0,0-.0552-.0158.4821.4821,0,0,0-.113.1543.4226.4226,0,0,0-.0272.0979.48.48,0,0,0,.0177.192A.0328.0328,0,0,0,16.8169,34.7318Z"/><path class="cls-5" d="M17.1221,34.3137a.4586.4586,0,0,1-.1169-.15.4219.4219,0,0,1-.0287-.0965.5022.5022,0,0,1,.0129-.1927.0317.0317,0,0,1,.0537-.0183.4756.4756,0,0,1,.1157.15.4257.4257,0,0,1,.03.0966.4916.4916,0,0,1-.0117.1926A.0322.0322,0,0,1,17.1221,34.3137Z"/><path class="cls-5" d="M17.2758,34.3106a.4523.4523,0,0,0,.1093-.1542.4312.4312,0,0,0,.0242-.0977.4963.4963,0,0,0-.0228-.1919.0317.0317,0,0,0-.0544-.016.4685.4685,0,0,0-.108.1546.4132.4132,0,0,0-.0249.0978.4884.4884,0,0,0,.0213.1919A.0322.0322,0,0,0,17.2758,34.3106Z"/><path class="cls-5" d="M17.5677,33.8891a.3931.3931,0,0,1-.1482-.2432.5028.5028,0,0,1,.0094-.1926.0309.0309,0,0,1,.0523-.0188.4688.4688,0,0,1,.1164.1462.4291.4291,0,0,1,.031.0958.4987.4987,0,0,1-.0078.193A.0315.0315,0,0,1,17.5677,33.8891Z"/><path class="cls-5" d="M17.7184,33.8811a.46.46,0,0,0,.1042-.1578.4255.4255,0,0,0,.0219-.0985.5063.5063,0,0,0-.026-.1913.0307.0307,0,0,0-.0538-.0141.4757.4757,0,0,0-.1031.1579.4406.4406,0,0,0-.0223.0986.4945.4945,0,0,0,.0245.1913A.0313.0313,0,0,0,17.7184,33.8811Z"/><path class="cls-5" d="M17.9968,33.4542a.4634.4634,0,0,1-.1185-.1461.4411.4411,0,0,1-.0319-.0957.52.52,0,0,1,.0052-.1932A.03.03,0,0,1,17.9027,33a.4773.4773,0,0,1,.1173.146.4372.4372,0,0,1,.0325.0957.5014.5014,0,0,1-.0038.1926A.0308.0308,0,0,1,17.9968,33.4542Z"/><path class="cls-6" d="M15.4143,34.5289a.4614.4614,0,0,0,.1221-.1467.4071.4071,0,0,0,.0319-.0958.4921.4921,0,0,0-.0078-.1932.0319.0319,0,0,0-.0537-.0191.4728.4728,0,0,0-.1208.1466.4139.4139,0,0,0-.0328.0958.4849.4849,0,0,0,.0065.1927A.0327.0327,0,0,0,15.4143,34.5289Z"/><path class="cls-6" d="M15.7109,34.9545a.4685.4685,0,0,1-.1112-.1572.43.43,0,0,1-.024-.0985.4867.4867,0,0,1,.0249-.1914.0324.0324,0,0,1,.056-.0144.4836.4836,0,0,1,.11.1574.4223.4223,0,0,1,.0248.0985.4768.4768,0,0,1-.0233.1915A.0331.0331,0,0,1,15.7109,34.9545Z"/><path class="cls-6" d="M15.8687,34.9618a.4666.4666,0,0,0,.1211-.15.4147.4147,0,0,0,.0307-.0968.4845.4845,0,0,0-.0119-.1926.0325.0325,0,0,0-.0551-.0178.5013.5013,0,0,0-.12.1489.4215.4215,0,0,0-.031.0959.4737.4737,0,0,0,.01.193A.0337.0337,0,0,0,15.8687,34.9618Z"/><path class="cls-6" d="M16.1788,35.3788a.4544.4544,0,0,1-.116-.1535.41.41,0,0,1-.0265-.0975.4789.4789,0,0,1,.0214-.1922.0334.0334,0,0,1,.0566-.0163.4731.4731,0,0,1,.1148.154.4046.4046,0,0,1,.0272.0975.4673.4673,0,0,1-.02.1921A.0341.0341,0,0,1,16.1788,35.3788Z"/><path class="cls-6" d="M16.3394,35.3809a.4594.4594,0,0,0,.12-.15.4068.4068,0,0,0,.0294-.0968.4808.4808,0,0,0-.0161-.1926.0335.0335,0,0,0-.0563-.0178.4783.4783,0,0,0-.1191.1509.4194.4194,0,0,0-.03.0968.4678.4678,0,0,0,.0146.1925A.0341.0341,0,0,0,16.3394,35.3809Z"/><path class="cls-6" d="M16.6626,35.7968a.4776.4776,0,0,1-.1208-.1536.4038.4038,0,0,1-.0288-.0976.4708.4708,0,0,1,.0178-.1921.034.034,0,0,1,.0575-.0162.4877.4877,0,0,1,.12.1532.3965.3965,0,0,1,.0294.0968.46.46,0,0,1-.0165.1926A.0345.0345,0,0,1,16.6626,35.7968Z"/><path class="cls-6" d="M16.826,35.7949a.475.475,0,0,0,.1192-.1545.4035.4035,0,0,0,.0277-.0979.4669.4669,0,0,0-.02-.1919.0341.0341,0,0,0-.0577-.0158.4868.4868,0,0,0-.1181.1544.42.42,0,0,0-.0284.0979.4607.4607,0,0,0,.0185.1919A.0348.0348,0,0,0,16.826,35.7949Z"/><path class="cls-6" d="M17.1449,35.3766a.4609.4609,0,0,1-.122-.15.41.41,0,0,1-.03-.0966.48.48,0,0,1,.0136-.1927.0335.0335,0,0,1,.0562-.0182.4791.4791,0,0,1,.1207.15.4091.4091,0,0,1,.0308.0966.47.47,0,0,1-.0124.1926A.034.034,0,0,1,17.1449,35.3766Z"/><path class="cls-6" d="M17.3053,35.3733a.4537.4537,0,0,0,.1145-.1544.4171.4171,0,0,0,.0254-.0977.4747.4747,0,0,0-.0235-.1919.0336.0336,0,0,0-.0569-.0159.4715.4715,0,0,0-.113.1548.4.4,0,0,0-.0262.0977.467.467,0,0,0,.0221.1919A.034.034,0,0,0,17.3053,35.3733Z"/><path class="cls-6" d="M17.611,34.9514a.4465.4465,0,0,1-.1228-.1465.43.43,0,0,1-.0317-.0965.4835.4835,0,0,1,.01-.1926.0328.0328,0,0,1,.0548-.0189.4672.4672,0,0,1,.1214.146.412.412,0,0,1,.0323.0957.48.48,0,0,1-.0085.193A.0335.0335,0,0,1,17.611,34.9514Z"/><path class="cls-6" d="M17.7686,34.943a.4631.4631,0,0,0,.1093-.158.41.41,0,0,0,.023-.0986.4856.4856,0,0,0-.0267-.1913.0326.0326,0,0,0-.0563-.014.4808.4808,0,0,0-.1081.1582.4279.4279,0,0,0-.0236.0987.4758.4758,0,0,0,.0253.1912A.0331.0331,0,0,0,17.7686,34.943Z"/><path class="cls-6" d="M18.0607,34.5153a.4611.4611,0,0,1-.1236-.1458.4172.4172,0,0,1-.0331-.0955.4914.4914,0,0,1,.0059-.1932.0318.0318,0,0,1,.0535-.02.4761.4761,0,0,1,.1223.1457.4141.4141,0,0,1,.0338.0955.4827.4827,0,0,1-.0045.1927A.0326.0326,0,0,1,18.0607,34.5153Z"/><path class="cls-5" d="M18.291,31.3021a.4163.4163,0,0,0,.1024-.2593.5663.5663,0,0,0-.03-.1907c-.0088-.026-.0324-.0321-.0484-.0124a.4764.4764,0,0,0-.0857.16.4708.4708,0,0,0-.0164.099.5583.5583,0,0,0,.0292.19C18.25,31.3156,18.2746,31.3217,18.291,31.3021Z"/><path class="cls-5" d="M18.599,31.6884a.4641.4641,0,0,1-.1153-.1426.4781.4781,0,0,1-.0329-.0947.5547.5547,0,0,1-.0022-.193c.0042-.0275.0269-.0377.0463-.0211a.4823.4823,0,0,1,.1141.143.467.467,0,0,1,.0335.0947.5449.5449,0,0,1,.0039.1927C18.6422,31.6949,18.6189,31.7051,18.599,31.6884Z"/><path class="cls-5" d="M18.736,31.6765a.4406.4406,0,0,0,.0857-.1605.4576.4576,0,0,0,.0142-.1.5526.5526,0,0,0-.0345-.19c-.0094-.0262-.0336-.0312-.05-.0118a.4643.4643,0,0,0-.0849.16.477.477,0,0,0-.0147.0989.543.543,0,0,0,.0331.19C18.6947,31.69,18.72,31.6964,18.736,31.6765Z"/><path class="cls-5" d="M19.0566,32.0559a.4468.4468,0,0,1-.12-.1385.4613.4613,0,0,1-.0352-.0935.5469.5469,0,0,1-.0058-.1931c.0038-.0277.0267-.0389.0467-.023a.4683.4683,0,0,1,.1185.1392.442.442,0,0,1,.0359.0936.5343.5343,0,0,1,.0073.1928C19.1006,32.0609,19.0771,32.072,19.0566,32.0559Z"/><path class="cls-5" d="M19.1957,32.0391a.4549.4549,0,0,0,.0844-.1632.46.46,0,0,0,.013-.0994.553.553,0,0,0-.0387-.1891c-.01-.0259-.0347-.0314-.0508-.0112a.4822.4822,0,0,0-.0834.1637.4686.4686,0,0,0-.0134.1.5335.5335,0,0,0,.0372.1892A.0286.0286,0,0,0,19.1957,32.0391Z"/><path class="cls-5" d="M19.529,32.4139a.4679.4679,0,0,1-.1246-.1383.439.439,0,0,1-.0374-.0935.5313.5313,0,0,1-.0094-.1925c.0035-.0275.0268-.0388.0475-.0227a.478.478,0,0,1,.1235.1383.4556.4556,0,0,1,.0381.0934.5218.5218,0,0,1,.0107.1924A.0292.0292,0,0,1,19.529,32.4139Z"/><path class="cls-5" d="M19.6706,32.3957a.4685.4685,0,0,0,.0831-.1668.448.448,0,0,0,.0112-.1.5316.5316,0,0,0-.0423-.188.0285.0285,0,0,0-.0519-.0091.4874.4874,0,0,0-.082.1664.4461.4461,0,0,0-.012.0994.5251.5251,0,0,0,.0411.1887A.029.029,0,0,0,19.6706,32.3957Z"/><path class="cls-5" d="M19.8918,31.9446a.4034.4034,0,0,1-.1637-.2266.5509.5509,0,0,1-.0134-.1926c.0028-.0278.0253-.04.046-.0245a.4742.4742,0,0,1,.1239.135.4559.4559,0,0,1,.04.0923.5381.5381,0,0,1,.0147.1924C19.9361,31.9481,19.913,31.96,19.8918,31.9446Z"/><path class="cls-5" d="M20.03,31.9233a.4532.4532,0,0,0,.0784-.1659.4656.4656,0,0,0,.0088-.1.5446.5446,0,0,0-.0459-.1876c-.0111-.0255-.0361-.03-.0512-.0094a.4694.4694,0,0,0-.077.1661.4476.4476,0,0,0-.01.1.5387.5387,0,0,0,.0444.1878A.0287.0287,0,0,0,20.03,31.9233Z"/><path class="cls-5" d="M20.2384,31.4737a.4607.4607,0,0,1-.1261-.1341.4794.4794,0,0,1-.04-.0922.5534.5534,0,0,1-.0171-.192c.0019-.0277.024-.0394.0446-.024a.4969.4969,0,0,1,.1246.1331.4627.4627,0,0,1,.0407.0913.55.55,0,0,1,.0188.1922C20.2817,31.4759,20.26,31.4884,20.2384,31.4737Z"/><path class="cls-5" d="M20.3732,31.4481a.4153.4153,0,0,0,.0792-.2687.5514.5514,0,0,0-.049-.1865c-.0115-.0254-.0361-.0291-.05-.0078a.4289.4289,0,0,0-.0787.2689.5435.5435,0,0,0,.0477.1867C20.3334,31.466,20.3586,31.47,20.3732,31.4481Z"/><path class="cls-5" d="M20.5667,30.9927a.42.42,0,0,1-.1679-.2221.5689.5689,0,0,1-.0213-.192c.0015-.0275.0226-.04.0432-.0251a.4753.4753,0,0,1,.1252.1312.4649.4649,0,0,1,.0421.0909.55.55,0,0,1,.0227.1913C20.6094,30.9947,20.5877,31.0071,20.5667,30.9927Z"/><path class="cls-6" d="M18.3762,32.3618a.46.46,0,0,0,.0919-.1608.4381.4381,0,0,0,.0167-.099.5368.5368,0,0,0-.0312-.1906c-.0091-.026-.0339-.0321-.0508-.0122a.4738.4738,0,0,0-.0907.16.4484.4484,0,0,0-.0176.0991.5315.5315,0,0,0,.03.19A.0291.0291,0,0,0,18.3762,32.3618Z"/><path class="cls-6" d="M18.6978,32.7469a.465.465,0,0,1-.12-.1422.4523.4523,0,0,1-.0341-.0946.5315.5315,0,0,1-.0016-.193c.0046-.0276.0285-.0379.0488-.0213a.4827.4827,0,0,1,.1191.1425.4523.4523,0,0,1,.0348.0946.52.52,0,0,1,.0032.1928A.03.03,0,0,1,18.6978,32.7469Z"/><path class="cls-6" d="M18.8416,32.7344a.4012.4012,0,0,0,.1062-.2609.527.527,0,0,0-.0352-.19.0292.0292,0,0,0-.0521-.0115.4634.4634,0,0,0-.09.16.4546.4546,0,0,0-.0159.099.5159.5159,0,0,0,.0338.19A.03.03,0,0,0,18.8416,32.7344Z"/><path class="cls-6" d="M19.1758,33.1123a.4481.4481,0,0,1-.1247-.1379.44.44,0,0,1-.0364-.0935.52.52,0,0,1-.0051-.1931.03.03,0,0,1,.0492-.0232.47.47,0,0,1,.1236.1386.4381.4381,0,0,1,.037.0934.5107.5107,0,0,1,.0066.1929A.03.03,0,0,1,19.1758,33.1123Z"/><path class="cls-6" d="M19.3217,33.0947a.4552.4552,0,0,0,.09-.1638.444.444,0,0,0,.0142-.0995.5278.5278,0,0,0-.0394-.1891.03.03,0,0,0-.0532-.0108.48.48,0,0,0-.0885.1642.4536.4536,0,0,0-.0146.1.51.51,0,0,0,.0379.1891A.03.03,0,0,0,19.3217,33.0947Z"/><path class="cls-6" d="M19.6686,33.4678a.4691.4691,0,0,1-.13-.1376.4174.4174,0,0,1-.0387-.0934.51.51,0,0,1-.0087-.1926.03.03,0,0,1,.05-.023.4784.4784,0,0,1,.1285.1376.4481.4481,0,0,1,.0394.0933.5.5,0,0,1,.01.1925A.0309.0309,0,0,1,19.6686,33.4678Z"/><path class="cls-6" d="M19.817,33.4487a.47.47,0,0,0,.0881-.1675.4347.4347,0,0,0,.0125-.1.5086.5086,0,0,0-.0431-.188.03.03,0,0,0-.0542-.0086.4861.4861,0,0,0-.0871.167.4326.4326,0,0,0-.0132.1.5051.5051,0,0,0,.0417.1887A.0309.0309,0,0,0,19.817,33.4487Z"/><path class="cls-6" d="M20.0519,32.9956a.452.452,0,0,1-.13-.1336.4356.4356,0,0,1-.04-.0921.5282.5282,0,0,1-.0128-.1927.03.03,0,0,1,.0485-.0249.4749.4749,0,0,1,.129.1343.4363.4363,0,0,1,.0406.0921.5118.5118,0,0,1,.014.1925A.03.03,0,0,1,20.0519,32.9956Z"/><path class="cls-6" d="M20.197,32.9732a.3958.3958,0,0,0,.0935-.2665.5177.5177,0,0,0-.0466-.1874A.03.03,0,0,0,20.19,32.51a.47.47,0,0,0-.0821.1669.4334.4334,0,0,0-.0107.1.5077.5077,0,0,0,.0452.1877A.03.03,0,0,0,20.197,32.9732Z"/><path class="cls-6" d="M20.4188,32.5214a.409.409,0,0,1-.1726-.2252.53.53,0,0,1-.0164-.1922.0288.0288,0,0,1,.0471-.0244.4984.4984,0,0,1,.13.1323.4532.4532,0,0,1,.042.091.527.527,0,0,1,.018.1924A.03.03,0,0,1,20.4188,32.5214Z"/><path class="cls-6" d="M20.56,32.4946a.4645.4645,0,0,0,.0778-.1694.4443.4443,0,0,0,.0077-.1.53.53,0,0,0-.05-.1864.029.029,0,0,0-.0528-.0073.4781.4781,0,0,0-.0767.1694.4624.4624,0,0,0-.0082.1006.5173.5173,0,0,0,.0485.1865A.0294.0294,0,0,0,20.56,32.4946Z"/><path class="cls-6" d="M20.7674,32.0367a.46.46,0,0,1-.1314-.13.4523.4523,0,0,1-.0427-.0909.5371.5371,0,0,1-.0206-.1921c.0019-.0275.0241-.04.0456-.0255a.4728.4728,0,0,1,.13.13.4507.4507,0,0,1,.0434.0907.5262.5262,0,0,1,.0219.1914C20.8121,32.0383,20.7893,32.0509,20.7674,32.0367Z"/><path class="cls-5" d="M18.4614,33.4215a.4614.4614,0,0,0,.0969-.1612.4142.4142,0,0,0,.0179-.0991.5113.5113,0,0,0-.0319-.1906.03.03,0,0,0-.0533-.012.4769.4769,0,0,0-.0957.161.4384.4384,0,0,0-.0189.0992.5076.5076,0,0,0,.0307.19A.0308.0308,0,0,0,18.4614,33.4215Z"/><path class="cls-5" d="M18.7967,33.8054a.4629.4629,0,0,1-.1254-.1417.4356.4356,0,0,1-.0354-.0945.508.508,0,0,1-.0008-.1931.0307.0307,0,0,1,.0512-.0215.4821.4821,0,0,1,.1242.142.4335.4335,0,0,1,.036.0945.4978.4978,0,0,1,.0024.1929A.0313.0313,0,0,1,18.7967,33.8054Z"/><path class="cls-5" d="M18.9472,33.7922a.4428.4428,0,0,0,.0958-.1616.43.43,0,0,0,.0167-.1.5052.5052,0,0,0-.036-.1894.031.031,0,0,0-.0545-.0113.4655.4655,0,0,0-.0949.161.43.43,0,0,0-.0171.0992.4959.4959,0,0,0,.0344.19A.0317.0317,0,0,0,18.9472,33.7922Z"/><path class="cls-5" d="M19.2951,34.1687a.4477.4477,0,0,1-.13-.1374.4322.4322,0,0,1-.0377-.0933.4991.4991,0,0,1-.0043-.1932.0317.0317,0,0,1,.0516-.0235.47.47,0,0,1,.1286.138.4163.4163,0,0,1,.0383.0933.4879.4879,0,0,1,.0059.1931A.0322.0322,0,0,1,19.2951,34.1687Z"/><path class="cls-5" d="M19.4478,34.15a.4565.4565,0,0,0,.0944-.1645.42.42,0,0,0,.0154-.1.5.5,0,0,0-.04-.1889.0316.0316,0,0,0-.0556-.0106.4806.4806,0,0,0-.0935.1648.4347.4347,0,0,0-.0158.1.4867.4867,0,0,0,.0386.1891A.0322.0322,0,0,0,19.4478,34.15Z"/><path class="cls-5" d="M19.8083,34.5217a.4725.4725,0,0,1-.1347-.137.42.42,0,0,1-.04-.0932.49.49,0,0,1-.0079-.1927.0322.0322,0,0,1,.0525-.0233.4807.4807,0,0,1,.1335.137.4269.4269,0,0,1,.04.093.4765.4765,0,0,1,.0092.1926A.0327.0327,0,0,1,19.8083,34.5217Z"/><path class="cls-5" d="M19.9635,34.5017a.4736.4736,0,0,0,.0931-.1683.4159.4159,0,0,0,.0136-.1.487.487,0,0,0-.0437-.1879.0321.0321,0,0,0-.0567-.0083.4857.4857,0,0,0-.0921.1678.419.419,0,0,0-.0145.1.4841.4841,0,0,0,.0425.1886A.0327.0327,0,0,0,19.9635,34.5017Z"/><path class="cls-5" d="M20.212,34.0466a.4572.4572,0,0,1-.1353-.1328.4233.4233,0,0,1-.0409-.092.499.499,0,0,1-.0121-.1928.0317.0317,0,0,1,.0508-.0252.4752.4752,0,0,1,.1341.1335.4314.4314,0,0,1,.0418.0919.492.492,0,0,1,.0133.1926A.0322.0322,0,0,1,20.212,34.0466Z"/><path class="cls-5" d="M20.3638,34.0231a.4545.4545,0,0,0,.0885-.1674.4363.4363,0,0,0,.0113-.1.4957.4957,0,0,0-.0474-.1874A.0318.0318,0,0,0,20.36,33.56a.4752.4752,0,0,0-.087.1677.4159.4159,0,0,0-.012.1.49.49,0,0,0,.0459.1875A.0322.0322,0,0,0,20.3638,34.0231Z"/><path class="cls-5" d="M20.5991,33.5691a.4633.4633,0,0,1-.1361-.1324.443.443,0,0,1-.0427-.0918.5058.5058,0,0,1-.0156-.1922.0305.0305,0,0,1,.05-.0249.4984.4984,0,0,1,.1346.1315.4278.4278,0,0,1,.0432.0908.5051.5051,0,0,1,.0173.1924A.0317.0317,0,0,1,20.5991,33.5691Z"/><path class="cls-5" d="M20.7475,33.5411a.463.463,0,0,0,.0828-.17.4257.4257,0,0,0,.0089-.1007.5067.5067,0,0,0-.05-.1862.0308.0308,0,0,0-.0553-.0069.48.48,0,0,0-.0817.17.4423.4423,0,0,0-.0094.1008.4962.4962,0,0,0,.0491.1865A.0313.0313,0,0,0,20.7475,33.5411Z"/><path class="cls-5" d="M20.9681,33.0807a.46.46,0,0,1-.1364-.1292.4338.4338,0,0,1-.044-.0906.5172.5172,0,0,1-.02-.1923.03.03,0,0,1,.048-.0259.4733.4733,0,0,1,.1353.1292.4349.4349,0,0,1,.0445.09.501.501,0,0,1,.0212.1916A.0308.0308,0,0,1,20.9681,33.0807Z"/><path class="cls-6" d="M18.5465,34.4812a.4639.4639,0,0,0,.1021-.1616.4134.4134,0,0,0,.0191-.0993.49.49,0,0,0-.0327-.1905.0319.0319,0,0,0-.0557-.0118.4747.4747,0,0,0-.1007.1614.4159.4159,0,0,0-.02.0993.4867.4867,0,0,0,.0313.19A.0327.0327,0,0,0,18.5465,34.4812Z"/><path class="cls-6" d="M18.8955,34.8639a.4684.4684,0,0,1-.13-.1412.428.428,0,0,1-.0365-.0944.4851.4851,0,0,1,0-.1932.0325.0325,0,0,1,.0536-.0217.4839.4839,0,0,1,.1292.1415.4171.4171,0,0,1,.0373.0944.4788.4788,0,0,1,.0017.1929A.0333.0333,0,0,1,18.8955,34.8639Z"/><path class="cls-6" d="M19.0528,34.85a.4475.4475,0,0,0,.1009-.1621.4128.4128,0,0,0,.0179-.1.4821.4821,0,0,0-.0367-.1893.0328.0328,0,0,0-.0569-.0111.47.47,0,0,0-.1.1616.4266.4266,0,0,0-.0183.0992.4722.4722,0,0,0,.0353.19A.0335.0335,0,0,0,19.0528,34.85Z"/><path class="cls-6" d="M19.4144,35.2251a.4526.4526,0,0,1-.1349-.1368.4109.4109,0,0,1-.0388-.0932.4773.4773,0,0,1-.0037-.1933.0336.0336,0,0,1,.0541-.0238.4734.4734,0,0,1,.1336.1375.4012.4012,0,0,1,.04.0932.468.468,0,0,1,.0052.1931A.0341.0341,0,0,1,19.4144,35.2251Z"/><path class="cls-6" d="M19.5738,35.206a.46.46,0,0,0,.1-.1651.4094.4094,0,0,0,.0167-.1.4815.4815,0,0,0-.0409-.1889.0335.0335,0,0,0-.0581-.01.4835.4835,0,0,0-.0985.1655.4256.4256,0,0,0-.0171.1.47.47,0,0,0,.0394.189A.0341.0341,0,0,0,19.5738,35.206Z"/><path class="cls-6" d="M19.9479,35.5755a.4742.4742,0,0,1-.14-.1362.3965.3965,0,0,1-.0411-.0931.4687.4687,0,0,1-.0073-.1928.034.034,0,0,1,.0549-.0236.4811.4811,0,0,1,.1385.1363.4121.4121,0,0,1,.0418.0929.4575.4575,0,0,1,.0084.1927A.0345.0345,0,0,1,19.9479,35.5755Z"/><path class="cls-6" d="M20.11,35.5546a.4765.4765,0,0,0,.0982-.1689.4052.4052,0,0,0,.0148-.1007.4674.4674,0,0,0-.0445-.1878.0339.0339,0,0,0-.0591-.0079.4889.4889,0,0,0-.0971.1684.3986.3986,0,0,0-.0156.1.4614.4614,0,0,0,.0432.1885A.0345.0345,0,0,0,20.11,35.5546Z"/><path class="cls-6" d="M20.372,35.0976a.4587.4587,0,0,1-.14-.1321.41.41,0,0,1-.0422-.0918.4821.4821,0,0,1-.0114-.1929.0337.0337,0,0,1,.0534-.0255.4776.4776,0,0,1,.139.1327.4108.4108,0,0,1,.0431.0917.47.47,0,0,1,.0125.1927A.034.034,0,0,1,20.372,35.0976Z"/><path class="cls-6" d="M20.5306,35.0731a.4585.4585,0,0,0,.0935-.1683.4136.4136,0,0,0,.0125-.1.4731.4731,0,0,0-.0481-.1872.0335.0335,0,0,0-.0584-.0083.4713.4713,0,0,0-.092.1685.3942.3942,0,0,0-.0133.1.4681.4681,0,0,0,.0466.1874A.034.034,0,0,0,20.5306,35.0731Z"/><path class="cls-6" d="M20.78,34.6168a.4668.4668,0,0,1-.1412-.1316.43.43,0,0,1-.0438-.0915.4853.4853,0,0,1-.015-.1924.0324.0324,0,0,1,.052-.0253.5.5,0,0,1,.14.1306.4143.4143,0,0,1,.0445.0906.4826.4826,0,0,1,.0166.1926A.0336.0336,0,0,1,20.78,34.6168Z"/><path class="cls-6" d="M20.9346,34.5876a.4664.4664,0,0,0,.0879-.1713.4123.4123,0,0,0,.01-.1008.4852.4852,0,0,0-.0512-.1861.0326.0326,0,0,0-.0576-.0065.4821.4821,0,0,0-.0868.1713.4339.4339,0,0,0-.0106.101.4755.4755,0,0,0,.05.1863A.033.033,0,0,0,20.9346,34.5876Z"/><path class="cls-6" d="M21.1688,34.1246a.46.46,0,0,1-.1414-.1281.4245.4245,0,0,1-.0452-.09.493.493,0,0,1-.0191-.1924.0318.0318,0,0,1,.05-.0264.4738.4738,0,0,1,.14.1282.4119.4119,0,0,1,.0457.09.4819.4819,0,0,1,.0206.1917A.0326.0326,0,0,1,21.1688,34.1246Z"/><path class="cls-5" d="M20.981,30.91a.419.419,0,0,0,.0676-.2708.56.56,0,0,0-.055-.1851c-.012-.0246-.0362-.0276-.0494-.0058a.4752.4752,0,0,0-.0639.17.4664.4664,0,0,0-.0034.1.5548.5548,0,0,0,.0535.1849C20.9425,30.9285,20.9673,30.9314,20.981,30.91Z"/><path class="cls-5" d="M21.336,31.2518a.4607.4607,0,0,1-.1327-.1261.4747.4747,0,0,1-.0448-.09.5566.5566,0,0,1-.0273-.191c.0006-.0279.0217-.0411.0431-.0271a.4792.4792,0,0,1,.1315.1266.4677.4677,0,0,1,.0455.0895.5436.5436,0,0,1,.0289.1906C21.38,31.2525,21.3579,31.2657,21.336,31.2518Z"/><path class="cls-5" d="M21.47,31.2218a.4077.4077,0,0,0,.0654-.27.5615.5615,0,0,0-.0589-.184c-.0128-.0249-.0377-.0277-.0509-.006a.4661.4661,0,0,0-.0632.17.4708.4708,0,0,0-.0017.1.5453.5453,0,0,0,.0574.1842C21.431,31.241,21.4563,31.2437,21.47,31.2218Z"/><path class="cls-5" d="M21.8375,31.558a.4434.4434,0,0,1-.1366-.1214.4509.4509,0,0,1-.047-.0885.5427.5427,0,0,1-.0309-.19c0-.0279.0213-.0421.0433-.029a.4656.4656,0,0,1,.1354.1222.4549.4549,0,0,1,.0477.088.5378.5378,0,0,1,.0324.19C21.8816,31.557,21.86,31.5711,21.8375,31.558Z"/><path class="cls-5" d="M21.9729,31.5227a.4565.4565,0,0,0,.0622-.1731.4494.4494,0,0,0,0-.1.5519.5519,0,0,0-.0629-.1824c-.0134-.0244-.0385-.0265-.0517-.0043a.4839.4839,0,0,0-.0613.1734.4763.4763,0,0,0,0,.1006.5323.5323,0,0,0,.0615.1827A.0285.0285,0,0,0,21.9729,31.5227Z"/><path class="cls-5" d="M22.3517,31.85a.4661.4661,0,0,1-.1414-.1205.4461.4461,0,0,1-.0493-.0877.5386.5386,0,0,1-.0344-.19c0-.0277.0215-.042.0442-.0288a.4768.4768,0,0,1,.14.1207.4555.4555,0,0,1,.05.0875.5217.5217,0,0,1,.0356.1895A.0291.0291,0,0,1,22.3517,31.85Z"/><path class="cls-5" d="M22.539,31.4944c-.0148.1036-.03.2072-.0474.3109l-.003.0088c-.0118.0237-.0384.0208-.0533-.0029A.432.432,0,0,1,22.37,31.53a.4774.4774,0,0,1,.0592-.1746c.0119-.0237.0385-.0208.0533.0029A.5543.5543,0,0,1,22.539,31.4944Z"/><path class="cls-5" d="M22.5982,31.03c-.0089.0829-.0208.1688-.03.2516a.2766.2766,0,0,1-.0592-.0592.3569.3569,0,0,1-.05-.0858.51.51,0,0,1-.0386-.1895c0-.03.0208-.0444.0415-.03A.4389.4389,0,0,1,22.5982,31.03Z"/><path class="cls-6" d="M21.2028,31.9494a.4609.4609,0,0,0,.07-.1717.4379.4379,0,0,0,.0037-.1005.5363.5363,0,0,0-.0557-.1849.0283.0283,0,0,0-.0519-.0053.4766.4766,0,0,0-.0689.1713.4446.4446,0,0,0-.0046.1007.53.53,0,0,0,.0543.1848A.0289.0289,0,0,0,21.2028,31.9494Z"/><path class="cls-6" d="M21.5714,32.2885a.4612.4612,0,0,1-.1376-.1249.4547.4547,0,0,1-.0461-.0893.529.529,0,0,1-.0266-.1913c.0009-.0279.0232-.0413.0455-.0276a.479.479,0,0,1,.1365.1255.4452.4452,0,0,1,.0467.0892.5189.5189,0,0,1,.0282.1908A.03.03,0,0,1,21.5714,32.2885Z"/><path class="cls-6" d="M21.7121,32.257a.45.45,0,0,0,.0692-.1712.4359.4359,0,0,0,.0025-.1.5328.5328,0,0,0-.06-.1838c-.0132-.0248-.0392-.0274-.0534-.0055a.4684.4684,0,0,0-.0681.1712.4539.4539,0,0,0-.0029.1.5179.5179,0,0,0,.0582.1841A.03.03,0,0,0,21.7121,32.257Z"/><path class="cls-6" d="M22.093,32.59a.445.445,0,0,1-.1415-.12.44.44,0,0,1-.0483-.0881.52.52,0,0,1-.03-.1907c0-.0279.0228-.0425.0456-.0295a.4659.4659,0,0,1,.14.1209.432.432,0,0,1,.0489.0878.5089.5089,0,0,1,.0317.1905A.0305.0305,0,0,1,22.093,32.59Z"/><path class="cls-6" d="M22.2353,32.5529a.4568.4568,0,0,0,.0672-.1744.44.44,0,0,0,.0011-.1006.5253.5253,0,0,0-.0637-.1823.03.03,0,0,0-.0541-.0036.4811.4811,0,0,0-.0662.1747.4585.4585,0,0,0-.0015.1008.51.51,0,0,0,.0622.1825A.03.03,0,0,0,22.2353,32.5529Z"/><path class="cls-5" d="M21.4247,32.9891a.4623.4623,0,0,0,.0751-.1728.4186.4186,0,0,0,.005-.1007.5127.5127,0,0,0-.0564-.1847.03.03,0,0,0-.0543-.0049.4742.4742,0,0,0-.0739.1724.4361.4361,0,0,0-.0059.101.5075.5075,0,0,0,.055.1846A.0308.0308,0,0,0,21.4247,32.9891Z"/><path class="cls-5" d="M21.8068,33.3252a.4621.4621,0,0,1-.1427-.1238.4435.4435,0,0,1-.0472-.089.5055.5055,0,0,1-.0259-.1914.0307.0307,0,0,1,.0479-.0282.48.48,0,0,1,.1415.1243.424.424,0,0,1,.0479.089.4979.4979,0,0,1,.0275.1909A.0314.0314,0,0,1,21.8068,33.3252Z"/><path class="cls-5" d="M21.9543,33.2921a.4512.4512,0,0,0,.0741-.1723.4225.4225,0,0,0,.0038-.1.5061.5061,0,0,0-.0605-.1836.0309.0309,0,0,0-.0556-.005.4668.4668,0,0,0-.0732.1724.4393.4393,0,0,0-.0041.1006.4929.4929,0,0,0,.0589.1839A.0316.0316,0,0,0,21.9543,33.2921Z"/><path class="cls-5" d="M22.2222,33.2234c-.0178.074-.0326.1509-.0533.225a.3033.3033,0,0,1-.0148-.0326.4418.4418,0,0,1-.03-.1924.0314.0314,0,0,1,.0473-.03C22.1866,33.2026,22.2044,33.2115,22.2222,33.2234Z"/><path class="cls-6" d="M21.6466,34.0288a.4648.4648,0,0,0,.08-.1739.4106.4106,0,0,0,.0062-.1009.4909.4909,0,0,0-.0572-.1846.0317.0317,0,0,0-.0567-.0043.4768.4768,0,0,0-.0789.1735.4166.4166,0,0,0-.0071.1011.4874.4874,0,0,0,.0557.1845A.0327.0327,0,0,0,21.6466,34.0288Z"/><path class="cls-6" d="M22.0179,34.0523c-.0207.0829-.0444.1658-.0681.2457a.3578.3578,0,0,1-.0563-.0592.4263.4263,0,0,1-.0473-.0888.5409.5409,0,0,1-.0267-.1924.0321.0321,0,0,1,.05-.0267A.4708.4708,0,0,1,22.0179,34.0523Z"/></g></g></g></g></g></g></svg>