<svg xmlns="http://www.w3.org/2000/svg" width="132" height="166.5" viewBox="0 0 132 166.5"><defs><style>.cls-1{fill:#76a017;}.cls-2{fill:#ff3b40;}.cls-3{fill:#87b71a;}.cls-4{fill:#ebf0f0;}.cls-5{fill:#ff8588;}.cls-6{fill:#424242;}.cls-7{fill:#ffd3d5;}</style></defs><g id="Layer_2" data-name="Layer 2"><g id="Layer_1-2" data-name="Layer 1"><path class="cls-1" d="M87.9066,134.8833a28.5477,28.5477,0,0,0-1.8441-5.3243c-2.5964-5.6071-5.6191-7.2976-8.1319-12.962a31.8359,31.8359,0,0,1-2.1942-16.8823l-.318.0852-12.722,3.4088-.318.0852a31.8376,31.8376,0,0,1,6.5409,15.7177c.6561,6.1619-1.1165,9.1372-.5614,15.2913a28.5466,28.5466,0,0,0,1.0648,5.532l.0152.0493A36.5149,36.5149,0,0,0,75.19,151.1073l.3179-.0852L88.23,147.6132l.3179-.0852a36.5138,36.5138,0,0,0-.63-12.5967Z"/><circle class="cls-2" cx="82.6275" cy="152.9966" r="13.5" transform="translate(-59.6488 53.0331) rotate(-26.5363)"/><path class="cls-1" d="M44.0934,134.8833a28.5477,28.5477,0,0,1,1.8441-5.3243c2.5964-5.6071,5.6191-7.2976,8.1319-12.962a31.8359,31.8359,0,0,0,2.1942-16.8823l.318.0852,12.722,3.4088.318.0852a31.8376,31.8376,0,0,0-6.5409,15.7177c-.6561,6.1619,1.1165,9.1372.5614,15.2913a28.5466,28.5466,0,0,1-1.0648,5.532l-.0152.0493A36.5149,36.5149,0,0,1,56.81,151.1073l-.3179-.0852L43.77,147.6132l-.3179-.0852a36.5138,36.5138,0,0,1,.63-12.5967Z"/><circle class="cls-2" cx="49.3725" cy="152.9966" r="13.5" transform="translate(-109.5641 128.8143) rotate(-63.4637)"/><path class="cls-3" d="M97.4758,115.3114a108.4046,108.4046,0,0,1-62.9516,0,25.672,25.672,0,0,1-13.6967-39.316L21,75.75a78.2605,78.2605,0,0,0,90,0l.1725.2454A25.672,25.672,0,0,1,97.4758,115.3114Z"/><path class="cls-4" d="M119.779,40.7436C112.7768,55.76,102.3323,59.0891,93.3226,54.8879S80.15,40.5455,87.1519,25.5293s29.76-28.327,31.5278-25.02S126.7811,25.7274,119.779,40.7436Z"/><path class="cls-5" d="M119.779,40.7435a39.7831,39.7831,0,0,1-4.469,7.485,17.3276,17.3276,0,0,1-4.6-1.4094c-9.01-4.2013-13.0613-14.5815-5.81-30.1311,2.8177-6.0426,8.0271-11.8469,13.4445-16.4941a.8231.8231,0,0,1,.3359.3154C120.4477,3.8164,126.7812,25.7273,119.779,40.7435Z"/><path class="cls-4" d="M12.221,40.7436C19.2232,55.76,29.6677,59.0891,38.6774,54.8879S51.85,40.5455,44.8481,25.5293,15.0884-2.7977,13.32.5094,5.2189,25.7274,12.221,40.7436Z"/><path class="cls-5" d="M12.221,40.7435a39.7831,39.7831,0,0,0,4.469,7.485,17.3276,17.3276,0,0,0,4.6-1.4094c9.01-4.2013,13.0613-14.5815,5.81-30.1311C24.283,10.6454,19.0736,4.8411,13.6562.1939A.8231.8231,0,0,0,13.32.5093C11.5523,3.8164,5.2188,25.7273,12.221,40.7435Z"/><path class="cls-4" d="M112.2887,34.6431c-.5437-1.0229-.8752-2.1065-1.42-3.0483C102.353,16.8582,84.09,9.34,66,9c-18.09.34-36.353,7.8582-44.8691,22.5948-.5444.9418-.8759,2.0254-1.42,3.0483C15.1989,43.1325,8.3438,48.9191,6,50.0319,6.5969,54.6787,10.437,79.9,24.8506,90.9781a58.6073,58.6073,0,0,0,25.5531,11.3774A22.5567,22.5567,0,0,1,61.6574,108,14.6243,14.6243,0,0,1,66,103.5392,14.6243,14.6243,0,0,1,70.3426,108a22.5567,22.5567,0,0,1,11.2537-5.6445,58.6073,58.6073,0,0,0,25.5531-11.3774C121.563,79.9,125.4031,54.6787,126,50.0319,123.6562,48.9191,116.8011,43.1325,112.2887,34.6431Z"/><path class="cls-6" d="M51,60.6511a.75.75,0,0,1-.75-.75,7.0115,7.0115,0,0,0-6.75-7.2319,7.0115,7.0115,0,0,0-6.75,7.2319.75.75,0,0,1-1.5,0,8.5113,8.5113,0,0,1,8.25-8.7319,8.5113,8.5113,0,0,1,8.25,8.7319A.75.75,0,0,1,51,60.6511Z"/><path class="cls-6" d="M96,60.6511a.75.75,0,0,1-.75-.75,6.7661,6.7661,0,1,0-13.5,0,.75.75,0,0,1-1.5,0,8.2633,8.2633,0,1,1,16.5,0A.75.75,0,0,1,96,60.6511Z"/><ellipse class="cls-7" cx="94.5" cy="78.75" rx="9" ry="6.75"/><ellipse class="cls-7" cx="39" cy="78.75" rx="9" ry="6.75"/><path class="cls-6" d="M41.0961,73.9517A70.534,70.534,0,0,0,20.5,70.5367,69.3672,69.3672,0,0,0,0,73.2977,68.6474,68.6474,0,0,1,40.22,76.404a1.3028,1.3028,0,1,0,.9547-2.4244C41.15,73.97,41.1207,73.96,41.0961,73.9517Z"/><path class="cls-6" d="M39.1567,79.2949A54.4653,54.4653,0,0,0,9,90a53.1827,53.1827,0,0,1,30.1715-8.1457,1.2808,1.2808,0,1,0,.0954-2.56c-.0335-.0013-.0666-.0012-.0995,0Z"/><path class="cls-6" d="M90.9039,73.9567A70.5373,70.5373,0,0,1,111.5,70.5417a69.37,69.37,0,0,1,20.5,2.761,68.6463,68.6463,0,0,0-40.2195,3.1064,1.3028,1.3028,0,0,1-.9547-2.4245C90.85,73.975,90.8793,73.9647,90.9039,73.9567Z"/><path class="cls-6" d="M92.8433,79.2951A54.4653,54.4653,0,0,1,123,90a53.1827,53.1827,0,0,0-30.1715-8.1457,1.2808,1.2808,0,0,1-.0954-2.56c.0335-.0012.0666-.0011.1,0Z"/><path class="cls-6" d="M72,84.2468a6.7573,6.7573,0,0,1-6.75-6.75.75.75,0,0,1,1.5,0,5.25,5.25,0,1,0,10.5,0,.75.75,0,0,1,1.5,0A6.7573,6.7573,0,0,1,72,84.2468Z"/><path class="cls-6" d="M60,84.2468a6.7573,6.7573,0,0,1-6.75-6.75.75.75,0,0,1,1.5,0,5.25,5.25,0,1,0,10.5,0,.75.75,0,0,1,1.5,0A6.7573,6.7573,0,0,1,60,84.2468Z"/><path class="cls-6" d="M66,79.7468a.75.75,0,0,1-.75-.75v-9a.75.75,0,0,1,1.5,0v9A.75.75,0,0,1,66,79.7468Z"/><path class="cls-5" d="M73.5,66.9974c0,3.3137-3.3579,6-7.5,6s-7.5-2.6863-7.5-6c0-3.0824,3.3579-3,7.5-3S73.5,63.6837,73.5,66.9974Z"/></g></g></svg>