<svg xmlns="http://www.w3.org/2000/svg" width="22.285" height="51.0332" viewBox="0 0 22.285 51.0332"><defs><style>.cls-1{isolation:isolate;}.cls-11,.cls-2{mix-blend-mode:multiply;}.cls-3{fill:#353535;}.cls-4{fill:#c0a975;}.cls-5{fill:#dec999;}.cls-6{fill:none;stroke:#efddaf;stroke-linecap:round;stroke-miterlimit:10;stroke-width:0.2601px;}.cls-7{fill:#f08b88;}.cls-8{fill:#42958f;}.cls-9{fill:#fa4751;}.cls-10{fill:#fff;}.cls-11{fill:#dbc1bb;}.cls-12{fill:#00bdb8;}.cls-13{fill:#dd6c49;}</style></defs><g class="cls-1"><g id="Layer_2" data-name="Layer 2"><g id="Layer_1-2" data-name="Layer 1"><g id="New_Symbol" data-name="New Symbol" class="cls-2"><g id="New_Symbol_10" data-name="New Symbol 10"><path class="cls-3" d="M19.99,24.0705c-.0508.1241-.1043.2453-.1608.3694L16.01,20.3924,14.2219,18.5s2.5188-4.3042,5.974-5.7963l.0057.0085C20.32,12.9235,22.8388,17.4872,19.99,24.0705Z"/><path class="cls-4" d="M19.99,24.0705l-3.98-3.6781c.4146-1.8616,1.8954-6.1375,4.1857-7.6889l.0057.0085C20.32,12.9235,22.8388,17.4872,19.99,24.0705Z"/><path class="cls-3" d="M1.7585,24.0705c.0507.1241.1043.2453.1607.3694l3.8191-4.0475L7.5265,18.5s-2.5187-4.3042-5.9739-5.7963l-.0057.0085C1.4285,12.9235-1.09,17.4872,1.7585,24.0705Z"/><path class="cls-4" d="M1.7585,24.0705l3.98-3.6781c-.4146-1.8616-1.8954-6.1375-4.1857-7.6889l-.0057.0085C1.4285,12.9235-1.09,17.4872,1.7585,24.0705Z"/><path class="cls-3" d="M21.5357,28.6144a8.9112,8.9112,0,0,1-.3075,2.3213,10.329,10.329,0,0,1-10.1456,7.2884C5.3089,38.2241.63,33.92.63,28.6144c0-5.3083,4.6793-11.9028,10.453-11.9028a7.7718,7.7718,0,0,1,2.3552.3695C18.0777,18.5365,21.5357,24.0507,21.5357,28.6144Z"/><path class="cls-5" d="M21.5357,28.6144a8.9112,8.9112,0,0,1-.3075,2.3213c-2.8459-.6854-5.7981-.9892-7.3884-4.6083a14.1253,14.1253,0,0,1-.402-9.2463C18.0777,18.5365,21.5357,24.0507,21.5357,28.6144Z"/><path class="cls-6" d="M11.0454,28.4218c-.0465.8113.148,1.7615,1.1562,1.7924a1.2568,1.2568,0,0,0,1.1991-.8432"/><path class="cls-6" d="M11.1006,28.4218c.0465.8113-.148,1.7615-1.1562,1.7924a1.2568,1.2568,0,0,1-1.1991-.8432"/><path class="cls-7" d="M12.04,27.7683a3.5487,3.5487,0,0,1-.4281.4244c-.1867.1677-.3927.3178-.5879.4757a6.488,6.488,0,0,1-.507-.41,1.9694,1.9694,0,0,1-.5426-.5968.5244.5244,0,0,1,.1366-.6293.6581.6581,0,0,1,.5274-.0451,2.0793,2.0793,0,0,0,.5326.1094,2.669,2.669,0,0,0,.4428-.0857.5454.5454,0,0,1,.434.0625.4456.4456,0,0,1,.0935.5355A.87.87,0,0,1,12.04,27.7683Z"/><path class="cls-8" d="M17.6214,25.8467a.8438.8438,0,1,1-.8438-.8439A.8438.8438,0,0,1,17.6214,25.8467Z"/><path class="cls-8" d="M6.9033,25.8467a.8438.8438,0,1,1-.8438-.8439A.8438.8438,0,0,1,6.9033,25.8467Z"/><path class="cls-9" d="M21.9568,37.319a4.1586,4.1586,0,0,1-.5049.8716,5.1305,5.1305,0,0,1-1.588,1.3877,8.8275,8.8275,0,0,1-1.85.79,14.07,14.07,0,0,1-1.4921.3751c-.55.11-1.1254.1974-1.7234.268-.4654.0564-.9449.0987-1.4328.1354-.1975.0141-.395.0282-.5952.0394-.3413.02-.708.0367-1.0943.0452-.4457.0113-.9224.0113-1.4132,0-.55-.0141-1.1225-.0423-1.7036-.0931-.4682-.0423-.9421-.0959-1.4131-.1664-.5924-.0875-1.1846-.2031-1.7572-.347a12.9836,12.9836,0,0,1-1.4414-.4484,8.8359,8.8359,0,0,1-1.8446-.9308,5.6512,5.6512,0,0,1-1.43-1.3426,4.2773,4.2773,0,0,1-.2652-.4005c-1.1479-1.9519.4936-7.311.4936-7.311A5.0532,5.0532,0,0,0,2.78,33.2066a6.5911,6.5911,0,0,0,1.4385.8462,9.1431,9.1431,0,0,0,1.3567.471A12.2569,12.2569,0,0,0,7.27,34.851c.4569.0593.928.0988,1.4046.1185.5783.0254,1.1678.0226,1.76-.0028.471-.0226.9421-.0593,1.41-.1072.5952-.0621,1.1819-.1439,1.7545-.2454.4795-.0846.9449-.1777,1.3962-.2849.5923-.1382,1.1564-.2933,1.681-.46.4936-.1552.95-.3244,1.3623-.4965.268-.1128.519-.2284.7475-.3441.251-.13.4936-.2623.7249-.4061a4.725,4.725,0,0,0,1.179-.9759,3.5063,3.5063,0,0,0,.6346-1.1C22.1571,33.0374,22.6479,35.7113,21.9568,37.319Z"/><path class="cls-10" d="M21.4519,38.1906a5.1305,5.1305,0,0,1-1.588,1.3877,15.8772,15.8772,0,0,0-.3525-6.9555,4.725,4.725,0,0,0,1.179-.9759A17.2937,17.2937,0,0,1,21.4519,38.1906Z"/><path class="cls-10" d="M18.0137,40.3681a14.07,14.07,0,0,1-1.4921.3751,23.4878,23.4878,0,0,0,.1551-6.8737c.4936-.1552.95-.3244,1.3623-.4965A24.2207,24.2207,0,0,1,18.0137,40.3681Z"/><path class="cls-10" d="M14.7982,41.0112c-.4654.0564-.9449.0987-1.4328.1354A42.77,42.77,0,0,0,13.6,34.6141c.4795-.0846.9449-.1777,1.3962-.2849A44.0257,44.0257,0,0,1,14.7982,41.0112Z"/><path class="cls-10" d="M11.845,34.86c-.0309,2.1267-.0874,4.2985-.1691,6.3717-.4457.0113-.9224.0113-1.4132,0,.0818-2.0393.1382-4.1688.1721-6.2645C10.9058,34.9441,11.3769,34.9074,11.845,34.86Z"/><path class="cls-10" d="M8.5591,41.1381c-.4682-.0423-.9421-.0959-1.4131-.1664-.0536-2.02-.0085-4.0983.1241-6.1207.4569.0593.928.0988,1.4046.1185C8.5393,37.0059,8.5,39.1045,8.5591,41.1381Z"/><path class="cls-10" d="M5.3888,40.6247a12.9836,12.9836,0,0,1-1.4414-.4484,30.6221,30.6221,0,0,1,.2708-6.1235,9.1431,9.1431,0,0,0,1.3567.471A29.2168,29.2168,0,0,0,5.3888,40.6247Z"/><path class="cls-10" d="M2.1028,39.2455a5.6512,5.6512,0,0,1-1.43-1.3426,20.1787,20.1787,0,0,1,.9928-5.8809A5.106,5.106,0,0,0,2.78,33.2066,18.81,18.81,0,0,0,2.1028,39.2455Z"/><path class="cls-11" d="M8.536,40.1914a7.1274,7.1274,0,0,1,.0793-1.4091A5.439,5.439,0,0,1,9.3669,36.76a5.7913,5.7913,0,0,1,1.104-1.2893,7.5873,7.5873,0,0,1,.7726-.588l-6.309.4083q-.1614.1422-.31.2952a6.0379,6.0379,0,0,0-1.15,1.7184,8.14,8.14,0,0,0-.6334,2.17,8.7223,8.7223,0,0,0-.094.9821l5.8735.6784C8.5775,40.8181,8.5474,40.5029,8.536,40.1914Z"/><path class="cls-12" d="M1.7877,49.9718A13.7293,13.7293,0,0,0,2.36,47.8292c-.1736-.0083-.26-.0127-.4338-.021-.0768.404-.3619,1.6464-.4973,2.0946C1.2932,50.3532,1.5625,50.4073,1.7877,49.9718Z"/><path class="cls-12" d="M2.7613,49.6375a6.79,6.79,0,0,0,.4822-1.7711c-.2641-.0112-.397-.0173-.6611-.0282-.0359.38-.2044,1.2583-.3017,1.6682C2.1738,49.9575,2.5216,50.06,2.7613,49.6375Z"/><path class="cls-12" d="M2.8956,50.8609c.4-.0233,1.07-2.21,1.2449-2.9629-.3133-.0115-.4689-.0176-.7819-.0291C3.2525,48.5677,2.332,50.891,2.8956,50.8609Z"/><path class="cls-12" d="M5.4015,50.6554c.344-.0269.9815-2.1257,1.0645-2.7124-.233-.0022-.35-.0031-.583-.0057C5.7928,48.6067,5.0638,50.68,5.4015,50.6554Z"/><path class="cls-12" d="M6.1771,50.8638c.4213,0,1.0467-2.3172,1.1081-2.9239l-.5979.0038C6.6352,48.5742,5.7467,50.8616,6.1771,50.8638Z"/><path class="cls-12" d="M4.6665,50.3376c.1467.0025.3916-.4.4415-.4834a6.2929,6.2929,0,0,0,.532-1.92c-.24-.0048-.3593-.0077-.5991-.0128-.0282-.0006-.2846,1.6743-.3025,1.7421-.0312.1179-.2251.592-.1055.6649Z"/><path class="cls-12" d="M4.2863,50.1381a8.0329,8.0329,0,0,0,.5871-2.2194c-.2016-.006-.3025-.01-.5039-.0153a19.6935,19.6935,0,0,1-.6084,2.1324C3.6086,50.4856,4.0341,50.5671,4.2863,50.1381Z"/><path class="cls-12" d="M8.31,48.1944a11.25,11.25,0,0,1-.1495,1.2395,7.3023,7.3023,0,0,0-.1435.72c-.0549.3907.4159.3386.54-.1078a6.1333,6.1333,0,0,0,.1248-.7966,3.7023,3.7023,0,0,0-.0247-1.1135c-.1179.021-.2171-.2085-.3287-.1983C8.3229,48.0406,8.319,48.092,8.31,48.1944Z"/><path class="cls-12" d="M8.1073,47.9136c-.2659.01-.3985.0147-.6646.0243-.0277.6273-.945,3.1382-.5035,3.0947.2468-.0239.7718-.8887.9655-1.6244.0726-.2746.1478-1.0067.1758-1.2388C8.0939,48.0594,8.1006,47.97,8.1073,47.9136Z"/><path class="cls-9" d="M10.9848,34.9272a8.09,8.09,0,0,0-1.4413.8264,5.7924,5.7924,0,0,0-1.2157,1.1847,5.4355,5.4355,0,0,0-.9308,1.9462,7.1272,7.1272,0,0,0-.2059,1.3961,11.012,11.012,0,0,0,.1044,2.0957c.062.4767.15.959.2538,1.4413.15.7024.3329,1.4075.519,2.0985.1354.4908.2708.9788.4,1.4555.0734.2623.1411.5218.2087.7784-2.3551-.0056-4.4282-.031-6.7722-.13.0085-.24.0113-.4739.0057-.7108-.0085-.4738-.0423-.9421-.09-1.4075-.07-.6713-.1664-1.34-.2538-2.0054-.0621-.4654-.1213-.9336-.1636-1.4018a14.885,14.885,0,0,1-.07-1.509c0-.1467.0056-.3018.0169-.46a8.5159,8.5159,0,0,1,.2341-1.4723A8.1391,8.1391,0,0,1,2.41,36.95a6.0361,6.0361,0,0,1,1.3-1.6077,5.2168,5.2168,0,0,1,.6627-.488c2.0506-1.2607,1.9152-.0648,3.4271-.3666A4.2282,4.2282,0,0,1,10.9848,34.9272Z"/><path class="cls-10" d="M9.5435,35.7536a5.7924,5.7924,0,0,0-1.2157,1.1847A16.4275,16.4275,0,0,0,2.41,36.95a6.0361,6.0361,0,0,1,1.3-1.6077A17.9511,17.9511,0,0,1,9.5435,35.7536Z"/><path class="cls-10" d="M7.397,38.8845a7.1272,7.1272,0,0,0-.2059,1.3961A20.4974,20.4974,0,0,0,1.35,40.526a8.5159,8.5159,0,0,1,.2341-1.4723A22.0509,22.0509,0,0,1,7.397,38.8845Z"/><path class="cls-10" d="M7.5493,43.8176a26.3581,26.3581,0,0,0-5.9824.079c-.0621-.4654-.1213-.9336-.1636-1.4018a27.7981,27.7981,0,0,1,5.8922-.1185C7.3575,42.853,7.445,43.3353,7.5493,43.8176Z"/><path class="cls-10" d="M8.4688,47.3716A34.4158,34.4158,0,0,0,1.911,47.31c-.0085-.4738-.0423-.9421-.09-1.4075a35.8316,35.8316,0,0,1,6.2476.0141C8.2037,46.4069,8.3391,46.8949,8.4688,47.3716Z"/><path class="cls-11" d="M1.04,37.0169a.6364.6364,0,0,0,.105-.7723A2.02,2.02,0,0,0,.57,35.6363a1.3844,1.3844,0,0,1-.4327-.4921.5031.5031,0,0,1,.1195-.6c.2723-.1942.6385.0443.8726.283s.5514.5136.8585.3815a.5671.5671,0,0,0,.2508-.6734,2.1171,2.1171,0,0,0-.4029-.6671A5.07,5.07,0,0,1,.9,30.195c-.0225.0737-1.4916,4.911-.6258,7.03.117-.0186.2335-.0388.3487-.06A.92.92,0,0,0,1.04,37.0169Z"/><path class="cls-11" d="M21.4519,38.1906a4.1586,4.1586,0,0,0,.5049-.8716c.62-1.4434.2871-3.7461-.39-6.0041a7.689,7.689,0,0,1-3.356,3.4018c-.2426.1239-.5278.285-.5432.557a.5179.5179,0,0,0,.5409.4759,1.5033,1.5033,0,0,0,.7462-.278l1.7806-1.0587a.74.74,0,0,1,.3931-.1409.4875.4875,0,0,1,.35.6737,1.0116,1.0116,0,0,1-.6855.5192,6.9781,6.9781,0,0,0-.8575.2334c-.2972.1309-.5675.4629-.4344.7592.1438.32.61.3082.9309.1667a1.7387,1.7387,0,0,1,.9894-.2958,5.9948,5.9948,0,0,1-2.0527,1.5358,5.3384,5.3384,0,0,0-1.188.6071,1.1425,1.1425,0,0,0-.4582,1.172,1.02,1.02,0,0,0,.6361.6094,8.4854,8.4854,0,0,0,1.5049-.6744A5.1305,5.1305,0,0,0,21.4519,38.1906Z"/><g id="New_Symbol_16" data-name="New Symbol 16"><path class="cls-13" d="M18.0643.4625c.0157.0906-.0812.1562-.1625.1938a7.3026,7.3026,0,0,1-1.3626.525c.025-.2.0438-.4063.0625-.6157.0125-.1687.0251-.3375.0344-.5125V.0437c0-.0156.0031-.0281.0031-.0437.4157.1094.8314.2219,1.25.3375C17.9643.3562,18.0487.3875,18.0643.4625Z"/></g></g></g></g></g></g></svg>