<svg xmlns="http://www.w3.org/2000/svg" width="166.5" height="145.5" viewBox="0 0 166.5 145.5"><defs><style>.cls-1{fill:#ff2328;}.cls-2{fill:#fff;}.cls-3{fill:#bf1a1e;}.cls-4{fill:#a9611d;}.cls-5{fill:#7b532c;}.cls-6{fill:#cfa781;}.cls-7{fill:#424242;}</style></defs><g id="Layer_2" data-name="Layer 2"><g id="Layer_1-2" data-name="Layer 1"><path class="cls-1" d="M157.3027,74.5532a92.4354,92.4354,0,0,1-68.1689,39.3574Q88.0669,101.2053,87,88.5A66.9357,66.9357,0,0,0,136.3634,60Z"/><path class="cls-2" d="M134.769,97.2712a92.4969,92.4969,0,0,1-9.0028,5.62L113.5268,80.52a66.923,66.923,0,0,0,6.5192-4.0695Z"/><path class="cls-2" d="M150.63,83.0485a92.365,92.365,0,0,1-7.5423,7.5906q-8.5089-9.4954-17.018-18.9908a66.8711,66.8711,0,0,0,5.4617-5.4965Q141.0809,74.6,150.63,83.0485Z"/><path class="cls-2" d="M116.1727,107.4449a92.4405,92.4405,0,0,1-10.091,3.4343q-3.4046-12.2874-6.8091-24.5744a66.9232,66.9232,0,0,0,7.3072-2.4867Q111.3764,95.6315,116.1727,107.4449Z"/><path class="cls-3" d="M166.5,115.6131a92.4361,92.4361,0,0,1-78.7148,0Q93.214,104.0766,98.6426,92.54a66.9361,66.9361,0,0,0,57,0Q161.0714,104.0765,166.5,115.6131Z"/><path class="cls-2" d="M135.6262,124.0206a92.475,92.475,0,0,1-10.6066.3655q.2928-12.7465.5857-25.4932a66.93,66.93,0,0,0,7.6806-.2647Q134.4559,111.3243,135.6262,124.0206Z"/><path class="cls-2" d="M156.4739,119.6341a92.374,92.374,0,0,1-10.3271,2.8025q-2.6213-12.4777-5.2426-24.9555a66.8653,66.8653,0,0,0,7.4782-2.0293Q152.428,107.543,156.4739,119.6341Z"/><path class="cls-2" d="M114.4345,123.5332a92.4316,92.4316,0,0,1-10.4562-2.0714q3.1951-12.3435,6.39-24.6866a66.909,66.909,0,0,0,7.5716,1.5Q116.1873,110.9043,114.4345,123.5332Z"/><path class="cls-2" d="M114.8868,109.7027c2.91,13.7048-4.7927,27.4354-17.6047,31.3523a102.0171,102.0171,0,0,1-59.6357-.022c-12.7788-3.9083-20.4355-17.664-17.5326-31.3336l1.9285-9.081a106.0916,106.0916,0,0,0,90.9154,0Q113.9222,105.1606,114.8868,109.7027Z"/><path class="cls-1" d="M72.1832,145.3816c3.1527-.1452,6.1884-.4383,9.1194-.8394a225.8462,225.8462,0,0,0-1.5139-34.5032c-2.73.32-5.3707.5235-7.9033.6279Q72.0344,128.0242,72.1832,145.3816Z"/><path class="cls-1" d="M107.984,134.3887a27.6327,27.6327,0,0,0,6.9028-24.78q-.9645-4.5542-1.9291-9.1083c-2.1918,1.0442-4.3766,1.9861-6.5491,2.8451A142.0829,142.0829,0,0,1,107.984,134.3887Z"/><path class="cls-1" d="M62.8151,110.6435q-3.896-.1725-7.6024-.61a225.8506,225.8506,0,0,0-1.514,34.5232c3.2044.4418,6.1976.6942,8.9674.8243Q62.7407,128.0125,62.8151,110.6435Z"/><path class="cls-1" d="M28.5916,103.3485c-2.3109-.9132-4.5-1.87-6.5493-2.8485l-1.9285,9.1049a27.6786,27.6786,0,0,0,6.9044,24.8061A142.0486,142.0486,0,0,1,28.5916,103.3485Z"/><path class="cls-1" d="M98.02,106.26c-3.1991.9624-6.3467,1.7464-9.4186,2.3712a248.6414,248.6414,0,0,1,2.3994,34.113c2.1726-.5163,4.2719-1.0848,6.2811-1.7006a24.4837,24.4837,0,0,0,3.229-1.2766A153.0743,153.0743,0,0,0,98.02,106.26Z"/><path class="cls-1" d="M46.4,108.6238c-3.2873-.6692-6.434-1.4659-9.4195-2.3642A153.0674,153.0674,0,0,0,34.49,139.7769a24.2964,24.2964,0,0,0,3.1564,1.2445c2.1625.6631,4.2736,1.2094,6.3533,1.7027A248.66,248.66,0,0,1,46.4,108.6238Z"/><path class="cls-4" d="M120.3408,40.7436C113.3386,55.76,102.8941,59.0891,93.8844,54.8878S80.7116,40.5455,87.7137,25.5293s29.76-28.327,31.5278-25.02S127.343,25.7274,120.3408,40.7436Z"/><path class="cls-5" d="M120.0144,2.38c2.2862,6.4347,6.5167,25.0887.3264,38.3636-5.8433,12.531-14.082,16.9016-21.8855,15.5706-4.4276-5.889-4.8134-15.8774,1.615-29.6632C104.3192,17.5392,112.5873,8.6005,120.0144,2.38Z"/><path class="cls-4" d="M14.6592,40.7436C21.6614,55.76,32.1059,59.0891,41.1156,54.8878s13.1728-14.3423,6.1707-29.3585S17.5265-2.7977,15.7585.5094,7.657,25.7274,14.6592,40.7436Z"/><path class="cls-5" d="M14.9856,2.38c-2.2862,6.4347-6.5167,25.0887-.3264,38.3636,5.8433,12.531,14.082,16.9016,21.8855,15.5706,4.4276-5.889,4.8134-15.8774-1.615-29.6632C30.6808,17.5392,22.4127,8.6005,14.9856,2.38Z"/><ellipse class="cls-4" cx="67.5" cy="67.5" rx="56.9963" ry="52.4966"/><path class="cls-6" d="M67.5,69.014c-3.5588,5.18-10.7982,16.1753-25.7445,21.6117-8.802,3.2013-18.1494,3.397-25.1047,2.7242,9.0641,16.6177,27.49,26.865,50.8492,26.6467"/><path class="cls-6" d="M67.38,69.014c3.5588,5.18,10.7982,16.1753,25.7445,21.6117,8.802,3.2013,18.1494,3.397,25.1047,2.7242-9.0641,16.6177-27.49,26.865-50.8492,26.6467"/><path class="cls-7" d="M61.5,107.25a6.7573,6.7573,0,0,1-6.75-6.75.75.75,0,0,1,1.5,0,5.25,5.25,0,0,0,10.5,0,.75.75,0,0,1,1.5,0A6.7573,6.7573,0,0,1,61.5,107.25Z"/><path class="cls-7" d="M73.5,107.25a6.7573,6.7573,0,0,1-6.75-6.75.75.75,0,0,1,1.5,0,5.25,5.25,0,0,0,10.5,0,.75.75,0,0,1,1.5,0A6.7573,6.7573,0,0,1,73.5,107.25Z"/><path class="cls-7" d="M90,73.5a8.26,8.26,0,0,1-8.25-8.25.75.75,0,0,1,1.5,0,6.75,6.75,0,0,0,13.5,0,.75.75,0,0,1,1.5,0A8.26,8.26,0,0,1,90,73.5Z"/><path class="cls-7" d="M45,73.5a8.26,8.26,0,0,1-8.25-8.25.75.75,0,0,1,1.5,0,6.75,6.75,0,0,0,13.5,0,.75.75,0,0,1,1.5,0A8.26,8.26,0,0,1,45,73.5Z"/><path class="cls-7" d="M67.5,102a.75.75,0,0,1-.75-.75v-9a.75.75,0,0,1,1.5,0v9A.75.75,0,0,1,67.5,102Z"/><path class="cls-5" d="M60,90.0007c0,3.3137,3.3579,6,7.5,6s7.5-2.6863,7.5-6c0-3.0824-3.3579-3-7.5-3S60,86.687,60,90.0007Z"/><path class="cls-7" d="M41.0961,93.4245A70.5373,70.5373,0,0,0,20.5,90.01,69.3705,69.3705,0,0,0,0,92.7706a68.6452,68.6452,0,0,1,40.22,3.1063,1.3028,1.3028,0,1,0,.9547-2.4244C41.15,93.4428,41.1207,93.4326,41.0961,93.4245Z"/><path class="cls-7" d="M40.6567,100.2949A54.4653,54.4653,0,0,0,10.5,111a53.1827,53.1827,0,0,1,30.1715-8.1457,1.2808,1.2808,0,0,0,.0954-2.56c-.0335-.0013-.0666-.0012-.0995,0Z"/><path class="cls-7" d="M93.9039,93.43A70.534,70.534,0,0,1,114.5,90.0146a69.3672,69.3672,0,0,1,20.5,2.761,68.6474,68.6474,0,0,0-40.2195,3.1063,1.3028,1.3028,0,1,1-.9547-2.4244C93.85,93.4478,93.8793,93.4376,93.9039,93.43Z"/><path class="cls-7" d="M94.3433,100.2951A54.4653,54.4653,0,0,1,124.5,111a53.1827,53.1827,0,0,0-30.1715-8.1457,1.2808,1.2808,0,0,1-.0954-2.56c.0335-.0012.0666-.0011.1,0Z"/></g></g></svg>