<svg xmlns="http://www.w3.org/2000/svg" width="26.5544" height="39.9709" viewBox="0 0 26.5544 39.9709"><defs><style>.cls-1{isolation:isolate;}.cls-2{mix-blend-mode:multiply;}.cls-3{fill:#d8c396;}.cls-4{fill:#eadbba;}.cls-5{fill:#fb4751;}.cls-6{fill:#eb3a30;}.cls-7{fill:#4fb2a5;}.cls-8{fill:#f08b88;}.cls-9{fill:#f6a4a2;}.cls-10,.cls-12,.cls-14{fill:none;stroke-linecap:round;stroke-miterlimit:10;}.cls-10,.cls-12{stroke:#2f292b;}.cls-10{stroke-width:0.237px;}.cls-11{fill:#2f292b;}.cls-12{stroke-width:0.2694px;}.cls-13{fill:#3ba091;}.cls-14{stroke:#fff;stroke-width:0.2021px;}.cls-15{fill:#fbedcd;}.cls-16{fill:#00beb9;}</style></defs><g class="cls-1"><g id="Layer_2" data-name="Layer 2"><g id="Layer_1-2" data-name="Layer 1"><g id="New_Symbol" data-name="New Symbol" class="cls-2"><g id="New_Symbol_10" data-name="New Symbol 10"><g id="New_Symbol_17" data-name="New Symbol 17"><path class="cls-3" d="M15.7767,38.162c-.3841.5666-.1744.88.493.7382-.1471.6674.1635.88.7329.5012.12.6756.5011.7573.9016.1853.395.5747.7764.4957.9017-.1771.5666.3841.88.1743.7382-.4931.6647.1471.8772-.1634.5013-.7328.4958-.0871.6728-.3159.5012-.5911a1.07,1.07,0,0,0-.316-.31,1.0719,1.0719,0,0,0,.3133-.3.321.321,0,0,0,.0572-.12c.0654-.2207-.1226-.4005-.5476-.4822.3841-.5666.1743-.8772-.493-.7382.1471-.6647-.1635-.8772-.7328-.4985-.12-.6756-.5013-.7574-.9017-.1853-.395-.5775-.7764-.4958-.9017.1771-.5666-.3841-.88-.1744-.7382.493a.7974.7974,0,0,0-.5667.0246c-.1606.098-.1661.3132.0055.61a.9672.9672,0,0,0,.06.098c-.0409.0082-.0818.0164-.1172.0245-.5638.1417-.602.4986-.0681.8745C15.0248,37.658,15.1039,38.0366,15.7767,38.162Z"/><path class="cls-4" d="M15.9579,37.7165c-.3106.4582-.141.7116.3987.597-.119.54.1322.7115.5926.4053.0969.5463.4053.6124.7291.15.32.4648.6278.401.7292-.1432.4582.3107.7115.141.5969-.3987.5375.119.7094-.1321.4054-.5926.4009-.07.5441-.2555.4053-.478a.8652.8652,0,0,0-.2555-.2511.8668.8668,0,0,0,.2533-.2423.26.26,0,0,0,.0463-.0969c.0529-.1785-.0991-.3239-.4428-.39.3106-.4581.141-.7093-.3987-.5969.1189-.5375-.1322-.7094-.5926-.4032-.0969-.5463-.4053-.6124-.7292-.15-.3194-.467-.6278-.4009-.7291.1432-.4582-.3106-.7115-.141-.597.3987a.6451.6451,0,0,0-.4582.02c-.13.0793-.1343.2533.0044.4934a.7573.7573,0,0,0,.0485.0793c-.0331.0066-.0661.0132-.0947.02-.456.1145-.4869.4031-.0551.7071C15.35,37.309,15.4138,37.6152,15.9579,37.7165Z"/><path class="cls-5" d="M19.5806,34.3172A2.8291,2.8291,0,0,1,16.2562,35.43a3.3376,3.3376,0,0,1-1.7188-2.6159,1.0379,1.0379,0,0,1-.0161-.1293c-.0189-.1131-.03-.2263-.0378-.3421a.9259.9259,0,0,1-.0081-.124c-.008-.07-.0107-.14-.0134-.21-.0323-.8163.0458-1.638.035-2.457a11.7548,11.7548,0,0,0-4.8654-9.2971c1.2231.854,2.923.9133,4.1919,1.6784a13.4061,13.4061,0,0,1,3.6585,3.9225c.3206.4418.6439.9025.9564,1.3794a11.697,11.697,0,0,1,1.6245,3.4241A4.5526,4.5526,0,0,1,19.5806,34.3172Z"/><path class="cls-5" d="M18.1877,34.8679a3.5364,3.5364,0,0,1-1.5759-.31,3.6852,3.6852,0,0,1-1.2162-.88c-.1658-.1815-.8629-.88-.8885-1.101.0092.0791.0167.1584.029.2374a3.339,3.339,0,0,0,1.7207,2.616,2.7846,2.7846,0,0,0,3.1-.83A3.2137,3.2137,0,0,1,18.1877,34.8679Z"/><path class="cls-6" d="M22.5522,21.208a12.0441,12.0441,0,0,1-5.1456,3.4349,12.5048,12.5048,0,0,1-1.9209.5011c-.3771.0674-.757.1158-1.14.1482a13.6091,13.6091,0,0,1-4.0733-.2883,13.7518,13.7518,0,0,1-1.4575-.4068,14.0093,14.0093,0,0,1-1.374-.55,8.5523,8.5523,0,0,1-3.7986-3.1008A4.8339,4.8339,0,0,1,3.05,16.9326c.4256-1.1019,2.36-.7759,3.3971-.8567,1.5437-.1159,3.09-.2182,4.6365-.2829a57.49,57.49,0,0,1,9.3375.2829c1.1961.1481,2.5539.4661,3.1062,1.5356C24.1336,18.7861,23.42,20.2112,22.5522,21.208Z"/><path class="cls-5" d="M9.782,24.8814c.1631.0424.3259.0865.4908.1225a13.1834,13.1834,0,0,0,1.5517.2559,10.0019,10.0019,0,0,1,1.8471-3.8069A7.6391,7.6391,0,0,0,9.782,24.8814Z"/><path class="cls-3" d="M9.5333,35.5608c.3222.4752.1462.738-.4135.6192.1234.56-.1371.738-.6147.42-.1005.5666-.42.6351-.7562.1553-.3314.4821-.6512.4159-.7563-.1485-.4753.3222-.738.1462-.6192-.4135-.5575.1234-.7357-.1371-.42-.6147-.4158-.0731-.5643-.265-.42-.4958a.8968.8968,0,0,1,.2651-.26.8989.8989,0,0,1-.2628-.2514.2689.2689,0,0,1-.048-.1c-.0548-.1851.1028-.3359.4592-.4044-.3221-.4752-.1462-.7357.4136-.6192-.1234-.5575.1371-.7357.6146-.4181.1-.5666.42-.6352.7563-.1554.3313-.4843.6512-.4158.7563.1485.4752-.3221.738-.1462.6192.4136a.6687.6687,0,0,1,.4752.0206c.1348.0822.1394.2627-.0046.5118a.7894.7894,0,0,1-.05.0822c.0343.0069.0686.0137.0983.0206.4729.1188.5049.4181.0571.7334C10.1639,35.1381,10.0976,35.4557,9.5333,35.5608Z"/><path class="cls-4" d="M9.0349,35.2737c.2474.3649.1123.5666-.3175.4754.0947.43-.1053.5667-.472.3228-.0772.4351-.3227.4877-.5806.1193-.2544.37-.5.3193-.5807-.114-.3649.2473-.5667.1122-.4754-.3176-.4281.0948-.565-.1052-.3229-.4719-.3193-.0561-.4333-.2035-.3228-.3807a.6893.6893,0,0,1,.2036-.2.6907.6907,0,0,1-.2018-.193.2049.2049,0,0,1-.0368-.0771c-.0421-.1421.0789-.2579.3526-.3106-.2474-.3649-.1123-.5649.3175-.4754-.0947-.428.1053-.5649.4719-.321.0772-.4351.3228-.4877.5807-.1193.2544-.3719.5-.3193.5807.114.3649-.2474.5667-.1123.4754.3175a.5143.5143,0,0,1,.365.0158c.1034.0632.1069.2018-.0036.393a.5943.5943,0,0,1-.0386.0631c.0264.0053.0526.0106.0755.0158.3631.0913.3877.3211.0438.5632C9.5191,34.9491,9.4682,35.193,9.0349,35.2737Z"/><path class="cls-5" d="M10.6068,28.3391c-.0054.3556.0108.7086.0242,1.0642,0,.0215.0027.0431.0027.0646.0027.0835.0054.1671.0054.2506a.5171.5171,0,0,1,.0027.0646,7.41,7.41,0,0,1-.0673,1.2932c-.0162.097-.035.1939-.0593.2909-.0135.0593-.03.1213-.0485.18a1.4622,1.4622,0,0,1-.0539.1778,2.2791,2.2791,0,0,1-.105.2667,2.38,2.38,0,0,1-1.1773,1.277,2.3735,2.3735,0,0,1-2.7883-.9321,3.2363,3.2363,0,0,1-.5361-1.6218,2.6913,2.6913,0,0,1-.0135-.2964c0-.0431.0027-.0862.0054-.1293a1.1671,1.1671,0,0,1,.0081-.194,4.32,4.32,0,0,1,.132-.83A9.7746,9.7746,0,0,1,7.3012,26.394c.2614-.3987.5335-.7866.8-1.1557a11.3242,11.3242,0,0,1,3.2678-3.1251c1.0642-.6412,2.2926-.8567,3.3164-1.5733A9.8633,9.8633,0,0,0,10.6068,28.3391Z"/><path class="cls-5" d="M5.9444,29.2464l-.0059.02a3.8212,3.8212,0,0,0,.4041,3.0693,2.4784,2.4784,0,0,0,2.3064,1.07A5.1464,5.1464,0,0,1,5.9444,29.2464Z"/><path class="cls-5" d="M23.6823,13.4805c0,3.1093-1.7675,6.8135-4.5987,8.11a13.1774,13.1774,0,0,1-10.6357.449,9.7343,9.7343,0,0,1-5.9055-8.5585c0-5.3839,4.7323-9.7484,10.57-9.7484S23.6823,8.0966,23.6823,13.4805Z"/><path class="cls-7" d="M23.3882,14.0832c-.0884.1438-.18.2836-.2753.4263l-3.9185-5.81L17.359,5.9818S21.3687,1.148,25.9674,0l.0052.0117C26.0766.2988,28.2738,6.4847,23.3882,14.0832Z"/><path class="cls-8" d="M23.3882,14.0832l-4.1938-5.384C20.09,6.4706,22.8042,1.46,25.9674,0l.0052.0117C26.0766.2988,28.2738,6.4847,23.3882,14.0832Z"/><path class="cls-9" d="M25.9726.0117,25.9674,0c-.0188.0087-.0374.019-.0561.0279A24.1516,24.1516,0,0,0,21.47,11.62l1.9186,2.4631C28.2738,6.4847,26.0766.2988,25.9726.0117Z"/><path class="cls-8" d="M19.1944,8.6992,21.47,11.62A24.1516,24.1516,0,0,1,25.9113.0279C22.7722,1.5206,20.0848,6.4838,19.1944,8.6992Z"/><path class="cls-7" d="M3.1662,14.0832c.0885.1438.18.2836.2753.4263L7.36,8.6992,9.1954,5.9818S5.1857,1.148.5871,0L.5818.0117C.4778.2988-1.7194,6.4847,3.1662,14.0832Z"/><path class="cls-8" d="M3.1662,14.0832,7.36,8.6992C6.4643,6.4706,3.75,1.46.5871,0L.5818.0117C.4778.2988-1.7194,6.4847,3.1662,14.0832Z"/><path class="cls-9" d="M.5818.0117.5871,0c.0187.0087.0373.019.056.0279A24.1506,24.1506,0,0,1,5.0848,11.62L3.1662,14.0832C-1.7194,6.4847.4778.2988.5818.0117Z"/><path class="cls-8" d="M7.36,8.6992,5.0848,11.62A24.1506,24.1506,0,0,0,.6431.0279C3.7822,1.5206,6.47,6.4838,7.36,8.6992Z"/><path class="cls-7" d="M23.9935,12.8048c0,3.1093-1.8321,6.8135-4.7667,8.11a14.1134,14.1134,0,0,1-11.0242.449,9.75,9.75,0,0,1-6.1213-8.5585c0-5.3839,4.9052-9.7484,10.9561-9.7484S23.9935,7.4209,23.9935,12.8048Z"/><path class="cls-10" d="M13.0389,11.0351a3.0241,3.0241,0,0,0,.5329,2.174,2.4225,2.4225,0,0,0,1.8673.8267"/><path class="cls-10" d="M13.0359,11.0351a3.0241,3.0241,0,0,1-.5329,2.174,2.4226,2.4226,0,0,1-1.8673.8267"/><path class="cls-11" d="M14.0006,10.4741c.1109.0551-.9711.8987-.9711.8987l-.971-.8987A2.1624,2.1624,0,0,1,14.0006,10.4741Z"/><path class="cls-12" d="M19.488,8.1813a1.2818,1.2818,0,1,1-2.5636,0"/><line class="cls-12" x1="18.2062" y1="9.4631" x2="18.2062" y2="9.9601"/><line class="cls-12" x1="18.8704" y1="9.3472" x2="19.1139" y2="9.7116"/><line class="cls-12" x1="19.2958" y1="8.8557" x2="19.7352" y2="9.1685"/><path class="cls-12" d="M6.5868,8.1813a1.2818,1.2818,0,0,0,2.5636,0"/><line class="cls-12" x1="7.8686" y1="9.4631" x2="7.8686" y2="9.9601"/><line class="cls-12" x1="7.2044" y1="9.3472" x2="6.9609" y2="9.7116"/><line class="cls-12" x1="6.779" y1="8.8557" x2="6.3396" y2="9.1685"/><path class="cls-13" d="M21.2481,12.4381A1.3322,1.3322,0,1,1,19.916,11.106,1.3321,1.3321,0,0,1,21.2481,12.4381Z"/><path class="cls-13" d="M7.491,12.4381A1.3322,1.3322,0,1,1,6.1588,11.106,1.3322,1.3322,0,0,1,7.491,12.4381Z"/><path class="cls-14" d="M19.916,11.9686a4.8866,4.8866,0,0,1,3.2124.2535"/><path class="cls-14" d="M19.6625,12.4381a6.7991,6.7991,0,0,1,3.2464,1.45"/><path class="cls-14" d="M19.34,12.9126a5.7538,5.7538,0,0,1,2.3315,1.9788"/><path class="cls-14" d="M5.9388,11.9686a4.887,4.887,0,0,0-3.2125.2535"/><path class="cls-14" d="M6.1923,12.4381a6.7994,6.7994,0,0,0-3.2465,1.45"/><path class="cls-14" d="M6.5148,12.9126a5.7547,5.7547,0,0,0-2.3316,1.9788"/><path class="cls-15" d="M16.0811,32.6708a.3849.3849,0,0,1-.0625-.1477.3616.3616,0,0,1-.0019-.0851.4232.4232,0,0,1,.0533-.153.0258.0258,0,0,1,.0466-.0027.4169.4169,0,0,1,.06.1474.36.36,0,0,1,.0035.0849.4086.4086,0,0,1-.05.1539A.0273.0273,0,0,1,16.0811,32.6708Z"/><path class="cls-15" d="M16.2074,32.7032a.3886.3886,0,0,0,.122-.1058.37.37,0,0,0,.04-.0758.4241.4241,0,0,0,.02-.16.0257.0257,0,0,0-.0408-.0224.454.454,0,0,0-.1191.1046.3522.3522,0,0,0-.04.0735.4084.4084,0,0,0-.0233.1609A.0278.0278,0,0,0,16.2074,32.7032Z"/><path class="cls-15" d="M16.4646,32.7536a.3793.3793,0,0,1-.07-.1434.359.359,0,0,1-.006-.0847.4319.4319,0,0,1,.0461-.1555.0262.0262,0,0,1,.0467-.0054.4082.4082,0,0,1,.0671.1434.3769.3769,0,0,1,.0075.0843.4043.4043,0,0,1-.0436.1562A.0272.0272,0,0,1,16.4646,32.7536Z"/><path class="cls-15" d="M16.5924,32.7785a.3143.3143,0,0,0,.1524-.1842.4233.4233,0,0,0,.0126-.1613.0263.0263,0,0,0-.0413-.0227.4024.4024,0,0,0-.1139.1081.3582.3582,0,0,0-.037.0756.4079.4079,0,0,0-.0157.1616A.0274.0274,0,0,0,16.5924,32.7785Z"/><path class="cls-15" d="M16.3171,33.5147a.3856.3856,0,0,1-.0783-.1452.33.33,0,0,1-.0081-.0851.3971.3971,0,0,1,.0473-.1552.0294.0294,0,0,1,.0509-.0046.4112.4112,0,0,1,.0758.1451.3456.3456,0,0,1,.01.0847.3722.3722,0,0,1-.0448.1559A.0305.0305,0,0,1,16.3171,33.5147Z"/><path class="cls-15" d="M16.4566,33.5418a.3776.3776,0,0,0,.1252-.1057.3427.3427,0,0,0,.038-.0767.3888.3888,0,0,0,.0114-.1615.03.03,0,0,0-.0456-.0234.4055.4055,0,0,0-.1225.1065.3364.3364,0,0,0-.0392.0752.376.376,0,0,0-.0143.1619A.0307.0307,0,0,0,16.4566,33.5418Z"/><path class="cls-15" d="M16.3934,33.1207a.3782.3782,0,0,1-.0737-.1443.34.34,0,0,1-.0071-.0846.4134.4134,0,0,1,.0467-.1553.0276.0276,0,0,1,.0488-.0053.4137.4137,0,0,1,.0713.1442.366.366,0,0,1,.0084.0848.389.389,0,0,1-.0442.1562A.0288.0288,0,0,1,16.3934,33.1207Z"/><path class="cls-15" d="M16.5269,33.1466a.3653.3653,0,0,0,.1206-.1064.3513.3513,0,0,0,.0369-.0766.4061.4061,0,0,0,.0121-.1614.0278.0278,0,0,0-.0433-.0233.4042.4042,0,0,0-.1181.1073.3565.3565,0,0,0-.0381.0758.39.39,0,0,0-.015.1618A.0288.0288,0,0,0,16.5269,33.1466Z"/><path class="cls-15" d="M16.8481,32.82a.3749.3749,0,0,1-.0761-.1389.3343.3343,0,0,1-.01-.084.4187.4187,0,0,1,.0388-.1576.0262.0262,0,0,1,.0463-.0082.4.4,0,0,1,.0738.139.3775.3775,0,0,1,.0114.0836.4119.4119,0,0,1-.0363.1582A.0277.0277,0,0,1,16.8481,32.82Z"/><path class="cls-15" d="M16.9773,32.8369a.3776.3776,0,0,0,.1114-.1136.3553.3553,0,0,0,.0324-.0783.425.425,0,0,0,.0055-.1622.0261.0261,0,0,0-.0424-.02.4083.4083,0,0,0-.109.1143.3719.3719,0,0,0-.0337.0776.407.407,0,0,0-.0083.162A.0273.0273,0,0,0,16.9773,32.8369Z"/><path class="cls-15" d="M16.1757,32.2805a.3828.3828,0,0,1-.058-.1465.3708.3708,0,0,1-.0007-.0849.4421.4421,0,0,1,.0525-.1531c.0112-.02.033-.0224.0445-.0033a.4183.4183,0,0,1,.0554.1463.3682.3682,0,0,1,.0024.0846.4259.4259,0,0,1-.05.1541A.0256.0256,0,0,1,16.1757,32.2805Z"/><path class="cls-15" d="M16.296,32.3115a.3873.3873,0,0,0,.1175-.1068.3817.3817,0,0,0,.0384-.076.4437.4437,0,0,0,.0208-.16c-.001-.023-.02-.0342-.0386-.0219a.4538.4538,0,0,0-.1146.1056.365.365,0,0,0-.0394.0738.4272.4272,0,0,0-.0239.1607A.0261.0261,0,0,0,16.296,32.3115Z"/><path class="cls-15" d="M16.9064,32.4221a.3726.3726,0,0,1-.0716-.1381.3513.3513,0,0,1-.0085-.0838.4389.4389,0,0,1,.0381-.1578c.0093-.0213.0309-.0259.0442-.0085a.3515.3515,0,0,1,.08.2217.4308.4308,0,0,1-.0357.1583A.0259.0259,0,0,1,16.9064,32.4221Z"/><path class="cls-15" d="M17.03,32.4387a.3751.3751,0,0,0,.107-.1142.3675.3675,0,0,0,.0312-.0784.4433.4433,0,0,0,.0062-.162c-.003-.0231-.0228-.0333-.04-.02a.4036.4036,0,0,0-.1045.1149.38.38,0,0,0-.0326.0777.4284.4284,0,0,0-.009.1619A.0257.0257,0,0,0,17.03,32.4387Z"/><path class="cls-15" d="M15.9865,33.061a.3868.3868,0,0,1-.067-.1487.3444.3444,0,0,1-.003-.0854.4033.4033,0,0,1,.0539-.1528.0275.0275,0,0,1,.0488-.0022.418.418,0,0,1,.0644.1485.3423.3423,0,0,1,.0046.0851.3888.3888,0,0,1-.051.1538A.029.029,0,0,1,15.9865,33.061Z"/><path class="cls-15" d="M16.1189,33.0949a.3919.3919,0,0,0,.1264-.1048.356.356,0,0,0,.0407-.0756.4009.4009,0,0,0,.0194-.1606.0272.0272,0,0,0-.0428-.0229.4542.4542,0,0,0-.1237.1036.3394.3394,0,0,0-.0415.0733.3885.3885,0,0,0-.0226.161A.03.03,0,0,0,16.1189,33.0949Z"/><path class="cls-15" d="M16.79,33.2168a.3784.3784,0,0,1-.0805-.14.3228.3228,0,0,1-.0107-.0841.4.4,0,0,1,.0394-.1575.0278.0278,0,0,1,.0485-.0079.4023.4023,0,0,1,.0783.14.3626.3626,0,0,1,.0125.0837.3942.3942,0,0,1-.0369.1581A.0294.0294,0,0,1,16.79,33.2168Z"/><path class="cls-15" d="M16.925,33.235a.38.38,0,0,0,.116-.113.3438.3438,0,0,0,.0334-.0782.4021.4021,0,0,0,.0049-.1622.0277.0277,0,0,0-.0446-.02.4065.4065,0,0,0-.1135.1138.3531.3531,0,0,0-.0347.0773.3882.3882,0,0,0-.0077.1621A.0289.0289,0,0,0,16.925,33.235Z"/><path class="cls-15" d="M17.2646,32.8715a.3574.3574,0,0,1-.0827-.1356.3475.3475,0,0,1-.0136-.0846.4118.4118,0,0,1,.0309-.1586.0259.0259,0,0,1,.0457-.0088.3942.3942,0,0,1,.0807.1343.3762.3762,0,0,1,.0154.0827.4139.4139,0,0,1-.0285.16A.0278.0278,0,0,1,17.2646,32.8715Z"/><path class="cls-15" d="M17.3946,32.8814a.3819.3819,0,0,0,.1058-.12.3608.3608,0,0,0,.0286-.08.4218.4218,0,0,0-.0025-.162.026.026,0,0,0-.0434-.0176.4137.4137,0,0,0-.1034.12.3675.3675,0,0,0-.03.0793.407.407,0,0,0,0,.162A.0272.0272,0,0,0,17.3946,32.8814Z"/><path class="cls-15" d="M15.685,32.5662a.393.393,0,0,1-.0547-.1515.3428.3428,0,0,1,.0025-.0853.4148.4148,0,0,1,.0605-.15.0256.0256,0,0,1,.0465,0,.4238.4238,0,0,1,.0524.1512.3968.3968,0,0,1,0,.0844.4163.4163,0,0,1-.0582.1519A.0272.0272,0,0,1,15.685,32.5662Z"/><path class="cls-15" d="M15.8105,32.6013a.3893.3893,0,0,0,.1269-.099.3714.3714,0,0,0,.0431-.0736.4193.4193,0,0,0,.028-.1594.0257.0257,0,0,0-.0394-.0249.4239.4239,0,0,0-.1245.1.3783.3783,0,0,0-.0443.0725.405.405,0,0,0-.0309.1589A.027.027,0,0,0,15.8105,32.6013Z"/><path class="cls-16" d="M14.5913,31.9976a.3852.3852,0,0,1-.0566.1536.2962.2962,0,0,1-.0539.0619l-.0054.0054c-.008-.07-.0107-.14-.0134-.21a.4535.4535,0,0,1,.0943-.0431A.027.027,0,0,1,14.5913,31.9976Z"/><path class="cls-16" d="M14.7205,32.0844a.3827.3827,0,0,1-.0333-.1563.3491.3491,0,0,1,.0136-.0837.44.44,0,0,1,.08-.1409.0253.0253,0,0,1,.0457.0057.4167.4167,0,0,1,.031.1551.3756.3756,0,0,1-.0123.0843.41.41,0,0,1-.0774.1423A.0265.0265,0,0,1,14.7205,32.0844Z"/><path class="cls-16" d="M14.837,32.1383a.3864.3864,0,0,0,.1379-.0832.3657.3657,0,0,0,.052-.0674.4288.4288,0,0,0,.0487-.1542.025.025,0,0,0-.0354-.0288.4505.4505,0,0,0-.1344.0821.3557.3557,0,0,0-.0528.0655.4147.4147,0,0,0-.0519.1541A.027.027,0,0,0,14.837,32.1383Z"/><path class="cls-16" d="M14.5778,32.4987a.2174.2174,0,0,1-.0107.0835.4054.4054,0,0,1-.0458.1024c-.0189-.1131-.03-.2263-.0378-.3421l.0081-.0108c.0135-.0189.0377-.0135.0485.0081A.3926.3926,0,0,1,14.5778,32.4987Z"/><path class="cls-16" d="M14.5656,32.7752a.395.395,0,0,0,.1456-.08.3575.3575,0,0,0,.0539-.0666.3977.3977,0,0,0,.0477-.155.028.028,0,0,0-.0391-.03.4559.4559,0,0,0-.1421.0789.35.35,0,0,0-.0546.0645.3814.3814,0,0,0-.0507.1546A.03.03,0,0,0,14.5656,32.7752Z"/><path class="cls-16" d="M14.9491,32.5543A.3855.3855,0,0,1,14.904,32.4a.3265.3265,0,0,1,.0088-.0843.4076.4076,0,0,1,.0735-.1448.027.027,0,0,1,.048.0031.4152.4152,0,0,1,.0427.1542.38.38,0,0,1-.0071.0849.4.4,0,0,1-.0709.1456A.0286.0286,0,0,1,14.9491,32.5543Z"/><path class="cls-16" d="M15.074,32.6029a.3743.3743,0,0,0,.1361-.084A.347.347,0,0,0,15.26,32.45a.4117.4117,0,0,0,.041-.1569.0273.0273,0,0,0-.0377-.03.4031.4031,0,0,0-.1337.0854.3523.3523,0,0,0-.0507.0679.3958.3958,0,0,0-.0438.1562A.0285.0285,0,0,0,15.074,32.6029Z"/><path class="cls-15" d="M19.8558,32.7257a.372.372,0,0,1-.12-.1041.3478.3478,0,0,1-.0384-.0754.4268.4268,0,0,1-.0183-.1613.0261.0261,0,0,1,.0406-.0235.4023.4023,0,0,1,.1174.105.3531.3531,0,0,1,.04.0745.41.41,0,0,1,.0213.1608A.0276.0276,0,0,1,19.8558,32.7257Z"/><path class="cls-15" d="M19.9832,32.6977a.3761.3761,0,0,0,.0649-.1449.3618.3618,0,0,0,.003-.0845A.4263.4263,0,0,0,20,32.3144a.0261.0261,0,0,0-.0467-.0044.4069.4069,0,0,0-.0624.1447.3654.3654,0,0,0-.0045.0843.4061.4061,0,0,0,.0486.1548A.0276.0276,0,0,0,19.9832,32.6977Z"/><path class="cls-15" d="M20.207,32.3777a.3962.3962,0,0,0-.122-.0981.0263.0263,0,0,0-.04.0247.4277.4277,0,0,0,.0257.16.3693.3693,0,0,0,.0423.0746.3168.3168,0,0,0,.0855.0743l.016-.2235Z"/><path class="cls-15" d="M19.7722,32.3329a.3237.3237,0,0,1-.1525-.1807.4454.4454,0,0,1-.0189-.1611c.0013-.0232.02-.035.0384-.0231a.4028.4028,0,0,1,.1127.106.3673.3673,0,0,1,.0387.0747.4306.4306,0,0,1,.022.1607A.0259.0259,0,0,1,19.7722,32.3329Z"/><path class="cls-15" d="M19.8934,32.3062a.3228.3228,0,0,0,.0622-.228.4488.4488,0,0,0-.0509-.1541c-.011-.02-.0329-.0233-.0446-.0048a.4085.4085,0,0,0-.0577.1436.3738.3738,0,0,0-.0034.084.4265.4265,0,0,0,.0479.155A.0259.0259,0,0,0,19.8934,32.3062Z"/><path class="cls-15" d="M19.9394,33.1185a.3752.3752,0,0,1-.1244-.1032.3354.3354,0,0,1-.04-.0752.405.405,0,0,1-.0176-.1613.0278.0278,0,0,1,.0428-.0241.4046.4046,0,0,1,.1219.1041.3385.3385,0,0,1,.041.0743.3919.3919,0,0,1,.0206.1609A.0294.0294,0,0,1,19.9394,33.1185Z"/><path class="cls-15" d="M20.0729,33.0891a.3779.3779,0,0,0,.07-.1459.35.35,0,0,0,.0041-.0849.4067.4067,0,0,0-.0523-.1537.0278.0278,0,0,0-.0489-.0038.41.41,0,0,0-.067.1457.3469.3469,0,0,0-.0056.0845.3872.3872,0,0,0,.0493.1547A.0292.0292,0,0,0,20.0729,33.0891Z"/><path class="cls-15" d="M19.4532,32.8009a.3807.3807,0,0,1-.1146-.1109.3341.3341,0,0,1-.0345-.0775.4142.4142,0,0,1-.01-.1617.0259.0259,0,0,1,.0418-.0211.41.41,0,0,1,.1124.1117.386.386,0,0,1,.0361.0766.41.41,0,0,1,.0131.1616A.0274.0274,0,0,1,19.4532,32.8009Z"/><path class="cls-15" d="M19.582,32.7805a.3131.3131,0,0,0,.079-.2262.4185.4185,0,0,0-.0435-.1556.0264.0264,0,0,0-.0465-.0062.3985.3985,0,0,0-.07.14.3661.3661,0,0,0-.0087.0837.4081.4081,0,0,0,.041.1571A.0275.0275,0,0,0,19.582,32.7805Z"/><path class="cls-16" d="M17.9838,33.1381a.3856.3856,0,0,1-.0965-.1294.3439.3439,0,0,1-.0215-.0821.4112.4112,0,0,1,.0181-.1613.027.027,0,0,1,.0461-.0137.418.418,0,0,1,.094.13.3466.3466,0,0,1,.023.0821.3951.3951,0,0,1-.0151.1611A.0284.0284,0,0,1,17.9838,33.1381Z"/><path class="cls-16" d="M18.1177,33.1405a.3616.3616,0,0,0,.098-.1274.3685.3685,0,0,0,.0222-.0826.4106.4106,0,0,0-.0166-.1611.0269.0269,0,0,0-.0459-.0133.4034.4034,0,0,0-.0954.1264.3444.3444,0,0,0-.0237.0812.3957.3957,0,0,0,.0136.1617A.0287.0287,0,0,0,18.1177,33.1405Z"/><path class="cls-16" d="M18.3751,32.7875a.37.37,0,0,1-.0984-.1239.3457.3457,0,0,1-.0244-.0807.44.44,0,0,1,.01-.162.0257.0257,0,0,1,.0437-.0157.4.4,0,0,1,.096.1238.3672.3672,0,0,1,.0258.0807.4106.4106,0,0,1-.0075.1621A.0268.0268,0,0,1,18.3751,32.7875Z"/><path class="cls-16" d="M18.5034,32.7824a.37.37,0,0,0,.0883-.1314.3587.3587,0,0,0,.0176-.0824.435.435,0,0,0-.0234-.1606.0256.0256,0,0,0-.0447-.0122.4008.4008,0,0,0-.0856.1311.3655.3655,0,0,0-.019.0825.4134.4134,0,0,0,.0206.161A.0268.0268,0,0,0,18.5034,32.7824Z"/><path class="cls-16" d="M18.3981,33.4794a.3812.3812,0,0,1-.1063-.1236.3358.3358,0,0,1-.0263-.0807.4081.4081,0,0,1,.0112-.1622.0286.0286,0,0,1,.0475-.016.4048.4048,0,0,1,.1039.1237.3641.3641,0,0,1,.0276.08.38.38,0,0,1-.0087.1622A.03.03,0,0,1,18.3981,33.4794Z"/><path class="cls-16" d="M18.5369,33.4738a.3789.3789,0,0,0,.0962-.1316.3522.3522,0,0,0,.02-.0826.4029.4029,0,0,0-.0246-.1608.0285.0285,0,0,0-.0484-.0121.4041.4041,0,0,0-.0935.1316.355.355,0,0,0-.0208.0823.3822.3822,0,0,0,.0217.161A.03.03,0,0,0,18.5369,33.4738Z"/><path class="cls-16" d="M18.7856,33.1131a.3658.3658,0,0,1-.1076-.1185.3419.3419,0,0,1-.0288-.0806.4053.4053,0,0,1,.0031-.1618.0274.0274,0,0,1,.0447-.0177.4024.4024,0,0,1,.1054.1184.3688.3688,0,0,1,.03.0791.4019.4019,0,0,1-.0006.1622A.0289.0289,0,0,1,18.7856,33.1131Z"/><path class="cls-16" d="M18.9189,33.1a.3881.3881,0,0,0,.0859-.1367A.3611.3611,0,0,0,19.02,32.88a.4123.4123,0,0,0-.0312-.1594.0269.0269,0,0,0-.047-.01.4162.4162,0,0,0-.0833.137.3635.3635,0,0,0-.0161.0837.394.394,0,0,0,.0283.1594A.0282.0282,0,0,0,18.9189,33.1Z"/><path class="cls-15" d="M6.6826,30.8924a.3824.3824,0,0,1-.032-.1474.4172.4172,0,0,1,.01-.0835.51.51,0,0,1,.0659-.1478c.0124-.0193.0316-.02.0392-.0008a.4225.4225,0,0,1,.03.147.4145.4145,0,0,1-.0087.0834.4874.4874,0,0,1-.0632.149C6.7111,30.9118,6.6911,30.9118,6.6826,30.8924Z"/><path class="cls-15" d="M6.7842,30.93A.3882.3882,0,0,0,6.9,30.8317a.4254.4254,0,0,0,.0432-.0726.5142.5142,0,0,0,.0384-.1569c.002-.0229-.0129-.0351-.0307-.0242a.4536.4536,0,0,0-.1134.0973.4183.4183,0,0,0-.0439.0706.4863.4863,0,0,0-.0414.1569C6.75,30.9261,6.7657,30.9391,6.7842,30.93Z"/><path class="cls-15" d="M6.9922,30.9926a.3756.3756,0,0,1-.0389-.1449A.4087.4087,0,0,1,6.96,30.764a.5233.5233,0,0,1,.0592-.1507c.0117-.02.0309-.0218.04-.003a.4146.4146,0,0,1,.0365.1447.4349.4349,0,0,1-.0049.0834.4833.4833,0,0,1-.0568.1517C7.0217,31.01,7.0016,31.0115,6.9922,30.9926Z"/><path class="cls-15" d="M7.0956,31.0239a.3693.3693,0,0,0,.1108-.1.43.43,0,0,0,.04-.0741.5073.5073,0,0,0,.0313-.1586c.0011-.0231-.014-.0354-.0312-.0244a.41.41,0,0,0-.1086.1007.4285.4285,0,0,0-.0407.0727.4876.4876,0,0,0-.0342.1585C7.0613,31.0223,7.0776,31.0345,7.0956,31.0239Z"/><path class="cls-15" d="M6.7686,31.7349a.3331.3331,0,0,1-.0427-.2317.4711.4711,0,0,1,.06-.15c.0123-.02.0334-.021.0434-.0018a.3626.3626,0,0,1,.0419.2312.4416.4416,0,0,1-.0581.1514A.0244.0244,0,0,1,6.7686,31.7349Z"/><path class="cls-15" d="M6.8829,31.7694a.3681.3681,0,0,0,.1192-.0973.39.39,0,0,0,.0417-.0736.4591.4591,0,0,0,.03-.1588c0-.0233-.0165-.0362-.0352-.0255a.4.4,0,0,0-.1168.0984.3871.3871,0,0,0-.0427.072.4411.4411,0,0,0-.033.1589C6.8453,31.7669,6.8635,31.78,6.8829,31.7694Z"/><path class="cls-15" d="M6.8843,31.3507a.375.375,0,0,1-.0429-.1462.4058.4058,0,0,1,.0054-.0837.4954.4954,0,0,1,.06-.1506c.0121-.02.0321-.0214.0414-.0026a.4145.4145,0,0,1,.04.1459.4249.4249,0,0,1-.004.0841.464.464,0,0,1-.0575.1515C6.9155,31.3691,6.8945,31.37,6.8843,31.3507Z"/><path class="cls-15" d="M6.993,31.3835a.364.364,0,0,0,.1149-.0985.41.41,0,0,0,.0406-.0736.4865.4865,0,0,0,.0308-.1587c.0009-.0237-.0152-.0358-.0331-.0252a.3629.3629,0,0,0-.1543.1723.4632.4632,0,0,0-.0336.1587C6.957,31.3816,6.9744,31.3939,6.993,31.3835Z"/><path class="cls-15" d="M7.303,31.0793a.3747.3747,0,0,1-.0454-.1421.3911.3911,0,0,1,.0028-.0836A.5053.5053,0,0,1,7.3128,30.7c.0107-.02.03-.0235.0393-.0052a.405.405,0,0,1,.0432.1419.4478.4478,0,0,1-.0011.0834.497.497,0,0,1-.05.1542C7.3334,31.0954,7.3133,31.0976,7.303,31.0793Z"/><path class="cls-15" d="M7.4081,31.1047a.3757.3757,0,0,0,.1065-.1054.4109.4109,0,0,0,.0364-.0755.51.51,0,0,0,.0246-.16c0-.023-.0158-.0345-.0325-.0225a.4147.4147,0,0,0-.1042.1063.4343.4343,0,0,0-.0376.0746.4882.4882,0,0,0-.0273.16C7.3736,31.1051,7.3907,31.1163,7.4081,31.1047Z"/><path class="cls-15" d="M6.8156,30.5135a.3853.3853,0,0,1-.0279-.1459.4324.4324,0,0,1,.0114-.0832.5416.5416,0,0,1,.0652-.148c.0121-.0194.03-.0206.0372-.0015a.4291.4291,0,0,1,.0254.1455.4451.4451,0,0,1-.01.083.5157.5157,0,0,1-.0626.1492C6.8423,30.5323,6.8232,30.5326,6.8156,30.5135Z"/><path class="cls-15" d="M6.9115,30.5487a.3918.3918,0,0,0,.1118-.0993.4482.4482,0,0,0,.0422-.0729.5414.5414,0,0,0,.039-.1568c.0023-.0227-.0116-.0346-.0287-.0234a.4575.4575,0,0,0-.1092.0987.44.44,0,0,0-.0428.0708.5139.5139,0,0,0-.042.1568C6.8791,30.5458,6.8938,30.5585,6.9115,30.5487Z"/><path class="cls-15" d="M7.4018,30.69a.3752.3752,0,0,1-.0412-.141.4108.4108,0,0,1,.0039-.0834.5314.5314,0,0,1,.0518-.1535c.01-.0205.0286-.0238.0372-.0057a.4107.4107,0,0,1,.0389.1409.4735.4735,0,0,1-.0021.0831.52.52,0,0,1-.05.1543C7.43,30.7057,7.4113,30.7081,7.4018,30.69Z"/><path class="cls-15" d="M7.5011,30.7141a.379.379,0,0,0,.1023-.1064.4369.4369,0,0,0,.0353-.0758.5378.5378,0,0,0,.0252-.16c0-.023-.0144-.0343-.03-.0221a.421.421,0,0,0-.1.1074.4507.4507,0,0,0-.0365.0748.5172.5172,0,0,0-.0279.16C7.4685,30.7149,7.4845,30.7258,7.5011,30.7141Z"/><path class="cls-15" d="M6.55,31.2714a.38.38,0,0,1-.0362-.149.3906.3906,0,0,1,.0093-.0838.4785.4785,0,0,1,.0664-.1476c.0127-.0193.0329-.02.0413,0a.4186.4186,0,0,1,.0338.1485.3947.3947,0,0,1-.0077.0837.4634.4634,0,0,1-.0638.1488C6.58,31.2914,6.5589,31.291,6.55,31.2714Z"/><path class="cls-15" d="M6.657,31.31a.3853.3853,0,0,0,.12-.0964.415.415,0,0,0,.0442-.0723.4854.4854,0,0,0,.0378-.1572c.0017-.0229-.0142-.0354-.0328-.0247a.4469.4469,0,0,0-.1176.0959.3906.3906,0,0,0-.0448.07.4625.4625,0,0,0-.0409.1572C6.6211,31.3064,6.6378,31.32,6.657,31.31Z"/><path class="cls-15" d="M7.2042,31.4686a.3339.3339,0,0,1-.0478-.2271.4784.4784,0,0,1,.053-.1532c.011-.02.0312-.0231.0413-.0047a.4027.4027,0,0,1,.0475.1431.4247.4247,0,0,1,0,.0836.4718.4718,0,0,1-.0507.1541C7.2364,31.485,7.2153,31.487,7.2042,31.4686Z"/><path class="cls-15" d="M7.3151,31.4954a.3779.3779,0,0,0,.1108-.1044.3973.3973,0,0,0,.0374-.0753.4818.4818,0,0,0,.024-.16c0-.0231-.0171-.0348-.0345-.023a.41.41,0,0,0-.1086.1053.4149.4149,0,0,0-.0386.0743.4651.4651,0,0,0-.0266.16C7.2789,31.4953,7.2969,31.5068,7.3151,31.4954Z"/><path class="cls-15" d="M7.6421,31.1579a.3588.3588,0,0,1-.0519-.14.4042.4042,0,0,1-.001-.0845.4992.4992,0,0,1,.045-.1551c.01-.021.0284-.0233.0387-.0058a.4033.4033,0,0,1,.05.139.4422.4422,0,0,1,.0029.0832.4946.4946,0,0,1-.0428.1565C7.6733,31.1722,7.6533,31.1755,7.6421,31.1579Z"/><path class="cls-15" d="M7.7485,31.1774a.3811.3811,0,0,0,.1015-.111.4137.4137,0,0,0,.0328-.0773.5081.5081,0,0,0,.017-.161c-.0009-.023-.0174-.0335-.0335-.0207a.42.42,0,0,0-.0993.1119.43.43,0,0,0-.034.0764.4852.4852,0,0,0-.02.1608C7.714,31.18,7.7316,31.19,7.7485,31.1774Z"/><path class="cls-15" d="M6.3643,30.7737a.3905.3905,0,0,1-.0246-.15.4077.4077,0,0,1,.0144-.083.5038.5038,0,0,1,.0726-.1445c.0133-.0187.0325-.0184.0391.0014a.4309.4309,0,0,1,.0224.149.4648.4648,0,0,1-.0125.0825.4977.4977,0,0,1-.07.1462C6.3918,30.7948,6.3719,30.7936,6.3643,30.7737Z"/><path class="cls-15" d="M6.465,30.8129a.3857.3857,0,0,0,.12-.0917.4239.4239,0,0,0,.0465-.07.507.507,0,0,0,.0458-.1551c.0033-.0227-.0111-.0358-.0294-.0259a.4293.4293,0,0,0-.1182.093.4345.4345,0,0,0-.0475.0692.4835.4835,0,0,0-.0485.1543C6.4306,30.8093,6.4462,30.8223,6.465,30.8129Z"/><path class="cls-16" d="M5.9569,30.0472a.5821.5821,0,0,1-.0647.1481.3987.3987,0,0,1-.0539.062.2153.2153,0,0,1-.04.0323,1.1671,1.1671,0,0,1,.0081-.194.4232.4232,0,0,1,.1266-.0781C5.9515,30.0094,5.9623,30.0256,5.9569,30.0472Z"/><path class="cls-16" d="M5.8842,30.524a.4648.4648,0,0,1-.0189.0835.4071.4071,0,0,1-.0592.1078,2.6913,2.6913,0,0,1-.0135-.2964c.0135-.0188.0269-.035.0377-.0485.0134-.0188.035-.0161.04.0027A.4779.4779,0,0,1,5.8842,30.524Z"/><path class="cls-16" d="M5.84,30.7906a.3727.3727,0,0,0,.1285-.0782.4015.4015,0,0,0,.0523-.0657.4964.4964,0,0,0,.0579-.1512c.005-.0229-.0086-.0376-.0276-.03a.3686.3686,0,0,0-.18.1444.47.47,0,0,0-.0606.15C5.8058,30.7824,5.8205,30.7978,5.84,30.7906Z"/><path class="cls-15" d="M9.7919,31.2731a.37.37,0,0,1-.0906-.1189.4031.4031,0,0,1-.0256-.08.5083.5083,0,0,1-.002-.162c.0031-.0229.02-.0321.0352-.018a.38.38,0,0,1,.1151.1985.4908.4908,0,0,1,.0051.162C9.8258,31.2782,9.8076,31.2869,9.7919,31.2731Z"/><path class="cls-15" d="M9.9,31.2622a.3734.3734,0,0,0,.0647-.1347.411.411,0,0,0,.0089-.0833.5141.5141,0,0,0-.031-.1591c-.0077-.0217-.0264-.0273-.0381-.0105a.415.415,0,0,0-.0623.1349.42.42,0,0,0-.01.0828.4856.4856,0,0,0,.028.16C9.8671,31.274,9.8867,31.2789,9.9,31.2622Z"/><path class="cls-15" d="M10.1152,31.2362a.3614.3614,0,0,1-.096-.1143.4289.4289,0,0,1-.0293-.0794.515.515,0,0,1-.0094-.1612c.0023-.0227.019-.0318.0345-.0189a.4039.4039,0,0,1,.0935.1143.4388.4388,0,0,1,.03.0774.4866.4866,0,0,1,.0121.1618C10.1493,31.2392,10.1316,31.249,10.1152,31.2362Z"/><path class="cls-15" d="M10.2218,31.219A.3791.3791,0,0,0,10.28,31.08a.44.44,0,0,0,.0049-.0838.5141.5141,0,0,0-.0383-.1573c-.0087-.0213-.0275-.0258-.0384-.0083a.4211.4211,0,0,0-.0558.1386.4269.4269,0,0,0-.0064.0834.4843.4843,0,0,0,.0355.158C10.19,31.2326,10.21,31.2364,10.2218,31.219Z"/><path class="cls-15" d="M10.2236,32.0038a.3618.3618,0,0,1-.1047-.1131.3919.3919,0,0,1-.0315-.0791.4637.4637,0,0,1-.0081-.1614c.0028-.0227.0216-.0321.0387-.02a.3556.3556,0,0,1,.135.19.4391.4391,0,0,1,.0108.162A.0248.0248,0,0,1,10.2236,32.0038Z"/><path class="cls-15" d="M10.4128,31.7255a2.2791,2.2791,0,0,1-.105.2667.0271.0271,0,0,1-.0108-.0134.4641.4641,0,0,1-.035-.159.2837.2837,0,0,1,.0081-.0835.378.378,0,0,1,.0646-.14c.0108-.0188.0323-.0135.0431.0081A.604.604,0,0,1,10.4128,31.7255Z"/><path class="cls-15" d="M10.1675,31.6064a.3552.3552,0,0,1-.1-.1137.404.404,0,0,1-.03-.079.4893.4893,0,0,1-.0088-.1613c.0025-.0232.02-.0319.0365-.0194a.4048.4048,0,0,1,.0978.1137.43.43,0,0,1,.0316.0777.4656.4656,0,0,1,.0114.1619C10.2035,31.6093,10.1847,31.6192,10.1675,31.6064Z"/><path class="cls-15" d="M10.28,31.5884a.372.372,0,0,0,.0627-.1393.4175.4175,0,0,0,.006-.0837.4885.4885,0,0,0-.0389-.1572c-.0091-.0218-.0287-.0256-.04-.0082a.4191.4191,0,0,0-.06.1392.4115.4115,0,0,0-.0074.084.4642.4642,0,0,0,.0361.1579C10.2464,31.6024,10.2673,31.6059,10.28,31.5884Z"/><path class="cls-15" d="M10.4339,31.1848a.3932.3932,0,0,1-.1015-.1128.3978.3978,0,0,1-.0327-.0777.5019.5019,0,0,1-.017-.1608c.0011-.0229.0173-.0329.0336-.02a.3929.3929,0,0,1,.1332.1887.4932.4932,0,0,1,.02.1611C10.4683,31.1872,10.4511,31.1979,10.4339,31.1848Z"/><path class="cls-15" d="M10.54,31.1625a.388.388,0,0,0,.0516-.1422.4216.4216,0,0,0,.0009-.0841.5058.5058,0,0,0-.0454-.1553c-.0095-.0209-.0287-.0242-.0386-.006a.4262.4262,0,0,0-.049.142.4339.4339,0,0,0-.0025.0839.4811.4811,0,0,0,.0426.156C10.5087,31.178,10.5288,31.1805,10.54,31.1625Z"/><path class="cls-15" d="M9.754,30.8733a.3716.3716,0,0,1-.0861-.1193.4245.4245,0,0,1-.0245-.08.5431.5431,0,0,1-.0027-.162c.0029-.0228.0189-.0319.033-.0177a.4164.4164,0,0,1,.0837.12.4334.4334,0,0,1,.0259.0791.5189.5189,0,0,1,.0057.1619C9.786,30.8786,9.7689,30.8872,9.754,30.8733Z"/><path class="cls-15" d="M9.8555,30.863a.3764.3764,0,0,0,.06-.1342.4392.4392,0,0,0,.0077-.0831.5461.5461,0,0,0-.03-.1592c-.0074-.0218-.0251-.0274-.0359-.0107A.42.42,0,0,0,9.8,30.61a.4428.4428,0,0,0-.0092.0827.5137.5137,0,0,0,.0274.16C9.825,30.8746,9.8436,30.88,9.8555,30.863Z"/><path class="cls-15" d="M10.3594,30.79a.3952.3952,0,0,1-.0969-.1135.4222.4222,0,0,1-.0317-.078.5348.5348,0,0,1-.0176-.1606c.0008-.0228.016-.0327.0314-.0194a.4418.4418,0,0,1,.0947.1138.47.47,0,0,1,.0329.0759.526.526,0,0,1,.02.161C10.392,30.7929,10.3758,30.8034,10.3594,30.79Z"/><path class="cls-15" d="M10.4591,30.769a.39.39,0,0,0,.0469-.1411.4448.4448,0,0,0,0-.084.5435.5435,0,0,0-.0447-.1553c-.0093-.021-.0273-.0245-.0365-.0065a.437.437,0,0,0-.0444.141.4668.4668,0,0,0-.0014.0837.5163.5163,0,0,0,.042.1562C10.43,30.7842,10.4491,30.787,10.4591,30.769Z"/><path class="cls-15" d="M9.83,31.6729a.3707.3707,0,0,1-.0952-.1185.3928.3928,0,0,1-.0266-.08.4835.4835,0,0,1-.0014-.162c.0035-.0229.0216-.0322.0374-.0182a.4065.4065,0,0,1,.0927.1192.3884.3884,0,0,1,.028.0788.4653.4653,0,0,1,.0044.1621C9.8656,31.6778,9.8463,31.6866,9.83,31.6729Z"/><path class="cls-15" d="M9.9435,31.6613a.3733.3733,0,0,0,.0693-.1352.4055.4055,0,0,0,.01-.0834.4853.4853,0,0,0-.0317-.159c-.008-.0217-.0278-.0271-.04-.01a.4072.4072,0,0,0-.0668.1353.4019.4019,0,0,0-.0114.0829.4609.4609,0,0,0,.0287.16C9.9092,31.6733,9.93,31.6781,9.9435,31.6613Z"/><path class="cls-15" d="M10.5152,31.3672c-.0135.0593-.03.1213-.0485.18a.4036.4036,0,0,1-.0646-.0808.3406.3406,0,0,1-.0324-.0781.5262.5262,0,0,1-.0188-.159c.0027-.0242.0188-.035.0377-.0215a.4327.4327,0,0,1,.1024.1131A.3733.3733,0,0,1,10.5152,31.3672Z"/><path class="cls-15" d="M9.4531,31.297a.3794.3794,0,0,1-.0849-.1238.3956.3956,0,0,1-.0216-.0811A.5032.5032,0,0,1,9.352,30.93c.0043-.0227.0218-.0308.0361-.0159a.4167.4167,0,0,1,.0827.1244.4577.4577,0,0,1,.0232.08.4924.4924,0,0,1-.003.162C9.4868,31.304,9.4683,31.3117,9.4531,31.297Z"/><path class="cls-15" d="M9.5611,31.2923a.3652.3652,0,0,0,.0711-.131.4328.4328,0,0,0,.0128-.0837.5071.5071,0,0,0-.0232-.16c-.0066-.0215-.0251-.0279-.0376-.0119a.4068.4068,0,0,0-.0687.1309.4274.4274,0,0,0-.0142.082.4889.4889,0,0,0,.0205.1609C9.5282,31.3022,9.5478,31.3082,9.5611,31.2923Z"/><path class="cls-16" d="M8.2069,31.48a.3825.3825,0,0,1-.0656-.1369.4011.4011,0,0,1-.0086-.0835.4978.4978,0,0,1,.0327-.1588c.0082-.0218.0273-.0265.04-.01a.42.42,0,0,1,.0632.1371.3991.3991,0,0,1,.01.0836.4717.4717,0,0,1-.03.1589C8.24,31.4921,8.22,31.4967,8.2069,31.48Z"/><path class="cls-16" d="M8.3176,31.4935a.3607.3607,0,0,0,.0946-.1179.4185.4185,0,0,0,.027-.08.4961.4961,0,0,0,.0034-.1618c-.0031-.0232-.021-.0307-.0364-.0176a.4132.4132,0,0,0-.0921.1176.4068.4068,0,0,0-.0283.0787.471.471,0,0,0-.0062.1619C8.2825,31.4974,8.3012,31.5069,8.3176,31.4935Z"/><path class="cls-16" d="M8.567,31.1667a.3717.3717,0,0,1-.0679-.1327.4071.4071,0,0,1-.0116-.0827.53.53,0,0,1,.0252-.16c.007-.022.0251-.0279.0373-.0115a.4124.4124,0,0,1,.0657.1325.4351.4351,0,0,1,.0128.0827.4946.4946,0,0,1-.0227.16C8.5992,31.1772,8.58,31.1833,8.567,31.1667Z"/><path class="cls-16" d="M8.673,31.1741a.37.37,0,0,0,.0856-.1221.4122.4122,0,0,0,.0226-.08.5206.5206,0,0,0-.0033-.162c-.0038-.0228-.0209-.0311-.0352-.0165a.4118.4118,0,0,0-.0831.1221.4333.4333,0,0,0-.0239.08.4988.4988,0,0,0,.0005.1622C8.64,31.18,8.658,31.1887,8.673,31.1741Z"/><path class="cls-16" d="M8.5147,31.857a.373.373,0,0,1-.0755-.1332.3837.3837,0,0,1-.0134-.0828.4844.4844,0,0,1,.0263-.16c.0075-.0223.0274-.0276.0409-.0113a.4035.4035,0,0,1,.0732.1331.4107.4107,0,0,1,.0147.0827.4518.4518,0,0,1-.0238.16C8.55,31.8679,8.5291,31.8734,8.5147,31.857Z"/><path class="cls-16" d="M8.6308,31.865a.37.37,0,0,0,.0932-.1215.4.4,0,0,0,.0244-.08.4793.4793,0,0,0-.0043-.1623c-.0044-.0231-.0232-.0311-.0389-.0168a.3612.3612,0,0,0-.1163.2016.4513.4513,0,0,0,.0016.1622C8.5944,31.871,8.6145,31.8793,8.6308,31.865Z"/><path class="cls-16" d="M8.873,31.5315a.367.367,0,0,1-.0773-.1293.3889.3889,0,0,1-.0158-.083.4844.4844,0,0,1,.0185-.1607c.0062-.0222.0248-.0279.0384-.013a.4063.4063,0,0,1,.0752.1291.4415.4415,0,0,1,.0175.0819.4811.4811,0,0,1-.0161.1613C8.9073,31.54,8.8875,31.547,8.873,31.5315Z"/><path class="cls-16" d="M8.9846,31.5329a.3831.3831,0,0,0,.0838-.1265.4077.4077,0,0,0,.02-.0815.4956.4956,0,0,0-.0108-.1618c-.005-.0228-.0236-.03-.0378-.015a.3766.3766,0,0,0-.1027.2085.4753.4753,0,0,0,.0081.1616C8.95,31.5407,8.97,31.5481,8.9846,31.5329Z"/><path class="cls-4" d="M7.5094,29.5572l.0442.009c.0221.0056.0463.0115.0407.0368-.004.0182-.0236.0206-.0431.0206a.5779.5779,0,0,1-.1771-.0309c-.0159-.005-.0278-.0165-.0277-.0288,0-.0214.0216-.02.04-.0178Z"/><path class="cls-4" d="M6.8932,29.4739l-.0519-.0153c-.0167-.0057-.0244-.0183-.02-.0307a.03.03,0,0,1,.0241-.0151,1.13,1.13,0,0,1,.22.0366c.0149.0044.0276.0165.0269.0291-.0011.0208-.023.0176-.0413.019A.6386.6386,0,0,1,6.8932,29.4739Z"/><path class="cls-4" d="M6.4391,29.331c-.0393-.0166-.0745-.03-.1081-.0464a.0265.0265,0,0,1-.0158-.0332c.0058-.0134.0208-.016.036-.0116l.2142.0639c.0166.0053.0322.02.0245.0388a.0289.0289,0,0,1-.0345.0151Z"/><path class="cls-4" d="M7.8648,29.67a.5661.5661,0,0,1,.2279,0,.0211.0211,0,0,1,.0217.0178.0228.0228,0,0,1-.0241.0255A.47.47,0,0,1,7.8648,29.67Z"/><path class="cls-4" d="M8.644,29.78a.3944.3944,0,0,1-.2793-.0233.0254.0254,0,0,1-.0145-.04.05.05,0,0,1,.0562-.0206A.5488.5488,0,0,1,8.644,29.78Z"/><path class="cls-4" d="M10.6418,29.7831a.9193.9193,0,0,1-.1239.0108c-.0162,0-.0323-.0054-.035-.0188-.0054-.0189.0134-.0243.0323-.03.0431-.0081.0862-.0188.1212-.0269h.0027A.5171.5171,0,0,1,10.6418,29.7831Z"/><path class="cls-4" d="M10.0245,29.8345l-.054.0025c-.0176,0-.0289-.0093-.0283-.0226a.03.03,0,0,1,.0181-.0222,1.01,1.01,0,0,1,.22-.0361.0353.0353,0,0,1,.0348.02c.0055.02-.0163.0234-.0333.03A.7526.7526,0,0,1,10.0245,29.8345Z"/><path class="cls-4" d="M9.5485,29.8431c-.0425-.0032-.08-.0032-.1172-.0093a.0275.0275,0,0,1-.0255-.0273c.0013-.0144.0148-.0213.0306-.0214L9.66,29.776c.0175,0,.0367.0079.0356.0286a.03.03,0,0,1-.028.0256Z"/><path class="cls-4" d="M8.98,29.8282c-.0349-.0033-.0584.0017-.0787-.01a.0315.0315,0,0,1-.0132-.0149.0156.0156,0,0,1,.0131-.0216.7126.7126,0,0,1,.2321-.0166c.01.0014.0214.0045.0231.0169a.0255.0255,0,0,1-.0224.0281A.4036.4036,0,0,1,8.98,29.8282Z"/><path class="cls-4" d="M7.5094,29.2421l.0442.009c.0221.0056.0463.0115.0407.0369-.004.0181-.0236.02-.0431.0206a.575.575,0,0,1-.1771-.031c-.0159-.0049-.0278-.0165-.0277-.0288,0-.0214.0216-.02.04-.0177Z"/><path class="cls-4" d="M6.8932,29.1588l-.0519-.0152c-.0167-.0057-.0244-.0183-.02-.0308a.03.03,0,0,1,.0241-.0151,1.13,1.13,0,0,1,.22.0367c.0149.0043.0276.0164.0269.0291-.0011.0207-.023.0175-.0413.019A.6435.6435,0,0,1,6.8932,29.1588Z"/><path class="cls-4" d="M6.4391,29.0159c-.0393-.0166-.0745-.03-.1081-.0464a.0264.0264,0,0,1-.0158-.0332.0278.0278,0,0,1,.036-.0116l.2142.0639c.0166.0054.0322.0195.0245.0388a.0288.0288,0,0,1-.0345.0151Z"/><path class="cls-4" d="M7.8648,29.3548a.5679.5679,0,0,1,.2279,0,.0211.0211,0,0,1,.0217.0178.0228.0228,0,0,1-.0241.0255A.4678.4678,0,0,1,7.8648,29.3548Z"/><path class="cls-4" d="M8.644,29.4652a.3949.3949,0,0,1-.2793-.0233.0254.0254,0,0,1-.0145-.04.05.05,0,0,1,.0562-.0206A.5488.5488,0,0,1,8.644,29.4652Z"/><path class="cls-4" d="M10.6337,29.4679a.8008.8008,0,0,1-.1158.0108c-.0162,0-.0323-.0054-.035-.0189-.0054-.0188.0134-.0242.0323-.03.04-.0081.0809-.0189.1158-.0269C10.631,29.4248,10.6337,29.4464,10.6337,29.4679Z"/><path class="cls-4" d="M10.0245,29.5194l-.054.0026c-.0176,0-.0289-.0093-.0283-.0227a.03.03,0,0,1,.0181-.0221.9978.9978,0,0,1,.22-.0361.035.035,0,0,1,.0348.02c.0055.02-.0163.0234-.0333.03A.7462.7462,0,0,1,10.0245,29.5194Z"/><path class="cls-4" d="M9.5485,29.5281c-.0425-.0032-.08-.0032-.1172-.0093a.0276.0276,0,0,1-.0255-.0273c.0013-.0145.0148-.0213.0306-.0215l.2233-.009c.0175,0,.0367.0079.0356.0286a.03.03,0,0,1-.028.0256Z"/><path class="cls-4" d="M8.98,29.5131c-.0349-.0032-.0584.0018-.0787-.01a.0317.0317,0,0,1-.0132-.0148.0157.0157,0,0,1,.0131-.0217.7181.7181,0,0,1,.2321-.0166c.01.0014.0214.0045.0231.0169a.0256.0256,0,0,1-.0224.0282A.4054.4054,0,0,1,8.98,29.5131Z"/><path class="cls-4" d="M15.7872,31.1021l.032.0049c.0159.0036.0334.0072.0291.0328-.0031.0183-.0173.0225-.0314.0243a.34.34,0,0,1-.1281-.0131.0266.0266,0,0,1-.02-.0254c0-.0212.0158-.0219.0293-.0219Z"/><path class="cls-4" d="M15.34,31.0911l-.038-.0072a.0206.0206,0,0,1-.0146-.0271c.002-.0075.0115-.018.0175-.0184a.526.526,0,0,1,.161.0045.0264.0264,0,0,1,.0195.0259c-.0008.0206-.0167.02-.03.0233A.396.396,0,0,1,15.34,31.0911Z"/><path class="cls-4" d="M15.0068,31.0182c-.029-.01-.0551-.0169-.08-.0273a.0242.0242,0,0,1-.0122-.03.0224.0224,0,0,1,.0262-.0173l.158.0267a.0249.0249,0,0,1,.0186.0337.0253.0253,0,0,1-.0251.02Z"/><path class="cls-4" d="M14.6107,30.9255c-.0241-.0067-.0419-.0043-.0539-.0179a.0281.0281,0,0,1-.0063-.0158.0174.0174,0,0,1,.0137-.02.3218.3218,0,0,1,.1677.0114.0175.0175,0,0,1,.0127.02.0251.0251,0,0,1-.0216.0243A.2556.2556,0,0,1,14.6107,30.9255Z"/><path class="cls-4" d="M16.0432,31.1833c.0549-.0316.11-.01.1644-.0132.0075,0,.0145.0048.0153.0161a.0235.0235,0,0,1-.0179.027A.2289.2289,0,0,1,16.0432,31.1833Z"/><path class="cls-4" d="M16.602,31.2556c-.076.05-.1378.0054-.2-.0136-.0123-.0038-.0179-.0232-.0093-.04s.0233-.0279.041-.0223A.3145.3145,0,0,1,16.602,31.2556Z"/><path class="cls-4" d="M18.0309,31.2742l.0324,0c.0162.001.0341.0018.0342.0277,0,.0186-.0133.025-.0269.029a.35.35,0,0,1-.1285.0081.0255.0255,0,0,1-.0239-.0211c-.0033-.0208.0118-.0245.0252-.0271Z"/><path class="cls-4" d="M17.5877,31.3385l-.0386-.001a.0207.0207,0,0,1-.0189-.0244.0285.0285,0,0,1,.0141-.0209.525.525,0,0,1,.1594-.0216.0265.0265,0,0,1,.0236.0224c.0027.0205-.0131.0223-.0256.0278A.3931.3931,0,0,1,17.5877,31.3385Z"/><path class="cls-4" d="M17.2475,31.3232c-.03-.0048-.0571-.0077-.0833-.0139a.0245.0245,0,0,1-.017-.0274.0222.0222,0,0,1,.0229-.0213l.16.0008a.0277.0277,0,0,1,.0027.0545Z"/><path class="cls-4" d="M16.8415,31.2989c-.0249-.0027-.042.0026-.0561-.0089a.0276.0276,0,0,1-.0089-.0146.0174.0174,0,0,1,.01-.0218.3212.3212,0,0,1,.1672-.0159.0175.0175,0,0,1,.0158.0175.025.025,0,0,1-.0171.0275A.2541.2541,0,0,1,16.8415,31.2989Z"/><path class="cls-4" d="M18.297,31.3131c.0487-.0418.1061-.0309.16-.0424a.0151.0151,0,0,1,.0178.0134.0231.0231,0,0,1-.0131.03A.243.243,0,0,1,18.297,31.3131Z"/><path class="cls-4" d="M18.86,31.2887c-.0665.0614-.1346.0318-.2.0217-.0129-.0018-.0216-.02-.0159-.0375s.0183-.0313.0367-.0285A.3136.3136,0,0,1,18.86,31.2887Z"/><path class="cls-4" d="M19.8456,31.2056l-.0383.0053a.0209.0209,0,0,1-.0228-.0211.0286.0286,0,0,1,.01-.0229.5259.5259,0,0,1,.1537-.047.0268.0268,0,0,1,.0271.0182c.0061.02-.0092.0241-.0206.0316A.3944.3944,0,0,1,19.8456,31.2056Z"/><path class="cls-4" d="M19.5077,31.2484c-.0306,0-.0576.0015-.0845,0a.0247.0247,0,0,1-.0214-.0243.0221.0221,0,0,1,.019-.0247l.1582-.0251a.0277.0277,0,0,1,.0118.0533Z"/><path class="cls-4" d="M19.1033,31.2928c-.025.0013-.0409.0093-.0568,0a.0286.0286,0,0,1-.0112-.013.0171.0171,0,0,1,.0064-.0231.345.345,0,0,1,.162-.0441.017.017,0,0,1,.0185.0142.0257.0257,0,0,1-.0122.03A.2324.2324,0,0,1,19.1033,31.2928Z"/><path class="cls-4" d="M15.7872,30.8089l.032.0049c.0159.0036.0334.0072.0291.0328-.0031.0183-.0173.0225-.0314.0243a.34.34,0,0,1-.1281-.0131.0266.0266,0,0,1-.02-.0255c0-.0211.0158-.0218.0293-.0218Z"/><path class="cls-4" d="M15.34,30.7979l-.038-.0072a.0206.0206,0,0,1-.0146-.0271c.002-.0075.0115-.018.0175-.0184a.526.526,0,0,1,.161.0045.0264.0264,0,0,1,.0195.0259c-.0008.0206-.0167.02-.03.0232A.3925.3925,0,0,1,15.34,30.7979Z"/><path class="cls-4" d="M15.0068,30.725c-.029-.01-.0551-.017-.08-.0273a.0242.0242,0,0,1-.0122-.03.0224.0224,0,0,1,.0262-.0173l.158.0267a.0249.0249,0,0,1,.0186.0337.0253.0253,0,0,1-.0251.02Z"/><path class="cls-4" d="M14.6107,30.6323c-.0241-.0067-.0419-.0043-.0539-.0179a.0281.0281,0,0,1-.0063-.0158.0174.0174,0,0,1,.0137-.02.3218.3218,0,0,1,.1677.0114.0175.0175,0,0,1,.0127.02.0251.0251,0,0,1-.0216.0243A.2556.2556,0,0,1,14.6107,30.6323Z"/><path class="cls-4" d="M16.0432,30.89c.0549-.0316.11-.01.1644-.0132.0075,0,.0145.0048.0153.0161a.0235.0235,0,0,1-.0179.027A.2289.2289,0,0,1,16.0432,30.89Z"/><path class="cls-4" d="M16.602,30.9624c-.076.05-.1378.0054-.2-.0136-.0123-.0038-.0179-.0232-.0093-.0395s.0233-.0279.041-.0223A.3145.3145,0,0,1,16.602,30.9624Z"/><path class="cls-4" d="M18.0309,30.981l.0324,0c.0162.001.0341.0018.0342.0277,0,.0186-.0133.0249-.0269.029a.35.35,0,0,1-.1285.0081.0255.0255,0,0,1-.0239-.0211c-.0033-.0208.0118-.0245.0252-.0271Z"/><path class="cls-4" d="M17.5877,31.0453l-.0386-.001A.0207.0207,0,0,1,17.53,31.02a.0285.0285,0,0,1,.0141-.0209.525.525,0,0,1,.1594-.0216A.0265.0265,0,0,1,17.7273,31c.0027.02-.0131.0223-.0256.0278A.3931.3931,0,0,1,17.5877,31.0453Z"/><path class="cls-4" d="M17.2475,31.03c-.03-.0048-.0571-.0077-.0833-.0139a.0245.0245,0,0,1-.017-.0274.0222.0222,0,0,1,.0229-.0213l.16.0008a.0277.0277,0,0,1,.0027.0545Z"/><path class="cls-4" d="M16.8415,31.0057c-.0249-.0027-.042.0026-.0561-.0089a.0276.0276,0,0,1-.0089-.0146.0174.0174,0,0,1,.01-.0218.3212.3212,0,0,1,.1672-.0159.0175.0175,0,0,1,.0158.0175.025.025,0,0,1-.0171.0275A.2541.2541,0,0,1,16.8415,31.0057Z"/><path class="cls-4" d="M18.297,31.02c.0487-.0418.1061-.0309.16-.0424a.0151.0151,0,0,1,.0178.0134.0231.0231,0,0,1-.0131.0295A.243.243,0,0,1,18.297,31.02Z"/><path class="cls-4" d="M18.86,30.9955c-.0665.0614-.1346.0318-.2.0217-.0129-.0018-.0216-.02-.0159-.0375s.0183-.0313.0367-.0285A.3136.3136,0,0,1,18.86,30.9955Z"/><path class="cls-4" d="M19.8456,30.9124l-.0383.0053a.0209.0209,0,0,1-.0228-.0211.0286.0286,0,0,1,.01-.0229.5259.5259,0,0,1,.1537-.047.0268.0268,0,0,1,.0271.0182c.0061.02-.0092.0241-.0206.0316A.3944.3944,0,0,1,19.8456,30.9124Z"/><path class="cls-4" d="M19.5077,30.9552c-.0306,0-.0576.0015-.0845,0a.0247.0247,0,0,1-.0214-.0243.0221.0221,0,0,1,.019-.0247l.1582-.0251a.0277.0277,0,0,1,.0118.0533Z"/><path class="cls-4" d="M19.1033,31c-.025.0013-.0409.0093-.0568,0a.0286.0286,0,0,1-.0112-.013.0171.0171,0,0,1,.0064-.0231.3438.3438,0,0,1,.162-.0441.017.017,0,0,1,.0185.0142.0257.0257,0,0,1-.0122.03A.2324.2324,0,0,1,19.1033,31Z"/></g></g></g></g></g></g></svg>