<svg xmlns="http://www.w3.org/2000/svg" width="166.5005" height="133.5" viewBox="0 0 166.5005 133.5"><defs><style>.cls-1{fill:#c5cbcb;}.cls-2{fill:#e1e8e8;}.cls-3{fill:#ebf0f0;}.cls-4{fill:#ffc33c;}.cls-5{fill:#ff8588;}.cls-6{fill:#ffddb0;}.cls-7{fill:#424242;}.cls-8{fill:#a9611d;}.cls-9{fill:#fff;}</style></defs><g id="Layer_2" data-name="Layer 2"><g id="Layer_1-2" data-name="Layer 1"><path class="cls-1" d="M157.3032,61.0532a92.4354,92.4354,0,0,1-68.1689,39.3574Q88.0674,87.7053,87.0005,75a66.9357,66.9357,0,0,0,49.3634-28.5Z"/><path class="cls-2" d="M136,81.75a.7553.7553,0,0,1-.4336-.1377C127.9407,76.2,124.7085,71.8066,121.09,65.1064a.75.75,0,1,1,1.32-.7133c3.5837,6.6372,6.5962,10.7226,14.0244,15.9946A.7506.7506,0,0,1,136,81.75Z"/><path class="cls-2" d="M147.25,71.75a.77.77,0,0,1-.2886-.0571c-8.4807-3.534-13.741-10.3206-16.66-15.3919a.75.75,0,0,1,1.2993-.7485c2.8044,4.8706,7.8457,11.384,15.9382,14.7546A.75.75,0,0,1,147.25,71.75Z"/><path class="cls-2" d="M166.5005,102.1131a92.4361,92.4361,0,0,1-78.7148,0Q93.2145,90.5766,98.6431,79.04a66.9354,66.9354,0,0,0,57,0Q161.0719,90.5765,166.5005,102.1131Z"/><path class="cls-1" d="M126.8762,109.25a.7512.7512,0,0,1-.6716-.4146c-3.1772-6.3544-3.0337-15.6079-1.5564-21.517a.75.75,0,1,1,1.4546.3632c-1.4121,5.65-1.563,14.47,1.4436,20.483a.75.75,0,0,1-.3355,1.0063A.7408.7408,0,0,1,126.8762,109.25Z"/><path class="cls-1" d="M141.0012,107.25a.7512.7512,0,0,1-.6716-.4146A47.1761,47.1761,0,0,1,135.7505,87a.75.75,0,0,1,1.5,0,45.5776,45.5776,0,0,0,4.4209,19.1646.75.75,0,0,1-.3355,1.0063A.7408.7408,0,0,1,141.0012,107.25Z"/><path class="cls-1" d="M154.5012,104.25a.75.75,0,0,1-.6438-.3647,63.7754,63.7754,0,0,1-7.5835-18.1993.75.75,0,0,1,1.4532-.372,62.4089,62.4089,0,0,0,7.4165,17.8007.7493.7493,0,0,1-.2571,1.0284A.7409.7409,0,0,1,154.5012,104.25Z"/><path class="cls-3" d="M120.8106,97.6083c3.2742,13.7409-5.3917,27.5078-19.8053,31.4349A127.5141,127.5141,0,0,1,67.5,133.4989a127.366,127.366,0,0,1-33.5852-4.4777c-14.3762-3.9186-22.99-17.7106-19.7242-31.4163L16.36,88.5A131.4712,131.4712,0,0,0,67.5,98.7592,131.7318,131.7318,0,0,0,118.64,88.5Q119.7256,93.0542,120.8106,97.6083Z"/><path class="cls-2" d="M67.5005,130.02a.75.75,0,0,1-.75-.75v-25.5a.75.75,0,0,1,1.5,0v25.5A.75.75,0,0,1,67.5005,130.02Z"/><path class="cls-2" d="M56.4726,130.02a.75.75,0,0,1-.7258-.5647c-.4263-1.6714-.4314-23.8938-.0059-25.8449a.75.75,0,0,1,1.4656.3193c-.3875,1.7761-.3926,23.64-.0066,25.155a.75.75,0,0,1-.5413.9119A.74.74,0,0,1,56.4726,130.02Z"/><path class="cls-2" d="M45.1465,127.8616a.75.75,0,0,1-.7258-.5647c-.8247-3.2315-.8291-22.0723-.0059-25.845a.75.75,0,0,1,1.4656.3194c-.7749,3.5522-.7793,22.125-.0066,25.155a.75.75,0,0,1-.5412.9118A.7372.7372,0,0,1,45.1465,127.8616Z"/><path class="cls-2" d="M33.5219,125.7038a.75.75,0,0,1-.7259-.5647c-1.3117-5.1474-1.1315-20.6806-.0065-25.8449a.75.75,0,1,1,1.4663.3193c-1.1609,5.3276-1.1646,20.6089-.0066,25.155a.7493.7493,0,0,1-.5413.9119A.74.74,0,0,1,33.5219,125.7038Z"/><path class="cls-2" d="M21.6,118.204a.75.75,0,0,1-.7258-.5647c-1.6194-6.3523-1.6223-18.43-.0066-25.8449a.75.75,0,1,1,1.4663.3193c-1.5762,7.2305-1.5784,18.9858-.0066,25.155a.7493.7493,0,0,1-.5413.9119A.74.74,0,0,1,21.6,118.204Z"/><path class="cls-2" d="M78.5284,130.02a.74.74,0,0,1-.186-.0234.75.75,0,0,1-.5413-.9119c.386-1.5154.3809-23.3789-.0066-25.155a.75.75,0,0,1,1.4656-.3193c.4255,1.9511.42,24.1735-.0059,25.8449A.75.75,0,0,1,78.5284,130.02Z"/><path class="cls-2" d="M89.8545,127.8616a.7372.7372,0,0,1-.1861-.0235.75.75,0,0,1-.5412-.9118c.7727-3.03.7683-21.6028-.0066-25.1551a.75.75,0,0,1,1.4656-.3193c.8232,3.7727.8188,22.6135-.0059,25.845A.75.75,0,0,1,89.8545,127.8616Z"/><path class="cls-2" d="M101.4791,125.7038a.74.74,0,0,1-.186-.0234.7493.7493,0,0,1-.5413-.9119c1.158-4.5461,1.1543-19.8274-.0066-25.155a.75.75,0,1,1,1.4663-.3193c1.125,5.1643,1.3052,20.6975-.0065,25.8449A.75.75,0,0,1,101.4791,125.7038Z"/><path class="cls-2" d="M113.4011,118.204a.74.74,0,0,1-.186-.0234.7493.7493,0,0,1-.5413-.9119c1.5718-6.1692,1.57-17.9245-.0066-25.155a.75.75,0,1,1,1.4663-.3193c1.6157,7.415,1.6128,19.4926-.0066,25.8449A.75.75,0,0,1,113.4011,118.204Z"/><path class="cls-4" d="M90.2573,26.9569c-7.0022,15.0162-4.665,24.3058,2.0923,27.4568s15.3758-1.03,22.378-16.0461S120.6968-1.0531,117.7067.0352,97.2594,11.9407,90.2573,26.9569Z"/><path class="cls-5" d="M107.5511,32.9265C100.5489,47.9427,85.5923,51.2627,92.35,54.4137s15.3758-1.03,22.378-16.0461S120.6968-1.0531,117.7067.0352,114.5533,17.91,107.5511,32.9265Z"/><path class="cls-4" d="M44.7432,26.9569c7.0022,15.0162,4.665,24.3058-2.0923,27.4568s-15.3759-1.03-22.378-16.0461S14.3037-1.0531,17.2938.0352,37.741,11.9407,44.7432,26.9569Z"/><path class="cls-5" d="M27.4493,32.9265c7.0022,15.0162,21.9589,18.3362,15.2016,21.4872s-15.3759-1.03-22.378-16.0461S14.3037-1.0531,17.2938.0352,20.4472,17.91,27.4493,32.9265Z"/><path class="cls-4" d="M106.5127,101.8392a25.93,25.93,0,0,0,16.9427-31.923C116.4927,46.1191,109.2315,12,67.5,12S18.5074,46.1191,11.5447,69.9162a25.93,25.93,0,0,0,16.9427,31.923A126.81,126.81,0,0,0,67.5,108,126.81,126.81,0,0,0,106.5127,101.8392Z"/><path class="cls-6" d="M10.5279,76.7889c7.3125,1.0393,18.4786,1.3341,28.8992-2.4277C54.8279,68.8013,63.833,57.5557,67.5,52.2581c3.667,5.2976,12.6719,16.5432,28.073,22.1031,10.4206,3.7618,21.5865,3.4669,28.8991,2.4277a25.9465,25.9465,0,0,1-17.96,25.05A126.8113,126.8113,0,0,1,67.5,108a126.8127,126.8127,0,0,1-39.0127-6.1608A25.9465,25.9465,0,0,1,10.5279,76.7889Z"/><circle class="cls-7" cx="88.5001" cy="52.5" r="6"/><circle class="cls-7" cx="46.5001" cy="52.5" r="6"/><path class="cls-8" d="M73.5959,12.2819,67.5,32.129,61.4042,12.2819C63.3571,12.1105,65.3725,12,67.5,12S71.643,12.1105,73.5959,12.2819Z"/><path class="cls-8" d="M50.855,25.9355,47.5757,15.2586a49.1423,49.1423,0,0,1,7.1782-2.0172Z"/><path class="cls-8" d="M80.2463,13.2414a49.1444,49.1444,0,0,1,7.1781,2.0172L84.1451,25.9355Z"/><path class="cls-8" d="M11.53,69.9778c.006-.02.0088-.0411.0147-.0616.9493-3.2441,1.9073-6.6827,2.9542-10.1978l18.9976,4.7579Z"/><path class="cls-8" d="M17.6606,49.9939l9.7928,2.4526L15.8413,55.3547Q16.6957,52.6789,17.6606,49.9939Z"/><path class="cls-8" d="M123.47,69.9778c-.0059-.02-.0088-.0411-.0147-.0616-.9492-3.2441-1.9073-6.6827-2.9542-10.1978l-18.9976,4.7579Z"/><path class="cls-8" d="M117.34,49.9939l-9.7928,2.4526,11.6121,2.9082Q118.3044,52.6789,117.34,49.9939Z"/><circle class="cls-9" cx="87.0001" cy="51" r="1.5"/><circle class="cls-9" cx="45.0001" cy="51" r="1.5"/><path class="cls-7" d="M73.5005,87a5.2564,5.2564,0,0,1-5.25-5.25v-7.5a.75.75,0,0,0-1.5,0v7.5a5.2564,5.2564,0,0,1-5.25,5.25.75.75,0,1,0,0,1.5,6.7331,6.7331,0,0,0,6-3.7225,6.7331,6.7331,0,0,0,6,3.7225.75.75,0,0,0,0-1.5Z"/><path class="cls-5" d="M60,69c0,3.3137,3.3578,6,7.5,6S75,72.3137,75,69c0-3.0824-3.3579-3-7.5-3S60,65.6863,60,69Z"/><path class="cls-7" d="M41.0961,78.4245A70.5373,70.5373,0,0,0,20.5,75.01,69.3705,69.3705,0,0,0,0,77.7706a68.6455,68.6455,0,0,1,40.22,3.1063,1.3028,1.3028,0,0,0,.9546-2.4244C41.15,78.4428,41.1207,78.4326,41.0961,78.4245Z"/><path class="cls-7" d="M40.6567,85.2949A54.4653,54.4653,0,0,0,10.5,96a53.1827,53.1827,0,0,1,30.1715-8.1457,1.2808,1.2808,0,1,0,.0954-2.56c-.0335-.0013-.0666-.0012-.0995,0Z"/><path class="cls-7" d="M93.9039,78.43A70.5347,70.5347,0,0,1,114.5,75.0146a69.3669,69.3669,0,0,1,20.5,2.761,68.6474,68.6474,0,0,0-40.2195,3.1063,1.3028,1.3028,0,1,1-.9546-2.4244C93.85,78.4478,93.8793,78.4376,93.9039,78.43Z"/><path class="cls-7" d="M94.3434,85.2951A54.4653,54.4653,0,0,1,124.5,96a53.1825,53.1825,0,0,0-30.1715-8.1457,1.2808,1.2808,0,1,1-.0953-2.56c.0334-.0012.0665-.0011.0994,0Z"/></g></g></svg>