<svg xmlns="http://www.w3.org/2000/svg" width="135" height="148.5" viewBox="0 0 135 148.5"><defs><style>.cls-1{fill:#ff3b40;}.cls-2{fill:#fff;}.cls-3{fill:#e1e8e8;}.cls-4{fill:#ebf0f0;}.cls-5{fill:#717171;}.cls-6{fill:#636363;}.cls-7{fill:#424242;}.cls-8{fill:#ffddb0;}.cls-9{fill:#a9611d;}</style></defs><g id="Layer_2" data-name="Layer 2"><g id="Layer_1-2" data-name="Layer 1"><path class="cls-1" d="M118.5991,11.668C106.5,3,82.7783-4.5,61.5,13.0376,45.0132,26.6259,33,51,33,66l78.6005-.3484c-1.4781-1.9181-10.5877-14.1584-7.4867-30.6341A39.0473,39.0473,0,0,1,118.5991,11.668Z"/><polygon class="cls-2" points="84.294 6 86.866 10.546 92.088 10.5 89.437 15 92.088 19.5 86.866 19.454 84.294 24 81.723 19.454 76.5 19.5 79.151 15 76.5 10.5 81.723 10.546 84.294 6"/><path class="cls-2" d="M104.1138,35.0176a37.0574,37.0574,0,0,1,3.3375-9.831l-2.7456-4.854-3.8571,6.8192-7.8341-.0692,3.977,6.75-3.977,6.75,7.8341-.0692,2.8325,5.0076A36.64,36.64,0,0,1,104.1138,35.0176Z"/><polygon class="cls-2" points="63.108 21.833 66.536 27.894 73.5 27.833 69.965 33.833 73.5 39.833 66.536 39.771 63.108 45.833 59.679 39.771 52.715 39.833 56.251 33.833 52.715 27.833 59.679 27.894 63.108 21.833"/><circle class="cls-3" cx="121.5" cy="10.5" r="10.5"/><circle class="cls-4" cx="124.5" cy="10.5" r="5.9999"/><path class="cls-5" d="M86.8034,69.0788c-6.6274,11.4791-.5208,17.02,8.0884,21.99s16.4611,7.4887,23.0885-3.99.9116-37.5788.9116-37.5788S93.4308,57.6,86.8034,69.0788Z"/><path class="cls-6" d="M106.6556,88.6677c-2.5722,0-6.0322-1.8076-8.76-3.3823-2.8345-1.6362-6.24-3.8093-7.4253-6.1077-.3735-.7273-1.37-2.6579,1.5337-7.6853C95.1259,66.0842,105.5453,60.5237,114.226,57c1.29,9.28,1.6845,21.0835-1.4371,26.4917-2.9794,5.1606-5.26,5.176-6.1259,5.176Z"/><path class="cls-5" d="M48.1966,69.0788c6.6274,11.4791.5208,17.02-8.0884,21.99s-16.4611,7.4887-23.0885-3.99S16.1081,49.5,16.1081,49.5,41.5692,57.6,48.1966,69.0788Z"/><path class="cls-6" d="M28.349,89.2551c2.5723,0,6.0322-1.8076,8.76-3.3823,2.8344-1.6362,6.24-3.8093,7.4252-6.1077.3736-.7273,1.37-2.6579-1.5336-7.6853-3.1216-5.4082-13.5411-10.9687-22.2217-14.4924-1.2905,9.28-1.6846,21.0835,1.437,26.4917,2.98,5.1606,5.26,5.176,6.126,5.176Z"/><path class="cls-5" d="M115.5,96.1443C115.5,71.9181,94.01,58.5,67.5,58.5s-48,13.4181-48,37.6443S40.99,148.5,67.5,148.5,115.5,120.3706,115.5,96.1443Z"/><circle class="cls-2" cx="88.5" cy="96" r="9"/><circle class="cls-7" cx="88.5" cy="96" r="6"/><circle class="cls-2" cx="87" cy="94.5" r="1.5"/><circle class="cls-2" cx="46.5" cy="96" r="9"/><circle class="cls-7" cx="46.5" cy="96" r="6"/><circle class="cls-2" cx="45" cy="94.5" r="1.5"/><path class="cls-8" d="M111.91,114.0635l0-.0006a29.7208,29.7208,0,0,1-27.3776,2.1151C74.9793,111.914,68.5,102.4159,67.5,91.5517c-1,10.8642-7.4793,20.3623-17.0323,24.6263A29.7208,29.7208,0,0,1,23.09,114.0629l0,.0006C30.267,132.3951,47.4425,148.5,67.5,148.5S104.733,132.3951,111.91,114.0635Z"/><path class="cls-7" d="M67.5,127.497a.75.75,0,0,1-.75-.75v-9a.75.75,0,0,1,1.5,0v9A.75.75,0,0,1,67.5,127.497Z"/><path class="cls-7" d="M61.5,132.747a.75.75,0,0,1,0-1.5,5.2563,5.2563,0,0,0,5.25-5.25.75.75,0,0,1,1.5,0A6.7573,6.7573,0,0,1,61.5,132.747Z"/><path class="cls-7" d="M73.5,132.747a6.7573,6.7573,0,0,1-6.75-6.75.75.75,0,0,1,1.5,0,5.2563,5.2563,0,0,0,5.25,5.25.75.75,0,0,1,0,1.5Z"/><path class="cls-9" d="M60,118.508c0,3.3137,3.3579,6,7.5,6s7.5-2.6863,7.5-6c0-3.0824-3.3579-3-7.5-3S60,115.1942,60,118.508Z"/><path class="cls-7" d="M41.0961,123.4245A70.5373,70.5373,0,0,0,20.5,120.01,69.3705,69.3705,0,0,0,0,122.7706a68.6452,68.6452,0,0,1,40.22,3.1063,1.3028,1.3028,0,1,0,.9547-2.4244C41.15,123.4428,41.1207,123.4326,41.0961,123.4245Z"/><path class="cls-7" d="M40.6567,130.2949A54.4653,54.4653,0,0,0,10.5,141a53.1827,53.1827,0,0,1,30.1715-8.1457,1.2808,1.2808,0,1,0,.0954-2.56c-.0335-.0013-.0666-.0012-.0995,0Z"/><path class="cls-7" d="M93.9039,123.43a70.534,70.534,0,0,1,20.5963-3.415,69.3672,69.3672,0,0,1,20.5,2.761,68.6474,68.6474,0,0,0-40.2195,3.1063,1.3028,1.3028,0,1,1-.9547-2.4244C93.85,123.4478,93.8793,123.4376,93.9039,123.43Z"/><path class="cls-7" d="M94.3433,130.2951A54.4653,54.4653,0,0,1,124.5,141a53.1827,53.1827,0,0,0-30.1715-8.1457,1.2808,1.2808,0,0,1-.0954-2.56c.0335-.0012.0666-.0011.1,0Z"/></g></g></svg>