<svg xmlns="http://www.w3.org/2000/svg" width="27.054" height="26.7394" viewBox="0 0 27.054 26.7394"><defs><style>.cls-1{isolation:isolate;}.cls-15,.cls-2{mix-blend-mode:multiply;}.cls-3{fill:#e9dab9;}.cls-4{fill:#fbedcd;}.cls-5{fill:#623906;}.cls-6{fill:#f89c41;}.cls-7{fill:#dd6c49;}.cls-8{fill:#f2e2c2;}.cls-11,.cls-12,.cls-13,.cls-9{fill:none;stroke-linecap:round;stroke-miterlimit:10;}.cls-9{stroke:#545454;stroke-width:0.2438px;}.cls-10{fill:#353535;}.cls-11{stroke:#2f292b;stroke-width:0.2644px;}.cls-12{stroke:#dd6c49;}.cls-12,.cls-13{stroke-width:0.1983px;}.cls-13{stroke:#623906;}.cls-14{fill:#fa4751;}.cls-15{opacity:0.3;}.cls-16{fill:#c5c5c5;}.cls-17{fill:#00bdb8;}.cls-18{fill:#c52d21;}.cls-19{fill:#eedcae;}</style></defs><g class="cls-1"><g id="Layer_2" data-name="Layer 2"><g id="Layer_1-2" data-name="Layer 1"><g id="New_Symbol" data-name="New Symbol" class="cls-2"><g id="New_Symbol_10" data-name="New Symbol 10"><g id="New_Symbol_4" data-name="New Symbol 4"><path class="cls-3" d="M26.5094,3.4828c.3728.55.1692.8538-.4785.7163.1428.6477-.1586.8539-.7111.4865-.1163.6555-.4864.7348-.875.18-.3833.5578-.7534.4811-.875-.1718-.55.3727-.8538.1692-.7164-.4785-.645.1428-.8512-.1586-.4864-.7111-.4811-.0846-.6529-.3067-.4864-.5736a1.0362,1.0362,0,0,1,.3067-.3014,1.0405,1.0405,0,0,1-.3041-.2908.3116.3116,0,0,1-.0555-.1163c-.0634-.2141.1189-.3886.5314-.4679-.3728-.55-.1692-.8512.4784-.7164-.1427-.645.1587-.8512.7111-.4838.1163-.6556.4865-.7349.8751-.18.3833-.56.7534-.4812.875.1718.55-.3727.8538-.1692.7164.4785a.7735.7735,0,0,1,.55.0238c.156.0951.1613.304-.0052.5921a.92.92,0,0,1-.0583.0952c.04.0079.0794.0158.1138.0238.5471.1374.5842.4837.066.8485C27.239,2.9937,27.1623,3.3611,26.5094,3.4828Z"/><path class="cls-4" d="M26.0838,2.2244c.3727.5525.1692.8539-.4785.7164.1428.6477-.1586.8539-.7111.4864-.1163.6556-.4864.7349-.875.18-.3833.5578-.7534.4811-.875-.1718-.55.3727-.8539.1691-.7164-.4785a.7514.7514,0,0,1-.5472-.0264c-.156-.0952-.1639-.3014.0026-.5922.0185-.0291.0371-.0608.0582-.0925-.04-.008-.0793-.0159-.1137-.0238-.0634-.2141.1189-.3886.5314-.4679-.3728-.55-.1692-.8512.4784-.7164-.1427-.645.1587-.8512.7111-.4838.1163-.6556.4865-.7349.8751-.18.3833-.56.7534-.4812.875.1718.55-.3727.8538-.1692.7164.4785a.7735.7735,0,0,1,.55.0238,1.1608,1.1608,0,0,1-.3093.3013A1.154,1.154,0,0,1,26.56,1.64a.349.349,0,0,1,.0555.119C26.6786,1.9733,26.4961,2.1478,26.0838,2.2244Z"/><path class="cls-3" d="M4.7485,3.4828c.3727.55.1692.8538-.4785.7163.1428.6477-.1586.8539-.7111.4865-.1163.6555-.4864.7348-.875.18-.3834.5578-.7534.4811-.875-.1718-.55.3727-.8539.1692-.7164-.4785-.645.1428-.8513-.1586-.4864-.7111C.1249,3.4193-.0469,3.1972.12,2.93a1.0387,1.0387,0,0,1,.3067-.3014,1.04,1.04,0,0,1-.304-.2908.31.31,0,0,1-.0555-.1163c-.0635-.2141.1189-.3886.5313-.4679-.3727-.55-.1691-.8512.4785-.7164-.1427-.645.1587-.8512.7111-.4838.1163-.6556.4864-.7349.875-.18.3833-.56.7535-.4812.8751.1718.55-.3727.8538-.1692.7163.4785a.7738.7738,0,0,1,.55.0238c.1559.0951.1612.304-.0053.5921a.9013.9013,0,0,1-.0582.0952c.04.0079.0793.0158.1137.0238.5472.1374.5842.4837.0661.8485C5.4781,2.9937,5.4014,3.3611,4.7485,3.4828Z"/><path class="cls-4" d="M4.3229,2.2244c.3727.5525.1691.8539-.4785.7164.1427.6477-.1586.8539-.7111.4864-.1164.6556-.4864.7349-.875.18-.3833.5578-.7534.4811-.875-.1718-.55.3727-.8539.1691-.7164-.4785A.7517.7517,0,0,1,.12,2.93c-.1559-.0952-.1638-.3014.0027-.5922.0185-.0291.037-.0608.0581-.0925-.04-.008-.0792-.0159-.1136-.0238-.0635-.2141.1189-.3886.5313-.4679-.3727-.55-.1691-.8512.4785-.7164-.1427-.645.1587-.8512.7111-.4838.1163-.6556.4864-.7349.875-.18.3833-.56.7535-.4812.8751.1718.55-.3727.8538-.1692.7163.4785a.7738.7738,0,0,1,.55.0238,1.1608,1.1608,0,0,1-.3093.3013,1.1549,1.1549,0,0,1,.304.2908.3453.3453,0,0,1,.0555.119C4.9177,1.9733,4.7352,2.1478,4.3229,2.2244Z"/><path class="cls-4" d="M22.3318,14.0814c-.0358.0982-.0736.1942-.1134.2924l-2.694-3.2031L17.737,9.021a17.6648,17.6648,0,0,1,4.74-3.9349l.004.0067C22.5646,5.26,24.3414,8.8717,22.3318,14.0814Z"/><path class="cls-5" d="M22.3318,14.0814l-2.8074-2.9107c.2925-1.4731,1.3371-4.857,2.9527-6.0846l.004.0067C22.5646,5.26,24.3414,8.8717,22.3318,14.0814Z"/><path class="cls-6" d="M3.6005,14.0814c.0358.0982.0736.1942.1134.2924l2.6939-3.2031,1.7875-2.15a17.6648,17.6648,0,0,0-4.74-3.9349l-.004.0067C3.3677,5.26,1.5909,8.8717,3.6005,14.0814Z"/><path class="cls-5" d="M3.6005,14.0814l2.8073-2.9107c-.2924-1.4731-1.337-4.857-2.9526-6.0846l-.004.0067C3.3677,5.26,1.5909,8.8717,3.6005,14.0814Z"/><path class="cls-6" d="M25.426,18.9622a6.5162,6.5162,0,0,1-.1454,1.3667,7.2284,7.2284,0,0,1-.2114.7692l-.0053.0159a6.132,6.132,0,0,1-.5948,1.2451,5.3543,5.3543,0,0,1-.4071.5816c-.008.0106-.0159.0185-.0238.0291a6.9424,6.9424,0,0,1-1.0125,1.0362c-2.2153,1.8531-5.7549,2.7334-9.7493,2.7334a18.9686,18.9686,0,0,1-6.4687-1.0521,10.9665,10.9665,0,0,1-3.2648-1.8214,7.6017,7.6017,0,0,1-.97-.9649,7.3348,7.3348,0,0,1-.4759-.645,5.9563,5.9563,0,0,1-.5921-1.1817,5.3736,5.3736,0,0,1-.2379-.8115,5.64,5.64,0,0,1-.119-.8512c-.0132-.1481-.0185-.2987-.0185-.4494,0-.2274.0132-.4626.037-.7006C1.5338,14.5,4.7616,9.6279,9.171,7.6241a10.2306,10.2306,0,0,1,1.869-.65,8.9816,8.9816,0,0,1,.9992-.19,9.1325,9.1325,0,0,1,1.2372-.0846c.24,0,.4785.0079.7164.0264a10.3942,10.3942,0,0,1,1.1129.1242c.2723.045.5446.1005.8116.1666.0343.0079.0661.0158.0978.0238a9.3362,9.3362,0,0,1,1.7447.6238,14.5162,14.5162,0,0,1,7.6319,10.6112A6.831,6.831,0,0,1,25.426,18.9622Z"/><path class="cls-7" d="M16.7252,26.4973a12.8906,12.8906,0,0,0,6.1313-2.3593A5.8236,5.8236,0,0,0,16.7252,26.4973Z"/><path class="cls-8" d="M25.426,18.9622a6.5162,6.5162,0,0,1-.1454,1.3667,7.2284,7.2284,0,0,1-.2114.7692l-.0053.0159a6.132,6.132,0,0,1-.5948,1.2451,5.3543,5.3543,0,0,1-.4071.5816c-.008.0106-.0159.0185-.0238.0291a10.1244,10.1244,0,0,1-4.4332-1.4461,12.4831,12.4831,0,0,1-5.2976-7.2644,17.17,17.17,0,0,1-.3146-7.534,10.3942,10.3942,0,0,1,1.1129.1242c.2723.045.5446.1005.8116.1666.0343.0079.0661.0158.0978.0238a9.3362,9.3362,0,0,1,1.7447.6238,14.5162,14.5162,0,0,1,7.6319,10.6112A6.831,6.831,0,0,1,25.426,18.9622Z"/><path class="cls-9" d="M13.4243,21.4922c-.0436.76.1387,1.6509,1.0836,1.68a1.1782,1.1782,0,0,0,1.1239-.79"/><path class="cls-9" d="M13.4761,21.4922c.0436.76-.1387,1.6509-1.0836,1.68a1.1781,1.1781,0,0,1-1.1239-.79"/><path class="cls-10" d="M14.3561,20.88a3.3233,3.3233,0,0,1-.4012.3977c-.175.1572-.3681.2978-.5511.4459a6.1071,6.1071,0,0,1-.4751-.3847,1.8461,1.8461,0,0,1-.5085-.5593.4915.4915,0,0,1,.128-.59.6172.6172,0,0,1,.4943-.0422,1.9454,1.9454,0,0,0,.4991.1025,2.4915,2.4915,0,0,0,.4151-.08.5109.5109,0,0,1,.4067.0586.4177.4177,0,0,1,.0877.5019A.82.82,0,0,1,14.3561,20.88Z"/><path class="cls-11" d="M18.4437,18.494a1.14,1.14,0,0,1,2.1828.0682"/><path class="cls-11" d="M6.849,18.494a1.14,1.14,0,0,1,2.1828.0682"/><path class="cls-5" d="M6.8077,25.6873a10.9665,10.9665,0,0,1-3.2648-1.8214,7.6017,7.6017,0,0,1-.97-.9649,7.3348,7.3348,0,0,1-.4759-.645,5.9563,5.9563,0,0,1-.5921-1.1817,5.3736,5.3736,0,0,1-.2379-.8115,5.64,5.64,0,0,1-.119-.8512c.0978.029.1877.0581.2644.0819A7.8318,7.8318,0,0,1,4.5184,21.307,7.9009,7.9009,0,0,1,6.8077,25.6873Z"/><path class="cls-12" d="M.366,21.5538a14.4607,14.4607,0,0,1,6.6633-.8665"/><path class="cls-12" d="M.5766,23.704a20.8807,20.8807,0,0,1,6.6221-2.3034"/><path class="cls-12" d="M2.37,25.018a15.4368,15.4368,0,0,1,5.376-2.9041"/><path class="cls-13" d="M19.2284,20.5756a13.3445,13.3445,0,0,1,6.961,1.3924"/><path class="cls-13" d="M19.453,21.2912A23.9539,23.9539,0,0,1,25.5849,23.56"/><path class="cls-13" d="M19.5023,22.2441a28.6974,28.6974,0,0,1,5.085,3.0287"/><path class="cls-14" d="M23.9814,6.1621c-.0026.8486-.0026,1.6945-.0053,2.5431v.9411c-.0053,1.47-.0053,2.94-.0079,4.4094A6.363,6.363,0,0,0,20.14,12.3506a66.0214,66.0214,0,0,0-8.0891-.9834,19.9016,19.9016,0,0,0-5.3188.2273A9.5182,9.5182,0,0,0,3.9779,12.62c-.6847.3886-1.2848,1.1949-1.9589,1.48a21.4287,21.4287,0,0,1,.0238-2.7255c-.0212-.24-.04-.4785-.0529-.719-.0079-.111-.0132-.2247-.0185-.3357v-.0238c-.0053-.1031-.0079-.2089-.0106-.3146,0-.0608-.0026-.1216-.0026-.1824-.0052-.193-.0052-.3886,0-.5842,0-.0661.0026-.1322.0026-.1983.0027-.1031.008-.2062.0106-.3093A18.3588,18.3588,0,0,1,2.1856,6.556a4.5853,4.5853,0,0,1,.5313-1.6813A1.8314,1.8314,0,0,1,4.15,3.9521a2.2907,2.2907,0,0,1,1.6417.8909A15.19,15.19,0,0,0,6.82,5.99a23.6492,23.6492,0,0,1,6.6616-.9041,12.5166,12.5166,0,0,1,5.681,1.1922,23.7755,23.7755,0,0,1,1.9694-1.6522c.8512-.4943,2.1439-.5551,2.6329.2987A2.454,2.454,0,0,1,23.9814,6.1621Z"/><path class="cls-14" d="M2.0168,11.0456c.0086.11.0157.22.026.3295a21.4287,21.4287,0,0,0-.0238,2.7255c.6741-.2855,1.2742-1.0918,1.9589-1.48a9.5182,9.5182,0,0,1,2.7545-1.0257,19.9016,19.9016,0,0,1,5.3188-.2273,66.0214,66.0214,0,0,1,8.0891.9834,6.363,6.363,0,0,1,3.8279,1.7051q.0009-1.0168.0034-2.0343A35.5162,35.5162,0,0,0,2.0168,11.0456Z"/><g class="cls-15"><path class="cls-16" d="M2.6864,13.7959a12.0592,12.0592,0,0,0-1.4816,4.13l.4891-.2247c3.4868-1.5994,6.96-2.2523,11.991-2.2523a27.1906,27.1906,0,0,1,11.2138,2.2681l.4467.18a13.1507,13.1507,0,0,0-1.8761-4.884C16.6159,11.9942,9.4888,12.7208,2.6864,13.7959Z"/></g><path class="cls-17" d="M13.6861,14.7A27.8486,27.8486,0,0,1,25.18,17.0213a8.0361,8.0361,0,0,0-1.198-5.28,36.5733,36.5733,0,0,0-10.2954-1.6628,39.4137,39.4137,0,0,0-11.6684,1.905,6.4255,6.4255,0,0,0-.6356,5.0381C4.7847,15.46,8.2905,14.7,13.6861,14.7Z"/><path class="cls-18" d="M2.056,9.567a.57.57,0,0,1-.0555.2167A.027.027,0,0,1,1.9582,9.8c-.0052-.193-.0052-.3886,0-.5842a.784.784,0,0,1,.0872.2273A.6706.6706,0,0,1,2.056,9.567Z"/><path class="cls-18" d="M2.0534,10.286c.0053.0344-.0185.0529-.0449.037-.0106-.0079-.0239-.0159-.0371-.0264-.0053-.1031-.0079-.2089-.0106-.3146a.4563.4563,0,0,1,.0371.0687A.6634.6634,0,0,1,2.0534,10.286Z"/><path class="cls-18" d="M2.1547,10.2784a.58.58,0,0,0,.0528-.2156.6443.6443,0,0,0-.01-.1248.7605.7605,0,0,0-.0868-.2264c-.0172-.03-.0463-.0324-.0591-.0042a.582.582,0,0,0-.0535.2157.63.63,0,0,0,.01.1248.7664.7664,0,0,0,.0877.2261C2.1137,10.3043,2.1422,10.3062,2.1547,10.2784Z"/><path class="cls-18" d="M2.2094,10.783c.0026.0343-.0186.05-.045.0343a.596.596,0,0,1-.1639-.1454L1.99,10.6561c-.0079-.111-.0132-.2247-.0185-.3357a.538.538,0,0,1,.119.1163.7494.7494,0,0,1,.0634.111A.8007.8007,0,0,1,2.2094,10.783Z"/><path class="cls-18" d="M2.3086,10.7743a.5984.5984,0,0,0,.0514-.2154.6668.6668,0,0,0-.01-.1247.771.771,0,0,0-.0868-.2267c-.017-.03-.0459-.0324-.0585-.0045a.5771.5771,0,0,0-.0521.2157.63.63,0,0,0,.01.1247.7768.7768,0,0,0,.0876.2261C2.268,10.8,2.2962,10.8019,2.3086,10.7743Z"/><path class="cls-18" d="M2.1961,9.16c.0027.0371-.0211.0529-.0476.0371a.5771.5771,0,0,1-.1665-.1481.1686.1686,0,0,1-.0212-.0317c.0027-.1031.008-.2062.0106-.3093a.5238.5238,0,0,1,.1084.1084.7354.7354,0,0,1,.0635.1084A.8009.8009,0,0,1,2.1961,9.16Z"/><path class="cls-18" d="M2.2982,9.1523a.5968.5968,0,0,0,.0568-.217A.6461.6461,0,0,0,2.3475,8.81a.743.743,0,0,0-.0848-.227c-.0172-.03-.0466-.0324-.06-.004a.5854.5854,0,0,0-.0577.2172.6247.6247,0,0,0,.0079.1254.759.759,0,0,0,.0858.2266C2.2558,9.1784,2.2849,9.18,2.2982,9.1523Z"/><path class="cls-18" d="M2.2989,9.6943a.5977.5977,0,0,1-.1659-.15A.6276.6276,0,0,1,2.07,9.4356.7517.7517,0,0,1,2.0157,9.2c-.0027-.0348.0206-.0525.0473-.0365a.5906.5906,0,0,1,.1667.15.633.633,0,0,1,.0619.1087.76.76,0,0,1,.054.2369C2.3483,9.6925,2.3251,9.71,2.2989,9.6943Z"/><path class="cls-18" d="M2.4469,9.65a.6012.6012,0,0,0,.0555-.2168.649.649,0,0,0-.0079-.1255A.75.75,0,0,0,2.41,9.08c-.0171-.03-.0462-.0324-.06-.0042a.5875.5875,0,0,0-.0564.217.628.628,0,0,0,.0082.125.77.77,0,0,0,.0858.2273C2.4049,9.6754,2.4337,9.6774,2.4469,9.65Z"/><path class="cls-18" d="M2.4487,10.19a.5906.5906,0,0,1-.1645-.15.639.639,0,0,1-.0622-.1089.76.76,0,0,1-.0549-.236c-.0028-.0348.02-.0525.0467-.0362a.5884.5884,0,0,1,.1654.15.6383.6383,0,0,1,.0616.1091.7671.7671,0,0,1,.0541.2363C2.4977,10.1882,2.4748,10.2057,2.4487,10.19Z"/><path class="cls-18" d="M2.5951,10.1452a.59.59,0,0,0,.0543-.216.6468.6468,0,0,0-.0081-.1253.7592.7592,0,0,0-.0845-.2271c-.017-.03-.0458-.0325-.0589-.0042a.5865.5865,0,0,0-.0553.2163.6382.6382,0,0,0,.0086.1251.771.771,0,0,0,.0855.2268C2.5538,10.1713,2.5822,10.1732,2.5951,10.1452Z"/><path class="cls-18" d="M2.5987,9.0615a.5945.5945,0,0,1-.1652-.15.6448.6448,0,0,1-.0616-.1092A.75.75,0,0,1,2.32,8.5656c-.0022-.0349.0215-.053.0482-.0367a.574.574,0,0,1,.1663.15.6241.6241,0,0,1,.0612.11.7481.7481,0,0,1,.0512.2368C2.6487,9.0606,2.6252,9.0777,2.5987,9.0615Z"/><path class="cls-18" d="M2.7494,9.0191a.5943.5943,0,0,0,.0594-.2154.65.65,0,0,0-.0061-.1252.7442.7442,0,0,0-.0827-.228c-.0167-.0307-.0463-.0333-.06-.0052a.58.58,0,0,0-.06.2155.6287.6287,0,0,0,.0069.1251.7534.7534,0,0,0,.0832.2278C2.7065,9.0443,2.7358,9.0469,2.7494,9.0191Z"/><path class="cls-18" d="M2.744,9.56a.5944.5944,0,0,1-.164-.15A.6389.6389,0,0,1,2.5187,9.3a.7565.7565,0,0,1-.0524-.2368c-.0023-.0349.0211-.0526.0476-.0366a.5823.5823,0,0,1,.1651.1509.6345.6345,0,0,1,.0608.11.7627.7627,0,0,1,.0515.2372C2.7934,9.5589,2.77,9.5758,2.744,9.56Z"/><path class="cls-18" d="M2.8929,9.5179a.5979.5979,0,0,0,.0581-.2151.6455.6455,0,0,0-.0065-.1253.7491.7491,0,0,0-.0824-.2281c-.0167-.0307-.0459-.0331-.06-.0053a.5856.5856,0,0,0-.0591.2154.6237.6237,0,0,0,.0072.1246.7643.7643,0,0,0,.0831.2284C2.8505,9.5428,2.8794,9.5453,2.8929,9.5179Z"/><path class="cls-19" d="M4.05,9.0378a.6051.6051,0,0,1-.16-.1564A.6417.6417,0,0,1,3.8323,8.77a.754.754,0,0,1-.0448-.2384c-.001-.0347.0231-.0516.049-.0345a.5848.5848,0,0,1,.1608.1561.6182.6182,0,0,1,.0574.1112.7688.7688,0,0,1,.0441.2389C4.1,9.0381,4.0759,9.0547,4.05,9.0378Z"/><path class="cls-19" d="M4.2005,8.9991a.6083.6083,0,0,0,.065-.2144.6377.6377,0,0,0-.0024-.1257.7481.7481,0,0,0-.0752-.2306c-.0158-.0309-.0448-.0341-.06-.0064a.59.59,0,0,0-.0659.2145.6409.6409,0,0,0,.0032.1252.7582.7582,0,0,0,.076.2307C4.1573,9.0232,4.1861,9.0262,4.2005,8.9991Z"/><path class="cls-19" d="M4.309,10.0417a.6025.6025,0,0,1-.1574-.1572.6461.6461,0,0,1-.0574-.1117.7666.7666,0,0,1-.0451-.2381c-.0012-.0345.0222-.0513.0477-.0341a.5954.5954,0,0,1,.1581.1569.6294.6294,0,0,1,.0567.1113.7839.7839,0,0,1,.0445.2385C4.3572,10.0419,4.334,10.0585,4.309,10.0417Z"/><path class="cls-19" d="M4.4555,10.0038A.6053.6053,0,0,0,4.5179,9.79a.6477.6477,0,0,0-.0031-.1258A.765.765,0,0,0,4.44,9.4338c-.0155-.0307-.044-.0342-.0583-.0067a.5977.5977,0,0,0-.0633.214.655.655,0,0,0,.0039.1249.7764.7764,0,0,0,.0756.23C4.4134,10.0274,4.4417,10.0307,4.4555,10.0038Z"/><path class="cls-19" d="M4.6262,9.4242A.5943.5943,0,0,1,4.47,9.2665a.6408.6408,0,0,1-.0565-.1115.7577.7577,0,0,1-.0425-.2391c-.0008-.0347.0228-.0519.0486-.0342a.5732.5732,0,0,1,.1577.1581.6143.6143,0,0,1,.0561.1124.7661.7661,0,0,1,.0416.2389C4.6752,9.4256,4.6515,9.4419,4.6262,9.4242Z"/><path class="cls-19" d="M4.7754,9.3891a.5881.5881,0,0,0,.0661-.2123A.6234.6234,0,0,0,4.84,9.0517.7615.7615,0,0,0,4.7678,8.82c-.0153-.0311-.0442-.0353-.059-.0076a.5817.5817,0,0,0-.0671.2122.632.632,0,0,0,.002.1251.7753.7753,0,0,0,.0733.2314C4.7324,9.4121,4.7611,9.4161,4.7754,9.3891Z"/><path class="cls-19" d="M4.9568,8.8147a.6059.6059,0,0,1-.1565-.16.6263.6263,0,0,1-.0556-.1125.7521.7521,0,0,1-.04-.2393c0-.0347.0241-.0511.05-.0335a.5834.5834,0,0,1,.1573.1595.6164.6164,0,0,1,.055.1124.7628.7628,0,0,1,.0389.24C5.0062,8.8159,4.9821,8.832,4.9568,8.8147Z"/><path class="cls-19" d="M5.108,8.7791a.6131.6131,0,0,0,.07-.2131.6274.6274,0,0,0,0-.1256.7573.7573,0,0,0-.07-.2323c-.0153-.0311-.0443-.0349-.06-.0076a.5875.5875,0,0,0-.07.2131.6322.6322,0,0,0,0,.1253.7678.7678,0,0,0,.071.2322C5.0642,8.8023,5.093,8.8059,5.108,8.7791Z"/><path class="cls-19" d="M5.1937,9.8238A.6038.6038,0,0,1,5.04,9.6633.6454.6454,0,0,1,4.9849,9.55a.7667.7667,0,0,1-.04-.239c0-.0345.0233-.0509.0485-.0331a.5892.5892,0,0,1,.1547.16.628.628,0,0,1,.0543.1125.78.78,0,0,1,.0392.2394C5.242,9.8251,5.2186,9.8411,5.1937,9.8238Z"/><path class="cls-19" d="M5.3413,9.7891a.6083.6083,0,0,0,.0668-.2125.629.629,0,0,0-.0006-.1257.7719.7719,0,0,0-.0694-.2321c-.015-.031-.0434-.0351-.0583-.008a.5975.5975,0,0,0-.0677.2127.6374.6374,0,0,0,.0009.125.7788.7788,0,0,0,.0706.232C5.2985,9.8118,5.3267,9.8156,5.3413,9.7891Z"/><path class="cls-18" d="M6.049,8.2053a.5955.5955,0,0,1-.1527-.1631.6436.6436,0,0,1-.0527-.1138.7456.7456,0,0,1-.0329-.24c.0009-.035.0258-.0511.0513-.0327a.582.582,0,0,1,.1536.1629.6331.6331,0,0,1,.0521.1139.7624.7624,0,0,1,.032.24C6.0989,8.2077,6.0741,8.2236,6.049,8.2053Z"/><path class="cls-18" d="M6.2021,8.1727a.5974.5974,0,0,0,.0771-.21.63.63,0,0,0,.004-.1252A.7412.7412,0,0,0,6.22,7.6039c-.0143-.0319-.0436-.037-.06-.01a.57.57,0,0,0-.0776.21.6278.6278,0,0,0-.0035.1258.75.75,0,0,0,.0647.2335C6.1575,8.1952,6.1863,8.2,6.2021,8.1727Z"/><path class="cls-18" d="M6.1534,8.7137A.6.6,0,0,1,6.0021,8.55a.6351.6351,0,0,1-.0524-.114.7548.7548,0,0,1-.0331-.24c.0007-.035.0254-.0507.0507-.0325a.588.588,0,0,1,.1522.1634.64.64,0,0,1,.0517.1137.7762.7762,0,0,1,.0322.2409C6.2027,8.7161,6.1782,8.7318,6.1534,8.7137Z"/><path class="cls-18" d="M6.3047,8.6815A.5993.5993,0,0,0,6.38,8.4721a.6369.6369,0,0,0,.0037-.1253.7469.7469,0,0,0-.0636-.234c-.0142-.032-.0431-.0369-.0592-.01a.5728.5728,0,0,0-.0761.2105.6239.6239,0,0,0-.0032.1254.7648.7648,0,0,0,.0645.234C6.2606,8.7038,6.289,8.7082,6.3047,8.6815Z"/><path class="cls-18" d="M6.5108,8.1139a.6037.6037,0,0,1-.151-.166.6293.6293,0,0,1-.0514-.1147.7469.7469,0,0,1-.03-.24c.0014-.0349.0266-.05.0519-.0315a.5893.5893,0,0,1,.1521.1657.64.64,0,0,1,.0509.1148.76.76,0,0,1,.0291.2407C6.5608,8.1173,6.5358,8.1327,6.5108,8.1139Z"/><path class="cls-18" d="M6.6647,8.0847a.596.596,0,0,0,.0792-.21A.6547.6547,0,0,0,6.7494,7.75a.7477.7477,0,0,0-.0611-.2346c-.0139-.032-.0432-.0372-.0595-.01a.5839.5839,0,0,0-.08.21.6377.6377,0,0,0-.0049.1254.752.752,0,0,0,.0621.2343C6.62,8.1061,6.6486,8.1112,6.6647,8.0847Z"/><path class="cls-18" d="M6.61,8.6234a.6068.6068,0,0,1-.15-.1664.6385.6385,0,0,1-.0511-.1149.7554.7554,0,0,1-.03-.24c.0013-.0349.0261-.05.0511-.0313a.5883.5883,0,0,1,.1508.1662.6406.6406,0,0,1,.0505.1146.7763.7763,0,0,1,.0294.2411C6.6589,8.6269,6.6342,8.642,6.61,8.6234Z"/><path class="cls-18" d="M6.7615,8.5946a.5985.5985,0,0,0,.0778-.21.6471.6471,0,0,0,.0051-.1256.7592.7592,0,0,0-.0608-.2346c-.0139-.032-.0427-.0369-.0589-.01a.5893.5893,0,0,0-.0788.21.6414.6414,0,0,0-.0046.125.7714.7714,0,0,0,.062.235C6.7172,8.6158,6.7456,8.6208,6.7615,8.5946Z"/><path class="cls-18" d="M6.708,9.1313A.5963.5963,0,0,1,6.56,8.965.6541.6541,0,0,1,6.509,8.85a.7647.7647,0,0,1-.0306-.24c.0011-.0349.0256-.05.05-.0311a.5863.5863,0,0,1,.1493.1661.65.65,0,0,1,.05.1149A.78.78,0,0,1,6.7578,9.1C6.7568,9.1353,6.7323,9.15,6.708,9.1313Z"/><path class="cls-18" d="M6.858,9.1029a.59.59,0,0,0,.0764-.209.6616.6616,0,0,0,.0049-.1254.7717.7717,0,0,0-.0607-.2346c-.0138-.0321-.0423-.0372-.0582-.01a.5852.5852,0,0,0-.0773.2092.6281.6281,0,0,0-.0042.1252.77.77,0,0,0,.0616.2345C6.8143,9.1243,6.8424,9.1293,6.858,9.1029Z"/><path class="cls-18" d="M7.0668,8.5367A.5954.5954,0,0,1,6.919,8.37a.633.633,0,0,1-.05-.1152.7435.7435,0,0,1-.0275-.2409c.0012-.0349.0264-.05.051-.0313a.5858.5858,0,0,1,.1487.1666.6388.6388,0,0,1,.0491.1149.7711.7711,0,0,1,.0266.2416C7.1158,8.54,7.091,8.5553,7.0668,8.5367Z"/><path class="cls-18" d="M7.2184,8.5079a.5867.5867,0,0,0,.08-.2074.6422.6422,0,0,0,.0065-.1252A.7511.7511,0,0,0,7.2471,7.94c-.0134-.0323-.0423-.0379-.0589-.0118a.5733.5733,0,0,0-.081.2086.6288.6288,0,0,0-.006.1253.7636.7636,0,0,0,.0593.2354C7.174,8.5291,7.2023,8.5341,7.2184,8.5079Z"/><path class="cls-18" d="M7.16,9.0456a.584.584,0,0,1-.1464-.1667.6343.6343,0,0,1-.0493-.1151A.75.75,0,0,1,6.936,8.523c.0011-.0349.0259-.05.05-.0311a.582.582,0,0,1,.1473.1666.6436.6436,0,0,1,.0487.1151.7711.7711,0,0,1,.0268.2411C7.208,9.05,7.1835,9.0645,7.16,9.0456Z"/><path class="cls-18" d="M7.3091,9.0173A.5782.5782,0,0,0,7.3882,8.81a.6558.6558,0,0,0,.0062-.125.7666.7666,0,0,0-.058-.2355c-.0133-.0323-.042-.038-.0582-.0117a.5694.5694,0,0,0-.08.2079.6306.6306,0,0,0-.0055.1255.7679.7679,0,0,0,.0589.2349C7.2654,9.0387,7.2934,9.0436,7.3091,9.0173Z"/><path class="cls-18" d="M7.2525,9.5565a.5988.5988,0,0,1-.1449-.1672.6479.6479,0,0,1-.0491-.1152.76.76,0,0,1-.0281-.241c.0012-.0347.0256-.05.05-.0311a.5821.5821,0,0,1,.1459.1672.6479.6479,0,0,1,.0484.1152.7832.7832,0,0,1,.027.241C7.3,9.56,7.2761,9.5752,7.2525,9.5565Z"/><path class="cls-18" d="M7.4,9.5285a.5973.5973,0,0,0,.0775-.2069.6557.6557,0,0,0,.0058-.1249.7742.7742,0,0,0-.0578-.2358c-.0132-.0321-.0415-.038-.0575-.0119a.5694.5694,0,0,0-.0781.208.6293.6293,0,0,0-.0053.1254.7772.7772,0,0,0,.0588.235C7.3571,9.55,7.3847,9.5545,7.4,9.5285Z"/><path class="cls-18" d="M7.4377,7.9452A.5977.5977,0,0,1,7.29,7.7759.6365.6365,0,0,1,7.2414,7.66a.7411.7411,0,0,1-.0246-.2411c.0017-.0348.0274-.05.0522-.03a.5891.5891,0,0,1,.1484.169.6244.6244,0,0,1,.0482.116.7511.7511,0,0,1,.0237.2412C7.4876,7.95,7.4621,7.9646,7.4377,7.9452Z"/><path class="cls-18" d="M7.5922,7.92a.5976.5976,0,0,0,.0838-.2079.6461.6461,0,0,0,.0084-.1254A.7414.7414,0,0,0,7.6287,7.35c-.0133-.0323-.0423-.0381-.0594-.0116a.5825.5825,0,0,0-.0849.208.6272.6272,0,0,0-.0079.1252.756.756,0,0,0,.0569.2357C7.5467,7.94,7.5754,7.9457,7.5922,7.92Z"/><path class="cls-18" d="M7.5248,8.4569a.603.603,0,0,1-.1459-.17A.6316.6316,0,0,1,7.33,8.1712.7508.7508,0,0,1,7.3054,7.93c.0017-.0348.0271-.0494.0516-.03a.5947.5947,0,0,1,.147.17.6412.6412,0,0,1,.0478.1157.76.76,0,0,1,.0239.2417C7.5741,8.4614,7.5489,8.476,7.5248,8.4569Z"/><path class="cls-18" d="M7.6774,8.4315A.6008.6008,0,0,0,7.76,8.2237a.6529.6529,0,0,0,.008-.1255.7488.7488,0,0,0-.0555-.2359c-.0131-.0323-.0418-.0379-.0586-.0117a.5827.5827,0,0,0-.0834.2079.6252.6252,0,0,0-.0076.125.7711.7711,0,0,0,.0567.2362C7.6325,8.4517,7.6608,8.4573,7.6774,8.4315Z"/><path class="cls-18" d="M7.6117,8.9669a.5946.5946,0,0,1-.1445-.17.6445.6445,0,0,1-.0482-.1159A.7585.7585,0,0,1,7.394,8.44c.0015-.0349.0265-.05.0509-.03A.5893.5893,0,0,1,7.59,8.58a.6312.6312,0,0,1,.0475.1161.7644.7644,0,0,1,.0241.2411C7.66,8.9719,7.6355,8.9863,7.6117,8.9669Z"/><path class="cls-18" d="M7.7623,8.9418a.59.59,0,0,0,.0809-.2072.6579.6579,0,0,0,.0077-.1252.7592.7592,0,0,0-.0553-.236c-.013-.0323-.0413-.0381-.0579-.0117a.5818.5818,0,0,0-.0821.2073.6339.6339,0,0,0-.0071.1252.7763.7763,0,0,0,.0564.2357C7.718,8.9623,7.746,8.9679,7.7623,8.9418Z"/><path class="cls-18" d="M7.9022,7.8678a.5972.5972,0,0,1-.1452-.17A.6412.6412,0,0,1,7.71,7.582a.7448.7448,0,0,1-.022-.2415c.0023-.0349.0281-.05.0526-.03a.58.58,0,0,1,.1462.17.6194.6194,0,0,1,.0469.1162.7545.7545,0,0,1,.0209.2416C7.9519,7.8724,7.9265,7.8872,7.9022,7.8678Z"/><path class="cls-18" d="M8.0568,7.8425a.59.59,0,0,0,.0865-.2057.6487.6487,0,0,0,.01-.1249A.7405.7405,0,0,0,8.1,7.2752c-.0128-.0326-.0419-.039-.0592-.013a.5709.5709,0,0,0-.0875.2064.6287.6287,0,0,0-.009.1254.7516.7516,0,0,0,.0538.2362C8.0111,7.8627,8.04,7.8679,8.0568,7.8425Z"/><path class="cls-18" d="M7.9835,8.38A.5958.5958,0,0,1,7.84,8.21a.6367.6367,0,0,1-.0471-.1162A.757.757,0,0,1,7.77,7.8526c.0022-.0349.0277-.05.0519-.03a.5849.5849,0,0,1,.1448.17.63.63,0,0,1,.0465.116.7692.7692,0,0,1,.0212.2421C8.0325,8.385,8.0074,8.4,7.9835,8.38Z"/><path class="cls-18" d="M8.1361,8.3554a.595.595,0,0,0,.085-.2056.6465.6465,0,0,0,.01-.125.7506.7506,0,0,0-.0529-.2367c-.0127-.0326-.0414-.0388-.0585-.0131a.5742.5742,0,0,0-.086.2064.6337.6337,0,0,0-.0086.1251.7627.7627,0,0,0,.0536.2367C8.091,8.3754,8.1192,8.3806,8.1361,8.3554Z"/><path class="cls-19" d="M9.3459,8.0288a.608.608,0,0,1-.1385-.1762.6437.6437,0,0,1-.0432-.118.7506.7506,0,0,1-.0135-.2422c.0035-.0344.03-.048.0532-.0276a.5869.5869,0,0,1,.1394.176.6164.6164,0,0,1,.0424.1178.7667.7667,0,0,1,.0128.2426C9.3949,8.0356,9.369,8.0489,9.3459,8.0288Z"/><path class="cls-19" d="M9.5,8.01a.6093.6093,0,0,0,.0926-.2038.63.63,0,0,0,.014-.1248.7489.7489,0,0,0-.0444-.2385c-.0117-.0327-.04-.04-.0585-.0143a.5875.5875,0,0,0-.0935.2038.6429.6429,0,0,0-.0131.1245.7587.7587,0,0,0,.0453.2386C9.4539,8.0286,9.4822,8.0354,9.5,8.01Z"/><path class="cls-19" d="M9.4719,9.0577a.6062.6062,0,0,1-.1354-.1766.662.662,0,0,1-.0425-.1183A.7671.7671,0,0,1,9.28,8.5209c.0032-.0343.0286-.0479.0516-.0274a.5944.5944,0,0,1,.1364.1765.6319.6319,0,0,1,.0417.1177A.7847.7847,0,0,1,9.523,9.03C9.52,9.0644,9.4945,9.0778,9.4719,9.0577Z"/><path class="cls-19" d="M9.6219,9.04a.6057.6057,0,0,0,.0895-.2035.6355.6355,0,0,0,.0132-.125.7644.7644,0,0,0-.0439-.2382c-.0114-.0326-.0391-.04-.0569-.0145a.5951.5951,0,0,0-.09.2036.6541.6541,0,0,0-.0125.1243.78.78,0,0,0,.0449.2384C9.5771,9.0576,9.6047,9.0646,9.6219,9.04Z"/><path class="cls-19" d="M9.8664,8.4879a.5883.5883,0,0,1-.1346-.1767A.6325.6325,0,0,1,9.69,8.1931.76.76,0,0,1,9.68,7.9506c.0038-.0345.0295-.0484.0527-.0274A.5774.5774,0,0,1,9.8677,8.1a.6054.6054,0,0,1,.0409.1183.7739.7739,0,0,1,.01.2426C9.9146,8.4948,9.8891,8.5084,9.8664,8.4879Z"/><path class="cls-19" d="M10.0185,8.4708a.5887.5887,0,0,0,.0934-.2012.63.63,0,0,0,.0153-.1242.759.759,0,0,0-.0413-.2392c-.0111-.0329-.0392-.041-.0575-.0156a.578.578,0,0,0-.0945.201.6433.6433,0,0,0-.0145.1249.7727.7727,0,0,0,.0423.2387C9.9728,8.4876,10.0007,8.4957,10.0185,8.4708Z"/><path class="cls-19" d="M10.2741,7.9265A.6113.6113,0,0,1,10.14,7.747a.6315.6315,0,0,1-.04-.119.7494.7494,0,0,1-.0078-.2425c.0043-.0343.0307-.0473.054-.0263a.5865.5865,0,0,1,.1351.1792.623.623,0,0,1,.04.1188.7639.7639,0,0,1,.0068.2428C10.3229,7.9344,10.2969,7.947,10.2741,7.9265Z"/><path class="cls-19" d="M10.4288,7.9117a.611.611,0,0,0,.0973-.2016.6255.6255,0,0,0,.017-.1244.7534.7534,0,0,0-.0384-.24c-.011-.0329-.0393-.0406-.0582-.0156a.5864.5864,0,0,0-.0984.2015.6314.6314,0,0,0-.0164.1242.7665.7665,0,0,0,.04.24C10.3822,7.9287,10.41,7.9362,10.4288,7.9117Z"/><path class="cls-19" d="M10.3753,8.9581a.6066.6066,0,0,1-.1309-.18.6422.6422,0,0,1-.04-.1193.77.77,0,0,1-.0083-.2422c.0042-.0342.03-.0472.0525-.0262a.594.594,0,0,1,.1321.18.6318.6318,0,0,1,.0388.1187.7827.7827,0,0,1,.0072.2426C10.4229,8.9659,10.3976,8.9786,10.3753,8.9581Z"/><path class="cls-19" d="M10.5258,8.9437a.6076.6076,0,0,0,.0943-.2013.6314.6314,0,0,0,.0161-.1246.7682.7682,0,0,0-.0379-.2393c-.0107-.0328-.0383-.0407-.0567-.0158a.5936.5936,0,0,0-.0952.2014.6346.6346,0,0,0-.0157.1239.7861.7861,0,0,0,.0392.2395C10.4806,8.96,10.5079,8.9681,10.5258,8.9437Z"/><path class="cls-18" d="M11.4392,7.47a.6013.6013,0,0,1-.1294-.1826.6439.6439,0,0,1-.0368-.12.74.74,0,0,1,0-.2424c.0055-.0346.0325-.047.0554-.0252a.5811.5811,0,0,1,.13.1824.6315.6315,0,0,1,.0363.12.7586.7586,0,0,1-.0011.2425C11.4884,7.479,11.4616,7.4913,11.4392,7.47Z"/><path class="cls-18" d="M11.5956,7.4587a.6084.6084,0,0,0,.105-.1992.6446.6446,0,0,0,.0211-.1239.74.74,0,0,0-.0312-.24c-.01-.0335-.0381-.042-.058-.0172a.59.59,0,0,0-.1058.1991.6236.6236,0,0,0-.0207.1241.75.75,0,0,0,.0323.24C11.5483,7.4748,11.5762,7.4832,11.5956,7.4587Z"/><path class="cls-18" d="M11.4737,7.9876a.6022.6022,0,0,1-.1278-.1828.6351.6351,0,0,1-.0365-.12.7554.7554,0,0,1,0-.2424c.0055-.0346.0321-.0467.0547-.0252a.5862.5862,0,0,1,.1288.1828.6347.6347,0,0,1,.0358.12.7754.7754,0,0,1-.0008.243C11.5221,7.9968,11.4958,8.0089,11.4737,7.9876Z"/><path class="cls-18" d="M11.6279,7.9767a.6135.6135,0,0,0,.1034-.1993.6544.6544,0,0,0,.0207-.1239.7474.7474,0,0,0-.031-.24c-.01-.0334-.0376-.0417-.0572-.0172a.5968.5968,0,0,0-.1043.1993.6336.6336,0,0,0-.02.1238.7661.7661,0,0,0,.0321.2406C11.5812,7.9926,11.6088,8.0009,11.6279,7.9767Z"/><path class="cls-18" d="M11.91,7.4407a.6061.6061,0,0,1-.1271-.1856.63.63,0,0,1-.0354-.1207.74.74,0,0,1,.0029-.2422c.0061-.0344.0332-.0462.0558-.0239a.5875.5875,0,0,1,.1283.1854.6374.6374,0,0,1,.0348.1208.7574.7574,0,0,1-.0043.2423C11.9588,7.4512,11.9319,7.4628,11.91,7.4407Z"/><path class="cls-18" d="M12.0664,7.4335a.5934.5934,0,0,0,.1076-.1965.6436.6436,0,0,0,.0227-.1235.7457.7457,0,0,0-.0281-.2407c-.0094-.0337-.0378-.0429-.0578-.0186a.5834.5834,0,0,0-.1086.1964.63.63,0,0,0-.0221.1234.7527.7527,0,0,0,.0293.2407C12.0189,7.4484,12.0468,7.4575,12.0664,7.4335Z"/><path class="cls-18" d="M11.9377,7.959a.6119.6119,0,0,1-.1255-.1858.6441.6441,0,0,1-.035-.1209A.7551.7551,0,0,1,11.78,7.41c.006-.0344.0328-.0459.055-.0238a.5909.5909,0,0,1,.1267.1857.6324.6324,0,0,1,.0344.1206.7717.7717,0,0,1-.004.2428C11.9861,7.9693,11.96,7.9808,11.9377,7.959Z"/><path class="cls-18" d="M12.0922,7.9518a.5975.5975,0,0,0,.1059-.1965.6467.6467,0,0,0,.0224-.1235.7588.7588,0,0,0-.0279-.2408c-.0093-.0337-.0373-.0427-.057-.0187a.5876.5876,0,0,0-.107.1966.6352.6352,0,0,0-.0217.1232.7684.7684,0,0,0,.0291.2412C12.0453,7.9666,12.0728,7.9756,12.0922,7.9518Z"/><path class="cls-18" d="M11.9656,8.4756a.6025.6025,0,0,1-.1239-.1856.6377.6377,0,0,1-.0345-.1208.7619.7619,0,0,1,.0024-.2421c.0059-.0344.0323-.046.0542-.0237a.59.59,0,0,1,.1251.1855.6442.6442,0,0,1,.034.1208.7807.7807,0,0,1-.0038.2423C12.0133,8.4863,11.9871,8.4977,11.9656,8.4756Z"/><path class="cls-18" d="M12.1179,8.4685a.5872.5872,0,0,0,.1043-.196.6542.6542,0,0,0,.022-.1235.7689.7689,0,0,0-.0276-.2407c-.0093-.0337-.0368-.0428-.0563-.0186a.5844.5844,0,0,0-.1054.1961.6432.6432,0,0,0-.0213.1234.7732.7732,0,0,0,.0288.2408C12.0717,8.4837,12.0988,8.4925,12.1179,8.4685Z"/><path class="cls-18" d="M12.4026,7.9375a.5952.5952,0,0,1-.1234-.1859.6343.6343,0,0,1-.0334-.121.7429.7429,0,0,1,.0059-.2424c.0062-.0344.0332-.0459.055-.0238a.5883.5883,0,0,1,.1244.1859.6363.6363,0,0,1,.0327.1206.7685.7685,0,0,1-.0071.243C12.4506,7.9478,12.424,7.9593,12.4026,7.9375Z"/><path class="cls-18" d="M12.5567,7.93a.6063.6063,0,0,0,.1084-.1967.6523.6523,0,0,0,.0239-.1231.7555.7555,0,0,0-.0249-.2413c-.0088-.0339-.0368-.0427-.0567-.0188a.593.593,0,0,0-.1093.1967.6152.6152,0,0,0-.0233.1232.763.763,0,0,0,.026.2414C12.51,7.9451,12.5371,7.9541,12.5567,7.93Z"/><path class="cls-18" d="M12.4239,8.4544a.5857.5857,0,0,1-.1217-.1856.64.64,0,0,1-.033-.1209.75.75,0,0,1,.0057-.2424c.0059-.0343.0326-.0459.0541-.0236a.5824.5824,0,0,1,.1228.1856.642.642,0,0,1,.0323.1209.7741.7741,0,0,1-.0068.2424C12.4714,8.4651,12.445,8.4765,12.4239,8.4544Z"/><path class="cls-18" d="M12.5758,8.4473a.5955.5955,0,0,0,.1069-.1962.65.65,0,0,0,.0234-.1229.7661.7661,0,0,0-.0246-.2414c-.0087-.0339-.0362-.0428-.056-.0186a.5914.5914,0,0,0-.1077.1962.6292.6292,0,0,0-.0228.1235.7634.7634,0,0,0,.0258.2408C12.53,8.4624,12.5566,8.4713,12.5758,8.4473Z"/><path class="cls-18" d="M12.4453,8.9732a.6026.6026,0,0,1-.12-.1859.6432.6432,0,0,1-.0326-.1209.7568.7568,0,0,1,.0055-.2426c.0058-.0342.0321-.0459.0533-.0238a.5812.5812,0,0,1,.1212.1861.647.647,0,0,1,.0319.1209.7846.7846,0,0,1-.0066.2424C12.4921,8.9837,12.4661,8.9951,12.4453,8.9732Z"/><path class="cls-18" d="M12.5951,8.9662A.6109.6109,0,0,0,12.7,8.77a.6668.6668,0,0,0,.023-.1229.7724.7724,0,0,0-.0244-.2416c-.0085-.0337-.0357-.0428-.0551-.0188a.59.59,0,0,0-.1061.1965.6364.6364,0,0,0-.0225.1235.778.778,0,0,0,.0256.2409C12.55,8.9811,12.5761,8.99,12.5951,8.9662Z"/><path class="cls-18" d="M12.8524,7.402a.6044.6044,0,0,1-.1226-.1888.6408.6408,0,0,1-.0324-.1216.74.74,0,0,1,.0093-.242c.0066-.0343.0342-.0453.0562-.0225a.5943.5943,0,0,1,.1236.1886.626.626,0,0,1,.0316.1216.75.75,0,0,1-.01.2421C12.9012,7.4136,12.8738,7.4246,12.8524,7.402Z"/><path class="cls-18" d="M13.0092,7.3986a.5956.5956,0,0,0,.1123-.1937.64.64,0,0,0,.026-.1228.7414.7414,0,0,0-.022-.2415c-.0086-.0338-.0366-.0437-.0574-.02a.5782.5782,0,0,0-.1135.1936.6264.6264,0,0,0-.0254.1229.7557.7557,0,0,0,.0234.2414C12.9612,7.4123,12.9888,7.4221,13.0092,7.3986Z"/><path class="cls-18" d="M12.8672,7.9208a.6073.6073,0,0,1-.1209-.189.6331.6331,0,0,1-.032-.1217.7473.7473,0,0,1,.009-.2421c.0065-.0342.0337-.045.0554-.0224a.5976.5976,0,0,1,.122.1889.6285.6285,0,0,1,.0311.1214.7647.7647,0,0,1-.01.2426C12.9153,7.9323,12.8883,7.9431,12.8672,7.9208Z"/><path class="cls-18" d="M13.0217,7.9175a.5975.5975,0,0,0,.1107-.1938.6426.6426,0,0,0,.0256-.123.75.75,0,0,0-.0218-.2414c-.0085-.0339-.036-.0435-.0565-.02a.5827.5827,0,0,0-.1119.1939.622.622,0,0,0-.025.1225.7716.7716,0,0,0,.0231.242C12.9744,7.9311,13.0017,7.9407,13.0217,7.9175Z"/><path class="cls-18" d="M12.8819,8.4379a.5986.5986,0,0,1-.1192-.1886.6483.6483,0,0,1-.0316-.1216.76.76,0,0,1,.0087-.2421c.0065-.0342.0333-.0451.0546-.0223a.5936.5936,0,0,1,.12.1886.6429.6429,0,0,1,.0308.1216.7694.7694,0,0,1-.01.2421C12.9293,8.45,12.9027,8.4605,12.8819,8.4379Z"/><path class="cls-18" d="M13.0343,8.4347a.5884.5884,0,0,0,.109-.1934.6472.6472,0,0,0,.0252-.1229.7606.7606,0,0,0-.0215-.2414c-.0084-.0339-.0356-.0437-.0557-.02a.5772.5772,0,0,0-.11.1934.6288.6288,0,0,0-.0246.1228.7749.7749,0,0,0,.0229.2414C12.9877,8.4486,13.0145,8.4581,13.0343,8.4347Z"/><path class="cls-18" d="M13.3239,7.392a.5979.5979,0,0,1-.12-.1888.64.64,0,0,1-.0306-.1217.7429.7429,0,0,1,.0122-.2421c.0072-.0342.0349-.0453.0565-.0224a.58.58,0,0,1,.1212.1886.6241.6241,0,0,1,.03.1217A.753.753,0,0,1,13.38,7.37C13.3724,7.4037,13.3451,7.4146,13.3239,7.392Z"/><path class="cls-18" d="M13.4807,7.3887a.6068.6068,0,0,0,.1149-.1936.6477.6477,0,0,0,.0276-.1221.74.74,0,0,0-.0191-.2419c-.008-.0343-.036-.0444-.0569-.0205a.5917.5917,0,0,0-.1161.1936.6282.6282,0,0,0-.0266.1229.7489.7489,0,0,0,.02.2414C13.4325,7.4024,13.46,7.4122,13.4807,7.3887Z"/><path class="cls-18" d="M13.332,7.9109a.5991.5991,0,0,1-.1184-.1889.64.64,0,0,1-.03-.1218.7551.7551,0,0,1,.012-.2421c.0071-.0343.0344-.0451.0558-.0225a.5884.5884,0,0,1,.12.189.6187.6187,0,0,1,.03.1214.7671.7671,0,0,1-.0132.2427C13.38,7.9225,13.353,7.9333,13.332,7.9109Z"/><path class="cls-18" d="M13.4866,7.9077A.6155.6155,0,0,0,13.6,7.714a.65.65,0,0,0,.0271-.1223.7494.7494,0,0,0-.0188-.2419c-.0079-.0343-.0355-.0441-.0561-.0205a.5952.5952,0,0,0-.1145.1939.6319.6319,0,0,0-.0262.1226.76.76,0,0,0,.02.2419C13.4391,7.9212,13.4664,7.9309,13.4866,7.9077Z"/><path class="cls-19" d="M14.7311,7.7569a.6176.6176,0,0,1-.1116-.1952.653.653,0,0,1-.0256-.1231.742.742,0,0,1,.022-.2415c.0085-.0336.0366-.043.0571-.0193a.5891.5891,0,0,1,.1129.1951.6141.6141,0,0,1,.0247.1229.7668.7668,0,0,1-.0233.2417C14.7786,7.771,14.7511,7.78,14.7311,7.7569Z"/><path class="cls-19" d="M14.8863,7.762a.6092.6092,0,0,0,.1224-.1876.6371.6371,0,0,0,.0328-.1212.7421.7421,0,0,0-.0081-.2425c-.0066-.0341-.034-.0453-.0561-.023a.5832.5832,0,0,0-.1237.1874.6349.6349,0,0,0-.0317.121.761.761,0,0,0,.01.2428C14.8381,7.7729,14.865,7.7839,14.8863,7.762Z"/><path class="cls-19" d="M14.7045,8.7931a.614.614,0,0,1-.107-.195.6659.6659,0,0,1-.0245-.1234.7723.7723,0,0,1,.0212-.2413c.0083-.0334.0353-.043.055-.0193a.5958.5958,0,0,1,.1083.1951.6236.6236,0,0,1,.0236.1227.792.792,0,0,1-.0226.2415C14.75,8.807,14.7237,8.8163,14.7045,8.7931Z"/><path class="cls-19" d="M14.8537,8.798a.61.61,0,0,0,.1178-.1877.6628.6628,0,0,0,.0317-.1215.7727.7727,0,0,0-.0075-.2422c-.0064-.0339-.0326-.0453-.0539-.0229a.5892.5892,0,0,0-.1192.1877.6429.6429,0,0,0-.03.1209.7867.7867,0,0,0,.0089.2425C14.8073,8.8088,14.8332,8.82,14.8537,8.798Z"/><path class="cls-19" d="M15.1761,8.2893a.5907.5907,0,0,1-.1057-.195.6394.6394,0,0,1-.023-.123.7544.7544,0,0,1,.0259-.2413c.009-.0336.0365-.0434.0564-.0192a.5749.5749,0,0,1,.107.1948.6014.6014,0,0,1,.0223.123.7779.7779,0,0,1-.0274.2413C15.2225,8.3033,15.1953,8.313,15.1761,8.2893Z"/><path class="cls-19" d="M15.3283,8.2955a.5882.5882,0,0,0,.1232-.1841.6392.6392,0,0,0,.0345-.12.765.765,0,0,0-.0035-.2428c-.0059-.0342-.0324-.0466-.0545-.0244a.5757.5757,0,0,0-.1247.1838.6471.6471,0,0,0-.0334.1212.7722.7722,0,0,0,.005.2423C15.2809,8.305,15.307,8.3172,15.3283,8.2955Z"/><path class="cls-19" d="M15.6655,7.7981A.6119.6119,0,0,1,15.561,7.6a.6347.6347,0,0,1-.0213-.1238.7432.7432,0,0,1,.03-.2407c.01-.0332.0381-.0418.0579-.0175a.5836.5836,0,0,1,.1059.1983.62.62,0,0,1,.02.1236.764.764,0,0,1-.032.2408C15.7124,7.8136,15.6848,7.822,15.6655,7.7981Z"/><path class="cls-19" d="M15.8207,7.8078a.6134.6134,0,0,0,.1288-.1837.6206.6206,0,0,0,.0369-.12.749.749,0,0,0,.0007-.2425c-.0056-.0342-.0325-.0463-.0553-.0246a.584.584,0,0,0-.13.1835.6282.6282,0,0,0-.0361.12.7671.7671,0,0,0,.0011.2429C15.772,7.8174,15.7985,7.8292,15.8207,7.8078Z"/><path class="cls-19" d="M15.6023,8.8327a.6118.6118,0,0,1-.1-.1981.6394.6394,0,0,1-.02-.124.77.77,0,0,1,.03-.24c.0094-.0332.0367-.042.0557-.0177a.592.592,0,0,1,.1014.1982.6354.6354,0,0,1,.0194.1233.7885.7885,0,0,1-.0314.2406C15.6475,8.8479,15.6208,8.8565,15.6023,8.8327Z"/><path class="cls-19" d="M15.7516,8.8421a.6145.6145,0,0,0,.1243-.184.64.64,0,0,0,.0358-.12.7705.7705,0,0,0,.0013-.2422c-.0052-.0341-.0311-.0462-.0531-.0245a.5927.5927,0,0,0-.1258.1839.6394.6394,0,0,0-.035.12.7929.7929,0,0,0,0,.2426C15.7048,8.8515,15.73,8.8634,15.7516,8.8421Z"/><path class="cls-18" d="M16.8939,7.5379a.5938.5938,0,0,1-.0973-.2012.6419.6419,0,0,1-.0162-.1242.7368.7368,0,0,1,.0413-.2391c.0114-.0331.04-.0409.0595-.0157a.5739.5739,0,0,1,.0986.2012.6291.6291,0,0,1,.0154.1244.7558.7558,0,0,1-.0428.2386C16.941,7.5551,16.9124,7.5628,16.8939,7.5379Z"/><path class="cls-18" d="M17.0505,7.5552a.5931.5931,0,0,0,.1382-.1757.6377.6377,0,0,0,.0425-.118.7335.7335,0,0,0,.0109-.2423c-.0039-.0348-.0306-.0486-.0547-.0281a.5729.5729,0,0,0-.1394.1755.6118.6118,0,0,0-.0418.118.75.75,0,0,0-.0094.2425C17.0009,7.5619,17.027,7.5756,17.0505,7.5552Z"/><path class="cls-18" d="M16.8394,8.0541a.6.6,0,0,1-.095-.2011.6311.6311,0,0,1-.0157-.1244A.7488.7488,0,0,1,16.77,7.49c.0113-.0332.04-.0408.0585-.0159a.5776.5776,0,0,1,.0963.2012.625.625,0,0,1,.0149.1241.7737.7737,0,0,1-.0425.2392C16.8856,8.071,16.8575,8.0787,16.8394,8.0541Z"/><path class="cls-18" d="M16.993,8.071a.5966.5966,0,0,0,.1361-.1761.6411.6411,0,0,0,.0419-.1181.7464.7464,0,0,0,.0113-.2423c-.0038-.0348-.03-.0483-.0537-.028a.5773.5773,0,0,0-.1372.176A.6223.6223,0,0,0,16.95,7.8a.7721.7721,0,0,0-.01.243C16.9444,8.0777,16.97,8.0912,16.993,8.071Z"/><path class="cls-18" d="M17.3643,7.5939a.6038.6038,0,0,1-.0935-.2043.6263.6263,0,0,1-.0139-.1249.737.737,0,0,1,.0451-.2381c.0121-.0328.0412-.04.06-.0141a.579.579,0,0,1,.095.2044.6218.6218,0,0,1,.0133.1248.7581.7581,0,0,1-.047.2379C17.4111,7.6124,17.3823,7.6193,17.3643,7.5939Z"/><path class="cls-18" d="M17.5206,7.6131a.6011.6011,0,0,0,.1416-.1752.6487.6487,0,0,0,.0446-.1177.7385.7385,0,0,0,.0151-.2418c-.0034-.0347-.03-.0486-.0542-.0281a.5837.5837,0,0,0-.1429.175.62.62,0,0,0-.0438.1178.749.749,0,0,0-.0135.242C17.471,7.62,17.497,7.6335,17.5206,7.6131Z"/><path class="cls-18" d="M17.3009,8.109a.6063.6063,0,0,1-.0912-.2041.6247.6247,0,0,1-.0135-.125.75.75,0,0,1,.0449-.2381c.0119-.0329.0405-.04.0586-.0142a.5821.5821,0,0,1,.0928.2043.626.626,0,0,1,.0127.1245.7728.7728,0,0,1-.0467.2384C17.3468,8.1273,17.3186,8.1341,17.3009,8.109Z"/><path class="cls-18" d="M17.4544,8.1279a.61.61,0,0,0,.1393-.1757.6528.6528,0,0,0,.0441-.1179.75.75,0,0,0,.0153-.2417c-.0031-.0347-.0293-.0483-.053-.028a.59.59,0,0,0-.1408.1755.6309.6309,0,0,0-.0432.1177.7609.7609,0,0,0-.0138.2424C17.4056,8.1346,17.4311,8.148,17.4544,8.1279Z"/><path class="cls-18" d="M17.2378,8.6224a.597.597,0,0,1-.0892-.2034.6451.6451,0,0,1-.0129-.1248A.7671.7671,0,0,1,17.18,8.056c.0119-.0329.04-.04.0576-.0142a.5824.5824,0,0,1,.0907.2037.6338.6338,0,0,1,.0121.1247.7816.7816,0,0,1-.0463.2379C17.2826,8.641,17.255,8.6478,17.2378,8.6224Z"/><path class="cls-18" d="M17.3882,8.641a.5971.5971,0,0,0,.1372-.1756.6683.6683,0,0,0,.0435-.1178.7635.7635,0,0,0,.0157-.2417c-.003-.0348-.0287-.0483-.0521-.0277a.59.59,0,0,0-.1385.1754.6433.6433,0,0,0-.0427.1179.7721.7721,0,0,0-.0141.2419C17.34,8.6481,17.3654,8.6614,17.3882,8.641Z"/><path class="cls-18" d="M17.7624,8.1675a.62.62,0,0,1-.088-.2053.6286.6286,0,0,1-.0114-.1248A.7381.7381,0,0,1,17.7123,7.6c.0122-.0329.0409-.04.0586-.0142a.586.586,0,0,1,.0893.2069.6472.6472,0,0,1,.01.125.7666.7666,0,0,1-.0508.2374C17.8077,8.1872,17.7794,8.1932,17.7624,8.1675Z"/><path class="cls-18" d="M17.9148,8.191a.5963.5963,0,0,0,.1422-.1718.642.642,0,0,0,.046-.1168.7462.7462,0,0,0,.02-.2417c-.0025-.0348-.0284-.0492-.0525-.03a.5763.5763,0,0,0-.1434.1716.6065.6065,0,0,0-.0452.1165.7656.7656,0,0,0-.0181.2424C17.8662,8.1962,17.8914,8.21,17.9148,8.191Z"/><path class="cls-18" d="M17.69,8.68a.6118.6118,0,0,1-.0859-.2047.64.64,0,0,1-.0109-.1245.7519.7519,0,0,1,.049-.2376c.012-.0328.04-.04.0575-.0142a.58.58,0,0,1,.0872.2062.6486.6486,0,0,1,.01.1252.7718.7718,0,0,1-.05.2369C17.7347,8.7,17.707,8.7057,17.69,8.68Z"/><path class="cls-18" d="M17.84,8.7028a.5882.5882,0,0,0,.14-.1717.654.654,0,0,0,.0454-.1167.7614.7614,0,0,0,.02-.2416c-.0023-.0349-.0277-.0492-.0515-.0293a.5772.5772,0,0,0-.1412.1715.6292.6292,0,0,0-.0447.1169.7726.7726,0,0,0-.0182.2418C17.7921,8.7086,17.8168,8.7226,17.84,8.7028Z"/><path class="cls-18" d="M17.6182,9.194a.63.63,0,0,1-.0837-.2046.6493.6493,0,0,1-.01-.1245.7688.7688,0,0,1,.0487-.2379c.0119-.0326.04-.04.0565-.0144a.5794.5794,0,0,1,.0849.2062.6642.6642,0,0,1,.0094.1252.7931.7931,0,0,1-.05.2369C17.6616,9.2136,17.6344,9.22,17.6182,9.194Z"/><path class="cls-18" d="M17.7647,9.2166a.6036.6036,0,0,0,.1378-.1723.6642.6642,0,0,0,.0449-.1168.7776.7776,0,0,0,.02-.2418c-.0023-.0346-.0271-.049-.05-.0293a.5774.5774,0,0,0-.139.1723.63.63,0,0,0-.0442.1169.79.79,0,0,0-.0186.2418C17.7178,9.2222,17.742,9.2362,17.7647,9.2166Z"/><path class="cls-18" d="M18.3029,7.7256a.5981.5981,0,0,1-.0866-.2069.6224.6224,0,0,1-.01-.1252A.7338.7338,0,0,1,18.26,7.157c.0129-.0324.0423-.0385.06-.0122a.58.58,0,0,1,.0881.207.6179.6179,0,0,1,.0088.1251.7438.7438,0,0,1-.0551.2361C18.349,7.7455,18.32,7.7515,18.3029,7.7256Z"/><path class="cls-18" d="M18.4586,7.75a.6079.6079,0,0,0,.1473-.1709.6416.6416,0,0,0,.0487-.1161.73.73,0,0,0,.0234-.2411c-.0022-.0348-.0282-.0494-.0532-.03a.5836.5836,0,0,0-.1489.17.62.62,0,0,0-.0479.1164.7511.7511,0,0,0-.0217.2413C18.4086,7.7547,18.4341,7.7691,18.4586,7.75Z"/><path class="cls-18" d="M18.2218,8.2382a.599.599,0,0,1-.0844-.2067.6337.6337,0,0,1-.0093-.1252.7458.7458,0,0,1,.0534-.2365c.0127-.0325.0416-.0384.0588-.0124a.5839.5839,0,0,1,.0859.2069.6213.6213,0,0,1,.0083.1247.7657.7657,0,0,1-.0548.2368C18.267,8.2579,18.2385,8.2638,18.2218,8.2382Z"/><path class="cls-18" d="M18.3746,8.2617A.6108.6108,0,0,0,18.52,8.09a.6451.6451,0,0,0,.0482-.1164.7417.7417,0,0,0,.0237-.241c-.0021-.0348-.0276-.0491-.0521-.0295a.5868.5868,0,0,0-.1467.171.6265.6265,0,0,0-.0474.1162.77.77,0,0,0-.0221.2418C18.3255,8.2669,18.3505,8.2811,18.3746,8.2617Z"/><path class="cls-18" d="M18.141,8.7492a.5918.5918,0,0,1-.0823-.206.6393.6393,0,0,1-.0087-.125.76.76,0,0,1,.0529-.2365c.0126-.0326.041-.0387.0578-.0125a.5805.5805,0,0,1,.0837.2062.63.63,0,0,1,.0078.1249.7734.7734,0,0,1-.0544.2363C18.1852,8.7691,18.1573,8.775,18.141,8.7492Z"/><path class="cls-18" d="M18.2909,8.7722a.6013.6013,0,0,0,.1428-.1713.6528.6528,0,0,0,.0477-.1163.76.76,0,0,0,.024-.241c-.0019-.0348-.0269-.0491-.0511-.0292a.5853.5853,0,0,0-.1445.171.6319.6319,0,0,0-.0469.1165.7779.7779,0,0,0-.0223.2412C18.2426,8.7779,18.2671,8.7919,18.2909,8.7722Z"/><path class="cls-18" d="M18.77,7.8028a.6086.6086,0,0,1-.0827-.21.6345.6345,0,0,1-.0075-.1257.7351.7351,0,0,1,.0575-.2353c.0135-.0321.043-.0373.06-.0105a.5908.5908,0,0,1,.0843.21.6171.6171,0,0,1,.0065.1256.7479.7479,0,0,1-.059.2349C18.8158,7.8242,18.787,7.8294,18.77,7.8028Z"/><path class="cls-18" d="M18.9253,7.8315a.6005.6005,0,0,0,.15-.1668.65.65,0,0,0,.0507-.1149.73.73,0,0,0,.0274-.2409c-.0014-.0349-.0273-.05-.0524-.0313a.5789.5789,0,0,0-.1517.1664.6158.6158,0,0,0-.05.1152.7469.7469,0,0,0-.0262.241C18.8753,7.8352,18.9006,7.85,18.9253,7.8315Z"/><path class="cls-18" d="M18.68,8.314a.6167.6167,0,0,1-.0805-.21.6567.6567,0,0,1-.0069-.1258.7509.7509,0,0,1,.0572-.2353c.0134-.0321.0423-.0372.0591-.0106a.5934.5934,0,0,1,.082.21.6278.6278,0,0,1,.0061.1252.7641.7641,0,0,1-.0589.2356C18.725,8.335,18.6967,8.34,18.68,8.314Z"/><path class="cls-18" d="M18.8323,8.3421a.6013.6013,0,0,0,.148-.1672.6592.6592,0,0,0,.05-.1152.7416.7416,0,0,0,.0277-.2408c-.0012-.0349-.0266-.05-.0514-.0312a.5853.5853,0,0,0-.1495.1671.6225.6225,0,0,0-.049.115.7648.7648,0,0,0-.0266.2415C18.7833,8.3458,18.8081,8.3608,18.8323,8.3421Z"/><path class="cls-19" d="M20.0832,8.4349a.6.6,0,0,1-.0708-.2112.6317.6317,0,0,1,0-.1253.7418.7418,0,0,1,.07-.2325c.0151-.0314.0446-.0355.06-.0086a.5738.5738,0,0,1,.0722.2115.6054.6054,0,0,1,0,.1248.7664.7664,0,0,1-.0713.2325C20.1272,8.4574,20.0983,8.4614,20.0832,8.4349Z"/><path class="cls-19" d="M20.2344,8.4705a.6.6,0,0,0,.1571-.158.6211.6211,0,0,0,.0563-.112.7407.7407,0,0,0,.0406-.2393c0-.0348-.0241-.0516-.05-.0344a.5731.5731,0,0,0-.1585.1576.6333.6333,0,0,0-.0551.112.763.763,0,0,0-.0391.24C20.1851,8.4711,20.2093,8.4876,20.2344,8.4705Z"/><path class="cls-19" d="M19.85,9.445a.5992.5992,0,0,1-.0664-.21.6561.6561,0,0,1,0-.1253.7757.7757,0,0,1,.0691-.2324c.0148-.0313.0433-.0358.058-.009a.5794.5794,0,0,1,.0676.21.6176.6176,0,0,1-.0012.1245.7972.7972,0,0,1-.07.2323C19.8923,9.4667,19.8643,9.4711,19.85,9.445Z"/><path class="cls-19" d="M19.9953,9.4791a.6.6,0,0,0,.1526-.1591.6375.6375,0,0,0,.0552-.1124.769.769,0,0,0,.0412-.239c.0006-.0346-.0228-.0512-.048-.0338a.5834.5834,0,0,0-.1541.1587.6547.6547,0,0,0-.0539.1121.7907.7907,0,0,0-.04.24C19.9479,9.48,19.9709,9.4962,19.9953,9.4791Z"/><path class="cls-19" d="M20.412,9.0485a.6.6,0,0,1-.0642-.2134A.65.65,0,0,1,20.35,8.71a.7537.7537,0,0,1,.0736-.2311c.0155-.031.0444-.0348.059-.0069a.5835.5835,0,0,1,.0656.2135.6063.6063,0,0,1-.0029.1254.7782.7782,0,0,1-.0751.2307C20.4545,9.0721,20.4261,9.0758,20.412,9.0485Z"/><path class="cls-19" d="M20.56,9.0855a.6031.6031,0,0,0,.158-.1577.639.639,0,0,0,.058-.1114.7618.7618,0,0,0,.0452-.2382c.0011-.0346-.0226-.0516-.0488-.0339a.59.59,0,0,0-.16.1571.6455.6455,0,0,0-.057.1118.7772.7772,0,0,0-.0436.2386C20.5111,9.0863,20.5344,9.103,20.56,9.0855Z"/><path class="cls-19" d="M20.9908,8.6613a.5542.5542,0,0,1-.0589-.34.7487.7487,0,0,1,.078-.23c.0163-.0308.0459-.034.0606-.0065a.5687.5687,0,0,1,.0639.216.6081.6081,0,0,1-.0049.1255.7574.7574,0,0,1-.08.2292C21.0336,8.6865,21.0049,8.6889,20.9908,8.6613Z"/><path class="cls-19" d="M21.1406,8.7039a.6064.6064,0,0,0,.1627-.1526.622.622,0,0,0,.06-.11.7435.7435,0,0,0,.0495-.2376c.0014-.0347-.0224-.0523-.0492-.036A.5748.5748,0,0,0,21.2,8.32a.6149.6149,0,0,0-.0595.11.765.765,0,0,0-.0477.2384C21.091,8.7029,21.1146,8.72,21.1406,8.7039Z"/><path class="cls-19" d="M20.7214,9.6622a.6242.6242,0,0,1-.0583-.2132.6345.6345,0,0,1,.005-.125.7739.7739,0,0,1,.0773-.23c.0159-.0307.0446-.0344.0584-.0072a.5782.5782,0,0,1,.0594.215.6419.6419,0,0,1-.006.125.79.79,0,0,1-.0789.2292C20.7623,9.6867,20.7346,9.69,20.7214,9.6622Z"/><path class="cls-19" d="M20.8649,9.7032a.6074.6074,0,0,0,.1582-.1539.6494.6494,0,0,0,.0592-.1106.7735.7735,0,0,0,.05-.2371c.0017-.0346-.0211-.052-.0469-.0354a.5834.5834,0,0,0-.16.1536.6305.6305,0,0,0-.0582.11.7946.7946,0,0,0-.0484.2379C20.8174,9.7024,20.84,9.72,20.8649,9.7032Z"/><path class="cls-18" d="M22.2463,8.66a.6059.6059,0,0,1-.0539-.2182.6385.6385,0,0,1,.0095-.1254.73.73,0,0,1,.089-.2254c.018-.03.048-.0314.0615-.0026a.5812.5812,0,0,1,.0555.2186.6408.6408,0,0,1-.01.1252.7533.7533,0,0,1-.0907.2248C22.2889,8.6869,22.2593,8.6883,22.2463,8.66Z"/><path class="cls-18" d="M22.3966,8.7082a.61.61,0,0,0,.1724-.1455.6507.6507,0,0,0,.066-.1072.7266.7266,0,0,0,.06-.2346c.0032-.0348-.02-.0534-.0483-.0379a.5861.5861,0,0,0-.1736.145.6174.6174,0,0,0-.0653.1075.7483.7483,0,0,0-.0586.2351C22.3464,8.7054,22.3694,8.7237,22.3966,8.7082Z"/><path class="cls-18" d="M22.0875,9.154a.6121.6121,0,0,1-.0516-.2176.6486.6486,0,0,1,.01-.1253.7467.7467,0,0,1,.0886-.2255c.0179-.03.0472-.0314.06-.0029a.5834.5834,0,0,1,.053.2181.637.637,0,0,1-.0108.1247.7727.7727,0,0,1-.0906.2254C22.1291,9.1806,22.1,9.182,22.0875,9.154Z"/><path class="cls-18" d="M22.2346,9.2013a.6131.6131,0,0,0,.17-.1464.6521.6521,0,0,0,.0655-.1075.739.739,0,0,0,.0606-.2345c.0034-.0347-.02-.0529-.0471-.0375a.59.59,0,0,0-.1713.146.6263.6263,0,0,0-.0647.1074.7641.7641,0,0,0-.0591.2355C22.1855,9.1987,22.2079,9.2167,22.2346,9.2013Z"/><path class="cls-18" d="M22.6976,8.8071a.6264.6264,0,0,1-.05-.219.6188.6188,0,0,1,.0117-.1247.7372.7372,0,0,1,.0933-.224c.0187-.03.0489-.031.0619-.0023a.5777.5777,0,0,1,.051.2209.6284.6284,0,0,1-.0128.1253.75.75,0,0,1-.0952.2227C22.74,8.8356,22.71,8.836,22.6976,8.8071Z"/><path class="cls-18" d="M22.8463,8.8605a.594.594,0,0,0,.1748-.14.65.65,0,0,0,.0681-.1054.7366.7366,0,0,0,.0649-.2337c.004-.0347-.0192-.0542-.0471-.04a.5736.5736,0,0,0-.1762.14.614.614,0,0,0-.0672.1058.748.748,0,0,0-.0633.2343C22.7965,8.8561,22.819,8.8752,22.8463,8.8605Z"/><path class="cls-18" d="M22.5294,9.2981A.633.633,0,0,1,22.482,9.08a.6223.6223,0,0,1,.0124-.1246.7546.7546,0,0,1,.093-.2241c.0185-.03.0481-.031.0607-.0027a.5823.5823,0,0,1,.0486.22.64.64,0,0,1-.0134.1249.77.77,0,0,1-.0949.2233C22.57,9.3261,22.5413,9.3266,22.5294,9.2981Z"/><path class="cls-18" d="M22.6748,9.35a.5978.5978,0,0,0,.1723-.1415.654.654,0,0,0,.0677-.1057A.7542.7542,0,0,0,22.98,8.87c.004-.0347-.0187-.0538-.0461-.0391a.5779.5779,0,0,0-.1739.1409.6316.6316,0,0,0-.0665.1058.768.768,0,0,0-.0638.2345C22.626,9.3461,22.648,9.3649,22.6748,9.35Z"/><path class="cls-18" d="M22.3616,9.7874a.625.625,0,0,1-.0451-.2171.6352.6352,0,0,1,.0129-.1243.7662.7662,0,0,1,.0927-.2242c.0184-.03.0474-.0314.06-.003a.5823.5823,0,0,1,.0462.2191.6425.6425,0,0,1-.014.1249.7816.7816,0,0,1-.0944.223C22.4013,9.8155,22.3731,9.816,22.3616,9.7874Z"/><path class="cls-18" d="M22.5038,9.8386a.5886.5886,0,0,0,.17-.142.6628.6628,0,0,0,.067-.1058.7712.7712,0,0,0,.0657-.2334c.0042-.0347-.0179-.0536-.045-.0386A.5774.5774,0,0,0,22.59,9.46a.64.64,0,0,0-.0661.1062A.7809.7809,0,0,0,22.46,9.8C22.4559,9.8351,22.4774,9.8536,22.5038,9.8386Z"/><path class="cls-18" d="M22.967,9.4554a.6025.6025,0,0,1-.0433-.219.64.64,0,0,1,.0149-.1247.7354.7354,0,0,1,.0976-.2219c.0188-.0295.0484-.03.06-.0009a.5807.5807,0,0,1,.0449.22.6266.6266,0,0,1-.0158.1239.77.77,0,0,1-.0994.2218C23.0076,9.4833,22.9785,9.4837,22.967,9.4554Z"/><path class="cls-18" d="M23.1122,9.5075a.6107.6107,0,0,0,.1759-.14.6669.6669,0,0,0,.07-.1047.746.746,0,0,0,.07-.2321c.0048-.0345-.0178-.0535-.0456-.039a.5921.5921,0,0,0-.1774.14.6123.6123,0,0,0-.0688.1049.7618.7618,0,0,0-.0683.2329C23.0632,9.5033,23.085,9.522,23.1122,9.5075Z"/><path class="cls-18" d="M22.79,9.9413a.593.593,0,0,1-.0411-.2178.6385.6385,0,0,1,.0155-.1243.7523.7523,0,0,1,.0972-.2221c.0186-.03.0477-.03.059-.0012a.579.579,0,0,1,.0427.2184.6309.6309,0,0,1-.0165.124.7779.7779,0,0,1-.0989.2214C22.8289,9.9692,22.8005,9.97,22.79,9.9413Z"/><path class="cls-18" d="M22.9315,9.9923a.6051.6051,0,0,0,.1735-.1407.67.67,0,0,0,.069-.1048.7593.7593,0,0,0,.07-.2319c.005-.0344-.017-.0534-.0445-.0385a.5886.5886,0,0,0-.1749.14.6254.6254,0,0,0-.0683.1053.7728.7728,0,0,0-.0684.2324C22.8834,9.9888,22.9047,10.0072,22.9315,9.9923Z"/><path class="cls-18" d="M22.6115,10.4291a.61.61,0,0,1-.0387-.2172.6616.6616,0,0,1,.0161-.1241.7686.7686,0,0,1,.097-.2224c.0183-.0294.0469-.03.058-.0018a.5793.5793,0,0,1,.04.2179.6408.6408,0,0,1-.017.1238.7973.7973,0,0,1-.0986.2215C22.65,10.4564,22.6221,10.4571,22.6115,10.4291Z"/><path class="cls-18" d="M22.75,10.4789a.623.623,0,0,0,.1712-.1418.6874.6874,0,0,0,.0685-.1051A.7788.7788,0,0,0,23.0605,10c.0051-.0341-.0163-.053-.0434-.0382a.5918.5918,0,0,0-.1725.1414.6449.6449,0,0,0-.0678.1056.7947.7947,0,0,0-.0688.2322C22.7031,10.4755,22.7239,10.4936,22.75,10.4789Z"/><path class="cls-18" d="M23.59,9.1345a.6071.6071,0,0,1-.0407-.2222.6251.6251,0,0,1,.0168-.125.7274.7274,0,0,1,.1022-.22c.02-.0289.05-.0282.0613.0016a.5878.5878,0,0,1,.0424.2228.611.611,0,0,1-.0179.1245.7392.7392,0,0,1-.104.2189C23.6308,9.1645,23.6012,9.1638,23.59,9.1345Z"/><path class="cls-18" d="M23.9761,8.7052v.2723a.7345.7345,0,0,1-.0581.0819.6388.6388,0,0,1-.1824.1348c-.0265.0132-.0476-.0079-.0424-.0423a.7022.7022,0,0,1,.0714-.23.4789.4789,0,0,1,.0714-.1031A.7142.7142,0,0,1,23.9761,8.7052Z"/><path class="cls-18" d="M23.4022,9.6184a.6146.6146,0,0,1-.0382-.2215.6369.6369,0,0,1,.0175-.1248.7453.7453,0,0,1,.1018-.22c.0193-.0289.0488-.0282.06.0012a.5941.5941,0,0,1,.04.2221.63.63,0,0,1-.0184.124.7618.7618,0,0,1-.1038.22C23.442,9.6478,23.4129,9.6472,23.4022,9.6184Z"/><path class="cls-18" d="M23.5457,9.6758a.605.605,0,0,0,.1779-.135.65.65,0,0,0,.0719-.1031.738.738,0,0,0,.0747-.2306c.0055-.0345-.0164-.0542-.0446-.0407a.5787.5787,0,0,0-.18.1343.6218.6218,0,0,0-.071.1031.7691.7691,0,0,0-.073.2318C23.4969,9.67,23.5181,9.6893,23.5457,9.6758Z"/><path class="cls-18" d="M23.2149,10.1006a.606.606,0,0,1-.0358-.22.6436.6436,0,0,1,.018-.1245.7606.7606,0,0,1,.1015-.22c.0192-.029.0481-.0286.0589.0008a.5921.5921,0,0,1,.0375.2208.6411.6411,0,0,1-.0191.124.7722.7722,0,0,1-.1033.2192C23.2535,10.13,23.2252,10.13,23.2149,10.1006Z"/><path class="cls-18" d="M23.3551,10.1567a.5936.5936,0,0,0,.1753-.1356.6514.6514,0,0,0,.0712-.1032.7572.7572,0,0,0,.0752-.23c.0056-.0345-.0156-.0541-.0435-.04a.5772.5772,0,0,0-.177.135.63.63,0,0,0-.07.1035.7832.7832,0,0,0-.0732.2312C23.3072,10.1515,23.3279,10.1707,23.3551,10.1567Z"/><path class="cls-18" d="M23.9761,9.2127v.4336a.86.86,0,0,1-.0819.1454c-.0212.029-.05.029-.0608,0a.6562.6562,0,0,1-.0344-.22.663.663,0,0,1,.1269-.3436A.0353.0353,0,0,1,23.9761,9.2127Z"/></g></g></g></g></g></g></svg>