<svg xmlns="http://www.w3.org/2000/svg" width="37.2243" height="27.7089" viewBox="0 0 37.2243 27.7089"><defs><style>.cls-1{isolation:isolate;}.cls-11,.cls-2,.cls-5{mix-blend-mode:multiply;}.cls-3,.cls-5{fill:#f08b88;}.cls-4{fill:#7b2d10;}.cls-5{opacity:0.68;}.cls-6{fill:#adaba9;}.cls-7{fill:#c5c5c5;}.cls-8,.cls-9{fill:none;stroke-linecap:round;stroke-miterlimit:10;}.cls-8{stroke:#2f292b;stroke-width:0.3047px;}.cls-9{stroke:#545454;stroke-width:0.1922px;}.cls-10{fill:#2f292b;}.cls-11{fill:#dbc1bb;}.cls-12{fill:#e8d5a8;}.cls-13{fill:#fa4751;}.cls-14{fill:#cd382e;}.cls-15{fill:#fbedcd;}</style></defs><g class="cls-1"><g id="Layer_2" data-name="Layer 2"><g id="Layer_1-2" data-name="Layer 1"><g id="New_Symbol" data-name="New Symbol" class="cls-2"><g id="New_Symbol_10" data-name="New Symbol 10"><g id="New_Symbol_5" data-name="New Symbol 5"><path class="cls-3" d="M12.3293,12.8962l2.3246-2.6231L18.24,6.221s-4.2044-4.4663-5.9166-5.1457a.7945.7945,0,0,0-.49-.07S9.3466,7.2143,12.3293,12.8962Z"/><path class="cls-4" d="M11.8327,1.0052a16.8355,16.8355,0,0,0,.8439,6.4832,14.3434,14.3434,0,0,0,1.9773,2.7847l-2.3246,2.6231C9.3466,7.2143,11.8327,1.0052,11.8327,1.0052Z"/><path class="cls-3" d="M33.664,12.8962l-2.3246-2.6231L27.7535,6.221S31.9578,1.7547,33.67,1.0753a.7943.7943,0,0,1,.4905-.07S36.6466,7.2143,33.664,12.8962Z"/><path class="cls-5" d="M34.1606,1.0052c.0946-.0175-.0682-.0205,0,0,0,0,2.4861,6.209-.4966,11.891l-2.3246-2.6231-.6916-.7816C32.67,7.2259,34.6118,4.6049,34.1606,1.0052Z"/><path class="cls-6" d="M34.1606,1.0052a16.8394,16.8394,0,0,1-.8439,6.4832,14.352,14.352,0,0,1-1.9773,2.7847l2.3246,2.6231C36.6466,7.2143,34.1606,1.0052,34.1606,1.0052Z"/><path class="cls-7" d="M8.7717,11.6531a14.426,14.426,0,0,0,.2651,1.9529,14.3446,14.3446,0,0,0,4.96,8.43,32.5854,32.5854,0,0,0,4.6309,2.4708c.3991.2163,4.36,2.8395,4.0856,3.202a10.1427,10.1427,0,0,1,4.4115-3.29,18.01,18.01,0,0,0,4.8746-2.3824,14.3757,14.3757,0,0,0,4.96-8.43,14.4416,14.4416,0,0,0,.265-1.9529,7.5728,7.5728,0,0,1-4.7466-2.7664c-.454-.4966-.8957-1.045-1.3649-1.6025-1.6513-1.959-3.656-4.0063-7.8055-4.1495q-.1554-.0091-.3108-.0092t-.3108.0092c-4.6.1584-6.5624,2.66-8.3356,4.7832-.28.3351-.5545.6642-.8348.9688A7.5581,7.5581,0,0,1,8.7717,11.6531Z"/><path class="cls-8" d="M30.2915,17.0437a1.45,1.45,0,1,0-2.8991,0"/><line class="cls-8" x1="28.842" y1="15.5941" x2="28.842" y2="15.032"/><line class="cls-8" x1="29.5931" y1="15.7252" x2="29.8685" y2="15.3131"/><line class="cls-8" x1="30.0742" y1="16.2809" x2="30.5711" y2="15.9272"/><path class="cls-8" d="M15.7017,17.0437a1.45,1.45,0,1,1,2.8991,0"/><line class="cls-8" x1="17.1513" y1="15.5941" x2="17.1513" y2="15.032"/><line class="cls-8" x1="16.4002" y1="15.7252" x2="16.1247" y2="15.3131"/><line class="cls-8" x1="15.9191" y1="16.2809" x2="15.4222" y2="15.9272"/><path class="cls-3" d="M14.6039,19.5734c0,.7158.8042,1.2961,1.7963,1.2961s1.7963-.58,1.7963-1.2961-.8042-1.296-1.7963-1.296S14.6039,18.8577,14.6039,19.5734Z"/><path class="cls-3" d="M27.7967,19.5734c0,.7158.8043,1.2961,1.7964,1.2961s1.7963-.58,1.7963-1.2961-.8043-1.296-1.7963-1.296S27.7967,18.8577,27.7967,19.5734Z"/><path class="cls-9" d="M16.4362,18.75a12.9357,12.9357,0,0,0-6.7478,1.35"/><path class="cls-9" d="M16.2185,19.4434a23.2218,23.2218,0,0,0-5.9441,2.2"/><path class="cls-9" d="M16.1707,20.3671a27.8112,27.8112,0,0,0-4.9293,2.936"/><path class="cls-9" d="M29.1467,18.75a12.9354,12.9354,0,0,1,6.7477,1.35"/><path class="cls-9" d="M29.3644,19.4434a23.2218,23.2218,0,0,1,5.9441,2.2"/><path class="cls-9" d="M29.4121,20.3671a27.812,27.812,0,0,1,4.9294,2.936"/><path class="cls-8" d="M23.02,18.3888a2.84,2.84,0,0,1-.67,1.9331,1.33,1.33,0,0,1-1.9573.0123"/><path class="cls-8" d="M23.02,18.3888a2.84,2.84,0,0,0,.67,1.9331,1.33,1.33,0,0,0,1.9572.0123"/><path class="cls-10" d="M21.7947,17.7513c-.1351.067,1.1831,1.0948,1.1831,1.0948l1.1831-1.0948A2.6346,2.6346,0,0,0,21.7947,17.7513Z"/><path class="cls-11" d="M10.3664,15.0984c.0164-.0536.0289-.11.0459-.1626a12.9556,12.9556,0,0,1,5.9694-7.2939,14.5849,14.5849,0,0,1,2.7011-1.205c.347-.1157.7014-.22,1.06-.3134.4141-.1082.8357-.1977,1.2648-.2724.2947-.0522.5969-.097.8991-.1343a.461.461,0,0,1,.0709-.0074c.2239-.0262.4439-.0448.6716-.0635.4588-.0373.9252-.0559,1.3953-.0559.0448,0,.082,0,.1269.0037.2611.0037.526.0112.7834.03.25.0111.5.0335.7461.06l.0784.0112c.3806.0411.7537.1008,1.123.1754.3246.06.6454.1343.9626.22a13.337,13.337,0,0,1,1.4327.4589q.6419.24,1.255.541l.4767.6129C22.37,6.66,16.1068,10.1468,10.3664,15.0984Z"/><circle class="cls-12" cx="2.1971" cy="15.9189" r="2.1971"/><path class="cls-13" d="M9.9815,5A37.7275,37.7275,0,0,1,7.23,10.803a13.04,13.04,0,0,1-3.9939,4.2035c-.092.0218-.1818.05-.2753.0672,1.8779-2.5044.878-6.1316,1.9382-9.0769A8.4566,8.4566,0,0,1,9.2974,1.4341,16.6426,16.6426,0,0,1,15.6021.031a18.7168,18.7168,0,0,1,6.0528.55c1.5731.4588,2.8861,1.3952,4.396,1.9861A32.9128,32.9128,0,0,0,15.2457,6.084a20.8362,20.8362,0,0,0-4.32,2.5306c-.0977.08-.1909.1653-.2856.2486A7.25,7.25,0,0,0,9.9815,5Z"/><path class="cls-14" d="M22.3772.83c1.0159.4689,2.6213,1.3252,3.6737,1.7371A32.9128,32.9128,0,0,0,15.2457,6.084a20.8362,20.8362,0,0,0-4.32,2.5306c-.0977.08-.1909.1653-.2856.2486.0105-.1109.0153-.2223.0213-.3335A19.5121,19.5121,0,0,1,22.3772.83Z"/><path class="cls-14" d="M7.3239,12.3785a8.7231,8.7231,0,0,1-4.088,2.628A13.04,13.04,0,0,0,7.23,10.803,37.7275,37.7275,0,0,0,9.9815,5a7.25,7.25,0,0,1,.659,3.8629C9.4324,9.9258,8.443,11.2185,7.3239,12.3785Z"/><path class="cls-15" d="M18.5028,8.4372a19.7184,19.7184,0,0,0-8.6876,8.2643c-1.7522-2.237-2.339-6.2909-.2422-8.4082a22.9213,22.9213,0,0,1,8.3522-5.3427c3.45-1.2693,8.02-2.4282,11.1173.1708a4.9885,4.9885,0,0,1,1.3192,1.7039,7.2439,7.2439,0,0,1,.582,2.26A7.322,7.322,0,0,0,28.44,6.5534a19.7984,19.7984,0,0,0-8.1969,1.1488Q19.3556,8.0268,18.5028,8.4372Z"/><path class="cls-12" d="M9.573,8.2933c.12-.1211.2471-.2345.37-.3527a6.1564,6.1564,0,0,0-.618,5.9118,19.0565,19.0565,0,0,0,1.0906,1.832c-.2094.3334-.4117.6713-.6,1.0171C8.063,14.4645,7.4762,10.4106,9.573,8.2933Z"/></g></g></g></g></g></g></svg>