<svg xmlns="http://www.w3.org/2000/svg" width="151.5" height="136.5" viewBox="0 0 151.5 136.5"><defs><style>.cls-1{fill:#ffddb0;}.cls-2{fill:#ff8588;}.cls-3{fill:#b37336;}.cls-4{fill:#424242;}.cls-5{fill:#fff;}.cls-6{fill:#ff3b40;}.cls-7{fill:#ebf0f0;}.cls-8{fill:#e1e8e8;}</style></defs><g id="Layer_2" data-name="Layer 2"><g id="Layer_1-2" data-name="Layer 1"><path class="cls-1" d="M90.2568,58.56c-7.0022,15.0162-4.665,24.3057,2.0923,27.4567s15.3758-1.03,22.378-16.046,5.9692-39.4208,2.9791-38.3325S97.2589,43.5438,90.2568,58.56Z"/><path class="cls-2" d="M107.5506,64.53c-7.0022,15.0162-21.9588,18.3362-15.2015,21.4872s15.3758-1.03,22.378-16.046,5.9692-39.4208,2.9791-38.3325S114.5528,49.5133,107.5506,64.53Z"/><path class="cls-1" d="M44.7427,58.56c7.0022,15.0162,4.665,24.3057-2.0923,27.4567s-15.3759-1.03-22.378-16.046S14.3032,30.55,17.2933,31.6382,37.7405,43.5438,44.7427,58.56Z"/><path class="cls-2" d="M27.4488,64.53C34.451,79.5457,49.4077,82.8657,42.65,86.0167s-15.3759-1.03-22.378-16.046S14.3032,30.55,17.2933,31.6382,20.4467,49.5133,27.4488,64.53Z"/><ellipse class="cls-1" cx="67.5" cy="93" rx="52.4966" ry="43.4972"/><path class="cls-3" d="M110.9725,89.4745c.0089-.3249.0275-.6477.0275-.9745h-.0784c-.803-11.7238-10.8794-21-23.2252-21a23.8708,23.8708,0,0,0-9.1289,1.7977,29.2479,29.2479,0,0,1-22.135,0A23.8708,23.8708,0,0,0,47.3036,67.5c-12.3458,0-22.4222,9.2762-23.2252,21H24c0,.3268.0186.65.0275.9745C24.0232,89.6509,24,89.8226,24,90a21.757,21.757,0,0,0,.6588,5.2308C28.2176,113.56,46.0373,127.5,67.5,127.5s39.2824-13.94,42.8412-32.2692A21.757,21.757,0,0,0,111,90C111,89.8226,110.9768,89.6509,110.9725,89.4745Z"/><path class="cls-4" d="M61.5,112.7915a.75.75,0,1,1,0-1.5,5.2564,5.2564,0,0,0,5.25-5.25.75.75,0,1,1,1.5,0A6.7573,6.7573,0,0,1,61.5,112.7915Z"/><path class="cls-4" d="M73.5,112.7915a6.7573,6.7573,0,0,1-6.75-6.75.75.75,0,1,1,1.5,0,5.2564,5.2564,0,0,0,5.25,5.25.75.75,0,0,1,0,1.5Z"/><path class="cls-4" d="M67.5,108.2915a.75.75,0,0,1-.75-.75v-9a.75.75,0,1,1,1.5,0v9A.75.75,0,0,1,67.5,108.2915Z"/><path class="cls-4" d="M60,95.5422c0,3.3137,3.3579,6,7.5,6s7.5-2.6863,7.5-6c0-3.0824-3.3579-3-7.5-3S60,92.2285,60,95.5422Z"/><circle class="cls-5" cx="88.5" cy="90.2922" r="9"/><circle class="cls-4" cx="88.5" cy="90.2922" r="6"/><circle class="cls-5" cx="87" cy="88.7922" r="1.5"/><circle class="cls-5" cx="46.5" cy="90.2922" r="9"/><circle class="cls-4" cx="46.5" cy="90.2922" r="6"/><circle class="cls-5" cx="45" cy="88.7922" r="1.5"/><path class="cls-6" d="M49.1156,58.5713l76.5,9q8.25,12,16.5,24c.4519-7.6822,5.94-43.1234-16.1156-67.63-13.5-15-38.5306-32.3788-61.8844-19.37C50.1329,12.36,43.583,35.6449,49.1156,58.5713Z"/><path class="cls-7" d="M45.3174,58.4608a147.6387,147.6387,0,0,1,65.8139,23.9543,14.13,14.13,0,0,0,19.0642-3.5838l.1811-.2377c5.2319-6.864,3.8305-16.7676-3.1-21.39A175.2875,175.2875,0,0,0,49.1555,28.77c-8.2808-.9138-15.72,5.772-16.1245,14.3931l-.014.2986A14.13,14.13,0,0,0,45.3174,58.4608Z"/><path class="cls-8" d="M130.3767,67.9077l-.1812.2377a14.13,14.13,0,0,1-19.0641,3.5839,147.6385,147.6385,0,0,0-65.814-23.9544,13.7851,13.7851,0,0,1-11.3925-9.1085,15.45,15.45,0,0,0-.8939,4.4963l-.014.2986a14.13,14.13,0,0,0,12.3,14.9995,147.64,147.64,0,0,1,65.814,23.9543,14.13,14.13,0,0,0,19.0641-3.5838l.1812-.2377A15.347,15.347,0,0,0,132.57,63.9189,15.4466,15.4466,0,0,1,130.3767,67.9077Z"/><circle class="cls-8" cx="141" cy="90" r="10.5"/><circle class="cls-7" cx="138" cy="90" r="5.9999"/><path class="cls-4" d="M41.0961,105.4245A70.5373,70.5373,0,0,0,20.5,102.01,69.3705,69.3705,0,0,0,0,104.7706a68.6452,68.6452,0,0,1,40.22,3.1063,1.3028,1.3028,0,1,0,.9547-2.4244C41.15,105.4428,41.1207,105.4326,41.0961,105.4245Z"/><path class="cls-4" d="M40.6567,112.2949A54.4653,54.4653,0,0,0,10.5,123a53.1827,53.1827,0,0,1,30.1715-8.1457,1.2808,1.2808,0,0,0,.0954-2.56c-.0335-.0013-.0666-.0012-.0995,0Z"/><path class="cls-4" d="M93.9039,105.43a70.534,70.534,0,0,1,20.5963-3.415,69.3672,69.3672,0,0,1,20.5,2.761,68.6474,68.6474,0,0,0-40.2195,3.1063,1.3028,1.3028,0,1,1-.9547-2.4244C93.85,105.4478,93.8793,105.4376,93.9039,105.43Z"/><path class="cls-4" d="M94.3433,112.2951A54.4653,54.4653,0,0,1,124.5,123a53.1827,53.1827,0,0,0-30.1715-8.1457,1.2808,1.2808,0,0,1-.0954-2.56c.0335-.0012.0666-.0011.1,0Z"/></g></g></svg>