<svg xmlns="http://www.w3.org/2000/svg" width="129" height="172.5" viewBox="0 0 129 172.5"><defs><style>.cls-1{fill:#7b532c;}.cls-2{fill:#ebf0f0;}.cls-3{fill:#a9611d;}.cls-4{fill:#b37336;}.cls-5{fill:#979797;}.cls-6{fill:#717171;}.cls-7{fill:#424242;}.cls-8{fill:#fff;}.cls-9{fill:#ff8588;}.cls-10{fill:#adadad;}</style></defs><g id="Layer_2" data-name="Layer 2"><g id="Layer_1-2" data-name="Layer 1"><path class="cls-1" d="M119.167,149.4329l-15.5885,9C94.7868,151.3838,90.8968,144.37,88.98,139.1483c-2.8385-7.7343-1.5825-12.178-4.5538-19.8875a42.45,42.45,0,0,0-13.8481-17.9856l15.5885-9q1.77,15.0332,10.1519,23.5837c4.5717,4.6635,8.11,5.3122,12.6962,9.99Q117.3973,134.4,119.167,149.4329Z"/><circle class="cls-2" cx="110.9977" cy="153.2834" r="13.5" transform="translate(-21.8873 18.5323) rotate(-8.6909)"/><path class="cls-3" d="M91.5,159.75h-18c-4.0893-10.5-3.9512-18.52-3-24,1.4089-8.1174,4.7185-11.3377,6-19.5a42.4491,42.4491,0,0,0-3-22.5h18q-5.9841,13.904-3,25.5c1.6275,6.3246,4.3673,8.6555,6,15Q97.4839,145.8459,91.5,159.75Z"/><path class="cls-4" d="M95.9758,121.3114a108.4046,108.4046,0,0,1-62.9516,0,25.672,25.672,0,0,1-13.6967-39.316L19.5,81.75a78.2605,78.2605,0,0,0,90,0l.1725.2454A25.672,25.672,0,0,1,95.9758,121.3114Z"/><circle class="cls-2" cx="82.5" cy="159" r="13.5"/><ellipse class="cls-5" cx="64.5" cy="52.5" rx="58.4962" ry="52.4966"/><path class="cls-2" d="M104.3447,59.3133C82.4854,50.9963,69.7044,34.1745,64.5,26.25c-5.2048,7.9245-17.9861,24.7463-39.8451,33.0633A71.6261,71.6261,0,0,1,6.9462,63.4457c4.7471,25.17,27.0546,41.8286,57.5538,41.5508,30.4992.2778,52.8067-16.3809,57.5538-41.5507A71.6288,71.6288,0,0,1,104.3447,59.3133Z"/><path class="cls-6" d="M64.5,18.5294,69.9922.1531C68.1913.0454,66.3643-.0136,64.5.0034c-1.8646-.017-3.6919.042-5.4932.15Z"/><path class="cls-6" d="M51.7592.9329c-2.2036.3524-4.3423.81-6.4223,1.3538l3.0088,10.0662Z"/><path class="cls-6" d="M80.6534,12.3529l3.009-10.0666c-2.08-.5439-4.2189-1.0014-6.4226-1.3536Z"/><circle class="cls-7" cx="88.5" cy="61.5" r="6"/><circle class="cls-7" cx="40.5" cy="61.5" r="6"/><path class="cls-7" d="M41.0961,79.9245A70.5373,70.5373,0,0,0,20.5,76.51,69.3705,69.3705,0,0,0,0,79.2706a68.6452,68.6452,0,0,1,40.22,3.1063,1.3028,1.3028,0,1,0,.9547-2.4244C41.15,79.9428,41.1207,79.9326,41.0961,79.9245Z"/><path class="cls-7" d="M37.6567,86.7949A54.4653,54.4653,0,0,0,7.5,97.5a53.1827,53.1827,0,0,1,30.1715-8.1457,1.2808,1.2808,0,1,0,.0954-2.56c-.0335-.0013-.0666-.0012-.0995,0Z"/><path class="cls-7" d="M87.9039,79.93A70.534,70.534,0,0,1,108.5,76.5146a69.3672,69.3672,0,0,1,20.5,2.761,68.6474,68.6474,0,0,0-40.2195,3.1063,1.3028,1.3028,0,1,1-.9547-2.4244C87.85,79.9478,87.8793,79.9376,87.9039,79.93Z"/><path class="cls-7" d="M91.3433,86.7951A54.4653,54.4653,0,0,1,121.5,97.5a53.1827,53.1827,0,0,0-30.1715-8.1457,1.2808,1.2808,0,0,1-.0954-2.56c.0335-.0012.0666-.0011.1,0Z"/><circle class="cls-8" cx="87" cy="60" r="1.5"/><circle class="cls-8" cx="41.9996" cy="60" r="1.5"/><path class="cls-7" d="M70.5,91.5a5.2564,5.2564,0,0,1-5.25-5.25v-7.5a.75.75,0,0,0-1.5,0v7.5A5.2564,5.2564,0,0,1,58.5,91.5a.75.75,0,0,0,0,1.5,6.7331,6.7331,0,0,0,6-3.7225A6.7331,6.7331,0,0,0,70.5,93a.75.75,0,0,0,0-1.5Z"/><path class="cls-9" d="M57,73.5c0,3.3137,3.3578,6,7.5,6s7.5-2.6863,7.5-6c0-3.0824-3.3579-3-7.5-3S57,70.1863,57,73.5Z"/><path class="cls-10" d="M122.1016,29.6749c-4.0223,4.7937-17.08,6.6871-25.3816-.279S88.0154,9.242,92.0377,4.4484s11.7132-.2916,20.0151,6.6745S126.1239,24.8813,122.1016,29.6749Z"/><path class="cls-10" d="M6.8984,29.6749c4.0223,4.7937,17.08,6.6871,25.3816-.279S40.9846,9.242,36.9623,4.4484s-11.7132-.2916-20.0151,6.6745S2.8761,24.8813,6.8984,29.6749Z"/></g></g></svg>