<svg xmlns="http://www.w3.org/2000/svg" width="144" height="117" viewBox="0 0 144 117"><defs><style>.cls-1{fill:#636363;}.cls-2{fill:#ff8588;}.cls-3{fill:#a9611d;}.cls-4{fill:#bf1a1e;}.cls-5{fill:#ebf0f0;}.cls-6{fill:#424242;}</style></defs><g id="Layer_2" data-name="Layer 2"><g id="Layer_1-2" data-name="Layer 1"><path class="cls-1" d="M19.7214,54.2436C26.7236,69.26,37.1681,72.5891,46.1778,68.3879s13.1729-14.3424,6.1707-29.3586-29.76-28.327-31.5277-25.02S12.7193,39.2274,19.7214,54.2436Z"/><path class="cls-2" d="M19.7214,54.2435a39.7884,39.7884,0,0,0,4.469,7.485,17.3276,17.3276,0,0,0,4.6-1.4094c9.01-4.2013,13.0613-14.5815,5.81-30.1311-2.8177-6.0426-8.0271-11.8469-13.4445-16.4941a.8231.8231,0,0,0-.3359.3154C19.0527,17.3164,12.7192,39.2273,19.7214,54.2435Z"/><path class="cls-3" d="M124.2786,54.2436C117.2764,69.26,106.8319,72.5891,97.8222,68.3879S84.6493,54.0455,91.6515,39.0293s29.76-28.327,31.5277-25.02S131.2807,39.2274,124.2786,54.2436Z"/><path class="cls-2" d="M124.2786,54.2435a39.7884,39.7884,0,0,1-4.469,7.485,17.3276,17.3276,0,0,1-4.6-1.4094c-9.01-4.2013-13.0613-14.5815-5.81-30.1311,2.8177-6.0426,8.0271-11.8469,13.4445-16.4941a.8231.8231,0,0,1,.3359.3154C124.9473,17.3164,131.2808,39.2273,124.2786,54.2435Z"/><path class="cls-4" d="M124.5,45h-6C118.5,23.4954,97.64,6,72,6S25.5,23.4954,25.5,45h-6C19.5,20.187,43.0518,0,72,0S124.5,20.187,124.5,45Z"/><path class="cls-5" d="M141.2028,53.8836l-.0159.0077.0009.0012A4.9652,4.9652,0,0,1,136.716,61.63l-.0039,0,0,.0028a4.9652,4.9652,0,0,1-7.7378,4.4713h0l-.0076.0158a4.9652,4.9652,0,0,1-8.9338,0l-.0076-.0158-.0013.0008a4.9651,4.9651,0,0,1-7.7373-4.4717l0-.0039-.0029,0a4.9652,4.9652,0,0,1-4.4712-7.7379h0l-.0157-.0076a4.9652,4.9652,0,0,1,0-8.9338l.0159-.0077-.0009-.0012a4.9652,4.9652,0,0,1,4.4718-7.7374l.0039,0,0-.0028a4.9651,4.9651,0,0,1,7.7378-4.4712h0l.0076-.0157a4.9652,4.9652,0,0,1,8.9338,0l.0076.0158.0013-.0008a4.9651,4.9651,0,0,1,7.7373,4.4717l0,.004.0029,0a4.9651,4.9651,0,0,1,4.4712,7.7378h0l.0157.0076A4.9652,4.9652,0,0,1,141.2028,53.8836Z"/><path class="cls-5" d="M36.2028,53.8836l-.0159.0077.0009.0012A4.9652,4.9652,0,0,1,31.716,61.63l-.0039,0,0,.0028a4.9652,4.9652,0,0,1-7.7378,4.4713h0l-.0076.0158a4.9652,4.9652,0,0,1-8.9338,0l-.0076-.0158-.0013.0008a4.9651,4.9651,0,0,1-7.7373-4.4717l0-.0039-.0029,0A4.9652,4.9652,0,0,1,2.813,53.8911h0l-.0157-.0076a4.9652,4.9652,0,0,1,0-8.9338l.0159-.0077-.0009-.0012A4.9652,4.9652,0,0,1,7.284,37.2034l.0039,0,0-.0028A4.9651,4.9651,0,0,1,15.0255,32.73h0l.0076-.0157a4.9652,4.9652,0,0,1,8.9338,0l.0076.0158.0013-.0008a4.9651,4.9651,0,0,1,7.7373,4.4717l0,.004.0029,0a4.9651,4.9651,0,0,1,4.4712,7.7378h0l.0157.0076A4.9652,4.9652,0,0,1,36.2028,53.8836Z"/><path class="cls-5" d="M119.4459,55.16a33.4611,33.4611,0,0,1-1.455-3.1756c-6.87-17.3275-21.5567-29.7264-38.94-30.8708-2.2994-.1515-11.803-.1515-14.1024,0C47.5658,22.258,32.88,34.6569,26.0091,51.9844a33.4611,33.4611,0,0,1-1.455,3.1756A31.4447,31.4447,0,0,1,10.5,68.9551c.6119,4.8408,2.144,23.2853,16.9179,34.8262,10.8569,8.4811,26.3245,13.36,44.5821,13.2156,18.2576.1447,33.7252-4.7345,44.5821-13.2156C131.356,92.24,132.8881,73.7959,133.5,68.9551A31.4447,31.4447,0,0,1,119.4459,55.16Z"/><path class="cls-6" d="M66,91.8149a.75.75,0,0,1,0-1.5,5.2563,5.2563,0,0,0,5.25-5.25.75.75,0,0,1,1.5,0A6.7573,6.7573,0,0,1,66,91.8149Z"/><path class="cls-6" d="M78,91.8149a6.7573,6.7573,0,0,1-6.75-6.75.75.75,0,0,1,1.5,0,5.2563,5.2563,0,0,0,5.25,5.25.75.75,0,0,1,0,1.5Z"/><path class="cls-6" d="M72,87.3149a.75.75,0,0,1-.75-.75v-9a.75.75,0,0,1,1.5,0v9A.75.75,0,0,1,72,87.3149Z"/><path class="cls-6" d="M64.5,74.5646c0,3.3137,3.3579,6,7.5,6s7.5-2.6863,7.5-6c0-3.0824-3.3579-3-7.5-3S64.5,71.2509,64.5,74.5646Z"/><path class="cls-1" d="M67.5188,21.0333c-1.1182.0188-2.04.0454-2.57.08C47.5658,22.258,32.88,34.6569,26.0091,51.9844a33.4611,33.4611,0,0,1-1.455,3.1756A31.4447,31.4447,0,0,1,10.5,68.9551c.1385,1.0956.3342,2.9132.71,5.1649C39.4561,72.8742,62.6324,50.4006,67.5188,21.0333Z"/><path class="cls-3" d="M119.4459,55.16a33.4611,33.4611,0,0,1-1.455-3.1756c-6.87-17.3275-21.5567-29.7264-38.94-30.8708-.5349-.0352-1.4691-.062-2.6024-.0808,4.1488,24.7205,21.4717,45.6037,45.5263,51.5383a55.6994,55.6994,0,0,0,10.8142,1.5537c.3762-2.254.5721-4.0732.7107-5.17A31.4447,31.4447,0,0,1,119.4459,55.16Z"/><path class="cls-6" d="M93,69a8.2593,8.2593,0,0,1-8.25-8.25.75.75,0,0,1,1.5,0,6.75,6.75,0,0,0,13.5,0,.75.75,0,0,1,1.5,0A8.2593,8.2593,0,0,1,93,69Z"/><path class="cls-6" d="M51,69a8.2593,8.2593,0,0,1-8.25-8.25.75.75,0,0,1,1.5,0,6.75,6.75,0,0,0,13.5,0,.75.75,0,0,1,1.5,0A8.2593,8.2593,0,0,1,51,69Z"/><path class="cls-6" d="M45.5961,87.4245A70.5373,70.5373,0,0,0,25,84.01,69.3705,69.3705,0,0,0,4.5,86.7706a68.6452,68.6452,0,0,1,40.22,3.1063,1.3028,1.3028,0,1,0,.9547-2.4244C45.65,87.4428,45.6207,87.4326,45.5961,87.4245Z"/><path class="cls-6" d="M45.1567,94.2949A54.4653,54.4653,0,0,0,15,105a53.1827,53.1827,0,0,1,30.1715-8.1457,1.2808,1.2808,0,0,0,.0954-2.56c-.0335-.0013-.0666-.0012-.0995,0Z"/><path class="cls-6" d="M98.4039,87.43A70.534,70.534,0,0,1,119,84.0146a69.3672,69.3672,0,0,1,20.5,2.761,68.6474,68.6474,0,0,0-40.2195,3.1063,1.3028,1.3028,0,1,1-.9547-2.4244C98.35,87.4478,98.3793,87.4376,98.4039,87.43Z"/><path class="cls-6" d="M98.8433,94.2951A54.4653,54.4653,0,0,1,129,105a53.1827,53.1827,0,0,0-30.1715-8.1457,1.2808,1.2808,0,0,1-.0954-2.56c.0335-.0012.0666-.0011.1,0Z"/></g></g></svg>