<svg xmlns="http://www.w3.org/2000/svg" width="31.747" height="26.3073" viewBox="0 0 31.747 26.3073"><defs><style>.cls-1{isolation:isolate;}.cls-2,.cls-6{mix-blend-mode:multiply;}.cls-3{fill:#f094b1;}.cls-4{fill:#d66964;}.cls-5{fill:#f08b88;}.cls-6{fill:#bcbcbc;opacity:0.65;}.cls-7,.cls-8{fill:none;stroke-linecap:round;stroke-miterlimit:10;}.cls-7{stroke:#fff;stroke-width:0.2516px;}.cls-8{stroke:#2f292b;stroke-width:0.2666px;}.cls-9{fill:#fa4751;}.cls-10{fill:#cd2a1b;}.cls-11{fill:#00bdb8;}.cls-12{fill:#99d5d1;}.cls-13{fill:#6fb6b3;}.cls-14{fill:#529d98;}</style></defs><g class="cls-1"><g id="Layer_2" data-name="Layer 2"><g id="Layer_1-2" data-name="Layer 1"><g id="New_Symbol" data-name="New Symbol" class="cls-2"><g id="New_Symbol_10" data-name="New Symbol 10"><path class="cls-3" d="M25.348,12.1294l-1.2052-1.374L22.95,9.3944,22.2,8.54c.04-.0674.08-.1347.1239-.197A5.7412,5.7412,0,0,1,25.7167,6.06a.59.59,0,0,1,.4529.076.596.596,0,0,1,.2907.3993A7.4114,7.4114,0,0,1,25.348,12.1294Z"/><path class="cls-4" d="M24.1428,10.7554c-.0795.0771-.1626.1547-.25.2272L22.95,9.3944l-.6262-1.0518A5.7412,5.7412,0,0,1,25.7167,6.06a.59.59,0,0,1,.4529.076.2958.2958,0,0,1,.0032.0737A6.7005,6.7005,0,0,1,24.1428,10.7554Z"/><path class="cls-3" d="M8.6519,12.1294l1.2052-1.374L11.05,9.3944,11.8,8.54c-.04-.0674-.08-.1347-.1238-.197A5.7417,5.7417,0,0,0,8.2832,6.06a.59.59,0,0,0-.4528.076.5958.5958,0,0,0-.2908.3993A7.4118,7.4118,0,0,0,8.6519,12.1294Z"/><path class="cls-5" d="M9.8571,10.7554c.0795.0771.1626.1547.2495.2272L11.05,9.3944l.6263-1.0518A5.7417,5.7417,0,0,0,8.2832,6.06a.59.59,0,0,0-.4528.076.2912.2912,0,0,0-.0033.0737A6.701,6.701,0,0,0,9.8571,10.7554Z"/><path class="cls-3" d="M29.4828,18.47q.6565.2452,1.3158.4856C27.4927,22.5838,22.69,24.39,18.0809,26.0708a2.9568,2.9568,0,0,1-.9988.2365,2.9568,2.9568,0,0,1-.9987-.2365C11.4718,24.39,6.6716,22.5838,3.3657,18.956c.4378-.161.8781-.3221,1.3158-.4856L2.4173,17.4666c1.8718-1.024,3.0467-2.9385,4.2568-4.6971A12.9659,12.9659,0,0,1,12.9562,7.841a9.0025,9.0025,0,0,1,.966-.3095c.2139-.0579.43-.1082.6491-.1484.2491-.05.5007-.0906.7573-.1183l.0528-.0075c.1661-.0176.3346-.0327.5032-.04.1736-.0125.3522-.0176.5283-.02.03-.0025.0554-.0025.0856-.0025.1962,0,.39.0075.5836.02.1938-.0126.3875-.02.5837-.02.03,0,.0554,0,.0856.0025.1761.0025.3547.0076.5283.02.1685.0076.3371.0227.5032.04l.0528.0075c.2566.0277.5082.068.7573.1183.2188.04.4352.0905.649.1484a8.997,8.997,0,0,1,.9661.3095A12.9659,12.9659,0,0,1,27.49,12.77c1.21,1.7586,2.3825,3.6731,4.2568,4.6971Z"/><path class="cls-6" d="M24.8039,9.8636A13.0722,13.0722,0,0,0,21.2081,7.841a8.997,8.997,0,0,0-.9661-.3095c-.2138-.0579-.43-.1082-.6491-.1484-.249-.05-.5006-.0906-.7572-.1183l-.0528-.0075c-.1661-.0176-.3346-.0327-.5032-.04-.1736-.0126-.3522-.0176-.5284-.02-.03-.0025-.0553-.0025-.0855-.0025-.1962,0-.39.0075-.5836.02-.1938-.0126-.3875-.02-.5838-.02-.03,0-.0553,0-.0855.0025-.1761.0025-.3547.0075-.5283.02-.1686.0076-.3371.0227-.5032.04l-.0528.0075c-.2566.0277-.5082.068-.7573.1183-.2188.04-.4352.0905-.6491.1484a9.0186,9.0186,0,0,0-.9661.3095,12.9443,12.9443,0,0,0-6.1724,4.7752C11.6771,8.4676,17.8951,6.81,24.8039,9.8636Z"/><path class="cls-7" d="M17.2017,13.7373v.831a1.3194,1.3194,0,0,0,.372.9183l2.53,2.6108a2.5088,2.5088,0,0,0,2.6238.6245h0"/><path class="cls-7" d="M17.2017,13.7373v.831a1.32,1.32,0,0,1-.3719.9183L14.3,18.0974a2.5089,2.5089,0,0,1-2.6238.6245h0"/><path class="cls-4" d="M18.0775,13.3348a3.164,3.164,0,0,1-.3818.3785c-.1665.15-.35.2834-.5244.4244a5.8132,5.8132,0,0,1-.4522-.3661,1.7559,1.7559,0,0,1-.484-.5323.4679.4679,0,0,1,.1218-.5614.5873.5873,0,0,1,.47-.04,1.8539,1.8539,0,0,0,.4751.0976,2.3667,2.3667,0,0,0,.395-.0765.4864.4864,0,0,1,.387.0558.3974.3974,0,0,1,.0835.4776A.7732.7732,0,0,1,18.0775,13.3348Z"/><path class="cls-7" d="M23.2511,15.0885a8.7307,8.7307,0,0,1,3.8069-.0859"/><path class="cls-7" d="M23.1766,15.7344a9.1768,9.1768,0,0,1,3.5855.9981"/><path class="cls-7" d="M22.9573,16.4706A11.6406,11.6406,0,0,1,25.773,17.977"/><path class="cls-7" d="M10.7141,15.0885a8.73,8.73,0,0,0-3.8068-.0859"/><path class="cls-7" d="M10.7886,15.7344a9.1768,9.1768,0,0,0-3.5855.9981"/><path class="cls-7" d="M11.0079,16.4706A11.6406,11.6406,0,0,0,8.1922,17.977"/><path class="cls-8" d="M23.2339,13.07a1.1554,1.1554,0,0,1-1.96.1194"/><path class="cls-8" d="M12.5885,13.07a1.1553,1.1553,0,0,1-1.96.1194"/><path class="cls-9" d="M1.876,10.954l-.0037-.0108-.0007.0152C1.9,11.0061,1.9013,11.0048,1.876,10.954Z"/><path class="cls-9" d="M6.4209,9.9251l.001-.012-.0055.0075C6.4068,9.9617,6.4087,9.9632,6.4209,9.9251Z"/><path class="cls-10" d="M6.011,6.7625A3.2473,3.2473,0,0,0,4.29,5.8c-.1755-.0478-1.6661-.1093-1.6978-.162.2816.47.8552.5288,1.3141.7592a2.26,2.26,0,0,0-1.213.2525c.2211.0182.4517.1076.689.1063a1.9046,1.9046,0,0,0-1.0742.71,2.5148,2.5148,0,0,1,.77-.0118l.0092.0288c1.23-1.4749,2.9927-1.5152,3.3183.8318A2.2734,2.2734,0,0,0,6.011,6.7625Z"/><path class="cls-9" d="M1.575,5.6379C3.7921-1.2349,16.1924-2.1678,20.5655,4.75,16.4576,1.9689,9.4942,2.8038,6.1386,6.9568a1.817,1.817,0,0,0-.1276-.1943A3.2473,3.2473,0,0,0,4.29,5.8c-.1755-.0478-1.6661-.1093-1.6978-.162.2816.47.8552.5288,1.3141.7592a2.26,2.26,0,0,0-1.213.2525c.2211.0182.4517.1076.689.1063a1.9046,1.9046,0,0,0-1.0742.71,2.5148,2.5148,0,0,1,.77-.0118l.0092.0288a5.716,5.716,0,0,0-1.2143,3.46A8.0194,8.0194,0,0,1,1.575,5.6379Z"/><path class="cls-10" d="M20.4705,4.7549A9.5738,9.5738,0,0,1,20.7629,6.05l-4.8551-.3037A10.0319,10.0319,0,0,0,6.3269,9.9183,7.16,7.16,0,0,0,6.31,8.32a1.6761,1.6761,0,0,0-.4257-1.5439C9.392,2.5431,18.0373.9757,20.4705,4.7549Z"/><path class="cls-11" d="M5.4146,10.0246a8.3633,8.3633,0,0,0,.9659,3.5829c3.3511-6.631,12.6943-6.69,16.9151-4.7772C22.3238-.6015,5.4171,2.8407,5.4146,10.0246Z"/><path class="cls-11" d="M6.3805,13.6075a9.5621,9.5621,0,0,1,1.4064-2.0608,12.5291,12.5291,0,0,0-1.4711,1.9224C6.3377,13.5151,6.3583,13.562,6.3805,13.6075Z"/><path class="cls-11" d="M8.9547,10.4387C13.1939,7.0321,19.9006,7.2919,23.2956,8.83a7.2158,7.2158,0,0,0-.16-.9355A15.1294,15.1294,0,0,0,8.9547,10.4387Z"/><path class="cls-12" d="M11.973,4.809c-.1234.1733-.5905.0294-.3613-.1075C11.7632,4.6085,12.0433,4.71,11.973,4.809Z"/><path class="cls-12" d="M11.03,5.5315c-.048-.1683.323-.3495.3131-.1106C11.3349,5.58,11.06,5.6393,11.03,5.5315Z"/><path class="cls-12" d="M12.3188,5.14c-.02-.186.2443-.2964.2108-.05C12.5068,5.2721,12.331,5.2589,12.3188,5.14Z"/><path class="cls-12" d="M11.5366,6.1971c-.2654.0828-.3084-.3949.0321-.22C11.68,6.0379,11.7383,6.1429,11.5366,6.1971Z"/><path class="cls-12" d="M11.8185,5.8381c-.1417.1179-.3249-.1086-.1076-.1665C11.8388,5.6558,11.92,5.7591,11.8185,5.8381Z"/><path class="cls-12" d="M12.9844,4.788c-.0075.1987-.3069.0714-.2233-.07C12.8205,4.6312,12.9932,4.686,12.9844,4.788Z"/><path class="cls-12" d="M11.5022,4.4156c-.0607.1995-.5058.0736-.3357-.0723C11.28,4.2529,11.5383,4.3129,11.5022,4.4156Z"/><path class="cls-12" d="M12.7859,5.4723c-.0384-.1175.12-.243.1355-.0807C12.9322,5.5127,12.8083,5.547,12.7859,5.4723Z"/><path class="cls-12" d="M11.8233,4.3706c-.0372-.1214.2822-.2352.2735-.0709C12.09,4.42,11.8448,4.446,11.8233,4.3706Z"/><path class="cls-12" d="M11.8438,5.3529c-.0328-.1209.2229-.2334.2172-.0693C12.0565,5.4043,11.8624,5.4286,11.8438,5.3529Z"/><path class="cls-12" d="M10.86,5.089c-.0621-.1105.2016-.281.233-.12C11.1166,5.0872,10.8975,5.1581,10.86,5.089Z"/><path class="cls-12" d="M10.356,5.3779c-.06.2183-.5554.1851-.3711,0C10.1056,5.2577,10.3909,5.261,10.356,5.3779Z"/><path class="cls-12" d="M9.7784,6.0492c-.0856-.15.2267-.4152.2781-.1883C10.0958,6.0271,9.8323,6.1442,9.7784,6.0492Z"/><path class="cls-12" d="M10.8236,6.0973c-.0733-.1776.164-.3581.206-.1152C11.0625,6.1626,10.8689,6.202,10.8236,6.0973Z"/><path class="cls-12" d="M10.4526,6.5546c-.2531.1648-.41-.2861-.0245-.2208C10.5574,6.3611,10.6481,6.4446,10.4526,6.5546Z"/><path class="cls-12" d="M10.6407,6.1216c-.1058.1719-.3558-.01-.1533-.12C10.6052,5.9361,10.7194,6.0172,10.6407,6.1216Z"/><path class="cls-12" d="M10.4411,6.8981c.0362.1934-.3106.1594-.2521-.0062C10.2315,6.79,10.4256,6.7971,10.4411,6.8981Z"/><path class="cls-12" d="M9.9284,4.8562c-.0024.2029-.4455.1983-.3311.0124C9.6771,4.7549,9.9315,4.7492,9.9284,4.8562Z"/><path class="cls-12" d="M10.7166,7.0971c-.07-.1025.0693-.2717.1293-.12C10.8906,7.09,10.76,7.1625,10.7166,7.0971Z"/><path class="cls-12" d="M10.2061,4.7213c-.07-.1056.185-.3.2289-.1421C10.4671,4.6954,10.2486,4.7873,10.2061,4.7213Z"/><path class="cls-12" d="M10.5218,5.6509c-.0671-.1063.1427-.2853.1888-.1279C10.7444,5.639,10.5624,5.7178,10.5218,5.6509Z"/><path class="cls-12" d="M9.27,5.4249c-.0871-.096.1166-.3173.1879-.17C9.5114,5.3646,9.3191,5.48,9.27,5.4249Z"/><path class="cls-12" d="M9.089,6.055c-.0142.2248-.5052.2858-.3617.07C8.82,5.9864,9.0984,5.9354,9.089,6.055Z"/><path class="cls-12" d="M8.6487,6.8217c-.11-.1335.15-.4471.2427-.2345C8.9609,6.7428,8.7178,6.906,8.6487,6.8217Z"/><path class="cls-12" d="M9.7926,7.1637c-.1079-.16.0969-.3989.1912-.169C10.0537,7.1609,9.8583,7.2577,9.7926,7.1637Z"/><path class="cls-12" d="M9.4115,7.1917c-.2307.2164-.4612-.1974-.064-.2148C9.4833,6.9769,9.5916,7.0373,9.4115,7.1917Z"/><path class="cls-12" d="M9.523,6.7229c-.0751.1914-.36.0643-.1777-.0855C9.4516,6.5521,9.5776,6.5944,9.523,6.7229Z"/><path class="cls-12" d="M9.4563,7.5373c.0654.1841-.2948.227-.2591.0466C9.2238,7.4711,9.4245,7.4406,9.4563,7.5373Z"/><path class="cls-12" d="M8.5658,5.6277c.0394.197-.3842.2719-.3112.071C8.3031,5.5714,8.5472,5.5251,8.5658,5.6277Z"/><path class="cls-12" d="M9.7737,7.6738c-.0894-.0882.0282-.2891.1171-.1525C9.9572,7.6227,9.8286,7.7278,9.7737,7.6738Z"/><path class="cls-12" d="M8.7987,5.444c-.09-.0889.1048-.3251.1835-.1816C9.0406,5.3682,8.8539,5.5,8.7987,5.444Z"/><path class="cls-12" d="M9.307,6.2841c-.0881-.09.0777-.3083.158-.1654C9.5243,6.2237,9.3606,6.34,9.307,6.2841Z"/><path class="cls-12" d="M8.0438,6.2936c-.1-.08.0526-.3306.15-.1967C8.2643,6.1932,8.1022,6.3406,8.0438,6.2936Z"/><path class="cls-12" d="M7.97,6.94c.0177.2223-.4545.3559-.3467.12C7.6943,6.9107,7.9609,6.8214,7.97,6.94Z"/><path class="cls-12" d="M7.6421,7.7608c-.1266-.1186.0892-.4628.21-.2657C7.9426,7.64,7.721,7.8348,7.6421,7.7608Z"/><path class="cls-12" d="M8.8329,7.93c-.13-.141.04-.4184.17-.2049C9.097,7.8776,8.9121,8.0143,8.8329,7.93Z"/><path class="cls-12" d="M8.4526,8.021c-.2058.2489-.487-.1282-.0936-.2061C8.4955,7.7942,8.6116,7.835,8.4526,8.021Z"/><path class="cls-12" d="M8.5,7.5344c-.0492.2024-.3516.1193-.19-.0568C8.4043,7.3766,8.5368,7.3986,8.5,7.5344Z"/><path class="cls-12" d="M8.5405,8.3592c.0874.1755-.2684.2734-.2545.0867C8.2969,8.3265,8.4968,8.2679,8.5405,8.3592Z"/><path class="cls-12" d="M7.39,6.5933c.07.1884-.3339.3188-.2924.1112C7.1243,6.5721,7.3557,6.4957,7.39,6.5933Z"/><path class="cls-12" d="M8.879,8.4471c-.1019-.0745-.0084-.2983.1-.1755C9.0593,8.3622,8.94,8.491,8.879,8.4471Z"/><path class="cls-12" d="M7.5879,6.3813c-.1023-.0752.0462-.3323.1472-.2038C7.81,6.2723,7.65,6.4275,7.5879,6.3813Z"/><path class="cls-12" d="M8.2208,7.1338c-.1014-.0771.0271-.3182.1294-.19C8.4261,7.0382,8.28,7.1788,8.2208,7.1338Z"/><path class="cls-12" d="M6.9742,7.3163c-.1076-.0659.0054-.3333.12-.2133C7.1767,7.1884,7.0394,7.3564,6.9742,7.3163Z"/><path class="cls-12" d="M6.9843,7.965c.0426.2165-.4064.4083-.329.16C6.7048,7.967,6.9617,7.8493,6.9843,7.965Z"/><path class="cls-12" d="M6.7577,8.8193c-.1416-.1051.0324-.4711.1766-.29C7.0393,8.6612,6.8432,8.8821,6.7577,8.8193Z"/><path class="cls-12" d="M7.9617,8.8413c-.1449-.1224-.01-.4242.1457-.2277C8.2191,8.7533,8.0521,8.9174,7.9617,8.8413Z"/><path class="cls-12" d="M7.5933,8.98c-.1785.2705-.5-.0693-.1175-.1936C7.6077,8.7476,7.7279,8.7737,7.5933,8.98Z"/><path class="cls-12" d="M7.5834,8.49c-.026.2065-.3375.161-.1967-.0335C7.4689,8.3448,7.6042,8.35,7.5834,8.49Z"/><path class="cls-12" d="M7.7189,9.3057c.107.1649-.2325.3049-.2416.1173C7.4744,9.3042,7.6627,9.2186,7.7189,9.3057Z"/><path class="cls-12" d="M6.3661,7.69c.0923.1777-.2905.3556-.275.1446C6.1036,7.7012,6.3178,7.5959,6.3661,7.69Z"/><path class="cls-12" d="M8.0674,9.3533c-.109-.0607-.0449-.3.0788-.19C8.2352,9.2424,8.1343,9.3907,8.0674,9.3533Z"/><path class="cls-12" d="M6.5366,7.4582c-.1109-.0628-.0006-.3346.1171-.2194C6.74,7.3228,6.6024,7.4956,6.5366,7.4582Z"/><path class="cls-12" d="M7.2574,8.1266c-.1094-.0638-.0155-.3214.1036-.2057C7.4469,8.0033,7.3229,8.1647,7.2574,8.1266Z"/><path class="cls-12" d="M6.0409,8.4556c-.1139-.0522-.0324-.3307.0937-.2264C6.2282,8.3055,6.1115,8.4885,6.0409,8.4556Z"/><path class="cls-13" d="M1.3273,9.8053a2.3973,2.3973,0,0,1,3.3959,1.2081c.6248,1.6685-.29,2.8833-2.127,3.0433A2.2216,2.2216,0,0,1,.4467,10.56,2.5045,2.5045,0,0,1,1.3273,9.8053Z"/><path class="cls-14" d="M3.42,9.946c-.0619.0659-.274-.0506-.1882-.1252C3.3166,9.7359,3.459,9.9036,3.42,9.946Z"/><path class="cls-14" d="M2.9134,9.6785c-.0131.0695-.1728.0567-.1452-.0306C2.7868,9.5834,2.92,9.6344,2.9134,9.6785Z"/><path class="cls-14" d="M3.5521,10.3429c.129.0114.1438.3126.0291.2137C3.5149,10.5,3.4916,10.341,3.5521,10.3429Z"/><path class="cls-14" d="M3.98,10.6863c-.0912.0337-.2561-.1552-.13-.1888C3.9431,10.4728,4.0375,10.6644,3.98,10.6863Z"/><path class="cls-14" d="M4.2494,10.4948c.1532.2408-.1117.2968-.1345.0047C4.1049,10.3969,4.1294,10.3134,4.2494,10.4948Z"/><path class="cls-14" d="M3.9074,10.0708c.1289.0819.0636.2747-.0349.1237C3.8237,10.1056,3.8018,10.0355,3.9074,10.0708Z"/><path class="cls-14" d="M3.31,10.6439c.1051-.0251.0989.1851.0019.147A.0865.0865,0,0,1,3.31,10.6439Z"/><path class="cls-14" d="M3.6631,10.2087c-.0439.052-.2-.0193-.1313-.08C3.5815,10.0824,3.69,10.1753,3.6631,10.2087Z"/><path class="cls-14" d="M3.6,10.92c-.05.0287-.1707-.053-.0845-.0892C3.5742,10.8042,3.6484,10.8951,3.6,10.92Z"/><path class="cls-14" d="M3.8885,11.105c.12.0683.0382.3358-.04.1971C3.7947,11.2245,3.8287,11.0766,3.8885,11.105Z"/><path class="cls-14" d="M4.1346,11.5963c-.0967-.0037-.1434-.25-.0179-.2218C4.2093,11.3949,4.196,11.5983,4.1346,11.5963Z"/><path class="cls-14" d="M4.5334,10.8793c-.0686.0088-.1432-.16-.051-.1612C4.5511,10.7166,4.5774,10.8729,4.5334,10.8793Z"/><path class="cls-14" d="M4.5632,11.3143c.01.25-.238.2-.1258-.0556C4.46,11.1624,4.5208,11.1047,4.5632,11.3143Z"/><path class="cls-14" d="M4.3287,11.0281c.0932.1333-.0313.2711-.0784.0933C4.2238,11.0224,4.2677,10.9435,4.3287,11.0281Z"/><path class="cls-14" d="M4.7611,11.4945c.1057.055-.0067.3209-.0709.196C4.6515,11.6146,4.7071,11.4683,4.7611,11.4945Z"/><path class="cls-14" d="M3.5112,11.1361c-.0662.0229-.14-.0673-.0518-.0925C3.5237,11.0242,3.5515,11.1209,3.5112,11.1361Z"/><path class="cls-14" d="M4.0528,11.0358c-.0644.0263-.1522-.1139-.0633-.1363C4.0545,10.8813,4.0931,11.0182,4.0528,11.0358Z"/><path class="cls-14" d="M3.69,11.6666c-.0689.01-.123-.1352-.0315-.1316C3.7255,11.5366,3.7321,11.66,3.69,11.6666Z"/><path class="cls-14" d="M3.92,11.96c.0846.0986-.085.34-.1142.185C3.7865,12.0525,3.8753,11.9131,3.92,11.96Z"/><path class="cls-14" d="M4.0222,12.5025c-.082-.0257-.0858-.2788.0289-.2222C4.1439,12.3237,4.0888,12.5216,4.0222,12.5025Z"/><path class="cls-14" d="M4.6479,12.0651c-.0967-.0158-.13-.2625-.0016-.22C4.7534,11.8727,4.7172,12.0732,4.6479,12.0651Z"/><path class="cls-14" d="M4.4962,12.3252c-.0271.2584-.27.14-.1076-.0809C4.4447,12.1668,4.5149,12.128,4.4962,12.3252Z"/><path class="cls-14" d="M4.3632,12.0151c.0432.14-.1232.2322-.1068.0612C4.2661,11.98,4.3351,11.924,4.3632,12.0151Z"/><path class="cls-14" d="M4.6367,12.5054c.1.0827-.1018.3231-.1218.18C4.5059,12.6005,4.5934,12.4662,4.6367,12.5054Z"/><path class="cls-14" d="M3.5423,12.0189c.0978.0573-.0395.2335-.09.13C3.4209,12.088,3.492,11.9921,3.5423,12.0189Z"/><path class="cls-14" d="M4.8292,12.3838c-.07.0036-.0937-.2012-.0039-.1831C4.8921,12.2128,4.8733,12.381,4.8292,12.3838Z"/><path class="cls-14" d="M4.1,11.9434c-.0642.007-.1122-.1568-.0235-.1474C4.1454,11.8022,4.15,11.9392,4.1,11.9434Z"/><path class="cls-14" d="M3.57,12.4548c-.07-.01-.0794-.1538.0086-.1278C3.6438,12.3445,3.6136,12.46,3.57,12.4548Z"/><path class="cls-14" d="M3.7172,12.7961c.0558.1193-.1864.2967-.165.1425C3.5646,12.8468,3.688,12.7392,3.7172,12.7961Z"/><path class="cls-14" d="M3.6562,13.3439c-.072-.0493-.0081-.2966.0895-.2065C3.815,13.2018,3.7147,13.3825,3.6562,13.3439Z"/><path class="cls-14" d="M4.3875,13.103c-.094-.0434-.0659-.3006.053-.2233C4.5279,12.9366,4.45,13.1308,4.3875,13.103Z"/><path class="cls-14" d="M4.1537,13.3625c-.0722.1612-.2035.0371-.0524-.0727C4.1538,13.2508,4.2074,13.2393,4.1537,13.3625Z"/><path class="cls-14" d="M4.1275,12.9741c.001.1471-.19.1866-.12.0288C4.05,12.9152,4.1135,12.8726,4.1275,12.9741Z"/><path class="cls-14" d="M3.3379,12.744c.0761.0816-.11.2057-.1271.0946C3.2,12.7726,3.2978,12.7044,3.3379,12.744Z"/><path class="cls-14" d="M3.3847,12.6079c-.0674-.0155-.08-.1576.0057-.1251C3.454,12.5058,3.4267,12.6164,3.3847,12.6079Z"/><path class="cls-14" d="M3.8905,12.8293c-.0677-.0132-.07-.1843.0153-.15C3.9691,12.7027,3.9332,12.8367,3.8905,12.8293Z"/><path class="cls-14" d="M3.2366,13.167c-.0647-.0288-.0265-.1712.0442-.1233C3.3433,13.0826,3.2762,13.1842,3.2366,13.167Z"/><path class="cls-14" d="M2.4677,13.4086c-.0682.1446-.261.1252-.1174-.0118C2.4238,13.3171,2.5057,13.3111,2.4677,13.4086Z"/><path class="cls-14" d="M3.2752,13.5358c.0289.1352-.2576.2426-.1946.0993C3.12,13.5494,3.2617,13.471,3.2752,13.5358Z"/><path class="cls-14" d="M2.9257,13.389c.0514.1006-.17.1808-.1542.0662C2.7809,13.3859,2.8986,13.3391,2.9257,13.389Z"/><path class="cls-14" d="M3.0086,13.2637c-.0609-.0328-.0278-.1752.0453-.12C3.1083,13.1838,3.047,13.2836,3.0086,13.2637Z"/><path class="cls-14" d="M3.4338,13.6152c-.0621-.0313-.0139-.1945.0587-.1377C3.5466,13.5179,3.473,13.6343,3.4338,13.6152Z"/><path class="cls-14" d="M2.712,13.7936c-.0542-.039.009-.1844.07-.1186C2.8307,13.7239,2.7508,13.82,2.712,13.7936Z"/><path class="cls-14" d="M2.4578,13.8514c-.0557-.0424.0155-.1831.0759-.1143C2.5787,13.7876,2.4927,13.8774,2.4578,13.8514Z"/><path class="cls-14" d="M2.2174,13.7044c-.0713.0991-.1976-.0421-.049-.0783C2.22,13.6135,2.2724,13.6284,2.2174,13.7044Z"/><path class="cls-12" d="M1.4713,10.2106c.0128.1309-.2566.3144-.2073.1413C1.2917,10.2369,1.4647,10.14,1.4713,10.2106Z"/><path class="cls-12" d="M1.3217,10.791c-.0912-.051.0218-.3092.106-.2089C1.49,10.6546,1.37,10.8183,1.3217,10.791Z"/><path class="cls-12" d="M1.8207,10.4887c-.023.13-.2084.1333-.12-.0039C1.7557,10.4071,1.8379,10.3994,1.8207,10.4887Z"/><path class="cls-12" d="M1.0967,10.0985c.0529.1073-.1866.2771-.1723.1343C.936,10.1415,1.0691,10.04,1.0967,10.0985Z"/><path class="cls-12" d="M1.6336,10.2881c-.0644-.0293.0034-.206.0709-.1429C1.754,10.1915,1.6733,10.3069,1.6336,10.2881Z"/><path class="cls-12" d="M.8894,10.6574c-.0688-.0162-.0244-.2207.0534-.1681C.9977,10.5259.9325,10.6685.8894,10.6574Z"/><path class="cls-12" d="M.96,11.0729c.0544.127-.179.368-.1668.1907C.8028,11.1487.9321,11.0033.96,11.0729Z"/><path class="cls-12" d="M.971,11.6718c-.0949-.02-.0692-.304.041-.2295C1.0935,11.4959,1.0309,11.6844.971,11.6718Z"/><path class="cls-12" d="M.5721,11.0618c.0706.0875-.116.3232-.1391.1783C.4172,11.1436.5354,11.0143.5721,11.0618Z"/><path class="cls-12" d="M.6422,10.8594c-.0745-.0133-.0309-.2208.0495-.1743C.7506,10.7193.6815,10.8642.6422,10.8594Z"/><path class="cls-12" d="M1.1355,11.1073c-.0733-.0142-.046-.2.037-.1538C1.23,10.9857,1.1745,11.1141,1.1355,11.1073Z"/><path class="cls-12" d="M.514,11.67c-.077.0039-.0753-.2064.0113-.1791C.5908,11.5118.5542,11.6663.514,11.67Z"/><path class="cls-12" d="M.2561,11.4926c-.0437.174-.2238.1135-.0746-.0572C.2333,11.3766.2908,11.3575.2561,11.4926Z"/><path class="cls-12" d="M.7115,12.0517c.0932.1006-.0235.4133-.0824.2415C.589,12.1786.6594,11.9939.7115,12.0517Z"/><path class="cls-12" d="M.9483,12.6028c-.0992.0218-.1929-.25-.0542-.2231C.9762,12.4006,1.01,12.59.9483,12.6028Z"/><path class="cls-12" d="M1.1562,12.0877c.0626.11-.0811.2141-.0967.06C1.05,12.0574,1.1291,12.0087,1.1562,12.0877Z"/><path class="cls-12" d="M.3462,12.1784c.1061.0608.0065.3618-.0633.2295C.24,12.32.2918,12.1441.3462,12.1784Z"/><path class="cls-12" d="M.3459,11.9539c-.0712.0145-.0984-.21-.0081-.19C.4039,11.7777.39,11.9464.3459,11.9539Z"/><path class="cls-12" d="M.8913,12.0261c-.0707.0117-.1026-.1739-.0122-.1561C.9455,11.8829.9354,12.02.8913,12.0261Z"/><path class="cls-12" d="M.5323,12.79c-.0631.0364-.16-.1667-.0678-.1754C.5317,12.6083.5714,12.7686.5323,12.79Z"/></g></g></g></g></g></svg>