<svg xmlns="http://www.w3.org/2000/svg" width="36.1819" height="40.613" viewBox="0 0 36.1819 40.613"><defs><style>.cls-1{isolation:isolate;}.cls-11,.cls-13,.cls-14,.cls-2{mix-blend-mode:multiply;}.cls-3{fill:#00beb9;}.cls-4{fill:#3ba091;}.cls-5{fill:#00cec1;}.cls-6{fill:#e8d5a8;}.cls-7{fill:#ac9058;}.cls-8{fill:#fff;}.cls-11,.cls-9{fill:#fb4751;}.cls-10{fill:#2f292b;}.cls-12{fill:#c0a975;}.cls-13{fill:#a4a6a8;opacity:0.58;}.cls-14{fill:#9f9f9f;opacity:0.61;}.cls-15{fill:#fab351;}.cls-16{fill:#231e20;}.cls-17{fill:#fe6c6b;}.cls-18{fill:#a4d15a;}.cls-19{fill:#6296c3;}.cls-20{fill:#f1473e;}</style></defs><g class="cls-1"><g id="Layer_2" data-name="Layer 2"><g id="Layer_1-2" data-name="Layer 1"><g id="New_Symbol" data-name="New Symbol" class="cls-2"><g id="New_Symbol_10" data-name="New Symbol 10"><path class="cls-3" d="M28.3675,27.7189c-.0967-.1494-6.9428,1.0384-9.6463.64a58.648,58.648,0,0,0-9.4012,0S5.8983,35.3563,5.6186,40.613H32.8141C32.7922,38.808,29.8288,29.9781,28.3675,27.7189Z"/><path class="cls-4" d="M8.5052,29.19c6.6709,3.1708,16.0138,3.1708,21.24-.3612.5167-.3492-1.1119-6.3558-2.4955-8.3523-.0832-.12-5.983.8352-8.3129.5151a54.1348,54.1348,0,0,0-8.1017,0A15.4263,15.4263,0,0,0,8.5052,29.19Z"/><path class="cls-3" d="M21.9794,1.35c.8607-.1946,1.1381.2045.6542.939.87.1373.9793.61.257,1.1153.7545.4616.6733.9578-.2017,1.1694.5041.7445.23,1.1651-.6366.999.1945.8608-.2046,1.1382-.9391.6542-.136.867-.6087.9761-1.1153.2571-.3378.5541-.6957.659-.9453.3236a1.38,1.38,0,0,1-.2241-.5254,1.3818,1.3818,0,0,1-.507.2352.4138.4138,0,0,1-.1708.0123c-.2956-.0253-.423-.3355-.3212-.884-.8607.1945-1.1348-.2033-.6542-.9391-.867-.136-.976-.6087-.2538-1.114-.7545-.4616-.6732-.9578.2018-1.1694-.5074-.7457-.23-1.1651.6366-.9991-.1946-.8607.2045-1.1381.939-.6542a1.0284,1.0284,0,0,1,.2959-.6686c.1933-.1467.4542-.0521.73.2935a1.239,1.239,0,0,1,.09.1182c.029-.0453.058-.09.0845-.1292.4353-.61.8815-.4881,1.0817.33C21.7281.2107,22.1454.4837,21.9794,1.35Z"/><path class="cls-5" d="M20.2167,1.2668c.864-.1933,1.1381.2046.6542.939.87.1373.9793.61.257,1.1153.7545.4617.6733.9578-.2017,1.1694.5041.7445.23,1.165-.6366.9991.1946.8607-.2046,1.1381-.9391.6542a.997.997,0,0,1-.2979.664c-.1932.1468-.4521.0567-.7311-.29-.027-.037-.0572-.0753-.0863-.1168-.029.0452-.058.09-.0845.1291-.2956-.0253-.423-.3355-.3212-.884-.8607.1945-1.1348-.2033-.6542-.9391-.867-.136-.976-.6087-.2538-1.114-.7545-.4616-.6732-.9578.2018-1.1694-.5074-.7457-.23-1.1651.6366-.9991-.1946-.8607.2045-1.1381.939-.6542a1.0284,1.0284,0,0,1,.2959-.6686A1.541,1.541,0,0,1,19.2177.63a1.5325,1.5325,0,0,1,.507-.2352.46.46,0,0,1,.174-.011C20.1943.4094,20.3217.72,20.2167,1.2668Z"/><path class="cls-6" d="M30.6924,23.5144c-.6144-6.3493-3.4189-16.75-11.5953-16.5674a.2219.2219,0,0,1-.0482,0h-.0427a.2114.2114,0,0,0-.0428.0031c-.0963,0-.19,0-.2834.003a7.6152,7.6152,0,0,0-3.3806.9005.2252.2252,0,0,0-.0536.0267A13.2306,13.2306,0,0,0,11.69,10.9145,24.3089,24.3089,0,0,0,7.467,23.6036a3.44,3.44,0,0,0,2.36,3.4807,27.89,27.89,0,0,0,18.5172.0382,3.4369,3.4369,0,0,0,2.3508-3.58Z"/><path class="cls-7" d="M25.2617,11.8108a11.4123,11.4123,0,0,0-3.0792-2.6084l-.018-.01a6.2162,6.2162,0,0,0-1.7076-.61l.0041-.0285A7.1037,7.1037,0,0,0,19.3094,8.46c-.051,0-.1022.0005-.1593.0016l-.04.0016-.0119.002H19.076l-.0118-.002-.04-.0016c-.057-.0011-.1082-.0016-.1592-.0016a7.1037,7.1037,0,0,0-1.1516.0934l.0041.0285a6.215,6.215,0,0,0-1.7076.6105l-.018.01a11.4123,11.4123,0,0,0-3.0792,2.6084A20.6648,20.6648,0,0,0,9.505,19.8437a2.336,2.336,0,0,0,3.3368,2.5651c2.0122-1.015,3.7288-3.0672,6.0529-3.34,2.938-.345,4.1072,2.1646,6.4375,3.34a2.336,2.336,0,0,0,3.3368-2.5651A20.6663,20.6663,0,0,0,25.2617,11.8108Z"/><path class="cls-8" d="M18.145,19.984a3.1966,3.1966,0,0,0-2.1914,2.03,1.3731,1.3731,0,0,0,.047,1.1838,1.2247,1.2247,0,0,0,1.0865.4647A2.326,2.326,0,0,0,18.89,22.5675a3.301,3.301,0,0,0,.4491-2.1047Z"/><path class="cls-8" d="M20.0248,19.984a3.1966,3.1966,0,0,1,2.1914,2.03,1.3731,1.3731,0,0,1-.047,1.1838,1.2247,1.2247,0,0,1-1.0865.4647A2.326,2.326,0,0,1,19.28,22.5675a3.3,3.3,0,0,1-.4491-2.1047Z"/><path class="cls-9" d="M20.3723,20.0651c.1383.0687-1.2112,1.1209-1.2112,1.1209L17.95,20.0651A2.6973,2.6973,0,0,1,20.3723,20.0651Z"/><path class="cls-3" d="M25.8094,17.3022a1.4935,1.4935,0,1,1-1.4935-1.4934A1.4935,1.4935,0,0,1,25.8094,17.3022Z"/><circle class="cls-10" cx="24.3159" cy="17.3022" r="0.9352"/><path class="cls-10" d="M24.851,17.3022a.5351.5351,0,1,1-.5351-.535A.535.535,0,0,1,24.851,17.3022Z"/><path class="cls-8" d="M24.5537,17.0533a.47.47,0,1,0,.47-.4695A.4694.4694,0,0,0,24.5537,17.0533Z"/><path class="cls-3" d="M15.4173,17.3022a1.4935,1.4935,0,1,1-1.4934-1.4934A1.4935,1.4935,0,0,1,15.4173,17.3022Z"/><circle class="cls-10" cx="13.9239" cy="17.3022" r="0.9352"/><path class="cls-10" d="M14.4589,17.3022a.5351.5351,0,1,1-.535-.535A.535.535,0,0,1,14.4589,17.3022Z"/><path class="cls-8" d="M14.1616,17.0533a.47.47,0,1,0,.47-.4695A.4694.4694,0,0,0,14.1616,17.0533Z"/><path class="cls-9" d="M29.8921,16.6124C28.1581,10.473,24.9348,4.8768,19.2766,5.0287a.2009.2009,0,0,1-.0508,0h-.0453a.1884.1884,0,0,0-.0452.0039c-.1017,0-.201,0-.3.0038A7.0446,7.0446,0,0,0,15.263,6.177a.2258.2258,0,0,0-.0566.0338,15.03,15.03,0,0,0-3.7578,3.8432,27.2262,27.2262,0,0,0-2.6225,5.8149C15.7891,14.0194,22.9,13.57,29.8921,16.6124Z"/><path class="cls-11" d="M9.4952,14.0125q-.3608.9122-.6691,1.8564c6.963-1.85,13.8957-2.7418,21.066.7435-.2877-1.0186-.6174-2.0214-.9914-2.9863C23.6181,9.4234,14.3994,9.3269,9.4952,14.0125Z"/><path class="cls-10" d="M28.0154,13.1888a5.5923,5.5923,0,0,0-.2884-.7139A10.82,10.82,0,0,0,24.16,8.5822c-.2-.1395-.3837-.2605-.5418-.3628a12.7929,12.7929,0,0,1,4.5135-1.9486.5183.5183,0,0,1,.4675.0511.5205.5205,0,0,1,.1232.3535C28.9385,9.0007,29.0548,11.0262,28.0154,13.1888Z"/><path class="cls-12" d="M27.727,12.4749A14.3912,14.3912,0,0,0,24.16,8.5822a12.4344,12.4344,0,0,1,3.0276-1.0743.519.519,0,0,1,.4674.0511.5327.5327,0,0,1,.1233.3535A15.327,15.327,0,0,1,27.727,12.4749Z"/><path class="cls-13" d="M23.8505,8.0674c-.1173.0746-.1179.0738-.2324.152.1581.1023.3418.2233.5418.3628a14.5547,14.5547,0,0,1,3.5671,3.8927,3.8122,3.8122,0,0,1,.285.7522,3.481,3.481,0,0,0,.2914-.71A11.599,11.599,0,0,0,23.8505,8.0674Z"/><path class="cls-14" d="M8.5315,18.26s3.3761-2.9476,9.759-3.1536c5.6191-.1812,10.3025.8663,11.4848,3.1306a5.632,5.632,0,0,0,.1168-2.9635S28.15,11.3972,19.5614,11.3972c0,0-7.9127-.38-10.5273,3.7573C7.4924,17.5941,8.5315,18.26,8.5315,18.26Z"/><path class="cls-3" d="M8.25,18.5258a14.7,14.7,0,0,1,10.04-3.839c6.4955-.0269,10.3025,1.2863,11.4848,3.5506a6.2025,6.2025,0,0,0,.1168-3.3836S28.15,10.9771,19.5614,10.9771c0,0-7.9127-.38-10.5273,3.7573C7.4924,17.1741,8.25,18.5258,8.25,18.5258Z"/><path class="cls-8" d="M9.1778,16.8985c.0647.0805.1719.171.2429.1162s.0139-.1838-.0452-.268L9.07,16.31c-.0693-.099-.3772-.6338-.5111-.289-.0579.1491.251.4206.3348.5247Z"/><path class="cls-8" d="M9.9724,16.2594c.0611.1066.1644.2321.2664.1947a.1628.1628,0,0,0,.0785-.18.5732.5732,0,0,0-.0925-.2065c-.1223-.1967-.2373-.398-.3524-.5989-.09-.1566-.2174-.5487-.4124-.596a.1612.1612,0,0,0-.1793.0738c-.0491.0962.089.2468.1347.3287Z"/><path class="cls-8" d="M10.1122,13.8419a.1869.1869,0,0,0-.0684.2334,5.3211,5.3211,0,0,0,.2721.5619c.1671.3424.3344.6848.495,1.03a.5528.5528,0,0,0,.1222.19.15.15,0,0,0,.1912.024.2266.2266,0,0,0,.0437-.1878,2.4028,2.4028,0,0,0-.3427-.9054l-.3428-.62c-.0586-.106-.1063-.2519-.2185-.3114A.1669.1669,0,0,0,10.1122,13.8419Z"/><path class="cls-8" d="M11.9291,15.2462c.0416.0955.12.2074.2067.1752s.0651-.1716.03-.2687l-.4247-1.1636-.2083-.5755c-.0524-.1439-.0782-.3652-.206-.4633-.0855-.0652-.1444-.0343-.2359.0011a.1454.1454,0,0,0-.0831.19Z"/><path class="cls-8" d="M12.8426,14.7576c.0332.1192.1018.2636.2128.2537a.1589.1589,0,0,0,.1237-.1538.5674.5674,0,0,0-.04-.2232c-.15-.4622-.4673-1.6371-.5771-2.048-.0366-.1381-.2548-.1242-.3011.0061a.2191.2191,0,0,0-.0022.11c.0276.1638.1086.3021.15.4592l.1438.5373Z"/><path class="cls-8" d="M13.4941,12.1837l-.0241.0056a.1408.1408,0,0,0-.11.1686c.0989.4076.3784,1.6388.4843,2.1578a.5434.5434,0,0,0,.0753.2128.1577.1577,0,0,0,.184.0682.2191.2191,0,0,0,.0877-.1728,2.373,2.373,0,0,0-.1287-.9606L13.6683,12.28A.1446.1446,0,0,0,13.4941,12.1837Z"/><path class="cls-8" d="M15.0445,14.3517c.02.1013.0743.2314.1665.2165s.1016-.1555.0875-.2579l-.1679-1.2276-.0815-.6067c-.0206-.1517,0-.3739-.1027-.4962-.069-.0816-.1321-.0634-.2278-.0476a.1413.1413,0,0,0-.12.1643Z"/><path class="cls-8" d="M16.0517,14.0637c.0079.1226.0463.2808.1587.293a.1631.1631,0,0,0,.1545-.1276.5622.5622,0,0,0,.0061-.227c-.0537-.4827-.13-1.6978-.1553-2.1224-.0085-.1426-.2217-.1715-.2923-.0525a.2253.2253,0,0,0-.024.1075c-.006.1654.0448.3181.0536.48l.0316.5547Z"/><path class="cls-8" d="M17.1936,11.6685l-.0244.0011a.1409.1409,0,0,0-.1381.1447c.0194.4188.059,1.68.0629,2.2092a.5362.5362,0,0,0,.0335.2237.158.158,0,0,0,.1707.1025c.0623-.0182.0979-.0886.1206-.1545a2.3456,2.3456,0,0,0,.0539-.9685l-.1282-1.4324A.142.142,0,0,0,17.1936,11.6685Z"/><path class="cls-8" d="M18.3222,14.0833c.002.1033.0333.2405.1286.241s.1293-.1367.133-.24l.0447-1.2383.0232-.6116c.0056-.1529.0631-.3677-.0162-.5066-.0531-.0918-.1173-.0844-.2126-.0846a.1417.1417,0,0,0-.1449.1421Z"/><path class="cls-8" d="M19.38,13.9681c-.0117.1223.0013.2845.1124.3133a.1671.1671,0,0,0,.1753-.1029.5488.5488,0,0,0,.0416-.2228c.0216-.4853.134-1.697.1734-2.12a.1562.1562,0,0,0-.276-.097.2279.2279,0,0,0-.04.1027c-.0317.1625-.0061.3211-.0228.4825l-.0562.553Z"/><path class="cls-8" d="M20.8656,11.769l-.0239-.0021a.141.141,0,0,0-.1552.1246c-.0407.4174-.1825,1.6716-.2554,2.1958a.5254.5254,0,0,0,.0012.2261.1593.1593,0,0,0,.1573.1248c.0654-.0094.1112-.0745.1434-.1362a2.2951,2.2951,0,0,0,.1891-.95l.0729-1.4374A.14.14,0,0,0,20.8656,11.769Z"/><path class="cls-8" d="M21.6581,14.314c-.0113.1026.0029.2426.0992.2549.0965.0138.1476-.1174.164-.22l.1971-1.2229.0981-.6042c.0244-.1511.1069-.3574.0466-.5048-.0405-.0979-.1033-.1-.1964-.1118a.1415.1415,0,0,0-.16.1236Z"/><path class="cls-8" d="M22.7372,14.3285c-.0256.12-.0307.2828.0785.3237a.1681.1681,0,0,0,.1882-.0806.5448.5448,0,0,0,.0659-.2171c.074-.48.3168-1.6728.401-2.0895a.1538.1538,0,0,0-.259-.1273.2313.2313,0,0,0-.0509.0978c-.0494.1581-.042.3183-.0766.477l-.1175.5433Z"/><path class="cls-8" d="M24.4406,12.2955l-.0231-.0046a.14.14,0,0,0-.1644.1093c-.0812.4114-.3451,1.6458-.47,2.16a.52.52,0,0,0-.0207.225.1624.1624,0,0,0,.1472.14.2221.2221,0,0,0,.1578-.12,2.2681,2.2681,0,0,0,.2783-.9285l.2074-1.4238A.1405.1405,0,0,0,24.4406,12.2955Z"/><path class="cls-8" d="M24.9957,14.9009c-.02.1013-.0183.2422.0763.2636s.157-.1051.1823-.2054l.304-1.2011.1509-.5933c.0376-.1484.1383-.347.0908-.4985-.0318-.101-.0951-.1074-.1867-.1279a.14.14,0,0,0-.17.1081Z"/><path class="cls-8" d="M26.06,15.0111c-.037.1172-.0582.2785.044.3294a.1655.1655,0,0,0,.191-.063.5563.5563,0,0,0,.0872-.2092c.1232-.47.4886-1.6308.6169-2.0362.0433-.1358-.1441-.2427-.2521-.1546a.2293.2293,0,0,0-.0608.0921c-.0651.1524-.073.3127-.1231.4672l-.1705.5291Z"/><path class="cls-8" d="M27.9938,13.1886l-.0236-.008a.1411.1411,0,0,0-.1833.0831c-.1334.3977-.5528,1.5885-.74,2.0839a.54.54,0,0,0-.05.22c.0054.0741.0508.15.1192.1564a.22.22,0,0,0,.166-.1,2.3866,2.3866,0,0,0,.4036-.8817l.4048-1.38A.1441.1441,0,0,0,27.9938,13.1886Z"/><path class="cls-8" d="M28.1365,15.849c-.0382.0959-.0637.2338.02.2689s.1653-.0753.21-.1694l.5318-1.1185c.083-.1728.3943-.6142.278-.7981-.1967-.311-.3536.0874-.4135.2384q-.1369.3452-.2738.69Q28.3129,15.4048,28.1365,15.849Z"/><path class="cls-8" d="M29.1044,16.152c-.063.1052-.1219.256-.0442.3282a.1526.1526,0,0,0,.1905-.0193.5926.5926,0,0,0,.1361-.1816c.1556-.2772.5955-.7538.5359-1.091-.0666-.3775-.4052.2834-.4618.3766Z"/><path class="cls-15" d="M22.4569,33.5643a.97.97,0,0,1-1.9093-.3248,1.145,1.145,0,0,1,1.1393-.9274A1.1494,1.1494,0,0,1,22.4569,33.5643Z"/><path class="cls-16" d="M24.7035,32.3329s-1.4748-.1042-2.9572-.37c-1.4808-.25-2.97-.5952-2.97-.5952l.0578-.2591s1.4858.3442,2.9565.5925c1.4732.2636,2.9314.3665,2.9314.3665Z"/><path class="cls-16" d="M22.1261,32.5855a1.2113,1.2113,0,0,0-.9445-.16c.0578-.318.087-.4783.1448-.7963a1.1822,1.1822,0,0,1,.9258.1572C22.2019,32.1053,22.1764,32.2663,22.1261,32.5855Z"/><path class="cls-17" d="M16.3807,32.3205a.967.967,0,0,1-1.87-.4843,1.1431,1.1431,0,0,1,1.2125-.83A1.1381,1.1381,0,0,1,16.3807,32.3205Z"/><path class="cls-16" d="M18.7766,31.3682s-1.5-.3267-2.9648-.7041c-1.4693-.369-2.8764-.8516-2.8764-.8516l.0864-.2511s1.3939.4782,2.8565.8456c1.4571.3756,2.9561.7021,2.9561.7021Z"/><path class="cls-16" d="M16.14,31.3173a1.21,1.21,0,0,0-.93-.2409l.2094-.7817a1.1928,1.1928,0,0,1,.9167.2374C16.2575,30.8456,16.2179,31.0038,16.14,31.3173Z"/><path class="cls-18" d="M10.4439,30.4177a.9811.9811,0,0,1-1.7533-.8754,1.1749,1.1749,0,0,1,1.3644-.54A1.1693,1.1693,0,0,1,10.4439,30.4177Z"/><path class="cls-16" d="M12.9354,29.8125a22.7461,22.7461,0,0,1-2.7226-1.1266,16.2532,16.2532,0,0,1-1.7209-.9851,8.03,8.03,0,0,1-.6958-.518l.1688-.205a7.7271,7.7271,0,0,0,.6757.503,16.01,16.01,0,0,0,1.6905.9675,22.5314,22.5314,0,0,0,2.6907,1.1131Z"/><path class="cls-16" d="M10.3923,29.3871a1.2192,1.2192,0,0,0-.846-.4231c.1513-.2856.2276-.43.379-.7151a1.1373,1.1373,0,0,1,.81.4053C10.5986,28.9469,10.5293,29.0945,10.3923,29.3871Z"/><path class="cls-19" d="M5.3406,26.6517a.9308.9308,0,0,1-1.3243-.61A.9356.9356,0,0,1,4.6,24.6869a1.4027,1.4027,0,0,1,1.3066.63A1.3516,1.3516,0,0,1,5.3406,26.6517Z"/><path class="cls-16" d="M7.7961,27.1828a6.8685,6.8685,0,0,1-.6168-.57A4.4045,4.4045,0,0,1,6.2366,25.19a3.15,3.15,0,0,1-.1716-1.5788,3.3609,3.3609,0,0,1,.181-.7381l.25.0885a3.1276,3.1276,0,0,0-.1685.6868,2.8859,2.8859,0,0,0,.1568,1.4466,4.1448,4.1448,0,0,0,.8867,1.3342,6.6372,6.6372,0,0,0,.5936.5485Z"/><path class="cls-16" d="M5.9006,25.7839a1.2764,1.2764,0,0,0-.3084-.8075l.7841-.2009a.7819.7819,0,0,1,.2448.6395Z"/><path class="cls-16" d="M7.7112,20.8414A4.8749,4.8749,0,0,0,6.573,22.1673a3.6876,3.6876,0,0,0-.3269.7059l.25.0885A3.4419,3.4419,0,0,1,6.803,22.3a4.6206,4.6206,0,0,1,.933-1.111l.0555-.4089C7.7652,20.801,7.737,20.8194,7.7112,20.8414Z"/><path class="cls-17" d="M31.196,20.2762a.9727.9727,0,0,0-1.0159.0458l.33,1.801a1.2756,1.2756,0,0,0,1.12-.5556A.9307.9307,0,0,0,31.196,20.2762Z"/><path class="cls-16" d="M31.7375,23.4149a11.1141,11.1141,0,0,0-1.127-.7446l.064.3486a10.4273,10.4273,0,0,1,.9023.6073,8.1048,8.1048,0,0,1,.6348.535l.1816-.1936A8.3593,8.3593,0,0,0,31.7375,23.4149Z"/><path class="cls-16" d="M30.499,22.061l.0706.3854c.0562-.0994.1122-.1984.1872-.33A1.97,1.97,0,0,1,30.499,22.061Z"/><path class="cls-18" d="M34.8059,24.6519a1.0279,1.0279,0,0,1,.7343,1.9188,1.3112,1.3112,0,0,1-1.3321-.59A1.2853,1.2853,0,0,1,34.8059,24.6519Z"/><path class="cls-16" d="M32.3931,23.9676a6.0307,6.0307,0,0,1,1.485,2.14,4.2375,4.2375,0,0,1,.299,1.67,2.9639,2.9639,0,0,1-.1049.7329l-.2571-.0669a2.7166,2.7166,0,0,0,.0969-.6756,3.9778,3.9778,0,0,0-.2816-1.5648,5.78,5.78,0,0,0-1.4188-2.0423Z"/><path class="cls-16" d="M34.2144,25.4978a1.2531,1.2531,0,0,0,.3214.8336l-.7765.2281a.9123.9123,0,0,1-.2745-.7118Z"/><path class="cls-19" d="M34.435,30.9241a1.0262,1.0262,0,0,1-1.5321,1.3636,1.285,1.285,0,0,1,.0779-1.4553A1.3,1.3,0,0,1,34.435,30.9241Z"/><path class="cls-16" d="M34.0722,28.5108a3.277,3.277,0,0,1-.2657.7012,4.5145,4.5145,0,0,1-1.0607,1.3556,6.5871,6.5871,0,0,1-2.32,1.2612l-.0808-.2529a6.3562,6.3562,0,0,0,2.2245-1.207,4.255,4.255,0,0,0,1-1.2756,3.0408,3.0408,0,0,0,.2459-.6494Z"/><path class="cls-16" d="M33.435,30.6706a1.2393,1.2393,0,0,0-.6694.5953c-.1951-.2577-.2933-.3876-.4884-.6452a.914.914,0,0,1,.5744-.511C33.0844,30.3337,33.2019,30.4466,33.435,30.6706Z"/><path class="cls-20" d="M28.7238,33.6978a.9835.9835,0,0,1-1.9586.152,1.1737,1.1737,0,0,1,.8935-1.1626C28.1588,32.6465,28.65,33.2023,28.7238,33.6978Z"/><path class="cls-16" d="M30.426,31.8288s-.3261.1107-.8419.2264a13.8227,13.8227,0,0,1-1.953.2792,19.4394,19.4394,0,0,1-2.9276-.0015l.0188-.2648a19.2,19.2,0,0,0,2.8882.0016,13.58,13.58,0,0,0,1.9158-.2736c.5032-.1129.8189-.22.8189-.22Z"/><path class="cls-16" d="M28.1437,32.8411a1.2125,1.2125,0,0,0-.94.0766c-.0167-.3227-.0251-.4855-.0415-.8082a1.12,1.12,0,0,1,.8963-.0732C28.0924,32.3577,28.11,32.52,28.1437,32.8411Z"/><path class="cls-15" d="M1.5186,29.1747a.9259.9259,0,0,1-1.361-.4125.9323.9323,0,0,1,.3709-1.3929,1.33,1.33,0,0,1,1.3975.4076A1.2847,1.2847,0,0,1,1.5186,29.1747Z"/><path class="cls-16" d="M4.0171,29.6292s-.2831-.226-.6538-.5921a6.5108,6.5108,0,0,1-1.1281-1.4324,4.09,4.09,0,0,1-.496-2.3833l.2644.0243a3.8184,3.8184,0,0,0,.4634,2.23A6.2565,6.2565,0,0,0,3.55,28.8479c.36.3557.6385.5779.6385.5779Z"/><path class="cls-16" d="M1.9859,28.2552a1.2314,1.2314,0,0,0-.4332-.7774l.739-.33a.8811.8811,0,0,1,.3673.6575Z"/><path class="cls-17" d="M.8656,22.9a.9284.9284,0,0,1-.2819-1.3838.93.93,0,0,1,1.3631-.3349,1.2475,1.2475,0,0,1,.347,1.4181A1.2715,1.2715,0,0,1,.8656,22.9Z"/><path class="cls-16" d="M1.7392,25.2214a4.4031,4.4031,0,0,1,.1381-.7885,5.7788,5.7788,0,0,1,.7155-1.6445,7.75,7.75,0,0,1,1.8515-1.9536l.1578.2134a7.5012,7.5012,0,0,0-1.785,1.8823,5.515,5.515,0,0,0-.6827,1.5684,4.1442,4.1442,0,0,0-.1308.7468Z"/><path class="cls-16" d="M1.8981,22.8835a1.2294,1.2294,0,0,0,.484-.7669c.2612.19.3933.2857.6546.4756a.9605.9605,0,0,1-.4264.6758Z"/><path class="cls-18" d="M5.4753,18.5292a.9313.9313,0,0,1,.6058-1.2336.9314.9314,0,0,1,1.2584.5469,1.1957,1.1957,0,0,1-.56,1.3531A1.2011,1.2011,0,0,1,5.4753,18.5292Z"/><path class="cls-16" d="M6.9017,19.5277a10.48,10.48,0,0,0-1.7379.8278,7.5721,7.5721,0,0,0-.7195.4792l.1579.2135a7.2831,7.2831,0,0,1,.6981-.465,10.23,10.23,0,0,1,1.6931-.8063,10.108,10.108,0,0,1,1.0213-.3187l.0826-.2935A10.68,10.68,0,0,0,6.9017,19.5277Z"/><path class="cls-16" d="M6.2773,19.1789a1.2118,1.2118,0,0,0,.8744-.3217c.0995.3075.15.4625.249.77a1.0647,1.0647,0,0,1-.8137.2994C6.4633,19.628,6.401,19.4774,6.2773,19.1789Z"/><path class="cls-15" d="M30.3288,31.8446a.9842.9842,0,0,1-1.65,1.0685,1.172,1.172,0,0,1,.2345-1.4466A1.1809,1.1809,0,0,1,30.3288,31.8446Z"/><path class="cls-16" d="M30.9358,29.3853s-.2371.256-.6377.6048a13.72,13.72,0,0,1-1.5769,1.1791,20.8282,20.8282,0,0,1-2.577,1.3866l-.1091-.2421a20.5672,20.5672,0,0,0,2.542-1.3676A13.4494,13.4494,0,0,0,30.1233,29.79c.3915-.3409.6218-.59.6218-.59Z"/><path class="cls-16" d="M29.412,31.3716a1.2215,1.2215,0,0,0-.7919.5114l-.42-.6917a1.1243,1.1243,0,0,1,.7536-.4866C29.1366,30.971,29.2288,31.1053,29.412,31.3716Z"/><path class="cls-17" d="M24.733,34.691a.9784.9784,0,0,1-1.8765.5463,1.1644,1.1644,0,0,1,.6311-1.3233A1.1627,1.1627,0,0,1,24.733,34.691Z"/><path class="cls-16" d="M26.1442,32.5558a22.3021,22.3021,0,0,1-2.7558,1.0186,22.7114,22.7114,0,0,1-2.8713.63l-.039-.2626a22.44,22.44,0,0,0,2.8358-.6225,22.0109,22.0109,0,0,0,2.7212-1.0058Z"/><path class="cls-16" d="M23.9966,33.9644a1.2313,1.2313,0,0,0-.91.2669c-.0838-.3121-.1263-.4694-.21-.7815a1.16,1.16,0,0,1,.8768-.2571C23.85,33.5008,23.8992,33.6562,23.9966,33.9644Z"/><path class="cls-18" d="M18.5779,35.8708a.9789.9789,0,0,1-1.9552.0194,1.1658,1.1658,0,0,1,.9682-1.1043A1.1674,1.1674,0,0,1,18.5779,35.8708Z"/><path class="cls-16" d="M20.5171,34.2046a21.963,21.963,0,0,1-2.9293.2275,21.084,21.084,0,0,1-2.9288-.1829l.0351-.2632a20.8069,20.8069,0,0,0,2.8916.1806,21.6957,21.6957,0,0,0,2.8924-.2246Z"/><path class="cls-16" d="M18.0668,34.976a1.22,1.22,0,0,0-.9481.0066c.0041-.3231.0065-.4861.0109-.8092a1.1477,1.1477,0,0,1,.9125-.0063C18.052,34.49,18.0569,34.653,18.0668,34.976Z"/><path class="cls-19" d="M12.3337,35.3167a.9786.9786,0,0,1-1.8823-.5268,1.167,1.167,0,0,1,1.2352-.7913A1.1669,1.1669,0,0,1,12.3337,35.3167Z"/><path class="cls-16" d="M14.659,34.2492a21.0726,21.0726,0,0,1-2.8773-.5914,21.8488,21.8488,0,0,1-2.7707-.9812l.1058-.2436a21.5567,21.5567,0,0,0,2.7363.969,20.7913,20.7913,0,0,0,2.841.584Z"/><path class="cls-16" d="M12.0914,34.3128a1.2033,1.2033,0,0,0-.9143-.253c.0936-.3093.1407-.4653.2345-.7746a1.1332,1.1332,0,0,1,.88.2436C12.212,33.8419,12.1716,34,12.0914,34.3128Z"/><path class="cls-20" d="M6.4833,33.0689a.9336.9336,0,0,1-1.32.287.9337.9337,0,0,1-.35-1.3044,1.1612,1.1612,0,0,1,1.4035-.424A1.1615,1.1615,0,0,1,6.4833,33.0689Z"/><path class="cls-16" d="M9.011,32.6766a22.9157,22.9157,0,0,1-2.6095-1.3511,22.9623,22.9623,0,0,1-2.3844-1.6963l.1709-.2034s.2628.229.7035.5517c.4288.3343,1.0333.7362,1.6481,1.1213A22.6743,22.6743,0,0,0,9.1168,32.433Z"/><path class="cls-16" d="M6.5232,32.0368a1.24,1.24,0,0,0-.81-.4939c.1743-.2721.262-.4094.4363-.6816a1.1684,1.1684,0,0,1,.7794.4754C6.7672,31.6163,6.6854,31.7573,6.5232,32.0368Z"/><path class="cls-16" d="M30.4573,20.4238l.161-.2113s-.2009-.1545-.5272-.3753l.0677.3689C30.3437,20.3367,30.4573,20.4238,30.4573,20.4238Z"/><path class="cls-19" d="M33.12,20.5794a1.0272,1.0272,0,0,1,1.0351,1.7732,1.3141,1.3141,0,0,1-1.4084-.3656A1.2815,1.2815,0,0,1,33.12,20.5794Z"/><path class="cls-16" d="M30.6182,20.2125s.2855.2082.6656.5557a6.2636,6.2636,0,0,1,1.1588,1.3989,4.7636,4.7636,0,0,1,.64,2.4225l-.2654-.001a4.5,4.5,0,0,0-.603-2.2864,6.0055,6.0055,0,0,0-1.11-1.3388c-.3678-.3363-.6465-.54-.6465-.54Z"/><path class="cls-16" d="M32.6744,21.5094a1.2434,1.2434,0,0,0,.4543.769L32.4,22.63a.9036.9036,0,0,1-.3878-.6559Z"/><path class="cls-20" d="M34.1959,26.8185a1.0127,1.0127,0,0,1-.8367,1.8426,1.2506,1.2506,0,0,1-.5412-1.3581A1.2547,1.2547,0,0,1,34.1959,26.8185Z"/><path class="cls-16" d="M33.0826,24.59a5.5714,5.5714,0,0,1-.0651.8155,6.5045,6.5045,0,0,1-.5215,1.7513,8.2251,8.2251,0,0,1-1.56,2.2289l-.1907-.1848a7.988,7.988,0,0,0,1.5092-2.1542,6.2257,6.2257,0,0,0,.5006-1.68,5.3129,5.3129,0,0,0,.0623-.7778Z"/><path class="cls-16" d="M33.174,26.9646a1.239,1.239,0,0,0-.3763.83l-.7143-.38a.9886.9886,0,0,1,.3347-.7386Z"/><path class="cls-15" d="M8.4645,34.5527A.9795.9795,0,0,1,6.93,33.3389a1.172,1.172,0,0,1,1.4454-.2511A1.1631,1.1631,0,0,1,8.4645,34.5527Z"/><path class="cls-16" d="M11.0287,34.4969A26.0615,26.0615,0,0,1,8.5942,32.81a16.5544,16.5544,0,0,1-2.1093-1.9743l.2-.1747a16.2428,16.2428,0,0,0,2.0737,1.94,25.8127,25.8127,0,0,0,2.4094,1.6693Z"/><path class="cls-16" d="M8.6281,33.5336a1.2156,1.2156,0,0,0-.7437-.5876c.2058-.249.31-.3746.5158-.6237a1.14,1.14,0,0,1,.7147.5649C8.92,33.1453,8.8224,33.2755,8.6281,33.5336Z"/><path class="cls-17" d="M4.0786,30.0244a.9321.9321,0,0,1-1.2941-.4975.9314.9314,0,0,1,.442-1.3167,1.2241,1.2241,0,0,1,1.39.4556A1.214,1.214,0,0,1,4.0786,30.0244Z"/><path class="cls-16" d="M6.4849,30.8356a10.2643,10.2643,0,0,1-1.548-2.32,9.0678,9.0678,0,0,1-.7541-2.6488l.2633-.0338a8.823,8.823,0,0,0,.7309,2.57,10.0146,10.0146,0,0,0,1.5079,2.2585Z"/><path class="cls-16" d="M4.6438,29.1628a1.2185,1.2185,0,0,0-.39-.8349l.7491-.3058a1.0221,1.0221,0,0,1,.3555.76Z"/><path class="cls-18" d="M2.6379,23.8579a.9874.9874,0,0,1,.2086-1.9615A1.1819,1.1819,0,0,1,3.82,22.9919,1.1877,1.1877,0,0,1,2.6379,23.8579Z"/><path class="cls-16" d="M4.1828,25.8665A12.742,12.742,0,0,1,4.1713,23.03,14.14,14.14,0,0,1,4.5172,21.09c.1355-.5147.2527-.8451.2527-.8451l.2511.0864s-.1141.3217-.2467.8248a13.8453,13.8453,0,0,0-.3389,1.9015,12.4332,12.4332,0,0,0,.0107,2.7747Z"/><path class="cls-16" d="M3.5805,23.4383a1.2208,1.2208,0,0,0,.1-.9342l.8015.1113a1.1086,1.1086,0,0,1-.094.8833Z"/><path class="cls-19" d="M4.3185,17.7555a.9291.9291,0,0,1-.1211-1.4.93.93,0,0,1,1.4045-.1767,1.2753,1.2753,0,0,1,.1706,1.4482A1.2511,1.2511,0,0,1,4.3185,17.7555Z"/><path class="cls-16" d="M4.77,20.2453a8.1863,8.1863,0,0,1,1.2779-2.3959,5.6316,5.6316,0,0,1,2.0479-1.5781l.11.2417a5.1981,5.1981,0,0,0-1.9512,1.5031A7.95,7.95,0,0,0,5.021,20.3317Z"/><path class="cls-16" d="M5.344,17.8644a1.2245,1.2245,0,0,0,.5707-.7027c.2365.22.3558.3311.5926.5512a.95.95,0,0,1-.5014.6171C5.7415,18.1441,5.6081,18.05,5.344,17.8644Z"/><path class="cls-16" d="M8.0957,16.2713l.11.2417.0256-.0118.1266-.342C8.1939,16.2254,8.0957,16.2713,8.0957,16.2713Z"/><path class="cls-15" d="M32.9706,27.5253a.9945.9945,0,0,1-.2933,1.9651,1.2038,1.2038,0,0,1-.9182-1.14A1.2037,1.2037,0,0,1,32.9706,27.5253Z"/><path class="cls-16" d="M31.46,25.4913a11.13,11.13,0,0,1-.0511,2.8073,11.5083,11.5083,0,0,1-.7637,2.7089l-.2441-.104a11.2411,11.2411,0,0,0,.7453-2.6438,10.8644,10.8644,0,0,0,.05-2.7379Z"/><path class="cls-16" d="M32.0149,27.9174a1.2238,1.2238,0,0,0-.1375.9213l-.7953-.1506a1.0757,1.0757,0,0,1,.1282-.8569Z"/><path class="cls-17" d="M30.9566,33.5235a.9959.9959,0,0,1-1.2282,1.5652.9978.9978,0,1,1,1.2282-1.5652Z"/><path class="cls-16" d="M30.6453,31.0075A11.0182,11.0182,0,0,1,29.22,33.4227a11.248,11.248,0,0,1-2.01,1.9647l-.16-.2122a10.98,10.98,0,0,0,1.9611-1.9168,10.7477,10.7477,0,0,0,1.39-2.3549Z"/><path class="cls-16" d="M29.9332,33.3926a1.226,1.226,0,0,0-.5741.7314l-.6145-.5266a1.0682,1.0682,0,0,1,.5322-.6781Z"/><path class="cls-18" d="M26.2247,37.7248a.9951.9951,0,0,1-1.841.75,1.2061,1.2061,0,0,1,.5134-1.3707A1.2034,1.2034,0,0,1,26.2247,37.7248Z"/><path class="cls-16" d="M27.21,35.3874a11.3977,11.3977,0,0,1-2.447,1.39,10.9474,10.9474,0,0,1-2.7178.7079l-.0339-.2634a10.68,10.68,0,0,0,2.6512-.69A11.1274,11.1274,0,0,0,27.05,35.1752Z"/><path class="cls-16" d="M25.4,37.1035a1.2234,1.2234,0,0,0-.8616.3514c-.11-.3038-.1657-.4571-.2756-.7609a1.0715,1.0715,0,0,1,.8-.3264C25.1971,36.6615,25.2651,36.81,25.4,37.1035Z"/><path class="cls-19" d="M20.0407,39.0443a.9881.9881,0,0,1-1.964-.1975c.09-.4964.5981-1.0375,1.0919-.9791C19.663,37.9078,20.05,38.5511,20.0407,39.0443Z"/><path class="cls-16" d="M22.0451,37.4849a6.5209,6.5209,0,0,1-.8815.0794,12.663,12.663,0,0,1-1.959-.0485,16.61,16.61,0,0,1-2.8309-.574l.0753-.2546a16.3552,16.3552,0,0,0,2.7829.5644,12.39,12.39,0,0,0,1.9182.0475,6.2913,6.2913,0,0,0,.8611-.0776Z"/><path class="cls-16" d="M19.6159,38.1013a1.261,1.261,0,0,0-.9333-.0959c.0432-.32.0651-.4817.1083-.802a1.1394,1.1394,0,0,1,.88.0906C19.6492,37.6164,19.638,37.779,19.6159,38.1013Z"/><path class="cls-20" d="M13.9129,37.624a.9774.9774,0,0,1-1.7722-.8192,1.1649,1.1649,0,0,1,1.3458-.585A1.1683,1.1683,0,0,1,13.9129,37.624Z"/><path class="cls-16" d="M16.3737,36.9418a20.9222,20.9222,0,0,1-2.7384-1.043,24.6066,24.6066,0,0,1-2.6066-1.4019l.1393-.2262a24.3419,24.3419,0,0,0,2.5788,1.3871,20.6247,20.6247,0,0,0,2.7022,1.0294Z"/><path class="cls-16" d="M13.8351,36.5975a1.1923,1.1923,0,0,0-.8617-.4c.1417-.29.2131-.437.3548-.7274a1.1283,1.1283,0,0,1,.8317.3858Z"/><path class="cls-10" d="M10.6935,12.8719a5.488,5.488,0,0,1,.2825-.7,10.6035,10.6035,0,0,1,3.4958-3.8148c.1959-.1367.376-.2552.5309-.3555a12.5373,12.5373,0,0,0-4.4232-1.91.5076.5076,0,0,0-.458.05.51.51,0,0,0-.1208.3464C9.7888,8.7677,9.6748,10.7526,10.6935,12.8719Z"/><path class="cls-12" d="M10.976,12.1723a14.1023,14.1023,0,0,1,3.4958-3.8148,12.1905,12.1905,0,0,0-2.9671-1.0528.5088.5088,0,0,0-.458.05.522.522,0,0,0-.1208.3464A15.0245,15.0245,0,0,0,10.976,12.1723Z"/><path class="cls-13" d="M14.775,7.853c.1149.0732.1155.0724.2277.149-.1549.1-.335.2188-.5309.3555a14.2657,14.2657,0,0,0-3.4958,3.8148,3.736,3.736,0,0,0-.2792.7371,3.4141,3.4141,0,0,1-.2856-.6955A11.3669,11.3669,0,0,1,14.775,7.853Z"/></g></g></g></g></g></svg>