<svg xmlns="http://www.w3.org/2000/svg" width="135" height="141" viewBox="0 0 135 141"><defs><style>.cls-1{fill:#717171;}.cls-2{fill:#ff8588;}.cls-3{fill:#424242;}.cls-4{fill:#bf1a1e;}.cls-5{fill:#df3438;}.cls-6{fill:#ff3b40;}</style></defs><g id="Layer_2" data-name="Layer 2"><g id="Layer_1-2" data-name="Layer 1"><path class="cls-1" d="M10.96,40.4C16.6272,55.969,26.7417,60.196,36.0833,56.7959s14.3728-13.14,8.706-28.709S17.6117-2.726,15.5621.4144,5.2936,24.83,10.96,40.4Z"/><path class="cls-2" d="M14.6292,2.2105C11.7908,8.4215,5.9507,26.6358,10.96,40.4c4.7289,12.9926,12.5554,18.0646,20.4451,17.4188,4.924-5.4807,6.1789-15.3975.9765-29.6911C28.9434,18.68,21.4858,9.0546,14.6292,2.2105Z"/><path class="cls-1" d="M124.04,40.4C118.3728,55.969,108.2583,60.196,98.9167,56.7959s-14.3728-13.14-8.706-28.709S117.3883-2.726,119.4379.4144,129.7064,24.83,124.04,40.4Z"/><path class="cls-2" d="M120.3708,2.2105c2.8384,6.211,8.6785,24.4253,3.6688,38.1892-4.7289,12.9926-12.5554,18.0646-20.4451,17.4188-4.924-5.4807-6.1789-15.3975-.9765-29.6911C106.0566,18.68,113.5142,9.0546,120.3708,2.2105Z"/><path class="cls-1" d="M124.4963,51C124.84,76.8269,101.3413,94.7585,67.5,94.4965,33.6587,94.7586,10.16,76.8268,10.5037,51,10.1589,25.0493,33,6,67.5,6S124.8411,25.049,124.4963,51Z"/><path class="cls-3" d="M61.5,73.7512a6.7573,6.7573,0,0,1-6.75-6.75.75.75,0,0,1,1.5,0,5.25,5.25,0,0,0,10.5,0,.75.75,0,1,1,1.5,0A6.7573,6.7573,0,0,1,61.5,73.7512Z"/><path class="cls-3" d="M73.5,73.7512a6.7573,6.7573,0,0,1-6.75-6.75.75.75,0,1,1,1.5,0,5.25,5.25,0,0,0,10.5,0,.75.75,0,1,1,1.5,0A6.7573,6.7573,0,0,1,73.5,73.7512Z"/><path class="cls-3" d="M67.5,69.2512a.75.75,0,0,1-.75-.75v-9a.75.75,0,0,1,1.5,0v9A.75.75,0,0,1,67.5,69.2512Z"/><path class="cls-2" d="M60,56.501c0,3.3137,3.3579,6,7.5,6s7.5-2.6863,7.5-6c0-3.0824-3.3579-3-7.5-3S60,53.1873,60,56.501Z"/><path class="cls-4" d="M67.5,82.4026c-24.7868-.0048-43.3376-6.4963-52.4065-11.0674a1.4965,1.4965,0,0,0-2.1132.9265,79.0733,79.0733,0,0,0-2.2781,31.9695,1.5013,1.5013,0,0,0,.9174,1.1956C23.1322,110.1519,43.4645,117.0159,67.5,117c10.9558-.0249,30.7623-1.3079,55.8548-11.5641a1.544,1.544,0,0,0,.9439-1.2112A79.0709,79.0709,0,0,0,122.01,72.2279a1.5043,1.5043,0,0,0-2.1195-.9156C100.263,80.9613,78.4532,82.432,67.5,82.4026Z"/><path class="cls-5" d="M67.5,113.25a.75.75,0,0,1-.75-.75V87a.75.75,0,0,1,1.5,0v25.5A.75.75,0,0,1,67.5,113.25Z"/><path class="cls-5" d="M57.8994,113.25a.75.75,0,0,1-.7258-.5647c-.4263-1.6714-.4314-23.8938-.0059-25.845a.75.75,0,0,1,1.4656.3194c-.3875,1.7761-.3926,23.64-.0066,25.155a.75.75,0,0,1-.5413.9119A.74.74,0,0,1,57.8994,113.25Z"/><path class="cls-5" d="M48.3,111.9375a.75.75,0,0,1-.7259-.5647c-.8247-3.2314-.8291-22.0723-.0058-25.845a.75.75,0,0,1,1.4655.3194c-.7749,3.5522-.7792,22.125-.0065,25.155a.75.75,0,0,1-.5413.9119A.7408.7408,0,0,1,48.3,111.9375Z"/><path class="cls-5" d="M38.699,110.625a.75.75,0,0,1-.7259-.5647c-1.3117-5.1475-1.1315-20.6807-.0065-25.845a.75.75,0,1,1,1.4663.3194c-1.1609,5.3276-1.1646,20.6089-.0066,25.155a.7493.7493,0,0,1-.5413.9119A.74.74,0,0,1,38.699,110.625Z"/><path class="cls-5" d="M29.0991,108.75a.75.75,0,0,1-.7258-.5647c-1.6194-6.3523-1.6223-18.43-.0066-25.845a.75.75,0,1,1,1.4663.3194c-1.5762,7.23-1.5784,18.9858-.0066,25.155a.7493.7493,0,0,1-.5412.9119A.7416.7416,0,0,1,29.0991,108.75Z"/><path class="cls-5" d="M19.4993,105a.75.75,0,0,1-.7259-.5647,55.945,55.945,0,0,1-.0066-25.845.75.75,0,1,1,1.4664.3194,54.4462,54.4462,0,0,0-.0066,25.155.7493.7493,0,0,1-.5413.9119A.7408.7408,0,0,1,19.4993,105Z"/><path class="cls-5" d="M77.1006,113.25a.74.74,0,0,1-.186-.0234.75.75,0,0,1-.5413-.9119c.386-1.5154.3809-23.3789-.0066-25.155a.75.75,0,0,1,1.4656-.3194c.4255,1.9512.42,24.1736-.0059,25.845A.75.75,0,0,1,77.1006,113.25Z"/><path class="cls-5" d="M86.7,111.9375a.7408.7408,0,0,1-.186-.0234.75.75,0,0,1-.5413-.9119c.7727-3.03.7684-21.6028-.0065-25.155a.75.75,0,0,1,1.4655-.3194c.8233,3.7727.8189,22.6136-.0058,25.845A.75.75,0,0,1,86.7,111.9375Z"/><path class="cls-5" d="M96.301,110.625a.74.74,0,0,1-.186-.0234.7493.7493,0,0,1-.5413-.9119c1.158-4.5461,1.1543-19.8274-.0066-25.155a.75.75,0,1,1,1.4663-.3194c1.125,5.1643,1.3052,20.6975-.0065,25.845A.75.75,0,0,1,96.301,110.625Z"/><path class="cls-5" d="M105.9009,108.75a.7416.7416,0,0,1-.1861-.0234.7493.7493,0,0,1-.5412-.9119c1.5718-6.1692,1.57-17.9246-.0066-25.155a.75.75,0,1,1,1.4663-.3194c1.6157,7.4151,1.6128,19.4927-.0066,25.845A.75.75,0,0,1,105.9009,108.75Z"/><path class="cls-5" d="M115.5007,105a.7408.7408,0,0,1-.186-.0234.7493.7493,0,0,1-.5413-.9119,54.4462,54.4462,0,0,0-.0066-25.155.75.75,0,0,1,1.4664-.3194,55.945,55.945,0,0,1-.0066,25.845A.75.75,0,0,1,115.5007,105Z"/><path class="cls-6" d="M103.3476,136.5S97.5,141,84,141s-18.1524-4.5-18.1524-4.5c2.4283-3.4263,11.2046-16.6726,9-34.5-1.345-10.8757-6.1813-15.6422-9-19.5C76.5,78,84,76.5,94.3476,79.5a35.0521,35.0521,0,0,1,9,9C116.5019,107.7547,104.6738,133.6988,103.3476,136.5Z"/><circle class="cls-3" cx="46.5" cy="48" r="4.5"/><circle class="cls-3" cx="88.5" cy="48" r="4.5"/><path class="cls-3" d="M41.0961,60.4245A70.5373,70.5373,0,0,0,20.5,57.01,69.3705,69.3705,0,0,0,0,59.7706a68.6452,68.6452,0,0,1,40.22,3.1063,1.3028,1.3028,0,1,0,.9547-2.4244C41.15,60.4428,41.1207,60.4326,41.0961,60.4245Z"/><path class="cls-3" d="M40.6567,67.2949A54.4653,54.4653,0,0,0,10.5,78a53.1827,53.1827,0,0,1,30.1715-8.1457,1.2808,1.2808,0,1,0,.0954-2.56c-.0335-.0013-.0666-.0012-.0995,0Z"/><path class="cls-3" d="M93.9039,60.43A70.534,70.534,0,0,1,114.5,57.0146a69.3672,69.3672,0,0,1,20.5,2.761,68.6474,68.6474,0,0,0-40.2195,3.1063,1.3028,1.3028,0,1,1-.9547-2.4244C93.85,60.4478,93.8793,60.4376,93.9039,60.43Z"/><path class="cls-3" d="M94.3433,67.2951A54.4653,54.4653,0,0,1,124.5,78a53.1827,53.1827,0,0,0-30.1715-8.1457,1.2808,1.2808,0,0,1-.0954-2.56c.0335-.0012.0666-.0011.1,0Z"/></g></g></svg>