<svg xmlns="http://www.w3.org/2000/svg" width="28.3789" height="36.868" viewBox="0 0 28.3789 36.868"><defs><style>.cls-1{isolation:isolate;}.cls-14,.cls-2{mix-blend-mode:multiply;}.cls-3{fill:#fbedcd;}.cls-4{fill:#f6a4a2;}.cls-5{fill:#f08b88;}.cls-6{fill:#efddaf;}.cls-11,.cls-7{fill:none;stroke-linecap:round;stroke-miterlimit:10;}.cls-7{stroke:#2f292b;stroke-width:0.2313px;}.cls-8{fill:#2f292b;}.cls-9{fill:#00beb9;}.cls-10{fill:#fff;}.cls-11{stroke:#efddaf;stroke-width:0.2629px;}.cls-12{fill:#ce2a1b;}.cls-13{fill:#42958f;}.cls-14{opacity:0.55;}.cls-15{fill:#929491;}.cls-16{fill:#fb4751;}.cls-17{fill:#00d1c8;}.cls-18{fill:#d35555;}</style></defs><g class="cls-1"><g id="Layer_2" data-name="Layer 2"><g id="Layer_1-2" data-name="Layer 1"><g id="New_Symbol" data-name="New Symbol" class="cls-2"><g id="New_Symbol_10" data-name="New Symbol 10"><g id="New_Symbol_10-2" data-name="New Symbol 10"><path class="cls-3" d="M23.5079,13.1417c-.1083.1243-.2187.2441-.3336.3661l-2.8368-6.224L19.0081,4.3726S23.6461.3648,28.2577,0l.0032.0121C28.3148.3052,29.4341,6.6136,23.5079,13.1417Z"/><path class="cls-4" d="M23.5079,13.1417l-3.17-5.8579c1.221-2.0011,4.64-6.3879,7.92-7.2838l.0032.0121C28.3148.3052,29.4341,6.6136,23.5079,13.1417Z"/><path class="cls-5" d="M20.3375,7.2838,22.68,11.6116C22.6711,7.6189,23.6878,3.6249,26.4156.8321A21.812,21.812,0,0,0,20.3375,7.2838Z"/><path class="cls-3" d="M4.8709,13.1417c.1083.1243.2187.2441.3336.3661l2.8368-6.224L9.3707,4.3726S4.7327.3648.1211,0L.1179.0121C.064.3052-1.0553,6.6136,4.8709,13.1417Z"/><path class="cls-4" d="M4.8709,13.1417l3.17-5.8579C6.82,5.2827,3.401.8959.1211,0L.1179.0121C.064.3052-1.0553,6.6136,4.8709,13.1417Z"/><path class="cls-5" d="M8.0413,7.2838,5.699,11.6116C5.7077,7.6189,4.691,3.6249,1.9632.8321A21.812,21.812,0,0,1,8.0413,7.2838Z"/><path class="cls-3" d="M25.217,11.5017c0,5.8417-5.3948,9.5245-8.5207,10.8633a5.1457,5.1457,0,0,1-4.2678-.1067C9.3151,20.75,3.8307,16.8142,3.8307,11.5017c0-1.6207,1.0172-3.3033,2.4242-4.8556a11.136,11.136,0,0,1,16.538,0C24.2,8.1984,25.217,9.881,25.217,11.5017Z"/><path class="cls-6" d="M25.217,11.5017c0-1.6207-1.0172-3.3033-2.4241-4.8556-.1807-.1993-.3685-.3875-.5593-.5706a12.73,12.73,0,0,1-.0472,10.9357,24.1843,24.1843,0,0,1-2.96,3.99C22.0965,19.1375,25.217,15.9448,25.217,11.5017Z"/><path class="cls-7" d="M14.5253,16.9207a2.9516,2.9516,0,0,0,.52,2.1218,2.3641,2.3641,0,0,0,1.8224.8069"/><path class="cls-7" d="M14.5224,16.9207a2.9511,2.9511,0,0,1-.52,2.1218,2.364,2.364,0,0,1-1.8224.8069"/><path class="cls-8" d="M15.4639,16.3732c.1083.0537-.9477.8771-.9477.8771l-.9477-.8771A2.1105,2.1105,0,0,1,15.4639,16.3732Z"/><path class="cls-9" d="M22.7657,12.2006a.5407.5407,0,0,1,.2176.7436A4.0924,4.0924,0,0,1,20.62,15.0173a4.0906,4.0906,0,0,1-3.0049-.9155.54.54,0,0,1-.11-.7639A4.5419,4.5419,0,0,1,19.6906,11.7c.0651-.02.1336-.0375.2028-.0524a3.7208,3.7208,0,0,1,1.8837.1348A5.7233,5.7233,0,0,1,22.7657,12.2006Z"/><path class="cls-8" d="M21.5009,13.1537A1.0309,1.0309,0,1,1,20.47,12.1228,1.0309,1.0309,0,0,1,21.5009,13.1537Z"/><path class="cls-10" d="M19.7881,13.0907a.4937.4937,0,1,1-.5868-.3786A.4938.4938,0,0,1,19.7881,13.0907Z"/><path class="cls-9" d="M11.7908,13.457a.5406.5406,0,0,1-.1381.7623,4.0926,4.0926,0,0,1-3.0411.7965,4.09,4.09,0,0,1-2.2774-2.1635.54.54,0,0,1,.243-.7326,4.5436,4.5436,0,0,1,2.6879-.487c.0671.0114.1363.0263.2048.0439a3.7205,3.7205,0,0,1,1.6242.9636A5.7139,5.7139,0,0,1,11.7908,13.457Z"/><path class="cls-8" d="M10.2332,13.7433a1.0308,1.0308,0,1,1-.46-1.3832A1.031,1.031,0,0,1,10.2332,13.7433Z"/><path class="cls-10" d="M8.73,12.92a.4937.4937,0,1,1-.3553-.6011A.4937.4937,0,0,1,8.73,12.92Z"/><line class="cls-11" x1="14.515" y1="11.3527" x2="14.515" y2="3.6285"/><path class="cls-11" d="M10.5132,4.3507a8.3462,8.3462,0,0,1,3.0853,7.002"/><path class="cls-11" d="M8.3825,5.5261a5.9594,5.9594,0,0,1,4.0809,2.98"/><path class="cls-11" d="M18.5765,4.3507a8.3459,8.3459,0,0,0-3.0852,7.002"/><path class="cls-11" d="M20.7072,5.5261a5.9594,5.9594,0,0,0-4.0809,2.98"/><path class="cls-12" d="M9.0931,35.989A14.19,14.19,0,0,0,9.53,34.2171c-.1437-.0069-.2148-.0106-.3584-.0175-.0664.3343-.2848,1.362-.3782,1.7328C8.7,36.305,8.9257,36.3492,9.0931,35.989Z"/><path class="cls-12" d="M9.886,35.7134a6.2608,6.2608,0,0,0,.3748-1.4659c-.2185-.0093-.3276-.0135-.5461-.023-.032.3142-.1629,1.0409-.2309,1.38C9.4092,35.9776,9.7023,36.0631,9.886,35.7134Z"/><path class="cls-12" d="M10.0608,36.725c.3291-.0193.794-1.828.942-2.4508-.2588-.01-.3876-.0148-.6465-.0243C10.2645,34.828,9.5965,36.75,10.0608,36.725Z"/><path class="cls-12" d="M12.1194,36.5555c.283-.0223.7355-1.7592.8067-2.2443-.1926-.0021-.2894-.0029-.4819-.0047C12.3664,34.86,11.8417,36.5761,12.1194,36.5555Z"/><path class="cls-12" d="M12.7758,36.7268c.3486,0,.7762-1.9168.8294-2.4187-.1984.0015-.2973.0024-.4956.0036C13.064,34.8333,12.4193,36.725,12.7758,36.7268Z"/><path class="cls-12" d="M11.4926,36.2928c.1214.0019.3047-.3308.3425-.4a5.8229,5.8229,0,0,0,.4076-1.5889l-.4957-.01c-.0232-.0005-.2125,1.3853-.2251,1.4413-.0216.0976-.16.4893-.0578.55Z"/><path class="cls-12" d="M11.1679,36.1276a7.6674,7.6674,0,0,0,.4412-1.8365l-.4169-.0127c-.069.3988-.3337,1.307-.4634,1.764C10.6231,36.4145,10.98,36.4825,11.1679,36.1276Z"/><path class="cls-12" d="M14.416,34.48c-.0138.172-.054.7791-.1063,1.0254a4.9,4.9,0,0,0-.0931.5963c-.0267.3232.36.2793.4435-.0894a5.8983,5.8983,0,0,0,.0754-.659,3.1659,3.1659,0,0,0-.0376-.88c-.0077-.0053-.1735-.2142-.266-.2057C14.4266,34.3527,14.4234,34.3951,14.416,34.48Z"/><path class="cls-12" d="M14.2843,34.2872c-.22.0076-.33.0113-.55.0193-.0255.5189-.6778,2.597-.316,2.561.2023-.02.5758-.7357.7148-1.3437.0524-.2277.1047-.8334.128-1.0253C14.2719,34.4075,14.2785,34.3335,14.2843,34.2872Z"/><path class="cls-13" d="M15.5781,22.67a3.02,3.02,0,0,0-2.4312-.2856c-1.2308.25-.4837.055-2.0007,1.0983-1.6228,1.1163-2.1832,3.4668-2.2416,5.0742-.0711,1.9608.3309,3.8236.2487,5.82,1.94.0793,3.61.1031,5.5579.1073C14.1233,31.3051,11.7068,24.2934,15.5781,22.67Z"/><path class="cls-9" d="M6.4243,16.8123c1.1734,5.5886,11.2248,4.1721,14.7947,2.3463a3.7949,3.7949,0,0,0,2.1-2.0538c.6884,2.0617,1.0941,4.2729.5226,5.6018-.9846,2.2908-4.0449,2.989-7.5994,3.2006-3.04.1811-8.4889-.0937-10.2276-3.0491C5.0649,21.2434,6.4243,16.8123,6.4243,16.8123Z"/><g class="cls-14"><path class="cls-15" d="M9.1273,33.3147c-.05.1476-.0235.2452.0386.2894.0032-.1632.0121-.32.0222-.4732C9.1665,33.1973,9.1458,33.26,9.1273,33.3147Z"/><path class="cls-15" d="M13.0982,31.5138c-1.0586-3.8274-2.9007-8.5787,1.765-10.7811L9.0609,21.05a6.451,6.451,0,0,0-2.0226,4.7125c-.0148,1.9192.5247,3.7472.4752,5.6962H9.1051A2.9823,2.9823,0,0,0,8.912,30.97a2.9823,2.9823,0,0,1,.1931.4884h0a3.0517,3.0517,0,0,1,.1211.86c.08-.2579.1468-.4972.191-.6741.0645.0016.129.0037.1935.005-.0777.3771-.2772,1.037-.4226,1.4815-.01.1532-.019.31-.0222.4732.0939.0671.27.0089.3956-.2047a6.1592,6.1592,0,0,0,.4694-1.7412l.131.0026c-.0619.3105-.2137,1.2985-.2264,1.3458-.026.0976-.186.49-.0873.55l.0277.008c.1214.0018.3241-.3309.3653-.4a4.9343,4.9343,0,0,0,.4258-1.4953c.0664.0011.133.0024.1993.0032-.1179.63-.6473,2.1744-.3823,2.1549.2687-.0209.753-1.567.8643-2.149.0621,0,.1237.0015.1862.0021-.1058.6225-.7459,2.3174-.4089,2.3193.3279,0,.8053-1.6968.9028-2.3153l.1328.001c-.096.6471-.7492,2.4878-.4051,2.4539.2041-.02.6383-.7352.7986-1.3437.06-.2272.1222-.8328.1455-1.0248.0037-.0307.0061-.056.009-.0825.05,0,.1,0,.1513,0l-.0056.0635a9.3044,9.3044,0,0,1-.1238,1.025c-.0487.1968-.0923.41-.1188.5962-.0454.3231.3441.28.4473-.0894a4.6918,4.6918,0,0,0,.1029-.6591A4.6126,4.6126,0,0,0,13.0982,31.5138Z"/></g><path class="cls-16" d="M7.1572,33.174a11.3639,11.3639,0,0,0,.4735-1.7724c-.1436-.0069-.2153-.0106-.3589-.0174-.0634.3342-.2993,1.3619-.4113,1.7327C6.7481,33.49,6.9709,33.5343,7.1572,33.174Z"/><path class="cls-16" d="M7.9625,32.8974a5.6157,5.6157,0,0,0,.3989-1.4651c-.2185-.0093-.3284-.0143-.5469-.0233-.03.3139-.169,1.041-.25,1.38C7.4765,33.1621,7.7642,33.247,7.9625,32.8974Z"/><path class="cls-16" d="M8.0736,33.91c.3311-.0193.8855-1.8282,1.03-2.451-.2591-.01-.3878-.0146-.6468-.0241C8.3688,32.0125,7.6073,33.9344,8.0736,33.91Z"/><path class="cls-16" d="M10.1466,33.74c.2845-.0223.8118-1.7585.8805-2.2438-.1927-.0018-.29-.0026-.4822-.0047C10.47,32.0448,9.8672,33.76,10.1466,33.74Z"/><path class="cls-16" d="M10.7881,33.9119c.3485,0,.8659-1.9168.9167-2.4188l-.4946.0032C11.1671,32.0178,10.4321,33.91,10.7881,33.9119Z"/><path class="cls-16" d="M9.5386,33.4766c.1213.0021.3239-.3306.3651-.4a5.2063,5.2063,0,0,0,.44-1.5884c-.1984-.0039-.2973-.0063-.4957-.0105-.0233,0-.2354,1.385-.25,1.4411-.0258.0975-.1862.49-.0872.55Z"/><path class="cls-16" d="M9.224,33.3115A6.641,6.641,0,0,0,9.71,31.4756c-.1667-.0049-.25-.0079-.4168-.0126A16.3124,16.3124,0,0,1,8.79,33.2269C8.6635,33.599,9.0154,33.6664,9.224,33.3115Z"/><path class="cls-16" d="M12.5527,31.7036a9.325,9.325,0,0,1-.1236,1.0254,6.0607,6.0607,0,0,0-.1188.5958c-.0454.3232.3441.28.4469-.0892a5.0593,5.0593,0,0,0,.1033-.659,3.0637,3.0637,0,0,0-.02-.9211c-.0976.0174-.18-.1724-.2719-.164C12.5632,31.5764,12.56,31.619,12.5527,31.7036Z"/><path class="cls-16" d="M12.3849,31.4714c-.22.0079-.33.0122-.55.02-.023.5189-.7818,2.596-.4165,2.56.2041-.02.6385-.7352.7987-1.3437.06-.2272.1222-.8328.1454-1.0248C12.3738,31.592,12.3793,31.518,12.3849,31.4714Z"/><path class="cls-17" d="M14.7648,20.7287a3.4922,3.4922,0,0,0-2.6348-.3629c-1.2491.25-1.1369-.7418-2.833.3012A6.167,6.167,0,0,0,6.78,25.7408c-.0149,1.96.55,3.8238.4731,5.82,1.941.08,3.6549.1023,5.6022.1065C11.8639,27.8491,9.9037,22.9211,14.7648,20.7287Z"/><polygon class="cls-18" points="7.017 28.293 7.053 28.234 7.06 28.197 7.049 28.124 7.029 28.119 6.992 28.178 6.985 28.215 6.996 28.288 7.017 28.293"/><polygon class="cls-18" points="7.126 28.288 7.081 28.233 7.069 28.196 7.07 28.124 7.089 28.116 7.134 28.172 7.146 28.208 7.145 28.281 7.126 28.288"/><polygon class="cls-18" points="7.18 28.285 7.218 28.226 7.226 28.189 7.216 28.116 7.196 28.111 7.158 28.17 7.15 28.208 7.16 28.28 7.18 28.285"/><polygon class="cls-18" points="7.187 29.221 7.146 29.165 7.134 29.129 7.135 29.056 7.152 29.049 7.193 29.105 7.205 29.141 7.204 29.214 7.187 29.221"/><polygon class="cls-18" points="7.236 29.219 7.269 29.16 7.276 29.122 7.267 29.05 7.248 29.045 7.214 29.104 7.208 29.141 7.218 29.213 7.236 29.219"/><polygon class="cls-18" points="7.196 29.377 7.157 29.321 7.145 29.285 7.145 29.212 7.163 29.205 7.203 29.261 7.214 29.297 7.214 29.37 7.196 29.377"/><polygon class="cls-18" points="7.245 29.374 7.278 29.316 7.285 29.279 7.275 29.206 7.257 29.201 7.224 29.26 7.217 29.297 7.227 29.369 7.245 29.374"/><polygon class="cls-18" points="7.237 29.999 7.2 29.943 7.189 29.907 7.189 29.834 7.205 29.826 7.242 29.882 7.253 29.919 7.253 29.992 7.237 29.999"/><polygon class="cls-18" points="7.282 29.997 7.312 29.938 7.318 29.901 7.309 29.829 7.293 29.823 7.262 29.881 7.256 29.919 7.265 29.991 7.282 29.997"/><polygon class="cls-18" points="7.247 30.154 7.21 30.098 7.2 30.062 7.2 29.989 7.216 29.982 7.252 30.038 7.263 30.074 7.263 30.147 7.247 30.154"/><polygon class="cls-18" points="7.291 30.152 7.321 30.093 7.326 30.056 7.318 29.984 7.301 29.978 7.272 30.037 7.266 30.074 7.275 30.147 7.291 30.152"/><polygon class="cls-18" points="7.308 31.087 7.275 31.031 7.266 30.994 7.265 30.922 7.278 30.915 7.311 30.971 7.321 31.007 7.321 31.08 7.308 31.087"/><polygon class="cls-18" points="7.347 31.086 7.372 31.027 7.377 30.99 7.369 30.917 7.354 30.912 7.328 30.97 7.324 31.007 7.332 31.08 7.347 31.086"/><polygon class="cls-18" points="7.29 28.28 7.247 28.225 7.235 28.189 7.237 28.115 7.256 28.109 7.3 28.164 7.312 28.2 7.309 28.273 7.29 28.28"/><polygon class="cls-18" points="7.344 28.278 7.383 28.219 7.391 28.182 7.383 28.109 7.363 28.104 7.324 28.163 7.316 28.2 7.325 28.273 7.344 28.278"/><polygon class="cls-18" points="7.335 29.215 7.295 29.158 7.284 29.122 7.286 29.049 7.303 29.042 7.343 29.098 7.354 29.134 7.352 29.207 7.335 29.215"/><polygon class="cls-18" points="7.384 29.212 7.418 29.153 7.426 29.116 7.418 29.044 7.399 29.038 7.365 29.097 7.357 29.134 7.366 29.207 7.384 29.212"/><polygon class="cls-18" points="7.342 29.37 7.303 29.314 7.292 29.278 7.294 29.205 7.311 29.198 7.351 29.254 7.361 29.29 7.359 29.363 7.342 29.37"/><polygon class="cls-18" points="7.39 29.368 7.424 29.309 7.432 29.272 7.424 29.199 7.406 29.194 7.372 29.253 7.365 29.29 7.373 29.363 7.39 29.368"/><polygon class="cls-18" points="7.35 29.525 7.311 29.47 7.301 29.434 7.302 29.361 7.319 29.354 7.358 29.409 7.368 29.446 7.366 29.519 7.35 29.525"/><polygon class="cls-18" points="7.397 29.523 7.43 29.464 7.437 29.427 7.429 29.355 7.412 29.349 7.378 29.408 7.371 29.446 7.38 29.518 7.397 29.523"/><polygon class="cls-18" points="7.365 29.837 7.327 29.781 7.317 29.745 7.318 29.672 7.335 29.665 7.372 29.721 7.382 29.757 7.381 29.83 7.365 29.837"/><polygon class="cls-18" points="7.41 29.835 7.442 29.776 7.449 29.739 7.441 29.666 7.424 29.661 7.392 29.72 7.385 29.757 7.394 29.829 7.41 29.835"/><polygon class="cls-18" points="7.372 29.993 7.336 29.937 7.326 29.9 7.327 29.827 7.343 29.821 7.379 29.876 7.389 29.913 7.387 29.986 7.372 29.993"/><polygon class="cls-18" points="7.417 29.991 7.448 29.932 7.455 29.895 7.447 29.822 7.43 29.816 7.399 29.876 7.392 29.913 7.4 29.985 7.417 29.991"/><polygon class="cls-18" points="7.379 30.148 7.344 30.092 7.334 30.056 7.335 29.983 7.351 29.976 7.386 30.032 7.396 30.068 7.395 30.141 7.379 30.148"/><polygon class="cls-18" points="7.423 30.146 7.454 30.087 7.461 30.05 7.453 29.978 7.437 29.972 7.406 30.031 7.399 30.068 7.407 30.141 7.423 30.146"/><polygon class="cls-18" points="7.424 31.082 7.392 31.026 7.383 30.99 7.384 30.917 7.398 30.91 7.43 30.966 7.438 31.002 7.437 31.075 7.424 31.082"/><polygon class="cls-18" points="7.463 31.081 7.489 31.022 7.495 30.985 7.488 30.912 7.473 30.907 7.447 30.965 7.441 31.002 7.448 31.075 7.463 31.081"/><polygon class="cls-18" points="7.454 28.273 7.411 28.218 7.4 28.181 7.403 28.108 7.423 28.101 7.466 28.157 7.477 28.193 7.473 28.266 7.454 28.273"/><polygon class="cls-18" points="7.509 28.271 7.548 28.212 7.557 28.175 7.55 28.102 7.53 28.096 7.49 28.156 7.481 28.193 7.489 28.265 7.509 28.271"/><polygon class="cls-18" points="7.487 29.364 7.45 29.308 7.439 29.271 7.442 29.199 7.46 29.192 7.498 29.247 7.508 29.284 7.505 29.356 7.487 29.364"/><polygon class="cls-18" points="7.536 29.362 7.571 29.302 7.579 29.265 7.572 29.193 7.554 29.187 7.519 29.246 7.511 29.283 7.518 29.356 7.536 29.362"/><polygon class="cls-18" points="7.492 29.519 7.455 29.463 7.445 29.427 7.448 29.354 7.465 29.347 7.503 29.403 7.512 29.439 7.509 29.512 7.492 29.519"/><polygon class="cls-18" points="7.54 29.517 7.574 29.458 7.582 29.421 7.575 29.348 7.558 29.343 7.523 29.402 7.516 29.439 7.523 29.512 7.54 29.517"/><polygon class="cls-18" points="7.497 29.675 7.461 29.619 7.451 29.583 7.453 29.51 7.47 29.503 7.507 29.559 7.517 29.595 7.514 29.668 7.497 29.675"/><polygon class="cls-18" points="7.544 29.673 7.577 29.614 7.585 29.577 7.578 29.504 7.561 29.498 7.527 29.558 7.52 29.595 7.527 29.667 7.544 29.673"/><polygon class="cls-18" points="7.502 29.831 7.466 29.775 7.456 29.738 7.459 29.666 7.475 29.658 7.512 29.714 7.521 29.751 7.518 29.824 7.502 29.831"/><polygon class="cls-18" points="7.548 29.829 7.58 29.77 7.588 29.733 7.582 29.66 7.565 29.654 7.532 29.714 7.524 29.751 7.531 29.823 7.548 29.829"/><polygon class="cls-18" points="7.507 29.987 7.472 29.931 7.462 29.895 7.464 29.822 7.48 29.814 7.516 29.87 7.525 29.907 7.522 29.98 7.507 29.987"/><polygon class="cls-18" points="7.552 29.985 7.584 29.926 7.591 29.888 7.585 29.816 7.568 29.81 7.536 29.869 7.529 29.907 7.535 29.979 7.552 29.985"/><polygon class="cls-18" points="7.54 31.077 7.51 31.021 7.501 30.984 7.503 30.911 7.517 30.904 7.548 30.961 7.556 30.997 7.554 31.07 7.54 31.077"/><polygon class="cls-18" points="7.579 31.075 7.606 31.016 7.613 30.979 7.607 30.907 7.593 30.901 7.565 30.96 7.559 30.997 7.565 31.069 7.579 31.075"/><polygon class="cls-18" points="7.618 28.266 7.577 28.211 7.566 28.174 7.571 28.101 7.59 28.094 7.632 28.15 7.642 28.186 7.638 28.259 7.618 28.266"/><polygon class="cls-18" points="7.673 28.264 7.712 28.207 7.721 28.17 7.715 28.097 7.696 28.09 7.656 28.149 7.646 28.186 7.653 28.259 7.673 28.264"/><polygon class="cls-18" points="7.625 28.734 7.585 28.678 7.575 28.642 7.579 28.569 7.598 28.562 7.638 28.617 7.648 28.654 7.643 28.727 7.625 28.734"/><polygon class="cls-18" points="7.677 28.732 7.714 28.674 7.723 28.638 7.717 28.565 7.699 28.558 7.66 28.617 7.652 28.654 7.658 28.726 7.677 28.732"/><polygon class="cls-18" points="7.627 28.89 7.588 28.834 7.578 28.798 7.582 28.725 7.6 28.717 7.64 28.773 7.649 28.809 7.645 28.882 7.627 28.89"/><polygon class="cls-18" points="7.678 28.887 7.715 28.83 7.723 28.793 7.718 28.72 7.7 28.714 7.662 28.772 7.653 28.809 7.659 28.882 7.678 28.887"/><polygon class="cls-18" points="7.629 29.046 7.591 28.99 7.581 28.953 7.585 28.88 7.603 28.873 7.642 28.929 7.651 28.965 7.647 29.038 7.629 29.046"/><polygon class="cls-18" points="7.679 29.044 7.715 28.986 7.724 28.949 7.718 28.877 7.701 28.87 7.663 28.928 7.655 28.965 7.661 29.038 7.679 29.044"/><polygon class="cls-18" points="7.635 29.513 7.599 29.457 7.59 29.421 7.593 29.348 7.611 29.34 7.647 29.396 7.656 29.433 7.652 29.506 7.635 29.513"/><polygon class="cls-18" points="7.683 29.511 7.718 29.453 7.726 29.417 7.721 29.344 7.703 29.337 7.668 29.395 7.66 29.433 7.666 29.505 7.683 29.511"/><polygon class="cls-18" points="7.637 29.669 7.602 29.613 7.593 29.577 7.596 29.504 7.613 29.496 7.649 29.552 7.658 29.589 7.654 29.662 7.637 29.669"/><polygon class="cls-18" points="7.684 29.667 7.718 29.609 7.727 29.573 7.721 29.5 7.704 29.493 7.67 29.551 7.661 29.588 7.667 29.661 7.684 29.667"/><polygon class="cls-18" points="7.64 29.825 7.604 29.769 7.596 29.732 7.599 29.659 7.615 29.652 7.651 29.708 7.66 29.745 7.656 29.818 7.64 29.825"/><polygon class="cls-18" points="7.685 29.823 7.719 29.765 7.727 29.728 7.722 29.655 7.705 29.649 7.671 29.707 7.663 29.745 7.669 29.817 7.685 29.823"/><polygon class="cls-18" points="7.646 30.292 7.613 30.236 7.604 30.2 7.608 30.127 7.623 30.12 7.657 30.176 7.665 30.212 7.661 30.285 7.646 30.292"/><polygon class="cls-18" points="7.689 30.29 7.721 30.233 7.729 30.196 7.724 30.123 7.708 30.116 7.676 30.175 7.668 30.212 7.673 30.284 7.689 30.29"/><polygon class="cls-18" points="7.648 30.448 7.616 30.392 7.607 30.355 7.611 30.282 7.626 30.275 7.658 30.331 7.667 30.368 7.663 30.441 7.648 30.448"/><polygon class="cls-18" points="7.69 30.446 7.722 30.388 7.73 30.352 7.725 30.279 7.709 30.272 7.677 30.331 7.67 30.368 7.675 30.44 7.69 30.446"/><polygon class="cls-18" points="7.65 30.604 7.618 30.548 7.61 30.511 7.613 30.438 7.628 30.431 7.66 30.487 7.668 30.524 7.665 30.597 7.65 30.604"/><polygon class="cls-18" points="7.692 30.602 7.723 30.544 7.73 30.507 7.725 30.435 7.71 30.428 7.679 30.487 7.671 30.524 7.677 30.596 7.692 30.602"/><polygon class="cls-18" points="7.656 31.071 7.627 31.015 7.619 30.979 7.622 30.906 7.636 30.899 7.666 30.955 7.674 30.991 7.67 31.064 7.656 31.071"/><polygon class="cls-18" points="7.695 31.069 7.725 31.012 7.732 30.975 7.727 30.902 7.712 30.895 7.683 30.954 7.676 30.991 7.681 31.064 7.695 31.069"/><polygon class="cls-18" points="7.778 28.265 7.739 28.207 7.73 28.17 7.735 28.097 7.754 28.092 7.793 28.15 7.802 28.187 7.797 28.259 7.778 28.265"/><polygon class="cls-18" points="7.83 28.266 7.869 28.21 7.879 28.173 7.874 28.1 7.855 28.094 7.816 28.15 7.806 28.187 7.812 28.26 7.83 28.266"/><polygon class="cls-18" points="7.778 28.889 7.741 28.831 7.732 28.793 7.737 28.721 7.755 28.715 7.792 28.773 7.801 28.81 7.796 28.883 7.778 28.889"/><polygon class="cls-18" points="7.828 28.89 7.865 28.833 7.874 28.797 7.87 28.724 7.852 28.717 7.814 28.774 7.805 28.81 7.81 28.883 7.828 28.89"/><polygon class="cls-18" points="7.778 29.045 7.741 28.987 7.732 28.95 7.737 28.877 7.755 28.871 7.792 28.929 7.801 28.966 7.796 29.039 7.778 29.045"/><polygon class="cls-18" points="7.827 29.046 7.864 28.989 7.873 28.952 7.868 28.88 7.851 28.873 7.813 28.929 7.804 28.966 7.81 29.039 7.827 29.046"/><polygon class="cls-18" points="7.778 29.2 7.742 29.142 7.733 29.105 7.738 29.033 7.755 29.026 7.792 29.085 7.801 29.122 7.795 29.194 7.778 29.2"/><polygon class="cls-18" points="7.827 29.201 7.863 29.145 7.872 29.108 7.867 29.035 7.85 29.029 7.813 29.086 7.804 29.122 7.809 29.195 7.827 29.201"/><polygon class="cls-18" points="7.778 29.668 7.743 29.61 7.735 29.573 7.739 29.5 7.756 29.494 7.791 29.552 7.8 29.59 7.795 29.662 7.778 29.668"/><polygon class="cls-18" points="7.825 29.669 7.86 29.613 7.868 29.576 7.864 29.503 7.847 29.496 7.812 29.553 7.803 29.59 7.808 29.663 7.825 29.669"/><polygon class="cls-18" points="7.778 30.135 7.744 30.077 7.736 30.04 7.741 29.967 7.757 29.961 7.791 30.02 7.799 30.057 7.794 30.129 7.778 30.135"/><polygon class="cls-18" points="7.823 30.136 7.857 30.08 7.865 30.043 7.861 29.97 7.845 29.963 7.81 30.02 7.802 30.057 7.807 30.13 7.823 30.136"/><polygon class="cls-18" points="7.778 30.291 7.745 30.233 7.736 30.196 7.741 30.123 7.757 30.117 7.791 30.176 7.799 30.213 7.794 30.285 7.778 30.291"/><polygon class="cls-18" points="7.822 30.292 7.856 30.236 7.864 30.199 7.859 30.126 7.843 30.12 7.81 30.176 7.802 30.213 7.806 30.286 7.822 30.292"/><polygon class="cls-18" points="7.778 30.447 7.745 30.389 7.737 30.352 7.741 30.279 7.757 30.273 7.79 30.331 7.798 30.369 7.793 30.441 7.778 30.447"/><polygon class="cls-18" points="7.822 30.448 7.854 30.391 7.862 30.355 7.858 30.282 7.843 30.275 7.809 30.332 7.801 30.369 7.806 30.441 7.822 30.448"/><polygon class="cls-18" points="7.777 31.07 7.747 31.012 7.739 30.975 7.743 30.902 7.758 30.897 7.789 30.955 7.797 30.992 7.792 31.065 7.777 31.07"/><polygon class="cls-18" points="7.819 31.072 7.85 31.015 7.858 30.978 7.854 30.906 7.839 30.899 7.808 30.955 7.8 30.992 7.804 31.065 7.819 31.072"/><polygon class="cls-18" points="7.935 28.269 7.897 28.21 7.888 28.173 7.894 28.101 7.913 28.095 7.951 28.153 7.96 28.19 7.954 28.263 7.935 28.269"/><polygon class="cls-18" points="7.987 28.27 8.027 28.213 8.037 28.177 8.033 28.104 8.014 28.097 7.974 28.154 7.964 28.19 7.968 28.263 7.987 28.27"/><polygon class="cls-18" points="7.926 29.048 7.89 28.99 7.882 28.953 7.887 28.88 7.905 28.874 7.941 28.933 7.95 28.97 7.944 29.042 7.926 29.048"/><polygon class="cls-18" points="7.975 29.049 8.013 28.992 8.022 28.956 8.018 28.883 8 28.876 7.963 28.933 7.953 28.97 7.958 29.042 7.975 29.049"/><polygon class="cls-18" points="7.924 29.204 7.889 29.145 7.88 29.109 7.886 29.036 7.904 29.03 7.939 29.088 7.948 29.125 7.942 29.198 7.924 29.204"/><polygon class="cls-18" points="7.972 29.205 8.01 29.148 8.019 29.111 8.016 29.039 7.998 29.032 7.96 29.089 7.951 29.125 7.955 29.198 7.972 29.205"/><polygon class="cls-18" points="7.923 29.36 7.887 29.301 7.879 29.264 7.884 29.192 7.902 29.186 7.937 29.244 7.946 29.281 7.939 29.354 7.923 29.36"/><polygon class="cls-18" points="7.97 29.361 8.007 29.304 8.016 29.267 8.012 29.195 7.995 29.188 7.958 29.245 7.949 29.281 7.953 29.354 7.97 29.361"/><polygon class="cls-18" points="7.915 29.983 7.882 29.925 7.873 29.888 7.879 29.815 7.896 29.809 7.929 29.867 7.937 29.904 7.931 29.977 7.915 29.983"/><polygon class="cls-18" points="7.96 29.984 7.995 29.927 8.004 29.891 8.001 29.818 7.984 29.811 7.949 29.868 7.94 29.904 7.944 29.977 7.96 29.984"/><polygon class="cls-18" points="7.913 30.139 7.88 30.08 7.873 30.043 7.878 29.971 7.894 29.965 7.927 30.023 7.935 30.06 7.929 30.133 7.913 30.139"/><polygon class="cls-18" points="7.958 30.14 7.993 30.083 8.002 30.047 7.998 29.974 7.982 29.967 7.947 30.024 7.938 30.06 7.942 30.133 7.958 30.14"/><polygon class="cls-18" points="7.911 30.294 7.879 30.236 7.871 30.199 7.877 30.127 7.893 30.121 7.926 30.179 7.933 30.216 7.927 30.289 7.911 30.294"/><polygon class="cls-18" points="7.956 30.296 7.99 30.239 7.999 30.202 7.995 30.13 7.979 30.123 7.945 30.179 7.936 30.216 7.94 30.289 7.956 30.296"/><polygon class="cls-18" points="7.902 31.074 7.872 31.015 7.865 30.978 7.87 30.906 7.885 30.9 7.916 30.958 7.923 30.995 7.917 31.068 7.902 31.074"/><polygon class="cls-18" points="7.944 31.074 7.975 31.018 7.984 30.981 7.981 30.908 7.966 30.901 7.934 30.958 7.926 30.995 7.929 31.068 7.944 31.074"/><polygon class="cls-18" points="8.092 28.272 8.054 28.214 8.046 28.177 8.053 28.104 8.072 28.099 8.109 28.157 8.118 28.194 8.111 28.266 8.092 28.272"/><polygon class="cls-18" points="8.144 28.274 8.184 28.217 8.195 28.18 8.192 28.108 8.173 28.101 8.132 28.157 8.122 28.194 8.126 28.267 8.144 28.274"/><polygon class="cls-6" points="8.085 28.584 8.048 28.526 8.039 28.488 8.046 28.416 8.065 28.41 8.102 28.468 8.11 28.505 8.103 28.578 8.085 28.584"/><polygon class="cls-6" points="8.136 28.585 8.175 28.529 8.185 28.492 8.182 28.419 8.164 28.412 8.124 28.469 8.114 28.505 8.117 28.578 8.136 28.585"/><polygon class="cls-18" points="8.071 29.207 8.035 29.149 8.027 29.112 8.034 29.039 8.052 29.033 8.086 29.092 8.095 29.128 8.087 29.201 8.071 29.207"/><polygon class="cls-18" points="8.119 29.208 8.157 29.152 8.166 29.115 8.163 29.042 8.146 29.035 8.108 29.092 8.098 29.129 8.102 29.201 8.119 29.208"/><polygon class="cls-18" points="8.067 29.363 8.032 29.305 8.024 29.268 8.031 29.195 8.048 29.189 8.083 29.247 8.091 29.284 8.084 29.357 8.067 29.363"/><polygon class="cls-18" points="8.114 29.364 8.152 29.308 8.162 29.271 8.159 29.198 8.141 29.191 8.104 29.248 8.094 29.285 8.098 29.357 8.114 29.364"/><polygon class="cls-18" points="8.063 29.519 8.029 29.461 8.021 29.423 8.028 29.351 8.045 29.345 8.079 29.403 8.087 29.44 8.08 29.513 8.063 29.519"/><polygon class="cls-18" points="8.111 29.52 8.147 29.463 8.157 29.427 8.154 29.354 8.137 29.347 8.1 29.403 8.09 29.44 8.094 29.513 8.111 29.52"/><polygon class="cls-18" points="8.056 29.83 8.023 29.772 8.015 29.735 8.021 29.662 8.038 29.656 8.072 29.715 8.079 29.751 8.073 29.824 8.056 29.83"/><polygon class="cls-18" points="8.102 29.831 8.138 29.775 8.147 29.738 8.145 29.665 8.128 29.658 8.092 29.715 8.083 29.752 8.086 29.824 8.102 29.831"/><polygon class="cls-18" points="8.052 29.986 8.019 29.928 8.012 29.891 8.018 29.818 8.035 29.812 8.068 29.87 8.075 29.907 8.069 29.98 8.052 29.986"/><polygon class="cls-18" points="8.098 29.987 8.133 29.93 8.143 29.894 8.14 29.821 8.124 29.814 8.087 29.871 8.078 29.907 8.082 29.98 8.098 29.987"/><polygon class="cls-18" points="8.048 30.142 8.016 30.084 8.009 30.047 8.015 29.974 8.031 29.968 8.064 30.026 8.071 30.063 8.065 30.136 8.048 30.142"/><polygon class="cls-18" points="8.093 30.143 8.129 30.086 8.138 30.05 8.135 29.977 8.119 29.97 8.084 30.026 8.075 30.063 8.077 30.136 8.093 30.143"/><polygon class="cls-6" points="8.034 30.765 8.004 30.707 7.997 30.67 8.003 30.597 8.018 30.591 8.049 30.649 8.056 30.686 8.049 30.759 8.034 30.765"/><polygon class="cls-6" points="8.077 30.766 8.11 30.709 8.119 30.673 8.117 30.6 8.101 30.593 8.068 30.65 8.059 30.686 8.062 30.759 8.077 30.766"/><polygon class="cls-18" points="8.027 31.076 7.997 31.018 7.991 30.981 7.997 30.909 8.012 30.903 8.041 30.961 8.048 30.998 8.042 31.07 8.027 31.076"/><polygon class="cls-18" points="8.068 31.077 8.101 31.021 8.109 30.984 8.107 30.911 8.092 30.904 8.059 30.961 8.051 30.998 8.054 31.071 8.068 31.077"/><polygon class="cls-18" points="8.249 28.276 8.212 28.218 8.203 28.18 8.211 28.108 8.231 28.102 8.267 28.16 8.276 28.197 8.267 28.27 8.249 28.276"/><polygon class="cls-18" points="8.301 28.277 8.342 28.221 8.353 28.184 8.35 28.111 8.332 28.105 8.29 28.161 8.279 28.197 8.282 28.27 8.301 28.277"/><polygon class="cls-18" points="8.222 29.055 8.187 28.996 8.179 28.96 8.187 28.887 8.205 28.881 8.24 28.939 8.247 28.976 8.239 29.049 8.222 29.055"/><polygon class="cls-18" points="8.271 29.056 8.31 28.999 8.32 28.963 8.318 28.89 8.3 28.883 8.261 28.94 8.251 28.977 8.254 29.049 8.271 29.056"/><polygon class="cls-18" points="8.216 29.21 8.182 29.152 8.174 29.115 8.182 29.043 8.2 29.037 8.234 29.095 8.242 29.132 8.234 29.204 8.216 29.21"/><polygon class="cls-18" points="8.265 29.211 8.303 29.155 8.314 29.118 8.311 29.046 8.294 29.039 8.255 29.095 8.245 29.132 8.248 29.205 8.265 29.211"/><polygon class="cls-18" points="8.211 29.366 8.177 29.308 8.169 29.271 8.177 29.199 8.195 29.192 8.229 29.251 8.236 29.288 8.228 29.361 8.211 29.366"/><polygon class="cls-18" points="8.259 29.367 8.297 29.311 8.307 29.274 8.305 29.201 8.288 29.195 8.25 29.252 8.239 29.288 8.242 29.361 8.259 29.367"/><polygon class="cls-18" points="8.189 29.989 8.157 29.931 8.15 29.894 8.157 29.822 8.174 29.815 8.206 29.874 8.213 29.911 8.206 29.983 8.189 29.989"/><polygon class="cls-18" points="8.235 29.99 8.272 29.934 8.281 29.897 8.279 29.824 8.263 29.818 8.226 29.874 8.217 29.911 8.219 29.984 8.235 29.99"/><polygon class="cls-18" points="8.184 30.145 8.152 30.087 8.145 30.05 8.153 29.977 8.169 29.971 8.201 30.029 8.208 30.066 8.2 30.139 8.184 30.145"/><polygon class="cls-18" points="8.229 30.146 8.265 30.089 8.274 30.053 8.273 29.98 8.257 29.973 8.221 30.03 8.211 30.066 8.213 30.139 8.229 30.146"/><polygon class="cls-18" points="8.178 30.301 8.147 30.243 8.14 30.206 8.148 30.133 8.164 30.127 8.195 30.185 8.202 30.222 8.195 30.294 8.178 30.301"/><polygon class="cls-18" points="8.223 30.302 8.258 30.245 8.268 30.208 8.266 30.136 8.25 30.129 8.215 30.186 8.205 30.222 8.208 30.295 8.223 30.302"/><polygon class="cls-18" points="8.151 31.079 8.123 31.021 8.116 30.984 8.123 30.912 8.139 30.906 8.167 30.964 8.174 31.001 8.167 31.073 8.151 31.079"/><polygon class="cls-18" points="8.193 31.08 8.226 31.023 8.235 30.987 8.234 30.914 8.219 30.907 8.185 30.964 8.177 31.001 8.178 31.073 8.193 31.08"/><polygon class="cls-18" points="8.405 28.28 8.369 28.221 8.361 28.184 8.37 28.112 8.389 28.106 8.425 28.165 8.433 28.201 8.424 28.274 8.405 28.28"/><polygon class="cls-18" points="8.456 28.282 8.496 28.227 8.507 28.191 8.505 28.118 8.488 28.11 8.448 28.166 8.437 28.202 8.439 28.275 8.456 28.282"/><polygon class="cls-18" points="8.377 28.902 8.342 28.844 8.335 28.807 8.343 28.735 8.361 28.729 8.396 28.787 8.404 28.824 8.395 28.897 8.377 28.902"/><polygon class="cls-18" points="8.426 28.905 8.465 28.85 8.475 28.814 8.474 28.741 8.456 28.733 8.418 28.788 8.407 28.824 8.409 28.897 8.426 28.905"/><polygon class="cls-18" points="8.37 29.059 8.336 29 8.328 28.963 8.337 28.891 8.355 28.885 8.389 28.943 8.396 28.98 8.387 29.053 8.37 29.059"/><polygon class="cls-18" points="8.418 29.061 8.457 29.005 8.467 28.969 8.466 28.896 8.449 28.889 8.41 28.944 8.4 28.98 8.401 29.053 8.418 29.061"/><polygon class="cls-18" points="8.363 29.214 8.329 29.156 8.321 29.119 8.33 29.046 8.348 29.04 8.382 29.098 8.389 29.136 8.38 29.208 8.363 29.214"/><polygon class="cls-18" points="8.411 29.216 8.449 29.161 8.459 29.125 8.458 29.052 8.441 29.044 8.402 29.1 8.392 29.136 8.394 29.209 8.411 29.216"/><polygon class="cls-18" points="8.341 29.681 8.309 29.623 8.302 29.586 8.31 29.513 8.327 29.507 8.36 29.565 8.366 29.603 8.358 29.675 8.341 29.681"/><polygon class="cls-18" points="8.388 29.683 8.425 29.628 8.435 29.592 8.434 29.519 8.418 29.511 8.38 29.567 8.37 29.603 8.372 29.676 8.388 29.683"/><polygon class="cls-18" points="8.319 30.148 8.288 30.09 8.282 30.053 8.29 29.98 8.306 29.974 8.338 30.032 8.344 30.069 8.336 30.142 8.319 30.148"/><polygon class="cls-18" points="8.365 30.15 8.402 30.095 8.412 30.058 8.411 29.985 8.395 29.978 8.357 30.033 8.347 30.069 8.349 30.142 8.365 30.15"/><polygon class="cls-18" points="8.312 30.304 8.282 30.245 8.275 30.209 8.283 30.136 8.3 30.13 8.33 30.188 8.337 30.225 8.328 30.298 8.312 30.304"/><polygon class="cls-18" points="8.357 30.306 8.394 30.25 8.404 30.214 8.403 30.141 8.387 30.134 8.35 30.189 8.34 30.225 8.341 30.298 8.357 30.306"/><polygon class="cls-18" points="8.305 30.459 8.275 30.401 8.268 30.364 8.276 30.292 8.293 30.286 8.323 30.344 8.329 30.381 8.321 30.453 8.305 30.459"/><polygon class="cls-18" points="8.35 30.461 8.386 30.406 8.396 30.37 8.395 30.297 8.379 30.289 8.342 30.345 8.333 30.381 8.334 30.454 8.35 30.461"/><polygon class="cls-18" points="8.276 31.082 8.248 31.024 8.242 30.987 8.25 30.914 8.265 30.908 8.293 30.966 8.3 31.003 8.291 31.076 8.276 31.082"/><polygon class="cls-18" points="8.319 31.084 8.355 31.029 8.365 30.992 8.364 30.919 8.348 30.912 8.312 30.967 8.303 31.003 8.304 31.076 8.319 31.084"/><polygon class="cls-18" points="8.556 28.288 8.522 28.229 8.515 28.191 8.524 28.119 8.542 28.114 8.576 28.174 8.583 28.211 8.574 28.283 8.556 28.288"/><polygon class="cls-18" points="8.605 28.291 8.645 28.237 8.656 28.2 8.655 28.127 8.638 28.12 8.597 28.175 8.586 28.211 8.588 28.284 8.605 28.291"/><polygon class="cls-18" points="8.531 28.755 8.498 28.696 8.491 28.658 8.5 28.586 8.518 28.581 8.551 28.641 8.558 28.678 8.549 28.75 8.531 28.755"/><polygon class="cls-18" points="8.58 28.758 8.619 28.704 8.63 28.667 8.629 28.594 8.612 28.587 8.572 28.642 8.561 28.678 8.562 28.751 8.58 28.758"/><polygon class="cls-18" points="8.523 28.911 8.49 28.851 8.483 28.814 8.492 28.742 8.51 28.736 8.543 28.796 8.55 28.833 8.54 28.906 8.523 28.911"/><polygon class="cls-18" points="8.571 28.914 8.61 28.859 8.621 28.823 8.62 28.75 8.603 28.742 8.564 28.797 8.553 28.833 8.554 28.906 8.571 28.914"/><polygon class="cls-18" points="8.515 29.067 8.481 29.007 8.475 28.97 8.484 28.897 8.502 28.892 8.534 28.952 8.541 28.989 8.532 29.061 8.515 29.067"/><polygon class="cls-18" points="8.562 29.07 8.602 29.015 8.612 28.978 8.611 28.905 8.594 28.898 8.555 28.953 8.545 28.989 8.546 29.062 8.562 29.07"/><polygon class="cls-18" points="8.49 29.533 8.458 29.474 8.451 29.436 8.46 29.364 8.477 29.359 8.51 29.418 8.516 29.456 8.507 29.528 8.49 29.533"/><polygon class="cls-18" points="8.537 29.536 8.576 29.481 8.586 29.445 8.585 29.372 8.568 29.364 8.53 29.42 8.52 29.456 8.521 29.529 8.537 29.536"/><polygon class="cls-18" points="8.482 29.689 8.45 29.629 8.443 29.592 8.452 29.52 8.469 29.514 8.501 29.574 8.508 29.612 8.499 29.684 8.482 29.689"/><polygon class="cls-18" points="8.529 29.692 8.567 29.637 8.577 29.601 8.576 29.528 8.56 29.52 8.522 29.576 8.511 29.612 8.512 29.685 8.529 29.692"/><polygon class="cls-18" points="8.474 29.845 8.442 29.785 8.435 29.748 8.444 29.675 8.461 29.67 8.493 29.73 8.5 29.767 8.491 29.839 8.474 29.845"/><polygon class="cls-18" points="8.52 29.848 8.558 29.792 8.568 29.756 8.567 29.683 8.551 29.676 8.513 29.731 8.503 29.767 8.504 29.84 8.52 29.848"/><polygon class="cls-18" points="8.449 30.311 8.418 30.252 8.412 30.215 8.42 30.142 8.437 30.137 8.468 30.197 8.475 30.234 8.466 30.306 8.449 30.311"/><polygon class="cls-18" points="8.495 30.314 8.532 30.259 8.542 30.223 8.541 30.15 8.525 30.143 8.488 30.198 8.478 30.234 8.479 30.307 8.495 30.314"/><polygon class="cls-18" points="8.441 30.467 8.41 30.407 8.404 30.37 8.412 30.298 8.429 30.292 8.46 30.352 8.466 30.389 8.458 30.462 8.441 30.467"/><polygon class="cls-18" points="8.486 30.47 8.523 30.415 8.534 30.378 8.533 30.306 8.517 30.298 8.479 30.353 8.469 30.39 8.47 30.462 8.486 30.47"/><polygon class="cls-18" points="8.433 30.623 8.402 30.563 8.396 30.526 8.404 30.454 8.421 30.449 8.452 30.508 8.458 30.545 8.449 30.618 8.433 30.623"/><polygon class="cls-18" points="8.478 30.626 8.515 30.57 8.525 30.534 8.524 30.461 8.508 30.454 8.472 30.509 8.461 30.545 8.462 30.618 8.478 30.626"/><polygon class="cls-18" points="8.408 31.09 8.378 31.03 8.372 30.993 8.38 30.92 8.397 30.915 8.427 30.975 8.433 31.012 8.424 31.084 8.408 31.09"/><polygon class="cls-18" points="8.452 31.092 8.488 31.037 8.498 31.001 8.498 30.928 8.482 30.921 8.446 30.976 8.436 31.012 8.437 31.085 8.452 31.092"/><polygon class="cls-18" points="8.705 28.298 8.671 28.238 8.664 28.201 8.674 28.129 8.692 28.123 8.725 28.183 8.732 28.22 8.723 28.293 8.705 28.298"/><polygon class="cls-18" points="8.754 28.301 8.794 28.246 8.806 28.21 8.805 28.137 8.787 28.129 8.747 28.184 8.736 28.22 8.737 28.293 8.754 28.301"/><polygon class="cls-18" points="8.641 29.387 8.609 29.327 8.603 29.29 8.612 29.218 8.629 29.212 8.661 29.272 8.668 29.309 8.659 29.382 8.641 29.387"/><polygon class="cls-18" points="8.689 29.39 8.727 29.335 8.738 29.299 8.738 29.226 8.721 29.218 8.682 29.273 8.671 29.31 8.672 29.382 8.689 29.39"/><polygon class="cls-18" points="8.632 29.542 8.6 29.483 8.594 29.446 8.603 29.373 8.62 29.368 8.652 29.428 8.659 29.465 8.649 29.537 8.632 29.542"/><polygon class="cls-18" points="8.679 29.545 8.717 29.49 8.728 29.454 8.728 29.381 8.712 29.374 8.672 29.429 8.662 29.465 8.663 29.538 8.679 29.545"/><polygon class="cls-18" points="8.623 29.698 8.591 29.638 8.585 29.601 8.594 29.529 8.611 29.524 8.643 29.583 8.649 29.62 8.64 29.693 8.623 29.698"/><polygon class="cls-18" points="8.67 29.701 8.708 29.646 8.719 29.61 8.719 29.537 8.702 29.529 8.663 29.585 8.653 29.621 8.653 29.694 8.67 29.701"/><polygon class="cls-18" points="8.614 29.853 8.583 29.794 8.576 29.757 8.585 29.684 8.603 29.679 8.634 29.739 8.64 29.776 8.631 29.848 8.614 29.853"/><polygon class="cls-18" points="8.66 29.856 8.699 29.801 8.709 29.765 8.709 29.692 8.692 29.685 8.654 29.74 8.643 29.776 8.644 29.849 8.66 29.856"/><polygon class="cls-18" points="8.605 30.009 8.574 29.95 8.567 29.912 8.577 29.84 8.593 29.835 8.625 29.894 8.631 29.932 8.622 30.004 8.605 30.009"/><polygon class="cls-18" points="8.651 30.012 8.689 29.957 8.7 29.921 8.699 29.848 8.683 29.841 8.645 29.896 8.634 29.932 8.635 30.005 8.651 30.012"/><polygon class="cls-18" points="8.541 31.098 8.512 31.039 8.506 31.001 8.515 30.929 8.531 30.924 8.561 30.983 8.567 31.02 8.557 31.093 8.541 31.098"/><polygon class="cls-18" points="8.585 31.101 8.622 31.046 8.632 31.009 8.632 30.936 8.616 30.929 8.58 30.984 8.57 31.021 8.57 31.094 8.585 31.101"/><polygon class="cls-18" points="8.853 28.307 8.82 28.247 8.814 28.21 8.824 28.138 8.842 28.133 8.875 28.193 8.881 28.23 8.872 28.302 8.853 28.307"/><polygon class="cls-18" points="8.903 28.31 8.944 28.256 8.955 28.219 8.954 28.146 8.937 28.139 8.896 28.194 8.885 28.23 8.886 28.303 8.903 28.31"/><polygon class="cls-18" points="8.794 29.24 8.762 29.181 8.755 29.143 8.765 29.071 8.783 29.066 8.815 29.126 8.821 29.163 8.811 29.235 8.794 29.24"/><polygon class="cls-18" points="8.842 29.243 8.881 29.188 8.892 29.152 8.891 29.079 8.875 29.072 8.835 29.127 8.825 29.163 8.825 29.236 8.842 29.243"/><polygon class="cls-18" points="8.784 29.396 8.752 29.336 8.746 29.299 8.755 29.227 8.773 29.221 8.805 29.281 8.811 29.319 8.801 29.391 8.784 29.396"/><polygon class="cls-18" points="8.831 29.399 8.87 29.344 8.881 29.308 8.881 29.235 8.864 29.227 8.825 29.283 8.814 29.319 8.815 29.391 8.831 29.399"/><polygon class="cls-18" points="8.774 29.551 8.742 29.492 8.736 29.454 8.746 29.382 8.763 29.377 8.795 29.437 8.801 29.474 8.791 29.546 8.774 29.551"/><polygon class="cls-18" points="8.821 29.554 8.86 29.499 8.871 29.463 8.871 29.39 8.854 29.383 8.815 29.438 8.804 29.474 8.804 29.547 8.821 29.554"/><polygon class="cls-18" points="8.754 29.862 8.723 29.803 8.717 29.766 8.726 29.693 8.743 29.688 8.775 29.748 8.781 29.785 8.771 29.857 8.754 29.862"/><polygon class="cls-18" points="8.8 29.865 8.839 29.81 8.85 29.774 8.85 29.701 8.834 29.694 8.795 29.749 8.784 29.785 8.784 29.858 8.8 29.865"/><polygon class="cls-18" points="8.744 30.018 8.713 29.959 8.707 29.921 8.717 29.849 8.734 29.844 8.765 29.903 8.77 29.941 8.761 30.013 8.744 30.018"/><polygon class="cls-18" points="8.79 30.021 8.828 29.966 8.839 29.93 8.839 29.857 8.823 29.849 8.785 29.905 8.774 29.941 8.774 30.014 8.79 30.021"/><polygon class="cls-18" points="8.734 30.173 8.704 30.114 8.697 30.077 8.707 30.005 8.724 29.999 8.754 30.059 8.761 30.096 8.751 30.168 8.734 30.173"/><polygon class="cls-18" points="8.78 30.176 8.818 30.121 8.829 30.085 8.829 30.012 8.813 30.005 8.775 30.06 8.764 30.096 8.764 30.169 8.78 30.176"/><polygon class="cls-18" points="8.674 31.106 8.645 31.047 8.639 31.01 8.649 30.938 8.665 30.932 8.694 30.992 8.7 31.029 8.69 31.101 8.674 31.106"/><polygon class="cls-18" points="8.719 31.109 8.755 31.054 8.766 31.018 8.766 30.945 8.75 30.938 8.714 30.993 8.703 31.029 8.703 31.102 8.719 31.109"/><polygon class="cls-18" points="9.002 28.317 8.969 28.257 8.963 28.22 8.973 28.147 8.992 28.142 9.025 28.202 9.031 28.239 9.021 28.312 9.002 28.317"/><polygon class="cls-18" points="9.052 28.32 9.093 28.265 9.105 28.229 9.105 28.156 9.087 28.149 9.046 28.203 9.035 28.239 9.035 28.313 9.052 28.32"/><polygon class="cls-18" points="8.937 29.249 8.906 29.19 8.9 29.153 8.91 29.08 8.927 29.075 8.959 29.135 8.965 29.172 8.955 29.244 8.937 29.249"/><polygon class="cls-18" points="8.985 29.253 9.025 29.197 9.036 29.161 9.036 29.088 9.02 29.081 8.98 29.136 8.969 29.172 8.969 29.245 8.985 29.253"/><polygon class="cls-18" points="8.926 29.405 8.895 29.345 8.889 29.308 8.899 29.236 8.917 29.231 8.948 29.29 8.954 29.328 8.944 29.4 8.926 29.405"/><polygon class="cls-18" points="8.974 29.408 9.014 29.353 9.025 29.317 9.025 29.244 9.008 29.237 8.969 29.292 8.958 29.328 8.958 29.401 8.974 29.408"/><polygon class="cls-18" points="8.883 30.027 8.853 29.967 8.847 29.93 8.857 29.858 8.874 29.852 8.905 29.912 8.91 29.949 8.9 30.022 8.883 30.027"/><polygon class="cls-18" points="8.929 30.03 8.968 29.975 8.979 29.939 8.979 29.866 8.963 29.858 8.925 29.913 8.914 29.95 8.913 30.022 8.929 30.03"/><polygon class="cls-18" points="8.872 30.182 8.842 30.123 8.836 30.085 8.846 30.013 8.863 30.008 8.894 30.067 8.899 30.105 8.889 30.177 8.872 30.182"/><polygon class="cls-18" points="8.918 30.185 8.957 30.13 8.968 30.094 8.968 30.021 8.952 30.013 8.914 30.069 8.903 30.105 8.902 30.178 8.918 30.185"/><polygon class="cls-18" points="8.807 31.115 8.779 31.056 8.773 31.018 8.783 30.946 8.799 30.94 8.828 31 8.834 31.037 8.824 31.11 8.807 31.115"/><polygon class="cls-18" points="8.852 31.118 8.889 31.063 8.899 31.026 8.9 30.953 8.885 30.946 8.847 31.001 8.837 31.037 8.836 31.11 8.852 31.118"/><polygon class="cls-18" points="9.15 28.327 9.119 28.266 9.113 28.229 9.123 28.157 9.142 28.152 9.172 28.212 9.178 28.249 9.168 28.321 9.15 28.327"/><polygon class="cls-18" points="9.197 28.33 9.236 28.275 9.247 28.239 9.248 28.166 9.232 28.159 9.192 28.213 9.181 28.249 9.181 28.322 9.197 28.33"/><polygon class="cls-18" points="9.081 29.259 9.05 29.199 9.044 29.162 9.054 29.09 9.072 29.084 9.103 29.144 9.108 29.181 9.098 29.254 9.081 29.259"/><polygon class="cls-18" points="9.128 29.262 9.167 29.208 9.178 29.172 9.178 29.099 9.162 29.091 9.123 29.146 9.112 29.182 9.111 29.255 9.128 29.262"/><polygon class="cls-18" points="9.011 30.191 8.981 30.131 8.975 30.094 8.986 30.022 9.002 30.017 9.033 30.077 9.039 30.114 9.028 30.186 9.011 30.191"/><polygon class="cls-18" points="9.058 30.195 9.097 30.14 9.109 30.104 9.109 30.031 9.092 30.024 9.053 30.078 9.042 30.114 9.042 30.187 9.058 30.195"/><polygon class="cls-18" points="8.941 31.124 8.912 31.064 8.907 31.027 8.917 30.954 8.933 30.949 8.964 31.009 8.969 31.046 8.959 31.119 8.941 31.124"/><polygon class="cls-18" points="8.989 31.127 9.028 31.073 9.04 31.037 9.04 30.964 9.023 30.956 8.984 31.011 8.973 31.047 8.972 31.12 8.989 31.127"/><polygon class="cls-18" points="9.291 28.337 9.261 28.277 9.255 28.24 9.265 28.168 9.283 28.163 9.314 28.222 9.319 28.26 9.309 28.332 9.291 28.337"/><polygon class="cls-18" points="9.338 28.341 9.377 28.286 9.389 28.25 9.389 28.177 9.373 28.169 9.334 28.224 9.323 28.26 9.322 28.333 9.338 28.341"/><polygon class="cls-6" points="9.269 28.648 9.238 28.588 9.232 28.551 9.242 28.479 9.26 28.474 9.29 28.533 9.296 28.571 9.285 28.643 9.269 28.648"/><polygon class="cls-6" points="9.315 28.652 9.355 28.597 9.366 28.561 9.366 28.488 9.349 28.48 9.31 28.535 9.299 28.571 9.299 28.644 9.315 28.652"/><polygon class="cls-6" points="9.188 29.736 9.157 29.676 9.151 29.639 9.161 29.567 9.179 29.561 9.209 29.622 9.215 29.659 9.205 29.731 9.188 29.736"/><polygon class="cls-6" points="9.234 29.74 9.274 29.685 9.285 29.649 9.285 29.576 9.269 29.568 9.229 29.623 9.218 29.659 9.218 29.732 9.234 29.74"/><polygon class="cls-6" points="9.106 30.824 9.076 30.764 9.07 30.726 9.08 30.654 9.098 30.649 9.128 30.709 9.134 30.746 9.124 30.818 9.106 30.824"/><polygon class="cls-6" points="9.154 30.827 9.193 30.773 9.204 30.737 9.204 30.664 9.188 30.656 9.149 30.711 9.137 30.747 9.137 30.819 9.154 30.827"/><polygon class="cls-18" points="9.083 31.135 9.052 31.074 9.047 31.037 9.058 30.965 9.074 30.96 9.105 31.02 9.111 31.057 9.101 31.129 9.083 31.135"/><polygon class="cls-18" points="9.13 31.138 9.17 31.083 9.181 31.047 9.181 30.974 9.165 30.967 9.126 31.021 9.114 31.057 9.114 31.13 9.13 31.138"/><polygon class="cls-18" points="9.433 28.348 9.402 28.288 9.396 28.251 9.407 28.178 9.424 28.174 9.455 28.233 9.46 28.271 9.45 28.343 9.433 28.348"/><polygon class="cls-18" points="9.48 28.352 9.519 28.297 9.53 28.261 9.53 28.188 9.514 28.18 9.475 28.235 9.464 28.271 9.463 28.344 9.48 28.352"/><polygon class="cls-6" points="9.41 28.659 9.379 28.599 9.373 28.561 9.384 28.489 9.401 28.484 9.431 28.544 9.437 28.581 9.427 28.654 9.41 28.659"/><polygon class="cls-6" points="9.456 28.662 9.496 28.608 9.507 28.572 9.507 28.499 9.491 28.491 9.452 28.546 9.44 28.582 9.44 28.655 9.456 28.662"/><polygon class="cls-6" points="9.398 28.814 9.368 28.754 9.362 28.717 9.372 28.645 9.389 28.64 9.42 28.7 9.426 28.737 9.415 28.809 9.398 28.814"/><polygon class="cls-6" points="9.445 28.818 9.484 28.763 9.496 28.727 9.496 28.654 9.479 28.647 9.44 28.701 9.429 28.737 9.429 28.81 9.445 28.818"/><polygon class="cls-6" points="9.34 29.591 9.31 29.531 9.304 29.494 9.315 29.422 9.331 29.417 9.362 29.477 9.368 29.514 9.357 29.586 9.34 29.591"/><polygon class="cls-6" points="9.387 29.595 9.427 29.54 9.438 29.504 9.438 29.431 9.422 29.423 9.383 29.478 9.371 29.514 9.371 29.587 9.387 29.595"/><polygon class="cls-6" points="9.317 29.902 9.287 29.842 9.281 29.805 9.291 29.733 9.309 29.728 9.339 29.788 9.345 29.825 9.334 29.897 9.317 29.902"/><polygon class="cls-6" points="9.364 29.906 9.403 29.851 9.415 29.815 9.415 29.742 9.399 29.735 9.36 29.789 9.348 29.825 9.348 29.898 9.364 29.906"/><polygon class="cls-6" points="9.26 30.679 9.229 30.619 9.223 30.582 9.234 30.51 9.251 30.505 9.281 30.565 9.287 30.602 9.277 30.674 9.26 30.679"/><polygon class="cls-6" points="9.307 30.683 9.346 30.628 9.357 30.592 9.357 30.519 9.341 30.511 9.302 30.567 9.29 30.602 9.29 30.675 9.307 30.683"/><polygon class="cls-6" points="9.248 30.834 9.217 30.774 9.211 30.737 9.222 30.665 9.239 30.66 9.27 30.72 9.275 30.757 9.265 30.829 9.248 30.834"/><polygon class="cls-6" points="9.295 30.838 9.334 30.783 9.345 30.747 9.346 30.674 9.329 30.667 9.29 30.721 9.279 30.757 9.279 30.83 9.295 30.838"/><polygon class="cls-18" points="9.225 31.145 9.194 31.085 9.188 31.048 9.199 30.976 9.216 30.97 9.247 31.031 9.253 31.068 9.242 31.14 9.225 31.145"/><polygon class="cls-18" points="9.272 31.149 9.311 31.094 9.323 31.058 9.323 30.985 9.307 30.977 9.267 31.032 9.256 31.068 9.256 31.141 9.272 31.149"/><polygon class="cls-18" points="9.573 28.359 9.542 28.299 9.536 28.261 9.547 28.189 9.564 28.184 9.594 28.244 9.6 28.282 9.59 28.353 9.573 28.359"/><polygon class="cls-18" points="9.619 28.362 9.659 28.308 9.67 28.271 9.67 28.199 9.654 28.191 9.615 28.246 9.603 28.282 9.603 28.355 9.619 28.362"/><polygon class="cls-6" points="9.549 28.669 9.519 28.609 9.513 28.572 9.523 28.5 9.541 28.495 9.572 28.555 9.577 28.593 9.567 28.664 9.549 28.669"/><polygon class="cls-6" points="9.597 28.673 9.636 28.618 9.647 28.582 9.647 28.51 9.631 28.502 9.592 28.557 9.581 28.593 9.58 28.666 9.597 28.673"/><polygon class="cls-6" points="9.469 29.757 9.438 29.697 9.433 29.66 9.443 29.588 9.46 29.583 9.491 29.643 9.497 29.68 9.486 29.752 9.469 29.757"/><polygon class="cls-6" points="9.516 29.761 9.555 29.706 9.566 29.67 9.567 29.597 9.55 29.59 9.511 29.645 9.5 29.681 9.5 29.754 9.516 29.761"/><polygon class="cls-6" points="9.388 30.845 9.358 30.785 9.352 30.748 9.362 30.676 9.38 30.671 9.41 30.73 9.416 30.768 9.406 30.84 9.388 30.845"/><polygon class="cls-6" points="9.435 30.849 9.475 30.794 9.486 30.758 9.486 30.685 9.47 30.677 9.43 30.732 9.419 30.768 9.419 30.841 9.435 30.849"/><polygon class="cls-18" points="9.365 31.156 9.335 31.096 9.329 31.059 9.339 30.986 9.356 30.981 9.388 31.041 9.393 31.079 9.383 31.151 9.365 31.156"/><polygon class="cls-18" points="9.412 31.16 9.452 31.105 9.463 31.069 9.463 30.996 9.447 30.988 9.408 31.043 9.397 31.079 9.396 31.152 9.412 31.16"/><polygon class="cls-18" points="9.716 28.37 9.685 28.309 9.68 28.272 9.69 28.2 9.707 28.195 9.738 28.255 9.744 28.292 9.733 28.364 9.716 28.37"/><polygon class="cls-18" points="9.763 28.373 9.802 28.318 9.813 28.282 9.814 28.21 9.797 28.202 9.758 28.257 9.747 28.293 9.746 28.366 9.763 28.373"/><polygon class="cls-18" points="9.509 31.167 9.478 31.107 9.473 31.07 9.483 30.997 9.5 30.992 9.531 31.052 9.537 31.09 9.526 31.162 9.509 31.167"/><polygon class="cls-18" points="9.556 31.171 9.595 31.116 9.607 31.08 9.607 31.007 9.591 30.999 9.551 31.054 9.54 31.09 9.54 31.163 9.556 31.171"/><polygon class="cls-18" points="9.849 28.379 9.82 28.32 9.815 28.283 9.825 28.21 9.841 28.205 9.87 28.264 9.875 28.301 9.865 28.373 9.849 28.379"/><polygon class="cls-18" points="9.893 28.382 9.93 28.327 9.941 28.29 9.941 28.218 9.925 28.21 9.889 28.265 9.878 28.301 9.878 28.374 9.893 28.382"/><polygon class="cls-18" points="9.782 29.312 9.752 29.252 9.746 29.215 9.757 29.143 9.773 29.137 9.803 29.197 9.809 29.234 9.799 29.307 9.782 29.312"/><polygon class="cls-18" points="9.828 29.314 9.867 29.259 9.877 29.223 9.877 29.15 9.861 29.143 9.823 29.198 9.812 29.234 9.812 29.307 9.828 29.314"/><polygon class="cls-18" points="9.715 30.244 9.684 30.185 9.678 30.148 9.688 30.075 9.706 30.07 9.737 30.13 9.744 30.167 9.733 30.239 9.715 30.244"/><polygon class="cls-18" points="9.764 30.247 9.803 30.192 9.814 30.156 9.814 30.083 9.797 30.076 9.758 30.131 9.747 30.167 9.747 30.24 9.764 30.247"/><polygon class="cls-18" points="9.648 31.177 9.616 31.117 9.609 31.08 9.62 31.008 9.638 31.003 9.671 31.062 9.677 31.1 9.667 31.172 9.648 31.177"/><polygon class="cls-18" points="9.699 31.18 9.74 31.125 9.751 31.089 9.75 31.016 9.733 31.008 9.692 31.064 9.681 31.1 9.681 31.173 9.699 31.18"/><polygon class="cls-18" points="9.982 28.387 9.953 28.328 9.948 28.291 9.958 28.219 9.974 28.213 10.003 28.273 10.008 28.309 9.998 28.382 9.982 28.387"/><polygon class="cls-18" points="10.027 28.39 10.064 28.335 10.074 28.298 10.074 28.225 10.058 28.218 10.022 28.274 10.011 28.31 10.012 28.383 10.027 28.39"/><polygon class="cls-18" points="9.921 29.32 9.891 29.261 9.885 29.224 9.895 29.151 9.912 29.146 9.942 29.206 9.948 29.243 9.938 29.315 9.921 29.32"/><polygon class="cls-18" points="9.968 29.323 10.005 29.268 10.016 29.232 10.015 29.159 10 29.151 9.962 29.207 9.951 29.243 9.951 29.316 9.968 29.323"/><polygon class="cls-18" points="9.911 29.476 9.88 29.417 9.875 29.379 9.884 29.307 9.901 29.301 9.932 29.361 9.938 29.398 9.928 29.47 9.911 29.476"/><polygon class="cls-18" points="9.958 29.479 9.996 29.424 10.006 29.388 10.006 29.314 9.99 29.307 9.952 29.363 9.941 29.399 9.941 29.471 9.958 29.479"/><polygon class="cls-18" points="9.87 30.098 9.839 30.038 9.832 30.001 9.843 29.929 9.86 29.924 9.892 29.983 9.898 30.021 9.888 30.093 9.87 30.098"/><polygon class="cls-18" points="9.918 30.101 9.957 30.046 9.968 30.01 9.967 29.936 9.951 29.929 9.912 29.985 9.901 30.021 9.902 30.094 9.918 30.101"/><polygon class="cls-18" points="9.86 30.253 9.828 30.194 9.822 30.157 9.832 30.084 9.849 30.079 9.881 30.139 9.888 30.176 9.878 30.248 9.86 30.253"/><polygon class="cls-18" points="9.908 30.256 9.948 30.201 9.958 30.165 9.958 30.092 9.941 30.085 9.902 30.14 9.891 30.176 9.892 30.249 9.908 30.256"/><polygon class="cls-18" points="9.799 31.186 9.766 31.127 9.759 31.089 9.769 31.017 9.787 31.012 9.821 31.072 9.827 31.109 9.817 31.181 9.799 31.186"/><polygon class="cls-18" points="9.849 31.19 9.89 31.134 9.901 31.098 9.9 31.025 9.883 31.018 9.842 31.073 9.831 31.109 9.831 31.182 9.849 31.19"/><polygon class="cls-18" points="10.116 28.396 10.087 28.336 10.081 28.299 10.09 28.227 10.106 28.221 10.135 28.281 10.141 28.318 10.132 28.39 10.116 28.396"/><polygon class="cls-18" points="10.161 28.398 10.197 28.343 10.207 28.307 10.206 28.234 10.191 28.227 10.154 28.282 10.145 28.318 10.145 28.391 10.161 28.398"/><polygon class="cls-18" points="10.06 29.329 10.03 29.27 10.023 29.232 10.033 29.16 10.05 29.155 10.08 29.214 10.087 29.251 10.078 29.324 10.06 29.329"/><polygon class="cls-18" points="10.107 29.332 10.144 29.276 10.155 29.24 10.154 29.167 10.138 29.16 10.101 29.215 10.09 29.252 10.091 29.325 10.107 29.332"/><polygon class="cls-18" points="10.051 29.485 10.02 29.425 10.014 29.388 10.023 29.316 10.04 29.31 10.071 29.37 10.078 29.407 10.068 29.479 10.051 29.485"/><polygon class="cls-18" points="10.098 29.487 10.136 29.432 10.146 29.396 10.145 29.323 10.129 29.316 10.091 29.371 10.081 29.407 10.082 29.48 10.098 29.487"/><polygon class="cls-18" points="10.042 29.64 10.011 29.581 10.004 29.543 10.014 29.471 10.031 29.466 10.062 29.525 10.068 29.562 10.059 29.635 10.042 29.64"/><polygon class="cls-18" points="10.089 29.643 10.127 29.588 10.138 29.551 10.136 29.478 10.12 29.471 10.082 29.527 10.072 29.563 10.073 29.636 10.089 29.643"/><polygon class="cls-18" points="10.023 29.951 9.992 29.892 9.986 29.854 9.995 29.782 10.012 29.777 10.044 29.836 10.05 29.873 10.041 29.946 10.023 29.951"/><polygon class="cls-18" points="10.071 29.954 10.11 29.899 10.12 29.863 10.119 29.789 10.103 29.782 10.064 29.838 10.053 29.874 10.055 29.947 10.071 29.954"/><polygon class="cls-18" points="10.014 30.107 9.982 30.047 9.976 30.01 9.985 29.938 10.003 29.932 10.035 29.992 10.041 30.029 10.032 30.102 10.014 30.107"/><polygon class="cls-18" points="10.062 30.11 10.101 30.054 10.111 30.019 10.111 29.945 10.094 29.938 10.055 29.993 10.045 30.03 10.045 30.103 10.062 30.11"/><polygon class="cls-18" points="10.005 30.262 9.973 30.203 9.966 30.166 9.976 30.093 9.993 30.088 10.025 30.147 10.032 30.185 10.022 30.257 10.005 30.262"/><polygon class="cls-18" points="10.053 30.265 10.092 30.21 10.103 30.174 10.102 30.101 10.085 30.094 10.046 30.149 10.035 30.185 10.036 30.258 10.053 30.265"/><polygon class="cls-18" points="9.949 31.196 9.916 31.136 9.909 31.099 9.919 31.026 9.937 31.021 9.97 31.081 9.977 31.118 9.968 31.19 9.949 31.196"/><polygon class="cls-18" points="9.999 31.199 10.04 31.144 10.051 31.108 10.05 31.034 10.032 31.027 9.992 31.082 9.981 31.118 9.982 31.191 9.999 31.199"/><polygon class="cls-18" points="10.25 28.404 10.22 28.344 10.214 28.307 10.223 28.235 10.239 28.229 10.268 28.289 10.275 28.326 10.266 28.398 10.25 28.404"/><polygon class="cls-18" points="10.294 28.407 10.33 28.351 10.34 28.315 10.339 28.242 10.323 28.235 10.288 28.29 10.278 28.327 10.279 28.399 10.294 28.407"/><polygon class="cls-18" points="10.192 29.493 10.16 29.434 10.153 29.397 10.162 29.324 10.18 29.319 10.211 29.379 10.217 29.416 10.208 29.488 10.192 29.493"/><polygon class="cls-18" points="10.238 29.496 10.276 29.441 10.286 29.405 10.284 29.331 10.268 29.325 10.231 29.38 10.221 29.416 10.222 29.489 10.238 29.496"/><polygon class="cls-18" points="10.183 29.649 10.151 29.589 10.145 29.552 10.154 29.479 10.171 29.474 10.203 29.534 10.209 29.571 10.2 29.644 10.183 29.649"/><polygon class="cls-18" points="10.23 29.652 10.268 29.596 10.278 29.56 10.277 29.487 10.26 29.48 10.223 29.535 10.212 29.572 10.214 29.644 10.23 29.652"/><polygon class="cls-18" points="10.175 29.805 10.143 29.745 10.136 29.708 10.146 29.635 10.162 29.63 10.194 29.69 10.201 29.727 10.192 29.799 10.175 29.805"/><polygon class="cls-18" points="10.222 29.807 10.26 29.752 10.27 29.716 10.269 29.643 10.252 29.636 10.215 29.691 10.204 29.727 10.205 29.8 10.222 29.807"/><polygon class="cls-18" points="10.167 29.96 10.134 29.9 10.128 29.863 10.137 29.791 10.154 29.785 10.186 29.845 10.193 29.882 10.184 29.954 10.167 29.96"/><polygon class="cls-18" points="10.214 29.963 10.252 29.908 10.262 29.872 10.261 29.798 10.244 29.791 10.206 29.846 10.196 29.882 10.197 29.956 10.214 29.963"/><polygon class="cls-18" points="10.158 30.116 10.125 30.056 10.119 30.019 10.128 29.947 10.146 29.941 10.178 30.001 10.185 30.038 10.175 30.111 10.158 30.116"/><polygon class="cls-18" points="10.206 30.119 10.244 30.063 10.254 30.027 10.253 29.954 10.237 29.947 10.198 30.002 10.188 30.038 10.189 30.111 10.206 30.119"/><polygon class="cls-18" points="10.1 31.205 10.066 31.145 10.059 31.108 10.068 31.036 10.086 31.03 10.12 31.09 10.127 31.127 10.118 31.2 10.1 31.205"/><polygon class="cls-18" points="10.15 31.208 10.19 31.153 10.2 31.117 10.199 31.043 10.181 31.036 10.142 31.091 10.131 31.128 10.132 31.201 10.15 31.208"/><polygon class="cls-18" points="10.383 28.412 10.353 28.353 10.347 28.315 10.355 28.243 10.371 28.238 10.401 28.297 10.408 28.334 10.399 28.407 10.383 28.412"/><polygon class="cls-18" points="10.428 28.415 10.462 28.358 10.471 28.322 10.469 28.249 10.455 28.242 10.421 28.298 10.411 28.335 10.412 28.408 10.428 28.415"/><polygon class="cls-18" points="10.361 28.879 10.33 28.82 10.324 28.783 10.332 28.711 10.349 28.705 10.38 28.764 10.386 28.802 10.378 28.874 10.361 28.879"/><polygon class="cls-18" points="10.407 28.882 10.442 28.826 10.451 28.789 10.45 28.716 10.434 28.709 10.399 28.765 10.389 28.802 10.391 28.875 10.407 28.882"/><polygon class="cls-18" points="10.354 29.035 10.323 28.975 10.316 28.938 10.325 28.866 10.341 28.86 10.372 28.92 10.379 28.957 10.371 29.029 10.354 29.035"/><polygon class="cls-18" points="10.399 29.038 10.435 28.981 10.445 28.944 10.443 28.872 10.427 28.865 10.392 28.921 10.382 28.957 10.383 29.03 10.399 29.038"/><polygon class="cls-18" points="10.347 29.191 10.315 29.131 10.309 29.094 10.317 29.022 10.334 29.016 10.365 29.076 10.371 29.113 10.363 29.185 10.347 29.191"/><polygon class="cls-18" points="10.392 29.194 10.428 29.137 10.438 29.1 10.436 29.028 10.421 29.021 10.385 29.077 10.374 29.113 10.376 29.186 10.392 29.194"/><polygon class="cls-18" points="10.324 29.658 10.292 29.598 10.286 29.56 10.294 29.488 10.311 29.483 10.343 29.542 10.35 29.58 10.341 29.652 10.324 29.658"/><polygon class="cls-18" points="10.371 29.66 10.408 29.604 10.418 29.567 10.416 29.494 10.4 29.488 10.363 29.544 10.353 29.58 10.355 29.653 10.371 29.66"/><polygon class="cls-18" points="10.317 29.813 10.285 29.754 10.278 29.717 10.286 29.644 10.304 29.639 10.335 29.699 10.342 29.736 10.334 29.808 10.317 29.813"/><polygon class="cls-18" points="10.364 29.816 10.402 29.76 10.412 29.723 10.409 29.65 10.393 29.644 10.356 29.7 10.346 29.736 10.348 29.809 10.364 29.816"/><polygon class="cls-18" points="10.309 29.969 10.277 29.909 10.27 29.872 10.279 29.8 10.296 29.794 10.329 29.854 10.335 29.891 10.327 29.963 10.309 29.969"/><polygon class="cls-18" points="10.357 29.972 10.395 29.915 10.405 29.879 10.403 29.806 10.386 29.799 10.349 29.855 10.339 29.892 10.34 29.964 10.357 29.972"/><polygon class="cls-18" points="10.287 30.436 10.254 30.376 10.247 30.339 10.256 30.267 10.273 30.261 10.307 30.321 10.313 30.358 10.305 30.431 10.287 30.436"/><polygon class="cls-18" points="10.336 30.439 10.375 30.382 10.386 30.346 10.383 30.273 10.366 30.267 10.327 30.322 10.317 30.359 10.319 30.432 10.336 30.439"/><polygon class="cls-18" points="10.28 30.591 10.247 30.532 10.239 30.495 10.248 30.422 10.266 30.417 10.299 30.477 10.306 30.514 10.298 30.586 10.28 30.591"/><polygon class="cls-18" points="10.329 30.595 10.368 30.538 10.379 30.501 10.377 30.429 10.359 30.422 10.32 30.478 10.31 30.514 10.312 30.587 10.329 30.595"/><polygon class="cls-18" points="10.272 30.747 10.239 30.688 10.232 30.65 10.241 30.578 10.258 30.573 10.292 30.632 10.299 30.67 10.291 30.742 10.272 30.747"/><polygon class="cls-18" points="10.321 30.75 10.362 30.694 10.372 30.657 10.37 30.584 10.352 30.578 10.313 30.634 10.302 30.67 10.304 30.743 10.321 30.75"/><polygon class="cls-18" points="10.25 31.214 10.216 31.155 10.209 31.117 10.218 31.045 10.236 31.039 10.27 31.099 10.277 31.136 10.268 31.209 10.25 31.214"/><polygon class="cls-18" points="10.3 31.217 10.342 31.161 10.353 31.124 10.35 31.051 10.332 31.045 10.291 31.1 10.281 31.137 10.283 31.21 10.3 31.217"/><polygon class="cls-18" points="10.513 28.417 10.484 28.359 10.478 28.322 10.485 28.249 10.5 28.243 10.528 28.301 10.535 28.338 10.527 28.41 10.513 28.417"/><polygon class="cls-18" points="10.554 28.417 10.587 28.36 10.596 28.324 10.594 28.251 10.579 28.245 10.546 28.301 10.537 28.338 10.54 28.41 10.554 28.417"/><polygon class="cls-18" points="10.488 29.039 10.458 28.981 10.452 28.945 10.459 28.872 10.475 28.866 10.506 28.924 10.513 28.961 10.505 29.033 10.488 29.039"/><polygon class="cls-18" points="10.533 29.04 10.568 28.983 10.577 28.947 10.574 28.874 10.559 28.868 10.525 28.924 10.515 28.961 10.518 29.034 10.533 29.04"/><polygon class="cls-18" points="10.483 29.195 10.452 29.137 10.445 29.101 10.453 29.028 10.469 29.022 10.5 29.08 10.507 29.117 10.499 29.189 10.483 29.195"/><polygon class="cls-18" points="10.528 29.196 10.563 29.139 10.572 29.103 10.57 29.03 10.554 29.023 10.519 29.08 10.51 29.117 10.512 29.19 10.528 29.196"/><polygon class="cls-18" points="10.477 29.351 10.445 29.293 10.439 29.256 10.446 29.183 10.463 29.177 10.494 29.236 10.501 29.272 10.494 29.345 10.477 29.351"/><polygon class="cls-18" points="10.523 29.352 10.558 29.295 10.568 29.258 10.565 29.185 10.549 29.179 10.514 29.236 10.504 29.272 10.507 29.345 10.523 29.352"/><polygon class="cls-18" points="10.459 29.818 10.426 29.76 10.42 29.723 10.427 29.651 10.445 29.645 10.477 29.703 10.485 29.74 10.477 29.812 10.459 29.818"/><polygon class="cls-18" points="10.507 29.819 10.544 29.763 10.554 29.726 10.551 29.653 10.534 29.646 10.497 29.703 10.488 29.74 10.49 29.812 10.507 29.819"/><polygon class="cls-18" points="10.442 30.285 10.407 30.227 10.4 30.19 10.408 30.118 10.426 30.112 10.46 30.17 10.467 30.207 10.46 30.279 10.442 30.285"/><polygon class="cls-18" points="10.491 30.286 10.529 30.229 10.539 30.193 10.536 30.12 10.519 30.113 10.481 30.17 10.471 30.207 10.473 30.28 10.491 30.286"/><polygon class="cls-18" points="10.436 30.441 10.401 30.383 10.394 30.346 10.402 30.273 10.42 30.267 10.454 30.326 10.462 30.363 10.454 30.435 10.436 30.441"/><polygon class="cls-18" points="10.486 30.442 10.525 30.386 10.535 30.349 10.532 30.276 10.514 30.27 10.476 30.326 10.465 30.363 10.468 30.435 10.486 30.442"/><polygon class="cls-18" points="10.43 30.597 10.395 30.538 10.387 30.501 10.395 30.429 10.414 30.423 10.449 30.481 10.457 30.518 10.448 30.591 10.43 30.597"/><polygon class="cls-18" points="10.48 30.598 10.52 30.541 10.53 30.505 10.527 30.432 10.509 30.425 10.47 30.482 10.46 30.518 10.462 30.591 10.48 30.598"/><polygon class="cls-18" points="10.406 31.22 10.369 31.162 10.361 31.124 10.37 31.052 10.389 31.046 10.426 31.104 10.434 31.141 10.425 31.214 10.406 31.22"/><polygon class="cls-18" points="10.459 31.221 10.5 31.164 10.511 31.128 10.508 31.055 10.489 31.048 10.448 31.104 10.438 31.141 10.441 31.214 10.459 31.221"/><polygon class="cls-18" points="10.639 28.419 10.609 28.361 10.602 28.324 10.609 28.251 10.624 28.245 10.653 28.303 10.66 28.34 10.654 28.413 10.639 28.419"/><polygon class="cls-18" points="10.681 28.42 10.713 28.363 10.721 28.327 10.718 28.253 10.704 28.247 10.671 28.304 10.663 28.34 10.666 28.413 10.681 28.42"/><polygon class="cls-18" points="10.618 29.198 10.587 29.14 10.579 29.103 10.586 29.03 10.602 29.024 10.634 29.082 10.641 29.119 10.635 29.192 10.618 29.198"/><polygon class="cls-18" points="10.663 29.199 10.698 29.142 10.707 29.105 10.704 29.033 10.687 29.026 10.653 29.083 10.644 29.119 10.647 29.192 10.663 29.199"/><polygon class="cls-18" points="10.614 29.354 10.582 29.296 10.575 29.259 10.582 29.186 10.598 29.18 10.63 29.238 10.637 29.275 10.631 29.347 10.614 29.354"/><polygon class="cls-18" points="10.66 29.355 10.695 29.298 10.704 29.261 10.7 29.188 10.684 29.181 10.65 29.238 10.641 29.275 10.644 29.348 10.66 29.355"/><polygon class="cls-18" points="10.61 29.51 10.577 29.451 10.57 29.414 10.577 29.342 10.594 29.336 10.626 29.394 10.633 29.431 10.627 29.504 10.61 29.51"/><polygon class="cls-18" points="10.656 29.511 10.692 29.454 10.701 29.417 10.697 29.344 10.681 29.337 10.646 29.394 10.637 29.431 10.64 29.504 10.656 29.511"/><polygon class="cls-18" points="10.594 30.133 10.559 30.075 10.552 30.038 10.559 29.965 10.577 29.959 10.611 30.017 10.618 30.054 10.612 30.127 10.594 30.133"/><polygon class="cls-18" points="10.643 30.134 10.68 30.077 10.689 30.04 10.686 29.967 10.669 29.961 10.632 30.017 10.622 30.054 10.625 30.127 10.643 30.134"/><polygon class="cls-18" points="10.59 30.288 10.555 30.23 10.547 30.193 10.554 30.121 10.572 30.114 10.607 30.173 10.615 30.209 10.608 30.282 10.59 30.288"/><polygon class="cls-18" points="10.64 30.289 10.677 30.233 10.686 30.196 10.683 30.123 10.666 30.116 10.628 30.173 10.618 30.21 10.622 30.282 10.64 30.289"/><polygon class="cls-18" points="10.586 30.444 10.55 30.386 10.543 30.349 10.55 30.277 10.568 30.271 10.603 30.329 10.611 30.366 10.604 30.438 10.586 30.444"/><polygon class="cls-18" points="10.636 30.445 10.674 30.388 10.683 30.352 10.68 30.279 10.662 30.272 10.624 30.329 10.615 30.366 10.618 30.438 10.636 30.445"/><polygon class="cls-18" points="10.566 31.223 10.528 31.165 10.519 31.128 10.527 31.055 10.546 31.049 10.583 31.108 10.592 31.145 10.585 31.217 10.566 31.223"/><polygon class="cls-18" points="10.618 31.224 10.659 31.167 10.669 31.131 10.665 31.058 10.646 31.051 10.606 31.108 10.596 31.145 10.6 31.217 10.618 31.224"/><polygon class="cls-18" points="10.765 28.421 10.735 28.363 10.728 28.327 10.734 28.254 10.748 28.248 10.778 28.306 10.785 28.343 10.78 28.415 10.765 28.421"/><polygon class="cls-18" points="10.807 28.422 10.838 28.366 10.846 28.329 10.842 28.256 10.827 28.249 10.796 28.306 10.788 28.343 10.792 28.416 10.807 28.422"/><polygon class="cls-6" points="10.76 28.733 10.729 28.675 10.722 28.638 10.728 28.566 10.743 28.559 10.774 28.617 10.782 28.654 10.776 28.727 10.76 28.733"/><polygon class="cls-6" points="10.804 28.734 10.836 28.677 10.844 28.64 10.84 28.568 10.825 28.561 10.792 28.618 10.784 28.654 10.788 28.727 10.804 28.734"/><polygon class="cls-18" points="10.752 29.356 10.719 29.298 10.711 29.261 10.717 29.189 10.733 29.183 10.766 29.241 10.774 29.277 10.768 29.35 10.752 29.356"/><polygon class="cls-18" points="10.797 29.357 10.832 29.3 10.84 29.264 10.836 29.191 10.819 29.184 10.786 29.241 10.777 29.278 10.781 29.35 10.797 29.357"/><polygon class="cls-18" points="10.75 29.512 10.716 29.454 10.708 29.417 10.715 29.345 10.731 29.338 10.764 29.397 10.772 29.434 10.766 29.506 10.75 29.512"/><polygon class="cls-18" points="10.796 29.513 10.83 29.456 10.839 29.42 10.834 29.347 10.818 29.34 10.784 29.397 10.775 29.434 10.779 29.506 10.796 29.513"/><polygon class="cls-18" points="10.747 29.668 10.713 29.61 10.706 29.573 10.712 29.5 10.728 29.494 10.762 29.552 10.77 29.589 10.764 29.662 10.747 29.668"/><polygon class="cls-18" points="10.794 29.669 10.829 29.612 10.838 29.575 10.834 29.503 10.817 29.496 10.782 29.553 10.773 29.59 10.778 29.662 10.794 29.669"/><polygon class="cls-18" points="10.743 29.98 10.708 29.921 10.7 29.884 10.706 29.812 10.723 29.806 10.758 29.864 10.766 29.901 10.76 29.974 10.743 29.98"/><polygon class="cls-18" points="10.791 29.98 10.827 29.924 10.836 29.887 10.831 29.814 10.814 29.807 10.778 29.864 10.769 29.901 10.774 29.974 10.791 29.98"/><polygon class="cls-18" points="10.741 30.136 10.705 30.077 10.697 30.04 10.704 29.968 10.721 29.962 10.756 30.02 10.764 30.057 10.758 30.13 10.741 30.136"/><polygon class="cls-18" points="10.789 30.136 10.826 30.08 10.835 30.043 10.83 29.97 10.813 29.963 10.777 30.02 10.768 30.057 10.772 30.13 10.789 30.136"/><polygon class="cls-18" points="10.738 30.291 10.702 30.233 10.695 30.196 10.701 30.123 10.718 30.117 10.754 30.176 10.762 30.213 10.756 30.285 10.738 30.291"/><polygon class="cls-18" points="10.788 30.292 10.825 30.235 10.834 30.199 10.829 30.126 10.811 30.119 10.775 30.176 10.765 30.213 10.77 30.285 10.788 30.292"/><polygon class="cls-6" points="10.729 30.915 10.692 30.856 10.683 30.819 10.69 30.747 10.709 30.74 10.746 30.799 10.755 30.836 10.748 30.908 10.729 30.915"/><polygon class="cls-6" points="10.781 30.916 10.82 30.859 10.829 30.822 10.825 30.749 10.806 30.743 10.768 30.799 10.758 30.836 10.763 30.909 10.781 30.916"/><polygon class="cls-18" points="10.725 31.226 10.687 31.168 10.678 31.131 10.685 31.058 10.704 31.052 10.742 31.11 10.751 31.147 10.744 31.22 10.725 31.226"/><polygon class="cls-18" points="10.778 31.227 10.818 31.171 10.827 31.134 10.823 31.061 10.804 31.054 10.764 31.111 10.754 31.147 10.759 31.22 10.778 31.227"/><polygon class="cls-18" points="10.891 28.424 10.86 28.366 10.853 28.329 10.857 28.256 10.873 28.25 10.903 28.309 10.911 28.345 10.906 28.418 10.891 28.424"/><polygon class="cls-18" points="10.933 28.425 10.964 28.368 10.971 28.332 10.966 28.259 10.952 28.252 10.921 28.309 10.914 28.345 10.918 28.418 10.933 28.425"/><polygon class="cls-18" points="10.889 29.203 10.856 29.145 10.848 29.108 10.854 29.036 10.869 29.029 10.902 29.088 10.91 29.125 10.905 29.197 10.889 29.203"/><polygon class="cls-18" points="10.934 29.204 10.967 29.148 10.975 29.111 10.97 29.038 10.954 29.032 10.921 29.088 10.914 29.125 10.918 29.198 10.934 29.204"/><polygon class="cls-18" points="10.889 29.359 10.855 29.301 10.847 29.264 10.852 29.191 10.869 29.185 10.902 29.244 10.91 29.28 10.905 29.353 10.889 29.359"/><polygon class="cls-18" points="10.934 29.36 10.968 29.303 10.976 29.267 10.971 29.194 10.955 29.187 10.921 29.244 10.913 29.28 10.918 29.353 10.934 29.36"/><polygon class="cls-18" points="10.888 29.515 10.854 29.457 10.846 29.42 10.852 29.347 10.868 29.341 10.902 29.4 10.91 29.437 10.905 29.509 10.888 29.515"/><polygon class="cls-18" points="10.935 29.516 10.969 29.459 10.977 29.423 10.972 29.35 10.955 29.343 10.921 29.4 10.913 29.437 10.918 29.509 10.935 29.516"/><polygon class="cls-18" points="10.887 30.138 10.851 30.08 10.843 30.043 10.848 29.971 10.865 29.965 10.901 30.023 10.91 30.06 10.905 30.132 10.887 30.138"/><polygon class="cls-18" points="10.936 30.139 10.971 30.083 10.98 30.046 10.975 29.973 10.957 29.966 10.922 30.023 10.913 30.06 10.918 30.133 10.936 30.139"/><polygon class="cls-18" points="10.887 30.294 10.85 30.236 10.842 30.199 10.847 30.126 10.865 30.12 10.901 30.178 10.91 30.215 10.905 30.288 10.887 30.294"/><polygon class="cls-18" points="10.936 30.295 10.972 30.238 10.981 30.202 10.975 30.129 10.958 30.122 10.922 30.179 10.913 30.215 10.918 30.288 10.936 30.295"/><polygon class="cls-18" points="10.886 30.45 10.849 30.392 10.841 30.355 10.846 30.282 10.864 30.276 10.901 30.335 10.909 30.371 10.904 30.444 10.886 30.45"/><polygon class="cls-18" points="10.936 30.451 10.973 30.394 10.982 30.358 10.976 30.284 10.958 30.278 10.922 30.335 10.913 30.371 10.918 30.444 10.936 30.451"/><polygon class="cls-18" points="10.884 31.229 10.845 31.171 10.836 31.134 10.842 31.061 10.861 31.055 10.9 31.113 10.909 31.15 10.903 31.223 10.884 31.229"/><polygon class="cls-18" points="10.937 31.23 10.976 31.173 10.986 31.137 10.98 31.064 10.961 31.057 10.922 31.114 10.913 31.15 10.918 31.223 10.937 31.23"/><polygon class="cls-18" points="11.017 28.427 10.986 28.369 10.978 28.332 10.982 28.259 10.997 28.253 11.028 28.311 11.035 28.348 11.032 28.421 11.017 28.427"/><polygon class="cls-18" points="11.058 28.425 11.086 28.366 11.092 28.329 11.087 28.257 11.073 28.251 11.045 28.31 11.038 28.348 11.043 28.42 11.058 28.425"/><polygon class="cls-18" points="11.023 29.05 10.99 28.992 10.982 28.955 10.986 28.882 11.002 28.876 11.035 28.935 11.043 28.971 11.039 29.044 11.023 29.05"/><polygon class="cls-18" points="11.067 29.049 11.098 28.99 11.104 28.952 11.099 28.88 11.083 28.874 11.053 28.934 11.046 28.971 11.051 29.043 11.067 29.049"/><polygon class="cls-18" points="11.025 29.206 10.991 29.148 10.983 29.111 10.987 29.038 11.002 29.032 11.036 29.091 11.044 29.127 11.041 29.2 11.025 29.206"/><polygon class="cls-18" points="11.069 29.205 11.1 29.146 11.108 29.109 11.101 29.036 11.086 29.03 11.055 29.09 11.047 29.127 11.053 29.199 11.069 29.205"/><polygon class="cls-18" points="11.026 29.362 10.992 29.304 10.984 29.267 10.988 29.194 11.004 29.188 11.038 29.246 11.046 29.283 11.042 29.355 11.026 29.362"/><polygon class="cls-18" points="11.071 29.361 11.103 29.301 11.111 29.264 11.104 29.192 11.089 29.186 11.057 29.245 11.049 29.282 11.055 29.355 11.071 29.361"/><polygon class="cls-18" points="11.03 29.83 10.995 29.772 10.986 29.735 10.991 29.662 11.007 29.656 11.043 29.714 11.052 29.75 11.047 29.823 11.03 29.83"/><polygon class="cls-18" points="11.078 29.828 11.112 29.769 11.12 29.732 11.114 29.659 11.096 29.654 11.063 29.713 11.055 29.75 11.061 29.823 11.078 29.828"/><polygon class="cls-18" points="11.035 30.297 10.998 30.239 10.989 30.202 10.994 30.129 11.011 30.123 11.048 30.181 11.057 30.217 11.053 30.29 11.035 30.297"/><polygon class="cls-18" points="11.085 30.295 11.121 30.236 11.129 30.199 11.122 30.126 11.105 30.121 11.069 30.18 11.061 30.217 11.067 30.29 11.085 30.295"/><polygon class="cls-18" points="11.036 30.453 10.999 30.395 10.99 30.358 10.994 30.285 11.012 30.279 11.049 30.337 11.059 30.373 11.054 30.446 11.036 30.453"/><polygon class="cls-18" points="11.088 30.451 11.124 30.392 11.133 30.355 11.126 30.282 11.108 30.277 11.071 30.336 11.063 30.373 11.069 30.446 11.088 30.451"/><polygon class="cls-18" points="11.038 30.609 11 30.55 10.991 30.514 10.995 30.441 11.014 30.435 11.051 30.493 11.061 30.529 11.056 30.602 11.038 30.609"/><polygon class="cls-18" points="11.09 30.607 11.127 30.548 11.136 30.51 11.129 30.438 11.11 30.433 11.073 30.492 11.064 30.529 11.071 30.601 11.09 30.607"/><polygon class="cls-18" points="11.044 31.232 11.004 31.174 10.994 31.137 11 31.064 11.018 31.058 11.057 31.116 11.068 31.153 11.063 31.226 11.044 31.232"/><polygon class="cls-18" points="11.099 31.23 11.139 31.171 11.148 31.134 11.141 31.061 11.121 31.056 11.081 31.115 11.072 31.152 11.079 31.225 11.099 31.23"/><polygon class="cls-18" points="11.137 28.421 11.106 28.365 11.098 28.329 11.101 28.256 11.115 28.249 11.145 28.305 11.153 28.341 11.151 28.414 11.137 28.421"/><polygon class="cls-18" points="11.176 28.419 11.203 28.36 11.209 28.323 11.202 28.25 11.189 28.245 11.162 28.304 11.156 28.341 11.162 28.413 11.176 28.419"/><polygon class="cls-18" points="11.149 28.889 11.116 28.833 11.108 28.797 11.111 28.724 11.126 28.716 11.158 28.772 11.166 28.809 11.164 28.882 11.149 28.889"/><polygon class="cls-18" points="11.191 28.887 11.22 28.827 11.227 28.79 11.219 28.718 11.204 28.712 11.176 28.771 11.169 28.808 11.176 28.881 11.191 28.887"/><polygon class="cls-18" points="11.153 29.044 11.12 28.989 11.111 28.952 11.115 28.879 11.129 28.872 11.162 28.928 11.171 28.964 11.168 29.037 11.153 29.044"/><polygon class="cls-18" points="11.196 29.042 11.226 28.983 11.232 28.946 11.225 28.873 11.21 28.868 11.181 28.927 11.174 28.964 11.181 29.037 11.196 29.042"/><polygon class="cls-18" points="11.157 29.2 11.123 29.144 11.115 29.108 11.118 29.035 11.133 29.028 11.166 29.084 11.175 29.12 11.173 29.193 11.157 29.2"/><polygon class="cls-18" points="11.201 29.198 11.232 29.139 11.238 29.102 11.231 29.029 11.215 29.024 11.185 29.083 11.178 29.12 11.185 29.192 11.201 29.198"/><polygon class="cls-18" points="11.17 29.667 11.134 29.612 11.124 29.575 11.128 29.502 11.144 29.495 11.18 29.551 11.189 29.587 11.186 29.66 11.17 29.667"/><polygon class="cls-18" points="11.216 29.665 11.249 29.606 11.256 29.569 11.248 29.496 11.231 29.491 11.199 29.55 11.192 29.587 11.199 29.66 11.216 29.665"/><polygon class="cls-18" points="11.174 29.823 11.137 29.768 11.128 29.731 11.131 29.658 11.148 29.651 11.184 29.707 11.193 29.743 11.19 29.816 11.174 29.823"/><polygon class="cls-18" points="11.221 29.821 11.254 29.762 11.262 29.725 11.254 29.652 11.237 29.647 11.204 29.706 11.197 29.743 11.204 29.815 11.221 29.821"/><polygon class="cls-18" points="11.178 29.979 11.14 29.923 11.131 29.887 11.134 29.814 11.151 29.807 11.188 29.862 11.198 29.899 11.195 29.972 11.178 29.979"/><polygon class="cls-18" points="11.226 29.977 11.26 29.917 11.267 29.88 11.259 29.808 11.243 29.802 11.209 29.861 11.201 29.899 11.209 29.971 11.226 29.977"/><polygon class="cls-18" points="11.19 30.446 11.15 30.391 11.141 30.354 11.145 30.281 11.162 30.274 11.201 30.33 11.211 30.366 11.208 30.439 11.19 30.446"/><polygon class="cls-18" points="11.241 30.444 11.277 30.385 11.285 30.347 11.277 30.275 11.259 30.27 11.223 30.329 11.215 30.366 11.223 30.438 11.241 30.444"/><polygon class="cls-18" points="11.194 30.602 11.154 30.546 11.144 30.51 11.148 30.437 11.166 30.43 11.206 30.486 11.216 30.522 11.213 30.595 11.194 30.602"/><polygon class="cls-18" points="11.246 30.6 11.283 30.54 11.291 30.503 11.282 30.431 11.264 30.425 11.228 30.485 11.22 30.522 11.227 30.594 11.246 30.6"/><polygon class="cls-18" points="11.198 30.758 11.157 30.702 11.147 30.666 11.151 30.593 11.17 30.586 11.21 30.641 11.22 30.677 11.217 30.751 11.198 30.758"/><polygon class="cls-18" points="11.251 30.756 11.289 30.696 11.296 30.659 11.288 30.586 11.269 30.581 11.232 30.64 11.224 30.677 11.232 30.75 11.251 30.756"/><polygon class="cls-18" points="11.21 31.225 11.167 31.169 11.157 31.133 11.162 31.06 11.181 31.053 11.223 31.109 11.234 31.145 11.23 31.218 11.21 31.225"/><polygon class="cls-18" points="11.266 31.223 11.305 31.163 11.314 31.126 11.305 31.054 11.286 31.048 11.247 31.108 11.238 31.145 11.246 31.217 11.266 31.223"/><polygon class="cls-18" points="11.256 28.415 11.224 28.359 11.215 28.323 11.217 28.25 11.23 28.243 11.261 28.298 11.27 28.335 11.269 28.408 11.256 28.415"/><polygon class="cls-18" points="11.295 28.413 11.321 28.354 11.326 28.317 11.318 28.245 11.304 28.239 11.278 28.298 11.273 28.335 11.281 28.407 11.295 28.413"/><polygon class="cls-18" points="11.303 29.505 11.267 29.449 11.257 29.413 11.259 29.34 11.275 29.333 11.311 29.389 11.321 29.425 11.319 29.497 11.303 29.505"/><polygon class="cls-18" points="11.349 29.503 11.38 29.443 11.386 29.407 11.377 29.334 11.361 29.328 11.33 29.388 11.324 29.425 11.332 29.497 11.349 29.503"/><polygon class="cls-18" points="11.31 29.66 11.273 29.605 11.263 29.568 11.265 29.495 11.282 29.488 11.318 29.544 11.328 29.58 11.326 29.653 11.31 29.66"/><polygon class="cls-18" points="11.356 29.658 11.388 29.599 11.394 29.562 11.386 29.49 11.369 29.484 11.338 29.543 11.331 29.58 11.34 29.652 11.356 29.658"/><polygon class="cls-18" points="11.317 29.816 11.279 29.761 11.269 29.724 11.271 29.651 11.288 29.644 11.325 29.7 11.335 29.736 11.334 29.809 11.317 29.816"/><polygon class="cls-18" points="11.364 29.814 11.396 29.755 11.403 29.718 11.394 29.645 11.377 29.64 11.345 29.699 11.338 29.736 11.347 29.809 11.364 29.814"/><polygon class="cls-18" points="11.323 29.972 11.285 29.916 11.275 29.88 11.277 29.807 11.294 29.8 11.332 29.855 11.342 29.892 11.34 29.965 11.323 29.972"/><polygon class="cls-18" points="11.372 29.969 11.405 29.91 11.412 29.873 11.403 29.801 11.385 29.795 11.353 29.854 11.346 29.892 11.354 29.964 11.372 29.969"/><polygon class="cls-18" points="11.33 30.128 11.291 30.072 11.281 30.036 11.283 29.963 11.3 29.956 11.339 30.011 11.35 30.048 11.348 30.121 11.33 30.128"/><polygon class="cls-18" points="11.38 30.125 11.413 30.066 11.42 30.029 11.411 29.957 11.393 29.951 11.36 30.01 11.353 30.047 11.362 30.12 11.38 30.125"/><polygon class="cls-18" points="11.378 31.217 11.335 31.162 11.323 31.126 11.326 31.052 11.345 31.045 11.389 31.101 11.4 31.137 11.397 31.21 11.378 31.217"/><polygon class="cls-18" points="11.433 31.214 11.472 31.155 11.48 31.118 11.47 31.045 11.45 31.04 11.412 31.1 11.404 31.137 11.414 31.209 11.433 31.214"/><polygon class="cls-18" points="11.374 28.409 11.341 28.353 11.333 28.317 11.333 28.244 11.346 28.237 11.378 28.293 11.388 28.329 11.388 28.402 11.374 28.409"/><polygon class="cls-18" points="11.414 28.407 11.439 28.349 11.444 28.312 11.434 28.239 11.42 28.233 11.395 28.292 11.39 28.329 11.399 28.401 11.414 28.407"/><polygon class="cls-18" points="11.431 29.342 11.395 29.287 11.384 29.25 11.385 29.177 11.401 29.17 11.437 29.226 11.447 29.262 11.447 29.335 11.431 29.342"/><polygon class="cls-18" points="11.476 29.34 11.505 29.281 11.511 29.244 11.501 29.172 11.485 29.166 11.456 29.225 11.45 29.262 11.46 29.335 11.476 29.34"/><polygon class="cls-18" points="11.441 29.498 11.403 29.443 11.393 29.406 11.394 29.333 11.41 29.326 11.447 29.382 11.457 29.418 11.457 29.491 11.441 29.498"/><polygon class="cls-18" points="11.487 29.496 11.517 29.437 11.522 29.4 11.512 29.327 11.495 29.322 11.466 29.381 11.46 29.418 11.47 29.49 11.487 29.496"/><polygon class="cls-18" points="11.45 29.654 11.412 29.598 11.402 29.561 11.403 29.488 11.419 29.481 11.456 29.537 11.467 29.573 11.467 29.646 11.45 29.654"/><polygon class="cls-18" points="11.497 29.651 11.528 29.592 11.533 29.555 11.523 29.483 11.506 29.477 11.476 29.536 11.47 29.573 11.48 29.646 11.497 29.651"/><polygon class="cls-18" points="11.469 29.965 11.43 29.909 11.419 29.872 11.421 29.8 11.437 29.793 11.476 29.848 11.487 29.884 11.486 29.957 11.469 29.965"/><polygon class="cls-18" points="11.518 29.962 11.55 29.903 11.556 29.866 11.546 29.794 11.528 29.788 11.496 29.847 11.49 29.884 11.5 29.957 11.518 29.962"/><polygon class="cls-18" points="11.479 30.12 11.439 30.065 11.428 30.029 11.429 29.956 11.446 29.948 11.486 30.004 11.497 30.04 11.496 30.113 11.479 30.12"/><polygon class="cls-18" points="11.528 30.118 11.561 30.059 11.567 30.021 11.557 29.949 11.539 29.944 11.506 30.003 11.5 30.04 11.51 30.112 11.528 30.118"/><polygon class="cls-18" points="11.488 30.275 11.448 30.22 11.437 30.184 11.438 30.111 11.455 30.104 11.495 30.159 11.506 30.195 11.506 30.268 11.488 30.275"/><polygon class="cls-18" points="11.539 30.273 11.572 30.214 11.578 30.177 11.568 30.104 11.55 30.099 11.517 30.158 11.51 30.195 11.52 30.268 11.539 30.273"/><polygon class="cls-18" points="11.546 31.209 11.501 31.154 11.489 31.117 11.491 31.044 11.51 31.037 11.554 31.093 11.566 31.129 11.565 31.201 11.546 31.209"/><polygon class="cls-18" points="11.601 31.206 11.638 31.146 11.646 31.109 11.635 31.037 11.615 31.032 11.578 31.091 11.57 31.128 11.581 31.201 11.601 31.206"/><polygon class="cls-18" points="11.493 28.404 11.46 28.348 11.449 28.311 11.449 28.239 11.462 28.232 11.495 28.288 11.505 28.324 11.506 28.397 11.493 28.404"/><polygon class="cls-18" points="11.533 28.402 11.557 28.343 11.561 28.306 11.55 28.234 11.536 28.229 11.512 28.287 11.508 28.324 11.518 28.396 11.533 28.402"/><polygon class="cls-18" points="11.566 29.336 11.529 29.28 11.518 29.244 11.518 29.171 11.533 29.164 11.57 29.22 11.58 29.256 11.582 29.329 11.566 29.336"/><polygon class="cls-18" points="11.611 29.334 11.639 29.275 11.644 29.238 11.633 29.165 11.617 29.16 11.589 29.219 11.584 29.256 11.594 29.328 11.611 29.334"/><polygon class="cls-18" points="11.579 29.491 11.54 29.436 11.529 29.399 11.529 29.327 11.544 29.319 11.582 29.375 11.593 29.411 11.594 29.484 11.579 29.491"/><polygon class="cls-18" points="11.624 29.489 11.653 29.43 11.658 29.393 11.647 29.321 11.63 29.315 11.602 29.374 11.597 29.411 11.607 29.484 11.624 29.489"/><polygon class="cls-18" points="11.627 30.113 11.586 30.057 11.575 30.021 11.575 29.948 11.592 29.941 11.632 29.997 11.644 30.033 11.644 30.105 11.627 30.113"/><polygon class="cls-18" points="11.677 30.11 11.708 30.051 11.714 30.014 11.702 29.942 11.684 29.936 11.653 29.996 11.647 30.033 11.658 30.105 11.677 30.11"/><polygon class="cls-18" points="11.64 30.268 11.598 30.213 11.586 30.176 11.586 30.103 11.603 30.096 11.644 30.152 11.657 30.188 11.657 30.261 11.64 30.268"/><polygon class="cls-18" points="11.69 30.265 11.722 30.206 11.728 30.169 11.716 30.097 11.698 30.091 11.666 30.15 11.66 30.188 11.671 30.26 11.69 30.265"/><polygon class="cls-18" points="11.713 31.2 11.667 31.145 11.655 31.109 11.655 31.036 11.674 31.029 11.72 31.084 11.732 31.12 11.732 31.193 11.713 31.2"/><polygon class="cls-18" points="11.769 31.197 11.805 31.137 11.811 31.1 11.799 31.028 11.779 31.023 11.743 31.082 11.736 31.12 11.748 31.192 11.769 31.197"/><polygon class="cls-18" points="11.611 28.397 11.577 28.342 11.567 28.306 11.565 28.233 11.578 28.227 11.61 28.28 11.62 28.315 11.623 28.388 11.611 28.397"/><polygon class="cls-18" points="11.648 28.391 11.669 28.329 11.671 28.291 11.66 28.22 11.646 28.216 11.625 28.277 11.623 28.315 11.634 28.387 11.648 28.391"/><polygon class="cls-18" points="11.701 29.327 11.663 29.274 11.651 29.237 11.65 29.165 11.665 29.158 11.702 29.21 11.713 29.246 11.716 29.318 11.701 29.327"/><polygon class="cls-18" points="11.745 29.32 11.771 29.259 11.775 29.221 11.762 29.149 11.746 29.145 11.721 29.207 11.716 29.245 11.728 29.317 11.745 29.32"/><polygon class="cls-18" points="11.791 30.258 11.748 30.205 11.736 30.169 11.735 30.096 11.752 30.088 11.794 30.14 11.807 30.176 11.809 30.249 11.791 30.258"/><polygon class="cls-18" points="11.842 30.251 11.873 30.188 11.878 30.15 11.865 30.079 11.846 30.075 11.816 30.138 11.811 30.175 11.823 30.247 11.842 30.251"/><polygon class="cls-18" points="11.881 31.189 11.833 31.136 11.821 31.1 11.82 31.027 11.839 31.02 11.886 31.071 11.9 31.106 11.901 31.18 11.881 31.189"/><polygon class="cls-18" points="11.939 31.181 11.975 31.118 11.981 31.079 11.967 31.008 11.946 31.004 11.911 31.068 11.904 31.105 11.918 31.177 11.939 31.181"/><polygon class="cls-18" points="11.722 28.379 11.688 28.327 11.677 28.291 11.673 28.218 11.685 28.21 11.719 28.263 11.729 28.298 11.734 28.371 11.722 28.379"/><polygon class="cls-18" points="11.759 28.373 11.779 28.313 11.781 28.275 11.767 28.203 11.753 28.199 11.734 28.26 11.732 28.298 11.745 28.369 11.759 28.373"/><polygon class="cls-6" points="11.759 28.689 11.723 28.636 11.712 28.6 11.708 28.527 11.721 28.519 11.756 28.572 11.768 28.607 11.772 28.68 11.759 28.689"/><polygon class="cls-6" points="11.798 28.683 11.82 28.622 11.822 28.584 11.808 28.513 11.794 28.508 11.773 28.569 11.77 28.607 11.784 28.679 11.798 28.683"/><polygon class="cls-6" points="11.888 29.772 11.846 29.72 11.834 29.685 11.831 29.612 11.846 29.603 11.888 29.655 11.9 29.691 11.904 29.763 11.888 29.772"/><polygon class="cls-6" points="11.936 29.765 11.963 29.703 11.967 29.665 11.952 29.594 11.935 29.59 11.908 29.652 11.904 29.69 11.918 29.761 11.936 29.765"/><polygon class="cls-6" points="12.017 30.855 11.97 30.804 11.956 30.769 11.953 30.695 11.972 30.686 12.019 30.738 12.033 30.773 12.036 30.846 12.017 30.855"/><polygon class="cls-6" points="12.073 30.847 12.106 30.784 12.111 30.746 12.096 30.675 12.076 30.672 12.043 30.734 12.037 30.772 12.052 30.844 12.073 30.847"/><polygon class="cls-18" points="12.054 31.165 12.005 31.113 11.99 31.078 11.989 31.005 12.008 30.996 12.057 31.047 12.071 31.082 12.074 31.155 12.054 31.165"/><polygon class="cls-18" points="12.112 31.157 12.147 31.093 12.152 31.055 12.136 30.984 12.116 30.981 12.081 31.043 12.075 31.082 12.09 31.153 12.112 31.157"/><polygon class="cls-18" points="11.833 28.362 11.798 28.309 11.786 28.274 11.78 28.202 11.793 28.193 11.827 28.247 11.839 28.282 11.846 28.354 11.833 28.362"/><polygon class="cls-18" points="11.87 28.357 11.889 28.296 11.89 28.259 11.875 28.188 11.861 28.183 11.843 28.244 11.842 28.282 11.856 28.353 11.87 28.357"/><polygon class="cls-6" points="11.877 28.671 11.84 28.618 11.828 28.583 11.823 28.511 11.835 28.502 11.872 28.555 11.884 28.59 11.89 28.663 11.877 28.671"/><polygon class="cls-6" points="11.916 28.666 11.937 28.604 11.938 28.567 11.923 28.496 11.908 28.491 11.888 28.552 11.887 28.59 11.902 28.661 11.916 28.666"/><polygon class="cls-6" points="11.899 28.826 11.861 28.773 11.849 28.738 11.844 28.665 11.857 28.657 11.894 28.709 11.906 28.745 11.913 28.817 11.899 28.826"/><polygon class="cls-6" points="11.94 28.82 11.961 28.759 11.962 28.721 11.947 28.65 11.932 28.645 11.911 28.707 11.909 28.744 11.924 28.815 11.94 28.82"/><polygon class="cls-6" points="12.008 29.597 11.966 29.545 11.953 29.51 11.948 29.437 11.964 29.428 12.005 29.48 12.018 29.515 12.024 29.588 12.008 29.597"/><polygon class="cls-6" points="12.054 29.59 12.08 29.528 12.083 29.491 12.067 29.42 12.05 29.416 12.025 29.477 12.022 29.515 12.038 29.586 12.054 29.59"/><polygon class="cls-6" points="12.052 29.906 12.008 29.853 11.995 29.818 11.99 29.746 12.006 29.737 12.05 29.789 12.063 29.824 12.068 29.897 12.052 29.906"/><polygon class="cls-6" points="12.101 29.898 12.128 29.836 12.131 29.799 12.114 29.728 12.097 29.724 12.07 29.786 12.067 29.823 12.082 29.895 12.101 29.898"/><polygon class="cls-6" points="12.162 30.677 12.114 30.626 12.099 30.591 12.095 30.518 12.113 30.509 12.16 30.56 12.176 30.595 12.18 30.668 12.162 30.677"/><polygon class="cls-6" points="12.216 30.669 12.247 30.607 12.251 30.569 12.234 30.498 12.214 30.494 12.184 30.557 12.179 30.595 12.195 30.666 12.216 30.669"/><polygon class="cls-6" points="12.184 30.831 12.135 30.78 12.12 30.745 12.116 30.672 12.134 30.663 12.182 30.714 12.198 30.749 12.202 30.822 12.184 30.831"/><polygon class="cls-6" points="12.239 30.823 12.271 30.76 12.275 30.722 12.258 30.652 12.238 30.648 12.206 30.711 12.202 30.749 12.218 30.82 12.239 30.823"/><polygon class="cls-18" points="12.227 31.14 12.177 31.089 12.162 31.054 12.158 30.981 12.177 30.972 12.227 31.023 12.243 31.058 12.247 31.131 12.227 31.14"/><polygon class="cls-18" points="12.285 31.131 12.319 31.068 12.323 31.03 12.306 30.959 12.285 30.956 12.252 31.019 12.246 31.057 12.263 31.128 12.285 31.131"/><polygon class="cls-18" points="11.944 28.346 11.907 28.294 11.895 28.258 11.888 28.186 11.9 28.178 11.935 28.231 11.948 28.266 11.956 28.339 11.944 28.346"/><polygon class="cls-6" points="11.994 28.654 11.957 28.602 11.943 28.566 11.937 28.494 11.949 28.486 11.987 28.538 12 28.574 12.007 28.646 11.994 28.654"/><polygon class="cls-6" points="12.172 29.731 12.127 29.679 12.113 29.644 12.107 29.572 12.122 29.563 12.166 29.614 12.18 29.649 12.187 29.722 12.172 29.731"/><polygon class="cls-6" points="12.219 29.724 12.244 29.662 12.246 29.625 12.228 29.554 12.211 29.55 12.186 29.612 12.184 29.649 12.201 29.72 12.219 29.724"/><polygon class="cls-6" points="12.348 30.807 12.298 30.756 12.283 30.721 12.277 30.649 12.296 30.639 12.345 30.69 12.361 30.725 12.367 30.798 12.348 30.807"/><polygon class="cls-6" points="12.403 30.799 12.434 30.736 12.438 30.698 12.419 30.628 12.399 30.624 12.368 30.687 12.365 30.725 12.383 30.796 12.403 30.799"/><polygon class="cls-18" points="12.399 31.115 12.347 31.064 12.331 31.029 12.326 30.956 12.345 30.947 12.396 30.998 12.413 31.032 12.419 31.105 12.399 31.115"/><polygon class="cls-18" points="12.456 31.106 12.489 31.043 12.493 31.005 12.474 30.934 12.453 30.931 12.421 30.994 12.417 31.032 12.435 31.103 12.456 31.106"/><polygon class="cls-18" points="12.574 31.088 12.521 31.038 12.505 31.003 12.498 30.931 12.517 30.921 12.569 30.972 12.586 31.006 12.594 31.078 12.574 31.088"/><polygon class="cls-18" points="12.632 31.079 12.663 31.016 12.666 30.979 12.646 30.908 12.624 30.905 12.593 30.968 12.59 31.006 12.61 31.076 12.632 31.079"/></g></g></g></g></g></g></svg>