<svg xmlns="http://www.w3.org/2000/svg" width="147" height="168" viewBox="0 0 147 168"><defs><style>.cls-1{fill:#ffd067;}.cls-2{fill:#b37336;}.cls-3{fill:#424242;}.cls-4{fill:#ff8588;}.cls-5{fill:#fff;}.cls-6{fill:#ffe5ab;}.cls-7{fill:#ff2328;}.cls-8{fill:#df1f23;}.cls-9{fill:#ebf0f0;}.cls-10{fill:#e1e8e8;}</style></defs><g id="Layer_2" data-name="Layer 2"><g id="Layer_1-2" data-name="Layer 1"><ellipse class="cls-1" cx="82.5" cy="115.5" rx="58.4962" ry="52.4966"/><path class="cls-2" d="M82.5,111C90,111,87.9922,63.3952,87.9922,63.3952A31.0128,31.0128,0,0,0,82.5,63.0075a31.0059,31.0059,0,0,0-5.4932.3879S74.9991,111,82.5,111Z"/><path class="cls-2" d="M98.6534,95c3.3466,0,3.009-26.0782,3.009-26.0782A36.16,36.16,0,0,0,95.24,65.4148S95.3068,95,98.6534,95Z"/><path class="cls-2" d="M66.3466,95C63,95,63.3376,68.9214,63.3376,68.9214A36.16,36.16,0,0,1,69.76,65.4148S69.6932,95,66.3466,95Z"/><path class="cls-3" d="M88.5,153.7494a6.7573,6.7573,0,0,1-6.75-6.75.75.75,0,0,1,1.5,0,5.25,5.25,0,0,0,10.5,0,.75.75,0,0,1,1.5,0A6.7573,6.7573,0,0,1,88.5,153.7494Z"/><path class="cls-3" d="M76.5,153.7494a6.7573,6.7573,0,0,1-6.75-6.75.75.75,0,0,1,1.5,0,5.25,5.25,0,0,0,10.5,0,.75.75,0,0,1,1.5,0A6.7573,6.7573,0,0,1,76.5,153.7494Z"/><path class="cls-3" d="M82.5,149.2494a.75.75,0,0,1-.75-.75v-9a.75.75,0,0,1,1.5,0v9A.75.75,0,0,1,82.5,149.2494Z"/><path class="cls-4" d="M90,136.5c0,3.3137-3.3579,6-7.5,6s-7.5-2.6863-7.5-6c0-3.0824,3.3579-3,7.5-3S90,133.1863,90,136.5Z"/><circle class="cls-3" cx="106.5" cy="124.5" r="6"/><circle class="cls-3" cx="58.5" cy="124.5" r="6"/><path class="cls-3" d="M59.0961,142.9245A70.5373,70.5373,0,0,0,38.5,139.51,69.3705,69.3705,0,0,0,18,142.2706a68.6452,68.6452,0,0,1,40.22,3.1063,1.3028,1.3028,0,1,0,.9547-2.4244C59.15,142.9428,59.1207,142.9326,59.0961,142.9245Z"/><path class="cls-3" d="M55.6567,149.7949A54.4653,54.4653,0,0,0,25.5,160.5a53.1827,53.1827,0,0,1,30.1715-8.1457,1.2808,1.2808,0,1,0,.0954-2.56c-.0335-.0013-.0666-.0012-.0995,0Z"/><path class="cls-3" d="M105.9039,142.93a70.534,70.534,0,0,1,20.5963-3.415,69.3672,69.3672,0,0,1,20.5,2.761,68.6474,68.6474,0,0,0-40.2195,3.1063,1.3028,1.3028,0,1,1-.9547-2.4244C105.85,142.9478,105.8793,142.9376,105.9039,142.93Z"/><path class="cls-3" d="M109.3433,149.7951A54.4653,54.4653,0,0,1,139.5,160.5a53.1827,53.1827,0,0,0-30.1715-8.1457,1.2808,1.2808,0,0,1-.0954-2.56c.0335-.0012.0666-.0011.1,0Z"/><circle class="cls-5" cx="105" cy="123" r="1.5"/><circle class="cls-5" cx="59.9996" cy="123" r="1.5"/><path class="cls-6" d="M140.1016,92.6749c-4.0223,4.7937-17.08,6.6871-25.3816-.279s-8.7046-20.1539-4.6823-24.9475,11.7132-.2916,20.0151,6.6745S144.1239,87.8813,140.1016,92.6749Z"/><path class="cls-6" d="M24.8984,92.6749c4.0223,4.7937,17.08,6.6871,25.3816-.279s8.7046-20.1539,4.6823-24.9475-11.7132-.2916-20.0151,6.6745S20.8761,87.8813,24.8984,92.6749Z"/><path class="cls-7" d="M79.4909,63.18l34.6949,9c2.0484-6.6047,7.6516-27.7481-3.1862-48-5.4342-10.1544-18.1939-26.05-30-24-8.9355,1.5513-7.9684,12.16-22.5,21-12.1121,7.3677-18.5759,4.46-27,10.5-6.5532,4.6988-13.8718,14.5107-15,37.5a74.8446,74.8446,0,0,1,39-10.5A72.9438,72.9438,0,0,1,79.4909,63.18Z"/><path class="cls-8" d="M74.25,39.75c-15.3259,0-27.75,8.3947-27.75,18.75H102C102,48.1447,89.5759,39.75,74.25,39.75Z"/><path class="cls-9" d="M117.7518,51.2907a153.4172,153.4172,0,0,1-70.5035,0,11.1413,11.1413,0,0,0-12.0914,5.3009l-.1251.2033c-4.3172,7.0061-1.4555,16.5969,5.759,19.4344a115.8261,115.8261,0,0,0,83.4185,0c7.2145-2.8376,10.0761-12.4283,5.759-19.4345l-.1254-.2035A11.141,11.141,0,0,0,117.7518,51.2907Z"/><circle class="cls-10" cx="10.5" cy="72.1803" r="10.5"/><circle class="cls-9" cx="7.5" cy="72.1802" r="6"/></g></g></svg>