<svg xmlns="http://www.w3.org/2000/svg" width="151.5" height="141" viewBox="0 0 151.5 141"><defs><style>.cls-1{fill:#ffddb0;}.cls-2{fill:#ff8588;}.cls-3{fill:#ffc33c;}.cls-4{fill:#424242;}.cls-5{fill:#fff;}.cls-6{fill:#ff3b40;}.cls-7{fill:#ebf0f0;}.cls-8{fill:#e1e8e8;}</style></defs><g id="Layer_2" data-name="Layer 2"><g id="Layer_1-2" data-name="Layer 1"><path class="cls-1" d="M51.4945,53.9807C56.0279,66.4362,49.0519,70.8324,39.71,74.2325s-17.5113,4.5164-22.0448-7.939,5.6278-37.1663,5.6278-37.1663S46.961,41.5253,51.4945,53.9807Z"/><path class="cls-2" d="M28.4448,70.404c2.5332.4467,6.2545-.7327,9.214-1.81,3.0756-1.1192,6.8069-2.6679,8.3731-4.7255.4941-.6514,1.81-2.38-.1759-7.8349C43.721,50.1657,34.4254,42.88,26.4885,37.9028c-2.8823,8.9147-5.32,20.4707-3.185,26.3388,2.0381,5.6,4.2815,6.0108,5.1341,6.1611Z"/><path class="cls-1" d="M83.5055,53.9807C78.9721,66.4362,85.9481,70.8324,95.29,74.2325s17.5113,4.5164,22.0448-7.939-5.6278-37.1663-5.6278-37.1663S88.039,41.5253,83.5055,53.9807Z"/><path class="cls-2" d="M106.5552,70.404c-2.5332.4467-6.2545-.7327-9.214-1.81-3.0756-1.1192-6.8069-2.6679-8.3731-4.7255-.4941-.6514-1.81-2.38.1759-7.8349,2.135-5.8681,11.4306-13.1535,19.3675-18.131,2.8823,8.9147,5.32,20.4707,3.185,26.3388-2.0381,5.6-4.2815,6.0108-5.1341,6.1611Z"/><path class="cls-1" d="M29.5136,135.0317a25.0967,25.0967,0,0,1-16.4969-30.9254C19.7962,81.0529,26.8663,48,67.5,48s47.7034,33.0529,54.4828,56.1064a25.0967,25.0967,0,0,1-16.4969,30.9253,123.8672,123.8672,0,0,1-75.9719,0Z"/><path class="cls-3" d="M60.5187,48.3567A35.2166,35.2166,0,0,1,33.638,106.5a35.2785,35.2785,0,0,1-19.6015-5.91C20.1691,79.2819,27.8484,51.7627,60.5187,48.3567Z"/><circle class="cls-4" cx="88.4996" cy="87" r="6"/><circle class="cls-4" cx="46.4996" cy="87" r="6"/><circle class="cls-5" cx="86.9996" cy="85.5" r="1.5"/><circle class="cls-5" cx="44.9996" cy="85.5" r="1.5"/><path class="cls-4" d="M73.5,121.2176a6.7573,6.7573,0,0,1-6.75-6.75.75.75,0,0,1,1.5,0,5.25,5.25,0,0,0,10.5,0,.75.75,0,0,1,1.5,0A6.7573,6.7573,0,0,1,73.5,121.2176Z"/><path class="cls-4" d="M61.5,121.2176a6.7573,6.7573,0,0,1-6.75-6.75.75.75,0,0,1,1.5,0,5.25,5.25,0,0,0,10.5,0,.75.75,0,0,1,1.5,0A6.7573,6.7573,0,0,1,61.5,121.2176Z"/><path class="cls-4" d="M67.5,116.7176a.75.75,0,0,1-.75-.75v-9a.75.75,0,0,1,1.5,0v9A.75.75,0,0,1,67.5,116.7176Z"/><path class="cls-2" d="M75,103.9682c0,3.3137-3.3579,6-7.5,6s-7.5-2.6863-7.5-6c0-3.0824,3.3579-3,7.5-3S75,100.6545,75,103.9682Z"/><path class="cls-6" d="M49.1156,58.5713l76.5,9q8.25,12,16.5,24c.4519-7.6822,5.94-43.1234-16.1156-67.63-13.5-15-38.5306-32.3788-61.8844-19.37C50.1329,12.36,43.583,35.6449,49.1156,58.5713Z"/><path class="cls-7" d="M45.3174,58.4608a147.6387,147.6387,0,0,1,65.8139,23.9543,14.13,14.13,0,0,0,19.0642-3.5838l.1811-.2377c5.2319-6.864,3.8305-16.7676-3.1-21.39A175.2875,175.2875,0,0,0,49.1555,28.77c-8.2808-.9138-15.72,5.772-16.1245,14.3931l-.014.2986A14.13,14.13,0,0,0,45.3174,58.4608Z"/><path class="cls-8" d="M130.3767,67.9077l-.1812.2377a14.13,14.13,0,0,1-19.0641,3.5839,147.6385,147.6385,0,0,0-65.814-23.9544,13.7851,13.7851,0,0,1-11.3925-9.1085,15.45,15.45,0,0,0-.8939,4.4963l-.014.2986a14.13,14.13,0,0,0,12.3,14.9995,147.64,147.64,0,0,1,65.814,23.9543,14.13,14.13,0,0,0,19.0641-3.5838l.1812-.2377A15.347,15.347,0,0,0,132.57,63.9189,15.4466,15.4466,0,0,1,130.3767,67.9077Z"/><circle class="cls-8" cx="141" cy="90" r="10.5"/><circle class="cls-7" cx="138" cy="90" r="5.9999"/><path class="cls-4" d="M41.0961,108.4245A70.5373,70.5373,0,0,0,20.5,105.01,69.3705,69.3705,0,0,0,0,107.7706a68.6452,68.6452,0,0,1,40.22,3.1063,1.3028,1.3028,0,1,0,.9547-2.4244C41.15,108.4428,41.1207,108.4326,41.0961,108.4245Z"/><path class="cls-4" d="M40.6567,115.2949A54.4653,54.4653,0,0,0,10.5,126a53.1827,53.1827,0,0,1,30.1715-8.1457,1.2808,1.2808,0,0,0,.0954-2.56c-.0335-.0013-.0666-.0012-.0995,0Z"/><path class="cls-4" d="M93.9039,108.43a70.534,70.534,0,0,1,20.5963-3.415,69.3672,69.3672,0,0,1,20.5,2.761,68.6474,68.6474,0,0,0-40.2195,3.1063,1.3028,1.3028,0,1,1-.9547-2.4244C93.85,108.4478,93.8793,108.4376,93.9039,108.43Z"/><path class="cls-4" d="M94.3433,115.2951A54.4653,54.4653,0,0,1,124.5,126a53.1827,53.1827,0,0,0-30.1715-8.1457,1.2808,1.2808,0,0,1-.0954-2.56c.0335-.0012.0666-.0011.1,0Z"/></g></g></svg>