<?xml version="1.0" encoding="UTF-8" standalone="no"?>
<!DOCTYPE svg PUBLIC "-//W3C//DTD SVG 1.1//EN" "http://www.w3.org/Graphics/SVG/1.1/DTD/svg11.dtd">
<svg width="100%" height="100%" viewBox="0 0 2550 2351" version="1.1" xmlns="http://www.w3.org/2000/svg" xmlns:xlink="http://www.w3.org/1999/xlink" xml:space="preserve" xmlns:serif="http://www.serif.com/" style="fill-rule:evenodd;clip-rule:evenodd;stroke-linejoin:round;stroke-miterlimit:2;">
    <g transform="matrix(1,0,0,1,-402.432,-5061.48)">
        <g transform="matrix(4.16667,0,0,4.16667,1617.99,-391.541)">
            <g transform="matrix(1,0,0,1,-504.787,51.7954)">
                <path d="M738.117,1429.69C719.526,1432.79 703.105,1449.55 704.211,1468.53C696.087,1466.17 688.538,1463.92 681.295,1461.7C659.458,1423.01 719.278,1390 739.151,1429.52C738.805,1429.58 738.461,1429.63 738.117,1429.69ZM696.706,1771.31L696.72,1771.31L696.706,1771.31ZM798.349,1451.82C791.122,1444.85 783.114,1439.32 774.458,1435.36C768.074,1385.48 710.382,1363 671.106,1392.76C678.256,1384.53 672.008,1370.13 660.764,1370.58C651.477,1370.65 642.13,1371.28 632.86,1372.48C617.443,1310.19 581.403,1197.56 515.918,1295.28C498.271,1293.72 481.993,1294.22 463.99,1296.56C399.133,1198.53 362.806,1305.24 346.873,1370.71C337.277,1371.28 323.752,1367.58 317.482,1376.86C285.624,1344.78 225.701,1363.65 214.378,1405.99C209.994,1421.98 216.442,1443.07 234.577,1444.99C249.347,1445.41 256.607,1426.02 245.446,1416.59C245.874,1409.7 251.319,1404.26 256.329,1400.01C268.324,1390.04 287.49,1390.42 297.561,1402.91C262.318,1406.17 245.045,1458.36 285.715,1467.2C276.325,1471.65 267.305,1475.82 258.427,1479.78C252.307,1481.5 247.887,1487.15 247.851,1493.66C247.485,1554.96 241.402,1625.43 241.681,1686.41C241.756,1701.81 250.896,1715.85 264.965,1722.16C335.196,1753.65 407.78,1785.22 470.3,1812.35C494.773,1823.08 523.224,1823.79 548.229,1814.37C578.765,1802.98 622.984,1785.94 664.136,1768.13C683.545,1784.99 712.76,1786.63 735.191,1774.78C770.012,1795.22 811.23,1762.33 807.474,1723.77C806.345,1702.35 774.27,1704.07 775.063,1725.02C775.778,1734.33 771.417,1745.44 761.741,1748.14C771.602,1724.29 773.381,1686.62 744.854,1677.17C746.62,1618.98 745.05,1558.02 740.18,1495.71C753.967,1493.11 763.824,1483.01 769.832,1470.1C781.966,1478.93 790.376,1492.65 792.454,1507.54C796.45,1536.95 778.315,1544.42 781.694,1558.76C808.919,1607.84 854.04,1500.8 798.349,1451.82Z" style="fill:white;fill-rule:nonzero;"/>
            </g>
            <g transform="matrix(1,0,0,1,-504.787,51.7954)">
                <path d="M237.485,1424.03C238.756,1424.97 237.28,1423.82 236.992,1423.53C236.834,1423.37 236.678,1423.2 236.528,1423.04C236.455,1422.95 236.382,1422.87 236.308,1422.78C235.946,1422.34 236.023,1422.44 236.54,1423.09C236.588,1422.91 235.854,1422.02 235.748,1421.83C235.615,1421.59 235.499,1421.34 235.371,1421.09C234.896,1420.19 235.733,1422.22 235.408,1421.16C235.244,1420.63 235.059,1420.1 234.926,1419.56C234.845,1419.22 234.868,1418.47 234.659,1418.23C234.692,1418.48 234.724,1418.73 234.757,1418.98C234.729,1418.75 234.706,1418.52 234.686,1418.29C234.666,1418.06 234.651,1417.83 234.639,1417.6C234.607,1416.95 234.606,1416.3 234.631,1415.65C234.652,1415.11 234.707,1414.57 234.748,1414.03C234.844,1412.76 234.509,1415.29 234.748,1414.02C234.794,1413.78 234.83,1413.54 234.875,1413.3C235.103,1412.09 235.411,1410.88 235.786,1409.71C235.975,1409.12 236.18,1408.53 236.402,1407.95C236.459,1407.8 236.561,1407.41 236.675,1407.26C236.59,1407.46 236.504,1407.67 236.418,1407.87C236.517,1407.64 236.617,1407.42 236.721,1407.2C237.229,1406.1 237.798,1405.03 238.427,1404C239.067,1402.94 239.75,1401.91 240.467,1400.91C240.706,1400.58 240.953,1400.25 241.196,1399.92C241.355,1399.7 241.722,1399.08 241.104,1400.04C241.501,1399.42 242.066,1398.85 242.544,1398.29C244.292,1396.27 246.193,1394.38 248.226,1392.64C248.73,1392.21 249.255,1391.69 249.815,1391.33C248.859,1391.94 249.479,1391.58 249.697,1391.42C250.028,1391.18 250.356,1390.93 250.69,1390.69C251.803,1389.89 252.946,1389.14 254.117,1388.43C255.17,1387.79 256.245,1387.19 257.34,1386.63C257.946,1386.31 258.561,1386.01 259.18,1385.73C259.489,1385.58 259.805,1385.45 260.113,1385.31C260.479,1385.15 260.362,1385.2 259.762,1385.45C259.95,1385.37 260.14,1385.29 260.329,1385.22C262.795,1384.23 265.338,1383.44 267.931,1382.87C268.595,1382.72 269.263,1382.59 269.933,1382.48C270.201,1382.43 270.471,1382.39 270.738,1382.34C272.116,1382.1 269.526,1382.46 270.919,1382.31C272.278,1382.17 273.634,1382.05 275,1382.02C276.194,1381.99 277.389,1382 278.582,1382.07C279.238,1382.11 279.894,1382.17 280.548,1382.24C280.771,1382.26 281.106,1382.26 281.332,1382.33C279.914,1381.91 281.276,1382.33 281.652,1382.39C284.185,1382.81 286.68,1383.46 289.102,1384.31C289.724,1384.53 290.336,1384.77 290.951,1385.01C291.868,1385.36 290.898,1384.96 290.754,1384.92C291.12,1385.04 291.487,1385.24 291.836,1385.4C293.031,1385.96 294.202,1386.56 295.344,1387.22C296.37,1387.8 297.375,1388.43 298.352,1389.1C298.895,1389.47 299.425,1389.85 299.954,1390.24C300.741,1390.82 299.924,1390.19 299.795,1390.12C300.176,1390.34 300.523,1390.7 300.86,1390.99C302.809,1392.63 304.613,1394.45 306.235,1396.41C306.276,1396.46 307.092,1397.47 306.544,1396.79C305.997,1396.11 306.788,1397.12 306.829,1397.17C307.175,1397.65 307.51,1398.13 307.835,1398.62C308.594,1399.76 309.293,1400.94 309.925,1402.16C310.196,1402.68 310.455,1403.21 310.702,1403.75C310.839,1404.04 310.989,1404.34 311.103,1404.65C310.671,1403.48 310.906,1404.18 310.998,1404.43C311.44,1405.65 311.874,1406.87 312.212,1408.13C312.516,1409.26 312.766,1410.41 312.959,1411.57C312.962,1411.59 313.115,1412.23 313.074,1412.3C313.043,1412.07 313.012,1411.83 312.981,1411.6C313.012,1411.84 313.041,1412.09 313.067,1412.34C313.133,1412.95 313.184,1413.57 313.22,1414.19C313.289,1415.36 313.303,1416.54 313.266,1417.71C313.248,1418.27 313.219,1418.83 313.178,1419.38C313.15,1419.75 313.118,1420.12 313.08,1420.49C313.067,1420.62 313.054,1420.74 313.041,1420.86C312.968,1421.47 312.986,1421.36 313.095,1420.53C313.226,1421.47 312.702,1422.91 312.495,1423.82C312.21,1425.09 311.862,1426.34 311.455,1427.57C311.281,1428.1 311.095,1428.63 310.899,1429.15C310.79,1429.44 310.671,1429.72 310.562,1430.01C310.275,1430.76 311.117,1428.78 310.602,1429.91C310.09,1431.03 309.55,1432.13 308.943,1433.2C308.37,1434.22 307.748,1435.21 307.08,1436.16C306.905,1436.41 306.722,1436.66 306.545,1436.91C305.986,1437.69 306.674,1436.79 306.722,1436.69C306.443,1437.27 305.741,1437.89 305.306,1438.37C304.57,1439.2 303.795,1439.98 302.982,1440.72C302.529,1441.14 302.057,1441.53 301.59,1441.93C300.865,1442.55 301.729,1441.86 301.815,1441.77C301.528,1442.07 301.107,1442.3 300.769,1442.53C299.865,1443.16 298.928,1443.74 297.944,1444.24C297.739,1444.34 297.532,1444.44 297.324,1444.54C297.219,1444.59 297.115,1444.64 297.01,1444.68C296.584,1444.87 296.587,1444.87 297.017,1444.68C297.126,1444.64 297.234,1444.59 297.342,1444.54C297.126,1444.63 296.909,1444.71 296.691,1444.79C296.362,1444.91 296.031,1445.02 295.698,1445.13C294.636,1445.46 293.549,1445.61 292.478,1445.88C291.727,1446.08 293.892,1445.76 292.719,1445.85C292.491,1445.87 292.264,1445.89 292.036,1445.91C291.361,1445.96 290.684,1445.97 290.008,1445.94C289.709,1445.93 288.125,1445.77 289.079,1445.9C290.065,1446.04 288.987,1445.87 288.833,1445.84C288.623,1445.8 288.413,1445.75 288.205,1445.7C287.688,1445.58 287.194,1445.4 286.69,1445.24C285.839,1444.95 287.062,1445.35 287.118,1445.42C286.957,1445.21 286.396,1445.05 286.158,1444.91C285.936,1444.78 285.726,1444.64 285.508,1444.5C284.982,1444.17 285.584,1444.22 285.865,1444.78C285.709,1444.47 285.01,1443.96 284.751,1443.7C284.126,1443.06 285.009,1443.93 285.003,1444.04C285.011,1443.91 284.639,1443.5 284.557,1443.36C284.394,1443.09 284.266,1442.8 284.105,1442.53C284.672,1443.48 284.114,1442.51 284.015,1442.17C283.91,1441.82 283.86,1441.45 283.758,1441.1C283.532,1440.32 283.758,1442.36 283.753,1441C283.751,1440.32 283.716,1439.66 283.765,1438.98C283.77,1438.91 283.776,1438.84 283.781,1438.76C283.848,1438.13 283.842,1438.16 283.762,1438.86C283.719,1438.7 283.894,1438.17 283.939,1437.97C284.131,1437.11 284.421,1436.3 284.692,1435.47C284.924,1434.75 284.506,1435.5 284.556,1435.76C284.523,1435.59 284.853,1435.11 284.935,1434.94C285.172,1434.46 285.427,1433.99 285.7,1433.53C286.003,1433.02 286.341,1432.54 286.668,1432.04C287.217,1431.21 286.469,1432.24 286.46,1432.28C286.511,1432.03 286.957,1431.67 287.138,1431.46C287.914,1430.57 288.761,1429.73 289.663,1428.96C289.757,1428.88 290.14,1428.51 290.214,1428.51C289.803,1428.49 289.354,1429.12 290.115,1428.59C290.658,1428.22 291.196,1427.84 291.758,1427.49C292.734,1426.89 293.749,1426.35 294.792,1425.87C295.197,1425.69 295.864,1425.63 294.671,1425.91C294.89,1425.86 295.135,1425.73 295.351,1425.65C296.036,1425.39 296.73,1425.16 297.432,1424.95C298.489,1424.64 299.562,1424.39 300.646,1424.2C300.766,1424.18 300.887,1424.16 301.008,1424.14C301.489,1424.06 301.491,1424.06 301.015,1424.13C300.897,1424.14 300.778,1424.16 300.66,1424.17C300.903,1424.14 301.146,1424.11 301.389,1424.09C301.998,1424.03 302.608,1423.98 303.219,1423.96C304.438,1423.91 305.659,1423.94 306.874,1424.05C307.107,1424.07 307.37,1424.13 307.6,1424.13C306.285,1424.15 306.977,1424.04 307.425,1424.11C308.146,1424.23 308.862,1424.38 309.573,1424.55C310.833,1424.85 312.074,1425.23 313.29,1425.67C313.638,1425.8 315.398,1426.32 314.078,1425.97C314.815,1426.16 315.613,1426.68 316.283,1427.03C317.37,1427.6 318.43,1428.22 319.459,1428.89C320.033,1429.26 320.598,1429.65 321.153,1430.05C321.353,1430.19 321.634,1430.36 321.816,1430.54C320.902,1429.64 321.778,1430.51 322.022,1430.71C324.171,1432.45 326.159,1434.39 327.981,1436.48C328.439,1437 328.886,1437.53 329.322,1438.07C329.49,1438.28 329.704,1438.5 329.841,1438.72C329.226,1437.72 329.687,1438.53 329.879,1438.79C330.745,1439.96 331.566,1441.16 332.339,1442.39C333.927,1444.92 335.324,1447.56 336.576,1450.27C336.913,1451 337.235,1451.73 337.555,1452.47C337.159,1451.56 337.496,1452.33 337.568,1452.51C337.747,1452.96 337.93,1453.4 338.107,1453.85C338.695,1455.35 339.248,1456.86 339.771,1458.38C340.823,1461.44 341.758,1464.53 342.635,1467.64C343.469,1470.6 344.25,1473.56 345.03,1476.53C345.749,1479.27 348.926,1481.2 351.683,1480.31C354.498,1479.4 356.231,1476.59 355.46,1473.66C351.914,1460.16 348.197,1446.09 340.071,1434.51C332.852,1424.23 322.192,1415.36 309.4,1413.55C297.259,1411.83 284.539,1416.44 277.329,1426.58C273.446,1432.04 271.476,1439.9 274.035,1446.3C276.602,1452.71 282.318,1456.07 289.012,1456.7C301.012,1457.82 311.816,1449.37 317.725,1439.62C323.772,1429.63 325.636,1417.1 322.782,1405.79C319.791,1393.94 311.311,1383.89 300.803,1377.88C289.847,1371.6 276.954,1369.71 264.657,1372.53C252.578,1375.3 241.292,1382.55 233.583,1392.23C229.671,1397.14 226.406,1402.47 224.845,1408.62C223.325,1414.6 223.36,1420.91 226.032,1426.55C227.367,1429.37 229.55,1431.54 232.026,1433.37C234.311,1435.05 238.16,1433.82 239.425,1431.43C240.916,1428.6 239.924,1425.83 237.485,1424.03Z" style="fill:rgb(26,57,102);fill-rule:nonzero;"/>
            </g>
            <g transform="matrix(1,0,0,1,-504.787,51.7954)">
                <path d="M259.747,1490.91C317.715,1465.27 382.98,1429.77 436.172,1406.24C454.086,1398.32 451.135,1397.29 470.72,1396.96C497.691,1396.5 522.761,1409.6 546.984,1421.47C606.065,1450.43 662.628,1468.32 726.003,1486C697.545,1527.98 656.87,1560.2 611.034,1581.91C584.002,1594.72 555.876,1606.47 526.117,1609.48C484.864,1613.65 443.831,1600.72 405.471,1584.98C354.784,1564.18 306.237,1535.99 259.747,1490.91Z" style="fill:rgb(242,107,96);fill-rule:nonzero;"/>
            </g>
            <g transform="matrix(1,0,0,1,-504.787,51.7954)">
                <path d="M331.244,1516.16C340.679,1449.41 358.039,1367.45 382.576,1304.66C387.413,1292.28 393.776,1276.74 406.42,1272.65C427.173,1265.93 439.967,1287.16 455.266,1308.47C485.451,1307.13 499.892,1308.28 524.192,1308.28C533.897,1291.89 552.453,1273.96 555.292,1272.88C576.249,1264.94 593.48,1297.11 600.643,1315.5C628.846,1387.9 645.046,1458.71 651.44,1536.15C535.126,1630.67 527.474,1627.47 331.244,1516.16Z" style="fill:white;fill-rule:nonzero;"/>
            </g>
            <g transform="matrix(1,0,0,1,-504.787,51.7954)">
                <path d="M334.051,1516.87C336.477,1499.37 339.526,1481.94 342.804,1464.57C346.732,1443.76 351.057,1423.01 355.839,1402.37C360.345,1382.93 365.208,1363.54 371.02,1344.44C373.39,1336.66 375.927,1328.92 378.823,1321.31C383.344,1309.44 388.33,1297.61 395.653,1287.15C398.868,1282.56 402.608,1278 407.561,1275.21C412.456,1272.46 417.729,1272.7 422.581,1275.43C427.768,1278.35 432.068,1282.85 436.111,1287.15C440.424,1291.73 444.402,1296.62 447.986,1301.79C449.798,1304.41 451.509,1307.09 453.13,1309.83C454.902,1312.82 459.579,1310.11 457.8,1307.1C451.157,1295.88 442.882,1285.46 433.214,1276.69C428.551,1272.46 423.191,1268.64 416.781,1267.89C410.64,1267.16 404.925,1269.9 400.306,1273.73C395.565,1277.67 391.858,1282.86 388.581,1288.03C385.092,1293.53 382.153,1299.37 379.523,1305.32C375.426,1314.6 371.873,1324.13 368.717,1333.77C362.617,1352.4 357.678,1371.42 353.094,1390.47C348.004,1411.63 343.444,1432.92 339.286,1454.28C335.69,1472.76 332.357,1491.3 329.622,1509.93C329.353,1511.76 329.09,1513.6 328.836,1515.44C328.635,1516.88 329.186,1518.34 330.724,1518.76C331.988,1519.11 333.849,1518.33 334.051,1516.87Z" style="fill:rgb(26,57,102);fill-rule:nonzero;"/>
            </g>
            <g transform="matrix(1,0,0,1,-504.787,51.7954)">
                <path d="M654.247,1527.34C651.752,1509.34 648.41,1491.46 644.883,1473.64C640.51,1451.56 635.711,1429.56 630.492,1407.66C625.573,1387.03 620.326,1366.45 614.203,1346.13C611.797,1338.15 609.257,1330.2 606.368,1322.38C601.675,1309.67 596.499,1296.87 588.872,1285.61C585.134,1280.09 580.84,1274.64 575.102,1271.08C569.307,1267.48 562.583,1266.81 556.291,1269.51C550.086,1272.16 545.05,1277.17 540.419,1281.94C535.5,1287.02 530.995,1292.5 526.926,1298.28C524.911,1301.14 523.018,1304.09 521.236,1307.1C519.459,1310.1 524.132,1312.83 525.906,1309.83C529.436,1303.87 533.409,1298.17 537.857,1292.86C542.157,1287.72 546.826,1282.69 552.031,1278.45C556.594,1274.74 562.225,1271.98 568.162,1273.78C573.884,1275.5 578.361,1280.36 581.829,1285C590.099,1296.08 595.512,1308.92 600.384,1321.76C603.23,1329.26 605.721,1336.9 608.075,1344.57C614.081,1364.13 619.205,1383.97 624.016,1403.85C629.234,1425.42 634.024,1447.08 638.418,1468.83C642.09,1487.01 645.552,1505.25 648.287,1523.59C648.544,1525.32 648.793,1527.05 649.032,1528.77C649.233,1530.22 651.083,1531.01 652.359,1530.66C653.918,1530.23 654.449,1528.79 654.247,1527.34Z" style="fill:rgb(26,57,102);fill-rule:nonzero;"/>
            </g>
            <g transform="matrix(1,0,0,1,-504.787,51.7954)">
                <path d="M442.345,1316.75C455.443,1313.95 468.69,1311.85 482.066,1311C494.03,1310.25 506.035,1310.51 517.96,1311.71C524.77,1312.4 531.541,1313.4 538.28,1314.59C539.717,1314.85 541.194,1314.2 541.607,1312.7C541.966,1311.4 541.164,1309.63 539.718,1309.38C527.439,1307.2 515.031,1305.67 502.561,1305.27C489.818,1304.86 477.089,1305.67 464.46,1307.37C456.556,1308.44 448.706,1309.87 440.907,1311.53C437.506,1312.26 438.945,1317.48 442.345,1316.75Z" style="fill:rgb(26,57,102);fill-rule:nonzero;"/>
            </g>
            <g transform="matrix(1,0,0,1,-504.787,51.7954)">
                <path d="M732.565,1707.97C736.315,1635.49 734.593,1562.67 728.675,1490.19C728.36,1486.33 724.156,1484.09 720.772,1485.96C652.744,1523.62 591.781,1553 519.948,1582.57C519.328,1582.82 518.702,1583.07 518.073,1583.3C508.758,1586.7 498.556,1586.77 489.024,1584.03C457.366,1574.95 340.413,1518.09 263.376,1490.24C260.98,1489.38 258.466,1491.15 258.452,1493.69C258.111,1554.62 251.987,1626.18 252.281,1686.32C252.336,1697.53 258.946,1707.67 269.175,1712.26C336.81,1742.58 405.524,1772.52 474.39,1802.4C496.559,1812.02 521.591,1812.66 544.231,1804.21C589.335,1787.37 667.223,1757.13 717.572,1731.13C726.324,1726.61 732.056,1717.81 732.565,1707.97Z" style="fill:rgb(242,107,96);fill-rule:nonzero;"/>
            </g>
            <g transform="matrix(1,0,0,1,-504.787,51.7954)">
                <path d="M268.116,1494.78C307.415,1510.57 346.652,1526.51 385.781,1542.72C410.491,1552.96 435.16,1563.29 459.744,1573.83C467.345,1577.09 474.939,1580.36 482.518,1583.67C485.185,1584.84 487.851,1586.01 490.514,1587.18C499.501,1591.14 508.429,1591.13 517.432,1587.22C546.041,1574.8 574.645,1562.33 602.987,1549.31C617.73,1542.53 632.129,1535.04 646.987,1528.52C667.547,1519.5 688.611,1511.67 709.029,1502.32C714.467,1499.83 719.857,1497.23 725.196,1494.53C728.304,1492.96 725.569,1488.3 722.467,1489.86C702.085,1500.16 680.879,1508.5 659.807,1517.24C649.389,1521.56 639.034,1526.03 628.862,1530.9C622.397,1533.99 616.026,1537.27 609.54,1540.33C581.138,1553.69 552.305,1566.17 523.529,1578.71C516.344,1581.84 509.311,1585.66 501.201,1584.78C496.636,1584.29 492.531,1582.19 488.385,1580.38C481.451,1577.34 474.505,1574.33 467.551,1571.34C444.361,1561.36 421.09,1551.58 397.781,1541.89C360.638,1526.45 323.392,1511.26 286.085,1496.22C280.576,1493.99 275.065,1491.78 269.554,1489.56C266.325,1488.26 264.922,1493.49 268.116,1494.78Z" style="fill:rgb(26,57,102);fill-rule:nonzero;"/>
            </g>
            <g transform="matrix(1,0,0,1,-504.787,51.7954)">
                <path d="M501.075,1595.35C500.621,1620.46 500.433,1645.58 500.518,1670.7C500.603,1695.73 500.955,1720.75 501.576,1745.77C501.927,1759.9 502.365,1774.03 502.885,1788.15C503.021,1791.81 508.731,1791.83 508.595,1788.15C507.669,1763.05 507.01,1737.94 506.623,1712.83C506.237,1687.8 506.12,1662.78 506.271,1637.75C506.357,1623.61 506.529,1609.48 506.784,1595.35C506.851,1591.67 501.141,1591.67 501.075,1595.35Z" style="fill:rgb(26,57,102);fill-rule:nonzero;"/>
            </g>
            <g transform="matrix(1,0,0,1,-504.787,51.7954)">
                <path d="M521.359,1666.58C532.156,1648.27 542.952,1629.95 553.748,1611.64C555.519,1608.63 550.846,1605.91 549.078,1608.91C538.282,1627.22 527.486,1645.54 516.69,1663.85C514.918,1666.86 519.591,1669.58 521.359,1666.58Z" style="fill:white;fill-rule:nonzero;"/>
            </g>
            <g transform="matrix(1,0,0,1,-504.787,51.7954)">
                <path d="M533.797,1720.87C542.635,1704.49 551.473,1688.1 560.312,1671.72C569.193,1655.26 578.074,1638.79 586.955,1622.33C591.95,1613.07 596.946,1603.81 601.942,1594.55C603.594,1591.49 598.927,1588.75 597.272,1591.82C588.434,1608.2 579.595,1624.59 570.757,1640.97C561.876,1657.44 552.995,1673.9 544.114,1690.36C539.118,1699.62 534.123,1708.88 529.127,1718.14C527.475,1721.21 532.142,1723.94 533.797,1720.87Z" style="fill:white;fill-rule:nonzero;"/>
            </g>
            <g transform="matrix(1,0,0,1,-504.787,51.7954)">
                <path d="M544.293,1782.62C553.7,1766.22 562.926,1749.72 572.045,1733.16C581.229,1716.48 590.304,1699.74 599.337,1682.98C608.322,1666.3 617.265,1649.61 626.232,1632.92C634.88,1616.83 643.55,1600.75 652.314,1584.73C660.638,1569.51 669.047,1554.33 677.635,1539.26C678.655,1537.47 679.677,1535.68 680.702,1533.89C682.437,1530.87 677.766,1528.14 676.032,1531.16C667.476,1546.08 659.108,1561.1 650.833,1576.18C642.092,1592.1 633.457,1608.08 624.85,1624.08C615.9,1640.72 606.983,1657.37 598.031,1674C589.008,1690.77 579.951,1707.52 570.793,1724.21C561.677,1740.83 552.463,1757.39 543.074,1773.86C541.927,1775.87 540.776,1777.88 539.623,1779.89C537.889,1782.92 542.56,1785.65 544.293,1782.62Z" style="fill:white;fill-rule:nonzero;"/>
            </g>
            <g transform="matrix(1,0,0,1,-504.787,51.7954)">
                <path d="M709.969,1553.81C695.592,1581.05 681.67,1608.54 667.562,1635.92C653.111,1663.97 638.495,1691.95 623.064,1719.47C614.756,1734.29 606.207,1748.98 597.272,1763.43C595.436,1766.4 600.113,1769.11 601.942,1766.16C618.133,1739.97 633.076,1713.04 647.552,1685.88C662.4,1658.02 676.728,1629.89 691.147,1601.81C698.913,1586.69 706.705,1571.57 714.639,1556.54C716.262,1553.46 711.596,1550.73 709.969,1553.81Z" style="fill:white;fill-rule:nonzero;"/>
            </g>
            <g transform="matrix(1,0,0,1,-504.787,51.7954)">
                <path d="M710.362,1633.27C697.402,1657.53 684.8,1681.98 672.566,1706.61C669.093,1713.6 665.65,1720.61 662.236,1727.63C661.597,1728.94 661.878,1730.55 663.206,1731.33C664.393,1732.02 666.264,1731.67 666.906,1730.36C678.933,1705.62 691.324,1681.07 704.081,1656.71C707.701,1649.79 711.352,1642.89 715.031,1636C716.671,1632.93 712.004,1630.2 710.362,1633.27Z" style="fill:white;fill-rule:nonzero;"/>
            </g>
            <g transform="matrix(1,0,0,1,-504.787,51.7954)">
                <path d="M443.677,1617.95C455.218,1632.1 466.759,1646.25 478.3,1660.4C479.224,1661.53 481.165,1661.36 482.124,1660.4C483.244,1659.28 483.05,1657.71 482.124,1656.57C470.583,1642.42 459.042,1628.27 447.501,1614.12C446.578,1612.99 444.636,1613.16 443.677,1614.12C442.557,1615.24 442.751,1616.81 443.677,1617.95Z" style="fill:white;fill-rule:nonzero;"/>
            </g>
            <g transform="matrix(1,0,0,1,-504.787,51.7954)">
                <path d="M363.379,1575.62C377.824,1595.74 392.527,1615.68 407.493,1635.42C422.473,1655.17 437.708,1674.74 453.199,1694.1C461.898,1704.97 470.678,1715.77 479.536,1726.51C480.465,1727.64 482.397,1727.48 483.36,1726.51C484.475,1725.4 484.292,1723.82 483.36,1722.69C467.743,1703.75 452.371,1684.62 437.254,1665.28C422.097,1645.89 407.201,1626.3 392.56,1606.52C384.308,1595.37 376.138,1584.16 368.049,1572.89C367.199,1571.71 365.694,1571.14 364.349,1571.92C363.179,1572.61 362.523,1574.43 363.379,1575.62Z" style="fill:white;fill-rule:nonzero;"/>
            </g>
            <g transform="matrix(1,0,0,1,-504.787,51.7954)">
                <path d="M355.523,1635.46C370.241,1653.87 384.958,1672.29 399.676,1690.7C414.393,1709.11 429.111,1727.53 443.829,1745.94C452.143,1756.35 460.456,1766.75 468.77,1777.15C469.683,1778.29 471.642,1778.1 472.594,1777.15C473.722,1776.02 473.509,1774.47 472.594,1773.33C457.877,1754.91 443.159,1736.5 428.441,1718.08C413.724,1699.67 399.006,1681.25 384.288,1662.84C375.975,1652.44 367.661,1642.04 359.347,1631.63C358.435,1630.49 356.475,1630.68 355.523,1631.63C354.395,1632.76 354.608,1634.31 355.523,1635.46Z" style="fill:white;fill-rule:nonzero;"/>
            </g>
            <g transform="matrix(1,0,0,1,-504.787,51.7954)">
                <path d="M282.863,1606.08C298.657,1625.96 314.45,1645.84 330.244,1665.71C346.094,1685.66 361.943,1705.6 377.793,1725.55C386.698,1736.76 395.603,1747.96 404.508,1759.17C405.417,1760.32 407.382,1760.12 408.332,1759.17C409.463,1758.04 409.244,1756.49 408.332,1755.35C392.538,1735.47 376.745,1715.59 360.951,1695.72C345.101,1675.77 329.252,1655.83 313.402,1635.88C304.497,1624.67 295.592,1613.47 286.687,1602.26C285.778,1601.12 283.813,1601.31 282.863,1602.26C281.732,1603.39 281.951,1604.94 282.863,1606.08Z" style="fill:white;fill-rule:nonzero;"/>
            </g>
            <g transform="matrix(1,0,0,1,-504.787,51.7954)">
                <path d="M269.578,1646.67C284.301,1665.84 299.68,1684.5 315.732,1702.58C320.307,1707.73 324.936,1712.83 329.615,1717.89C331.983,1720.45 335.8,1716.62 333.439,1714.07C317.18,1696.49 301.543,1678.34 286.577,1659.66C282.415,1654.46 278.304,1649.22 274.248,1643.94C273.36,1642.78 271.921,1642.16 270.548,1642.97C269.41,1643.63 268.683,1645.5 269.578,1646.67Z" style="fill:white;fill-rule:nonzero;"/>
            </g>
            <g transform="matrix(1,0,0,1,-504.787,51.7954)">
                <path d="M541.958,1535.19C537.969,1541.03 534.097,1552.24 533.033,1559.23C531.97,1566.22 533.659,1573.76 538.283,1579.11C542.906,1584.46 550.585,1587.25 557.394,1585.34C564.202,1583.42 569.464,1576.48 568.624,1568.95C569.32,1573 573.24,1576.07 577.34,1576.38C581.441,1576.69 585.495,1574.58 588.137,1571.43C590.78,1568.28 592.137,1564.21 590.29,1559.5C593.39,1565.77 601.925,1568.26 608.341,1565.48C614.757,1562.69 618.703,1555.58 618.706,1548.58C618.71,1541.59 615.204,1534.89 610.183,1530.02C605.161,1525.15 601.167,1521.14 594.547,1518.89C588.774,1516.92 581.508,1515.34 575.453,1516.07C568.424,1516.91 553.979,1517.59 541.958,1535.19Z" style="fill:white;fill-rule:nonzero;"/>
            </g>
            <g transform="matrix(1,0,0,1,-504.787,51.7954)">
                <path d="M539.034,1539.45C532.707,1549.89 528.406,1562.76 532.757,1574.78C534.684,1580.1 538.11,1584.95 543.018,1587.9C548.697,1591.32 555.373,1590.86 560.723,1587.02C566.168,1583.12 569.901,1576.96 570.845,1570.33L565.63,1570.33C567.368,1577.82 576.401,1581.02 583.225,1578.9C590.804,1576.55 594.001,1568.63 595.402,1561.49L590.187,1561.49C591.65,1565.5 595.422,1567.86 599.425,1568.88C603.334,1569.87 608.007,1569.87 611.568,1567.76C620.89,1562.22 621.766,1548.65 618.94,1539.31C617.358,1534.09 614.348,1529.42 610.305,1525.76C607.731,1523.43 603.895,1527.24 606.481,1529.58C612.561,1535.09 615.372,1542.8 614.869,1550.96C614.637,1554.72 613.449,1558.75 610.77,1561.51C610.185,1562.11 609.562,1562.66 608.839,1563.09C608.765,1563.13 607.888,1563.56 608.265,1563.41C607.872,1563.57 607.453,1563.69 607.041,1563.8C606.178,1564.01 606.072,1564.03 605.219,1564.07C604.375,1564.12 603.521,1564.1 602.68,1564.01C601.251,1563.86 599.355,1563.32 598.022,1562.59C597.221,1562.15 596.873,1561.9 596.361,1561.4C595.914,1560.96 595.522,1560.38 595.402,1560.05C594.571,1557.77 590.745,1557.2 590.187,1560.05C589.223,1564.96 587.438,1571.44 582.414,1573.47C580.032,1574.44 577.423,1574.36 575.017,1573.44C572.912,1572.63 571.355,1571.09 570.845,1568.89C570.276,1566.43 566.015,1566.19 565.63,1568.89C564.946,1573.7 562.781,1578.09 559.175,1581.37C555.563,1584.66 550.782,1586 546.334,1583.57C537.887,1578.94 535.242,1567.99 536.838,1559.11C537.929,1553.03 540.523,1547.42 543.704,1542.18C545.512,1539.19 540.838,1536.47 539.034,1539.45Z" style="fill:rgb(26,57,102);fill-rule:nonzero;"/>
            </g>
            <g transform="matrix(1,0,0,1,-504.787,51.7954)">
                <path d="M461.45,1534.36C465.44,1540.2 469.312,1551.4 470.375,1558.39C471.439,1565.39 469.75,1572.92 465.126,1578.28C460.503,1583.63 452.823,1586.42 446.015,1584.5C439.207,1582.59 433.945,1575.64 434.785,1568.12C434.088,1572.17 430.169,1575.24 426.068,1575.55C421.967,1575.86 417.914,1573.74 415.271,1570.59C412.629,1567.44 411.271,1563.37 413.119,1558.66C410.018,1564.93 401.484,1567.43 395.068,1564.64C388.651,1561.86 384.705,1554.74 384.702,1547.75C384.699,1540.76 388.204,1534.06 393.226,1529.19C398.247,1524.32 402.241,1520.31 408.862,1518.06C414.635,1516.09 421.9,1514.51 427.956,1515.23C434.985,1516.07 449.429,1516.76 461.45,1534.36Z" style="fill:white;fill-rule:nonzero;"/>
            </g>
            <g transform="matrix(1,0,0,1,-504.787,51.7954)">
                <path d="M460.104,1541.34C465.394,1550.07 469.338,1560.51 466.405,1570.75C465.195,1574.97 462.805,1579.05 459.189,1581.66C457.21,1583.08 454.911,1584.11 452.436,1584.06C450.026,1584.02 447.726,1582.93 445.814,1581.52C441.501,1578.33 438.923,1573.3 438.177,1568.06C437.793,1565.36 433.532,1565.6 432.962,1568.06C432.453,1570.25 430.887,1571.8 428.79,1572.6C426.374,1573.53 423.788,1573.6 421.393,1572.64C416.368,1570.62 414.582,1564.12 413.621,1559.21C413.063,1556.37 409.237,1556.93 408.406,1559.21C408.355,1559.36 407.893,1560.1 407.735,1560.27C407.13,1560.91 406.997,1561.02 406.301,1561.45C404.958,1562.28 403.779,1562.68 402.161,1563.01C399.367,1563.58 396.294,1563.39 394.098,1561.66C387.71,1556.64 387.998,1546.11 390.322,1539.17C391.683,1535.1 394.166,1531.61 397.326,1528.75C399.912,1526.41 396.078,1522.59 393.502,1524.92C385.966,1531.75 382.427,1542.06 383.731,1552.12C384.389,1557.19 386.418,1562.39 390.51,1565.67C394.052,1568.52 398.414,1569.06 402.805,1568.37C407.358,1567.65 411.973,1565.17 413.621,1560.65L408.406,1560.65C409.806,1567.79 413.004,1575.72 420.583,1578.07C427.406,1580.19 436.44,1576.98 438.177,1569.5L432.962,1569.5C434.621,1581.15 446.347,1593.53 458.789,1588.09C469.713,1583.31 473.953,1570 472.505,1558.96C471.549,1551.67 468.559,1544.86 464.773,1538.61C462.972,1535.64 458.293,1538.36 460.104,1541.34Z" style="fill:rgb(26,57,102);fill-rule:nonzero;"/>
            </g>
            <g transform="matrix(1,0,0,1,-504.787,51.7954)">
                <path d="M317.688,1498.97C305.332,1494.47 291.353,1499.1 281.816,1507.48C273.187,1515.06 268.257,1526.04 266.97,1537.32C265.679,1548.63 269.033,1560.03 276.251,1568.8C283.292,1577.36 293.878,1582.56 304.752,1583.96C316.009,1585.41 328.038,1581.92 336.113,1573.76C340.663,1569.16 343.577,1563.22 343.96,1556.73C344.319,1550.65 342.107,1544.22 337.791,1539.88C332.669,1534.73 325.317,1533.34 318.351,1534.34C312.272,1535.21 306.713,1538.15 302.1,1542.13C293.377,1549.67 288.368,1561.95 289.548,1573.44C290.841,1586 297.713,1597 307.853,1604.39C318.657,1612.27 332.667,1614.34 345.645,1612.31C348.66,1611.84 351.618,1611.1 354.506,1610.11C357.179,1609.21 359.219,1606.36 358.283,1603.46C357.424,1600.81 354.499,1598.71 351.631,1599.69C348.887,1600.62 346.081,1601.34 343.222,1601.81C342.921,1601.86 342.618,1601.9 342.318,1601.95C343.442,1601.76 342.641,1601.91 342.395,1601.94C341.636,1602.02 340.88,1602.1 340.119,1602.16C338.676,1602.27 337.228,1602.31 335.782,1602.3C334.414,1602.28 333.047,1602.21 331.685,1602.08C331.307,1602.04 330.931,1602 330.554,1601.95C330.751,1601.98 331.677,1602.13 330.639,1601.97C329.89,1601.85 329.143,1601.72 328.4,1601.57C327.065,1601.31 325.742,1600.98 324.437,1600.59C323.784,1600.4 323.137,1600.19 322.494,1599.96C322.137,1599.84 321.781,1599.71 321.428,1599.58C321.179,1599.48 319.917,1598.97 321.036,1599.44C318.617,1598.41 316.3,1597.14 314.138,1595.64C313.686,1595.33 313.031,1594.99 312.662,1594.57C313.328,1595.33 313.071,1594.89 312.801,1594.66C312.594,1594.49 312.383,1594.32 312.177,1594.15C311.145,1593.27 310.158,1592.35 309.22,1591.38C308.375,1590.5 307.581,1589.58 306.811,1588.64C306.187,1587.88 306.8,1588.66 306.911,1588.77C306.684,1588.54 306.504,1588.23 306.313,1587.96C305.882,1587.35 305.468,1586.74 305.072,1586.11C304.426,1585.09 303.827,1584.04 303.28,1582.96C303.038,1582.48 302.813,1581.99 302.584,1581.51C302.164,1580.62 302.579,1581.54 302.649,1581.69C302.477,1581.33 302.347,1580.94 302.206,1580.57C301.782,1579.44 301.414,1578.29 301.108,1577.13C300.937,1576.48 300.786,1575.83 300.654,1575.18C300.601,1574.91 300.551,1574.65 300.504,1574.39C300.419,1573.9 300.54,1573.04 300.456,1574.24C300.537,1573.08 300.217,1571.81 300.201,1570.63C300.184,1569.41 300.245,1568.18 300.377,1566.95C300.445,1566.33 300.142,1566.1 300.359,1567.04C300.324,1566.89 300.465,1566.4 300.486,1566.28C300.588,1565.7 300.707,1565.13 300.84,1564.57C301.122,1563.37 301.471,1562.18 301.886,1561.02C301.995,1560.72 302.109,1560.42 302.227,1560.11C302.378,1559.73 302.447,1558.98 302.203,1560.15C302.303,1559.67 302.645,1559.18 302.861,1558.74C303.436,1557.58 304.079,1556.45 304.786,1555.37C305.068,1554.94 305.36,1554.51 305.662,1554.09C305.706,1554.03 306.489,1553.03 305.937,1553.71C305.383,1554.39 306.195,1553.41 306.24,1553.35C307.024,1552.41 307.862,1551.52 308.749,1550.68C309.169,1550.29 309.599,1549.9 310.041,1549.53C310.186,1549.41 310.447,1549.14 310.635,1549.04C309.592,1549.55 310.272,1549.32 310.611,1549.08C311.595,1548.36 312.624,1547.71 313.692,1547.13C314.2,1546.86 314.715,1546.6 315.239,1546.35C315.645,1546.17 316.116,1545.69 315.186,1546.36C315.35,1546.24 315.739,1546.15 315.908,1546.08C317.221,1545.6 318.575,1545.22 319.952,1544.97C320.182,1544.92 320.59,1544.8 320.801,1544.82C319.876,1544.7 320.22,1544.88 320.643,1544.87C321.359,1544.83 322.064,1544.77 322.782,1544.78C323.351,1544.78 323.915,1544.83 324.482,1544.86C325.841,1544.94 323.693,1544.67 324.511,1544.87C324.919,1544.97 325.338,1545.03 325.746,1545.14C325.991,1545.2 327.407,1545.43 327.545,1545.7C327.535,1545.68 326.378,1545.13 327.408,1545.66C327.658,1545.78 327.909,1545.91 328.155,1546.04C328.463,1546.22 328.763,1546.4 329.058,1546.59C329.117,1546.63 329.176,1546.67 329.235,1546.71C329.712,1547.05 329.648,1546.99 329.042,1546.53C329.503,1546.67 330.065,1547.44 330.4,1547.79C330.569,1547.97 330.724,1548.16 330.892,1548.34C331.72,1549.23 330.431,1547.62 330.837,1548.27C331.131,1548.74 331.453,1549.19 331.725,1549.68C331.845,1549.89 331.961,1550.11 332.071,1550.33C332.123,1550.44 332.551,1551.55 332.259,1550.7C331.96,1549.84 332.357,1551.02 332.387,1551.1C332.509,1551.46 332.619,1551.82 332.717,1552.18C332.85,1552.67 332.94,1553.16 333.053,1553.65C333.286,1554.65 333.066,1553.4 333.033,1553.33C333.147,1553.56 333.106,1554.01 333.125,1554.27C333.166,1554.84 333.183,1555.41 333.173,1555.98C333.164,1556.46 333.292,1557.47 333.044,1557.86C333.498,1557.13 333.166,1557.04 333.032,1557.73C332.972,1558.04 332.905,1558.35 332.829,1558.66C332.708,1559.14 332.565,1559.63 332.402,1560.1C332.383,1560.16 331.957,1561.42 332.245,1560.58C332.527,1559.77 332.064,1560.97 332.03,1561.04C331.74,1561.64 331.421,1562.23 331.076,1562.8C330.766,1563.31 330.434,1563.81 330.083,1564.3C329.83,1564.65 329.647,1565.31 330.077,1564.32C329.997,1564.5 329.672,1564.8 329.56,1564.93C328.721,1565.9 327.807,1566.8 326.836,1567.63C326.589,1567.84 326.335,1568.11 326.055,1568.27C326.191,1568.19 326.988,1567.59 326.181,1568.17C325.682,1568.52 325.184,1568.87 324.668,1569.2C323.583,1569.89 322.454,1570.52 321.292,1571.07C320.986,1571.22 320.676,1571.35 320.37,1571.49C319.612,1571.84 321.577,1571.05 320.425,1571.46C319.967,1571.62 319.515,1571.8 319.054,1571.96C317.908,1572.34 316.739,1572.66 315.557,1572.92C315.085,1573.02 314.611,1573.11 314.135,1573.19C314.017,1573.21 313.898,1573.23 313.779,1573.25C313.301,1573.32 313.302,1573.32 313.782,1573.26C313.902,1573.24 314.022,1573.23 314.143,1573.21C313.904,1573.24 313.664,1573.27 313.424,1573.29C312.285,1573.41 311.14,1573.48 309.995,1573.48C308.908,1573.49 307.821,1573.45 306.737,1573.36C306.198,1573.32 305.652,1573.21 305.112,1573.19C305.238,1573.2 306.423,1573.39 305.471,1573.23C305.112,1573.17 304.753,1573.11 304.395,1573.05C302.124,1572.63 299.89,1572.01 297.727,1571.19C297.499,1571.11 297.273,1571.02 297.045,1570.93C296.147,1570.59 297.209,1571.03 297.323,1571.06C296.775,1570.92 296.168,1570.55 295.66,1570.3C294.673,1569.83 293.705,1569.31 292.76,1568.75C291.816,1568.2 290.895,1567.6 290.001,1566.97C289.753,1566.79 289.512,1566.61 289.263,1566.43C288.616,1565.98 290.29,1567.28 289.347,1566.5C288.877,1566.11 288.406,1565.73 287.95,1565.33C287.13,1564.61 286.341,1563.85 285.588,1563.06C285.212,1562.67 284.845,1562.26 284.487,1561.85C284.288,1561.62 284.092,1561.39 283.9,1561.16C283.823,1561.06 283.746,1560.97 283.67,1560.87C283.308,1560.42 283.366,1560.49 283.843,1561.11C283.135,1560.58 282.552,1559.3 282.09,1558.56C281.472,1557.56 280.907,1556.54 280.397,1555.48C280.26,1555.2 280.127,1554.91 279.997,1554.63C279.793,1554.17 279.345,1553.83 280.023,1554.71C279.745,1554.35 279.639,1553.73 279.487,1553.3C279.066,1552.12 278.708,1550.92 278.411,1549.71C278.144,1548.61 277.945,1547.51 277.761,1546.39C277.695,1546 277.823,1545.54 277.803,1546.72C277.807,1546.48 277.745,1546.21 277.72,1545.97C277.651,1545.28 277.601,1544.6 277.568,1543.91C277.513,1542.78 277.507,1541.65 277.547,1540.52C277.568,1539.95 277.599,1539.39 277.643,1538.83C277.682,1538.31 277.587,1537.38 277.83,1536.95C277.376,1537.76 277.717,1537.74 277.819,1537.08C277.868,1536.76 277.919,1536.45 277.974,1536.14C278.063,1535.65 278.16,1535.15 278.266,1534.66C278.531,1533.43 278.851,1532.2 279.224,1531C279.561,1529.91 279.958,1528.85 280.362,1527.79C280.495,1527.44 280.833,1527.09 280.253,1528.03C280.376,1527.83 280.46,1527.56 280.559,1527.34C280.846,1526.71 281.148,1526.08 281.466,1525.47C281.985,1524.46 282.546,1523.47 283.147,1522.51C283.764,1521.52 284.66,1520.59 285.182,1519.56C284.724,1520.46 284.774,1520.07 285.033,1519.76C285.235,1519.52 285.431,1519.28 285.634,1519.04C286,1518.6 286.375,1518.18 286.76,1517.76C287.616,1516.84 288.518,1515.96 289.464,1515.13C289.844,1514.8 290.235,1514.48 290.623,1514.15C291.679,1513.27 290.003,1514.57 290.709,1514.09C291.003,1513.89 291.285,1513.67 291.577,1513.46C292.634,1512.73 293.73,1512.05 294.859,1511.43C295.488,1511.09 296.126,1510.77 296.774,1510.46C296.991,1510.36 297.338,1510.14 297.556,1510.1C296.661,1510.24 297.089,1510.29 297.451,1510.15C298.786,1509.64 300.128,1509.18 301.512,1508.82C302.13,1508.66 302.753,1508.52 303.379,1508.4C303.726,1508.33 304.075,1508.28 304.422,1508.22C305.229,1508.07 304.367,1508.07 304.242,1508.24C304.401,1508.03 305.909,1508.09 306.132,1508.08C306.831,1508.05 307.531,1508.04 308.232,1508.06C308.862,1508.08 309.486,1508.12 310.114,1508.18C311.143,1508.26 310.082,1508.14 309.924,1508.14C310.258,1508.14 310.628,1508.25 310.957,1508.32C312.273,1508.57 313.554,1508.94 314.813,1509.4C317.475,1510.37 320.853,1508.31 321.465,1505.62C322.16,1502.57 320.539,1500.01 317.688,1498.97Z" style="fill:rgb(26,57,102);fill-rule:nonzero;"/>
            </g>
            <g transform="matrix(1,0,0,1,-504.787,51.7954)">
                <path d="M785.845,1724.37C785.937,1725.95 785.956,1727.53 785.881,1729.12C785.843,1729.93 785.782,1730.74 785.698,1731.55C785.679,1731.73 785.653,1731.92 785.636,1732.1C785.579,1732.72 785.713,1731.58 785.712,1731.58C785.628,1732 785.586,1732.44 785.514,1732.86C785.258,1734.36 784.923,1735.85 784.507,1737.31C784.31,1738.01 784.096,1738.69 783.863,1739.38C783.752,1739.7 783.291,1741.62 782.985,1741.72C782.962,1741.73 783.443,1740.7 783.184,1741.24C783.108,1741.4 783.042,1741.57 782.969,1741.73C782.823,1742.05 782.674,1742.37 782.52,1742.69C782.189,1743.37 781.839,1744.05 781.469,1744.71C780.738,1746.02 779.933,1747.29 779.054,1748.51C778.935,1748.67 778.281,1749.61 778.758,1748.92C779.229,1748.23 778.569,1749.14 778.435,1749.3C777.967,1749.87 777.482,1750.42 776.979,1750.96C776.023,1751.98 775.005,1752.94 773.93,1753.84C773.802,1753.94 773.671,1754.05 773.544,1754.15C772.838,1754.75 773.76,1753.95 773.852,1753.92C773.6,1753.99 773.265,1754.36 773.049,1754.51C772.464,1754.93 771.864,1755.32 771.252,1755.7C770.688,1756.04 770.113,1756.37 769.528,1756.67C768.972,1756.96 768.054,1757.19 767.594,1757.6C767.584,1757.61 768.67,1757.18 768.124,1757.37C767.969,1757.43 767.817,1757.5 767.663,1757.56C767.354,1757.67 767.042,1757.79 766.729,1757.9C765.996,1758.15 765.252,1758.37 764.501,1758.56C763.852,1758.73 763.197,1758.87 762.538,1758.99C762.237,1759.05 761.816,1759.04 761.539,1759.16C761.525,1759.16 762.732,1759.03 762.135,1759.07C761.909,1759.09 761.683,1759.12 761.457,1759.14C759.955,1759.28 758.444,1759.3 756.939,1759.2C756.583,1759.18 756.227,1759.15 755.872,1759.12C755.664,1759.09 754.469,1758.96 755.335,1759.06C756.198,1759.16 754.997,1758.99 754.787,1758.95C754.36,1758.88 753.934,1758.79 753.51,1758.7C751.935,1758.34 750.386,1757.87 748.874,1757.31C748.686,1757.24 748.499,1757.16 748.311,1757.09C747.912,1756.94 747.586,1757.04 748.472,1757.17C748.105,1757.12 747.65,1756.81 747.314,1756.65C746.447,1756.25 745.595,1755.81 744.757,1755.35C743.148,1754.46 741.595,1753.47 740.103,1752.4C739.744,1752.14 739.392,1751.88 739.037,1751.61C739.792,1752.17 739.058,1751.62 738.743,1751.37C737.942,1750.72 737.159,1750.04 736.396,1749.34C735.029,1748.1 733.723,1746.79 732.474,1745.42C731.875,1744.77 731.288,1744.1 730.714,1743.42C730.427,1743.08 730.143,1742.74 729.863,1742.4C729.723,1742.22 729.583,1742.05 729.445,1741.88C729.446,1741.88 728.605,1740.79 729.047,1741.38C729.434,1741.89 728.986,1741.29 728.932,1741.22C728.8,1741.04 728.667,1740.86 728.536,1740.69C728.263,1740.32 727.993,1739.94 727.727,1739.57C727.144,1738.75 726.578,1737.91 726.032,1737.07C724.98,1735.44 724,1733.76 723.111,1732.03C722.651,1731.14 722.221,1730.23 721.807,1729.31C721.378,1728.36 722.01,1729.87 721.636,1728.9C721.442,1728.39 721.248,1727.89 721.068,1727.38C720.427,1725.58 719.904,1723.73 719.53,1721.85C719.441,1721.4 719.365,1720.95 719.288,1720.5C719.106,1719.43 719.333,1721.19 719.24,1720.11C719.151,1719.07 719.07,1718.04 719.063,1717C719.058,1716.29 719.083,1715.57 719.135,1714.86C719.161,1714.5 719.201,1714.15 719.235,1713.79C719.322,1712.86 719.054,1714.88 719.27,1713.62C719.535,1712.07 719.928,1710.55 720.443,1709.06C720.563,1708.72 720.688,1708.38 720.82,1708.04C720.885,1707.87 720.972,1707.7 721.023,1707.53C721.022,1707.53 720.572,1708.53 720.839,1707.99C721.189,1707.29 721.513,1706.57 721.898,1705.89C722.251,1705.26 722.629,1704.64 723.033,1704.05C723.133,1703.9 723.491,1703.2 723.656,1703.17C723.684,1703.16 722.955,1704.01 723.357,1703.55C723.514,1703.38 723.658,1703.18 723.812,1703C724.312,1702.42 724.841,1701.85 725.399,1701.32C725.655,1701.08 725.918,1700.84 726.186,1700.61C726.319,1700.49 726.467,1700.38 726.593,1700.26C727.093,1699.78 725.757,1700.83 726.338,1700.46C726.934,1700.07 727.499,1699.65 728.115,1699.29C728.423,1699.11 728.736,1698.94 729.053,1698.77C729.213,1698.69 729.376,1698.62 729.534,1698.54C730.166,1698.21 729.513,1698.59 729.229,1698.65C729.921,1698.5 730.606,1698.14 731.296,1697.95C732.081,1697.73 732.892,1697.65 733.677,1697.45C733.77,1697.43 732.348,1697.6 732.931,1697.55C733.067,1697.54 733.203,1697.52 733.339,1697.51C733.606,1697.48 733.873,1697.46 734.14,1697.44C734.694,1697.4 735.249,1697.38 735.804,1697.39C736.29,1697.4 736.771,1697.44 737.256,1697.47C738.244,1697.53 736.417,1697.32 736.742,1697.39C737.035,1697.45 737.336,1697.49 737.63,1697.55C738.058,1697.64 738.482,1697.75 738.899,1697.88C739.103,1697.94 739.303,1698.01 739.505,1698.08C740.382,1698.37 739.527,1698.16 739.087,1697.88C739.799,1698.33 740.588,1698.66 741.298,1699.13C741.76,1699.44 742.017,1699.98 740.924,1698.83C741.059,1698.97 741.236,1699.08 741.383,1699.21C741.709,1699.5 742.021,1699.81 742.318,1700.12C742.595,1700.42 742.834,1700.75 743.112,1701.04C743.334,1701.28 742.26,1699.84 742.759,1700.6C742.892,1700.81 743.036,1701 743.168,1701.2C743.67,1701.97 744.111,1702.78 744.498,1703.61C744.59,1703.81 744.667,1704.02 744.765,1704.21C744.593,1703.87 744.249,1702.91 744.552,1703.74C744.721,1704.2 744.889,1704.65 745.038,1705.12C745.347,1706.08 745.603,1707.05 745.816,1708.04C745.917,1708.51 746.008,1708.98 746.09,1709.45C746.132,1709.69 746.171,1709.93 746.208,1710.17C746.227,1710.3 746.243,1710.42 746.263,1710.54C746.382,1711.27 746.173,1709.89 746.169,1709.83C746.308,1712 746.551,1714.13 746.542,1716.31C746.532,1718.54 746.395,1720.78 746.154,1723C746.097,1723.52 746.014,1724.04 745.966,1724.57C746.014,1724.05 746.148,1723.29 746.015,1724.17C745.969,1724.47 745.925,1724.77 745.877,1725.08C745.701,1726.18 745.499,1727.29 745.272,1728.39C744.855,1730.41 744.352,1732.41 743.752,1734.39C743.462,1735.35 743.148,1736.3 742.807,1737.24C742.658,1737.65 742.503,1738.06 742.342,1738.47C742.263,1738.67 742.181,1738.87 742.103,1739.07C741.728,1740.02 742.597,1737.96 742.282,1738.65C741.613,1740.1 740.93,1741.54 740.063,1742.89C739.824,1743.26 739.576,1743.62 739.322,1743.99C739.193,1744.17 739.063,1744.35 738.931,1744.53C738.865,1744.62 738.796,1744.71 738.731,1744.8C738.324,1745.37 739.145,1744.27 739.167,1744.24C738.522,1745 737.915,1745.78 737.243,1746.52C735.877,1748.01 734.396,1749.4 732.832,1750.69C732.643,1750.84 732.451,1750.99 732.262,1751.15C731.496,1751.77 732.861,1750.7 732.58,1750.91C732.144,1751.22 731.721,1751.55 731.283,1751.86C730.394,1752.49 729.485,1753.09 728.558,1753.67C726.731,1754.8 724.834,1755.81 722.884,1756.71C722.607,1756.84 722.329,1756.96 722.05,1757.08C721.842,1757.18 720.943,1757.56 721.852,1757.17C722.762,1756.79 721.857,1757.17 721.646,1757.25C721.36,1757.37 721.074,1757.48 720.786,1757.59C719.752,1757.98 718.706,1758.34 717.65,1758.67C715.471,1759.36 713.249,1759.9 711,1760.3C710.467,1760.39 709.932,1760.47 709.396,1760.55C708.497,1760.69 710.869,1760.38 709.623,1760.52C709.308,1760.56 708.993,1760.59 708.678,1760.63C707.547,1760.74 706.413,1760.82 705.277,1760.86C702.941,1760.93 700.598,1760.84 698.275,1760.58C697.404,1760.48 698.045,1760.53 698.613,1760.63C698.339,1760.58 698.062,1760.55 697.788,1760.51C697.191,1760.41 696.597,1760.31 696.004,1760.19C694.81,1759.95 693.625,1759.67 692.455,1759.33C691.314,1759 690.187,1758.63 689.077,1758.21C688.808,1758.11 688.54,1758.01 688.273,1757.9C688.139,1757.85 688.007,1757.79 687.872,1757.74C687.329,1757.53 688.568,1758.04 688.498,1758C687.897,1757.69 687.255,1757.45 686.645,1757.15C684.398,1756.06 682.246,1754.76 680.215,1753.3C679.922,1753.09 679.639,1752.87 679.343,1752.66C678.869,1752.33 679.851,1753.06 679.819,1753.03C679.709,1752.92 679.569,1752.84 679.45,1752.74C678.917,1752.31 678.386,1751.87 677.868,1751.42C676.844,1750.52 675.859,1749.59 674.913,1748.61C673.887,1747.55 672.907,1746.45 671.973,1745.31C671.752,1745.04 671.539,1744.76 671.316,1744.49C670.933,1744.03 671.637,1744.9 671.62,1744.89C671.507,1744.82 671.378,1744.57 671.298,1744.46C670.833,1743.83 670.373,1743.2 669.928,1742.55C668.105,1739.9 666.505,1737.1 665.074,1734.22C663.813,1731.68 660.014,1730.77 657.675,1732.28C655.076,1733.96 654.386,1736.97 655.735,1739.68C661.421,1751.14 670.317,1761.52 682.11,1766.93C692.461,1771.68 703.798,1772.73 714.938,1770.53C724.773,1768.58 734.161,1763.94 741.68,1757.31C744.939,1754.44 747.933,1751 750.085,1747.22C752.205,1743.49 753.674,1739.31 754.778,1735.17C757.342,1725.57 758.346,1715.07 756.271,1705.28C755.293,1700.67 753.341,1696.22 750.171,1692.7C746.75,1688.9 741.921,1686.99 736.901,1686.62C729.922,1686.11 722.943,1688.8 717.88,1693.55C712.316,1698.78 709.304,1706.14 708.44,1713.61C707.453,1722.14 710.211,1730.87 714.205,1738.32C718.179,1745.72 723.681,1752.7 730.076,1758.17C736.264,1763.46 743.639,1767.83 751.73,1769.35C759.048,1770.73 766.241,1769.93 773.053,1766.94C785.474,1761.49 793.886,1748.5 796.004,1735.37C796.593,1731.72 796.876,1728.06 796.661,1724.37C796.497,1721.55 794.291,1718.82 791.253,1718.96C788.463,1719.08 785.669,1721.34 785.845,1724.37Z" style="fill:rgb(26,57,102);fill-rule:nonzero;"/>
            </g>
            <g transform="matrix(1,0,0,1,-504.787,51.7954)">
                <path d="M688.522,1483.99C686.748,1482.9 685.052,1481.71 683.367,1480.48C684.121,1481.03 683.482,1480.57 683.129,1480.29C682.753,1479.99 682.38,1479.68 682.012,1479.36C681.294,1478.75 680.593,1478.12 679.909,1477.47C678.649,1476.28 677.45,1475.01 676.326,1473.69C676.044,1473.35 675.775,1473.01 675.494,1472.67C675.109,1472.21 675.762,1473.03 675.767,1473.04C675.636,1472.83 675.468,1472.64 675.323,1472.45C674.817,1471.76 674.329,1471.06 673.862,1470.35C672.943,1468.95 672.103,1467.5 671.342,1466.01C670.991,1465.33 670.658,1464.63 670.34,1463.93C670.25,1463.73 669.708,1462.73 670.115,1463.44C670.518,1464.14 669.886,1462.86 669.786,1462.6C668.593,1459.53 667.684,1456.36 666.974,1453.14C666.802,1452.36 666.641,1451.58 666.491,1450.8C666.41,1450.38 666.33,1449.95 666.255,1449.53C666.219,1449.33 666.184,1449.12 666.151,1448.92C666.132,1448.81 665.98,1447.81 666.07,1448.46C666.167,1449.15 666.039,1448.15 666.023,1447.99C665.998,1447.75 665.975,1447.51 665.954,1447.27C665.907,1446.72 665.873,1446.16 665.849,1445.6C665.802,1444.48 665.802,1443.37 665.846,1442.25C665.887,1441.21 665.976,1440.18 666.083,1439.15C666.092,1439.06 666.197,1438.27 666.108,1438.91C666.011,1439.61 666.16,1438.61 666.186,1438.44C666.276,1437.89 666.376,1437.34 666.487,1436.79C666.928,1434.59 667.533,1432.42 668.284,1430.31C668.445,1429.86 668.612,1429.41 668.786,1428.96C668.902,1428.66 669.022,1428.36 669.142,1428.07C669.11,1428.15 668.806,1428.82 669.068,1428.25C669.427,1427.48 669.778,1426.7 670.167,1425.93C670.922,1424.45 671.76,1423.01 672.673,1421.62C673.096,1420.98 673.535,1420.35 673.989,1419.72C674.121,1419.54 674.994,1418.53 674.422,1419.14C673.878,1419.72 674.736,1418.76 674.886,1418.58C675.941,1417.3 677.063,1416.07 678.241,1414.9C679.379,1413.78 680.571,1412.7 681.81,1411.69C682.1,1411.45 682.439,1411.04 682.783,1410.91C682.802,1410.9 681.897,1411.55 682.395,1411.21C682.542,1411.11 682.681,1411 682.824,1410.89C683.541,1410.36 684.272,1409.85 685.015,1409.35C686.354,1408.46 687.733,1407.63 689.145,1406.86C689.825,1406.49 690.514,1406.13 691.209,1405.79C691.625,1405.59 693.198,1404.55 693.644,1404.67C693.659,1404.67 692.612,1405.08 693.176,1404.86C693.342,1404.8 693.506,1404.73 693.672,1404.66C694.059,1404.5 694.448,1404.35 694.838,1404.21C695.619,1403.91 696.406,1403.64 697.199,1403.38C698.782,1402.86 700.389,1402.42 702.014,1402.05C702.766,1401.87 703.523,1401.72 704.282,1401.58C704.632,1401.52 704.983,1401.46 705.334,1401.4C705.569,1401.36 705.803,1401.33 706.038,1401.29C706.834,1401.16 705.836,1401.41 705.657,1401.34C706.15,1401.54 707.387,1401.14 707.953,1401.1C708.836,1401.02 709.722,1400.97 710.608,1400.95C712.2,1400.9 713.794,1400.93 715.384,1401.03C716.149,1401.08 716.909,1401.17 717.672,1401.24C718.659,1401.34 716.558,1401.06 717.811,1401.26C718.219,1401.32 718.626,1401.39 719.032,1401.46C720.66,1401.75 722.271,1402.12 723.857,1402.59C724.596,1402.81 725.329,1403.04 726.055,1403.3C726.448,1403.44 726.838,1403.58 727.227,1403.73C727.448,1403.81 728.637,1404.35 727.906,1403.99C727.12,1403.61 728.367,1404.21 728.557,1404.29C728.927,1404.47 729.294,1404.64 729.659,1404.83C730.387,1405.19 731.104,1405.57 731.809,1405.98C733.165,1406.76 734.477,1407.61 735.741,1408.53C735.928,1408.66 736.112,1408.8 736.298,1408.94C736.725,1409.25 736.345,1409.17 736.301,1408.94C736.262,1408.73 735.887,1408.6 736.299,1408.94C736.477,1409.09 736.659,1409.23 736.837,1409.38C737.46,1409.89 738.07,1410.43 738.665,1410.97C739.815,1412.03 740.911,1413.14 741.952,1414.31C742.453,1414.87 742.942,1415.44 743.418,1416.02C743.564,1416.2 743.708,1416.38 743.853,1416.57C744.051,1416.81 744.039,1417.07 743.858,1416.57C743.671,1416.05 743.679,1416.33 743.856,1416.57C744.027,1416.81 744.201,1417.04 744.371,1417.27C745.289,1418.55 746.148,1419.86 746.946,1421.21C747.775,1422.62 748.538,1424.06 749.234,1425.53C749.383,1425.85 749.529,1426.17 749.672,1426.48C749.649,1426.43 749.945,1427.13 749.954,1427.12C749.945,1427.13 749.534,1426.09 749.748,1426.64C750.045,1427.4 750.354,1428.15 750.631,1428.92C751.715,1431.93 752.531,1435.03 753.054,1438.19C753.12,1438.59 753.173,1438.99 753.239,1439.39C753.337,1439.99 753.164,1438.8 753.16,1438.82C753.128,1438.95 753.207,1439.2 753.221,1439.33C753.311,1440.2 753.396,1441.06 753.449,1441.93C753.545,1443.48 753.567,1445.04 753.514,1446.6C753.488,1447.35 753.445,1448.09 753.384,1448.84C753.351,1449.24 753.312,1449.64 753.269,1450.04C753.25,1450.21 753.228,1450.38 753.21,1450.56C753.104,1451.56 753.366,1449.63 753.244,1450.31C752.971,1451.85 752.715,1453.37 752.328,1454.88C751.928,1456.44 751.439,1457.98 750.863,1459.49C750.818,1459.6 750.425,1460.37 750.479,1460.45C750.453,1460.41 751.034,1459.21 750.616,1460.12C750.543,1460.28 750.474,1460.44 750.402,1460.6C750.063,1461.34 749.702,1462.07 749.319,1462.79C748.415,1464.49 747.366,1466.08 746.258,1467.65C745.898,1468.16 746.466,1467.4 746.473,1467.38C746.427,1467.52 746.182,1467.74 746.082,1467.86C745.776,1468.23 745.461,1468.59 745.137,1468.95C744.493,1469.66 743.816,1470.33 743.102,1470.97C742.943,1471.11 741.839,1472.05 742.396,1471.59C742.928,1471.15 741.965,1471.9 741.799,1472.01C740.964,1472.58 740.09,1473.1 739.18,1473.55C738.998,1473.64 738.81,1473.72 738.629,1473.81C738.054,1474.1 738.986,1473.64 738.984,1473.66C738.973,1473.77 737.782,1474.08 737.694,1474.11C737.343,1474.22 736.988,1474.31 736.631,1474.39C736.428,1474.44 734.86,1474.74 735.718,1474.58C736.577,1474.42 735.167,1474.59 734.965,1474.6C734.596,1474.61 734.226,1474.61 733.857,1474.6C733.425,1474.59 732.998,1474.54 732.568,1474.51C731.96,1474.47 733.085,1474.58 733.094,1474.58C732.909,1474.49 732.578,1474.49 732.371,1474.45C732.057,1474.38 729.994,1474.02 729.925,1473.73C729.914,1473.68 730.926,1474.23 730.385,1473.92C730.23,1473.83 730.057,1473.77 729.898,1473.69C729.472,1473.47 729.056,1473.24 728.655,1472.98C728.508,1472.88 728.365,1472.76 728.212,1472.68C727.667,1472.38 728.665,1472.96 728.597,1472.99C728.477,1473.02 727.785,1472.26 727.675,1472.15C727.485,1471.96 726.848,1471.47 726.841,1471.22C726.84,1471.16 727.458,1472.14 727.154,1471.59C727.038,1471.38 726.888,1471.19 726.766,1470.98C726.538,1470.59 726.139,1469.55 726.463,1470.51C726.297,1470.02 726.127,1469.54 726.002,1469.03C725.95,1468.83 725.737,1467.56 725.817,1468.23C725.899,1468.93 725.822,1468.18 725.818,1468.07C725.804,1467.69 725.782,1467.32 725.783,1466.95C725.784,1466.6 725.677,1465.66 725.863,1465.38C725.852,1465.4 725.682,1466.36 725.819,1465.71C725.865,1465.49 725.896,1465.26 725.94,1465.04C726.046,1464.53 726.175,1464.02 726.324,1463.51C726.399,1463.26 726.604,1462.14 726.832,1462.03C726.612,1462.14 726.417,1462.92 726.75,1462.22C726.836,1462.05 726.918,1461.87 727.006,1461.69C727.209,1461.28 727.425,1460.87 727.655,1460.48C727.852,1460.14 728.058,1459.8 728.273,1459.48C728.416,1459.26 728.568,1459.04 728.714,1458.83C729.188,1458.12 728.717,1458.99 728.573,1458.98C728.824,1459 730.017,1457.32 730.263,1457.07C730.912,1456.41 731.615,1455.82 732.306,1455.21C732.871,1454.71 731.531,1455.76 732.151,1455.33C732.314,1455.22 732.471,1455.09 732.633,1454.98C732.958,1454.75 733.288,1454.53 733.622,1454.31C734.462,1453.77 735.331,1453.28 736.223,1452.83C736.581,1452.65 736.949,1452.5 737.307,1452.32C737.991,1451.98 736.404,1452.66 737.12,1452.39C737.308,1452.32 737.492,1452.24 737.68,1452.17C738.553,1451.84 739.442,1451.56 740.343,1451.31C741.243,1451.07 742.152,1450.88 743.067,1450.71C743.981,1450.53 742.381,1450.76 743.458,1450.65C744.097,1450.58 744.736,1450.52 745.378,1450.49C747.551,1450.37 749.698,1450.5 751.86,1450.71C752.499,1450.78 751.698,1450.7 751.617,1450.68C751.935,1450.74 752.254,1450.78 752.571,1450.84C753.048,1450.92 753.523,1451.01 753.997,1451.1C755.185,1451.35 756.363,1451.64 757.529,1451.97C759.634,1452.57 761.703,1453.31 763.722,1454.15C762.783,1453.76 764.156,1454.35 764.432,1454.48C764.838,1454.66 765.242,1454.85 765.644,1455.05C766.562,1455.49 767.471,1455.95 768.369,1456.43C771.667,1458.2 774.778,1460.26 777.776,1462.49C778.27,1462.86 777.514,1462.28 777.488,1462.27C777.643,1462.33 777.837,1462.54 777.967,1462.65C778.339,1462.95 778.708,1463.25 779.073,1463.55C779.805,1464.16 780.524,1464.78 781.232,1465.41C782.647,1466.69 784.012,1468.01 785.324,1469.39C786.59,1470.72 787.806,1472.09 788.97,1473.51C789.271,1473.88 789.568,1474.25 789.864,1474.62C790.51,1475.43 789.397,1473.99 790.014,1474.82C790.58,1475.58 791.144,1476.35 791.687,1477.13C793.857,1480.25 795.785,1483.55 797.44,1486.97C797.825,1487.77 798.194,1488.57 798.548,1489.38C798.611,1489.52 798.786,1489.78 798.792,1489.94C798.791,1489.92 798.41,1489 798.64,1489.58C798.839,1490.09 799.047,1490.59 799.242,1491.1C799.9,1492.81 800.491,1494.55 801.011,1496.31C801.594,1498.28 802.087,1500.27 802.491,1502.29C802.681,1503.24 802.85,1504.19 803.001,1505.14C803.069,1505.57 803.331,1506.79 803.092,1505.69C803.201,1506.19 803.22,1506.73 803.274,1507.24C803.708,1511.3 803.792,1515.4 803.538,1519.48C803.474,1520.52 803.387,1521.56 803.279,1522.6C803.232,1523.04 803.179,1523.48 803.127,1523.92C803.114,1524.03 803.011,1524.78 803.108,1524.09C803.219,1523.3 803.038,1524.54 803.014,1524.7C802.708,1526.68 802.323,1528.65 801.857,1530.6C801.375,1532.63 800.807,1534.63 800.154,1536.61C799.851,1537.53 799.53,1538.44 799.191,1539.34C799.008,1539.83 798.82,1540.31 798.627,1540.8C798.485,1541.15 797.962,1542.33 798.402,1541.36C796.734,1545.03 794.905,1548.56 792.703,1551.94C791.155,1554.32 792.146,1558.02 794.643,1559.34C797.34,1560.77 800.391,1559.94 802.042,1557.4C811.958,1542.18 816.209,1523.25 813.85,1505.25C811.576,1487.9 803.419,1471.74 790.818,1459.57C784.833,1453.79 777.884,1448.85 770.331,1445.34C760.821,1440.92 750.467,1438.45 739.996,1440.31C731.407,1441.84 723.221,1447.05 718.618,1454.51C716.094,1458.61 714.603,1463.68 715.039,1468.51C715.533,1473.97 718.04,1478.57 722.465,1481.81C729.685,1487.09 740.11,1486.26 747.258,1481.35C754.432,1476.43 759.231,1468.73 761.932,1460.57C766.603,1446.45 764.282,1430.52 757.314,1417.58C750.286,1404.52 737.942,1394.37 723.297,1391.3C708.506,1388.19 692.634,1391.49 680.003,1399.72C665.67,1409.05 656.045,1424.28 655.064,1441.53C654.606,1449.58 656.482,1458.15 659.421,1465.65C662.33,1473.06 666.584,1479.77 672.405,1485.26C675.648,1488.31 679.275,1490.99 683.063,1493.33C685.473,1494.82 689.12,1493.93 690.462,1491.39C691.859,1488.75 691.094,1485.58 688.522,1483.99Z" style="fill:rgb(26,57,102);fill-rule:nonzero;"/>
            </g>
            <g transform="matrix(1,0,0,1,-504.787,51.7954)">
                <path d="M545.343,1380.57C551.466,1380.57 556.43,1385.53 556.43,1391.65C556.43,1397.78 551.466,1402.74 545.343,1402.74C539.22,1402.74 534.256,1397.78 534.256,1391.65C534.256,1385.53 539.22,1380.57 545.343,1380.57Z" style="fill:rgb(26,57,102);fill-rule:nonzero;"/>
            </g>
            <g transform="matrix(1,0,0,1,-504.787,51.7954)">
                <path d="M445.802,1380.57C451.925,1380.57 456.888,1385.53 456.888,1391.65C456.888,1397.78 451.925,1402.74 445.802,1402.74C439.679,1402.74 434.715,1397.78 434.715,1391.65C434.715,1385.53 439.679,1380.57 445.802,1380.57Z" style="fill:rgb(26,57,102);fill-rule:nonzero;"/>
            </g>
            <g transform="matrix(1,0,0,1,-504.787,51.7954)">
                <path d="M573.977,1409.08C592.793,1409.08 608.048,1415.37 608.048,1423.14C608.048,1430.9 592.793,1437.2 573.977,1437.2C555.16,1437.2 539.905,1430.9 539.905,1423.14C539.905,1415.37 555.16,1409.08 573.977,1409.08Z" style="fill:rgb(251,210,207);fill-rule:nonzero;"/>
            </g>
            <g transform="matrix(1,0,0,1,-504.787,51.7954)">
                <path d="M418.714,1409.08C437.53,1409.08 452.785,1415.37 452.785,1423.14C452.785,1430.9 437.53,1437.2 418.714,1437.2C399.897,1437.2 384.642,1430.9 384.642,1423.14C384.642,1415.37 399.897,1409.08 418.714,1409.08Z" style="fill:rgb(251,210,207);fill-rule:nonzero;"/>
            </g>
            <g transform="matrix(1,0,0,1,-504.787,51.7954)">
                <path d="M588.532,1399.84C606.514,1393.29 625.346,1389.08 644.423,1387.5C649.845,1387.05 655.282,1386.82 660.721,1386.77C664.2,1386.75 664.208,1381.34 660.721,1381.37C641.194,1381.52 621.666,1384.26 602.863,1389.54C597.544,1391.03 592.285,1392.73 587.094,1394.62C585.723,1395.12 584.796,1396.46 585.205,1397.95C585.569,1399.27 587.153,1400.34 588.532,1399.84Z" style="fill:rgb(26,57,102);fill-rule:nonzero;"/>
            </g>
            <g transform="matrix(1,0,0,1,-504.787,51.7954)">
                <path d="M592.681,1422.74C611.641,1420.47 630.94,1420.64 649.836,1423.44C655.244,1424.24 660.618,1425.26 665.951,1426.46C669.34,1427.23 670.787,1422.02 667.388,1421.25C648.364,1416.95 628.771,1415.14 609.282,1415.97C603.733,1416.21 598.196,1416.67 592.681,1417.33C591.231,1417.51 589.977,1418.45 589.977,1420.04C589.977,1421.36 591.221,1422.92 592.681,1422.74Z" style="fill:rgb(26,57,102);fill-rule:nonzero;"/>
            </g>
            <g transform="matrix(1,0,0,1,-504.787,51.7954)">
                <path d="M597.501,1410.96C614.853,1406.1 633.2,1404.87 651.033,1407.55C652.475,1407.77 653.94,1407.19 654.359,1405.66C654.71,1404.38 653.924,1402.55 652.471,1402.33C633.648,1399.5 614.405,1400.6 596.064,1405.74C592.717,1406.68 594.139,1411.9 597.501,1410.96Z" style="fill:rgb(26,57,102);fill-rule:nonzero;"/>
            </g>
            <g transform="matrix(1,0,0,1,-504.787,51.7954)">
                <path d="M402.859,1390.83C384.203,1385.18 364.784,1382.02 345.299,1381.46C339.738,1381.29 334.173,1381.35 328.616,1381.62C325.151,1381.78 325.131,1387.19 328.616,1387.03C347.709,1386.12 366.874,1387.72 385.535,1391.87C390.882,1393.06 396.179,1394.46 401.421,1396.05C404.76,1397.06 406.187,1391.84 402.859,1390.83Z" style="fill:rgb(26,57,102);fill-rule:nonzero;"/>
            </g>
            <g transform="matrix(1,0,0,1,-504.787,51.7954)">
                <path d="M398.539,1413.77C379.03,1412.53 359.372,1413.91 340.221,1417.83C334.817,1418.94 329.46,1420.26 324.155,1421.77C320.814,1422.72 322.234,1427.94 325.593,1426.98C344.028,1421.73 363.093,1418.94 382.263,1418.74C387.692,1418.68 393.121,1418.84 398.539,1419.18C399.998,1419.28 401.243,1417.87 401.243,1416.48C401.243,1414.94 400.002,1413.87 398.539,1413.77Z" style="fill:rgb(26,57,102);fill-rule:nonzero;"/>
            </g>
            <g transform="matrix(1,0,0,1,-504.787,51.7954)">
                <path d="M394.517,1402.43C375.93,1398.31 356.645,1398.19 338.006,1402.06C336.575,1402.36 335.748,1404.04 336.117,1405.39C336.525,1406.87 338.009,1407.57 339.443,1407.27C357.1,1403.61 375.475,1403.75 393.079,1407.64C396.471,1408.39 397.919,1403.18 394.517,1402.43Z" style="fill:rgb(26,57,102);fill-rule:nonzero;"/>
            </g>
            <g transform="matrix(1,0,0,1,-504.787,51.7954)">
                <path d="M493.422,1407.92C493.197,1407.75 492.98,1407.55 492.768,1407.37C490.876,1405.68 484.02,1400.33 488.778,1398C491.692,1396.58 495.763,1397.09 498.86,1397.48C499.698,1397.59 500.538,1397.71 501.362,1397.89C504.906,1398.69 504.475,1401.32 502.546,1403.67C500.903,1405.67 497.92,1409.38 494.924,1408.71C494.365,1408.59 493.876,1408.28 493.422,1407.92Z" style="fill:rgb(26,57,102);fill-rule:nonzero;"/>
            </g>
            <g transform="matrix(1,0,0,1,-504.787,51.7954)">
                <path d="M493.068,1401.09L493.068,1421.09C493.068,1424.57 498.476,1424.58 498.476,1421.09L498.476,1401.09C498.476,1397.61 493.068,1397.6 493.068,1401.09Z" style="fill:rgb(26,57,102);fill-rule:nonzero;"/>
            </g>
        </g>
    </g>
</svg>
