<?xml version="1.0" encoding="UTF-8" standalone="no"?>
<!DOCTYPE svg PUBLIC "-//W3C//DTD SVG 1.1//EN" "http://www.w3.org/Graphics/SVG/1.1/DTD/svg11.dtd">
<svg width="100%" height="100%" viewBox="0 0 3037 2910" version="1.1" xmlns="http://www.w3.org/2000/svg" xmlns:xlink="http://www.w3.org/1999/xlink" xml:space="preserve" xmlns:serif="http://www.serif.com/" style="fill-rule:evenodd;clip-rule:evenodd;stroke-linejoin:round;stroke-miterlimit:2;">
    <g transform="matrix(1,0,0,1,-3494.22,-5564.44)">
        <g transform="matrix(4.16667,0,0,4.16667,0,0)">
            <path d="M844.031,1653.43C845.891,1660.88 850.236,1667.81 856.35,1672.72C845.77,1682.26 853.044,1701.28 867.179,1701.5C879.676,1712.64 899.71,1712.18 913.61,1702.72C914.492,1703.59 915.451,1704.4 916.483,1705.12L961.86,1737.07C961.485,1747.15 956.195,1760.94 964.214,1769.62C961.624,1830.7 958.273,1896.25 1006.29,1935.88C952.218,2058.42 1065.08,2060.07 1114.34,1972.04C1179.26,1985.16 1246.23,1990.67 1308.55,1973.7C1325.23,2002.48 1352.06,2025.92 1385.12,2033.44C1438.4,2038.53 1435.83,1984.25 1421.02,1949.12C1530.13,1910.27 1563.39,1764.55 1463.88,1694.11C1464.72,1693.09 1503.57,1655.93 1502.77,1655.77C1517.97,1662.84 1537.9,1660.32 1548.45,1647.2C1562.46,1644.72 1566.42,1624.75 1554.55,1617.13C1559.77,1611.33 1563.09,1603.84 1563.77,1595.99C1572.19,1586 1564.65,1569.26 1551.64,1568.93C1545.63,1564.68 1537.6,1562.89 1529.58,1563.47C1527.81,1560.23 1525.35,1557.3 1522.52,1554.94C1520.19,1540.25 1499.02,1536.52 1491.79,1549.37C1479.73,1553.11 1470.49,1564.82 1467.12,1577.43C1464.41,1576.58 1429.18,1584.27 1425.62,1584.71C1422.68,1576.23 1421.76,1565.58 1413.12,1561.1C1412.67,1559.41 1412.23,1557.71 1411.78,1556.01C1439.63,1564.8 1446.3,1524.06 1416.85,1522.88C1418.66,1517.92 1417.97,1512.31 1415.02,1507.82C1434.5,1505.17 1432.26,1473.96 1412.26,1474.57C1404.54,1474.63 1396.69,1475.02 1388.79,1475.73C1366,1399.61 1324.35,1262.21 1242.73,1383.61C1219.14,1381.14 1197.54,1381.61 1173.57,1384.73C1092.48,1263.39 1050.74,1394.83 1027.03,1474.88C1018.1,1474.45 1009.32,1474.48 1000.36,1474.9C980.205,1475.6 979.026,1506.36 999.116,1508.29C996.416,1512.87 996.029,1518.56 998.107,1523.39C969.995,1525.82 976.732,1565.6 1003.65,1556.57C1000.92,1566.92 998.3,1577.2 995.811,1587.34C986.199,1595.01 986.226,1609.49 982.212,1620.44C978.872,1620.56 938.517,1618.46 936.514,1619.68C931.225,1607.6 920.01,1598 907.621,1595.97C898.438,1584.27 878.068,1591.5 878.144,1606.24C875.64,1609.16 873.966,1611.77 872.535,1615.76C864.399,1616.56 857.231,1619.38 851.62,1624.7C838.649,1627.12 834.019,1645.05 844.031,1653.43Z" style="fill:white;fill-rule:nonzero;"/>
            <path d="M1436.08,1805.12C1436.08,1750.74 1422.48,1689.05 1410.08,1618.83C1392.9,1530.14 1369.39,1464.5 1334.89,1379.64C1316.23,1349.11 1304.99,1342.58 1289.24,1356.88C1273.49,1371.18 1255.58,1375.64 1252.53,1399.24C1225.45,1401.29 1190.15,1397.2 1163.07,1399.24C1152.4,1388.57 1158.54,1394.23 1149.18,1379.29C1139.81,1364.36 1125.34,1347.01 1108.48,1352.19C1092.88,1356.99 1087.32,1365.04 1080.56,1379.9C1057.35,1430.95 1033.86,1496.9 1022.53,1550.63C1006.18,1628.12 986.237,1691.76 981.563,1781.05C980.099,1809.03 977.629,1830.29 983.265,1857.74C988.901,1885.19 1001.12,1918.65 1027.22,1928.86C1016.76,1943.17 1012.69,1956.79 1008.53,1974.33C1005.79,1985.83 1009.01,2006.15 1018.03,2013.79C1027.07,2021.44 1040.04,2016.14 1050.74,2011.06C1075.33,1999.38 1092.34,1978.18 1104.86,1954.01C1119.56,1960.8 1287.1,1966.06 1315.87,1953.22C1328.98,1978.63 1345.46,1997.65 1365.69,2007.79C1373.36,2011.64 1392.71,2018.32 1401.2,2016.99C1417.91,2014.38 1414.12,1993.91 1410.93,1972.93C1408.38,1956.2 1403.85,1943.42 1395.22,1928.86C1415.87,1908.21 1421.33,1892.86 1429.63,1870.76C1437.93,1848.67 1436.08,1828.72 1436.08,1805.12Z" style="fill:white;fill-rule:nonzero;"/>
            <path d="M1024.57,1927.17C1019.94,1937.67 1015.8,1948.42 1012.26,1959.34C1008.74,1970.18 1005.39,1981.55 1005.43,1993.04C1005.44,2000.12 1006.79,2007.46 1011.74,2012.83C1016.28,2017.75 1023.13,2020.12 1029.7,2020.33C1037.38,2020.57 1044.82,2017.81 1051.61,2014.48C1057.79,2011.46 1063.7,2007.86 1069.25,2003.8C1081.95,1994.5 1092.81,1982.91 1101.18,1969.56C1103.47,1965.89 1097.68,1962.53 1095.39,1966.18C1088.6,1977.02 1080.03,1986.66 1070.11,1994.74C1065.23,1998.71 1060,2002.25 1054.54,2005.36C1048.61,2008.74 1042.35,2011.86 1035.6,2013.17C1029.92,2014.26 1023.81,2013.56 1018.96,2010.27C1013.98,2006.9 1012.42,2000.91 1012.17,1995.23C1011.71,1984.64 1014.56,1974.44 1017.74,1964.2C1021.29,1952.76 1025.63,1941.26 1030.35,1930.55C1031.08,1928.9 1030.84,1926.95 1029.15,1925.97C1027.73,1925.14 1025.31,1925.51 1024.57,1927.17Z" style="fill:rgb(26,57,102);fill-rule:nonzero;"/>
            <path d="M1392.58,1930.55C1396.72,1939.93 1400.54,1949.96 1403.83,1959.93C1405.62,1965.37 1407.26,1970.85 1408.59,1976.42C1409.74,1981.23 1410.59,1985.56 1410.76,1990.32C1410.97,1996.1 1410.81,2002.82 1406.94,2007.54C1403.42,2011.84 1397.65,2013.68 1392.24,2013.64C1385.32,2013.6 1378.72,2010.8 1372.67,2007.68C1366.99,2004.75 1361.55,2001.35 1356.41,1997.54C1344.95,1989.02 1335.12,1978.27 1327.54,1966.18C1325.26,1962.53 1319.46,1965.89 1321.76,1969.56C1329.08,1981.25 1338.35,1991.73 1349.14,2000.33C1354.58,2004.66 1360.34,2008.58 1366.43,2011.94C1372.93,2015.52 1379.9,2018.84 1387.31,2019.91C1394.09,2020.9 1401.32,2020.03 1407.16,2016.19C1413.33,2012.12 1416.33,2005.66 1417.19,1998.49C1418.59,1986.88 1415.5,1975.09 1412.16,1964.07C1408.35,1951.51 1403.66,1939.18 1398.36,1927.17C1397.63,1925.52 1395.22,1925.13 1393.78,1925.97C1392.08,1926.97 1391.85,1928.89 1392.58,1930.55Z" style="fill:rgb(26,57,102);fill-rule:nonzero;"/>
            <path d="M1147.07,1409.5C1163.29,1406.03 1179.69,1403.43 1196.26,1402.38C1211.07,1401.45 1225.93,1401.77 1240.7,1403.26C1249.13,1404.12 1257.52,1405.35 1265.86,1406.83C1267.64,1407.15 1269.47,1406.35 1269.98,1404.49C1270.43,1402.87 1269.43,1400.69 1267.64,1400.37C1252.44,1397.68 1237.08,1395.78 1221.63,1395.29C1205.85,1394.78 1190.09,1395.78 1174.45,1397.89C1164.67,1399.22 1154.95,1400.98 1145.29,1403.04C1141.08,1403.95 1142.86,1410.4 1147.07,1409.5Z" style="fill:rgb(26,57,102);fill-rule:nonzero;"/>
            <path d="M1043.7,1933.18C1029.81,1928.18 1016.39,1919.96 1006.98,1908.43C999.482,1899.25 994.676,1888 991.315,1876.73C984.253,1853.04 982.872,1827.86 983.131,1803.27C983.622,1756.54 990.659,1709.92 999.585,1664.14C1008.58,1618.01 1019.94,1572.34 1032.75,1527.12C1041.87,1494.9 1051.66,1462.83 1062.63,1431.19C1068.23,1415.06 1074.07,1398.82 1082.39,1383.87C1086.05,1377.29 1090.18,1370.74 1095.32,1365.2C1099.97,1360.18 1106.06,1355.42 1113.25,1355.54C1120.39,1355.66 1126.52,1360.49 1131.55,1365.1C1137.31,1370.4 1142.64,1376.17 1147.55,1382.26C1152.3,1388.16 1156.56,1394.43 1160.42,1400.93C1162.62,1404.64 1168.42,1401.27 1166.21,1397.55C1158.07,1383.86 1148.02,1371.16 1136.28,1360.37C1131.04,1355.55 1124.98,1350.86 1117.86,1349.38C1110.57,1347.86 1103.39,1350.02 1097.46,1354.34C1085.34,1363.15 1077.43,1377.8 1071.21,1391.09C1066.94,1400.23 1063.26,1409.66 1059.81,1419.14C1049.34,1447.97 1040.28,1477.35 1031.64,1506.78C1018.28,1552.31 1006.37,1598.31 996.679,1644.77C986.676,1692.7 978.586,1741.46 976.746,1790.46C975.831,1814.82 976.442,1839.54 981.185,1863.51C983.749,1876.47 987.657,1889.37 994.042,1901C1000.51,1912.77 1009.77,1922.21 1021.07,1929.45C1027.6,1933.64 1034.63,1937.01 1041.92,1939.64C1045.99,1941.1 1047.73,1934.63 1043.7,1933.18Z" style="fill:rgb(26,57,102);fill-rule:nonzero;"/>
            <path d="M1428.03,1691.37C1422.23,1656.62 1414.84,1622.15 1406.44,1587.94C1398.91,1557.31 1390.57,1526.89 1381.53,1496.67C1375.01,1474.91 1368.17,1453.24 1360.75,1431.76C1358.56,1425.41 1356.32,1419.08 1353.92,1412.8C1347.87,1396.95 1341.2,1381.05 1331.07,1367.31C1326.49,1361.1 1321.11,1354.97 1314.04,1351.54C1306.61,1347.93 1298.66,1348.19 1291.32,1351.91C1284.17,1355.53 1278.22,1361.6 1272.74,1367.34C1266.9,1373.46 1261.54,1380.05 1256.69,1386.99C1254.29,1390.42 1252.02,1393.95 1249.89,1397.55C1247.69,1401.27 1253.47,1404.64 1255.67,1400.93C1263.92,1387.01 1274.25,1373.95 1286.53,1363.34C1291.74,1358.83 1298.38,1354.55 1305.6,1355.72C1312.62,1356.85 1318.28,1362.11 1322.68,1367.36C1333.09,1379.76 1339.86,1395.11 1345.72,1410.06C1348.41,1416.93 1350.92,1423.86 1353.35,1430.82C1360.44,1451.16 1366.98,1471.69 1373.22,1492.31C1381.99,1521.24 1390.1,1550.38 1397.49,1579.7C1405.9,1613.1 1413.38,1646.75 1419.42,1680.66C1420.16,1684.82 1420.88,1688.98 1421.58,1693.15C1421.87,1694.93 1424.08,1695.93 1425.69,1695.49C1427.59,1694.97 1428.33,1693.16 1428.03,1691.37Z" style="fill:rgb(26,57,102);fill-rule:nonzero;"/>
            <path d="M1333.79,1942.75C1308.37,1955.08 1280.02,1960.71 1252.01,1962.83C1219.78,1965.28 1187.23,1963.28 1155.29,1958.63C1136.43,1955.88 1117.71,1952.18 1099.17,1947.71C1094.99,1946.7 1093.2,1953.15 1097.39,1954.17C1130.61,1962.19 1164.53,1967.78 1198.66,1969.79C1229.88,1971.62 1261.6,1970.49 1292.22,1963.79C1307.72,1960.41 1322.88,1955.46 1337.17,1948.54C1338.79,1947.75 1339.23,1945.43 1338.37,1943.96C1337.4,1942.29 1335.42,1941.96 1333.79,1942.75Z" style="fill:rgb(26,57,102);fill-rule:nonzero;"/>
            <path d="M1485.32,1640.5C1487.13,1635.93 1492.62,1633.74 1497.53,1634.1C1502.43,1634.46 1506.94,1636.78 1511.4,1638.87C1515.85,1640.95 1520.64,1642.89 1525.53,1642.4C1533.19,1641.63 1539.52,1634.09 1538.94,1626.42C1538.36,1618.74 1530.97,1612.24 1523.28,1612.63C1530.42,1612.12 1537.78,1610.14 1542.96,1605.21C1548.14,1600.28 1550.43,1591.85 1546.76,1585.71C1543.4,1580.09 1536.03,1577.84 1529.57,1578.88C1523.1,1579.92 1517.39,1583.63 1512.24,1587.68C1516.98,1583.48 1517.76,1575.7 1514.36,1570.37C1510.95,1565.03 1503.97,1562.44 1497.78,1563.77C1491.6,1565.09 1486.44,1570 1484.29,1575.95C1482.33,1581.36 1482.67,1587.4 1480.67,1592.79C1478.66,1598.17 1472.52,1602.95 1467.41,1600.32C1474.6,1612.18 1479.83,1625.22 1485.32,1640.5Z" style="fill:white;fill-rule:nonzero;"/>
            <path d="M1487.88,1642.72C1490.02,1641.94 1491.81,1640.52 1493.67,1639.24C1494.69,1638.53 1495.71,1637.83 1496.79,1637.22C1496.99,1637.11 1498.1,1636.43 1497.57,1636.8C1497.59,1636.79 1498.01,1636.62 1498.08,1636.64C1497.57,1636.68 1497.49,1636.69 1497.85,1636.67C1497.24,1636.48 1497.13,1636.49 1497.52,1636.68C1497.95,1637.2 1498.93,1637.68 1499.5,1638.09C1500.2,1638.59 1500.91,1639.08 1501.63,1639.56C1503.23,1640.6 1504.89,1641.57 1506.61,1642.41C1510,1644.06 1513.54,1645.28 1517.29,1645.78C1524.19,1646.7 1531.57,1645.01 1536.76,1640.18C1541.47,1635.78 1543.72,1628.45 1541.77,1622.23C1539.31,1614.4 1531.54,1611.29 1524.35,1609.12C1520.22,1607.87 1518.45,1614.34 1522.57,1615.58C1527.19,1616.97 1533.45,1618.7 1535.24,1623.79C1536.87,1628.43 1534.66,1633.76 1530.72,1636.49C1526.07,1639.71 1520.07,1639.95 1514.78,1638.45C1511.73,1637.59 1508.91,1636.2 1506.22,1634.55C1503.7,1632.99 1500.97,1630.02 1497.85,1629.98C1495.47,1629.94 1493.19,1631.5 1491.29,1632.77C1490.2,1633.5 1489.13,1634.28 1488.04,1635.02C1487.57,1635.34 1487.1,1635.65 1486.62,1635.94C1486.36,1636.1 1485.15,1636.62 1486.1,1636.27C1484.41,1636.89 1483.26,1638.54 1483.77,1640.38C1484.21,1642.02 1486.18,1643.35 1487.88,1642.72Z" style="fill:rgb(26,57,102);fill-rule:nonzero;"/>
            <path d="M1470.83,1602.89C1471.54,1602.46 1470.43,1602.96 1471.03,1602.76C1471.45,1602.62 1471.88,1602.48 1472.31,1602.36C1473.31,1602.09 1474.33,1601.86 1475.34,1601.62C1477.53,1601.1 1479.8,1600.6 1481.81,1599.57C1484.49,1598.2 1485.15,1595.73 1485.23,1592.88C1485.33,1589.52 1485.66,1586.19 1486.52,1582.93C1487.97,1577.42 1490.98,1572.25 1496.01,1569.32C1500.26,1566.85 1505.6,1566.72 1509.61,1569.78C1515.5,1574.27 1512.6,1581.98 1510.4,1587.66C1509.74,1589.35 1511.12,1591.34 1512.74,1591.78C1514.63,1592.3 1516.2,1591.13 1516.85,1589.44C1519.48,1582.67 1521.78,1574.51 1517.1,1568.04C1513.2,1562.66 1506.44,1560.01 1499.91,1560.96C1484.78,1563.17 1478.59,1579.75 1478.53,1593.18C1478.53,1593.32 1478.48,1593.69 1478.54,1593.89C1478.53,1593.86 1478.84,1593.58 1478.85,1593.6C1478.9,1593.55 1478.96,1593.51 1479.01,1593.47C1478.86,1593.56 1478.71,1593.65 1478.56,1593.72C1477.91,1594.01 1479.06,1593.57 1478.25,1593.86C1477.09,1594.28 1475.9,1594.59 1474.71,1594.88C1472.33,1595.47 1469.57,1595.8 1467.45,1597.11C1463.79,1599.36 1467.15,1605.15 1470.83,1602.89Z" style="fill:rgb(26,57,102);fill-rule:nonzero;"/>
            <path d="M1526.19,1616.63C1532.11,1616.03 1537.67,1614.09 1542.33,1610.32C1547,1606.54 1550.01,1600.97 1550.66,1595.02C1551.31,1589.02 1549.04,1582.71 1543.84,1579.37C1539.01,1576.27 1532.64,1576.04 1527.14,1577.01C1520.88,1578.12 1514.97,1581.44 1510.71,1586.14C1507.82,1589.33 1512.54,1594.08 1515.44,1590.88C1520.92,1584.83 1529.96,1581.46 1537.97,1583.99C1547.15,1586.88 1544.54,1598.92 1539.2,1604.17C1535.75,1607.55 1530.96,1609.45 1526.19,1609.94C1524.39,1610.12 1522.84,1611.35 1522.84,1613.29C1522.84,1614.95 1524.38,1616.82 1526.19,1616.63Z" style="fill:rgb(26,57,102);fill-rule:nonzero;"/>
            <path d="M1549.99,1582.15C1548.44,1582.78 1546.88,1583.42 1545.33,1584.06C1544.9,1584.16 1544.52,1584.36 1544.19,1584.66C1543.83,1584.89 1543.54,1585.21 1543.33,1585.6C1543.09,1585.98 1542.96,1586.4 1542.93,1586.84C1542.84,1587.29 1542.86,1587.73 1542.99,1588.18C1543.26,1588.99 1543.76,1589.77 1544.53,1590.18C1544.8,1590.29 1545.07,1590.4 1545.33,1590.52C1545.93,1590.67 1546.52,1590.67 1547.11,1590.52C1548.66,1589.88 1550.22,1589.24 1551.77,1588.61C1552.2,1588.5 1552.58,1588.3 1552.91,1588.01C1553.27,1587.77 1553.56,1587.46 1553.77,1587.07C1554.01,1586.68 1554.15,1586.27 1554.17,1585.82C1554.27,1585.38 1554.25,1584.93 1554.11,1584.49C1553.84,1583.68 1553.34,1582.89 1552.57,1582.49C1552.3,1582.37 1552.03,1582.26 1551.77,1582.15C1551.17,1581.99 1550.58,1581.99 1549.99,1582.15Z" style="fill:rgb(26,57,102);fill-rule:nonzero;"/>
            <path d="M1503,1557.85C1502.79,1559.52 1502.59,1561.18 1502.39,1562.84C1502.37,1563.31 1502.46,1563.74 1502.67,1564.13C1502.81,1564.55 1503.04,1564.91 1503.37,1565.21C1503.95,1565.79 1504.9,1566.23 1505.73,1566.19C1506.6,1566.15 1507.5,1565.87 1508.1,1565.21C1508.28,1564.99 1508.45,1564.76 1508.63,1564.53C1508.93,1564.01 1509.08,1563.45 1509.08,1562.84C1509.29,1561.18 1509.49,1559.52 1509.7,1557.85C1509.71,1557.39 1509.62,1556.96 1509.41,1556.56C1509.27,1556.15 1509.04,1555.79 1508.72,1555.48C1508.13,1554.9 1507.18,1554.47 1506.35,1554.5C1505.48,1554.54 1504.58,1554.83 1503.98,1555.48C1503.81,1555.71 1503.63,1555.94 1503.46,1556.16C1503.15,1556.68 1503,1557.25 1503,1557.85Z" style="fill:rgb(26,57,102);fill-rule:nonzero;"/>
            <path d="M1546.13,1627.34C1544.52,1626.87 1542.91,1626.4 1541.3,1625.94C1540.47,1625.7 1539.45,1625.84 1538.72,1626.27C1538.02,1626.68 1537.36,1627.48 1537.18,1628.27C1536.98,1629.13 1537.02,1630.09 1537.51,1630.85C1537.99,1631.59 1538.66,1632.14 1539.52,1632.39C1541.13,1632.86 1542.74,1633.33 1544.35,1633.8C1545.17,1634.04 1546.19,1633.89 1546.93,1633.46C1547.62,1633.05 1548.28,1632.26 1548.46,1631.46C1548.66,1630.6 1548.62,1629.64 1548.13,1628.88C1547.65,1628.14 1546.98,1627.59 1546.13,1627.34Z" style="fill:rgb(26,57,102);fill-rule:nonzero;"/>
            <path d="M928.503,1684.86C925.991,1680.63 920.226,1679.34 915.439,1680.47C910.653,1681.6 906.567,1684.6 902.499,1687.37C898.431,1690.13 894.01,1692.8 889.1,1693.09C881.416,1693.55 873.976,1687.11 873.334,1679.44C872.692,1671.76 878.958,1664.17 886.612,1663.35C879.485,1663.98 871.903,1663.18 866.006,1659.13C860.11,1655.08 856.519,1647.13 859.166,1640.48C861.589,1634.4 868.511,1631.01 875.061,1631.02C881.611,1631.02 887.836,1633.78 893.564,1636.96C888.222,1633.57 886.214,1626.01 888.73,1620.2C891.247,1614.39 897.732,1610.73 904.051,1611.06C910.371,1611.39 916.239,1615.42 919.306,1620.95C922.093,1625.99 922.71,1632 925.547,1637C928.383,1642.01 935.195,1645.75 939.829,1642.34C934.612,1655.19 931.503,1668.9 928.503,1684.86Z" style="fill:white;fill-rule:nonzero;"/>
            <path d="M928.074,1680.86C927.774,1680.8 927.489,1680.71 927.199,1680.62C927.223,1680.62 926.374,1680.29 926.776,1680.46C927.142,1680.61 926.486,1680.32 926.415,1680.29C925.363,1679.8 924.319,1679.29 923.269,1678.79C921.226,1677.81 919.118,1676.75 916.855,1676.43C913.508,1675.97 911.547,1678.36 909.347,1680.48C907.137,1682.61 904.771,1684.53 902.13,1686.1C897.131,1689.07 891.166,1690.56 885.476,1688.8C880.708,1687.33 876.955,1683.05 876.918,1677.93C876.872,1671.5 883.623,1668.35 888.569,1665.95C890.196,1665.16 890.633,1662.84 889.77,1661.37C888.799,1659.71 886.822,1659.37 885.189,1660.17C879.242,1663.05 873.002,1666.68 870.881,1673.38C868.915,1679.59 871.442,1686.87 876.226,1691.12C881.634,1695.92 889.218,1697.08 896.137,1695.66C903.209,1694.21 909.412,1689.79 914.482,1684.83C914.835,1684.48 916.377,1683.33 916.391,1682.92C916.401,1682.65 915.444,1683.08 915.807,1683.03C916.58,1682.92 915.397,1682.87 916.07,1683.06C917.273,1683.39 917.962,1683.67 918.973,1684.14C921.312,1685.22 923.744,1686.82 926.293,1687.32C928.067,1687.66 929.908,1686.81 930.412,1684.98C930.864,1683.33 929.857,1681.21 928.074,1680.86Z" style="fill:rgb(26,57,102);fill-rule:nonzero;"/>
            <path d="M939.446,1639.03C937.521,1638.24 935.113,1638.32 933.062,1638.16C932.475,1638.12 931.888,1638.08 931.301,1638.02C930.981,1637.99 930.661,1637.96 930.341,1637.93C930.294,1637.93 929.674,1637.85 930.13,1637.91C929.684,1637.85 929.237,1637.78 928.799,1637.68C928.557,1637.62 928.32,1637.55 928.079,1637.49C927.398,1637.33 928.021,1637.51 927.955,1637.45C928.307,1637.76 928.332,1638.03 928.228,1637.16C928.13,1636.33 927.918,1635.49 927.743,1634.68C927.36,1632.9 926.897,1631.14 926.324,1629.41C925.16,1625.9 923.604,1622.44 921.43,1619.44C917.315,1613.75 911.316,1609.52 904.234,1608.7C897.597,1607.92 890.877,1611.02 887.135,1616.55C882.051,1624.06 885.864,1632.74 889.932,1639.69C892.107,1643.41 897.897,1640.04 895.714,1636.31C892.923,1631.54 889.198,1625.21 892.917,1619.93C895.821,1615.81 901.187,1614.47 905.884,1615.8C911.606,1617.41 915.728,1622.03 918.272,1627.22C919.618,1629.96 920.493,1632.93 921.162,1635.9C921.786,1638.67 921.974,1641.85 924.777,1643.34C926.958,1644.5 929.675,1644.59 932.083,1644.79C933.278,1644.88 934.475,1644.95 935.668,1645.07C935.89,1645.09 936.113,1645.11 936.335,1645.14C935.625,1645.05 936.526,1645.17 936.613,1645.19C936.974,1645.27 937.322,1645.35 937.665,1645.49C939.338,1646.18 941.347,1644.74 941.784,1643.15C942.313,1641.23 941.124,1639.73 939.446,1639.03Z" style="fill:rgb(26,57,102);fill-rule:nonzero;"/>
            <path d="M884.334,1661.06C875.97,1661.55 866.676,1657.97 863.962,1649.33C862.792,1645.6 863.018,1641.05 866.291,1638.45C869.484,1635.91 874.111,1635.27 878.062,1635.45C882.681,1635.66 887.375,1637.34 890.994,1640.24C892.403,1641.37 894.352,1641.62 895.729,1640.24C896.899,1639.07 897.147,1636.64 895.729,1635.51C891.101,1631.8 885.775,1629.56 879.875,1628.9C874.385,1628.28 868.076,1629.21 863.403,1632.32C852.47,1639.58 856.172,1655.13 865.248,1662.2C870.647,1666.41 877.555,1668.15 884.334,1667.76C888.618,1667.51 888.647,1660.82 884.334,1661.06Z" style="fill:rgb(26,57,102);fill-rule:nonzero;"/>
            <path d="M854.649,1643.99C856.282,1644.38 857.914,1644.76 859.547,1645.14C860.412,1645.34 861.348,1645.26 862.127,1644.8C862.821,1644.4 863.484,1643.6 863.665,1642.8C863.86,1641.95 863.818,1640.98 863.328,1640.22C862.865,1639.51 862.181,1638.88 861.327,1638.68C859.694,1638.3 858.062,1637.92 856.429,1637.54C855.563,1637.33 854.628,1637.42 853.849,1637.87C853.155,1638.28 852.492,1639.08 852.311,1639.87C852.115,1640.73 852.157,1641.69 852.648,1642.45C853.111,1643.17 853.794,1643.79 854.649,1643.99Z" style="fill:rgb(26,57,102);fill-rule:nonzero;"/>
            <path d="M891.921,1607.43C892.386,1609.04 892.852,1610.65 893.317,1612.26C893.553,1613.08 894.12,1613.83 894.856,1614.26C895.24,1614.51 895.655,1614.64 896.101,1614.66C896.546,1614.76 896.991,1614.74 897.436,1614.6C898.246,1614.34 899.028,1613.83 899.437,1613.06C899.856,1612.27 900.029,1611.36 899.775,1610.48C899.309,1608.87 898.844,1607.26 898.378,1605.65C898.143,1604.83 897.576,1604.08 896.84,1603.65C896.455,1603.4 896.04,1603.27 895.595,1603.25C895.15,1603.15 894.705,1603.17 894.26,1603.31C893.45,1603.57 892.668,1604.07 892.259,1604.85C891.84,1605.64 891.667,1606.55 891.921,1607.43Z" style="fill:rgb(26,57,102);fill-rule:nonzero;"/>
            <path d="M869.954,1687.38C871.469,1686.67 872.985,1685.95 874.501,1685.23C874.891,1685.02 875.204,1684.74 875.44,1684.37C875.736,1684.05 875.936,1683.67 876.04,1683.23C876.179,1682.79 876.199,1682.34 876.1,1681.9C876.079,1681.45 875.947,1681.04 875.702,1680.65C875.241,1679.94 874.555,1679.31 873.701,1679.11C873.404,1679.07 873.108,1679.03 872.811,1678.99C872.207,1679 871.643,1679.15 871.121,1679.45C869.605,1680.17 868.089,1680.89 866.574,1681.6C866.184,1681.81 865.87,1682.1 865.634,1682.46C865.338,1682.79 865.139,1683.17 865.035,1683.6C864.895,1684.05 864.875,1684.49 864.975,1684.94C864.995,1685.38 865.128,1685.8 865.373,1686.18C865.833,1686.9 866.52,1687.53 867.374,1687.72C867.67,1687.76 867.967,1687.8 868.264,1687.84C868.868,1687.84 869.431,1687.69 869.954,1687.38Z" style="fill:rgb(26,57,102);fill-rule:nonzero;"/>
            <path d="M1492.78,1636.89L1475.42,1597.33C1473.35,1592.61 1468.64,1589.82 1464.19,1590.67L1416.24,1599.89C1413.85,1591.63 1411.38,1583.41 1408.79,1575.24C1407.98,1572.65 1405.16,1571.3 1402.61,1572.24C1281.07,1617.37 1134.05,1626.08 1007.43,1597.23C1005.02,1596.68 1002.58,1598.07 1001.85,1600.43C998.368,1611.59 995.311,1622.67 992.578,1633.89L941.48,1632.31C936.95,1632.17 932.739,1635.67 931.442,1640.66L920.567,1682.47C919.403,1686.95 920.875,1691.55 924.22,1693.91L976.112,1730.44C975.1,1738.95 974.126,1747.74 973.168,1756.88C972.953,1758.92 974.074,1760.89 975.956,1761.72C1045.83,1792.65 1251.59,1800.01 1446.23,1749.27C1448.64,1748.64 1450.15,1746.23 1449.69,1743.78C1446.72,1728.12 1443.67,1712.87 1440.51,1697.94L1490.98,1648.76C1493.92,1645.91 1494.64,1641.13 1492.78,1636.89Z" style="fill:rgb(242,107,96);fill-rule:nonzero;"/>
            <path d="M1371.83,1677.67C1367.96,1683.19 1371.27,1692.15 1377.8,1693.83C1384.33,1695.51 1391.56,1689.25 1390.83,1682.55C1390.09,1675.85 1378.58,1668.05 1371.83,1677.67Z" style="fill:white;fill-rule:nonzero;"/>
            <path d="M1357.32,1932.5C1371.98,1919.89 1383.39,1902.69 1385.96,1883.52C1388.54,1864.36 1381.1,1843.39 1365.07,1832.57C1351.81,1823.61 1335.01,1822.45 1319.22,1819.81C1303.43,1817.16 1286.41,1811.65 1278.26,1797.87C1270.37,1784.54 1273.29,1767.37 1279.42,1753.13C1297.83,1710.34 1344.4,1681.73 1390.96,1683.51C1437.51,1685.29 1481.32,1716.72 1498.98,1759.83C1516.64,1802.94 1507.85,1855.41 1477.98,1891.17C1448.12,1926.92 1398.76,1944.9 1357.32,1932.5Z" style="fill:white;fill-rule:nonzero;"/>
            <path d="M1413.54,1937.26C1437.39,1930.17 1458.47,1915 1474.82,1896.46C1491.28,1877.79 1503.91,1854.97 1508.84,1830.44C1513.71,1806.2 1510.09,1781.1 1500.16,1758.58C1490.28,1736.17 1473.98,1716.54 1453.65,1702.86C1433.51,1689.3 1409.51,1682.47 1385.25,1683.07C1361.19,1683.67 1337.21,1691.13 1317.12,1704.4C1307.17,1710.96 1298.1,1718.93 1290.55,1728.16C1281.79,1738.87 1274.47,1751.31 1271.3,1764.88C1268.23,1777.97 1269.41,1791.91 1276.34,1803.61C1279.57,1809.05 1283.96,1813.82 1289.3,1817.24C1295.36,1821.13 1302.43,1822.74 1309.53,1823.36C1316.93,1824.01 1324.38,1823.59 1331.78,1824.23C1337.69,1824.74 1343.59,1826.22 1349.02,1828.66C1359.69,1833.47 1368.9,1841.39 1375.14,1851.3C1381.48,1861.36 1384.65,1873.28 1383.17,1885.15C1381.69,1896.95 1375.75,1907.91 1367.46,1916.31C1363.24,1920.59 1358.46,1924.17 1353.22,1927.12C1349.47,1929.24 1352.84,1935.03 1356.6,1932.91C1378.49,1920.58 1393.28,1896.52 1389.6,1871.02C1386.13,1847.04 1367.04,1826.47 1344.01,1819.74C1337.52,1817.84 1330.79,1817.31 1324.06,1817.16C1316.92,1817 1309.64,1817.24 1302.64,1815.59C1290.76,1812.78 1282.2,1803.59 1278.46,1792.16C1270.29,1767.1 1286.45,1740.48 1303.9,1723.52C1320.43,1707.45 1341.77,1696.72 1364.3,1692.13C1386.77,1687.56 1410.8,1689.35 1431.92,1698.55C1453.6,1708 1471.97,1724.24 1484.75,1744.08C1497.48,1763.85 1504.79,1787.15 1504.34,1810.75C1503.89,1834.63 1494.65,1857.74 1481.31,1877.28C1467.7,1897.23 1449.11,1914.31 1427.27,1924.82C1422.26,1927.23 1417.08,1929.22 1411.76,1930.8C1407.64,1932.03 1409.39,1938.49 1413.54,1937.26Z" style="fill:rgb(26,57,102);fill-rule:nonzero;"/>
            <path d="M1326.02,1636.73C1322.15,1642.25 1325.47,1651.21 1332,1652.89C1338.53,1654.57 1345.75,1648.31 1345.02,1641.61C1344.29,1634.91 1332.77,1627.11 1326.02,1636.73Z" style="fill:white;fill-rule:nonzero;"/>
            <path d="M1279.32,1692.55C1275.45,1698.07 1278.76,1707.03 1285.29,1708.71C1291.82,1710.39 1299.04,1704.13 1298.31,1697.43C1297.58,1690.73 1286.06,1682.93 1279.32,1692.55Z" style="fill:white;fill-rule:nonzero;"/>
            <path d="M1188.96,1696.76C1185.09,1702.28 1188.4,1711.24 1194.93,1712.92C1201.46,1714.59 1208.68,1708.34 1207.95,1701.64C1207.22,1694.93 1195.7,1687.14 1188.96,1696.76Z" style="fill:white;fill-rule:nonzero;"/>
            <path d="M1230.38,1646.11C1226.51,1651.63 1229.82,1660.59 1236.35,1662.27C1242.88,1663.95 1250.1,1657.69 1249.37,1650.99C1248.64,1644.29 1237.12,1636.49 1230.38,1646.11Z" style="fill:white;fill-rule:nonzero;"/>
            <path d="M1147.59,1652.77C1143.71,1658.3 1147.03,1667.26 1153.56,1668.93C1160.09,1670.61 1167.31,1664.36 1166.58,1657.65C1165.85,1650.95 1154.33,1643.16 1147.59,1652.77Z" style="fill:white;fill-rule:nonzero;"/>
            <path d="M1062.59,1658.51C1058.72,1664.03 1062.04,1672.99 1068.57,1674.67C1075.1,1676.35 1082.32,1670.09 1081.59,1663.39C1080.86,1656.69 1069.34,1648.89 1062.59,1658.51Z" style="fill:white;fill-rule:nonzero;"/>
            <path d="M1112.89,1696.76C1109.02,1702.28 1112.33,1711.24 1118.86,1712.92C1125.39,1714.59 1132.61,1708.34 1131.88,1701.64C1131.15,1694.93 1119.63,1687.14 1112.89,1696.76Z" style="fill:white;fill-rule:nonzero;"/>
            <path d="M1025.4,1703.02C1021.53,1708.54 1024.85,1717.5 1031.38,1719.18C1037.91,1720.86 1045.13,1714.6 1044.4,1707.9C1043.67,1701.2 1032.15,1693.4 1025.4,1703.02Z" style="fill:white;fill-rule:nonzero;"/>
            <path d="M995.637,1708.03C1001.54,1703.14 1007.45,1698.25 1013.36,1693.36C1017.43,1690 1021.5,1686.63 1025.56,1683.26C1026.84,1682.2 1028.12,1681.14 1029.4,1680.08C1029.74,1679.8 1030.08,1679.5 1030.43,1679.23C1030.52,1679.16 1030.59,1679.08 1030.68,1679.02C1030.7,1679.01 1030.71,1678.99 1030.73,1678.98C1030.2,1679.35 1030.99,1678.84 1031.08,1678.81C1033.47,1677.98 1036.17,1680.15 1038.21,1681.2C1042.53,1683.43 1046.85,1685.67 1051.17,1687.9C1059.19,1692.04 1067.19,1696.24 1075.24,1700.34C1079.57,1702.55 1083.76,1702.08 1087.46,1698.92C1090.33,1696.47 1093.17,1693.97 1096.02,1691.5C1100.29,1687.8 1104.55,1684.1 1108.81,1680.41C1111.35,1678.21 1113.8,1675.71 1116.51,1673.73C1118.77,1672.08 1120.99,1674.1 1122.94,1675.3C1127.04,1677.82 1131.15,1680.35 1135.26,1682.87C1139.82,1685.68 1144.38,1688.48 1148.94,1691.28C1151.36,1692.77 1153.82,1694.67 1156.5,1695.68C1160,1697 1163.64,1696.02 1166.41,1693.66C1167.24,1692.95 1168.04,1692.21 1168.85,1691.48C1172.52,1688.21 1176.19,1684.93 1179.86,1681.66C1183.72,1678.22 1187.58,1674.78 1191.44,1671.34C1193.15,1669.8 1195.34,1666.85 1197.95,1667.81C1200.36,1668.71 1202.7,1670.23 1205,1671.39C1209.7,1673.77 1214.4,1676.16 1219.11,1678.54C1226.38,1682.23 1233.6,1686.07 1240.95,1689.61C1244.12,1691.14 1247.86,1691.26 1250.86,1689.22C1251.75,1688.62 1252.56,1687.85 1253.37,1687.15C1256.67,1684.27 1259.97,1681.4 1263.27,1678.52C1267.42,1674.91 1271.56,1671.3 1275.71,1667.69C1277.77,1665.9 1279.82,1663.6 1282.12,1662.11C1282.52,1661.85 1283.01,1661.64 1283.5,1661.58C1283.76,1661.55 1285.21,1661.84 1284.7,1661.66C1284.92,1661.74 1285.13,1661.86 1285.34,1661.95C1286.44,1662.42 1287.52,1662.92 1288.61,1663.4C1292.74,1665.25 1296.88,1667.09 1301.02,1668.94C1310.48,1673.16 1319.95,1677.37 1329.41,1681.59C1331.72,1682.62 1334.31,1684.13 1336.83,1684.54C1341.73,1685.33 1344.82,1682.2 1348.1,1679.27C1355.65,1672.53 1363.21,1665.79 1370.76,1659.05C1372.57,1657.43 1374.42,1654.88 1377.11,1656.23C1379.68,1657.51 1382.12,1659.18 1384.6,1660.64C1393.68,1665.98 1402.75,1671.33 1411.83,1676.67C1413.71,1677.78 1415.6,1678.89 1417.48,1680C1421.2,1682.19 1424.57,1676.41 1420.86,1674.22C1414.23,1670.32 1407.61,1666.42 1400.99,1662.52C1394.15,1658.49 1387.4,1654.18 1380.42,1650.4C1376.62,1648.35 1372.34,1648.83 1369.05,1651.61C1368.49,1652.09 1367.94,1652.6 1367.38,1653.1C1363.91,1656.2 1360.43,1659.3 1356.96,1662.4C1352.96,1665.98 1348.95,1669.55 1344.95,1673.12C1343.11,1674.77 1340.67,1678.02 1337.97,1677.98C1337.61,1677.98 1336.81,1677.6 1336.01,1677.24C1334.65,1676.63 1333.28,1676.03 1331.92,1675.42C1327.41,1673.41 1322.9,1671.4 1318.38,1669.39C1309.3,1665.34 1300.22,1661.29 1291.14,1657.24C1287.41,1655.58 1283.83,1653.9 1279.7,1655.83C1276.95,1657.12 1274.52,1659.87 1272.26,1661.83C1264.65,1668.46 1257.04,1675.09 1249.43,1681.72C1247.74,1683.19 1246.37,1684.76 1243.95,1683.64C1240.89,1682.22 1237.92,1680.58 1234.91,1679.06C1225.51,1674.29 1216.12,1669.53 1206.72,1664.77C1204.37,1663.57 1201.87,1661.94 1199.3,1661.22C1194.21,1659.79 1190.75,1662.99 1187.33,1666.04C1179.79,1672.76 1172.25,1679.49 1164.71,1686.22C1162.83,1687.9 1160.9,1690.55 1158.13,1689.07C1155.32,1687.57 1152.66,1685.71 1149.95,1684.04C1141.57,1678.89 1133.2,1673.75 1124.83,1668.6C1123.74,1667.93 1122.69,1667.23 1121.46,1666.83C1118.02,1665.69 1114.59,1666.65 1111.88,1668.9C1109.33,1671.02 1106.87,1673.25 1104.36,1675.42C1097.19,1681.64 1090.11,1688.01 1082.82,1694.1C1080.89,1695.72 1079.3,1694.91 1077.37,1693.91C1073.59,1691.96 1069.81,1690.01 1066.04,1688.05C1057.16,1683.46 1048.28,1678.87 1039.4,1674.28C1038.58,1673.86 1037.78,1673.42 1036.95,1673.02C1033.6,1671.4 1029.76,1671.45 1026.69,1673.71C1024.57,1675.26 1022.61,1677.05 1020.59,1678.72C1012.5,1685.42 1004.41,1692.11 996.327,1698.81C994.518,1700.3 992.71,1701.8 990.902,1703.3C989.508,1704.45 989.708,1706.84 990.902,1708.03C992.281,1709.41 994.24,1709.19 995.637,1708.03Z" style="fill:white;fill-rule:nonzero;"/>
            <path d="M1305.08,1522.01C1328.39,1522.01 1347.27,1529.81 1347.27,1539.42C1347.27,1549.04 1328.39,1556.84 1305.08,1556.84C1281.78,1556.84 1262.9,1549.04 1262.9,1539.42C1262.9,1529.81 1281.78,1522.01 1305.08,1522.01Z" style="fill:rgb(251,210,207);fill-rule:nonzero;"/>
            <path d="M1112.83,1522.01C1136.13,1522.01 1155.02,1529.81 1155.02,1539.42C1155.02,1549.04 1136.13,1556.84 1112.83,1556.84C1089.53,1556.84 1070.64,1549.04 1070.64,1539.42C1070.64,1529.81 1089.53,1522.01 1112.83,1522.01Z" style="fill:rgb(251,210,207);fill-rule:nonzero;"/>
            <path d="M1323.11,1510.58C1345.37,1502.47 1368.69,1497.25 1392.32,1495.3C1399.03,1494.75 1405.76,1494.45 1412.5,1494.4C1416.8,1494.36 1416.81,1487.67 1412.5,1487.7C1388.32,1487.89 1364.14,1491.29 1340.85,1497.82C1334.27,1499.67 1327.76,1501.78 1321.33,1504.12C1319.63,1504.74 1318.48,1506.39 1318.99,1508.24C1319.44,1509.88 1321.4,1511.2 1323.11,1510.58Z" style="fill:rgb(26,57,102);fill-rule:nonzero;"/>
            <path d="M1328.25,1538.93C1351.72,1536.13 1375.62,1536.33 1399.02,1539.8C1405.71,1540.8 1412.37,1542.05 1418.97,1543.54C1423.17,1544.49 1424.96,1538.04 1420.75,1537.09C1397.2,1531.76 1372.93,1529.52 1348.8,1530.56C1341.93,1530.85 1335.07,1531.42 1328.25,1532.24C1326.45,1532.45 1324.9,1533.62 1324.9,1535.59C1324.9,1537.23 1326.44,1539.15 1328.25,1538.93Z" style="fill:rgb(26,57,102);fill-rule:nonzero;"/>
            <path d="M1334.21,1524.35C1355.7,1518.33 1378.42,1516.8 1400.5,1520.12C1402.29,1520.39 1404.1,1519.67 1404.62,1517.78C1405.05,1516.2 1404.08,1513.94 1402.28,1513.67C1378.97,1510.16 1355.15,1511.52 1332.43,1517.89C1328.29,1519.05 1330.05,1525.51 1334.21,1524.35Z" style="fill:rgb(26,57,102);fill-rule:nonzero;"/>
            <path d="M1093.2,1499.42C1070.1,1492.43 1046.05,1488.51 1021.92,1487.81C1015.04,1487.61 1008.15,1487.69 1001.27,1488.01C996.975,1488.22 996.95,1494.91 1001.27,1494.71C1024.91,1493.59 1048.64,1495.57 1071.75,1500.71C1078.37,1502.18 1084.93,1503.91 1091.42,1505.88C1095.55,1507.13 1097.32,1500.67 1093.2,1499.42Z" style="fill:rgb(26,57,102);fill-rule:nonzero;"/>
            <path d="M1087.85,1527.83C1063.69,1526.29 1039.35,1528 1015.63,1532.86C1008.94,1534.23 1002.31,1535.86 995.742,1537.73C991.604,1538.91 993.363,1545.37 997.522,1544.19C1020.35,1537.69 1043.96,1534.23 1067.69,1533.98C1074.42,1533.91 1081.14,1534.1 1087.85,1534.53C1089.65,1534.64 1091.2,1532.91 1091.2,1531.18C1091.2,1529.27 1089.66,1527.95 1087.85,1527.83Z" style="fill:rgb(26,57,102);fill-rule:nonzero;"/>
            <path d="M1082.87,1513.78C1059.85,1508.69 1035.97,1508.54 1012.89,1513.33C1011.12,1513.69 1010.1,1515.78 1010.55,1517.44C1011.06,1519.28 1012.9,1520.15 1014.67,1519.78C1036.54,1515.25 1059.29,1515.41 1081.09,1520.24C1085.29,1521.17 1087.08,1514.72 1082.87,1513.78Z" style="fill:rgb(26,57,102);fill-rule:nonzero;"/>
            <path d="M1205.34,1520.59C1205.06,1520.37 1204.79,1520.13 1204.53,1519.9C1202.19,1517.81 1193.7,1511.18 1199.59,1508.3C1203.2,1506.54 1208.24,1507.17 1212.07,1507.65C1213.11,1507.79 1214.15,1507.94 1215.17,1508.17C1219.56,1509.16 1219.02,1512.41 1216.64,1515.31C1214.6,1517.79 1210.91,1522.39 1207.2,1521.56C1206.51,1521.41 1205.9,1521.03 1205.34,1520.59Z" style="fill:rgb(26,57,102);fill-rule:nonzero;"/>
            <path d="M1204.9,1512.12L1204.9,1536.89C1204.9,1541.2 1211.6,1541.21 1211.6,1536.89L1211.6,1512.12C1211.6,1507.81 1204.9,1507.8 1204.9,1512.12Z" style="fill:rgb(26,57,102);fill-rule:nonzero;"/>
            <path d="M1126.12,1514.3C1125.23,1506.33 1130.7,1498.59 1138.39,1496.4C1146.63,1494.05 1155.34,1497.92 1160.62,1504.3C1161.78,1505.69 1164.17,1505.49 1165.36,1504.3C1166.74,1502.92 1166.52,1500.96 1165.36,1499.56C1158.53,1491.31 1146.61,1486.81 1136.15,1490.08C1126.09,1493.22 1118.23,1503.55 1119.42,1514.3C1119.62,1516.09 1120.82,1517.64 1122.77,1517.64C1124.42,1517.64 1126.32,1516.11 1126.12,1514.3Z" style="fill:rgb(26,57,102);fill-rule:nonzero;"/>
            <path d="M1296.58,1514.3C1297.77,1503.55 1289.91,1493.22 1279.85,1490.08C1269.39,1486.81 1257.47,1491.31 1250.64,1499.56C1249.49,1500.96 1249.28,1502.94 1250.64,1504.3C1251.83,1505.49 1254.22,1505.7 1255.38,1504.3C1260.66,1497.92 1269.37,1494.05 1277.61,1496.4C1285.3,1498.59 1290.77,1506.33 1289.88,1514.3C1289.69,1516.1 1291.57,1517.64 1293.23,1517.64C1295.21,1517.64 1296.38,1516.1 1296.58,1514.3Z" style="fill:rgb(26,57,102);fill-rule:nonzero;"/>
        </g>
    </g>
</svg>
