<?xml version="1.0" encoding="UTF-8" standalone="no"?>
<!DOCTYPE svg PUBLIC "-//W3C//DTD SVG 1.1//EN" "http://www.w3.org/Graphics/SVG/1.1/DTD/svg11.dtd">
<svg width="100%" height="100%" viewBox="0 0 2600 3262" version="1.1" xmlns="http://www.w3.org/2000/svg" xmlns:xlink="http://www.w3.org/1999/xlink" xml:space="preserve" xmlns:serif="http://www.serif.com/" style="fill-rule:evenodd;clip-rule:evenodd;stroke-linejoin:round;stroke-miterlimit:2;">
    <g transform="matrix(1,0,0,1,-10686.5,-1177.81)">
        <g transform="matrix(4.16667,0,0,4.16667,0,0)">
            <path d="M2736.13,894.867C2740.14,896.565 2744.04,898.086 2747.87,899.44C2749.92,900.164 2749.54,903.14 2747.38,903.338C2676.17,909.854 2658.16,991.003 2718.28,1034.34C2832.21,1112.47 3040.92,1036.71 2965.57,881.582C2971.98,879.598 2978.13,876.687 2983.89,873.745C3014.57,878.115 3045.19,864.956 3065.13,841.157C3089.77,844.859 3111.42,853.855 3128.05,867.34C3140.67,878.124 3161.87,871.024 3165.25,854.699C3197.44,730.372 3206.42,606.068 3127.21,497.026C3108.23,467.17 3087.75,431.607 3078.92,400.404C3073.52,382.797 3076.14,359.119 3053.11,357.058C3021.33,354.468 2989.3,355.044 2957.47,358.667C2917.21,308.439 2845.19,226.008 2821.97,340.457C2803.34,345.952 2786.52,353.252 2769.38,363.066C2670.17,296.272 2678.54,407.863 2685.46,475.192C2652.11,498.714 2618.65,520.761 2579.76,535.258C2565.44,540.147 2559.97,559.384 2569.53,571.107C2604.51,616.309 2610.06,683.484 2606.37,742.365C2605.87,779.099 2581.03,945.11 2632.6,947.556C2638.32,947.554 2643.84,945.429 2648.12,941.57C2669.23,922.562 2696.08,906.8 2728.02,894.647C2730.63,893.654 2733.52,893.76 2736.09,894.851C2736.11,894.856 2736.12,894.862 2736.13,894.867Z" style="fill:white;fill-rule:nonzero;"/>
            <path d="M2583.47,545.651C2575.85,548.49 2573.19,557.923 2578.15,564.369C2615.42,612.876 2620.95,680.875 2617.26,743.032C2613.62,804.546 2603.34,867.492 2620.74,927.701C2623.24,936.334 2633.87,939.361 2640.55,933.349C2675.7,901.7 2721.22,882.44 2767.34,870.678C2819.55,857.361 2873.52,852.659 2926.59,843.353C2964.93,836.63 3003.24,827.457 3042.15,828.19C3074.72,828.803 3108.53,837.388 3134.87,858.748C3141.81,864.377 3152.24,860.842 3154.31,852.149C3164.46,809.473 3173.55,766.469 3176.7,722.758C3180.36,672.015 3175.72,619.888 3156.15,572.926C3141.05,536.687 3117.61,504.65 3098.08,470.595C3080.68,440.257 3066.05,406.835 3063.08,379.034C3062.46,373.215 3057.88,368.587 3052.05,368.111C2950.27,359.804 2846,384.66 2759.02,438.178C2702.27,473.093 2651.88,520.15 2583.47,545.651Z" style="fill:rgb(242,107,96);fill-rule:nonzero;"/>
            <path d="M3059.44,405.979C3058.84,401.458 3058.21,396.984 3057.58,392.509C3057.34,390.787 3056.79,388.703 3054.72,388.492C3054.22,388.442 3053.72,388.542 3053.27,388.749C3051.86,389.408 3051.19,390.683 3050.63,391.945C3049.04,395.522 3048.11,399.352 3047.91,403.215C3047.88,403.675 3047.33,403.923 3046.93,403.651C3044.05,401.698 3041.03,399.934 3037.89,398.377C3036.49,397.685 3035.02,397.019 3033.36,397.282C3032.85,397.364 3032.35,397.562 3031.95,397.875C3030.46,399.05 3030.97,400.836 3031.62,402.289C3033.28,405.969 3035.74,409.339 3038.8,412.144C3039.09,412.415 3039.03,412.862 3038.67,413.052C3034.28,415.367 3030.15,418.098 3026.35,421.188C3025,422.293 3023.55,424.005 3024.77,425.469C3025.41,426.25 3026.52,426.576 3027.57,426.41L3044.13,423.782C3044.34,423.749 3044.52,423.895 3044.52,424.09C3044.42,427.998 3044.58,432.453 3044.74,436.909C3044.8,438.554 3045.05,440.516 3046.99,441.018C3047.45,441.138 3047.95,441.124 3048.42,441.006C3050.47,440.479 3054.18,432.069 3056.7,423.387C3056.73,423.288 3056.86,423.255 3056.94,423.326C3060.05,426.114 3063.48,428.596 3067.15,430.716C3068.84,431.69 3070.78,432.631 3072.8,431.65C3074.95,430.6 3075.54,427.959 3074.19,426.081C3070.11,420.401 3066.5,417.174 3065.43,415.02C3065.39,414.934 3065.45,414.855 3065.53,414.8C3067.24,413.659 3068.98,412.571 3070.64,411.536C3069.74,408.84 3068.89,406.162 3068.12,403.509C3065.3,404.288 3062.5,405.165 3059.76,406.158C3059.61,406.211 3059.45,406.123 3059.44,405.979Z" style="fill:rgb(26,57,102);fill-rule:nonzero;"/>
            <path d="M2642.9,595.664C2644.95,595.138 2648.67,586.728 2651.19,578.046C2651.21,577.947 2651.34,577.914 2651.42,577.985C2654.53,580.772 2657.96,583.254 2661.64,585.375C2663.32,586.349 2665.27,587.29 2667.28,586.308C2669.44,585.258 2670.02,582.617 2668.67,580.739C2664.6,575.059 2660.98,571.832 2659.91,569.679C2659.87,569.592 2659.93,569.513 2660.02,569.458C2668.75,563.643 2678.18,559.154 2674.54,556.343C2673.97,555.902 2673.19,555.769 2672.46,555.902C2666.24,557.036 2660.14,558.683 2654.24,560.816C2654.1,560.869 2653.94,560.781 2653.92,560.638C2653.33,556.117 2652.69,551.642 2652.06,547.168C2651.82,545.446 2651.28,543.362 2649.2,543.151C2648.71,543.1 2648.2,543.2 2647.76,543.407C2646.35,544.066 2645.67,545.341 2645.11,546.603C2643.52,550.18 2642.6,554.01 2642.39,557.873C2642.37,558.333 2641.81,558.582 2641.41,558.309C2638.54,556.356 2635.51,554.592 2632.37,553.035C2630.98,552.344 2629.5,551.677 2627.85,551.94C2627.33,552.022 2626.83,552.22 2626.44,552.533C2624.94,553.708 2625.45,555.494 2626.11,556.948C2627.77,560.627 2630.22,563.997 2633.28,566.803C2633.57,567.073 2633.51,567.52 2633.15,567.71C2628.76,570.026 2624.63,572.756 2620.84,575.846C2619.48,576.951 2618.04,578.663 2619.25,580.128C2619.9,580.909 2621.01,581.235 2622.05,581.068L2638.61,578.44C2638.82,578.407 2639.01,578.553 2639,578.748C2638.9,582.656 2639.07,587.112 2639.23,591.568C2639.29,593.212 2639.54,595.174 2641.47,595.676C2641.94,595.796 2642.44,595.783 2642.9,595.664Z" style="fill:rgb(26,57,102);fill-rule:nonzero;"/>
            <path d="M3092.46,559.997C3094.61,558.947 3095.19,556.306 3093.85,554.428C3089.77,548.748 3086.15,545.521 3085.09,543.368C3085.04,543.281 3085.11,543.202 3085.19,543.147C3093.93,537.332 3103.36,532.844 3099.71,530.032C3099.14,529.591 3098.36,529.458 3097.63,529.591C3091.42,530.725 3085.31,532.372 3079.42,534.505C3079.27,534.558 3079.11,534.47 3079.09,534.327C3078.5,529.806 3077.87,525.331 3077.24,520.857C3076.99,519.134 3076.45,517.051 3074.38,516.84C3073.88,516.789 3073.38,516.889 3072.93,517.096C3071.52,517.755 3070.85,519.03 3070.28,520.292C3068.7,523.869 3067.77,527.699 3067.57,531.562C3067.54,532.022 3066.99,532.271 3066.59,531.998C3063.71,530.045 3060.69,528.281 3057.55,526.724C3056.15,526.033 3054.67,525.366 3053.02,525.629C3052.51,525.711 3052.01,525.909 3051.61,526.222C3050.12,527.397 3050.63,529.183 3051.28,530.636C3052.94,534.316 3055.39,537.686 3058.45,540.492C3058.75,540.762 3058.69,541.209 3058.33,541.399C3053.94,543.715 3049.8,546.445 3046.01,549.535C3044.66,550.64 3043.21,552.352 3044.43,553.817C3045.07,554.598 3046.18,554.924 3047.23,554.757L3063.79,552.129C3063.99,552.096 3064.18,552.242 3064.18,552.437C3064.08,556.345 3064.24,560.801 3064.4,565.256C3064.46,566.901 3064.71,568.863 3066.65,569.365C3067.11,569.485 3067.61,569.472 3068.07,569.353C3070.13,568.827 3073.84,560.417 3076.36,551.735C3076.39,551.636 3076.52,551.602 3076.6,551.674C3079.71,554.461 3083.14,556.943 3086.81,559.063C3088.5,560.038 3090.44,560.979 3092.46,559.997Z" style="fill:rgb(26,57,102);fill-rule:nonzero;"/>
            <path d="M3163.85,642.703C3163.26,638.182 3162.62,633.708 3161.99,629.233C3161.75,627.511 3161.21,625.427 3159.13,625.216C3158.64,625.166 3158.13,625.265 3157.69,625.472C3156.28,626.131 3155.6,627.407 3155.04,628.669C3153.45,632.246 3152.53,636.076 3152.32,639.939C3152.3,640.399 3151.74,640.647 3151.34,640.375C3148.47,638.422 3145.44,636.658 3142.3,635.1C3140.91,634.409 3139.43,633.743 3137.78,634.006C3137.26,634.087 3136.76,634.285 3136.37,634.599C3134.87,635.774 3135.38,637.56 3136.04,639.013C3137.7,642.693 3140.15,646.063 3143.21,648.868C3143.5,649.138 3143.44,649.586 3143.08,649.776C3138.69,652.091 3134.56,654.822 3130.77,657.912C3129.41,659.017 3127.97,660.729 3129.18,662.193C3129.83,662.974 3130.94,663.3 3131.98,663.134L3148.54,660.506C3148.75,660.472 3148.94,660.619 3148.93,660.814C3148.83,664.722 3149,669.177 3149.16,673.633C3149.22,675.277 3149.47,677.239 3151.4,677.742C3151.87,677.862 3152.37,677.848 3152.83,677.729C3154.88,677.203 3158.6,668.793 3161.12,660.111C3161.14,660.012 3161.27,659.979 3161.35,660.05C3164.46,662.838 3167.89,665.319 3171.57,667.44C3173.24,668.404 3175.16,669.331 3177.15,668.396C3176.99,665.63 3176.79,662.866 3176.56,660.107C3173.37,656.07 3170.73,653.527 3169.84,651.744C3169.8,651.657 3169.86,651.579 3169.94,651.524C3171.75,650.32 3173.59,649.175 3175.33,648.088C3175,645.314 3174.64,642.546 3174.23,639.784C3170.83,640.668 3167.47,641.691 3164.17,642.882C3164.03,642.935 3163.87,642.847 3163.85,642.703Z" style="fill:rgb(26,57,102);fill-rule:nonzero;"/>
            <path d="M3136.6,753.779C3136.03,753.338 3135.25,753.205 3134.52,753.338C3128.31,754.472 3122.2,756.119 3116.3,758.253C3116.16,758.305 3116,758.217 3115.98,758.074C3115.39,753.553 3114.76,749.079 3114.13,744.604C3113.88,742.882 3113.34,740.798 3111.26,740.587C3110.77,740.537 3110.26,740.636 3109.82,740.843C3108.41,741.502 3107.73,742.778 3107.17,744.039C3105.58,747.617 3104.66,751.446 3104.46,755.309C3104.43,755.77 3103.88,756.018 3103.48,755.745C3100.6,753.793 3097.58,752.029 3094.43,750.471C3093.04,749.78 3091.56,749.114 3089.91,749.376C3089.39,749.458 3088.9,749.656 3088.5,749.97C3087.01,751.145 3087.52,752.931 3088.17,754.384C3089.83,758.064 3092.28,761.434 3095.34,764.239C3095.64,764.509 3095.58,764.957 3095.22,765.147C3090.83,767.462 3086.69,770.193 3082.9,773.282C3081.55,774.388 3080.1,776.1 3081.31,777.564C3081.96,778.345 3083.07,778.671 3084.12,778.505L3100.68,775.876C3100.88,775.843 3101.07,775.99 3101.07,776.185C3100.97,780.092 3101.13,784.548 3101.29,789.004C3101.35,790.648 3101.6,792.61 3103.54,793.112C3104,793.233 3104.5,793.219 3104.96,793.1C3107.02,792.574 3110.73,784.164 3113.25,775.482C3113.28,775.383 3113.41,775.35 3113.49,775.421C3116.6,778.209 3120.03,780.69 3123.7,782.811C3125.39,783.785 3127.33,784.726 3129.35,783.745C3131.5,782.694 3132.08,780.053 3130.74,778.176C3126.66,772.495 3123.04,769.268 3121.98,767.115C3121.93,767.028 3121.99,766.95 3122.08,766.894C3130.82,761.079 3140.24,756.591 3136.6,753.779Z" style="fill:rgb(26,57,102);fill-rule:nonzero;"/>
            <path d="M2681.22,847.568C2680.65,847.127 2679.87,846.994 2679.14,847.127C2672.92,848.261 2666.82,849.908 2660.92,852.042C2660.78,852.094 2660.62,852.006 2660.6,851.863C2660.01,847.342 2659.37,842.868 2658.74,838.393C2658.5,836.671 2657.96,834.587 2655.88,834.376C2655.39,834.326 2654.88,834.425 2654.44,834.632C2653.03,835.291 2652.35,836.567 2651.79,837.828C2650.2,841.406 2649.28,845.236 2649.07,849.098C2649.05,849.559 2648.49,849.807 2648.09,849.534C2645.22,847.582 2642.19,845.818 2639.05,844.26C2637.66,843.569 2636.18,842.903 2634.53,843.165C2634.01,843.247 2633.51,843.445 2633.11,843.759C2631.62,844.933 2632.13,846.72 2632.79,848.173C2634.45,851.852 2636.9,855.223 2639.96,858.028C2640.25,858.298 2640.19,858.746 2639.83,858.936C2635.44,861.251 2631.31,863.982 2627.52,867.071C2626.16,868.177 2624.72,869.889 2625.93,871.353C2626.58,872.134 2627.69,872.46 2628.73,872.294L2645.29,869.665C2645.5,869.632 2645.69,869.779 2645.68,869.974C2645.58,873.881 2645.74,878.337 2645.91,882.793C2645.97,884.437 2646.22,886.399 2648.15,886.901C2648.62,887.022 2649.12,887.008 2649.58,886.889C2651.63,886.363 2655.35,877.953 2657.86,869.271C2657.89,869.172 2658.02,869.139 2658.1,869.21C2661.21,871.998 2664.64,874.479 2668.31,876.6C2670,877.574 2671.95,878.515 2673.96,877.534C2676.12,876.483 2676.7,873.842 2675.35,871.965C2671.28,866.284 2667.66,863.057 2666.59,860.904C2666.55,860.817 2666.61,860.739 2666.69,860.683C2675.43,854.868 2684.86,850.38 2681.22,847.568Z" style="fill:rgb(26,57,102);fill-rule:nonzero;"/>
            <path d="M2744.96,738.854C2744.39,738.413 2743.6,738.28 2742.87,738.413C2736.66,739.547 2730.56,741.195 2724.66,743.328C2724.51,743.381 2724.36,743.292 2724.34,743.149C2723.74,738.628 2723.11,734.154 2722.48,729.679C2722.24,727.957 2721.7,725.873 2719.62,725.662C2719.13,725.612 2718.62,725.711 2718.18,725.918C2716.77,726.577 2716.09,727.853 2715.53,729.115C2713.94,732.692 2713.02,736.522 2712.81,740.385C2712.79,740.845 2712.23,741.093 2711.83,740.821C2708.96,738.868 2705.93,737.104 2702.79,735.546C2701.4,734.855 2699.92,734.189 2698.26,734.452C2697.75,734.534 2697.25,734.731 2696.85,735.045C2695.36,736.22 2695.87,738.006 2696.53,739.459C2698.18,743.139 2700.64,746.509 2703.7,749.314C2703.99,749.584 2703.93,750.032 2703.57,750.222C2699.18,752.537 2695.05,755.268 2691.26,758.357C2689.9,759.463 2688.46,761.175 2689.67,762.639C2690.32,763.42 2691.42,763.746 2692.47,763.58L2709.03,760.951C2709.24,760.919 2709.43,761.065 2709.42,761.26C2709.32,765.167 2709.48,769.623 2709.65,774.079C2709.71,775.724 2709.96,777.686 2711.89,778.188C2712.36,778.308 2712.85,778.294 2713.32,778.176C2715.37,777.649 2719.08,769.239 2721.6,760.557C2721.63,760.458 2721.76,760.425 2721.84,760.496C2724.95,763.284 2728.38,765.765 2732.05,767.886C2733.74,768.86 2735.69,769.801 2737.7,768.82C2739.86,767.769 2740.44,765.128 2739.09,763.251C2735.02,757.571 2731.4,754.343 2730.33,752.19C2730.29,752.103 2730.35,752.025 2730.43,751.969C2739.17,746.154 2748.6,741.666 2744.96,738.854Z" style="fill:rgb(26,57,102);fill-rule:nonzero;"/>
            <path d="M2632.43,689.821C2634.58,688.771 2635.17,686.13 2633.82,684.253C2629.75,678.572 2626.13,675.345 2625.06,673.192C2625.02,673.105 2625.08,673.027 2625.16,672.971C2633.9,667.156 2643.33,662.668 2639.69,659.856C2639.12,659.415 2638.33,659.282 2637.6,659.415C2631.39,660.549 2625.29,662.196 2619.39,664.33C2619.24,664.382 2619.09,664.294 2619.07,664.151C2618.47,659.63 2617.84,655.155 2617.21,650.681C2616.97,648.959 2616.43,646.875 2614.35,646.664C2613.86,646.614 2613.35,646.713 2612.91,646.92C2612.85,646.944 2612.81,646.975 2612.76,647.001C2614.91,658.487 2616.34,670.216 2617.2,682.028C2620.14,684.596 2623.35,686.905 2626.78,688.888C2628.47,689.862 2630.42,690.803 2632.43,689.821Z" style="fill:rgb(26,57,102);fill-rule:nonzero;"/>
            <path d="M2712.6,583.271C2703.84,523.505 2698.29,463.268 2695.98,402.908C2695.53,390.981 2695.6,377.837 2703.35,368.756C2711.01,359.775 2724.57,357.533 2735.88,360.911C2747.19,364.288 2747.8,365.428 2765.85,377.712C2799.46,361.662 2811.11,353.73 2837.01,349.752C2837.66,338.591 2838.38,327.178 2842.74,316.882C2847.09,306.585 2856.76,291.144 2866.92,295.801C2876.44,300.161 2898.42,313.02 2909.21,325.087C2983.41,408.005 3053.74,487.726 3089.43,594.697C3108.48,661.771 3105.15,735.679 3073.59,797.854C3064.2,816.347 3052.41,834.161 3035.82,846.604C3019.22,859.047 2997.15,865.469 2977.29,857.725C2968.41,867.507 2960.41,873.171 2946.3,872.008C2969.09,906.889 2969.09,952.285 2960.23,981.422C2947.73,1022.57 2892,1047.55 2849.07,1050.13C2806.14,1052.71 2764.54,1050.67 2729.65,1025.54C2710.98,1012.09 2690.84,984.076 2694.46,961.356C2697.92,939.646 2726.33,918.732 2748.27,917.333C2770.21,915.933 2785.83,920.988 2807.02,926.843C2828.21,932.698 2851.94,946.33 2872.08,937.509C2892.22,928.687 2892.49,912.545 2889.16,888.503C2824.44,910.803 2754.98,895.031 2699.76,854.581C2690.17,847.553 2680.79,839.19 2676.8,827.983C2672.81,816.776 2670.49,799.209 2681.16,793.957C2694.29,787.498 2708.37,802.018 2729.96,813.247C2715.18,779.482 2709.42,740.008 2708.93,703.154C2696.59,712.016 2684.61,711.616 2673.26,713.085C2661.9,714.555 2647.66,708.816 2647.09,697.382C2646.62,687.936 2655.05,680.535 2662.83,675.156C2700.16,649.341 2716.09,607.033 2712.6,583.271Z" style="fill:white;fill-rule:nonzero;"/>
            <path d="M2898.2,849.05C2901.39,850.211 2904.53,851.738 2907.57,853.624C2910.67,855.54 2913.2,857.509 2915.83,860.005C2916.91,861.035 2918.67,861.082 2919.75,860.005C2920.78,858.966 2920.83,857.122 2919.75,856.088C2913.97,850.607 2907.15,846.43 2899.67,843.709C2898.27,843.197 2896.64,844.284 2896.27,845.643C2895.84,847.185 2896.79,848.536 2898.2,849.05Z" style="fill:rgb(26,57,102);fill-rule:nonzero;"/>
            <path d="M2907.31,861.41C2909.6,855.808 2911.88,850.205 2914.17,844.602C2914.71,843.257 2913.57,841.5 2912.23,841.195C2910.62,840.829 2909.41,841.689 2908.82,843.129C2906.54,848.732 2904.26,854.335 2901.97,859.938C2901.42,861.283 2902.57,863.04 2903.91,863.345C2905.51,863.711 2906.73,862.851 2907.31,861.41Z" style="fill:rgb(26,57,102);fill-rule:nonzero;"/>
            <path d="M2756.55,390.871C2768.03,383.001 2779.95,375.742 2792.46,369.637C2803.45,364.278 2814.88,359.899 2826.6,356.43C2833.42,354.41 2840.33,352.69 2847.28,351.173C2850.77,350.414 2849.29,345.073 2845.81,345.832C2833.54,348.509 2821.41,351.853 2809.64,356.262C2797.47,360.823 2785.72,366.455 2774.47,372.956C2767.39,377.048 2760.5,381.465 2753.76,386.088C2752.52,386.933 2751.97,388.52 2752.76,389.877C2753.48,391.098 2755.31,391.721 2756.55,390.871Z" style="fill:rgb(26,57,102);fill-rule:nonzero;"/>
            <path d="M2713.15,568.328C2710.01,547.131 2707.33,525.869 2705.05,504.564C2703.21,487.453 2701.63,470.313 2700.35,453.151C2699.57,442.606 2698.84,432.043 2698.52,421.473C2698.21,411.398 2698.14,401.261 2699.31,391.234C2699.91,386.081 2700.88,380.93 2702.36,375.955C2703.51,372.106 2705.08,368.261 2707.55,365.057C2709.92,361.984 2713.23,359.756 2717.12,359.202C2721.95,358.515 2726.91,360.066 2731.39,361.724C2740.9,365.247 2749.98,370.007 2758.4,375.651C2760.53,377.075 2762.61,378.563 2764.65,380.103C2765.85,381.004 2767.75,380.294 2768.44,379.109C2769.27,377.691 2768.65,376.223 2767.45,375.32C2759.01,368.958 2749.85,363.58 2740.17,359.351C2730.93,355.318 2719.68,350.66 2709.95,355.817C2701.95,360.054 2698.23,369.348 2696.16,377.655C2693.44,388.573 2692.77,399.906 2692.8,411.121C2692.83,422.882 2693.52,434.63 2694.33,446.36C2695.48,463.134 2696.96,479.886 2698.67,496.612C2700.88,518.153 2703.5,539.652 2706.55,561.09C2706.96,563.994 2707.38,566.898 2707.81,569.8C2708.03,571.281 2709.9,572.096 2711.22,571.734C2712.81,571.298 2713.37,569.813 2713.15,568.328Z" style="fill:rgb(26,57,102);fill-rule:nonzero;"/>
            <path d="M2711.25,587.928C2711.37,602.82 2707.8,617.658 2701.01,630.91C2697.63,637.499 2693.52,643.719 2688.67,649.318C2683.86,654.875 2678.31,659.634 2672.65,664.299C2667.14,668.84 2661.55,673.375 2656.87,678.8C2651.97,684.484 2646.98,692.001 2646.97,699.787C2646.97,707.447 2652.76,713.526 2659.59,716.154C2667.38,719.152 2676.4,717.808 2684.32,716.047C2699.3,712.714 2713.36,705.333 2724.7,695C2726.08,693.74 2727.42,692.433 2728.72,691.087C2731.19,688.519 2727.28,684.598 2724.8,687.17C2714.73,697.616 2701.99,705.324 2688.05,709.37C2681,711.417 2672.95,713.217 2665.59,712.029C2659.7,711.076 2652.71,707.034 2652.52,700.293C2652.42,696.614 2653.95,693.091 2655.71,689.936C2657.35,686.987 2659.36,684.286 2661.62,681.777C2666.17,676.709 2671.49,672.404 2676.74,668.079C2682.22,663.554 2687.6,658.936 2692.29,653.57C2697.14,648.034 2701.37,641.955 2704.86,635.48C2712.7,620.929 2716.92,604.469 2716.79,587.928C2716.76,584.366 2711.22,584.357 2711.25,587.928Z" style="fill:rgb(26,57,102);fill-rule:nonzero;"/>
            <path d="M2979.29,484.902C2979.41,499.793 2975.84,514.632 2969.05,527.884C2965.68,534.472 2961.56,540.693 2956.71,546.291C2951.9,551.849 2946.35,556.607 2940.7,561.273C2935.19,565.814 2929.59,570.349 2924.92,575.773C2920.02,581.457 2915.02,588.975 2915.02,596.761C2915.02,604.421 2920.8,610.5 2927.63,613.128C2935.42,616.126 2944.44,614.782 2952.36,613.02C2967.34,609.688 2981.41,602.306 2992.74,591.973C2994.13,590.714 2995.46,589.407 2996.76,588.06C2999.23,585.493 2995.32,581.571 2992.84,584.144C2982.77,594.59 2970.03,602.298 2956.1,606.344C2949.05,608.391 2940.99,610.191 2933.64,609.002C2927.74,608.049 2920.76,604.008 2920.57,597.267C2920.46,593.588 2921.99,590.065 2923.75,586.91C2925.4,583.961 2927.41,581.259 2929.66,578.751C2934.22,573.683 2939.53,569.377 2944.78,565.053C2950.27,560.528 2955.64,555.909 2960.34,550.544C2965.18,545.007 2969.42,538.928 2972.9,532.453C2980.74,517.903 2984.97,501.443 2984.83,484.902C2984.81,481.339 2979.27,481.331 2979.29,484.902Z" style="fill:rgb(26,57,102);fill-rule:nonzero;"/>
            <path d="M2706.36,721.44C2707.61,744.927 2711.38,768.292 2717.66,790.961C2719.44,797.37 2721.41,803.722 2723.58,810.009C2724.07,811.423 2725.48,812.358 2726.99,811.944C2728.36,811.566 2729.41,809.958 2728.92,808.537C2721.4,786.688 2716.17,764.021 2713.54,741.057C2712.79,734.536 2712.25,727.994 2711.9,721.44C2711.71,717.894 2706.17,717.872 2706.36,721.44Z" style="fill:rgb(26,57,102);fill-rule:nonzero;"/>
            <path d="M2942.16,787.487C2929.64,774.653 2914.31,764.754 2897.43,758.692C2889.48,755.84 2880.11,754.191 2873.71,761.105C2867.88,767.406 2867.36,776.469 2869.89,784.326C2872.49,792.402 2877.3,799.94 2882.34,806.701C2887.13,813.117 2892.53,819.041 2898.49,824.389C2910.69,835.342 2924.86,843.935 2939.93,850.33C2956.18,857.228 2973.89,862.269 2991.57,863.294C3009.94,864.359 3027.43,858.87 3042.07,847.77C3056.51,836.823 3067.2,821.942 3075.25,805.836C3083.32,789.674 3089.33,772.38 3093.85,754.911C3102.89,719.975 3105.48,683.412 3102.01,647.516C3098.53,611.55 3089.1,576.26 3074.05,543.407C3068.32,530.906 3061.52,519.395 3054.14,507.832C3043.65,491.4 3032.67,475.276 3021.36,459.398C3001.2,431.095 2979.98,403.536 2957.96,376.657C2944.74,360.524 2931.35,344.436 2917.13,329.173C2905.24,316.41 2891.87,302.422 2875.3,295.921C2867.36,292.809 2858.53,292.788 2851.78,298.507C2845.22,304.068 2841.87,313.103 2838.95,320.933C2835.58,329.953 2833.22,339.306 2831.82,348.829C2831.3,352.316 2836.64,353.821 2837.16,350.301C2838.51,341.119 2840.75,332.094 2843.93,323.371C2846.64,315.961 2849.91,306.229 2856.8,301.612C2864.38,296.538 2873.86,300.673 2880.81,304.835C2888.54,309.459 2895.45,315.27 2901.92,321.508C2916.5,335.573 2929.61,351.28 2942.61,366.784C2962.36,390.315 2981.42,414.421 2999.75,439.072C3020.14,466.507 3039.75,494.616 3057.59,523.789C3065.22,536.262 3071.25,549.771 3076.51,563.396C3082.69,579.424 3087.58,595.953 3091.12,612.763C3098.18,646.238 3099.83,680.87 3095.78,714.851C3093.77,731.751 3090.26,748.491 3085.33,764.781C3080.25,781.569 3073.86,798.244 3064.85,813.343C3056.2,827.83 3044.73,840.795 3029.92,849.154C3022.76,853.193 3014.94,856.026 3006.79,857.224C2996.88,858.683 2986.68,857.735 2976.89,855.849C2946.22,849.936 2916.02,835.865 2894.55,812.76C2889.32,807.132 2884.68,800.985 2880.77,794.37C2876.55,787.243 2871.94,778.407 2874.78,769.96C2876,766.326 2878.68,763.013 2882.49,761.995C2886.97,760.801 2891.76,762.529 2895.95,764.033C2904,766.922 2911.68,770.79 2918.85,775.438C2925.91,780.013 2932.37,785.386 2938.24,791.404C2940.74,793.959 2944.65,790.041 2942.16,787.487Z" style="fill:rgb(26,57,102);fill-rule:nonzero;"/>
            <path d="M2762.91,821.018C2750.52,819.548 2738.87,814.425 2727.94,808.637C2718.31,803.538 2709.07,797.479 2698.92,793.416C2692.77,790.952 2685.6,789.035 2679.24,791.847C2673.83,794.242 2670.27,799.92 2669.29,805.621C2668.1,812.618 2670.28,819.482 2673.36,825.706C2676.06,831.159 2679.37,836.34 2683.02,841.207C2697.66,860.756 2718.13,875.204 2740.5,884.679C2750.67,888.989 2761.32,892.581 2772.17,894.729C2779.79,896.237 2787.56,897.107 2795.29,897.8C2819.61,899.981 2844.58,899.908 2868.61,895.266C2871.66,894.678 2874.68,894.002 2877.68,893.234C2881.13,892.351 2879.67,887.007 2876.21,887.893C2852.82,893.879 2828.09,894.434 2804.1,892.931C2799.26,892.628 2794.43,892.221 2789.61,891.699C2787.51,891.471 2785.41,891.221 2783.32,890.946C2782.4,890.826 2783.85,891.019 2782.95,890.897C2782.78,890.873 2782.6,890.848 2782.42,890.823C2781.98,890.763 2781.55,890.701 2781.12,890.639C2780.23,890.51 2779.34,890.375 2778.45,890.234C2769.76,888.852 2761.25,886.477 2752.95,883.588C2731.02,875.955 2710.32,863.713 2694.55,846.51C2690.76,842.373 2687.29,837.967 2684.19,833.289C2680.74,828.094 2677.36,822.514 2675.57,816.507C2673.95,811.075 2673.92,805.11 2677.36,800.352C2678.76,798.419 2680.73,796.956 2683.04,796.337C2686.27,795.475 2689.67,796.205 2692.79,797.134C2702.34,799.977 2711.14,805.728 2719.98,810.618C2730.63,816.505 2741.69,822.045 2753.58,824.915C2756.65,825.658 2759.77,826.184 2762.91,826.557C2764.4,826.733 2765.68,825.158 2765.68,823.787C2765.68,822.144 2764.4,821.195 2762.91,821.018Z" style="fill:rgb(26,57,102);fill-rule:nonzero;"/>
            <path d="M2942.97,789.445C2941.94,779.166 2942.11,768.695 2944.59,758.634C2946.48,750.956 2949.45,744.111 2954.09,737.615C2954.32,737.294 2954.55,736.975 2954.79,736.658C2954.92,736.484 2955.05,736.31 2955.18,736.138C2954.9,736.498 2955.17,736.147 2955.22,736.084C2955.77,735.385 2956.34,734.698 2956.92,734.025C2957.96,732.825 2959.04,731.669 2960.18,730.561C2961.28,729.487 2962.42,728.457 2963.6,727.476C2963.86,727.264 2964.12,727.054 2964.38,726.846C2964.53,726.725 2965.27,726.156 2964.77,726.538C2965.36,726.086 2965.96,725.644 2966.57,725.215C2968.67,723.745 2970.87,722.418 2973.15,721.263C2973.62,721.027 2974.09,720.797 2974.57,720.576C2974.82,720.457 2975.08,720.341 2975.33,720.227C2975.52,720.141 2976.59,719.708 2975.72,720.055C2976.6,719.703 2977.49,719.351 2978.39,719.046C2980.62,718.292 2982.85,717.839 2985.19,717.6C2993.23,716.784 3001.32,717.525 3009.33,718.261C3010.82,718.399 3012.1,716.891 3012.1,715.492C3012.1,713.88 3010.83,712.86 3009.33,712.722C3001.94,712.044 2994.5,711.358 2987.08,711.897C2984.09,712.114 2981.09,712.443 2978.21,713.295C2973.65,714.643 2969.29,716.801 2965.31,719.392C2952.98,727.439 2944.29,739.888 2940.12,753.943C2936.71,765.411 2936.24,777.602 2937.43,789.445C2937.58,790.933 2938.6,792.215 2940.2,792.215C2941.58,792.215 2943.12,790.943 2942.97,789.445Z" style="fill:rgb(26,57,102);fill-rule:nonzero;"/>
            <path d="M2886.37,885.666C2887.24,896.066 2887.81,906.924 2885.54,917.189C2884.6,921.398 2883.09,925.886 2880.43,929.138C2877.35,932.904 2872.85,935.243 2868.19,936.419C2857.48,939.125 2846.03,936.308 2835.72,933.239C2822.87,929.414 2810.31,924.69 2797.46,920.862C2785.31,917.243 2772.71,914.316 2759.98,914.048C2749.58,913.83 2738.96,915.339 2729.18,918.974C2719.64,922.525 2710.68,928.091 2704.19,936.049C2697.08,944.783 2693.34,955.557 2693.06,966.796C2692.78,978.24 2695.92,989.735 2701.44,999.724C2707.1,1009.99 2715.48,1018.52 2724.88,1025.42C2734.4,1032.42 2745.12,1037.66 2756.15,1041.82C2768.16,1046.34 2780.66,1049.6 2793.32,1051.65C2819.47,1055.89 2846.4,1055.06 2872.17,1048.81C2894.23,1043.47 2915.31,1034.07 2933.09,1019.83C2949.63,1006.58 2963,988.721 2968.03,967.894C2974.48,941.223 2966.69,913.981 2956.76,889.227C2954.25,882.974 2951.58,876.786 2948.89,870.61C2948.34,871.966 2947.79,873.323 2947.24,874.679C2954.47,873.358 2961.64,871.587 2968.45,868.796C2973.43,866.759 2978.15,864.224 2982.97,861.841C2986.16,860.26 2983.36,855.48 2980.17,857.058C2975.73,859.257 2971.04,861.811 2966.68,863.578C2959.95,866.301 2952.89,868.037 2945.76,869.337C2943.82,869.692 2943.46,871.926 2944.11,873.406C2954.59,897.462 2965.55,923.02 2964.85,949.783C2964.56,960.944 2961.99,971.976 2957.1,982.027C2952.65,991.205 2946.55,999.467 2939.39,1006.72C2924.66,1021.65 2905.82,1032.41 2886.01,1039.06C2861.58,1047.26 2835.55,1050.2 2809.89,1048.13C2797.09,1047.09 2784.41,1044.77 2772.07,1041.24C2760.77,1038 2749.7,1033.82 2739.4,1028.12C2729.5,1022.63 2720.38,1015.71 2713.1,1006.99C2706.08,998.576 2701.31,988.4 2699.39,977.603C2697.55,967.174 2698.69,955.981 2703.75,946.576C2708.32,938.064 2715.66,931.568 2724.19,927.172C2733,922.633 2742.95,920.318 2752.81,919.727C2764.48,919.027 2776.05,920.906 2787.33,923.796C2800.07,927.058 2812.42,931.58 2824.91,935.652C2836.01,939.272 2847.48,942.999 2859.29,942.976C2869.61,942.957 2880.53,939.443 2886.33,930.354C2891.76,921.828 2892.56,910.7 2892.6,900.862C2892.62,895.789 2892.33,890.72 2891.91,885.666C2891.79,884.175 2890.73,882.896 2889.14,882.896C2887.74,882.896 2886.25,884.166 2886.37,885.666Z" style="fill:rgb(26,57,102);fill-rule:nonzero;"/>
            <path d="M2928.04,609.71C2929.43,601.79 2933.55,594.897 2939.88,589.89C2941.06,588.962 2940.85,586.945 2939.88,585.974C2938.72,584.814 2937.14,585.043 2935.97,585.974C2929.05,591.439 2924.22,599.561 2922.7,608.238C2922.44,609.709 2923.09,611.222 2924.63,611.645C2925.97,612.012 2927.78,611.191 2928.04,609.71Z" style="fill:rgb(26,57,102);fill-rule:nonzero;"/>
            <path d="M2942.27,609.71C2943.37,606.506 2944.9,603.434 2946.94,600.414C2948.82,597.63 2951.16,595.022 2953.88,592.656C2955.01,591.675 2954.89,589.745 2953.88,588.74C2952.76,587.619 2951.1,587.756 2949.97,588.74C2943.97,593.947 2939.51,600.739 2936.93,608.238C2936.46,609.609 2937.47,611.326 2938.87,611.645C2940.41,611.995 2941.77,611.179 2942.27,609.71Z" style="fill:rgb(26,57,102);fill-rule:nonzero;"/>
            <path d="M2660.02,711.315C2661.41,703.395 2665.53,696.502 2671.86,691.496C2673.04,690.567 2672.83,688.55 2671.86,687.579C2670.7,686.419 2669.12,686.648 2667.95,687.579C2661.03,693.045 2656.2,701.166 2654.68,709.843C2654.42,711.315 2655.07,712.827 2656.61,713.25C2657.95,713.617 2659.76,712.797 2660.02,711.315Z" style="fill:rgb(26,57,102);fill-rule:nonzero;"/>
            <path d="M2672.58,715.212C2673.68,712.008 2675.21,708.936 2677.24,705.916C2679.12,703.131 2681.46,700.524 2684.18,698.158C2685.31,697.176 2685.19,695.246 2684.18,694.241C2683.06,693.12 2681.4,693.257 2680.27,694.241C2674.27,699.449 2669.81,706.24 2667.23,713.739C2666.76,715.111 2667.77,716.828 2669.17,717.146C2670.71,717.497 2672.07,716.68 2672.58,715.212Z" style="fill:rgb(26,57,102);fill-rule:nonzero;"/>
            <path d="M2907.65,434.544C2925.16,426.501 2942.05,425.84 2945.37,433.068C2948.69,440.296 2937.18,452.675 2919.67,460.719C2902.16,468.762 2885.27,469.423 2881.95,462.195C2878.63,454.967 2890.13,442.588 2907.65,434.544Z" style="fill:rgb(251,210,207);fill-rule:nonzero;"/>
            <path d="M2763.14,500.912C2780.65,492.869 2797.54,492.208 2800.86,499.435C2804.18,506.663 2792.67,519.043 2775.16,527.087C2757.64,535.13 2740.76,535.791 2737.44,528.563C2734.12,521.335 2745.62,508.955 2763.14,500.912Z" style="fill:rgb(251,210,207);fill-rule:nonzero;"/>
            <path d="M2917.44,419.65C2931.36,405.887 2947.05,394.018 2964.1,384.399C2969,381.632 2974.01,379.057 2979.11,376.667C2980.47,376.032 2980.81,374.085 2980.11,372.878C2979.3,371.49 2977.68,371.247 2976.32,371.884C2958.18,380.39 2941.23,391.337 2925.96,404.313C2921.67,407.96 2917.53,411.774 2913.52,415.733C2910.99,418.244 2914.9,422.16 2917.44,419.65Z" style="fill:rgb(26,57,102);fill-rule:nonzero;"/>
            <path d="M2931.16,439.228C2947.9,428.971 2965.94,420.96 2984.8,415.483C2990.15,413.931 2995.55,412.586 3001,411.435C3004.48,410.699 3003.01,405.358 2999.52,406.094C2979.94,410.231 2960.93,417.003 2943.13,426.14C2938.1,428.719 2933.18,431.494 2928.36,434.445C2925.33,436.305 2928.11,441.097 2931.16,439.228Z" style="fill:rgb(26,57,102);fill-rule:nonzero;"/>
            <path d="M2930.54,426.166C2944.64,414.198 2961.27,405.335 2979.03,400.207C2982.44,399.22 2980.99,393.873 2977.55,394.865C2958.84,400.268 2941.47,409.65 2926.63,422.249C2925.48,423.217 2925.63,425.168 2926.63,426.166C2927.76,427.296 2929.4,427.137 2930.54,426.166Z" style="fill:rgb(26,57,102);fill-rule:nonzero;"/>
            <path d="M2740.31,490.857C2720.45,493.585 2701.06,499.014 2682.62,506.865C2677.43,509.074 2672.33,511.486 2667.32,514.079C2664.15,515.719 2666.95,520.501 2670.12,518.862C2687.55,509.831 2706.17,503.176 2725.37,499.068C2730.8,497.906 2736.28,496.954 2741.78,496.198C2743.27,495.995 2744.08,494.097 2743.72,492.792C2743.28,491.193 2741.8,490.653 2740.31,490.857Z" style="fill:rgb(26,57,102);fill-rule:nonzero;"/>
            <path d="M2746.81,513.84C2727.98,521.07 2710.13,530.728 2693.88,542.685C2689.26,546.087 2684.76,549.659 2680.4,553.393C2679.26,554.366 2679.4,556.31 2680.4,557.31C2681.52,558.436 2683.17,558.285 2684.31,557.31C2699.14,544.614 2715.67,533.94 2733.31,525.584C2738.22,523.259 2743.21,521.128 2748.28,519.182C2749.67,518.646 2750.64,517.318 2750.21,515.775C2749.85,514.44 2748.21,513.301 2746.81,513.84Z" style="fill:rgb(26,57,102);fill-rule:nonzero;"/>
            <path d="M2737.5,505.218C2718.75,509.264 2700.87,517.309 2685.42,528.694C2684.22,529.58 2683.62,531.095 2684.43,532.484C2685.12,533.669 2687.01,534.369 2688.22,533.477C2703.33,522.34 2720.63,514.517 2738.98,510.559C2742.46,509.808 2740.99,504.467 2737.5,505.218Z" style="fill:rgb(26,57,102);fill-rule:nonzero;"/>
            <path d="M2832.18,467.906C2831.89,467.836 2831.61,467.751 2831.33,467.666C2828.85,466.907 2820.18,464.857 2823.62,460.657C2825.72,458.084 2829.73,456.82 2832.78,455.86C2833.6,455.601 2834.44,455.354 2835.28,455.175C2838.92,454.407 2839.64,457.033 2838.85,460.042C2838.18,462.607 2836.99,467.336 2833.92,467.997C2833.34,468.121 2832.76,468.046 2832.18,467.906Z" style="fill:rgb(26,57,102);fill-rule:nonzero;"/>
            <path d="M2829.07,462.02C2831.57,467.459 2834.07,472.897 2836.56,478.335C2836.92,479.103 2837.27,479.871 2837.62,480.64C2838.25,481.999 2840.21,482.335 2841.41,481.633C2842.81,480.817 2843.03,479.209 2842.41,477.844C2839.91,472.406 2837.41,466.968 2834.91,461.53C2834.56,460.761 2834.21,459.993 2833.85,459.225C2833.23,457.865 2831.27,457.529 2830.07,458.231C2828.67,459.047 2828.45,460.656 2829.07,462.02Z" style="fill:rgb(26,57,102);fill-rule:nonzero;"/>
            <path d="M2882.88,410.705C2886.16,416.153 2884.69,423.511 2880.05,427.85C2874.98,432.598 2866.77,433.024 2860.7,430.095C2859.36,429.446 2857.71,429.726 2856.91,431.089C2856.2,432.302 2856.55,434.225 2857.91,434.878C2864.54,438.078 2872.29,438.356 2878.99,435.181C2885.38,432.153 2889.4,425.812 2890.1,418.873C2890.49,415.085 2889.63,411.17 2887.66,407.909C2885.83,404.859 2881.03,407.641 2882.88,410.705Z" style="fill:rgb(26,57,102);fill-rule:nonzero;"/>
            <path d="M2754.47,468.89C2756.64,475.449 2762.56,480.311 2769.34,481.532C2776.47,482.818 2783.59,480.114 2788.48,474.837C2791.25,471.855 2793.26,468.229 2794.31,464.297C2795.23,460.849 2789.89,459.378 2788.97,462.825C2787.23,469.357 2781.87,475.247 2774.96,476.251C2768.78,477.15 2761.81,473.475 2759.81,467.417C2758.69,464.049 2753.34,465.492 2754.47,468.89Z" style="fill:rgb(26,57,102);fill-rule:nonzero;"/>
        </g>
    </g>
</svg>
