<?xml version="1.0" encoding="UTF-8" standalone="no"?>
<!DOCTYPE svg PUBLIC "-//W3C//DTD SVG 1.1//EN" "http://www.w3.org/Graphics/SVG/1.1/DTD/svg11.dtd">
<svg width="100%" height="100%" viewBox="0 0 2657 2239" version="1.1" xmlns="http://www.w3.org/2000/svg" xmlns:xlink="http://www.w3.org/1999/xlink" xml:space="preserve" xmlns:serif="http://www.serif.com/" style="fill-rule:evenodd;clip-rule:evenodd;stroke-linejoin:round;stroke-miterlimit:2;">
    <g transform="matrix(1,0,0,1,-6223.86,-5139.19)">
        <g transform="matrix(4.16667,0,0,4.16667,1617.99,-391.541)">
            <g transform="matrix(1,0,0,1,-264.873,304.237)">
                <path d="M2334.33,959.033C2346.06,965.075 2358.7,968.988 2370.79,974.196C2373.46,975.346 2376.11,976.578 2378.7,977.913C2362.17,970.572 2342.8,966.28 2327.69,956.242C2323.38,953.384 2319.44,950.007 2315.92,946.231C2321.4,951.306 2327.6,955.565 2334.33,959.033ZM2239.6,941.548C2241.57,934.368 2244.05,927.348 2246.48,920.312C2243.4,930.485 2240,940.611 2238.12,951.047C2234.76,969.729 2236.58,989.25 2242.97,1007.11C2239.18,997.502 2236.8,987.259 2236.01,976.976C2235.09,964.973 2236.42,953.14 2239.6,941.548ZM1975.21,641.353C1975.33,641.018 1975.53,640.679 1975.69,640.369C1976.07,639.653 1976.51,638.987 1976.95,638.316C1976.98,638.282 1976.99,638.258 1977.01,638.229C1977.05,638.187 1977.1,638.137 1977.16,638.071C1977.35,637.872 1977.52,637.665 1977.71,637.468C1977.99,637.175 1978.28,636.893 1978.58,636.62C1978.77,636.443 1978.97,636.27 1979.17,636.102C1979.61,635.746 1979.58,635.774 1979.06,636.184C1979.46,635.683 1980.4,635.293 1980.96,634.995C1981.21,634.863 1981.66,634.535 1981.94,634.511C1981.76,634.587 1981.58,634.662 1981.4,634.738C1981.62,634.648 1981.84,634.564 1982.07,634.484C1982.63,634.285 1983.21,634.116 1983.79,633.973C1984.14,633.888 1984.49,633.814 1984.84,633.749C1984.95,633.728 1985.07,633.711 1985.18,633.692C1985.21,633.689 1985.24,633.686 1985.27,633.682C1986.74,633.595 1988.19,633.547 1989.66,633.657C1990,633.682 1991.99,633.796 1990.54,633.718C1991.4,633.764 1992.29,634.001 1993.14,634.176C1998.08,635.201 2002.88,636.925 2007.64,638.641C2005.18,638.758 2002.71,638.873 2000.24,639.002C1991.44,639.462 1982.05,640.262 1974.42,644.221C1974.59,643.381 1974.81,642.549 1975.09,641.738C1975.11,641.677 1975.16,641.515 1975.21,641.353ZM2061.44,604.642C2061.54,604.803 2061.64,604.976 2061.7,605.17C2061.61,605.104 2061.52,604.896 2061.44,604.642ZM2005.19,588.569C2004.6,587.261 2004.03,585.945 2003.47,584.625C2003.38,584.418 2003.27,584.158 2003.25,584.093C2003.08,583.699 2002.92,583.304 2002.76,582.91C2002.43,582.115 2002.12,581.318 2001.81,580.519C2000.55,577.302 1999.41,574.04 1998.47,570.718C1998,569.073 1997.58,567.414 1997.23,565.74C1997.06,564.913 1996.9,564.082 1996.76,563.247C1996.69,562.84 1996.6,562.415 1996.57,562.002C1996.57,562.049 1996.57,562.074 1996.58,562.112C1996.56,561.979 1996.55,561.827 1996.54,561.692C1996.19,558.605 1995.98,555.262 1996.48,552.167C1996.52,551.963 1996.57,551.707 1996.59,551.621C1996.66,551.222 1996.73,550.824 1996.82,550.428C1996.99,549.634 1997.18,548.847 1997.41,548.069C1997.65,547.282 1997.92,546.516 1998.2,545.746C1998.22,545.697 1998.23,545.67 1998.24,545.631C1998.44,545.183 1998.64,544.737 1998.86,544.299C1999.24,543.55 1999.64,542.811 2000.09,542.1C2000.3,541.76 2000.53,541.436 2000.75,541.105C2000.77,541.066 2000.79,541.039 2000.81,541.008C2000.85,540.972 2000.89,540.932 2000.94,540.88C2001.46,540.347 2001.98,539.831 2002.52,539.326C2002.54,539.317 2002.55,539.307 2002.56,539.3C2003.02,539.03 2003.48,538.766 2003.93,538.491C2003.99,538.459 2004.02,538.434 2004.06,538.41C2004.08,538.404 2004.1,538.4 2004.12,538.394C2004.47,538.283 2004.81,538.159 2005.17,538.066C2005.24,538.046 2005.43,537.984 2005.62,537.929C2005.84,537.908 2006.06,537.892 2006.28,537.883C2006.64,537.869 2006.99,537.871 2007.34,537.888C2007.46,537.895 2007.57,537.903 2007.69,537.91C2008.26,537.967 2008.16,537.948 2007.4,537.853C2007.76,537.656 2009.11,538.231 2009.49,538.348C2009.84,538.458 2010.18,538.589 2010.52,538.711C2010.53,538.715 2010.54,538.717 2010.55,538.72C2010.59,538.742 2010.63,538.763 2010.68,538.791C2011.35,539.155 2012.04,539.489 2012.69,539.889C2013.37,540.301 2014.01,540.754 2014.65,541.208C2014.65,541.211 2014.66,541.215 2014.66,541.218C2014.63,541.192 2014.61,541.176 2014.58,541.146C2014.61,541.171 2014.64,541.195 2014.67,541.22C2014.83,541.339 2015.17,541.642 2014.87,541.388C2015.19,541.652 2015.51,541.911 2015.82,542.184C2017.05,543.261 2018.21,544.419 2019.31,545.632C2019.8,546.184 2020.29,546.748 2020.76,547.322C2020.97,547.574 2021.17,547.829 2021.38,548.083C2021.52,548.269 2021.66,548.455 2021.8,548.643C2026.05,554.438 2029.95,560.517 2033.56,566.731C2037.18,572.971 2040.49,579.391 2043.48,585.96C2044.21,587.571 2044.92,589.192 2045.62,590.82C2045.67,590.95 2045.73,591.088 2045.76,591.158C2045.9,591.505 2046.05,591.852 2046.19,592.2C2046.59,593.174 2046.98,594.15 2047.37,595.129C2048.69,598.486 2049.93,601.876 2051.08,605.295C2051.76,607.303 2052.19,609.594 2053.77,611.113C2055.77,613.026 2058.94,613.327 2061.29,611.892C2063.98,610.257 2064.56,607.382 2063.95,604.502C2063.55,602.603 2063.06,600.718 2062.59,598.833C2060.74,591.359 2058.71,583.93 2056.83,576.462C2054.99,569.141 2053.3,561.775 2052.1,554.319C2051.95,553.397 2051.81,552.474 2051.68,551.55C2051.66,551.439 2051.51,550.265 2051.57,550.726C2051.54,550.527 2051.52,550.327 2051.49,550.126C2051.25,548.126 2051.04,546.12 2050.89,544.111C2050.61,540.397 2050.49,536.668 2050.59,532.944C2050.64,531.224 2050.73,529.506 2050.87,527.791C2050.94,526.848 2051.04,525.907 2051.14,524.968C2051.18,524.607 2051.23,524.246 2051.27,523.886C2051.27,523.942 2051.44,522.687 2051.46,522.537C2051.91,519.683 2052.52,516.841 2053.53,514.13C2053.55,514.07 2053.58,513.98 2053.61,513.885C2053.71,513.608 2053.87,513.32 2053.99,513.069C2054.24,512.55 2054.51,512.04 2054.81,511.543C2054.98,511.249 2055.16,510.959 2055.35,510.675C2055.41,510.582 2055.48,510.488 2055.54,510.395C2055.86,509.953 2055.8,510.024 2055.35,510.608C2055.51,510.043 2056.51,509.289 2056.94,508.903C2057.02,508.83 2057.1,508.756 2057.18,508.683C2057.27,508.609 2057.33,508.562 2057.37,508.525C2057.55,508.42 2057.72,508.325 2057.77,508.298C2057.96,508.182 2058.15,508.07 2058.35,507.964C2058.45,507.912 2058.55,507.86 2058.65,507.808C2059.15,507.576 2059.06,507.606 2058.38,507.899C2058.76,507.508 2059.87,507.44 2060.39,507.3C2060.4,507.296 2060.4,507.294 2060.42,507.291C2060.84,507.276 2061.25,507.249 2061.67,507.264C2061.71,507.266 2061.75,507.268 2061.78,507.27C2062.03,507.334 2062.4,507.349 2062.57,507.39C2063.1,507.514 2063.61,507.693 2064.13,507.861C2064.14,507.867 2064.14,507.871 2064.15,507.878C2064.45,508.038 2064.76,508.18 2065.06,508.346C2065.63,508.668 2066.51,509.074 2066.99,509.578C2067.05,509.652 2067.12,509.723 2067.18,509.773C2067.41,509.969 2067.64,510.171 2067.86,510.375C2068.35,510.834 2068.83,511.312 2069.3,511.807C2069.78,512.323 2070.43,512.9 2070.77,513.518C2070.17,512.442 2070.74,513.484 2070.9,513.705C2071.21,514.119 2071.5,514.539 2071.78,514.965C2072.56,516.138 2073.27,517.355 2073.91,518.607C2074.26,519.28 2074.57,519.966 2074.89,520.654C2074.89,520.665 2074.89,520.67 2074.9,520.68C2074.91,520.72 2074.93,520.76 2074.94,520.814C2075.12,521.301 2075.31,521.785 2075.48,522.274C2076.71,525.735 2077.73,529.267 2078.56,532.841C2078.94,534.465 2079.28,536.099 2079.59,537.739C2079.75,538.633 2079.9,539.528 2080.05,540.424C2080.12,540.873 2080.19,541.321 2080.25,541.77C2080.28,541.978 2080.31,542.187 2080.34,542.395C2080.35,542.468 2080.36,542.548 2080.38,542.67C2080.8,546.28 2081.11,549.895 2081.24,553.528C2081.5,560.859 2081.14,568.204 2080.35,575.493C2080.26,576.26 2080.17,577.026 2080.08,577.792C2080.02,578.252 2079.96,578.712 2079.91,579.172C2079.89,579.276 2079.88,579.358 2079.88,579.426C2079.87,579.491 2079.85,579.57 2079.84,579.665C2079.56,581.663 2079.26,583.658 2078.92,585.648C2078.32,589.266 2077.62,592.869 2076.85,596.456C2075.3,603.75 2073.46,610.98 2071.46,618.166C2069.72,624.453 2067.85,630.705 2065.96,636.948C2057.23,637.038 2048.51,637.207 2039.79,637.443C2038.84,636.579 2037.9,635.705 2036.97,634.811C2034.71,632.623 2032.53,630.352 2030.44,628.009C2029.22,626.649 2028.02,625.264 2026.86,623.857C2026.29,623.171 2025.73,622.479 2025.17,621.782C2024.87,621.4 2024.56,621.017 2024.26,620.633C2024.31,620.697 2024.35,620.746 2024.41,620.824C2024.33,620.714 2024.24,620.604 2024.16,620.494C2024.15,620.48 2024.14,620.467 2024.13,620.454C2024.01,620.305 2023.9,620.155 2023.78,620.006C2018.08,612.493 2013.09,604.446 2008.79,596.049C2007.53,593.585 2006.33,591.09 2005.19,588.569ZM2002.5,539.343C2002.02,539.771 2002.28,539.495 2002.5,539.343ZM2006.22,537.843C2006.03,537.87 2005.84,537.897 2005.64,537.923C2005.88,537.855 2006.13,537.797 2006.22,537.843ZM2054.18,607.197C2054.18,607.173 2054.18,607.149 2054.17,607.126C2054.18,607.163 2054.18,607.192 2054.18,607.197ZM2057.31,508.562C2057.23,508.628 2057.11,508.718 2056.94,508.856C2056.94,508.803 2057.12,508.68 2057.31,508.562ZM2399.13,420.432C2399.14,420.304 2399.18,420.022 2399.2,419.865C2399.24,419.558 2399.29,419.251 2399.33,418.944C2399.44,418.219 2399.55,417.495 2399.67,416.771C2399.95,415.038 2400.26,413.31 2400.62,411.588C2401.29,408.297 2402.09,405.033 2403.03,401.808C2403.97,398.587 2405.04,395.406 2406.26,392.28C2406.52,391.6 2406.8,390.925 2407.07,390.249C2407.11,390.172 2407.13,390.11 2407.15,390.055C2407.18,389.998 2407.21,389.929 2407.25,389.845C2407.42,389.444 2407.6,389.041 2407.77,388.641C2408.46,387.104 2409.18,385.584 2409.95,384.082C2411.27,381.459 2412.77,378.951 2414.53,376.594C2414.66,376.423 2414.88,376.147 2414.93,376.08C2415.19,375.765 2415.45,375.454 2415.72,375.148C2416.16,374.638 2416.62,374.14 2417.09,373.654C2417.65,373.076 2418.22,372.515 2418.82,371.975C2419.01,371.797 2419.21,371.621 2419.41,371.448C2419.5,371.371 2419.87,371.061 2420.1,370.864C2421.13,370.052 2422.28,369.337 2423.44,368.726C2423.77,368.552 2424.1,368.396 2424.44,368.23C2425.12,367.889 2424.63,368.101 2424.37,368.231C2424.97,367.856 2425.98,367.691 2426.63,367.534C2426.92,367.464 2427.21,367.403 2427.5,367.349C2427.77,367.3 2427.88,367.26 2427.91,367.233C2428.48,367.209 2429.3,367.288 2429.5,367.298C2429.5,367.298 2429.65,367.299 2429.81,367.305C2429.97,367.332 2430.13,367.357 2430.28,367.39C2431.01,367.541 2431.7,367.774 2432.39,368.017C2432.54,368.09 2432.69,368.16 2432.84,368.236C2433.21,368.432 2433.57,368.643 2433.93,368.87C2434.06,368.951 2434.18,369.047 2434.31,369.145C2434.39,369.175 2434.52,369.247 2434.65,369.369C2434.69,369.404 2434.73,369.439 2434.77,369.473C2434.83,369.514 2434.9,369.556 2434.96,369.588C2434.9,369.558 2434.86,369.534 2434.8,369.507C2434.93,369.613 2435.05,369.718 2435.16,369.827C2435.75,370.373 2436.27,370.969 2436.79,371.574C2436.9,371.719 2437,371.861 2437.1,372.007C2437.37,372.408 2437.63,372.819 2437.88,373.236C2438.33,373.987 2438.73,374.763 2439.1,375.553C2439.13,375.597 2439.21,375.748 2439.27,375.884C2439.29,375.94 2439.31,375.996 2439.33,376.051C2439.38,376.16 2439.42,376.271 2439.48,376.377C2439.44,376.297 2439.41,376.242 2439.38,376.176C2439.56,376.654 2439.75,377.131 2439.92,377.616C2440.62,379.627 2441.16,381.692 2441.6,383.776C2441.81,384.771 2441.99,385.771 2442.15,386.775C2442.24,387.284 2442.31,387.794 2442.39,388.303C2442.42,388.569 2442.45,388.835 2442.48,389.101C2442.75,391.398 2442.94,393.705 2443.06,396.015C2443.31,400.503 2443.35,404.999 2443.31,409.493C2443.22,420.17 2443.4,430.844 2443.27,441.52C2442.98,464.897 2441.52,488.232 2439.69,511.534C2430.74,509.752 2421.69,508.554 2412.59,507.958C2411.67,504.812 2410.74,501.669 2409.81,498.528C2416.42,498.403 2423.04,498.816 2429.59,499.801C2430.94,500.004 2432.31,499.461 2432.71,498.031C2433.04,496.835 2432.3,495.119 2430.94,494.914C2423.43,493.785 2415.86,493.331 2408.31,493.544C2407.28,490.154 2406.25,486.767 2405.2,483.385C2411.22,482.317 2417.3,481.518 2423.4,481.015C2428.48,480.595 2433.57,480.373 2438.67,480.332C2441.93,480.306 2441.94,475.238 2438.67,475.265C2426.94,475.357 2415.22,476.458 2403.67,478.529C2402.63,475.223 2401.57,471.923 2400.5,468.628C2400.3,467.391 2400.09,466.154 2399.9,464.914C2399.78,464.119 2399.67,463.323 2399.55,462.527C2399.54,462.441 2399.53,462.372 2399.52,462.31C2399.52,462.248 2399.51,462.176 2399.5,462.086C2399.43,461.576 2399.37,461.066 2399.3,460.555C2397.69,447.254 2397.46,433.74 2399.13,420.432ZM2430.21,367.351C2430.11,367.337 2430.01,367.323 2429.91,367.309C2430.05,367.316 2430.19,367.329 2430.21,367.351ZM2465.49,480.778C2467.42,475.514 2469.45,470.284 2471.57,465.093C2472.07,463.85 2472.59,462.61 2473.11,461.371C2473.18,461.195 2473.25,461.018 2473.33,460.842C2473.32,460.857 2473.32,460.852 2473.33,460.833C2473.34,460.823 2473.34,460.814 2473.34,460.804C2473.34,460.811 2473.34,460.823 2473.33,460.828C2473.37,460.747 2473.48,460.479 2473.51,460.398C2473.82,459.672 2474.13,458.945 2474.44,458.22C2475.57,455.608 2476.72,453.007 2477.89,450.417C2482.34,440.562 2486.97,430.649 2493.21,421.774C2493.55,421.284 2493.9,420.797 2494.26,420.314C2494.44,420.073 2494.62,419.835 2494.79,419.594C2494.84,419.531 2494.88,419.479 2494.91,419.432C2494.93,419.414 2494.94,419.4 2494.96,419.377C2495.72,418.435 2496.45,417.477 2497.31,416.617C2497.6,416.324 2497.9,416.042 2498.21,415.77C2498.19,415.755 2498.23,415.704 2498.39,415.594C2498.47,415.545 2498.54,415.499 2498.61,415.45C2498.66,415.413 2498.69,415.38 2498.69,415.359C2498.69,415.38 2498.67,415.398 2498.66,415.418C2499.36,414.952 2500.05,414.509 2500.81,414.14C2500.88,414.101 2500.96,414.065 2501.04,414.029C2501.41,413.916 2501.77,413.762 2502.14,413.652C2502.5,413.544 2502.87,413.448 2503.24,413.365C2503.41,413.326 2503.59,413.291 2503.76,413.258C2503.69,413.261 2503.63,413.262 2503.56,413.26C2503.63,413.262 2503.7,413.257 2503.76,413.257C2503.77,413.255 2503.78,413.253 2503.79,413.251C2504.57,413.105 2504.22,413.232 2503.77,413.257C2504.49,413.253 2505.22,413.13 2505.94,413.146C2506.3,413.153 2506.66,413.183 2507.02,413.207C2506.92,413.186 2506.82,413.165 2506.69,413.136C2506.84,413.171 2507,413.192 2507.16,413.216C2507.18,413.216 2507.19,413.217 2507.2,413.218C2507.35,413.227 2507.5,413.262 2507.56,413.285C2508.33,413.434 2509.08,413.632 2509.82,413.881C2509.93,413.919 2510.46,414.135 2510.64,414.198C2510.87,414.311 2511.12,414.43 2511.2,414.471C2511.91,414.842 2512.6,415.261 2513.25,415.725C2513.29,415.749 2513.31,415.765 2513.34,415.785C2513.35,415.791 2513.35,415.795 2513.36,415.801C2513.71,416.121 2514.08,416.428 2514.42,416.765C2514.73,417.069 2515.03,417.385 2515.31,417.712C2515.42,417.839 2515.54,418.034 2515.67,418.171C2516.12,418.837 2516.55,419.505 2516.92,420.223C2516.97,420.33 2517.03,420.438 2517.08,420.546C2517.16,420.918 2517.42,421.378 2517.52,421.715C2517.69,422.222 2517.82,422.734 2517.95,423.251C2518.02,423.563 2518.08,423.876 2518.15,424.19C2518.17,424.322 2518.25,424.861 2518.28,425.051C2518.4,426.21 2518.45,427.376 2518.43,428.541C2518.42,429.261 2518.39,429.98 2518.34,430.697C2518.31,431.098 2518.27,431.497 2518.23,431.896C2518.22,431.968 2518.16,432.468 2518.13,432.706C2518.1,432.891 2518.07,433.126 2518.06,433.186C2518,433.586 2517.93,433.985 2517.86,434.383C2517.74,435.021 2517.62,435.657 2517.48,436.291C2517.18,437.716 2516.85,439.132 2516.49,440.543C2515.13,445.955 2513.59,451.321 2511.91,456.64C2510.28,461.801 2508.5,466.917 2506.61,471.988C2505.64,474.597 2504.63,477.194 2503.6,479.779C2503.11,481.001 2502.61,482.22 2502.11,483.436C2501.85,484.08 2501.58,484.723 2501.31,485.366C2501.29,485.423 2501.23,485.56 2501.18,485.669C2501.06,485.949 2500.94,486.23 2500.83,486.51C2495.53,498.926 2489.63,511.062 2483.39,523.025C2472.92,523.36 2462.45,523.695 2451.99,524.031C2455.79,509.408 2460.29,494.966 2465.49,480.778ZM2515.5,511.358C2516.19,510.778 2516.88,510.205 2517.58,509.641C2517.91,509.376 2518.24,509.114 2518.57,508.853C2518.78,508.68 2519.01,508.514 2519.22,508.337C2519.18,508.37 2519.16,508.387 2519.13,508.416C2520.58,507.315 2522.05,506.252 2523.56,505.239C2526.34,503.379 2529.24,501.676 2532.29,500.301C2532.37,500.264 2532.49,500.217 2532.61,500.17C2532.53,500.198 2532.44,500.23 2532.34,500.266C2532.7,500.14 2533.04,499.984 2533.39,499.851C2534.1,499.58 2534.83,499.33 2535.56,499.106C2536.92,498.689 2538.29,498.457 2539.68,498.167C2537.62,498.598 2539.85,498.173 2540.47,498.147C2541.1,498.12 2541.73,498.123 2542.36,498.16C2542.58,498.173 2542.8,498.196 2543.03,498.216L2543.03,498.218C2543.69,498.338 2544.35,498.499 2544.99,498.703C2545.2,498.773 2545.42,498.854 2545.63,498.93C2546.25,499.24 2546.85,499.556 2547.43,499.936C2547.53,500.006 2548.25,500.64 2547.82,500.212C2547.91,500.302 2548,500.385 2548.02,500.405C2548.19,500.563 2548.75,501.309 2549.01,501.519C2549.13,501.707 2549.25,501.892 2549.36,502.086C2549.45,502.252 2549.53,502.425 2549.62,502.592C2549.77,503.052 2549.92,503.506 2550.03,503.978C2550.08,504.159 2550.09,504.54 2550.17,504.762C2550.24,505.809 2550.26,506.848 2550.17,507.898C2550.16,508.078 2550.14,508.258 2550.12,508.439C2550.12,508.45 2550.11,508.456 2550.11,508.469C2550.02,508.948 2549.94,509.429 2549.83,509.906C2549.59,511.02 2549.28,512.119 2548.93,513.202C2548.68,513.964 2548.29,514.734 2548.03,515.509C2548.08,515.406 2548.08,515.594 2547.98,515.817C2547.93,515.912 2547.89,516.007 2547.85,516.102C2547.84,516.128 2547.83,516.154 2547.83,516.18C2547.83,516.157 2547.84,516.144 2547.84,516.122C2547.76,516.294 2547.69,516.467 2547.61,516.639C2547.3,517.307 2546.99,517.971 2546.67,518.633C2546.25,519.512 2545.8,520.38 2545.36,521.249C2543.24,521.122 2541.09,521.175 2538.99,521.243C2527.26,521.619 2515.53,521.994 2503.81,522.37C2507.54,518.524 2511.41,514.814 2515.5,511.358ZM2548.8,501.173C2548.71,501.028 2548.67,500.963 2548.8,501.173ZM2550.15,504.443C2550.15,504.45 2550.15,504.457 2550.16,504.464C2550.13,504.166 2550.11,503.902 2550.15,504.443ZM2438.64,524.458C2431.59,524.684 2424.54,524.91 2417.49,525.136C2416.86,522.899 2416.25,520.659 2415.61,518.424C2415.1,516.652 2414.59,514.882 2414.08,513.111C2418.89,513.463 2423.69,513.986 2428.47,514.695C2432.09,515.233 2435.69,515.875 2439.28,516.608C2439.07,519.225 2438.86,521.842 2438.64,524.458ZM2568.68,773.09C2567.74,698.688 2566.28,624.293 2564.32,549.91C2564.08,540.451 2562.86,529.369 2555.21,524.195C2555.69,523.205 2556.16,522.214 2556.61,521.21C2558.7,516.507 2560.35,511.517 2560.38,506.312C2560.41,500.388 2557.95,495.071 2553.12,491.585C2547.58,487.582 2540.29,487.315 2533.89,489.038C2526.94,490.907 2520.56,494.784 2514.84,499.043C2509.84,502.759 2505.15,506.835 2500.68,511.155C2502.94,506.456 2505.15,501.728 2507.26,496.955C2511.98,486.295 2516.32,475.461 2520.03,464.408C2521.83,459.054 2523.48,453.651 2524.96,448.201C2526.59,442.239 2528.18,436.175 2528.52,429.978C2528.82,424.541 2527.93,418.782 2525.09,414.059C2522.95,410.514 2519.77,407.452 2516.06,405.591C2507.96,401.524 2498.56,402.443 2491.53,408.192C2489.53,409.82 2488,411.911 2486.45,413.943C2484.76,416.153 2483.19,418.445 2481.71,420.799C2478.76,425.479 2476.19,430.38 2473.78,435.351C2468.61,445.995 2463.92,456.887 2459.59,467.896C2456.64,475.399 2453.89,482.982 2451.33,490.626C2452.24,476.956 2452.94,463.274 2453.26,449.574C2453.55,437.461 2453.23,425.356 2453.4,413.246C2453.53,403.736 2453.48,394.23 2452.04,384.807C2450.69,375.944 2447.69,366.578 2440.26,360.975C2435.53,357.41 2429.3,356.335 2423.59,357.847C2417.16,359.551 2411.61,364.135 2407.51,369.228C2402.96,374.876 2399.86,381.273 2397.13,387.959C2394.6,394.175 2392.64,400.62 2391.2,407.177C2389.37,415.542 2388.35,424.077 2388,432.638C2384.04,422.378 2379.46,412.328 2373.18,403.341C2367.18,394.771 2358.3,385.509 2346.77,388.155C2341.28,389.414 2336.66,393.124 2332.64,396.885C2328.3,400.943 2324.27,405.336 2320.57,409.985C2316.9,414.608 2313.54,419.458 2310.52,424.537C2310.51,424.557 2310.5,424.577 2310.49,424.597C2303.41,423.68 2296.28,423.051 2289.14,422.821C2277.2,422.437 2265.27,423.191 2253.43,424.792C2251.47,425.058 2249.51,425.35 2247.55,425.66C2247.53,425.299 2247.42,424.921 2247.19,424.537C2241.54,415.025 2234.68,406.215 2226.75,398.492C2219.75,391.668 2210.75,384.937 2200.51,388.895C2190.84,392.634 2184.43,402.636 2179.57,411.283C2174.81,419.771 2171.15,428.859 2167.75,437.959C2162.15,452.902 2157.21,468.113 2152.51,483.381C2149.37,483.146 2146.23,482.956 2143.08,482.865C2137.87,482.715 2132.66,482.771 2127.45,483.018C2124.2,483.172 2124.19,488.24 2127.45,488.086C2135.3,487.714 2143.16,487.821 2150.99,488.356C2149.77,492.366 2148.57,496.379 2147.37,500.391C2143.64,500.822 2139.93,501.41 2136.25,502.173C2134.91,502.451 2134.14,504.032 2134.48,505.29C2134.86,506.682 2136.25,507.339 2137.6,507.06C2140.32,506.496 2143.06,506.037 2145.82,505.665C2144.79,509.14 2143.78,512.618 2142.77,516.101C2141.29,516.372 2139.81,516.652 2138.33,516.955C2133.26,517.993 2128.24,519.228 2123.27,520.644C2120.14,521.536 2121.47,526.427 2124.62,525.531C2130.1,523.971 2135.64,522.67 2141.22,521.577C2133.38,549.225 2126.3,577.096 2120.26,605.19C2117.98,615.805 2115.82,626.473 2113.85,637.183C2101.43,636.933 2089,636.83 2076.57,636.875C2082.23,618.082 2087.43,599.132 2089.98,579.632C2091.33,569.334 2091.88,558.906 2091.1,548.538C2090.32,538.268 2088.5,527.741 2084.72,518.119C2081.36,509.587 2075.26,500.635 2066.06,497.83C2061.49,496.439 2056.2,497.149 2052.23,499.818C2048.15,502.559 2045.63,506.59 2043.89,511.103C2042.18,515.518 2041.53,520.292 2041,524.968C2040.42,530.165 2040.3,535.408 2040.54,540.631C2040.9,548.416 2042.03,556.15 2043.55,563.798C2041.77,560.648 2039.92,557.541 2037.98,554.484C2032.64,546.057 2026.99,537.111 2018.47,531.554C2014.12,528.716 2009.06,527.22 2003.88,528.018C1998.6,528.831 1994.24,532.403 1991.44,536.816C1985.85,545.617 1985.31,556.353 1987.06,566.357C1988.73,575.909 1992.53,585.057 1996.52,593.846C1999.56,600.565 2003.03,607.095 2006.93,613.357C2011.16,620.145 2015.91,626.656 2021.13,632.738C2014.77,630.315 2008.35,628.05 2001.87,626.01C1993.78,623.461 1984.99,622.102 1976.99,625.686C1968.3,629.584 1963.5,639.316 1964.07,648.583C1964.16,650.02 1964.35,651.426 1964.63,652.806C1957.8,662.835 1958.12,676.97 1959.03,689.53L1969.55,835.939C1970.5,849.139 1982.71,858.633 1995.72,856.211C2003.27,854.805 2011.36,853.485 2019.82,852.246C2023.49,851.71 2027.22,851.19 2031.02,850.686C2031.06,850.681 2031.1,850.676 2031.14,850.67C2033,850.423 2034.87,850.181 2036.76,849.942C2036.83,849.934 2036.89,849.926 2036.96,849.918C2038.84,849.68 2040.74,849.446 2042.65,849.216C2071.78,845.71 2103.63,843.137 2133.37,841.64C2137.89,848.321 2143.16,854.446 2149.83,859.111C2157.27,864.323 2166.67,867.368 2175.8,866.418C2183.89,865.578 2191.57,861.774 2196.02,854.78C2198.11,851.502 2199.22,847.858 2199.61,844.11C2201.43,844.459 2203.27,844.811 2205.12,845.163C2204.9,846.561 2205.7,848.153 2207.53,848.157C2217.62,848.178 2228.32,849.518 2236.99,854.468C2240.1,856.243 2242.24,857.88 2244.68,860.632C2244.9,860.887 2245.12,861.145 2245.34,861.408C2245.43,861.516 2245.51,861.627 2245.6,861.737C2245.67,861.819 2245.77,861.953 2245.8,861.991C2246.21,862.561 2246.62,863.137 2246.99,863.733C2247.7,864.855 2248.31,866.03 2248.85,867.241C2248.91,867.388 2249.01,867.637 2249.05,867.725C2249.17,868.033 2249.28,868.345 2249.39,868.659C2249.59,869.262 2249.78,869.873 2249.94,870.491C2250.07,870.98 2250.18,871.473 2250.28,871.969C2250.33,872.255 2250.38,872.542 2250.43,872.83C2250.45,872.922 2250.46,872.98 2250.47,873.03C2250.47,873.06 2250.47,873.081 2250.48,873.131C2251.01,878.528 2250.66,884.064 2249.82,889.411C2247.73,902.664 2242.79,915.236 2238.53,927.892C2234.48,939.944 2231.23,952.176 2230.72,964.941C2230.25,976.676 2231.8,988.535 2235.12,999.793C2241.89,1022.68 2256.02,1043.13 2275.59,1056.89C2295.03,1070.55 2319.19,1077.44 2342.9,1076.48C2367.04,1075.51 2394.05,1066.41 2407.87,1045.35C2414.67,1035 2417.78,1021.98 2414.73,1009.82C2411.92,998.605 2404.28,989.369 2395.3,982.41C2385.33,974.687 2373.82,969.798 2362.14,965.282C2349.98,960.583 2337.56,956.122 2326.78,948.634C2309.31,936.509 2297.15,915.339 2299.12,893.741C2299.46,890.05 2300.24,885.98 2301.35,882.039C2302.53,877.84 2303.96,874.048 2305.91,870.274C2309.68,862.963 2314.89,856.549 2322.43,853.148C2325.82,851.615 2329.89,850.983 2333.88,851.174C2335.68,851.261 2336.48,849.752 2336.29,848.359C2338.1,848.146 2339.9,847.936 2341.66,847.728C2341.57,848.343 2341.47,848.958 2341.4,849.58C2341.32,850.235 2341.27,850.895 2341.24,851.556C2339.51,856.284 2338.76,861.296 2339.61,866.457C2340.95,874.578 2346.84,881.29 2354.24,884.603C2362.81,888.435 2372.67,888.411 2381.5,885.411C2392.93,881.525 2402.14,873.214 2409.96,864.28C2417.87,855.24 2424.86,845.446 2433.15,836.725C2433.78,836.065 2434.42,835.42 2435.06,834.773C2465.1,832.464 2495.08,829.413 2524.97,825.57C2537.16,824.003 2550.33,821.817 2558.79,812.894C2568.44,802.703 2568.85,787.128 2568.68,773.09Z" style="fill:white;fill-rule:nonzero;"/>
            </g>
            <g transform="matrix(1,0,0,1,-264.873,304.237)">
                <path d="M2508.23,429.947C2502.63,459.611 2490.87,485.501 2477.11,513.084L2465.42,513.459C2469.67,498.904 2474.51,484.912 2480.12,470.968L2480.14,470.968C2481.57,466.764 2508.34,403.094 2508.23,429.947ZM2433.16,424.477C2433.27,437.939 2433.06,451.93 2432.46,465.265C2425.2,465.531 2417.92,466.164 2410.68,467.159C2406.05,445.153 2406.79,403.845 2422.11,383.891C2424.89,380.273 2430.56,381.462 2431.64,385.892C2434.63,398.052 2432.45,411.824 2433.16,424.477ZM2043.69,627.203C2030.64,615.178 2007.45,580.592 2006.61,558.183C2006.46,554.23 2011.43,552.273 2013.95,555.324C2023.41,566.782 2030.04,581.43 2036.3,594.805C2041.31,605.716 2048.64,627.081 2043.69,627.203ZM2578.81,772.962C2577.88,698.885 2576.41,623.75 2574.46,549.644C2574.3,543.639 2573.97,531.197 2567.27,521.986C2580.28,492.854 2553.35,468.103 2524.63,481.536C2533.89,455.025 2552.78,413.087 2519.99,396.244L2512.86,393.772C2486.89,387.676 2473.02,413.055 2463.52,433.301C2462.66,408.355 2468.52,369.643 2446.36,352.882C2413.95,331.327 2388.31,372.645 2382.69,399.292C2355.86,357.715 2324.52,383.932 2305.3,413.785C2287.45,411.914 2271.1,412.267 2252.97,414.628C2195.27,328.058 2163.06,412.011 2145.19,472.796C2139.11,472.563 2133.09,472.606 2126.97,472.893C2111.72,473.426 2110.83,496.705 2126.03,498.161C2123.99,501.624 2123.7,505.93 2125.27,509.594C2105.97,510.904 2107.5,538.475 2126.85,535.421C2118.34,566.822 2111.4,596.335 2105.48,626.9C2100.36,626.825 2095.22,626.774 2090.1,626.749C2135.04,481.78 2035.64,449.871 2030.54,528.189C2000.45,500.156 1969.06,532.465 1977.08,568.104C1980.61,585.791 1987.46,599.335 1995.52,614.042C1973.07,608.968 1951.22,626.962 1954.08,650.705C1947.61,662.849 1947.99,677.386 1948.92,690.257L1959.44,836.666C1960.63,855.642 1978.96,869.852 1997.57,866.175C2040.65,858.456 2082.7,854.705 2128.37,852.051C2145.21,878.215 2189.02,887.985 2205.78,858.172C2285.79,858.508 2199.36,931.307 2225.4,1002.67C2244.12,1083.57 2367.3,1118.68 2416.35,1050.91C2433.71,1024.44 2427.02,993.44 2401.51,974.398C2379.96,957.437 2353.91,954.599 2332.56,940.309C2313.69,927.012 2304.79,905.306 2311.1,884.782C2313.84,875.056 2319.83,863.639 2329.13,861.599C2327.97,889.309 2360.83,904.51 2384.76,895.006C2412.83,884.287 2421.77,863.442 2439.67,844.58C2468.83,842.277 2497.93,839.266 2526.26,835.624C2566.13,833.25 2581.37,807.916 2578.81,772.962Z" style="fill:white;fill-rule:nonzero;"/>
            </g>
            <g transform="matrix(1,0,0,1,-452.619,35.905)">
                <path d="M1601.03,1540.68C1611.57,1629.88 1620.19,1715.35 1632.54,1807.52C1633.14,1811.98 1637.03,1815.25 1641.52,1815.09C1769.76,1810.5 1920.91,1807.84 2048.99,1807.93C2058.08,1807.94 2065.33,1800.32 2064.85,1791.24C2058.91,1680.35 2050.78,1569.24 2055.33,1458.33C1909.7,1471.21 1743.23,1506.75 1601.03,1540.68C1599.4,1537.37 1599.04,1523.82 1601.03,1540.68Z" style="fill:rgb(242,107,96);fill-rule:nonzero;"/>
            </g>
            <g transform="matrix(1,0,0,1,-452.619,35.905)">
                <path d="M2086.42,1387.57C2051.16,1354.66 2019.08,1345.93 1995.48,1335.77C1956.55,1319.02 1923.12,1314.65 1870.86,1308.04C1829.98,1302.87 1713.68,1328.32 1713.68,1328.32C1668.59,1339.35 1622.61,1345.91 1582.37,1369.06C1575.81,1372.84 1567.37,1378.43 1564.64,1385.5C1559.95,1397.64 1569.27,1413.68 1580.82,1419.68C1592.36,1425.68 1585.7,1429.83 1601.4,1433.35C1601.41,1433.35 1601.42,1433.36 1601.41,1433.37C1597.99,1443.54 1601.84,1491.67 1602.24,1503.02C1602.44,1501.37 1597.51,1500.67 1586.29,1511.89C1577.08,1521.09 1556.97,1533 1561.66,1545.14C1564.39,1552.2 1575.28,1567.44 1582.19,1570.54C1636.37,1594.8 1678.74,1607.5 1733.27,1617.68L1733.26,1617.7C1736.02,1631.63 1728.47,1677.43 1726.95,1691.55C1725.46,1705.4 1733.37,1717.2 1746.98,1719.32C1756.76,1720.85 1766.52,1716.66 1772.73,1708.97C1789.98,1687.58 1804.19,1663.85 1815.14,1638.69C1815.15,1638.68 1815.16,1638.67 1815.16,1638.68C1858.3,1646 1902.47,1644.46 1946.02,1638.45C1946.03,1638.45 1946.04,1638.46 1946.04,1638.48L1944.69,1641.2L1944.69,1641.21C1943.32,1660.17 1944.95,1671.91 1943.43,1686.03C1941.92,1700.15 1944.59,1715.04 1958.68,1716.82C1969.66,1718.22 1983.6,1709.62 1990.55,1701C2040.33,1639.24 2060.09,1557.51 2054.09,1478.52C2054.09,1478.5 2054.1,1478.49 2054.12,1478.5C2083.85,1493.5 2101.03,1550.32 2092.6,1602.48C2084.84,1650.53 2074.66,1661.61 2075.66,1685.46C2078.56,1754.25 2123.33,1743.81 2154.47,1729.63C2179.35,1718.31 2184.96,1692.32 2192.26,1665.98C2196.78,1649.65 2188.79,1574.21 2159.89,1502.19C2142.17,1458.02 2119.35,1418.31 2086.42,1387.57Z" style="fill:white;fill-rule:nonzero;"/>
            </g>
            <g transform="matrix(1,0,0,1,-452.619,35.905)">
                <path d="M1706.57,1498.14C1707.84,1492.98 1706.6,1487.52 1703.24,1483.41C1700.09,1479.55 1695,1477.36 1690.05,1477.52C1688.63,1477.56 1687.27,1478.73 1687.34,1480.22C1687.41,1481.65 1688.53,1482.97 1690.05,1482.92C1690.54,1482.91 1691.03,1482.91 1691.52,1482.95C1691.61,1482.95 1692.33,1483.04 1692.09,1483C1691.78,1482.95 1692.46,1483.07 1692.52,1483.08C1693,1483.18 1693.47,1483.3 1693.94,1483.45C1694.15,1483.51 1694.36,1483.58 1694.57,1483.66C1694.59,1483.67 1695.35,1483.99 1694.92,1483.79C1695.81,1484.2 1696.66,1484.69 1697.45,1485.27C1697.16,1485.06 1697.54,1485.34 1697.64,1485.43C1697.85,1485.6 1698.05,1485.78 1698.24,1485.96C1698.6,1486.3 1698.92,1486.66 1699.25,1487.03C1699.53,1487.35 1699.26,1487.02 1699.41,1487.23C1699.54,1487.41 1699.67,1487.6 1699.8,1487.79C1700.09,1488.25 1700.36,1488.72 1700.6,1489.21C1700.63,1489.27 1700.9,1489.88 1700.8,1489.64C1700.7,1489.4 1700.95,1490.02 1700.96,1490.08C1701.15,1490.59 1701.3,1491.12 1701.42,1491.65C1701.47,1491.87 1701.51,1492.1 1701.55,1492.32C1701.58,1492.48 1701.63,1492.94 1701.59,1492.55C1701.65,1493.05 1701.68,1493.55 1701.68,1494.05C1701.68,1494.55 1701.65,1495.05 1701.6,1495.54C1701.65,1495.04 1701.54,1495.88 1701.53,1495.91C1701.48,1496.17 1701.42,1496.44 1701.35,1496.7C1701.02,1498.08 1701.79,1499.7 1703.24,1500.03C1704.64,1500.35 1706.21,1499.61 1706.57,1498.14Z" style="fill:rgb(26,57,102);fill-rule:nonzero;"/>
            </g>
            <g transform="matrix(1,0,0,1,-452.619,35.905)">
                <path d="M1699.14,1462.16C1699.91,1464.18 1700.07,1465.62 1699.91,1467.74C1699.89,1468.04 1699.85,1468.28 1699.73,1468.83C1699.62,1469.32 1699.48,1469.82 1699.31,1470.3C1699.07,1471.01 1698.66,1471.83 1698.13,1472.65C1697.32,1473.89 1696.04,1475.08 1694.72,1475.89C1694.31,1476.14 1693.89,1476.37 1693.47,1476.57C1693.37,1476.62 1692.88,1476.83 1693.2,1476.7C1692.98,1476.79 1692.75,1476.87 1692.53,1476.95C1692.08,1477.1 1691.62,1477.23 1691.16,1477.33C1690.93,1477.38 1690.69,1477.43 1690.46,1477.47C1689.91,1477.57 1690.65,1477.46 1690.05,1477.52C1688.59,1477.65 1687.34,1478.66 1687.34,1480.22C1687.34,1481.58 1688.58,1483.06 1690.05,1482.92C1695.15,1482.45 1699.73,1479.86 1702.64,1475.61C1705.56,1471.36 1706.18,1465.52 1704.35,1460.72C1703.83,1459.36 1702.53,1458.42 1701.02,1458.83C1699.72,1459.19 1698.61,1460.78 1699.14,1462.16Z" style="fill:rgb(26,57,102);fill-rule:nonzero;"/>
            </g>
            <g transform="matrix(1,0,0,1,-452.619,35.905)">
                <path d="M1673.07,1432.26C1672.69,1426.15 1677.34,1420.89 1683.45,1420.51C1689.56,1420.14 1694.82,1424.79 1695.2,1430.9C1695.58,1437.01 1690.93,1442.27 1684.82,1442.64C1678.71,1443.02 1673.45,1438.37 1673.07,1432.26Z" style="fill:rgb(26,57,102);fill-rule:nonzero;"/>
            </g>
            <g transform="matrix(1,0,0,1,-452.619,35.905)">
                <path d="M1681.25,1529.74C1680.87,1523.63 1685.52,1518.37 1691.63,1518C1697.74,1517.62 1703,1522.27 1703.38,1528.38C1703.76,1534.49 1699.11,1539.75 1693,1540.13C1686.88,1540.5 1681.62,1535.86 1681.25,1529.74Z" style="fill:rgb(26,57,102);fill-rule:nonzero;"/>
            </g>
            <g transform="matrix(1,0,0,1,-452.619,35.905)">
                <path d="M1695.24,1396.35C1694.08,1377.57 1699.43,1361.96 1707.18,1361.48C1714.93,1361 1722.15,1375.84 1723.31,1394.62C1724.47,1413.4 1719.12,1429.02 1711.37,1429.49C1703.62,1429.97 1696.4,1415.13 1695.24,1396.35Z" style="fill:rgb(251,210,207);fill-rule:nonzero;"/>
            </g>
            <g transform="matrix(1,0,0,1,-452.619,35.905)">
                <path d="M1710.42,1550.97C1709.26,1532.19 1714.6,1516.58 1722.35,1516.1C1730.11,1515.62 1737.33,1530.46 1738.49,1549.24C1739.64,1568.03 1734.3,1583.64 1726.55,1584.12C1718.8,1584.59 1711.57,1569.76 1710.42,1550.97Z" style="fill:rgb(251,210,207);fill-rule:nonzero;"/>
            </g>
            <g transform="matrix(1,0,0,1,-452.619,35.905)">
                <path d="M1671.14,1387.15C1663.55,1369.74 1658.34,1351.27 1655.58,1332.48C1654.81,1327.2 1654.26,1321.88 1653.89,1316.56C1653.79,1315.1 1652.72,1313.85 1651.18,1313.85C1649.8,1313.85 1648.38,1315.09 1648.48,1316.56C1649.84,1336.16 1653.77,1355.57 1660.26,1374.12C1662.13,1379.46 1664.22,1384.7 1666.47,1389.88C1667.06,1391.22 1669.02,1391.53 1670.17,1390.85C1671.55,1390.04 1671.73,1388.5 1671.14,1387.15Z" style="fill:rgb(26,57,102);fill-rule:nonzero;"/>
            </g>
            <g transform="matrix(1,0,0,1,-452.619,35.905)">
                <path d="M1693.88,1381.54C1690.47,1362.86 1689.58,1343.74 1691.18,1324.82C1691.63,1319.49 1692.28,1314.17 1693.14,1308.89C1693.37,1307.45 1692.76,1305.98 1691.25,1305.56C1689.96,1305.21 1688.16,1306 1687.92,1307.45C1684.78,1326.86 1684.14,1346.62 1686.23,1366.17C1686.83,1371.8 1687.65,1377.41 1688.66,1382.97C1688.92,1384.41 1690.67,1385.23 1691.99,1384.86C1693.5,1384.45 1694.14,1382.98 1693.88,1381.54Z" style="fill:rgb(26,57,102);fill-rule:nonzero;"/>
            </g>
            <g transform="matrix(1,0,0,1,-452.619,35.905)">
                <path d="M1681.96,1378.16C1675.94,1360.85 1673.67,1342.48 1675.27,1324.23C1675.4,1322.77 1673.94,1321.52 1672.57,1321.52C1671,1321.52 1669.99,1322.76 1669.86,1324.23C1668.22,1342.9 1670.59,1361.9 1676.75,1379.6C1677.23,1380.98 1678.6,1381.89 1680.07,1381.49C1681.41,1381.12 1682.44,1379.55 1681.96,1378.16Z" style="fill:rgb(26,57,102);fill-rule:nonzero;"/>
            </g>
            <g transform="matrix(1,0,0,1,-452.619,35.905)">
                <path d="M1681.85,1572.86C1677.34,1591.87 1675.34,1611.49 1675.99,1631.03C1676.17,1636.54 1676.57,1642.04 1677.17,1647.52C1677.33,1648.98 1678.3,1650.23 1679.88,1650.23C1681.22,1650.23 1682.74,1648.98 1682.58,1647.52C1680.5,1628.5 1680.88,1609.17 1683.89,1590.27C1684.75,1584.91 1685.81,1579.58 1687.06,1574.3C1687.86,1570.91 1682.65,1569.47 1681.85,1572.86Z" style="fill:rgb(26,57,102);fill-rule:nonzero;"/>
            </g>
            <g transform="matrix(1,0,0,1,-452.619,35.905)">
                <path d="M1704.97,1575.75C1704.92,1595.28 1707.47,1614.84 1712.55,1633.69C1713.99,1639.03 1715.64,1644.3 1717.48,1649.51C1717.96,1650.89 1719.33,1651.81 1720.81,1651.4C1722.14,1651.03 1723.18,1649.46 1722.69,1648.08C1716.33,1630.02 1712.31,1611.16 1710.94,1592.06C1710.54,1586.63 1710.36,1581.19 1710.37,1575.75C1710.38,1572.27 1704.97,1572.27 1704.97,1575.75Z" style="fill:rgb(26,57,102);fill-rule:nonzero;"/>
            </g>
            <g transform="matrix(1,0,0,1,-452.619,35.905)">
                <path d="M1693.93,1580.47C1690.97,1599.27 1691.95,1618.53 1696.95,1636.9C1697.87,1640.26 1703.09,1638.83 1702.17,1635.46C1697.43,1618.08 1696.34,1599.72 1699.15,1581.91C1699.38,1580.47 1698.78,1579 1697.26,1578.58C1695.98,1578.23 1694.16,1579.02 1693.93,1580.47Z" style="fill:rgb(26,57,102);fill-rule:nonzero;"/>
            </g>
            <g transform="matrix(1,0,0,1,-452.619,35.905)">
                <path d="M2051.8,1485.52C2054.51,1513.29 2052.53,1541.33 2046.96,1568.64C2042.1,1592.44 2034.68,1615.68 2025.72,1638.24C2017.12,1659.88 2006.43,1681.58 1989.75,1698.19C1985.7,1702.23 1981.32,1705.93 1976.6,1709.17C1971.61,1712.59 1965.76,1716.09 1959.47,1715.64C1954.03,1715.25 1949.98,1710.99 1947.83,1706.29C1947.35,1705.23 1946.95,1704.1 1946.69,1702.97C1946.65,1702.81 1946.62,1702.64 1946.58,1702.48C1946.57,1702.41 1946.56,1702.33 1946.55,1702.26C1946.4,1701.59 1946.59,1702.84 1946.56,1702.35C1946.47,1701.16 1946.35,1699.98 1946.31,1698.79C1946.01,1691 1946.37,1683.17 1946.71,1675.39C1947.03,1668.12 1947.41,1660.84 1947.99,1653.59C1948.06,1652.7 1948.14,1651.81 1948.24,1650.92C1948.39,1649.47 1946.88,1648.22 1945.53,1648.22C1943.94,1648.22 1942.99,1649.47 1942.83,1650.92C1942.14,1657.2 1941.89,1663.54 1941.57,1669.84C1941.14,1678.37 1940.75,1686.92 1940.83,1695.46C1940.85,1698.23 1940.86,1701.07 1941.35,1703.81C1942.23,1708.69 1945.26,1713.69 1949.06,1716.83C1960.59,1726.37 1974.78,1717.64 1984.59,1709.97C2003.83,1694.92 2016.51,1673.19 2026.16,1651.14C2036.07,1628.46 2044.13,1604.75 2049.83,1580.67C2056.36,1553.15 2059.6,1524.72 2058.04,1496.44C2057.84,1492.79 2057.56,1489.15 2057.21,1485.52C2057.06,1484.06 2056.07,1482.81 2054.5,1482.81C2053.15,1482.81 2051.66,1484.05 2051.8,1485.52Z" style="fill:rgb(26,57,102);fill-rule:nonzero;"/>
            </g>
            <g transform="matrix(1,0,0,1,-452.619,35.905)">
                <path d="M1969.31,1630.46C1950,1635.46 1930.22,1638.4 1910.33,1639.78C1890.08,1641.17 1869.73,1640.99 1849.49,1639.56C1838.31,1638.77 1827.16,1637.61 1816.07,1636.07C1814.62,1635.86 1813.16,1636.42 1812.74,1637.95C1812.39,1639.22 1813.17,1641.08 1814.63,1641.28C1834.93,1644.1 1855.38,1645.81 1875.87,1646.09C1896.38,1646.38 1916.9,1645.24 1937.21,1642.34C1948.5,1640.73 1959.71,1638.53 1970.75,1635.67C1974.12,1634.8 1972.69,1629.58 1969.31,1630.46Z" style="fill:rgb(26,57,102);fill-rule:nonzero;"/>
            </g>
            <g transform="matrix(1,0,0,1,-452.619,35.905)">
                <path d="M1813.01,1637.31C1807.39,1650.21 1801.28,1662.94 1794.25,1675.14C1787.5,1686.85 1779.83,1698.8 1769.65,1707.85C1764.76,1712.19 1758.91,1715.62 1752.34,1716.52C1746.19,1717.36 1739.85,1715.82 1735.49,1711.25C1731.26,1706.83 1729.34,1700.5 1729.04,1694.49C1728.64,1686.57 1730.51,1678.81 1732.03,1671.09C1735.49,1653.51 1738.1,1635.76 1738.57,1617.82C1738.66,1614.34 1733.26,1614.34 1733.16,1617.82C1732.73,1634.41 1730.45,1650.8 1727.32,1667.08C1724.51,1681.66 1719.78,1698.78 1729.21,1712.06C1733.38,1717.93 1739.57,1721.39 1746.73,1722.03C1753.93,1722.69 1761.23,1720.35 1767.23,1716.46C1773.4,1712.47 1778.43,1707.06 1783.03,1701.39C1787.56,1695.82 1791.64,1689.9 1795.4,1683.78C1803.98,1669.84 1811.15,1655.03 1817.68,1640.04C1818.27,1638.7 1818.08,1637.14 1816.71,1636.34C1815.57,1635.67 1813.6,1635.96 1813.01,1637.31Z" style="fill:rgb(26,57,102);fill-rule:nonzero;"/>
            </g>
            <g transform="matrix(1,0,0,1,-452.619,35.905)">
                <path d="M1814.21,1811.89C1826.64,1779.92 1839.06,1747.95 1850.77,1715.71C1862.43,1683.61 1873.39,1651.25 1882.89,1618.44C1892.31,1585.92 1900.3,1552.95 1906.11,1519.58C1912.09,1485.26 1915.69,1450.58 1916.73,1415.75C1917.78,1380.66 1916.32,1345.56 1914.14,1310.54C1913.85,1305.98 1913.56,1301.43 1913.26,1296.88C1913.06,1293.96 1910.91,1291.47 1907.85,1291.47C1905.07,1291.47 1902.25,1293.95 1902.44,1296.88C1904.77,1332.01 1906.66,1367.21 1906.2,1402.44C1905.75,1436.94 1902.97,1471.36 1897.56,1505.43C1892.26,1538.74 1884.74,1571.67 1875.7,1604.15C1866.6,1636.87 1855.97,1669.15 1844.56,1701.14C1833.1,1733.25 1820.85,1765.08 1808.5,1796.87C1806.93,1800.91 1805.35,1804.96 1803.78,1809.01C1802.72,1811.74 1804.94,1814.95 1807.56,1815.67C1810.62,1816.51 1813.15,1814.62 1814.21,1811.89Z" style="fill:rgb(26,57,102);fill-rule:nonzero;"/>
            </g>
            <g transform="matrix(1,0,0,1,-452.619,35.905)">
                <path d="M1834.78,1306.21C1845.34,1338.15 1854.03,1370.7 1860.94,1403.63C1867.94,1436.99 1873.12,1470.71 1876.47,1504.63C1879.88,1539.08 1881.46,1573.71 1881.17,1608.33C1880.88,1642.59 1878.77,1676.84 1874.69,1710.86C1870.7,1744.14 1864.74,1777.2 1856.74,1809.75C1855.75,1813.81 1854.71,1817.85 1853.66,1821.89C1851.89,1828.63 1862.32,1831.51 1864.09,1824.77C1872.69,1791.96 1879.16,1758.62 1883.69,1725.01C1888.33,1690.61 1891.03,1655.98 1891.79,1621.29C1892.55,1586.68 1891.43,1552.04 1888.48,1517.55C1885.51,1482.89 1880.73,1448.37 1874.09,1414.23C1867.59,1380.81 1859.29,1347.73 1849.06,1315.26C1847.8,1311.27 1846.52,1307.3 1845.21,1303.33C1843.03,1296.75 1832.58,1299.57 1834.78,1306.21Z" style="fill:rgb(26,57,102);fill-rule:nonzero;"/>
            </g>
            <g transform="matrix(1,0,0,1,-452.619,35.905)">
                <path d="M1886.32,1559.49C1881.63,1555.98 1876.94,1552.46 1872.28,1548.91C1871.2,1548.09 1870.12,1547.26 1869.04,1546.44C1868.5,1546.02 1867.96,1545.61 1867.43,1545.2C1867.13,1544.97 1866.83,1544.73 1866.53,1544.5C1867.5,1545.25 1866.3,1544.33 1866.19,1544.24C1863.92,1542.48 1861.67,1540.72 1859.42,1538.93C1850.34,1531.73 1841.43,1524.28 1832.92,1516.4C1824.5,1508.6 1816.46,1500.36 1809.09,1491.54C1808.24,1490.51 1807.39,1489.48 1806.55,1488.44C1806.09,1487.86 1805.63,1487.28 1805.17,1486.69C1804.98,1486.46 1804.8,1486.23 1804.62,1485.99C1803.7,1484.82 1805.28,1486.87 1804.37,1485.68C1802.66,1483.43 1800.99,1481.16 1799.37,1478.85C1796.04,1474.09 1792.93,1469.17 1790.08,1464.1C1789.37,1462.85 1788.68,1461.59 1788.04,1460.3C1787.67,1459.58 1787.32,1458.85 1786.98,1458.11C1786.85,1457.81 1786.72,1457.51 1786.58,1457.22C1787.06,1458.25 1786.42,1456.8 1786.38,1456.71C1785.85,1455.36 1785.38,1453.99 1785,1452.59C1784.79,1451.82 1784.61,1451.05 1784.45,1450.27C1784.39,1449.96 1784.34,1449.65 1784.29,1449.34C1784.06,1448.06 1784.3,1450.1 1784.25,1448.92C1784.18,1447.42 1784.16,1445.99 1784.28,1444.5C1784.35,1443.61 1783.96,1445.74 1784.33,1444.32C1784.41,1444.01 1784.46,1443.7 1784.54,1443.39C1784.72,1442.64 1784.99,1441.92 1785.23,1441.18C1785.48,1440.41 1784.63,1442.34 1785.22,1441.21C1785.35,1440.98 1785.45,1440.75 1785.57,1440.52C1785.87,1439.94 1786.21,1439.38 1786.56,1438.84C1786.71,1438.63 1786.86,1438.41 1787.01,1438.2C1787.57,1437.38 1786.92,1438.26 1786.87,1438.37C1787.12,1437.77 1788,1437.07 1788.44,1436.63C1788.82,1436.26 1789.2,1435.9 1789.6,1435.56C1789.64,1435.52 1790.64,1434.69 1789.97,1435.24C1789.3,1435.79 1790.32,1434.99 1790.37,1434.95C1791.45,1434.19 1792.6,1433.52 1793.79,1432.95C1793.95,1432.87 1794.31,1432.64 1794.51,1432.61C1793.39,1432.8 1794.09,1432.78 1794.5,1432.63C1795.06,1432.41 1795.62,1432.22 1796.19,1432.05C1796.82,1431.86 1797.46,1431.69 1798.1,1431.55C1798.39,1431.49 1798.68,1431.43 1798.96,1431.38C1799.13,1431.35 1800.66,1431.2 1799.42,1431.29C1800.86,1431.18 1802.27,1431.08 1803.72,1431.12C1804.51,1431.15 1805.31,1431.21 1806.1,1431.28C1807.16,1431.38 1806.31,1431.3 1806.09,1431.27C1806.57,1431.33 1807.04,1431.41 1807.52,1431.5C1809.02,1431.78 1810.5,1432.15 1811.97,1432.59C1812.66,1432.8 1813.35,1433.03 1814.03,1433.28C1814.41,1433.42 1814.79,1433.56 1815.16,1433.71C1815.39,1433.79 1815.61,1433.88 1815.84,1433.97C1815.36,1433.77 1815.3,1433.74 1815.66,1433.9C1818.22,1435.08 1820.71,1436.36 1823.09,1437.87C1824.14,1438.54 1825.17,1439.24 1826.17,1439.97C1826.4,1440.13 1826.62,1440.3 1826.84,1440.46C1826.87,1440.48 1827.94,1441.32 1827.28,1440.79C1826.61,1440.26 1827.67,1441.11 1827.7,1441.14C1828.03,1441.4 1828.34,1441.66 1828.66,1441.93C1832.76,1445.37 1836.43,1449.3 1839.73,1453.5C1839.92,1453.74 1840.5,1454.52 1839.79,1453.57C1839.96,1453.8 1840.13,1454.02 1840.3,1454.24C1840.72,1454.81 1841.14,1455.37 1841.55,1455.95C1842.37,1457.09 1843.17,1458.26 1843.95,1459.44C1845.44,1461.69 1846.85,1463.99 1848.2,1466.32C1850.89,1470.99 1853.33,1475.79 1855.62,1480.66C1857,1483.6 1858.34,1486.55 1859.63,1489.53C1859.93,1490.22 1860.23,1490.91 1860.52,1491.6C1860.49,1491.53 1861.13,1493.05 1860.84,1492.35C1860.55,1491.65 1861.18,1493.17 1861.15,1493.09C1861.79,1494.64 1862.43,1496.19 1863.05,1497.75C1865.41,1503.67 1867.6,1509.65 1869.63,1515.7C1873.72,1527.94 1877.12,1540.42 1879.8,1553.05C1880.46,1556.16 1881.07,1559.29 1881.65,1562.42C1882.16,1565.21 1885.69,1567.04 1888.3,1566.2C1891.29,1565.23 1892.62,1562.54 1892.08,1559.55C1887.19,1532.83 1879.05,1506.82 1868.06,1481.99C1858.77,1461.01 1846.85,1438.91 1826.23,1427.14C1814.68,1420.54 1800.32,1417.55 1787.97,1423.78C1782.8,1426.39 1778.15,1430.8 1775.72,1436.11C1772.7,1442.71 1772.82,1449.99 1774.98,1456.85C1776.96,1463.14 1780.26,1468.98 1783.68,1474.59C1786.77,1479.68 1790.13,1484.6 1793.69,1489.36C1801.02,1499.15 1809.12,1508.32 1817.81,1516.91C1835.06,1533.97 1854.31,1548.86 1873.66,1563.43C1876.06,1565.23 1878.46,1567.03 1880.86,1568.83C1883.14,1570.53 1887,1569.27 1888.26,1566.89C1889.76,1564.05 1888.75,1561.31 1886.32,1559.49Z" style="fill:rgb(26,57,102);fill-rule:nonzero;"/>
            </g>
            <g transform="matrix(1,0,0,1,-452.619,35.905)">
                <path d="M1892.94,1561.25C1905.6,1558.18 1918.18,1554.76 1930.7,1551.11C1945.02,1546.93 1959.25,1542.44 1973.33,1537.5C1986.74,1532.79 2000.06,1527.71 2012.93,1521.67C2026.57,1515.28 2040.18,1507.54 2050.88,1496.79C2057.04,1490.6 2062.5,1483.15 2064.78,1474.62C2066.92,1466.66 2065.87,1457.82 2060.86,1451.12C2056.21,1444.89 2049.64,1440.56 2042.19,1438.36C2034.05,1435.96 2025.3,1436.6 2017.2,1438.86C2008.83,1441.2 2000.8,1445.16 1993.3,1449.51C1988.55,1452.26 1984.14,1455.61 1979.89,1459.08C1969.95,1467.18 1960.92,1476.37 1952.09,1485.64C1942.21,1496 1932.62,1506.63 1922.83,1517.08C1913.92,1526.6 1904.88,1536.1 1895.05,1544.7C1893.03,1546.46 1890.97,1548.18 1888.87,1549.84C1891.7,1552.02 1894.53,1554.21 1897.36,1556.39C1901.63,1549.29 1906.34,1542.34 1911.52,1535.87C1911.41,1536 1910.81,1536.77 1911.41,1536C1911.58,1535.79 1911.75,1535.57 1911.91,1535.36C1912.2,1534.98 1912.5,1534.61 1912.79,1534.24C1913.51,1533.33 1914.23,1532.42 1914.96,1531.52C1916.34,1529.8 1917.74,1528.1 1919.15,1526.4C1922.02,1522.96 1924.95,1519.56 1927.91,1516.2C1939.93,1502.54 1952.54,1489.41 1964.8,1475.98C1976.42,1463.26 1987.87,1450.26 1997.67,1436.07C2006.17,1423.78 2013.5,1410.14 2015.93,1395.24C2017.29,1386.86 2017.54,1378.03 2014.97,1369.84C2012.35,1361.53 2006.73,1354.05 1998.65,1350.4C1979.93,1341.97 1959.57,1352.66 1945.19,1364.65C1930.71,1376.73 1919.2,1392.27 1910.46,1408.91C1903.11,1422.91 1897.61,1437.72 1893.77,1453.04C1889.76,1469.08 1887.01,1485.48 1885.35,1501.92C1883.7,1518.18 1883.16,1534.69 1885.55,1550.91C1886.02,1554.13 1886.65,1557.32 1887.48,1560.47C1888.2,1563.21 1891.37,1565.14 1894.13,1564.25C1896.94,1563.34 1898.68,1560.53 1897.91,1557.6C1897.08,1554.45 1896.45,1551.25 1895.98,1548.03C1895.95,1547.81 1895.92,1547.59 1895.88,1547.37C1895.75,1546.45 1895.93,1547.73 1895.94,1547.82C1895.91,1547.37 1895.83,1546.92 1895.77,1546.48C1895.66,1545.57 1895.57,1544.66 1895.48,1543.75C1895.3,1541.94 1895.16,1540.12 1895.06,1538.3C1894.59,1530.41 1894.71,1522.5 1895.15,1514.61C1895.39,1510.51 1895.72,1506.41 1896.12,1502.32C1896.33,1500.26 1896.55,1498.21 1896.8,1496.16C1896.92,1495.16 1897.04,1494.17 1897.17,1493.18C1897.24,1492.66 1897.32,1492.13 1897.38,1491.6C1897.36,1491.75 1897.21,1492.84 1897.34,1491.85C1897.38,1491.59 1897.41,1491.33 1897.45,1491.06C1898.56,1483.1 1899.94,1475.18 1901.59,1467.31C1903.04,1460.4 1904.7,1453.52 1906.68,1446.73C1907.5,1443.92 1908.38,1441.12 1909.35,1438.35C1909.98,1436.56 1910.64,1434.77 1911.33,1433C1911.7,1432.05 1912.07,1431.1 1912.46,1430.15C1912.67,1429.61 1912.89,1429.07 1913.12,1428.54C1913.23,1428.27 1913.34,1428 1913.45,1427.73C1913.17,1428.41 1913.29,1428.12 1913.51,1427.61C1917.1,1419.24 1921.27,1411.1 1926.1,1403.37C1928.49,1399.56 1931.04,1395.84 1933.75,1392.26C1933.93,1392.02 1934.11,1391.8 1934.28,1391.56C1934.25,1391.61 1933.72,1392.28 1934.1,1391.8C1934.46,1391.35 1934.82,1390.89 1935.18,1390.44C1935.9,1389.53 1936.63,1388.64 1937.38,1387.75C1938.82,1386.04 1940.31,1384.36 1941.84,1382.73C1944.89,1379.45 1948.12,1376.34 1951.51,1373.42C1952.39,1372.67 1953.28,1371.93 1954.18,1371.2C1954.57,1370.88 1954.97,1370.56 1955.37,1370.25C1955.5,1370.15 1956.23,1369.58 1955.68,1370.01C1955.08,1370.46 1956.17,1369.64 1956.17,1369.64C1957.93,1368.31 1959.73,1367.06 1961.6,1365.89C1963.49,1364.72 1965.44,1363.63 1967.44,1362.65C1967.95,1362.4 1968.47,1362.15 1969,1361.91C1969.2,1361.82 1969.39,1361.73 1969.59,1361.64C1969.75,1361.57 1970.6,1361.21 1969.94,1361.49C1969.27,1361.77 1970.13,1361.42 1970.29,1361.35C1970.49,1361.27 1970.69,1361.19 1970.89,1361.12C1971.49,1360.88 1972.09,1360.66 1972.7,1360.45C1974.76,1359.74 1976.87,1359.15 1979.02,1358.73C1979.56,1358.62 1980.11,1358.54 1980.65,1358.44C1980.96,1358.39 1981.61,1358.16 1980.44,1358.46C1980.68,1358.4 1981.01,1358.4 1981.26,1358.37C1982.33,1358.26 1983.42,1358.2 1984.5,1358.2C1985.5,1358.19 1986.5,1358.23 1987.5,1358.32C1987.7,1358.34 1987.9,1358.36 1988.1,1358.38C1989.15,1358.48 1987.92,1358.41 1987.84,1358.34C1988.12,1358.56 1989.24,1358.59 1989.59,1358.67C1990.56,1358.89 1991.51,1359.15 1992.45,1359.48C1992.69,1359.56 1993.94,1360.05 1993.29,1359.78C1992.58,1359.49 1993.38,1359.83 1993.55,1359.91C1993.86,1360.05 1994.16,1360.2 1994.46,1360.36C1995.36,1360.83 1996.24,1361.36 1997.08,1361.95C1997.29,1362.09 1997.49,1362.24 1997.69,1362.39C1998.19,1362.74 1997.29,1362.09 1997.31,1362.09C1997.64,1362.11 1998.29,1362.91 1998.53,1363.13C1999.18,1363.72 1999.8,1364.35 2000.38,1365C2000.43,1365.07 2001.27,1366.06 2001.26,1366.07C2001.23,1366.09 2000.47,1364.96 2001.04,1365.8C2001.17,1365.99 2001.31,1366.17 2001.44,1366.36C2001.96,1367.12 2002.43,1367.91 2002.87,1368.72C2003.06,1369.07 2003.24,1369.43 2003.42,1369.79C2003.52,1370 2003.62,1370.21 2003.71,1370.42C2004.14,1371.32 2003.55,1370.34 2003.65,1370.25C2003.57,1370.32 2004.41,1372.3 2004.49,1372.55C2004.79,1373.51 2005.05,1374.48 2005.28,1375.46C2005.48,1376.33 2005.65,1377.22 2005.78,1378.11C2005.82,1378.35 2005.85,1378.59 2005.89,1378.83C2005.89,1378.84 2005.76,1377.67 2005.81,1378.29C2005.86,1378.84 2005.93,1379.39 2005.98,1379.94C2006.13,1381.85 2006.17,1383.78 2006.11,1385.7C2006.08,1386.65 2006.02,1387.59 2005.95,1388.53C2005.87,1389.47 2005.93,1390.65 2005.63,1391.54C2005.98,1390.47 2005.74,1390.83 2005.67,1391.24C2005.63,1391.49 2005.6,1391.74 2005.56,1391.99C2005.49,1392.42 2005.42,1392.86 2005.34,1393.3C2005.15,1394.35 2004.94,1395.4 2004.71,1396.45C2003.93,1399.93 2002.89,1403.35 2001.62,1406.68C2001.34,1407.42 2001.04,1408.14 2000.75,1408.87C2000.49,1409.52 2001.21,1407.82 2000.92,1408.46C2000.86,1408.61 2000.8,1408.76 2000.74,1408.9C2000.54,1409.34 2000.35,1409.78 2000.15,1410.22C1999.45,1411.76 1998.71,1413.29 1997.94,1414.79C1996.3,1417.99 1994.49,1421.11 1992.59,1424.16C1990.6,1427.33 1988.5,1430.43 1986.32,1433.47C1985.18,1435.05 1984.03,1436.62 1982.86,1438.17C1982.55,1438.58 1982.24,1438.98 1981.93,1439.38C1981.78,1439.59 1981.61,1439.78 1981.46,1439.99C1981.47,1439.98 1982.09,1439.18 1981.72,1439.66C1981.05,1440.52 1980.37,1441.39 1979.69,1442.25C1974.49,1448.78 1969.04,1455.11 1963.48,1461.33C1951.64,1474.6 1939.31,1487.42 1927.37,1500.6C1915.67,1513.51 1904.22,1526.77 1894.33,1541.14C1892.13,1544.34 1890.02,1547.6 1888.02,1550.93C1886.63,1553.25 1887.32,1556.3 1889.41,1557.91C1891.71,1559.68 1894.36,1559.18 1896.51,1557.49C1905.94,1550.09 1914.43,1541.53 1922.73,1532.91C1932.32,1522.93 1941.61,1512.67 1951.04,1502.53C1960.05,1492.85 1969.14,1483.21 1978.89,1474.26C1981.07,1472.24 1983.29,1470.27 1985.56,1468.36C1986.62,1467.47 1987.68,1466.6 1988.76,1465.74C1989,1465.55 1989.24,1465.36 1989.49,1465.17C1989.61,1465.07 1989.73,1464.98 1989.85,1464.88C1990.31,1464.52 1989.31,1465.3 1989.36,1465.26C1989.92,1464.85 1990.47,1464.41 1991.03,1463.99C1995.68,1460.54 2000.63,1457.68 2005.8,1455.06C2007.69,1454.1 2009.6,1453.17 2011.55,1452.32C2011.85,1452.19 2012.15,1452.06 2012.45,1451.93C2012.36,1451.97 2011.7,1452.23 2012.28,1452C2012.73,1451.82 2013.18,1451.63 2013.64,1451.46C2014.7,1451.04 2015.76,1450.65 2016.84,1450.29C2018.82,1449.62 2020.83,1449.04 2022.88,1448.59C2023.82,1448.38 2024.76,1448.19 2025.71,1448.03C2025.94,1448 2026.18,1447.96 2026.42,1447.92C2025.36,1448.1 2026.19,1447.95 2026.41,1447.93C2026.97,1447.87 2027.53,1447.81 2028.09,1447.76C2030.01,1447.61 2031.95,1447.58 2033.87,1447.72C2034.25,1447.75 2034.62,1447.79 2035,1447.83C2036.28,1447.97 2034.26,1447.68 2035.25,1447.86C2036.06,1448.01 2036.86,1448.16 2037.66,1448.35C2039.27,1448.74 2040.82,1449.28 2042.37,1449.85C2042.93,1450.07 2041.97,1449.69 2041.95,1449.68C2042.1,1449.8 2042.45,1449.9 2042.64,1449.99C2042.99,1450.15 2043.33,1450.31 2043.66,1450.48C2044.39,1450.85 2045.11,1451.25 2045.8,1451.67C2046.5,1452.1 2047.16,1452.56 2047.83,1453.02C2048.66,1453.6 2047.13,1452.43 2047.92,1453.08C2048.29,1453.39 2048.67,1453.71 2049.04,1454.04C2049.59,1454.53 2050.11,1455.04 2050.61,1455.58C2050.86,1455.85 2051.11,1456.12 2051.35,1456.39C2051.47,1456.54 2051.67,1456.86 2051.81,1456.95C2051.59,1456.82 2051.21,1456.13 2051.63,1456.72C2052.05,1457.31 2052.46,1457.91 2052.83,1458.53C2053.24,1459.22 2053.51,1460.19 2054,1460.78C2054,1460.78 2053.61,1459.77 2053.81,1460.33C2053.87,1460.5 2053.94,1460.67 2054,1460.84C2054.13,1461.18 2054.25,1461.53 2054.35,1461.88C2054.61,1462.74 2054.8,1463.6 2054.96,1464.48C2055.15,1465.54 2054.93,1463.75 2054.99,1464.82C2055.01,1465.27 2055.05,1465.71 2055.06,1466.15C2055.07,1466.9 2055.3,1468.6 2054.91,1469.25C2054.93,1469.23 2055.08,1468.26 2054.96,1468.91C2054.92,1469.13 2054.89,1469.35 2054.85,1469.57C2054.75,1470.08 2054.64,1470.59 2054.52,1471.09C2054.29,1472.04 2054.01,1472.97 2053.69,1473.89C2053.54,1474.32 2053.38,1474.74 2053.22,1475.16C2052.85,1476.12 2053.15,1475.31 2053.24,1475.12C2053.14,1475.33 2053.05,1475.54 2052.95,1475.75C2052.54,1476.65 2052.08,1477.53 2051.6,1478.39C2050.63,1480.13 2049.52,1481.78 2048.35,1483.38C2047.75,1484.2 2048.24,1483.53 2048.37,1483.37C2048.23,1483.55 2048.09,1483.72 2047.94,1483.9C2047.66,1484.25 2047.37,1484.61 2047.08,1484.95C2046.39,1485.76 2045.69,1486.56 2044.96,1487.34C2043.63,1488.78 2042.23,1490.17 2040.78,1491.5C2039.33,1492.83 2037.83,1494.11 2036.29,1495.34C2036.11,1495.48 2035.93,1495.62 2035.75,1495.76C2035.69,1495.81 2035.09,1496.28 2035.58,1495.9C2036.07,1495.52 2035.47,1495.98 2035.4,1496.03C2035.22,1496.17 2035.04,1496.3 2034.86,1496.44C2034,1497.08 2033.14,1497.7 2032.27,1498.31C2026.21,1502.54 2019.76,1506.23 2013.18,1509.56C2010.56,1510.88 2007.92,1512.14 2005.26,1513.36C2003.85,1514 2002.43,1514.63 2001.01,1515.26C2000.28,1515.58 1999.55,1515.89 1998.82,1516.2C1998.48,1516.35 1998.13,1516.49 1997.79,1516.64C1997.23,1516.88 1998.22,1516.46 1998.22,1516.46C1997.99,1516.55 1997.76,1516.65 1997.53,1516.75C1991.16,1519.42 1984.72,1521.91 1978.24,1524.28C1964.53,1529.3 1950.65,1533.82 1936.68,1538.05C1923.89,1541.91 1911.01,1545.53 1898.06,1548.83C1895.4,1549.51 1892.73,1550.17 1890.06,1550.82C1887.31,1551.49 1885.4,1554.76 1886.28,1557.48C1887.21,1560.33 1889.99,1561.97 1892.94,1561.25Z" style="fill:rgb(26,57,102);fill-rule:nonzero;"/>
            </g>
            <g transform="matrix(1,0,0,1,-452.619,35.905)">
                <path d="M1882.42,1564.16C1884.33,1583.89 1885.15,1603.7 1887.44,1623.39C1888.57,1633.12 1889.91,1642.9 1892.3,1652.41C1893.26,1656.2 1894.41,1659.93 1895.92,1663.53C1898.15,1668.85 1900.51,1674.15 1903.99,1678.78C1907.68,1683.7 1912.19,1687.63 1917.96,1689.9C1922.72,1691.77 1927.85,1691.93 1932.85,1691.15C1942.9,1689.58 1951.79,1682.93 1957.6,1674.81C1964.63,1664.98 1965.66,1652.3 1963.77,1640.69C1961.79,1628.49 1956.2,1616.98 1949.75,1606.55C1937.36,1586.52 1920.83,1569.12 1901.32,1555.9C1899,1554.33 1896.63,1552.82 1894.23,1551.37C1891.8,1549.91 1888.18,1550.75 1886.83,1553.31C1885.44,1555.93 1886.18,1559.15 1888.77,1560.71C1893.45,1563.53 1897.99,1566.59 1902.35,1569.89C1902.64,1570.11 1902.93,1570.33 1903.23,1570.56C1903.93,1571.09 1902.24,1569.77 1903.36,1570.66C1903.82,1571.03 1904.29,1571.39 1904.75,1571.76C1905.9,1572.69 1907.04,1573.63 1908.17,1574.58C1910.25,1576.35 1912.29,1578.17 1914.28,1580.05C1918.26,1583.79 1922.05,1587.74 1925.64,1591.88C1927.43,1593.94 1929.17,1596.05 1930.86,1598.2C1930.85,1598.2 1931.74,1599.36 1931.25,1598.71C1930.83,1598.16 1931.4,1598.91 1931.5,1599.04C1931.9,1599.57 1932.3,1600.1 1932.7,1600.64C1933.58,1601.83 1934.44,1603.03 1935.29,1604.24C1938.47,1608.78 1941.44,1613.47 1944.11,1618.33C1945.53,1620.9 1946.85,1623.52 1948.05,1626.2C1948.22,1626.56 1948.37,1626.93 1948.54,1627.29C1948.62,1627.47 1948.94,1628.25 1948.55,1627.31C1948.79,1627.9 1949.03,1628.49 1949.27,1629.08C1949.84,1630.55 1950.38,1632.04 1950.87,1633.55C1951.77,1636.3 1952.52,1639.11 1953.06,1641.96C1953.19,1642.65 1953.3,1643.33 1953.42,1644.02C1953.59,1645.07 1953.44,1644.17 1953.42,1643.96C1953.47,1644.35 1953.51,1644.73 1953.55,1645.11C1953.71,1646.56 1953.81,1648.02 1953.84,1649.48C1953.87,1650.86 1953.84,1652.24 1953.75,1653.62C1953.7,1654.3 1953.61,1654.99 1953.56,1655.68C1953.49,1656.59 1953.79,1654.37 1953.54,1655.84C1953.47,1656.29 1953.4,1656.75 1953.31,1657.2C1953.07,1658.5 1952.77,1659.78 1952.4,1661.05C1952.25,1661.58 1952.09,1662.1 1951.91,1662.62C1951.83,1662.84 1951.75,1663.07 1951.67,1663.29C1951.58,1663.51 1951.5,1663.73 1951.41,1663.95C1951.5,1663.73 1951.59,1663.52 1951.68,1663.31C1951.76,1663.55 1951.05,1664.69 1950.93,1664.92C1950.72,1665.34 1950.5,1665.76 1950.27,1666.18C1949.69,1667.22 1949.05,1668.23 1948.36,1669.2C1948.23,1669.4 1948.08,1669.59 1947.94,1669.78C1947.38,1670.58 1948.11,1669.62 1948.14,1669.54C1948.01,1669.96 1947.28,1670.6 1946.99,1670.92C1946.28,1671.74 1945.54,1672.51 1944.76,1673.26C1943.98,1674 1943.16,1674.69 1942.33,1675.38C1941.41,1676.14 1943.09,1674.89 1942.43,1675.3C1942.18,1675.45 1941.95,1675.65 1941.71,1675.82C1941.23,1676.16 1940.73,1676.49 1940.23,1676.8C1939.34,1677.37 1938.42,1677.89 1937.47,1678.37C1937.06,1678.58 1936.63,1678.77 1936.21,1678.97C1935.15,1679.49 1937.11,1678.65 1936.39,1678.91C1936.06,1679.03 1935.74,1679.17 1935.42,1679.29C1934.45,1679.64 1933.47,1679.95 1932.47,1680.21C1931.97,1680.33 1931.48,1680.44 1930.98,1680.54C1930.75,1680.59 1930.53,1680.63 1930.31,1680.66C1930.14,1680.69 1929.98,1680.72 1929.81,1680.74C1929.39,1680.81 1929.59,1680.78 1930.41,1680.66C1929.54,1680.49 1928.32,1680.84 1927.41,1680.83C1926.91,1680.83 1926.41,1680.81 1925.91,1680.77C1925.69,1680.75 1925.47,1680.73 1925.24,1680.71C1923.99,1680.61 1925.88,1680.87 1925.36,1680.73C1924.39,1680.47 1923.4,1680.34 1922.43,1680.04C1921.94,1679.89 1921.47,1679.71 1920.99,1679.53C1920.06,1679.19 1921.33,1679.63 1921.34,1679.68C1921.33,1679.6 1920.55,1679.31 1920.4,1679.23C1919.37,1678.71 1918.4,1678.08 1917.45,1677.42C1916.64,1676.86 1917.43,1677.45 1917.57,1677.53C1917.29,1677.36 1917.03,1677.09 1916.79,1676.88C1916.22,1676.39 1915.68,1675.87 1915.15,1675.34C1914.77,1674.95 1914.4,1674.55 1914.04,1674.14C1913.82,1673.88 1913.59,1673.62 1913.38,1673.36C1913.27,1673.22 1912.71,1672.53 1913.16,1673.1C1913.69,1673.77 1912.86,1672.7 1912.84,1672.66C1912.68,1672.44 1912.52,1672.21 1912.36,1671.99C1911.97,1671.42 1911.59,1670.84 1911.22,1670.25C1909.81,1667.99 1908.6,1665.61 1907.49,1663.2C1906.96,1662.06 1906.44,1660.91 1905.96,1659.75C1906.32,1660.6 1906.07,1659.99 1905.88,1659.53C1905.69,1659.06 1905.51,1658.58 1905.34,1658.11C1904.71,1656.4 1904.15,1654.66 1903.64,1652.91C1902.5,1648.94 1901.61,1644.89 1900.84,1640.83C1900.41,1638.53 1900.02,1636.23 1899.67,1633.92C1899.5,1632.85 1899.34,1631.79 1899.19,1630.72C1899.11,1630.14 1899.03,1629.57 1898.95,1628.99C1898.81,1628.01 1898.96,1629.13 1898.99,1629.27C1898.92,1628.89 1898.88,1628.5 1898.83,1628.11C1896.34,1608.83 1895.4,1589.39 1893.77,1570.03C1893.6,1568.07 1893.43,1566.12 1893.24,1564.16C1892.97,1561.35 1890.95,1558.61 1887.83,1558.75C1885.13,1558.87 1882.13,1561.15 1882.42,1564.16Z" style="fill:rgb(26,57,102);fill-rule:nonzero;"/>
            </g>
            <g transform="matrix(1,0,0,1,-452.619,35.905)">
                <path d="M1756.18,1618.53C1736.47,1615.49 1716.89,1611.58 1697.53,1606.79C1678.17,1602 1659.02,1596.34 1640.17,1589.84C1630.66,1586.56 1621.23,1583.07 1611.88,1579.36C1603.18,1575.91 1594.53,1572.25 1586.38,1567.61C1582.4,1565.34 1578.52,1562.85 1574.91,1560.03C1571.67,1557.5 1568.53,1554.63 1566.28,1551.16C1564.24,1548.01 1563.14,1544.6 1563.48,1540.83C1563.52,1540.45 1563.48,1540.69 1563.57,1540.2C1563.63,1539.85 1563.7,1539.5 1563.78,1539.16C1563.96,1538.36 1564.19,1537.57 1564.46,1536.79C1564.92,1535.47 1565.51,1534.26 1566.27,1532.94C1569.7,1526.95 1574.94,1522.1 1580.28,1517.83C1585.55,1513.62 1591.27,1509.96 1597.1,1506.56C1598.28,1505.87 1599.48,1505.19 1600.68,1504.52C1603.72,1502.83 1601,1498.16 1597.95,1499.85C1592.13,1503.1 1586.43,1506.6 1581.03,1510.52C1574.9,1514.98 1569.05,1519.93 1564.43,1525.99C1560.16,1531.59 1557.11,1538.48 1558.28,1545.65C1559.74,1554.56 1567.22,1561.14 1574.13,1566.17C1582.01,1571.9 1590.77,1576.3 1599.7,1580.15C1609.04,1584.18 1618.57,1587.82 1628.13,1591.3C1647.43,1598.32 1667.06,1604.45 1686.93,1609.67C1706.8,1614.88 1726.9,1619.18 1747.17,1622.53C1749.69,1622.95 1752.22,1623.36 1754.74,1623.75C1756.19,1623.97 1757.65,1623.38 1758.07,1621.86C1758.42,1620.58 1757.63,1618.75 1756.18,1618.53Z" style="fill:rgb(26,57,102);fill-rule:nonzero;"/>
            </g>
            <g transform="matrix(1,0,0,1,-452.619,35.905)">
                <path d="M1601.7,1431.75C1594.51,1427.37 1587.45,1422.71 1581.07,1417.2C1574.83,1411.81 1568.14,1405.16 1566.13,1396.88C1563.54,1386.23 1573.18,1378.39 1581.07,1373.2C1590.74,1366.84 1601.47,1362.39 1612.28,1358.4C1659.45,1341.01 1709.06,1330.84 1758.46,1322.16C1808.13,1313.43 1858.55,1308.45 1908.82,1314.69C1945.32,1319.23 1981.67,1328.02 2015.19,1343.37C2047.35,1358.1 2076.46,1378.87 2100.14,1405.21C2128.47,1436.71 2147.89,1474.99 2161.82,1514.76C2169.8,1537.52 2175.91,1560.83 2181.24,1584.34C2186.4,1607.1 2191.24,1630.32 2190.14,1653.79C2189.11,1675.92 2182.09,1697.79 2167.24,1714.55C2154.29,1729.17 2135.41,1740.37 2115.27,1738.37C2105.03,1737.35 2095,1732.77 2088.07,1725.08C2081.17,1717.42 2078.31,1707.2 2078.03,1697.07C2077.42,1674.9 2086.12,1653.27 2090.67,1631.86C2099.54,1590.03 2102.23,1541.67 2079.65,1503.45C2074.15,1494.15 2067.29,1485.75 2059.55,1478.23C2057.05,1475.8 2053.23,1479.62 2055.73,1482.05C2071.8,1497.68 2082.75,1516.96 2087.72,1538.83C2092.94,1561.84 2092.54,1586.08 2089.22,1609.33C2087.37,1622.3 2084.62,1635.13 2081.35,1647.82C2078.59,1658.55 2075.5,1669.22 2073.85,1680.21C2072.3,1690.48 2071.8,1701.17 2074.65,1711.27C2077.43,1721.14 2083.41,1729.66 2091.85,1735.5C2108.98,1747.34 2131.44,1745.78 2149.12,1736.11C2167,1726.33 2180.61,1709.45 2188.03,1690.64C2196.97,1667.99 2196.91,1643.26 2193.55,1619.49C2190.11,1595.11 2184.15,1570.81 2177.58,1547.11C2165.31,1502.87 2147.95,1459.02 2120.58,1421.83C2098.64,1392.02 2070.63,1367.18 2038.34,1349.07C2005.57,1330.69 1969.29,1319.29 1932.39,1312.8C1909.67,1308.8 1886.68,1306.47 1863.6,1306.36C1837.48,1306.23 1811.42,1308.65 1785.59,1312.36C1759.37,1316.12 1733.31,1321.11 1707.38,1326.52C1681.97,1331.81 1656.71,1337.99 1631.97,1345.92C1620.18,1349.7 1608.41,1353.75 1597.03,1358.67C1586.84,1363.08 1576.18,1368.48 1568.26,1376.44C1561.46,1383.27 1558.29,1392.17 1561.9,1401.42C1565.16,1409.77 1571.81,1416.5 1578.57,1422.15C1584.95,1427.47 1591.88,1432.1 1598.98,1436.42C1601.96,1438.23 1604.68,1433.55 1601.7,1431.75Z" style="fill:rgb(26,57,102);fill-rule:nonzero;"/>
            </g>
            <g transform="matrix(1,0,0,1,-452.619,35.905)">
                <path d="M1607.38,1515.38C1604.78,1502.24 1602.89,1488.97 1602.25,1475.58C1601.67,1463.6 1602.12,1451.6 1603.5,1439.7C1604.29,1432.9 1605.4,1426.14 1606.7,1419.43C1606.98,1417.99 1606.3,1416.51 1604.81,1416.1C1603.49,1415.74 1601.76,1416.55 1601.48,1417.99C1599.12,1430.23 1597.42,1442.62 1596.83,1455.08C1596.23,1467.73 1596.8,1480.4 1598.32,1492.97C1599.29,1500.97 1600.6,1508.92 1602.17,1516.82C1602.45,1518.25 1604.16,1519.08 1605.49,1518.71C1606.99,1518.3 1607.67,1516.82 1607.38,1515.38Z" style="fill:rgb(26,57,102);fill-rule:nonzero;"/>
            </g>
            <g transform="matrix(1,0,0,1,-452.619,35.905)">
                <path d="M1621.39,1608.12C1616.16,1614.37 1619.24,1625.52 1626.93,1628.21C1634.63,1630.9 1643.98,1624.1 1643.79,1615.95C1643.59,1607.79 1630.51,1597.22 1621.39,1608.12Z" style="fill:rgb(26,57,102);fill-rule:nonzero;"/>
            </g>
            <g transform="matrix(1,0,0,1,-452.619,35.905)">
                <path d="M1687.12,1678.47C1681.89,1684.72 1684.96,1695.87 1692.66,1698.56C1700.36,1701.25 1709.7,1694.45 1709.51,1686.3C1709.32,1678.14 1696.23,1667.56 1687.12,1678.47Z" style="fill:rgb(26,57,102);fill-rule:nonzero;"/>
            </g>
            <g transform="matrix(1,0,0,1,-452.619,35.905)">
                <path d="M1760.72,1738.55C1755.49,1744.81 1758.56,1755.95 1766.26,1758.64C1773.96,1761.33 1783.3,1754.53 1783.11,1746.38C1782.92,1738.23 1769.83,1727.65 1760.72,1738.55Z" style="fill:rgb(26,57,102);fill-rule:nonzero;"/>
            </g>
            <g transform="matrix(1,0,0,1,-452.619,35.905)">
                <path d="M1834.87,1778.75C1829.64,1785.01 1832.71,1796.15 1840.41,1798.85C1848.11,1801.54 1857.45,1794.74 1857.26,1786.58C1857.07,1778.43 1843.98,1767.85 1834.87,1778.75Z" style="fill:rgb(26,57,102);fill-rule:nonzero;"/>
            </g>
            <g transform="matrix(1,0,0,1,-452.619,35.905)">
                <path d="M1984.96,1738.55C1979.73,1744.81 1982.8,1755.95 1990.5,1758.64C1998.2,1761.33 2007.55,1754.53 2007.35,1746.38C2007.16,1738.23 1994.08,1727.65 1984.96,1738.55Z" style="fill:rgb(26,57,102);fill-rule:nonzero;"/>
            </g>
            <g transform="matrix(1,0,0,1,-452.619,35.905)">
                <path d="M1822.37,1660.61C1817.14,1666.87 1820.21,1678.01 1827.91,1680.7C1835.61,1683.39 1844.96,1676.59 1844.76,1668.44C1844.57,1660.29 1831.49,1649.71 1822.37,1660.61Z" style="fill:rgb(26,57,102);fill-rule:nonzero;"/>
            </g>
            <g transform="matrix(1,0,0,1,-452.619,35.905)">
                <path d="M1901.49,1705.41C1896.26,1711.67 1899.33,1722.81 1907.03,1725.5C1914.73,1728.19 1924.08,1721.39 1923.89,1713.24C1923.69,1705.09 1910.61,1694.51 1901.49,1705.41Z" style="fill:rgb(26,57,102);fill-rule:nonzero;"/>
            </g>
            <g transform="matrix(1,0,0,1,-452.619,35.905)">
                <path d="M1658.71,1738.55C1653.48,1744.81 1656.55,1755.95 1664.25,1758.64C1671.95,1761.33 1681.3,1754.53 1681.1,1746.38C1680.91,1738.23 1667.82,1727.65 1658.71,1738.55Z" style="fill:rgb(26,57,102);fill-rule:nonzero;"/>
            </g>
            <g transform="matrix(1,0,0,1,-452.619,35.905)">
                <path d="M1631.29,1693.72C1631.15,1687.83 1624.29,1680.69 1617.05,1681.27C1618.01,1689.63 1618.97,1698 1619.96,1706.4C1625.98,1705.41 1631.44,1699.97 1631.29,1693.72Z" style="fill:rgb(26,57,102);fill-rule:nonzero;"/>
            </g>
            <g transform="matrix(1,0,0,1,-452.619,35.905)">
                <path d="M1714.55,1802.64C1712.2,1805.45 1711.54,1809.25 1712.21,1812.82C1720.37,1812.59 1728.58,1812.36 1736.84,1812.14C1736.92,1811.59 1736.96,1811.04 1736.95,1810.47C1736.75,1802.32 1723.67,1791.74 1714.55,1802.64Z" style="fill:rgb(26,57,102);fill-rule:nonzero;"/>
            </g>
            <g transform="matrix(1,0,0,1,-452.619,35.905)">
                <path d="M2054.97,1766.08C2049.74,1772.34 2052.81,1783.48 2060.51,1786.17C2061.85,1786.64 2063.23,1786.8 2064.6,1786.74C2064.15,1778.31 2063.68,1769.88 2063.21,1761.45C2060.4,1761.65 2057.53,1763.02 2054.97,1766.08Z" style="fill:rgb(26,57,102);fill-rule:nonzero;"/>
            </g>
            <g transform="matrix(1,0,0,1,-452.619,35.905)">
                <path d="M1933.43,1801.01C1931.65,1803.13 1930.85,1805.82 1930.85,1808.55C1939.2,1808.46 1947.51,1808.38 1955.78,1808.31C1955.06,1800.24 1942.35,1790.34 1933.43,1801.01Z" style="fill:rgb(26,57,102);fill-rule:nonzero;"/>
            </g>
            <g transform="matrix(1,0,0,1,-452.619,35.905)">
                <path d="M2045.63,1647.94C2040.4,1654.19 2043.47,1665.34 2051.17,1668.03C2053.44,1668.82 2055.84,1668.77 2058.11,1668.13C2057.7,1659.93 2057.31,1651.73 2056.95,1643.54C2053.23,1642.74 2049.14,1643.74 2045.63,1647.94Z" style="fill:rgb(26,57,102);fill-rule:nonzero;"/>
            </g>
        </g>
    </g>
</svg>
