<?xml version="1.0" encoding="UTF-8" standalone="no"?>
<!DOCTYPE svg PUBLIC "-//W3C//DTD SVG 1.1//EN" "http://www.w3.org/Graphics/SVG/1.1/DTD/svg11.dtd">
<svg width="100%" height="100%" viewBox="0 0 3849 2945" version="1.1" xmlns="http://www.w3.org/2000/svg" xmlns:xlink="http://www.w3.org/1999/xlink" xml:space="preserve" xmlns:serif="http://www.serif.com/" style="fill-rule:evenodd;clip-rule:evenodd;stroke-linejoin:round;stroke-miterlimit:2;">
    <g transform="matrix(1,0,0,1,-3088.21,-1177.81)">
        <g transform="matrix(4.16667,0,0,4.16667,0,0)">
            <path d="M1651.26,849.154C1685.31,768.98 1653.75,673.529 1570.34,640.721C1568.64,635.719 1566.93,630.808 1565.3,626.177C1580.81,615.404 1595.4,604.996 1611.02,594.591C1626.06,601.67 1646.86,597.464 1654.85,583.282C1666.48,579.341 1667.17,561.741 1656.04,556.842C1659.85,551.157 1661.69,544.447 1661.13,537.616C1666.99,528.013 1658.3,514.758 1647.22,516.224C1641.34,513.402 1634.15,512.967 1627.64,514.471C1625.72,511.942 1623.31,509.76 1620.53,508.094C1616.57,495.87 1597.95,495.643 1593.62,507.609C1582.6,513.496 1576.63,524.565 1576,538.076C1563.58,541.09 1550.98,543.957 1538.52,546.895C1537.21,543.003 1534.26,539.814 1530.67,538.269C1525.59,526.369 1520.68,514.549 1515.24,502.865C1521.39,502.764 1527.58,503.049 1533.84,503.406C1555.83,501.303 1550.59,471.269 1528.92,474.26C1529.82,469.805 1528.41,464.818 1525.48,461.697C1540.65,457.082 1536.88,433.013 1520.78,433.619C1509.28,434.859 1497.96,437.929 1486.7,441.193C1468.55,401.089 1424.47,310.236 1377,370.032C1371.85,363.798 1372.23,354.301 1365.12,349.789C1354.41,335.928 1328.89,280.303 1312.67,282.752C1304.88,282.753 1298.17,287.768 1295.99,295.231C1287.33,324.786 1279.73,354.919 1273.33,385.056C1220.85,348.306 1200.78,422.637 1195,462.699C1184.76,426.639 1154.8,355.693 1110.37,390.785C1100.95,361.622 1090.36,332.608 1078.78,304.292C1076.1,297.734 1069.79,293.496 1062.7,293.496C1056.33,293.496 1050.48,296.981 1047.45,302.59C1033.68,328.009 1020.67,354.24 1008.74,380.622C1004.37,383.602 1001.98,389.012 1002.63,394.313C1002.31,395.052 1001.99,395.795 1001.66,396.54C937.624,338.653 911.442,455.093 897.979,497.177C891.828,497.006 885.708,497.073 879.511,497.365C862.142,497.974 861.13,524.478 878.441,526.138C876.115,530.086 875.78,534.987 877.571,539.156C857.416,540.437 856.167,568.663 876.824,568.944C876.904,569.268 876.996,569.588 877.1,569.904C874.991,578.196 872.827,586.271 870.608,594.498C856.552,593.263 842.476,592.272 828.434,590.891C826.305,578.724 818.253,567.36 806.557,563.4C800.419,552.112 782.102,555.242 779.998,567.818C777.487,569.873 775.412,572.36 773.884,575.14C767.173,574.667 760.356,576.066 754.827,579.782C743.617,579.936 736.969,594.409 744.166,602.951C744.629,609.607 747.402,616.12 752.001,621.297C741.622,627.885 745.175,645.242 757.221,647.265C768.127,660.619 787.61,660.957 802.129,651.974C818.891,659.928 835.395,668.256 851.97,676.561C851.038,681.372 850.072,686.463 849.136,691.632C837.692,699.195 827.846,706.909 819.25,715.049C810.687,714.615 803.708,722.272 804.652,730.779C730.909,827.896 800.64,974.927 921.622,987.329C968.571,994.622 1024.86,982.503 1046.12,935.756C1077.33,935.844 1102.58,934.196 1127.71,929.784C1156.18,946.49 1198.11,969.367 1229.03,948.938C1261.86,969.433 1304.02,938.098 1329.79,917.159C1348.52,917.594 1366.11,916.709 1386.11,914.493C1393.58,923.959 1408.06,926.019 1418.48,920.435C1486.23,991.482 1621.06,930.759 1651.26,849.154Z" style="fill:white;fill-rule:nonzero;"/>
            <path d="M1580.18,732.943C1572.99,686.645 1553.24,635.907 1533.39,577.755C1507.02,504.512 1478.31,451.722 1437.71,384.027C1417.78,360.5 1407.35,356.425 1395.83,370.689C1384.31,384.952 1380.37,391.3 1370.18,411.621C1347.38,416.944 1316.79,418.138 1293.99,423.46C1283.5,415.786 1289.48,419.791 1279.52,408.31C1269.57,396.828 1254.95,383.97 1241.29,390.615C1228.63,396.767 1224.96,404.355 1221.18,417.904C1208.17,464.449 1196.89,523.717 1194.35,570.97C1190.68,639.116 1182.12,695.942 1189.96,772.596C1192.42,796.618 1193.13,815.049 1201.56,837.677C1209.99,860.304 1224.82,887.18 1248.4,892.421C1210.65,914.021 1235.12,964.018 1280.33,933.253C1299.73,920.054 1312.81,912.538 1317.83,903.56C1331.25,907.395 1474.62,889.703 1497.42,874.963C1511.94,894.869 1528.49,908.88 1547.06,914.841C1554.11,917.105 1543.7,882.698 1550.75,880.447C1564.64,876.013 1586.46,896.61 1580.97,879.168C1576.58,865.26 1571.04,854.977 1561.77,843.722C1576.62,823.407 1579.23,809.612 1583.37,789.697C1587.51,769.783 1583.3,753.043 1580.18,732.943Z" style="fill:white;fill-rule:nonzero;"/>
            <path d="M1333.48,524.791C1339.03,525.629 1344.68,524.074 1348.79,520.15C1352.63,516.469 1354.7,510.817 1354.03,505.525C1353.85,504.033 1352.84,502.564 1351.15,502.64C1349.74,502.703 1348.06,503.921 1348.26,505.525C1348.39,506.573 1348.42,507.625 1348.33,508.677C1348.32,508.863 1348.22,509.471 1348.31,508.955C1348.26,509.215 1348.22,509.474 1348.16,509.731C1348.05,510.247 1347.91,510.756 1347.75,511.257C1347.67,511.508 1347.58,511.754 1347.49,512.002C1347.26,512.63 1347.64,511.738 1347.37,512.283C1347.13,512.754 1346.9,513.224 1346.63,513.677C1346.49,513.903 1346.35,514.125 1346.2,514.343C1346.13,514.452 1345.73,515.003 1346.03,514.609C1345.69,515.061 1345.3,515.485 1344.89,515.886C1344.71,516.072 1344.51,516.252 1344.32,516.427C1344.25,516.487 1343.67,516.965 1343.9,516.788C1344.12,516.611 1343.52,517.053 1343.45,517.105C1343.23,517.253 1343.01,517.395 1342.78,517.531C1342.33,517.802 1341.87,518.05 1341.39,518.273C1341.27,518.329 1341.15,518.384 1341.03,518.436C1341.27,518.332 1341.3,518.318 1341.11,518.394C1340.86,518.473 1340.61,518.577 1340.36,518.659C1339.86,518.822 1339.35,518.959 1338.84,519.07C1338.58,519.125 1338.32,519.163 1338.06,519.216C1337.85,519.248 1337.89,519.244 1338.18,519.203C1338.05,519.219 1337.92,519.232 1337.78,519.243C1337.26,519.289 1336.73,519.308 1336.21,519.298C1335.94,519.293 1335.68,519.281 1335.42,519.261C1335.29,519.251 1334.37,519.13 1335.01,519.227C1333.52,519.002 1331.83,519.599 1331.46,521.242C1331.15,522.616 1331.88,524.55 1333.48,524.791Z" style="fill:rgb(26,57,102);fill-rule:nonzero;"/>
            <path d="M1370.8,513.61C1367.35,515.3 1363.05,515.169 1359.68,513.185C1358.29,512.37 1356.91,511.097 1356.08,509.909C1354.85,508.151 1354.32,506.834 1353.93,504.758C1353.64,503.226 1351.79,502.355 1350.38,502.743C1348.77,503.185 1348.08,504.756 1348.36,506.292C1349.3,511.287 1352.6,515.843 1357.04,518.323C1362.19,521.207 1368.46,521.163 1373.71,518.593C1375.11,517.908 1375.49,515.919 1374.75,514.645C1373.91,513.217 1372.21,512.922 1370.8,513.61Z" style="fill:rgb(26,57,102);fill-rule:nonzero;"/>
            <path d="M1400.24,482.969C1406.69,481.966 1412.74,486.386 1413.74,492.842C1414.75,499.298 1410.33,505.345 1403.87,506.349C1397.41,507.352 1391.37,502.932 1390.36,496.476C1389.36,490.019 1393.78,483.972 1400.24,482.969Z" style="fill:rgb(26,57,102);fill-rule:nonzero;"/>
            <path d="M1297.47,501.276C1303.92,500.272 1309.97,504.693 1310.97,511.149C1311.98,517.605 1307.56,523.652 1301.1,524.656C1294.64,525.659 1288.6,521.238 1287.59,514.782C1286.59,508.326 1291.01,502.279 1297.47,501.276Z" style="fill:rgb(26,57,102);fill-rule:nonzero;"/>
            <path d="M1440.58,502.981C1460.42,499.897 1477.53,504.036 1478.81,512.224C1480.08,520.412 1465.03,529.55 1445.18,532.633C1425.34,535.716 1408.23,531.578 1406.96,523.39C1405.68,515.201 1420.74,506.064 1440.58,502.981Z" style="fill:rgb(251,210,207);fill-rule:nonzero;"/>
            <path d="M1277.79,534.362C1297.63,531.279 1314.74,535.417 1316.02,543.606C1317.29,551.794 1302.24,560.931 1282.4,564.015C1262.56,567.098 1245.44,562.959 1244.17,554.771C1242.89,546.583 1257.95,537.446 1277.79,534.362Z" style="fill:rgb(251,210,207);fill-rule:nonzero;"/>
            <path d="M1447.94,476.403C1465.82,466.552 1484.97,459.124 1504.81,454.33C1510.49,452.959 1516.21,451.811 1521.97,450.869C1523.51,450.617 1524.37,448.707 1523.99,447.319C1523.54,445.684 1521.98,445.052 1520.44,445.304C1499.88,448.665 1479.85,454.805 1460.9,463.438C1455.51,465.894 1450.22,468.562 1445.03,471.42C1441.78,473.213 1444.68,478.198 1447.94,476.403Z" style="fill:rgb(26,57,102);fill-rule:nonzero;"/>
            <path d="M1456.12,499.942C1475.82,494.423 1496.17,491.531 1516.63,491.403C1522.42,491.367 1528.22,491.555 1534,491.949C1535.55,492.055 1536.88,490.547 1536.88,489.064C1536.88,487.414 1535.56,486.285 1534,486.178C1513.18,484.759 1492.2,486.15 1471.75,490.25C1465.98,491.407 1460.26,492.789 1454.59,494.378C1451.02,495.378 1452.54,500.948 1456.12,499.942Z" style="fill:rgb(26,57,102);fill-rule:nonzero;"/>
            <path d="M1459.22,486.658C1476.74,478.678 1495.93,474.543 1515.17,474.449C1518.88,474.431 1518.89,468.66 1515.17,468.678C1494.86,468.777 1474.78,473.261 1456.31,481.675C1454.89,482.321 1454.54,484.375 1455.27,485.623C1456.13,487.08 1457.8,487.306 1459.22,486.658Z" style="fill:rgb(26,57,102);fill-rule:nonzero;"/>
            <path d="M1252.17,506.011C1231.35,503.081 1210.23,502.828 1189.37,505.512C1183.42,506.277 1177.5,507.245 1171.62,508.446C1170.09,508.758 1169.21,510.566 1169.6,511.996C1170.04,513.584 1171.62,514.324 1173.15,514.011C1193.05,509.947 1213.45,508.568 1233.72,509.863C1239.38,510.224 1245.02,510.786 1250.64,511.576C1252.18,511.793 1253.74,511.2 1254.19,509.561C1254.56,508.21 1253.72,506.23 1252.17,506.011Z" style="fill:rgb(26,57,102);fill-rule:nonzero;"/>
            <path d="M1251.38,530.791C1230.49,532.683 1209.88,537.282 1190.22,544.625C1184.58,546.734 1179.02,549.064 1173.55,551.584C1172.13,552.236 1171.78,554.281 1172.51,555.532C1173.36,556.985 1175.04,557.222 1176.46,556.567C1194.88,548.083 1214.44,542.103 1234.44,538.738C1240.06,537.793 1245.71,537.076 1251.38,536.562C1252.93,536.422 1254.27,535.336 1254.27,533.677C1254.27,532.225 1252.94,530.65 1251.38,530.791Z" style="fill:rgb(26,57,102);fill-rule:nonzero;"/>
            <path d="M1244.51,519.504C1224.55,518.23 1204.34,521.22 1185.61,528.242C1184.15,528.788 1183.16,530.191 1183.59,531.791C1183.98,533.191 1185.68,534.356 1187.14,533.806C1205.45,526.943 1225,524.029 1244.51,525.275C1246.06,525.374 1247.39,523.878 1247.39,522.389C1247.39,520.745 1246.07,519.604 1244.51,519.504Z" style="fill:rgb(26,57,102);fill-rule:nonzero;"/>
            <path d="M1240.73,889.139C1236.04,898.948 1229.84,908.262 1228.28,919.237C1227.45,925.091 1228.17,930.943 1231.91,935.701C1235.07,939.721 1239.88,942.414 1244.84,943.504C1255.19,945.779 1266.21,942.631 1275.74,938.601C1284.66,934.829 1293.13,929.997 1301.22,924.699C1309.76,919.11 1318.14,912.965 1325.42,905.782C1328.06,903.169 1323.98,899.089 1321.34,901.701C1315.53,907.435 1308.99,912.427 1302.28,917.048C1294.64,922.31 1286.64,927.129 1278.28,931.157C1270.51,934.899 1262.07,938.045 1253.37,938.43C1248.43,938.649 1243.52,937.798 1239.41,934.938C1235.49,932.218 1233.62,927.997 1233.69,923.289C1233.87,911.906 1240.98,901.947 1245.72,892.051C1246.39,890.647 1246.1,888.935 1244.68,888.104C1243.42,887.366 1241.41,887.727 1240.73,889.139Z" style="fill:rgb(26,57,102);fill-rule:nonzero;"/>
            <path d="M1281.31,434.495C1306.78,424.766 1333.13,418.103 1360.42,416.665C1367.9,416.271 1375.38,416.21 1382.86,416.369C1386.58,416.447 1386.58,410.676 1382.86,410.598C1369.66,410.317 1356.44,410.761 1343.32,412.396C1329.98,414.06 1316.82,416.863 1303.93,420.684C1295.77,423.101 1287.73,425.894 1279.78,428.931C1278.32,429.487 1277.32,430.874 1277.76,432.48C1278.15,433.873 1279.85,435.055 1281.31,434.495Z" style="fill:rgb(26,57,102);fill-rule:nonzero;"/>
            <path d="M1263.45,894.035C1251.2,891.658 1238.73,886.761 1229.27,878.439C1221.59,871.688 1215.92,863.016 1211.44,853.896C1202,834.669 1197.43,813.134 1194.32,792.055C1188.45,752.262 1188.31,711.604 1189.81,671.489C1191.33,630.94 1194.94,590.472 1199.85,550.201C1203.35,521.549 1207.44,492.938 1212.59,464.535C1215.23,450.024 1218.06,435.392 1223.1,421.503C1225.34,415.321 1228.04,409.173 1231.67,403.667C1234.73,399.008 1238.98,394.378 1244.63,393.08C1251.31,391.543 1257.86,395.368 1263.19,398.965C1268.72,402.697 1273.94,406.872 1278.85,411.392C1283.61,415.782 1288.04,420.507 1292.17,425.501C1294.53,428.367 1298.6,424.264 1296.25,421.42C1287.48,410.802 1277.2,401.379 1265.74,393.733C1260.26,390.077 1253.88,386.742 1247.1,386.981C1241.13,387.191 1235.82,390.181 1231.71,394.388C1222.68,403.649 1217.97,417.312 1214.46,429.484C1212.13,437.603 1210.31,445.874 1208.69,454.163C1203.57,480.346 1199.72,506.805 1196.23,533.249C1190.9,573.744 1186.86,614.442 1184.77,655.239C1182.61,697.144 1182.19,739.488 1187.12,781.223C1189.6,802.214 1193.32,823.361 1200.68,843.242C1204.59,853.793 1209.52,864.071 1216.41,873.015C1223.41,882.099 1232.35,888.944 1242.84,893.578C1248.97,896.284 1255.33,898.323 1261.91,899.599C1265.54,900.303 1267.09,894.742 1263.45,894.035Z" style="fill:rgb(26,57,102);fill-rule:nonzero;"/>
            <path d="M1529.06,562.98C1520.2,542.366 1511.21,521.805 1502.02,501.338C1492.87,480.97 1483.48,460.715 1473.89,440.556C1464.64,421.141 1455.11,401.65 1441.98,384.508C1436.36,377.174 1430.11,369.837 1421.88,365.346C1417.87,363.153 1413.34,361.632 1408.71,362.003C1404.48,362.343 1400.51,363.955 1397.08,366.425C1390.65,371.05 1385.8,377.705 1381.49,384.262C1377.52,390.305 1374.34,396.811 1371.2,403.308C1370.09,405.591 1368.99,407.878 1367.9,410.165C1367.22,411.569 1367.51,413.282 1368.93,414.113C1370.19,414.851 1372.2,414.489 1372.88,413.078C1379.23,399.849 1385.42,385.828 1395.79,375.147C1398.39,372.469 1401.43,369.907 1404.99,368.643C1408.77,367.305 1412.64,367.521 1416.34,369.042C1424.41,372.36 1430.61,379.33 1435.9,386.018C1448.72,402.218 1458.1,420.863 1466.97,439.419C1476.35,459.033 1485.53,478.739 1494.47,498.552C1503.43,518.399 1512.19,538.337 1520.82,558.329C1521.91,560.85 1522.99,563.371 1524.07,565.893C1524.69,567.325 1526.8,567.646 1528.02,566.928C1529.5,566.062 1529.68,564.418 1529.06,562.98Z" style="fill:rgb(26,57,102);fill-rule:nonzero;"/>
            <path d="M1561.75,650.571C1558.35,640.289 1554.74,630.079 1551.09,619.88C1550.57,618.413 1549.13,617.43 1547.55,617.865C1546.13,618.254 1545,619.94 1545.53,621.414C1549.17,631.613 1552.79,641.823 1556.19,652.105C1557.35,655.614 1562.92,654.111 1561.75,650.571Z" style="fill:rgb(26,57,102);fill-rule:nonzero;"/>
            <path d="M1418.29,892.646C1391.19,897.081 1363.87,900.368 1336.37,900.099C1328.18,900.019 1320,899.636 1311.84,898.963C1310.28,898.835 1308.95,900.381 1308.95,901.849C1308.95,903.516 1310.28,904.605 1311.84,904.734C1340.11,907.066 1368.4,905.489 1396.47,901.719C1404.27,900.671 1412.05,899.482 1419.82,898.211C1421.36,897.959 1422.22,896.049 1421.84,894.661C1421.39,893.026 1419.83,892.393 1418.29,892.646Z" style="fill:rgb(26,57,102);fill-rule:nonzero;"/>
            <path d="M1522.41,568.75C1540.66,564.31 1558.92,559.87 1577.17,555.43C1581.64,554.343 1586.28,553.251 1590.79,554.14C1601.46,556.242 1606.86,567.93 1610.61,578.136C1586.06,598.486 1559.36,616.248 1531.1,631.033C1521.07,610.766 1516.41,587.874 1522.41,568.75Z" style="fill:white;fill-rule:nonzero;"/>
            <path d="M1600.33,586.254C1601.26,582.121 1605.65,579.532 1609.87,579.189C1614.1,578.846 1618.24,580.224 1622.31,581.411C1626.38,582.597 1630.72,583.611 1634.82,582.548C1641.24,580.884 1645.63,573.625 1644.12,567.165C1642.61,560.705 1635.46,556.145 1628.96,557.5C1634.97,556.123 1640.98,553.461 1644.74,548.575C1648.5,543.688 1649.33,536.213 1645.39,531.467C1641.79,527.121 1635.22,526.186 1629.85,527.927C1624.48,529.667 1620.11,533.586 1616.26,537.711C1619.74,533.512 1619.38,526.781 1615.77,522.689C1612.17,518.597 1605.88,517.317 1600.78,519.263C1595.69,521.209 1591.95,526.071 1590.9,531.424C1589.96,536.288 1591.05,541.383 1590.05,546.238C1589.05,551.093 1584.46,555.969 1579.76,554.407C1587.45,563.558 1593.63,573.968 1600.33,586.254Z" style="fill:white;fill-rule:nonzero;"/>
            <path d="M1549.77,623.138C1551.06,622.461 1552.25,621.492 1553.44,620.667C1556.25,618.728 1559.05,616.773 1561.85,614.819C1569.72,609.324 1577.58,603.822 1585.47,598.355C1592.4,593.558 1599.31,588.738 1606.37,584.134C1607.96,583.096 1609.79,582.235 1611.31,581.116C1611.55,580.943 1610.45,581.417 1610.88,581.308C1611.18,581.23 1610.21,581.399 1610.21,581.393C1610.21,581.484 1610.96,581.788 1611.03,581.824C1612.99,582.844 1615,583.763 1617.07,584.533C1621.13,586.042 1625.62,586.923 1629.96,586.46C1637.71,585.631 1645.51,580.859 1647.04,572.701C1647.73,569.008 1647.29,564.948 1645.13,561.783C1642.86,558.449 1639.31,556.529 1635.47,555.517C1633.63,555.03 1631.74,554.749 1629.85,554.485C1628.31,554.27 1626.75,554.861 1626.3,556.501C1625.93,557.85 1626.76,559.833 1628.31,560.05C1631.7,560.523 1635.49,560.959 1638.36,562.971C1640.88,564.732 1641.89,567.73 1641.54,570.719C1640.75,577.612 1633.49,580.937 1627.24,580.803C1623.17,580.715 1619.18,579.404 1615.54,577.646C1613.22,576.525 1610.93,574.922 1608.38,576.143C1606.73,576.932 1605.2,578.017 1603.67,579.011C1589.08,588.508 1574.92,598.675 1560.65,608.638C1557.49,610.844 1554.33,613.051 1551.16,615.243C1549.76,616.213 1548.37,617.361 1546.86,618.155C1543.57,619.883 1546.48,624.865 1549.77,623.138Z" style="fill:rgb(26,57,102);fill-rule:nonzero;"/>
            <path d="M1528.88,567.076C1528.13,567.709 1528.19,567.58 1528.48,567.422C1528.67,567.312 1527.55,567.732 1528.06,567.598C1528.36,567.521 1528.65,567.397 1528.94,567.307C1529.87,567.023 1530.8,566.777 1531.74,566.533C1534.68,565.766 1537.63,565.062 1540.58,564.359C1548.77,562.411 1556.98,560.533 1565.17,558.604C1572.39,556.904 1579.64,555.247 1586.78,553.237C1588.55,552.74 1590.62,552.307 1592.22,551.362C1594.4,550.074 1594.14,547.623 1593.89,545.4C1593.46,541.673 1593.36,537.817 1594.21,534.14C1595.66,527.784 1600.76,520.901 1608.04,521.723C1610.73,522.027 1613.36,523.437 1614.73,525.836C1616.71,529.313 1615.58,533.887 1614.77,537.537C1613.98,541.156 1619.54,542.703 1620.34,539.071C1621.23,535.018 1622.01,530.834 1621.14,526.706C1620.38,523.104 1618.11,520.028 1614.98,518.123C1608.79,514.359 1601.16,515.711 1595.82,520.256C1589.8,525.378 1587.64,533.551 1587.82,541.191C1587.86,543.107 1588.13,544.98 1588.3,546.883C1588.36,547.522 1588.04,548.138 1588.58,547.176C1588.98,546.469 1589.17,546.477 1588.97,546.67C1589.65,546.012 1589.59,546.198 1589.26,546.404C1588.6,546.823 1590.04,546.142 1589.15,546.456C1588.74,546.599 1588.34,546.743 1587.93,546.874C1581.4,548.977 1574.63,550.429 1567.97,552.015C1559.23,554.095 1550.47,556.1 1541.72,558.161C1538.03,559.032 1534.34,559.901 1530.67,560.849C1528.77,561.339 1526.34,561.693 1524.8,562.995C1523.61,564 1523.77,566.039 1524.8,567.076C1525.98,568.256 1527.69,568.083 1528.88,567.076Z" style="fill:rgb(26,57,102);fill-rule:nonzero;"/>
            <path d="M1632.29,560.485C1641.95,557.967 1650.56,549.728 1649.97,539.125C1649.69,534.027 1647.22,528.819 1642.37,526.641C1637.75,524.566 1632.13,524.994 1627.46,526.717C1622.16,528.669 1617.69,532.166 1614.59,536.886C1612.54,539.998 1617.54,542.892 1619.57,539.798C1623.32,534.095 1630.95,529.867 1637.9,531.225C1646,532.807 1645.25,543.375 1641.18,548.521C1638.58,551.819 1634.77,553.875 1630.76,554.921C1627.17,555.857 1628.69,561.425 1632.29,560.485Z" style="fill:rgb(26,57,102);fill-rule:nonzero;"/>
            <path d="M1647.4,528.18C1646.16,528.927 1644.93,529.674 1643.69,530.422C1643.06,530.8 1642.56,531.436 1642.36,532.146C1642.24,532.53 1642.23,532.913 1642.31,533.297C1642.33,533.681 1642.44,534.038 1642.66,534.369C1643.05,534.985 1643.64,535.528 1644.38,535.695C1645.13,535.867 1645.93,535.812 1646.6,535.404C1647.84,534.657 1649.08,533.91 1650.31,533.162C1650.94,532.784 1651.44,532.148 1651.64,531.438C1651.76,531.055 1651.78,530.671 1651.69,530.287C1651.67,529.904 1651.56,529.546 1651.35,529.215C1650.95,528.599 1650.36,528.056 1649.62,527.889C1648.87,527.717 1648.08,527.772 1647.4,528.18Z" style="fill:rgb(26,57,102);fill-rule:nonzero;"/>
            <path d="M1604.41,513.125C1604.46,514.57 1604.5,516.014 1604.55,517.458C1604.57,518.213 1604.85,518.959 1605.39,519.498C1605.9,519.999 1606.72,520.376 1607.43,520.344C1608.18,520.31 1608.95,520.065 1609.48,519.498C1609.98,518.944 1610.34,518.231 1610.32,517.458C1610.27,516.014 1610.23,514.57 1610.18,513.125C1610.16,512.371 1609.88,511.625 1609.34,511.085C1608.84,510.585 1608.02,510.208 1607.3,510.24C1606.55,510.274 1605.78,510.519 1605.26,511.085C1604.75,511.639 1604.39,512.353 1604.41,513.125Z" style="fill:rgb(26,57,102);fill-rule:nonzero;"/>
            <path d="M1650.03,567.015C1648.6,566.829 1647.17,566.644 1645.73,566.458C1645.34,566.443 1644.97,566.526 1644.62,566.707C1644.26,566.823 1643.96,567.022 1643.69,567.303C1643.19,567.804 1642.82,568.625 1642.85,569.344C1642.88,570.09 1643.13,570.864 1643.69,571.384C1643.89,571.534 1644.08,571.685 1644.28,571.835C1644.73,572.096 1645.21,572.227 1645.73,572.229C1647.17,572.414 1648.6,572.6 1650.03,572.785C1650.43,572.8 1650.8,572.717 1651.15,572.537C1651.5,572.42 1651.81,572.222 1652.07,571.94C1652.57,571.44 1652.95,570.619 1652.92,569.9C1652.89,569.154 1652.64,568.38 1652.07,567.86C1651.88,567.709 1651.68,567.559 1651.49,567.409C1651.04,567.147 1650.55,567.016 1650.03,567.015Z" style="fill:rgb(26,57,102);fill-rule:nonzero;"/>
            <path d="M1551.36,649.838C1607.58,663.452 1648.94,719.507 1650.33,777.336C1651.71,835.165 1616.05,890.976 1565.31,918.765C1540.66,932.272 1511.96,939.787 1484.18,935.477C1456.39,931.167 1429.96,913.809 1418.75,888.025C1407.66,862.522 1413.29,830.639 1432.44,810.476C1451.92,789.964 1481.44,782.856 1504.89,767.027C1543.03,741.28 1562.3,690.492 1551.36,649.838Z" style="fill:white;fill-rule:nonzero;"/>
            <path d="M1548.94,768.123C1541.62,777.742 1531.14,783.235 1519.53,785.67C1508.17,788.052 1496.25,787.82 1484.56,788.256C1473.48,788.669 1462.01,789.537 1451.87,794.425C1442.24,799.071 1433.33,806.288 1426.44,814.428C1413.71,829.469 1407.13,849.143 1408.72,868.835C1410.3,888.461 1419.59,907.041 1434.56,919.887C1442.79,926.95 1452.39,932.193 1462.67,935.591C1468.95,937.664 1475.31,938.979 1481.91,939.429C1490.32,940.003 1498.78,939.817 1507.17,938.991C1537.63,935.992 1567.84,925.404 1592.32,906.809C1613.52,890.7 1630.49,869.226 1640.96,844.711C1651.53,819.965 1655.54,792.703 1652.16,765.979C1649.71,746.59 1645.29,727.421 1635.61,710.253C1623.23,688.275 1603.52,671.712 1581.77,659.445C1574.85,655.54 1567.7,652.045 1560.43,648.847C1559,648.22 1557.33,648.429 1556.48,649.882C1555.76,651.107 1556.08,653.199 1557.51,653.829C1581.89,664.547 1605.94,679.157 1622.22,700.418C1628.27,708.308 1633.45,717.524 1636.93,726.343C1640.39,735.084 1642.77,744.209 1644.47,753.444C1646.49,764.494 1647.73,775.131 1647.58,786.701C1647.41,799.667 1645.48,812.552 1641.9,825.013C1634.83,849.623 1621.28,872.193 1602.96,890.08C1593.68,899.149 1583.23,906.957 1571.9,913.294C1558.93,920.549 1544.89,925.697 1530.47,929.204C1514.29,933.137 1497.53,934.842 1480.9,933.586C1469.67,932.737 1458.62,928.806 1449.05,923.191C1440.86,918.385 1433.32,911.72 1427.85,904.286C1422.23,896.641 1418.52,888.694 1416.28,879.649C1415.72,877.423 1415.28,875.171 1414.94,872.903C1414.9,872.62 1414.86,872.337 1414.82,872.053C1414.9,872.652 1414.78,871.717 1414.78,871.684C1414.71,871.115 1414.65,870.546 1414.59,869.976C1414.48,868.835 1414.4,867.692 1414.34,866.548C1414.23,864.257 1414.22,861.961 1414.33,859.67C1414.38,858.57 1414.46,857.472 1414.56,856.375C1414.61,855.85 1414.66,855.326 1414.72,854.802C1414.76,854.516 1414.79,854.23 1414.83,853.944C1414.87,853.594 1414.88,853.564 1414.84,853.855C1414.86,853.665 1414.89,853.475 1414.92,853.284C1416.36,843.821 1419.35,835.377 1424.19,827.365C1429.24,819.006 1436.25,811.561 1444.22,805.868C1448.37,802.903 1453.14,799.877 1457.61,798.2C1462.45,796.384 1467.79,795.357 1472.63,794.826C1495.15,792.355 1520.08,796.474 1540.25,783.778C1545.6,780.407 1550.1,776.057 1553.92,771.036C1554.87,769.795 1554.12,767.807 1552.89,767.088C1551.4,766.221 1549.89,766.879 1548.94,768.123Z" style="fill:rgb(26,57,102);fill-rule:nonzero;"/>
            <path d="M853.118,784.299C853.436,737.446 865.522,684.358 876.614,623.922C891.94,547.601 912.584,491.168 942.808,418.244C959.066,392.045 968.789,386.482 982.278,398.9C995.766,411.317 1005.6,417.669 1013.66,435.622C1036.99,437.54 1067.43,434.227 1090.76,436.145C1100.01,427.012 1094.69,431.852 1102.84,419.034C1111,406.216 1123.58,391.35 1138.07,395.916C1151.49,400.144 1156.23,407.11 1161.97,419.956C1181.67,464.086 1201.52,521.057 1210.98,567.423C1224.62,634.292 1241.43,689.245 1244.93,766.219C1246.03,790.341 1248.03,808.677 1243.02,832.297C1238,855.918 1227.27,884.68 1204.73,893.326C1245.23,909.149 1228.37,962.198 1179.13,938.405C1158.01,928.198 1143.96,922.685 1137.67,914.542C1124.97,920.305 980.554,923.857 955.838,912.625C944.395,934.449 930.082,950.738 912.595,959.361C905.954,962.636 922.286,931.033 914.979,929.842C900.586,927.496 870.938,947.114 873.814,929.054C876.108,914.653 880.082,903.667 887.602,891.173C869.929,873.259 865.318,859.997 858.295,840.906C851.273,821.816 852.98,804.639 853.118,784.299Z" style="fill:white;fill-rule:nonzero;"/>
            <path d="M1207.5,892.186C1213.08,900.448 1220.09,908.101 1223.23,917.735C1224.8,922.565 1225.16,927.619 1222.11,931.943C1219.52,935.62 1215.29,937.838 1211.01,938.872C1205.92,940.1 1200.46,939.892 1195.3,939.254C1191.93,938.838 1187.68,937.834 1184.07,936.816C1175.38,934.361 1166.94,931.005 1158.78,927.165C1150.22,923.136 1141.75,918.61 1134.1,913.012C1132.84,912.092 1130.88,912.8 1130.15,914.047C1129.3,915.51 1129.92,917.072 1131.19,917.995C1138.31,923.21 1146.16,927.477 1154.1,931.306C1163.02,935.603 1172.25,939.404 1181.77,942.16C1191.22,944.899 1201.48,946.636 1211.26,944.716C1216.54,943.679 1221.71,941.156 1225.33,937.102C1229.12,932.845 1230.77,927.458 1230.05,921.795C1228.44,909.117 1219.35,899.433 1212.49,889.273C1210.42,886.212 1205.42,889.097 1207.5,892.186Z" style="fill:rgb(26,57,102);fill-rule:nonzero;"/>
            <path d="M1106.46,439.52C1092.09,436.344 1077.52,433.946 1062.83,432.904C1049.75,431.976 1036.63,432.189 1023.58,433.452C1016.03,434.183 1008.52,435.24 1001.04,436.513C999.504,436.775 998.643,438.668 999.026,440.062C999.473,441.69 1001.03,442.34 1002.58,442.077C1028.27,437.703 1054.23,436.828 1080.08,440.51C1088.42,441.698 1096.7,443.267 1104.93,445.085C1108.55,445.885 1110.09,440.322 1106.46,439.52Z" style="fill:rgb(26,57,102);fill-rule:nonzero;"/>
            <path d="M1192.43,902.523C1204.76,898.176 1216.83,891.226 1225.56,881.355C1232.61,873.39 1237.4,863.73 1240.81,853.72C1247.97,832.687 1249.59,809.876 1249.65,787.788C1249.76,746.331 1243.77,704.862 1236.15,664.201C1228.45,623.183 1218.59,582.573 1207.41,542.371C1199.66,514.483 1191.37,486.697 1181.94,459.324C1176.2,442.639 1170.05,425.615 1159.98,411.004C1153.22,401.19 1143.17,390.607 1130.02,393.531C1123.77,394.922 1118.48,399.121 1113.87,403.371C1108.9,407.957 1104.28,412.929 1100.03,418.194C1095.81,423.429 1091.95,428.931 1088.48,434.689C1086.55,437.877 1091.54,440.782 1093.46,437.602C1100.44,426.022 1109.05,415.339 1119.17,406.345C1123.57,402.439 1129,398.508 1135.17,398.789C1141.32,399.07 1146.43,403.422 1150.31,407.816C1159.08,417.72 1164.81,430.39 1169.64,442.564C1171.7,447.748 1173.63,452.979 1175.47,458.244C1184.27,483.45 1191.99,509.058 1199.27,534.737C1210.13,572.976 1219.78,611.585 1227.63,650.557C1235.67,690.508 1242.12,731.068 1243.6,771.85C1244.33,791.924 1243.95,812.307 1240.34,832.114C1238.31,843.253 1235.28,854.42 1230.04,864.51C1224.91,874.39 1217.65,882.355 1208.29,888.41C1202.84,891.929 1197.01,894.803 1190.9,896.958C1187.42,898.185 1188.92,903.763 1192.43,902.523Z" style="fill:rgb(26,57,102);fill-rule:nonzero;"/>
            <path d="M884.612,610.482C889.888,590.534 895.274,570.615 900.841,550.747C906.433,530.786 912.207,510.876 918.228,491.041C924.066,471.806 929.706,452.376 938.079,434.053C941.728,426.067 945.852,418.077 951.051,410.975C955.459,404.953 962.094,397.923 970.13,397.87C978.341,397.816 985.141,404.293 990.524,409.749C996.987,416.3 1002.77,423.488 1007.78,431.209C1009.03,433.136 1010.23,435.094 1011.38,437.078C1013.25,440.285 1018.24,437.384 1016.37,434.166C1011.53,425.872 1005.87,418.056 999.487,410.882C993.476,404.123 986.755,397.042 978.178,393.654C959.545,386.296 946.043,406.465 938.487,420.345C928.581,438.543 922.181,458.405 916.135,478.141C909.878,498.567 903.809,519.048 897.984,539.602C892.176,560.095 886.571,580.645 881.095,601.229C880.41,603.801 879.728,606.374 879.048,608.948C878.097,612.542 883.662,614.075 884.612,610.482Z" style="fill:rgb(26,57,102);fill-rule:nonzero;"/>
            <path d="M865.321,701.199C867.177,690.529 869.25,679.899 871.357,669.276C871.659,667.749 870.921,666.161 869.341,665.727C867.922,665.337 866.096,666.206 865.792,667.742C863.685,678.365 861.612,688.995 859.756,699.665C859.489,701.199 860.167,702.774 861.771,703.215C863.162,703.597 865.052,702.743 865.321,701.199Z" style="fill:rgb(26,57,102);fill-rule:nonzero;"/>
            <path d="M1036.78,924.216C1064.72,924.631 1092.68,923.832 1120.33,919.463C1128.46,918.179 1136.54,916.592 1144.55,914.719C1148.16,913.873 1146.63,908.308 1143.01,909.154C1115.8,915.516 1088.02,918.094 1060.12,918.49C1052.34,918.6 1044.56,918.561 1036.78,918.445C1033.06,918.39 1033.06,924.161 1036.78,924.216Z" style="fill:rgb(26,57,102);fill-rule:nonzero;"/>
            <path d="M886.154,613.402C867.446,611.691 848.738,609.979 830.03,608.268C825.449,607.849 820.698,607.45 816.365,608.992C806.121,612.638 802.492,624.993 800.281,635.639C827.561,652.162 856.581,665.81 886.706,676.285C893.648,654.765 894.899,631.437 886.154,613.402Z" style="fill:white;fill-rule:nonzero;"/>
            <path d="M811.648,642.159C810.115,638.208 805.398,636.291 801.169,636.572C796.94,636.853 793.04,638.825 789.19,640.596C785.339,642.368 781.202,644.006 776.988,643.557C770.391,642.854 764.984,636.318 765.529,629.707C766.075,623.096 772.48,617.534 779.102,617.921C772.956,617.441 766.624,615.69 762.188,611.409C757.753,607.128 755.832,599.855 759.026,594.583C761.951,589.756 768.316,587.865 773.882,588.798C779.449,589.732 784.347,592.967 788.764,596.48C784.705,592.838 784.074,586.127 787.038,581.55C790.003,576.973 796.035,574.784 801.359,575.961C806.684,577.138 811.099,581.398 812.918,586.539C814.571,591.211 814.241,596.411 815.94,601.067C817.64,605.722 822.897,609.871 827.32,607.635C821.059,617.816 816.467,629.022 811.648,642.159Z" style="fill:white;fill-rule:nonzero;"/>
            <path d="M869.341,665.727C868.887,665.568 870.28,666.164 869.601,665.834C869.318,665.696 869.031,665.568 868.748,665.433C867.841,664.999 866.939,664.556 866.037,664.112C863.152,662.694 860.275,661.261 857.397,659.828C849.151,655.723 840.909,651.608 832.65,647.525C825.087,643.787 817.524,640.04 809.879,636.472C807.636,635.424 805.384,634.346 803.068,633.468C802.452,633.234 801.832,633.021 801.16,633.03C799.07,633.057 797.383,634.76 795.753,635.848C793.973,637.037 792.108,638.129 790.15,639C783.576,641.922 773.69,642.132 769.821,634.834C768.347,632.053 768.152,628.318 770.098,625.704C772.398,622.613 776.636,621.491 780.141,620.46C783.696,619.414 782.183,613.844 778.607,614.895C774.911,615.982 771.189,617.217 768.12,619.617C764.925,622.114 763.075,625.765 762.927,629.82C762.628,638.02 769.022,644.599 776.759,646.215C785.333,648.007 793.64,644.53 800.49,639.553C800.806,639.323 801.357,639.077 801.604,638.789C801.919,638.422 801.355,638.795 801.21,638.8C801.076,638.804 800.254,638.54 800.691,638.743C800.929,638.854 801.21,638.911 801.458,639.003C801.816,639.138 803.032,639.67 802.037,639.229C802.533,639.448 803.033,639.659 803.528,639.88C810.744,643.096 817.821,646.639 824.908,650.126C833.714,654.459 842.497,658.839 851.281,663.216C856.414,665.772 861.503,668.493 866.737,670.839C867.09,670.997 867.442,671.164 867.807,671.291C869.278,671.805 870.964,670.706 871.357,669.276C871.794,667.685 870.818,666.243 869.341,665.727Z" style="fill:rgb(26,57,102);fill-rule:nonzero;"/>
            <path d="M883.102,607.856C881.655,606.962 879.432,607.027 877.825,606.848C874.737,606.503 871.641,606.235 868.546,605.967C859.791,605.209 851.028,604.531 842.271,603.791C838.033,603.434 833.796,603.066 829.563,602.658C827.759,602.484 825.955,602.302 824.153,602.104C823.444,602.025 822.734,601.945 822.026,601.859C821.675,601.817 821.324,601.774 820.973,601.729C820.808,601.708 820.643,601.685 820.477,601.665C819.937,601.599 821.178,601.767 820.616,601.683C819.643,601.538 818.665,601.414 817.704,601.202C817.449,601.145 817.169,601.027 816.912,600.998C816.382,600.938 817.617,601.356 817.294,601.165C817.091,601.045 818.62,602.141 818.24,602.283C818.373,602.234 818.154,599.621 818.14,599.359C818.087,598.338 818.001,597.319 817.88,596.303C817.63,594.192 817.277,592.092 816.68,590.049C815.612,586.392 813.87,582.98 811.373,580.095C806.081,573.982 797.386,571.323 790.008,575.253C786.644,577.045 783.951,580.235 783.089,583.982C781.986,588.776 783.512,593.542 785.206,597.994C785.76,599.45 787.151,600.45 788.756,600.009C790.15,599.626 791.328,597.924 790.771,596.46C789.495,593.105 787.834,589.173 788.654,585.516C789.245,582.88 791.216,580.889 793.68,579.866C799.304,577.53 805.268,580.928 808.407,585.653C810.424,588.69 811.505,592.22 812.038,595.805C812.288,597.486 812.384,599.191 812.427,600.889C812.467,602.493 812.468,604.413 813.694,605.628C814.906,606.831 817.045,606.957 818.636,607.185C825.711,608.203 832.859,608.758 839.978,609.367C848.505,610.098 857.037,610.764 865.565,611.483C869.235,611.793 872.907,612.102 876.57,612.484C877.201,612.549 877.832,612.617 878.462,612.691C878.738,612.724 879.014,612.76 879.291,612.792C879.987,612.873 878.469,612.663 879.289,612.792C879.639,612.847 879.987,612.913 880.337,612.967C880.883,613.051 880.908,613.283 880.189,612.839C883.358,614.796 886.259,609.806 883.102,607.856Z" style="fill:rgb(26,57,102);fill-rule:nonzero;"/>
            <path d="M777.018,615.582C769.903,614.811 762.696,610.022 761.79,602.447C761.371,598.94 762.519,595.192 765.87,593.59C768.897,592.143 772.755,592.242 775.952,592.993C780.043,593.955 783.627,596.106 786.424,599.235C788.903,602.01 792.973,597.917 790.504,595.154C784.09,587.977 772.654,584.318 763.567,588.331C758.637,590.507 756.044,595.526 755.954,600.774C755.867,605.835 758.094,610.842 761.607,614.434C765.701,618.62 771.289,620.732 777.018,621.353C778.569,621.521 779.903,619.906 779.903,618.467C779.903,616.768 778.574,615.751 777.018,615.582Z" style="fill:rgb(26,57,102);fill-rule:nonzero;"/>
            <path d="M755.14,597.055C756.473,597.613 757.806,598.171 759.139,598.728C759.522,598.849 759.906,598.866 760.289,598.78C760.673,598.763 761.031,598.648 761.362,598.438C761.698,598.256 761.968,598.008 762.172,597.694C762.427,597.416 762.599,597.089 762.688,596.713C762.856,595.974 762.82,595.145 762.397,594.49C762.247,594.295 762.096,594.1 761.946,593.906C761.586,593.548 761.162,593.301 760.673,593.164C759.34,592.606 758.007,592.048 756.674,591.491C756.29,591.371 755.907,591.353 755.523,591.439C755.139,591.457 754.782,591.571 754.45,591.782C754.114,591.963 753.844,592.211 753.641,592.525C753.386,592.803 753.214,593.131 753.124,593.506C752.956,594.245 752.992,595.074 753.415,595.729C753.566,595.924 753.716,596.119 753.866,596.313C754.226,596.671 754.651,596.918 755.14,597.055Z" style="fill:rgb(26,57,102);fill-rule:nonzero;"/>
            <path d="M791.555,570.815C791.721,572.25 791.888,573.685 792.054,575.121C792.039,575.518 792.122,575.889 792.303,576.233C792.419,576.59 792.618,576.9 792.899,577.161C793.4,577.662 794.221,578.038 794.94,578.006C795.686,577.973 796.46,577.728 796.98,577.161C797.13,576.966 797.281,576.772 797.431,576.577C797.692,576.127 797.823,575.642 797.825,575.121C797.658,573.685 797.492,572.25 797.325,570.815C797.34,570.418 797.258,570.047 797.077,569.703C796.961,569.345 796.762,569.036 796.48,568.774C795.98,568.274 795.159,567.897 794.44,567.929C793.694,567.963 792.92,568.208 792.4,568.774C792.249,568.969 792.099,569.164 791.949,569.359C791.688,569.808 791.556,570.294 791.555,570.815Z" style="fill:rgb(26,57,102);fill-rule:nonzero;"/>
            <path d="M761.271,636.032C762.661,635.638 764.051,635.244 765.441,634.85C766.143,634.652 766.797,634.155 767.166,633.524C767.377,633.193 767.491,632.836 767.508,632.452C767.594,632.068 767.577,631.685 767.457,631.301C767.231,630.603 766.798,629.929 766.131,629.576C765.446,629.215 764.668,629.07 763.907,629.286C762.517,629.68 761.127,630.073 759.737,630.467C759.035,630.666 758.381,631.162 758.012,631.793C757.801,632.125 757.687,632.482 757.67,632.866C757.584,633.25 757.601,633.633 757.721,634.017C757.947,634.715 758.38,635.388 759.047,635.741C759.732,636.103 760.51,636.247 761.271,636.032Z" style="fill:rgb(26,57,102);fill-rule:nonzero;"/>
            <path d="M869.423,697.862C815.811,719.585 783.13,781.105 790.253,838.511C797.376,895.916 840.846,945.886 895.11,965.923C921.485,975.663 950.973,978.883 977.822,970.539C1004.67,962.196 1028.27,941.145 1035.57,913.994C1042.79,887.14 1032.54,856.429 1010.64,839.296C988.357,821.868 958.113,819.172 932.598,806.957C891.092,787.089 864.572,739.682 869.423,697.862Z" style="fill:white;fill-rule:nonzero;"/>
            <path d="M885.319,818.325C890.254,823.133 895.969,826.898 902.372,829.443C908.213,831.766 914.482,832.867 920.737,833.254C933.28,834.031 945.75,831.826 958.18,830.516C964.108,829.891 970.087,829.436 976.05,829.741C981.515,830.021 986.808,831.218 991.844,833.271C1001.05,837.024 1009.65,842.419 1016.73,849.349C1018.48,851.068 1020.15,852.875 1021.73,854.762C1023.18,856.504 1024.26,857.941 1025.62,859.958C1026.95,861.928 1028.19,863.964 1029.32,866.056C1029.83,867.007 1030.32,867.969 1030.79,868.942C1031,869.383 1031.21,869.826 1031.41,870.272C1031.53,870.539 1031.66,870.806 1031.77,871.074C1031.81,871.165 1032.24,872.144 1032.06,871.73C1035.65,880.264 1037.39,888.86 1037.52,897.767C1037.76,915.886 1030.8,933.622 1018.18,946.784C1010.98,954.299 1002.44,960.013 992.827,964.258C986.588,967.014 979.912,968.61 973.126,969.755C965.081,971.114 956.919,971.748 948.763,971.817C920.243,972.058 891.538,965.58 866.755,951.259C845.717,939.102 827.796,921.767 814.972,901.126C801.898,880.082 794.233,855.835 793.064,831.074C792.137,811.451 793.445,792.171 800.139,773.68C808.451,750.718 825.175,731.651 844.376,716.597C850.65,711.677 857.248,707.169 863.995,702.924C867.13,700.951 864.237,695.955 861.082,697.941C837.202,712.969 814.635,732.01 801.182,757.258C791.413,775.592 787.537,795.965 787.133,816.59C786.904,828.323 787.541,840.029 789.662,851.587C791.979,864.222 795.976,876.506 801.394,888.148C812.057,911.06 828.503,931.051 848.685,946.218C858.905,953.899 870.069,960.192 881.863,965.112C895.175,970.664 909.177,974.08 923.457,975.98C940.619,978.264 958.097,978.184 975.175,975.232C979.119,974.55 983.156,973.831 986.987,972.656C989.856,971.777 992.663,970.586 995.41,969.386C1000.48,967.17 1005.35,964.49 1009.9,961.336C1026.32,949.952 1038.22,932.659 1041.94,912.924C1045.48,894.167 1041.81,874.36 1031.43,858.292C1025.88,849.696 1018.61,842.358 1010.18,836.568C1000.92,830.207 990.348,825.334 979.13,824.202C954.514,821.719 929.104,833.193 905.016,824.304C899.136,822.135 893.875,818.605 889.399,814.245C886.738,811.652 882.653,815.728 885.319,818.325Z" style="fill:rgb(26,57,102);fill-rule:nonzero;"/>
            <path d="M987.406,463.259C1006.98,410.298 1030.47,358.457 1057.7,308.175C1060.03,303.854 1066.34,304.202 1068.2,308.75C1089.5,360.866 1107.05,414.166 1120.71,468.225C1121.59,471.689 1119.14,475.107 1115.58,475.432C1075.57,479.078 1034.85,477.973 991.957,471.003C988.346,470.416 986.139,466.69 987.406,463.259Z" style="fill:rgb(242,107,96);fill-rule:nonzero;"/>
            <path d="M1270.94,464.938C1278.97,409.051 1291.08,353.438 1307.16,298.567C1308.55,293.852 1314.78,292.87 1317.56,296.927C1349.31,343.422 1377.64,391.86 1402.33,441.856C1403.91,445.059 1402.23,448.915 1398.82,449.977C1360.46,461.928 1320.41,469.381 1277.01,471.556C1273.36,471.739 1270.42,468.559 1270.94,464.938Z" style="fill:rgb(242,107,96);fill-rule:nonzero;"/>
            <path d="M1321.26,342.856C1312.98,356.537 1304.7,370.217 1296.42,383.898C1294.49,387.083 1299.48,389.987 1301.4,386.81C1309.68,373.13 1317.96,359.45 1326.24,345.769C1328.17,342.584 1323.18,339.68 1321.26,342.856Z" style="fill:rgb(26,57,102);fill-rule:nonzero;"/>
            <path d="M1296.07,455.458C1313.37,432.173 1330.2,408.544 1346.54,384.581C1351.17,377.786 1355.77,370.964 1360.32,364.116C1361.32,362.616 1360.62,360.424 1359.13,359.552C1357.49,358.597 1355.57,359.245 1354.56,360.749C1338.5,384.885 1321.96,408.699 1304.94,432.168C1300.1,438.837 1295.23,445.477 1290.31,452.091C1289.24,453.538 1290.08,455.815 1291.51,456.654C1293.21,457.648 1295,456.908 1296.07,455.458Z" style="fill:rgb(26,57,102);fill-rule:nonzero;"/>
            <path d="M1346.44,450.99C1355.44,439.11 1364.44,427.229 1373.44,415.349C1374.38,414.106 1373.63,412.122 1372.4,411.401C1370.92,410.535 1369.4,411.19 1368.45,412.436C1359.45,424.317 1350.45,436.197 1341.45,448.077C1340.51,449.32 1341.26,451.305 1342.49,452.025C1343.97,452.891 1345.49,452.236 1346.44,450.99Z" style="fill:rgb(26,57,102);fill-rule:nonzero;"/>
            <path d="M1009.04,440.417C1020.72,449.064 1032.07,458.244 1042.98,467.851C1044.14,468.88 1045.91,469.002 1047.06,467.851C1048.11,466.801 1048.23,464.804 1047.06,463.77C1035.78,453.839 1024.03,444.373 1011.95,435.434C1010.7,434.506 1008.73,435.227 1008,436.469C1007.14,437.937 1007.78,439.487 1009.04,440.417Z" style="fill:rgb(26,57,102);fill-rule:nonzero;"/>
            <path d="M1015.22,394.614C1026.86,404.178 1038.81,413.371 1050.73,422.58C1063.92,432.769 1077.15,442.899 1090.28,453.173C1096.45,458.009 1102.61,462.871 1108.67,467.851C1109.87,468.839 1111.57,469.028 1112.75,467.851C1113.77,466.831 1113.96,464.764 1112.75,463.77C1101.11,454.206 1089.17,445.012 1077.25,435.803C1064.06,425.614 1050.82,415.484 1037.7,405.21C1031.52,400.375 1025.36,395.513 1019.3,390.533C1018.1,389.545 1016.4,389.356 1015.22,390.533C1014.2,391.553 1014.01,393.619 1015.22,394.614Z" style="fill:rgb(26,57,102);fill-rule:nonzero;"/>
            <path d="M1042.98,362.374C1056.52,375.421 1070.5,388.075 1084.82,400.264C1086.01,401.274 1087.74,401.428 1088.9,400.264C1089.94,399.229 1090.09,397.198 1088.9,396.184C1074.58,383.994 1060.6,371.34 1047.06,358.293C1044.38,355.716 1040.29,359.792 1042.98,362.374Z" style="fill:rgb(26,57,102);fill-rule:nonzero;"/>
            <path d="M889.571,567.874C966.648,601.143 1049.77,618.761 1133.5,622.897C1218.7,627.105 1304.23,617.202 1387.08,597.339C1434.19,586.043 1480.5,571.508 1525.85,554.49C1524.92,552.882 1523.98,551.274 1523.04,549.667C1492.64,581.213 1456.61,606.746 1417.88,627.055C1376.59,648.711 1332.43,664.318 1287.42,676.26C1239.8,688.898 1191.2,697.588 1142.57,705.305C1092.05,713.322 1041.26,719.808 990.251,723.826C939.529,727.821 888.584,729.369 837.726,727.514C831.483,727.286 825.241,727.003 819.002,726.675C815.291,726.48 815.301,732.252 819.002,732.446C870.29,735.141 921.709,734.32 972.94,730.863C1024.04,727.416 1074.94,721.378 1125.57,713.74C1175.12,706.264 1224.68,697.819 1273.36,685.815C1319.24,674.502 1364.41,659.712 1406.96,639.024C1446.34,619.882 1483.48,595.636 1515.32,565.466C1519.35,561.652 1523.28,557.74 1527.12,553.747C1528.99,551.81 1527.15,547.863 1524.32,548.925C1444.35,578.931 1361.2,601.306 1276.31,611.66C1193.23,621.795 1108.51,620.348 1026.29,604.102C980.422,595.04 935.422,581.425 892.483,562.891C889.109,561.435 886.167,566.405 889.571,567.874Z" style="fill:rgb(26,57,102);fill-rule:nonzero;"/>
            <path d="M894.372,572.193C918.653,602.841 946.293,630.682 976.021,656.046C1005.86,681.502 1037.7,704.533 1070.52,725.971C1103.58,747.56 1137.65,767.551 1172.02,786.948C1209.03,807.831 1246.26,828.4 1284.25,847.453C1322.65,866.706 1361.93,884.339 1402.45,898.635C1407.51,900.419 1412.58,902.146 1417.67,903.825C1421.21,904.99 1422.72,899.419 1419.21,898.26C1378.4,884.808 1338.87,867.82 1300.28,848.964C1261.83,830.172 1224.27,809.598 1186.93,788.704C1152.75,769.581 1118.82,749.99 1085.78,728.946C1052.84,707.969 1020.76,685.547 990.581,660.741C960.64,636.131 932.555,609.178 907.666,579.436C904.543,575.704 901.474,571.927 898.452,568.113C896.147,565.203 892.088,569.311 894.372,572.193Z" style="fill:rgb(26,57,102);fill-rule:nonzero;"/>
            <path d="M1041.63,593.339C1030.66,548.611 977.083,570.073 988.173,607.743C999.751,639.015 1051.7,627.517 1041.63,593.339Z" style="fill:rgb(26,57,102);fill-rule:nonzero;"/>
            <path d="M1195.49,613.884C1184.52,569.157 1130.94,590.618 1142.03,628.288C1153.61,659.561 1205.55,648.063 1195.49,613.884Z" style="fill:rgb(26,57,102);fill-rule:nonzero;"/>
            <path d="M1113.49,711.637C1102.51,666.909 1048.94,688.37 1060.03,726.041C1071.6,757.313 1123.55,745.815 1113.49,711.637Z" style="fill:rgb(26,57,102);fill-rule:nonzero;"/>
            <path d="M948.662,720.68C937.685,675.953 884.11,697.414 895.2,735.084C906.778,766.357 958.723,754.859 948.662,720.68Z" style="fill:rgb(26,57,102);fill-rule:nonzero;"/>
            <path d="M1358.33,600.423C1347.35,555.696 1293.78,577.157 1304.87,614.827C1316.45,646.1 1368.39,634.602 1358.33,600.423Z" style="fill:rgb(26,57,102);fill-rule:nonzero;"/>
            <path d="M1303.72,672.492C1292.74,627.764 1239.16,649.225 1250.25,686.896C1261.83,718.169 1313.78,706.67 1303.72,672.492Z" style="fill:rgb(26,57,102);fill-rule:nonzero;"/>
            <path d="M1229.75,792.888C1218.78,748.16 1165.2,769.621 1176.29,807.291C1187.87,838.564 1239.81,827.066 1229.75,792.888Z" style="fill:rgb(26,57,102);fill-rule:nonzero;"/>
            <path d="M1360.87,861.962C1349.89,817.234 1296.32,838.696 1307.41,876.366C1318.99,907.639 1370.93,896.141 1360.87,861.962Z" style="fill:rgb(26,57,102);fill-rule:nonzero;"/>
            <path d="M1473.11,622.234C1462.14,577.507 1408.56,598.968 1419.65,636.638C1431.23,667.911 1483.17,656.413 1473.11,622.234Z" style="fill:rgb(26,57,102);fill-rule:nonzero;"/>
            <path d="M935.354,581.138C930.58,587.509 932.553,597.765 939.257,602.058C945.961,606.352 955.958,603.982 960.174,597.229C964.39,590.477 962.247,580.597 955.716,576.046C949.184,571.495 940.886,573.754 935.354,581.138Z" style="fill:rgb(242,107,96);fill-rule:nonzero;"/>
            <path d="M950.166,635.92C945.393,642.29 947.366,652.547 954.07,656.84C960.773,661.133 970.771,658.763 974.987,652.011C979.202,645.258 977.06,635.378 970.529,630.828C963.997,626.277 955.699,628.536 950.166,635.92Z" style="fill:rgb(242,107,96);fill-rule:nonzero;"/>
            <path d="M1074.47,609.859C1069.69,616.229 1071.67,626.485 1078.37,630.779C1085.07,635.072 1095.07,632.702 1099.29,625.949C1103.5,619.197 1101.36,609.317 1094.83,604.766C1088.3,600.216 1080,602.475 1074.47,609.859Z" style="fill:rgb(242,107,96);fill-rule:nonzero;"/>
            <path d="M1001.48,674.784C996.706,681.155 998.68,691.411 1005.38,695.704C1012.09,699.998 1022.08,697.628 1026.3,690.875C1030.52,684.123 1028.37,674.243 1021.84,669.692C1015.31,665.141 1007.01,667.4 1001.48,674.784Z" style="fill:rgb(242,107,96);fill-rule:nonzero;"/>
            <path d="M989.413,718.321C984.64,724.691 986.613,734.947 993.317,739.241C1000.02,743.534 1010.02,741.164 1014.23,734.412C1018.45,727.659 1016.31,717.779 1009.78,713.229C1003.24,708.678 994.946,710.937 989.413,718.321Z" style="fill:rgb(242,107,96);fill-rule:nonzero;"/>
            <path d="M834.116,719.987C829.342,726.358 831.316,736.614 838.019,740.907C844.723,745.2 854.72,742.83 858.936,736.078C863.152,729.325 861.01,719.446 854.478,714.895C847.947,710.344 839.648,712.603 834.116,719.987Z" style="fill:rgb(242,107,96);fill-rule:nonzero;"/>
            <path d="M1238.99,609.859C1234.21,616.229 1236.19,626.485 1242.89,630.779C1249.59,635.072 1259.59,632.702 1263.81,625.949C1268.02,619.197 1265.88,609.317 1259.35,604.766C1252.82,600.216 1244.52,602.475 1238.99,609.859Z" style="fill:rgb(242,107,96);fill-rule:nonzero;"/>
            <path d="M1172.7,692.613C1167.93,698.984 1169.9,709.24 1176.61,713.534C1183.31,717.827 1193.31,715.457 1197.52,708.704C1201.74,701.952 1199.6,692.072 1193.07,687.521C1186.53,682.971 1178.24,685.23 1172.7,692.613Z" style="fill:rgb(242,107,96);fill-rule:nonzero;"/>
            <path d="M1253.8,824.425C1249.03,830.796 1251,841.052 1257.7,845.345C1264.41,849.639 1274.4,847.269 1278.62,840.516C1282.83,833.764 1280.69,823.884 1274.16,819.333C1267.63,814.782 1259.33,817.041 1253.8,824.425Z" style="fill:rgb(242,107,96);fill-rule:nonzero;"/>
            <path d="M1394.21,888.998C1389.44,895.369 1391.41,905.625 1398.11,909.918C1404.82,914.211 1414.81,911.841 1419.03,905.089C1423.25,898.336 1421.1,888.457 1414.57,883.906C1408.04,879.355 1399.74,881.614 1394.21,888.998Z" style="fill:rgb(242,107,96);fill-rule:nonzero;"/>
            <path d="M1128.35,760.957C1123.57,767.328 1125.55,777.584 1132.25,781.877C1138.95,786.171 1148.95,783.801 1153.17,777.048C1157.38,770.296 1155.24,760.416 1148.71,755.865C1142.18,751.314 1133.88,753.573 1128.35,760.957Z" style="fill:rgb(242,107,96);fill-rule:nonzero;"/>
            <path d="M1390.74,578.435C1385.97,584.806 1387.94,595.062 1394.65,599.355C1401.35,603.649 1411.35,601.279 1415.56,594.526C1419.78,587.774 1417.64,577.894 1411.11,573.343C1404.57,568.792 1396.28,571.052 1390.74,578.435Z" style="fill:rgb(242,107,96);fill-rule:nonzero;"/>
            <path d="M1359.86,648.12C1355.09,654.491 1357.06,664.747 1363.77,669.04C1370.47,673.333 1380.47,670.963 1384.68,664.211C1388.9,657.458 1386.76,647.579 1380.22,643.028C1373.69,638.477 1365.39,640.736 1359.86,648.12Z" style="fill:rgb(242,107,96);fill-rule:nonzero;"/>
            <path d="M1460.18,560.418C1455.41,566.789 1457.38,577.045 1464.09,581.338C1470.79,585.631 1480.79,583.261 1485,576.509C1489.22,569.756 1487.08,559.876 1480.55,555.326C1474.01,550.775 1465.72,553.034 1460.18,560.418Z" style="fill:rgb(242,107,96);fill-rule:nonzero;"/>
            <path d="M1142.19,538.282C1162.26,538.282 1178.54,545 1178.54,553.287C1178.54,561.573 1162.26,568.291 1142.19,568.291C1122.11,568.291 1105.83,561.573 1105.83,553.287C1105.83,545 1122.11,538.282 1142.19,538.282Z" style="fill:rgb(251,210,207);fill-rule:nonzero;"/>
            <path d="M976.51,538.282C996.589,538.282 1012.87,545 1012.87,553.287C1012.87,561.573 996.589,568.291 976.51,568.291C956.431,568.291 940.154,561.573 940.154,553.287C940.154,545 956.431,538.282 976.51,538.282Z" style="fill:rgb(251,210,207);fill-rule:nonzero;"/>
            <path d="M1157.72,528.427C1176.91,521.438 1197,516.941 1217.36,515.262C1223.14,514.784 1228.94,514.531 1234.75,514.485C1238.46,514.455 1238.47,508.684 1234.75,508.714C1213.91,508.879 1193.07,511.804 1173.01,517.435C1167.33,519.029 1161.72,520.844 1156.18,522.862C1154.72,523.395 1153.73,524.822 1154.17,526.412C1154.56,527.823 1156.25,528.963 1157.72,528.427Z" style="fill:rgb(26,57,102);fill-rule:nonzero;"/>
            <path d="M1162.14,552.865C1182.38,550.444 1202.97,550.619 1223.13,553.613C1228.9,554.47 1234.64,555.551 1240.33,556.837C1243.95,557.654 1245.49,552.092 1241.86,551.272C1221.56,546.685 1200.66,544.751 1179.86,545.645C1173.94,545.899 1168.03,546.39 1162.14,547.094C1160.6,547.279 1159.26,548.287 1159.26,549.979C1159.26,551.395 1160.59,553.051 1162.14,552.865Z" style="fill:rgb(26,57,102);fill-rule:nonzero;"/>
            <path d="M1167.29,540.292C1185.8,535.105 1205.38,533.792 1224.41,536.653C1225.95,536.885 1227.51,536.267 1227.96,534.638C1228.33,533.275 1227.49,531.322 1225.94,531.089C1205.86,528.068 1185.33,529.244 1165.75,534.727C1162.18,535.728 1163.7,541.297 1167.29,540.292Z" style="fill:rgb(26,57,102);fill-rule:nonzero;"/>
            <path d="M959.592,518.815C939.685,512.787 918.963,509.411 898.171,508.81C892.237,508.639 886.299,508.703 880.37,508.984C876.672,509.159 876.651,514.931 880.37,514.755C900.742,513.79 921.194,515.492 941.105,519.923C946.811,521.192 952.464,522.686 958.058,524.379C961.62,525.458 963.143,519.89 959.592,518.815Z" style="fill:rgb(26,57,102);fill-rule:nonzero;"/>
            <path d="M954.982,543.296C934.165,541.965 913.188,543.441 892.752,547.628C886.987,548.809 881.27,550.216 875.609,551.828C872.044,552.844 873.559,558.413 877.144,557.393C896.815,551.79 917.159,548.808 937.614,548.594C943.407,548.534 949.2,548.697 954.982,549.067C956.539,549.166 957.867,547.67 957.867,546.182C957.867,544.537 956.543,543.396 954.982,543.296Z" style="fill:rgb(26,57,102);fill-rule:nonzero;"/>
            <path d="M950.69,531.191C930.856,526.799 910.279,526.672 890.389,530.796C888.862,531.112 887.98,532.912 888.374,534.345C888.809,535.93 890.392,536.678 891.923,536.36C910.764,532.454 930.371,532.596 949.156,536.755C952.775,537.557 954.321,531.994 950.69,531.191Z" style="fill:rgb(26,57,102);fill-rule:nonzero;"/>
            <path d="M1056.23,537.054C1055.99,536.864 1055.76,536.66 1055.53,536.458C1053.51,534.661 1046.2,528.951 1051.27,526.467C1054.38,524.946 1058.73,525.491 1062.03,525.909C1062.93,526.022 1063.82,526.151 1064.7,526.35C1068.48,527.205 1068.02,530.005 1065.96,532.51C1064.21,534.644 1061.03,538.605 1057.83,537.895C1057.23,537.762 1056.71,537.437 1056.23,537.054Z" style="fill:rgb(26,57,102);fill-rule:nonzero;"/>
            <path d="M1055.85,529.757L1055.85,551.104C1055.85,554.817 1061.62,554.823 1061.62,551.104L1061.62,529.757C1061.62,526.044 1055.85,526.038 1055.85,529.757Z" style="fill:rgb(26,57,102);fill-rule:nonzero;"/>
            <path d="M987.959,531.633C987.199,524.763 991.913,518.095 998.54,516.207C1005.64,514.186 1013.15,517.52 1017.7,523.018C1018.69,524.219 1020.75,524.047 1021.78,523.018C1022.97,521.829 1022.77,520.142 1021.78,518.938C1015.89,511.823 1005.62,507.947 996.61,510.761C987.935,513.469 981.164,522.374 982.188,531.633C982.36,533.182 983.392,534.518 985.074,534.518C986.501,534.518 988.132,533.192 987.959,531.633Z" style="fill:rgb(26,57,102);fill-rule:nonzero;"/>
            <path d="M1134.86,531.633C1135.88,522.374 1129.11,513.47 1120.44,510.761C1111.43,507.947 1101.16,511.823 1095.27,518.938C1094.28,520.137 1094.09,521.843 1095.27,523.018C1096.29,524.041 1098.35,524.225 1099.35,523.018C1103.9,517.52 1111.41,514.186 1118.51,516.207C1125.13,518.095 1129.85,524.764 1129.09,531.633C1128.92,533.184 1130.54,534.518 1131.97,534.518C1133.68,534.518 1134.69,533.188 1134.86,531.633Z" style="fill:rgb(26,57,102);fill-rule:nonzero;"/>
        </g>
    </g>
</svg>
