<?xml version="1.0" encoding="UTF-8" standalone="no"?>
<!DOCTYPE svg PUBLIC "-//W3C//DTD SVG 1.1//EN" "http://www.w3.org/Graphics/SVG/1.1/DTD/svg11.dtd">
<svg width="100%" height="100%" viewBox="0 0 2541 3330" version="1.1" xmlns="http://www.w3.org/2000/svg" xmlns:xlink="http://www.w3.org/1999/xlink" xml:space="preserve" xmlns:serif="http://www.serif.com/" style="fill-rule:evenodd;clip-rule:evenodd;stroke-linejoin:round;stroke-miterlimit:2;">
    <g transform="matrix(1,0,0,1,-10366.2,-5144.42)">
        <g transform="matrix(4.16667,0,0,4.16667,0,0)">
            <path d="M3053.71,1720.03C3037.69,1702.98 3018.35,1689.61 2997.42,1681.03C2992.29,1656.13 2986.27,1630.18 2979.46,1603.7C2985.5,1595.27 2982.35,1582.87 2972.88,1578.75C2971.2,1572.56 2969.47,1566.29 2967.7,1560C3000.88,1571.61 3012.18,1530.77 2978.06,1527.44C2979.75,1522.45 2978.68,1516.33 2975.56,1512.31C2994.45,1508.78 2991.9,1478.43 2972.23,1478.94C2962.83,1479.33 2953.39,1480.32 2944,1481.68C2929.92,1436.95 2898.07,1334.89 2837.92,1380.02C2837.41,1378.5 2816.7,1320.88 2809.54,1303.53C2830.63,1281.57 2821.81,1240.24 2790.38,1235.23C2756.38,1229.51 2730.81,1268.06 2748.46,1298.46C2734.49,1327.21 2721.59,1356.7 2709.98,1386.47C2641.17,1323.05 2608.45,1445.91 2591.94,1496.47C2580.04,1496.08 2568.41,1496.43 2556.45,1497.52C2535.75,1499.18 2536.19,1529.79 2556.47,1531.22C2554.06,1535.64 2553.98,1541.82 2556.3,1546.45C2524.72,1552.45 2539.49,1593.16 2568.03,1578.19C2561.89,1600.78 2556.31,1622.93 2551.35,1644.35C2544.1,1648.9 2541.4,1659.92 2546.22,1667.22C2537.48,1707.57 2531.36,1742.95 2527.72,1774.6C2509.13,1776.51 2501.61,1796.11 2521.17,1810.79C2483.92,1820.84 2479.57,1864.24 2499.99,1895.13C2508.99,1909.79 2520.6,1921.85 2530.23,1935.4C2551.01,1963.52 2560.22,1999.92 2590.67,2021.45C2615.5,2040.09 2656.25,2038.15 2672.16,2010.58C2735.84,2027.81 2813.07,2027.43 2877.65,2009.5C2891.21,2034.48 2925.21,2039.76 2949.71,2027.26C2966.53,2020.03 2983.59,1999.88 2994.38,1979.35C3099.27,1942.29 3133.53,1799.03 3053.71,1720.03Z" style="fill:white;fill-rule:nonzero;"/>
            <path d="M2898.33,1989.55C2907.45,1987.09 2916.45,1983.68 2925.42,1980.68C2930.29,1979.05 2935.03,1977.15 2939.83,1975.35C2940.17,1975.22 2940.45,1975.12 2940.68,1975.03C2944.3,1973.49 2948.07,1971.79 2951.8,1970.41C2943.24,1973.57 2948.76,1971.51 2950.84,1970.51C2953.66,1969.15 2956.58,1967.89 2959.57,1966.91C2980.25,1946.18 2985.75,1930.71 2994.1,1908.49C3002.47,1886.2 3000.61,1866.09 3000.61,1842.28C3000.61,1787.45 2986.89,1725.22 2974.38,1654.4C2957.05,1564.96 2933.34,1498.75 2898.55,1413.16C2879.73,1382.37 2868.39,1375.78 2852.51,1390.21C2836.62,1404.63 2818.55,1409.13 2815.49,1432.94C2788.17,1434.99 2752.57,1430.88 2725.26,1432.94C2714.49,1422.17 2720.69,1427.88 2711.25,1412.81C2701.8,1397.75 2687.2,1380.25 2670.2,1385.48C2654.47,1390.32 2648.86,1398.43 2642.04,1413.42C2618.63,1464.91 2594.94,1531.43 2583.51,1585.62C2567.02,1663.77 2546.91,1727.95 2542.2,1818.01C2540.72,1846.23 2538.23,1867.67 2543.91,1895.36C2549.6,1923.04 2561.92,1956.79 2588.24,1967.09C2587.82,1967.66 2597.07,1973.4 2601.89,1976.01C2602.14,1976.15 2607.43,1978.67 2608.64,1979.46C2609.5,1980.02 2744.35,2005.47 2745.8,2005.86C2747.79,2005.86 2752.01,2006.11 2752.57,2006.14C2754.33,2006.38 2755.81,2006.59 2757.01,2006.75C2757.14,2006.74 2757.27,2006.72 2757.38,2006.71C2757.09,2006.66 2756.8,2006.62 2756.48,2006.57C2758.98,2006.42 2759.28,2006.47 2757.38,2006.71C2757.47,2006.72 2757.56,2006.74 2757.64,2006.75C2762.2,2006.14 2769.93,2004.87 2769.22,2004.87C2769.13,2004.88 2769.05,2004.88 2768.96,2004.89C2769.1,2004.87 2769.17,2004.87 2769.22,2004.87C2787.88,2016.96 2892.68,1991.07 2898.33,1989.55Z" style="fill:white;fill-rule:nonzero;"/>
            <path d="M2938.17,1977.96C2952.56,1972.77 2966.63,1964.55 2976.78,1952.93C2984.96,1943.55 2990.5,1932.22 2994.41,1920.47C3002.63,1895.8 3004.34,1869.09 3004.24,1843.24C3004.04,1794.72 2996.71,1746.23 2987.46,1698.71C2978.13,1650.76 2966.27,1603.31 2952.87,1556.35C2943.57,1523.78 2933.65,1491.32 2922.4,1459.36C2915.54,1439.88 2908.22,1420 2896.32,1402.98C2888.33,1391.56 2876.49,1379.22 2861.13,1382.75C2853.81,1384.42 2847.66,1389.37 2842.3,1394.38C2836.52,1399.79 2831.14,1405.64 2826.21,1411.84C2821.32,1418 2816.84,1424.46 2812.82,1431.23C2810.6,1434.98 2816.43,1438.38 2818.65,1434.64C2826.73,1421.03 2836.72,1408.46 2848.49,1397.85C2853.61,1393.24 2859.92,1388.6 2867.15,1388.87C2874.35,1389.13 2880.36,1394.18 2884.95,1399.29C2895.28,1410.81 2902.1,1425.59 2907.86,1439.8C2910.31,1445.85 2912.61,1451.96 2914.8,1458.11C2925.31,1487.53 2934.54,1517.44 2943.27,1547.44C2956.27,1592.11 2967.88,1637.21 2977.37,1682.76C2987.1,1729.45 2994.97,1776.87 2997.03,1824.59C2998.05,1848.07 2997.77,1871.94 2993.7,1895.14C2991.42,1908.19 2987.97,1921.3 2981.92,1933.14C2975.99,1944.75 2967.57,1954.14 2956.65,1961.3C2950.31,1965.46 2943.51,1968.87 2936.37,1971.44C2932.31,1972.91 2934.06,1979.43 2938.17,1977.96Z" style="fill:rgb(26,57,102);fill-rule:nonzero;"/>
            <path d="M2757.39,1968.45C2759.29,1969.59 2761.14,1970.81 2762.91,1972.13C2763.13,1972.3 2763.35,1972.46 2763.57,1972.63C2764.06,1973 2762.98,1972.15 2763.81,1972.82C2764.24,1973.16 2764.67,1973.51 2765.1,1973.86C2765.95,1974.57 2766.78,1975.3 2767.59,1976.05C2769.18,1977.52 2770.69,1979.06 2772.13,1980.67C2772.86,1981.5 2773.57,1982.35 2774.27,1983.21C2774.44,1983.43 2774.61,1983.64 2774.78,1983.86C2774.5,1983.5 2774.86,1983.96 2774.96,1984.1C2775.33,1984.59 2775.69,1985.08 2776.04,1985.57C2777.06,1987.01 2779.03,1987.83 2780.66,1986.78C2782.08,1985.87 2782.97,1983.7 2781.87,1982.16C2776.24,1974.27 2769.12,1967.6 2760.8,1962.62C2759.28,1961.71 2757.03,1962.23 2756.18,1963.83C2755.32,1965.46 2755.77,1967.48 2757.39,1968.45Z" style="fill:rgb(26,57,102);fill-rule:nonzero;"/>
            <path d="M2765.53,1985.67C2769.56,1979.49 2773.59,1973.32 2777.63,1967.14C2778.59,1965.66 2777.97,1963.34 2776.42,1962.52C2774.73,1961.63 2772.83,1962.15 2771.79,1963.73C2767.76,1969.91 2763.73,1976.08 2759.7,1982.26C2758.73,1983.74 2759.35,1986.06 2760.91,1986.88C2762.59,1987.77 2764.49,1987.25 2765.53,1985.67Z" style="fill:rgb(26,57,102);fill-rule:nonzero;"/>
            <path d="M2954.82,1858.78C2929.69,1865.96 2901.09,1859.5 2881.48,1842.21C2851.12,1815.44 2846.76,1765.37 2869.03,1731.57C2891.29,1697.76 2935.91,1681.8 2975.57,1689.93C3015.23,1698.06 3048.72,1728.06 3065.15,1765.06C3081.58,1802.06 3081.87,1845.09 3070.19,1883.85C3063.88,1904.77 3051.63,1921.55 3035.67,1936.47C3019.71,1951.38 2999.38,1963.76 2977.93,1959.63C2956.48,1955.5 2937.67,1936.62 2937.15,1914.78C2936.9,1903.91 2940.84,1893.43 2942.61,1882.7C2944.38,1871.97 2943.4,1859.62 2954.82,1858.78Z" style="fill:white;fill-rule:nonzero;"/>
            <path d="M2917.56,1633.73C2903.76,1640.92 2891.87,1651.36 2882.64,1663.86C2873.25,1676.55 2866.45,1691.83 2864.47,1707.55C2863.39,1716.16 2864.15,1725.06 2867.97,1732.95C2871.23,1739.71 2877.2,1745.06 2884.12,1747.88C2891.13,1750.73 2899.17,1750.24 2905.57,1746.08C2912.43,1741.62 2916.65,1734.44 2919.64,1727.02C2923.29,1717.96 2925.46,1708.48 2931.24,1700.42C2936.23,1693.46 2943.15,1688.04 2950.93,1684.53C2952.59,1683.78 2952.99,1681.37 2952.14,1679.91C2951.14,1678.2 2949.19,1677.94 2947.52,1678.7C2940.73,1681.77 2934.55,1686.29 2929.56,1691.83C2924.12,1697.86 2920.44,1704.82 2917.68,1712.42C2913.38,1724.29 2908.34,1744.05 2892,1742.92C2885.95,1742.51 2880.21,1738.71 2876.54,1734.02C2871.88,1728.07 2870.53,1720.17 2870.79,1712.78C2871.32,1698.16 2877.52,1683.55 2885.51,1671.48C2894.41,1658.06 2906.69,1647 2920.97,1639.57C2924.83,1637.56 2921.42,1631.73 2917.56,1633.73Z" style="fill:rgb(26,57,102);fill-rule:nonzero;"/>
            <path d="M2877.86,1713.71C2874.51,1722.45 2873.76,1731.92 2875.35,1741.12C2875.66,1742.92 2877.87,1743.92 2879.5,1743.48C2881.4,1742.95 2882.17,1741.12 2881.86,1739.32C2880.48,1731.31 2881.47,1723.07 2884.37,1715.51C2885.03,1713.81 2883.65,1711.8 2882.01,1711.35C2880.11,1710.83 2878.51,1712 2877.86,1713.71Z" style="fill:rgb(26,57,102);fill-rule:nonzero;"/>
            <path d="M2895.69,1719.01C2891.8,1727.74 2890.56,1737.12 2892.05,1746.56C2892.33,1748.37 2894.59,1749.37 2896.2,1748.92C2898.13,1748.39 2898.85,1746.58 2898.56,1744.77C2897.39,1737.32 2898.44,1729.34 2901.52,1722.42C2902.26,1720.75 2902.01,1718.79 2900.31,1717.8C2898.87,1716.95 2896.44,1717.33 2895.69,1719.01Z" style="fill:rgb(26,57,102);fill-rule:nonzero;"/>
            <path d="M2623.56,1642.9C2648.93,1656.1 2668.69,1681.52 2673.18,1710.04C2674.36,1717.57 2674.1,1725.9 2670.73,1732.87C2668.01,1738.5 2663.06,1743.26 2657.08,1745.27C2650.92,1747.34 2644.67,1746.04 2639.88,1741.62C2634.27,1736.45 2631.49,1729.22 2629.07,1722.17C2627.44,1717.42 2625.87,1712.64 2623.71,1708.1C2621.87,1704.24 2619.53,1700.68 2616.85,1697.36C2611.57,1690.81 2604.68,1685.49 2597.02,1682.03C2595.35,1681.28 2593.38,1681.55 2592.4,1683.24C2591.55,1684.69 2591.94,1687.11 2593.61,1687.86C2600.75,1691.09 2606.94,1695.86 2611.91,1701.93C2617.21,1708.41 2619.88,1716.17 2622.56,1723.97C2625.25,1731.81 2628.38,1739.73 2634.37,1745.69C2640.08,1751.38 2647.74,1754.06 2655.72,1752.6C2663,1751.27 2669.45,1746.61 2673.82,1740.76C2678.85,1734.02 2680.68,1725.26 2680.52,1716.99C2680.22,1701.08 2673.77,1685.01 2665.13,1671.83C2655.59,1657.27 2642.43,1645.11 2626.97,1637.06C2623.12,1635.06 2619.7,1640.89 2623.56,1642.9Z" style="fill:rgb(26,57,102);fill-rule:nonzero;"/>
            <path d="M2660.16,1718.84C2663.06,1726.4 2664.05,1734.64 2662.67,1742.65C2662.36,1744.45 2663.15,1746.29 2665.03,1746.81C2666.66,1747.25 2668.87,1746.25 2669.19,1744.45C2670.77,1735.25 2670.03,1725.78 2666.67,1717.04C2666.02,1715.34 2664.4,1714.17 2662.52,1714.68C2660.89,1715.13 2659.5,1717.13 2660.16,1718.84Z" style="fill:rgb(26,57,102);fill-rule:nonzero;"/>
            <path d="M2643.01,1725.75C2646.09,1732.67 2647.14,1740.64 2645.97,1748.1C2645.69,1749.9 2646.43,1751.73 2648.33,1752.25C2649.93,1752.69 2652.2,1751.7 2652.48,1749.89C2653.97,1740.45 2652.73,1731.07 2648.84,1722.34C2648.1,1720.67 2645.67,1720.28 2644.22,1721.13C2642.51,1722.13 2642.27,1724.07 2643.01,1725.75Z" style="fill:rgb(26,57,102);fill-rule:nonzero;"/>
            <path d="M2709.12,1443.28C2725.48,1439.78 2742.02,1437.16 2758.73,1436.1C2773.67,1435.16 2788.66,1435.49 2803.55,1436.99C2812.06,1437.85 2820.51,1439.1 2828.93,1440.59C2830.72,1440.9 2832.57,1440.1 2833.08,1438.23C2833.53,1436.6 2832.53,1434.39 2830.73,1434.07C2815.39,1431.36 2799.9,1429.45 2784.32,1428.94C2768.41,1428.43 2752.51,1429.44 2736.74,1431.57C2726.87,1432.91 2717.07,1434.68 2707.33,1436.77C2703.08,1437.68 2704.88,1444.19 2709.12,1443.28Z" style="fill:rgb(26,57,102);fill-rule:nonzero;"/>
            <path d="M2604.87,1971.44C2591.98,1966.8 2579.5,1959.41 2570.21,1949.23C2563.07,1941.43 2558.06,1931.79 2554.47,1921.91C2545.25,1896.55 2543.58,1868.73 2543.76,1841.97C2544.11,1791.48 2552.08,1741.08 2562.04,1691.7C2571.42,1645.13 2583.11,1599.03 2596.25,1553.39C2605.25,1522.13 2614.82,1490.99 2625.65,1460.31C2632.02,1442.29 2638.85,1424.04 2649.58,1408.11C2656.29,1398.15 2666.99,1385.17 2680.57,1389.9C2686.77,1392.05 2691.8,1396.81 2696.41,1401.3C2701.58,1406.34 2706.43,1411.73 2710.89,1417.42C2715.17,1422.89 2719.05,1428.67 2722.59,1434.64C2724.81,1438.37 2730.65,1434.98 2728.42,1431.23C2720.89,1418.55 2711.75,1406.81 2701.18,1396.52C2691.85,1387.43 2679.85,1378.46 2666.21,1383.73C2653.33,1388.72 2644.77,1402.04 2638.31,1413.57C2631.96,1424.88 2627.09,1436.99 2622.55,1449.12C2612.27,1476.57 2603.63,1504.69 2595.26,1532.77C2581.56,1578.7 2569.33,1625.12 2559.26,1671.98C2548.58,1721.66 2539.87,1772.2 2537.52,1823.04C2536.19,1852.05 2536.68,1881.95 2543.85,1910.25C2546.77,1921.77 2550.96,1933.21 2557.32,1943.3C2563.98,1953.88 2573.16,1962.27 2583.79,1968.78C2589.87,1972.5 2596.36,1975.54 2603.07,1977.96C2607.17,1979.43 2608.93,1972.91 2604.87,1971.44Z" style="fill:rgb(26,57,102);fill-rule:nonzero;"/>
            <path d="M2509.4,1876.42C2543.26,1909.43 2554.06,1959.92 2584.44,1996.16C2595.65,2009.52 2611.68,2021.44 2628.96,2019.06C2647.17,2016.55 2660.01,1998.25 2662,1979.97C2664,1961.69 2657.56,1943.6 2650.31,1926.71C2635.64,1892.54 2616.13,1858.81 2585.44,1837.8C2574.28,1830.16 2561.49,1824.29 2547.98,1823.5C2534.47,1822.72 2520.2,1827.65 2511.87,1838.31C2503.54,1848.98 2500.29,1867.54 2509.4,1876.42Z" style="fill:white;fill-rule:nonzero;"/>
            <path d="M2547.69,1902.57C2542.53,1897.42 2544.95,1886.66 2553.07,1878.53C2561.19,1870.41 2571.95,1868 2577.1,1873.15C2582.26,1878.3 2579.85,1889.06 2571.72,1897.19C2563.6,1905.31 2552.84,1907.72 2547.69,1902.57Z" style="fill:rgb(251,210,207);fill-rule:nonzero;"/>
            <path d="M2536.62,1874.69C2533.01,1871.08 2532.9,1865.33 2536.38,1861.85C2539.86,1858.37 2545.61,1858.47 2549.23,1862.09C2552.84,1865.7 2552.95,1871.45 2549.47,1874.93C2545.98,1878.41 2540.23,1878.31 2536.62,1874.69Z" style="fill:rgb(251,210,207);fill-rule:nonzero;"/>
            <path d="M2555.83,1864.49C2552.22,1860.87 2552.11,1855.12 2555.59,1851.64C2559.07,1848.16 2564.82,1848.26 2568.44,1851.88C2572.05,1855.49 2572.16,1861.24 2568.68,1864.72C2565.2,1868.21 2559.44,1868.1 2555.83,1864.49Z" style="fill:rgb(251,210,207);fill-rule:nonzero;"/>
            <path d="M2526.41,1893.9C2522.8,1890.29 2522.69,1884.54 2526.17,1881.06C2529.65,1877.58 2535.41,1877.68 2539.02,1881.3C2542.63,1884.91 2542.74,1890.66 2539.26,1894.14C2535.78,1897.62 2530.02,1897.52 2526.41,1893.9Z" style="fill:rgb(251,210,207);fill-rule:nonzero;"/>
            <path d="M2651.23,1961.42C2654.56,1967.62 2657.24,1974.3 2658.2,1981.31C2658.9,1986.39 2658.6,1991.39 2656.81,1996.38C2656.73,1996.59 2656.22,1997.87 2656.44,1997.35C2656.19,1997.93 2655.92,1998.5 2655.63,1999.05C2655.06,2000.15 2654.42,2001.21 2653.72,2002.22C2653.6,2002.38 2653.48,2002.55 2653.36,2002.71C2652.77,2003.53 2653.78,2002.22 2653.15,2003C2652.76,2003.47 2652.37,2003.93 2651.96,2004.38C2651.17,2005.23 2650.33,2006.04 2649.45,2006.79C2649.25,2006.96 2649.06,2007.12 2648.86,2007.28C2648.09,2007.91 2649.39,2006.9 2648.58,2007.49C2648.13,2007.82 2647.67,2008.14 2647.21,2008.45C2646.22,2009.1 2645.2,2009.69 2644.15,2010.22C2643.59,2010.5 2643.03,2010.77 2642.46,2011.02C2643.01,2010.78 2641.73,2011.3 2641.52,2011.38C2640.32,2011.83 2639.1,2012.2 2637.86,2012.52C2635.09,2013.22 2633.69,2013.41 2630.94,2013.54C2629.68,2013.6 2628.43,2013.6 2627.17,2013.55C2626.48,2013.52 2625.78,2013.47 2625.09,2013.41C2624.85,2013.39 2624.62,2013.37 2624.39,2013.34C2624.27,2013.33 2623,2013.17 2623.53,2013.24C2617.81,2012.43 2612.52,2010.61 2607.63,2007.98C2594.11,2000.69 2584.68,1987.91 2577.03,1974.92C2568.68,1960.71 2561.75,1945.74 2552.69,1931.94C2544.57,1919.6 2535.03,1908.26 2525.93,1896.65C2517.46,1885.83 2509.47,1872.54 2508.34,1859.03C2507.9,1853.71 2508.25,1849.64 2510.1,1844.72C2510.21,1844.44 2510.32,1844.16 2510.43,1843.88C2510.18,1844.49 2510.43,1843.89 2510.51,1843.74C2510.74,1843.25 2510.97,1842.76 2511.22,1842.29C2511.76,1841.27 2512.36,1840.28 2513.03,1839.34C2513.19,1839.1 2513.36,1838.87 2513.53,1838.65C2513.46,1838.75 2513.13,1839.15 2513.53,1838.66C2513.89,1838.22 2514.26,1837.79 2514.64,1837.37C2515.41,1836.54 2516.24,1835.77 2517.1,1835.04C2517.1,1835.04 2517.82,1834.46 2517.42,1834.77C2517.03,1835.08 2517.77,1834.51 2517.76,1834.52C2518.22,1834.19 2518.69,1833.86 2519.17,1833.56C2520.14,1832.94 2521.15,1832.38 2522.19,1831.89C2522.37,1831.81 2522.54,1831.73 2522.72,1831.65C2523.6,1831.24 2522.09,1831.89 2522.99,1831.53C2523.54,1831.31 2524.1,1831.1 2524.66,1830.92C2525.71,1830.57 2526.78,1830.27 2527.86,1830.03C2530.19,1829.52 2531.74,1829.35 2534.54,1829.35C2537.35,1829.34 2539.53,1829.57 2541.9,1830.03C2555.07,1832.58 2566.62,1840.47 2576.09,1849.87C2579.06,1852.82 2581.85,1855.95 2584.49,1859.2C2585.64,1860.62 2588.07,1860.4 2589.26,1859.2C2590.66,1857.8 2590.42,1855.84 2589.26,1854.42C2579.27,1842.13 2566.76,1831.28 2551.72,1825.77C2541.16,1821.9 2529.13,1821.16 2518.78,1826.06C2509.63,1830.4 2503.49,1839.32 2501.96,1849.24C2499.85,1862.9 2504.88,1876.61 2511.82,1888.18C2516.53,1896.03 2522.44,1903.08 2528.12,1910.24C2532.63,1915.93 2537.17,1921.6 2541.42,1927.48C2551.16,1940.95 2558.67,1955.63 2566.61,1970.18C2574.84,1985.27 2584.34,2000.35 2598.66,2010.38C2608.59,2017.33 2621.11,2021.38 2633.28,2020.12C2644.06,2019 2654.29,2013.93 2660.23,2004.61C2666.97,1994.03 2666.17,1980.61 2662.09,1969.21C2660.72,1965.36 2659,1961.62 2657.06,1958.02C2655,1954.19 2649.17,1957.59 2651.23,1961.42Z" style="fill:rgb(26,57,102);fill-rule:nonzero;"/>
            <path d="M3040.95,1876.42C3007.09,1909.43 2996.29,1959.92 2965.9,1996.16C2954.7,2009.52 2938.66,2021.44 2921.39,2019.06C2903.18,2016.55 2890.34,1998.25 2888.34,1979.97C2886.34,1961.69 2892.78,1943.6 2900.04,1926.71C2914.71,1892.54 2934.22,1858.81 2964.91,1837.8C2976.07,1830.16 2988.85,1824.29 3002.36,1823.5C3015.87,1822.72 3030.15,1827.65 3038.48,1838.31C3046.8,1848.98 3050.06,1867.54 3040.95,1876.42Z" style="fill:white;fill-rule:nonzero;"/>
            <path d="M3002.66,1902.57C3007.81,1897.42 3005.4,1886.66 2997.28,1878.53C2989.15,1870.41 2978.39,1868 2973.24,1873.15C2968.09,1878.3 2970.5,1889.06 2978.63,1897.19C2986.75,1905.31 2997.51,1907.72 3002.66,1902.57Z" style="fill:rgb(251,210,207);fill-rule:nonzero;"/>
            <path d="M3013.73,1874.69C3017.34,1871.08 3017.45,1865.33 3013.97,1861.85C3010.48,1858.37 3004.73,1858.47 3001.12,1862.09C2997.51,1865.7 2997.4,1871.45 3000.88,1874.93C3004.36,1878.41 3010.11,1878.31 3013.73,1874.69Z" style="fill:rgb(251,210,207);fill-rule:nonzero;"/>
            <path d="M2994.52,1864.49C2998.13,1860.87 2998.24,1855.12 2994.75,1851.64C2991.27,1848.16 2985.52,1848.26 2981.91,1851.88C2978.29,1855.49 2978.19,1861.24 2981.67,1864.72C2985.15,1868.21 2990.9,1868.1 2994.52,1864.49Z" style="fill:rgb(251,210,207);fill-rule:nonzero;"/>
            <path d="M3023.94,1893.9C3027.55,1890.29 3027.66,1884.54 3024.17,1881.06C3020.69,1877.58 3014.94,1877.68 3011.33,1881.3C3007.71,1884.91 3007.61,1890.66 3011.09,1894.14C3014.57,1897.62 3020.32,1897.52 3023.94,1893.9Z" style="fill:rgb(251,210,207);fill-rule:nonzero;"/>
            <path d="M2893.78,1958.02C2887.43,1969.83 2882.89,1984.3 2887.32,1997.57C2890.78,2007.95 2899.26,2015.47 2909.64,2018.6C2921.07,2022.04 2933.52,2020.11 2944.16,2015.06C2958.91,2008.06 2969.6,1994.8 2977.95,1981.15C2987,1966.35 2994.12,1950.48 3003.61,1935.93C3012.11,1922.91 3022.26,1911.11 3031.72,1898.81C3040.83,1886.97 3048.6,1872.82 3049.35,1857.59C3049.86,1847.25 3046.33,1836.53 3038.08,1829.9C3029.45,1822.96 3018.16,1821.48 3007.5,1823.45C2993.35,1826.08 2980.69,1834.62 2970.56,1844.53C2967.37,1847.64 2964.39,1850.97 2961.58,1854.42C2960.43,1855.84 2960.2,1857.82 2961.58,1859.2C2962.77,1860.39 2965.2,1860.62 2966.36,1859.2C2975.56,1847.88 2987.2,1837.31 3000.92,1832.28C3006.27,1830.33 3011.06,1829.31 3016.47,1829.35C3017.66,1829.35 3018.84,1829.42 3020.03,1829.54C3020.29,1829.57 3020.55,1829.59 3020.82,1829.63C3020.06,1829.53 3021.08,1829.67 3021.16,1829.69C3021.77,1829.79 3022.38,1829.9 3022.98,1830.03C3024.07,1830.27 3025.14,1830.57 3026.19,1830.92C3026.75,1831.1 3027.3,1831.31 3027.85,1831.53C3028.76,1831.89 3027.24,1831.24 3028.12,1831.65C3028.39,1831.77 3028.65,1831.89 3028.91,1832.02C3029.86,1832.48 3030.79,1832.99 3031.68,1833.56C3032.16,1833.86 3032.62,1834.19 3033.09,1834.52C3033.24,1834.63 3033.39,1834.74 3033.54,1834.86C3032.92,1834.38 3033.85,1835.13 3033.96,1835.22C3034.75,1835.89 3035.5,1836.61 3036.2,1837.37C3036.59,1837.79 3036.95,1838.22 3037.31,1838.66C3037.4,1838.76 3037.7,1839.16 3037.31,1838.65C3037.54,1838.95 3037.76,1839.26 3037.98,1839.57C3038.58,1840.44 3039.13,1841.35 3039.63,1842.29C3039.86,1842.72 3040.07,1843.16 3040.28,1843.6C3040.32,1843.68 3040.7,1844.58 3040.41,1843.88C3040.57,1844.25 3040.71,1844.62 3040.85,1845C3041.23,1846.06 3041.56,1847.14 3041.82,1848.23C3041.94,1848.74 3042.06,1849.26 3042.15,1849.77C3042.21,1850.09 3042.27,1850.4 3042.32,1850.72C3042.35,1850.93 3042.39,1851.15 3042.42,1851.36C3042.37,1851 3042.37,1851.03 3042.42,1851.44C3043.03,1857.08 3042.43,1861.95 3040.95,1867.28C3039.06,1874.15 3035.87,1880.57 3032.08,1886.58C3027.52,1893.82 3021.98,1900.39 3016.68,1907.07C3012.28,1912.62 3007.87,1918.17 3003.72,1923.9C2994.47,1936.66 2987.17,1950.5 2979.72,1964.35C2972.09,1978.51 2963.67,1993.04 2950.81,2003.06C2941.73,2010.12 2930.77,2014.13 2919.57,2013.52C2916.93,2013.38 2915.45,2013.17 2912.67,2012.44C2911.54,2012.14 2910.42,2011.79 2909.33,2011.38C2908.14,2010.94 2908.03,2010.9 2906.7,2010.22C2905.69,2009.71 2904.71,2009.15 2903.77,2008.54C2903.25,2008.2 2902.75,2007.85 2902.26,2007.49C2901.45,2006.9 2902.76,2007.91 2901.98,2007.28C2901.75,2007.08 2901.51,2006.89 2901.28,2006.69C2900.44,2005.97 2899.64,2005.2 2898.89,2004.38C2898.48,2003.93 2898.08,2003.47 2897.7,2003C2897.08,2002.24 2897.92,2003.31 2897.58,2002.84C2897.36,2002.55 2897.16,2002.26 2896.95,2001.97C2894.25,1998.01 2892.78,1993.48 2892.44,1989.07C2891.96,1982.85 2893.09,1977.15 2895.18,1971.23C2896.38,1967.84 2897.91,1964.59 2899.62,1961.42C2901.68,1957.6 2895.85,1954.18 2893.78,1958.02Z" style="fill:rgb(26,57,102);fill-rule:nonzero;"/>
            <path d="M2661.72,1993.19C2689.92,2002.71 2719.74,2007.33 2749.39,2009C2780.31,2010.73 2811.51,2009.11 2842.03,2003.8C2858,2001.02 2873.81,1997.16 2889.12,1991.82C2890.84,1991.22 2891.99,1989.51 2891.48,1987.67C2891.02,1986 2889.05,1984.71 2887.32,1985.31C2859.77,1994.92 2830.67,1999.89 2801.62,2001.9C2771.18,2004.01 2740.34,2002.95 2710.2,1998.04C2694.38,1995.46 2678.71,1991.81 2663.52,1986.68C2659.39,1985.28 2657.62,1991.8 2661.72,1993.19Z" style="fill:rgb(26,57,102);fill-rule:nonzero;"/>
            <path d="M2920.02,1854.22C2898.7,1851.18 2878.84,1839.31 2866.05,1821.95C2859.49,1813.05 2854.75,1802.95 2852.79,1792.02C2850.82,1781 2851.66,1769.5 2854.36,1758.68C2857.48,1746.16 2863.13,1734.35 2870.98,1724.11C2872.09,1722.66 2871.21,1720.32 2869.77,1719.49C2868.03,1718.47 2866.26,1719.24 2865.15,1720.7C2850.57,1739.72 2842.61,1765.17 2845.58,1789.12C2848.5,1812.69 2862.88,1833.41 2882.31,1846.65C2893.01,1853.94 2905.39,1858.9 2918.22,1860.74C2920.03,1860.99 2921.85,1860.29 2922.38,1858.38C2922.81,1856.79 2921.83,1854.48 2920.02,1854.22Z" style="fill:rgb(26,57,102);fill-rule:nonzero;"/>
            <path d="M2972.3,1693.97C2995.1,1699.66 3015.99,1711.61 3033.03,1727.73C3050.06,1743.84 3063.37,1763.98 3071.05,1786.16C3078.73,1808.37 3080.48,1832.22 3075.87,1855.28C3071.27,1878.24 3060.94,1900.06 3046.11,1918.18C3031.32,1936.26 3012.13,1950.94 2990.27,1959.4C2987.55,1960.45 2984.8,1961.4 2982.01,1962.27C2977.88,1963.57 2979.64,1970.09 2983.81,1968.79C3007.33,1961.43 3028.54,1947.59 3045.21,1929.49C3061.86,1911.42 3074.13,1889.29 3080.42,1865.53C3086.73,1841.67 3086.76,1816.43 3080.14,1792.63C3073.56,1768.99 3060.89,1747.14 3044.11,1729.28C3027.34,1711.44 3006.24,1697.55 2982.91,1689.98C2980,1689.03 2977.06,1688.2 2974.09,1687.45C2969.87,1686.4 2968.08,1692.91 2972.3,1693.97Z" style="fill:rgb(26,57,102);fill-rule:nonzero;"/>
            <path d="M2693.14,1476.29C2713.78,1408.4 2740.59,1342.38 2773.14,1279.33C2775.59,1274.58 2782.45,1274.78 2784.63,1279.66C2811.04,1338.94 2832.3,1400.5 2848.09,1463.44C2848.99,1467.02 2846.65,1470.63 2843.01,1471.26C2795.88,1479.39 2748.13,1484.19 2699.24,1484.49C2694.98,1484.51 2691.9,1480.37 2693.14,1476.29Z" style="fill:rgb(242,107,96);fill-rule:nonzero;"/>
            <path d="M2764.05,1256.74C2754.05,1265.35 2754.11,1285.76 2763.08,1295.93C2772.05,1306.09 2786.99,1305.76 2796.93,1297.05C2804.79,1290.17 2809.9,1277.48 2806.92,1266.22C2804.35,1256.49 2796.31,1249.99 2788.04,1248.53C2779.78,1247.08 2771.58,1250.27 2764.05,1256.74Z" style="fill:white;fill-rule:nonzero;"/>
            <path d="M2560.65,1661.81C2617.3,1669.04 2674.42,1675.77 2731.64,1674.14C2785.64,1672.6 2839.94,1662.18 2889.89,1641.34C2917.79,1629.7 2944.14,1614.78 2968.04,1596.23C2966.27,1594.87 2964.5,1593.5 2962.74,1592.14C2947.82,1618.15 2928.88,1641.59 2907.1,1662.17C2885.21,1682.87 2860.61,1700.58 2834.45,1715.49C2807.04,1731.12 2777.96,1743.54 2747.95,1753.25C2713.78,1764.3 2678.59,1771.93 2643.1,1777.29C2607.46,1782.67 2571.5,1785.71 2535.52,1787.7C2533.4,1787.82 2531.28,1787.93 2529.15,1788.04C2527.07,1788.15 2525.08,1788.4 2523.93,1790.38C2521.65,1794.3 2525.94,1797.07 2528.5,1799.28C2534.9,1804.81 2541.5,1810.11 2548.25,1815.22C2561.51,1825.25 2575.41,1834.43 2589.73,1842.88C2618.64,1859.94 2649.24,1873.98 2680.43,1886.31C2713.13,1899.22 2746.57,1910.36 2780.68,1918.91C2814.89,1927.49 2849.83,1933.48 2885.04,1935.76C2919.91,1938.02 2955.05,1936.52 2989.47,1930.33C2997.92,1928.81 3006.32,1927 3014.65,1924.91C3018.86,1923.85 3017.07,1917.33 3012.85,1918.39C2979.33,1926.8 2944.81,1930.39 2910.27,1929.98C2875.53,1929.57 2840.92,1925.22 2806.94,1918.05C2772.72,1910.84 2739.11,1900.82 2706.25,1888.89C2674.92,1877.52 2644.09,1864.59 2614.61,1849.03C2585.45,1833.63 2557.56,1815.6 2532.63,1793.95C2532.05,1793.44 2531.4,1792.64 2530.72,1792.28C2530.51,1792.09 2530.3,1791.9 2530.09,1791.72C2529.62,1792.75 2529.16,1793.78 2528.7,1794.82C2528.74,1794.89 2530.62,1794.72 2530.52,1794.72C2532.79,1794.6 2535.07,1794.48 2537.34,1794.35C2541.74,1794.1 2546.14,1793.84 2550.54,1793.56C2559.35,1792.99 2568.15,1792.35 2576.94,1791.62C2594.67,1790.14 2612.37,1788.28 2630.01,1785.92C2665.15,1781.21 2700.06,1774.49 2734.12,1764.56C2764.9,1755.59 2794.94,1744.01 2823.39,1729.2C2849.86,1715.43 2874.94,1698.92 2897.72,1679.61C2920.31,1660.48 2940.51,1638.48 2957.11,1613.93C2961.16,1607.95 2964.97,1601.81 2968.57,1595.55C2970.61,1591.98 2966.13,1589.23 2963.26,1591.46C2921.36,1623.98 2871.36,1644.76 2819.84,1656.37C2793.73,1662.25 2767.16,1665.86 2740.41,1667.06C2711.81,1668.36 2683.12,1667.31 2654.58,1665.16C2623.17,1662.8 2591.89,1659.04 2560.65,1655.05C2558.82,1654.82 2557.29,1656.77 2557.27,1658.43C2557.25,1660.45 2558.85,1661.58 2560.65,1661.81Z" style="fill:rgb(26,57,102);fill-rule:nonzero;"/>
            <path d="M2598.25,1654.25C2592.92,1662.57 2595.08,1674.81 2602.93,1680.81C2610.77,1686.8 2623.15,1685.67 2629.78,1678.35C2636.41,1671.04 2636.32,1658.6 2629.58,1651.39C2622.84,1644.17 2607.11,1640.4 2598.25,1654.25Z" style="fill:rgb(242,107,96);fill-rule:nonzero;"/>
            <path d="M2599.55,1847.64C2594.23,1855.96 2596.38,1868.2 2604.23,1874.2C2612.07,1880.2 2624.46,1879.06 2631.08,1871.75C2637.71,1864.43 2637.62,1852 2630.88,1844.78C2624.14,1837.56 2608.42,1833.8 2599.55,1847.64Z" style="fill:rgb(242,107,96);fill-rule:nonzero;"/>
            <path d="M2779.44,1654.25C2774.11,1662.57 2776.27,1674.81 2784.11,1680.81C2791.96,1686.8 2804.34,1685.67 2810.97,1678.35C2817.6,1671.04 2817.5,1658.6 2810.76,1651.39C2804.03,1644.17 2788.3,1640.4 2779.44,1654.25Z" style="fill:rgb(26,57,102);fill-rule:nonzero;"/>
            <path d="M2691.22,1757.51C2685.89,1765.83 2688.05,1778.07 2695.89,1784.07C2703.74,1790.07 2716.12,1788.94 2722.75,1781.62C2729.38,1774.3 2729.28,1761.87 2722.54,1754.65C2715.81,1747.43 2700.08,1743.67 2691.22,1757.51Z" style="fill:rgb(242,107,96);fill-rule:nonzero;"/>
            <path d="M2753.81,1902.26C2748.49,1910.57 2750.65,1922.82 2758.49,1928.81C2766.34,1934.81 2778.72,1933.68 2785.35,1926.36C2791.98,1919.04 2791.88,1906.61 2785.14,1899.4C2778.4,1892.18 2762.68,1888.41 2753.81,1902.26Z" style="fill:rgb(242,107,96);fill-rule:nonzero;"/>
            <path d="M2838.26,1696.43C2832.93,1704.74 2835.09,1716.99 2842.94,1722.98C2850.78,1728.98 2863.16,1727.85 2869.79,1720.53C2876.42,1713.21 2876.33,1700.78 2869.59,1693.56C2862.85,1686.35 2847.12,1682.58 2838.26,1696.43Z" style="fill:rgb(26,57,102);fill-rule:nonzero;"/>
            <path d="M2925.02,1922.07C2919.69,1930.39 2921.85,1942.63 2929.69,1948.63C2937.54,1954.63 2949.92,1953.49 2956.55,1946.18C2963.18,1938.86 2963.08,1926.43 2956.34,1919.21C2949.61,1911.99 2933.88,1908.23 2925.02,1922.07Z" style="fill:rgb(26,57,102);fill-rule:nonzero;"/>
            <path d="M2682.87,1639.84C2671.2,1649.24 2667.85,1667.5 2675.42,1680.43C2683,1693.37 2700.55,1699.38 2714.46,1693.8C2728.38,1688.22 2736.92,1671.74 2733.46,1657.16C2730,1642.58 2708.66,1619.07 2682.87,1639.84Z" style="fill:rgb(242,107,96);fill-rule:nonzero;"/>
            <path d="M2595.08,1760.51C2583.41,1769.91 2580.06,1788.16 2587.63,1801.1C2595.21,1814.03 2612.76,1820.04 2626.68,1814.46C2640.59,1808.89 2649.13,1792.41 2645.67,1777.83C2642.21,1763.24 2620.87,1739.73 2595.08,1760.51Z" style="fill:rgb(26,57,102);fill-rule:nonzero;"/>
            <path d="M2865.37,1609.4C2853.7,1618.8 2850.35,1637.06 2857.93,1649.99C2865.5,1662.93 2883.06,1668.94 2896.97,1663.36C2910.88,1657.78 2919.42,1641.3 2915.96,1626.72C2912.5,1612.14 2891.16,1588.63 2865.37,1609.4Z" style="fill:rgb(242,107,96);fill-rule:nonzero;"/>
            <path d="M2767.95,1715.17C2756.28,1724.57 2752.93,1742.83 2760.5,1755.76C2768.08,1768.69 2785.64,1774.7 2799.55,1769.13C2813.46,1763.55 2822,1747.07 2818.54,1732.49C2815.08,1717.91 2793.74,1694.4 2767.95,1715.17Z" style="fill:rgb(242,107,96);fill-rule:nonzero;"/>
            <path d="M2830.92,1905.09C2819.25,1914.49 2815.9,1932.74 2823.47,1945.68C2831.04,1958.61 2848.6,1964.62 2862.51,1959.04C2876.42,1953.47 2884.96,1936.99 2881.5,1922.41C2878.04,1907.82 2856.7,1884.31 2830.92,1905.09Z" style="fill:rgb(242,107,96);fill-rule:nonzero;"/>
            <path d="M2677.39,1865.26C2665.72,1874.66 2662.37,1892.92 2669.94,1905.85C2677.51,1918.78 2695.07,1924.79 2708.98,1919.22C2722.89,1913.64 2731.44,1897.16 2727.98,1882.58C2724.52,1868 2703.17,1844.49 2677.39,1865.26Z" style="fill:rgb(26,57,102);fill-rule:nonzero;"/>
            <path d="M2744.11,1377.63C2750.17,1373.6 2756.23,1369.57 2762.29,1365.55C2771.95,1359.13 2781.6,1352.71 2791.26,1346.29C2793.47,1344.82 2795.69,1343.35 2797.9,1341.88C2801.5,1339.48 2798.12,1333.63 2794.49,1336.05C2788.43,1340.07 2782.37,1344.1 2776.31,1348.13C2766.65,1354.55 2756.99,1360.97 2747.33,1367.39C2745.12,1368.86 2742.91,1370.33 2740.7,1371.8C2737.09,1374.19 2740.47,1380.04 2744.11,1377.63Z" style="fill:white;fill-rule:nonzero;"/>
            <path d="M2756.92,1462.23C2765.31,1456.65 2773.69,1451.08 2782.08,1445.51C2795.43,1436.63 2808.78,1427.76 2822.14,1418.89C2825.19,1416.86 2828.23,1414.83 2831.28,1412.81C2834.89,1410.41 2831.51,1404.56 2827.88,1406.97C2819.49,1412.55 2811.11,1418.12 2802.72,1423.69C2789.37,1432.57 2776.01,1441.44 2762.66,1450.32C2759.61,1452.34 2756.56,1454.37 2753.51,1456.4C2749.91,1458.79 2753.29,1464.64 2756.92,1462.23Z" style="fill:white;fill-rule:nonzero;"/>
            <path d="M2698.48,1455.41C2702.59,1452.68 2706.7,1449.95 2710.81,1447.22C2720.67,1440.67 2730.53,1434.11 2740.38,1427.56C2752.26,1419.67 2764.14,1411.78 2776.01,1403.88C2786.28,1397.06 2796.55,1390.23 2806.82,1383.41C2811.84,1380.07 2816.93,1376.83 2821.89,1373.39C2821.96,1373.35 2822.03,1373.3 2822.1,1373.25C2825.7,1370.86 2822.32,1365.01 2818.69,1367.42C2814.58,1370.15 2810.48,1372.88 2806.37,1375.61C2796.51,1382.16 2786.65,1388.72 2776.79,1395.27C2764.92,1403.16 2753.04,1411.05 2741.16,1418.94C2730.89,1425.77 2720.62,1432.6 2710.35,1439.42C2705.34,1442.76 2700.24,1446 2695.29,1449.43C2695.22,1449.48 2695.15,1449.53 2695.08,1449.58C2691.47,1451.97 2694.85,1457.82 2698.48,1455.41Z" style="fill:white;fill-rule:nonzero;"/>
            <path d="M2865.41,1531.77C2888.89,1530.74 2908.26,1537.76 2908.69,1547.45C2909.11,1557.14 2890.43,1565.83 2866.95,1566.86C2843.47,1567.89 2824.1,1560.87 2823.67,1551.18C2823.24,1541.49 2841.93,1532.8 2865.41,1531.77Z" style="fill:rgb(251,210,207);fill-rule:nonzero;"/>
            <path d="M2671.69,1540.28C2695.17,1539.25 2714.55,1546.27 2714.97,1555.96C2715.4,1565.65 2696.71,1574.34 2673.24,1575.37C2649.76,1576.4 2630.38,1569.38 2629.96,1559.7C2629.53,1550.01 2648.22,1541.32 2671.69,1540.28Z" style="fill:rgb(251,210,207);fill-rule:nonzero;"/>
            <path d="M2882.92,1519.5C2904.96,1510.36 2928.25,1504.02 2951.93,1501.01C2958.69,1500.15 2965.47,1499.56 2972.27,1499.21C2976.59,1498.98 2976.62,1492.23 2972.27,1492.45C2947.91,1493.71 2923.72,1498.16 2900.55,1505.77C2893.99,1507.93 2887.51,1510.34 2881.13,1512.99C2879.44,1513.69 2878.24,1515.23 2878.77,1517.15C2879.2,1518.74 2881.23,1520.21 2882.92,1519.5Z" style="fill:rgb(26,57,102);fill-rule:nonzero;"/>
            <path d="M2890.24,1547.69C2913.63,1543.84 2937.55,1543.18 2961.13,1545.58C2967.78,1546.26 2974.39,1547.21 2980.97,1548.4C2982.76,1548.72 2984.61,1547.91 2985.13,1546.04C2985.57,1544.4 2984.57,1542.21 2982.77,1541.89C2958.61,1537.53 2933.93,1536.32 2909.48,1538.5C2902.44,1539.12 2895.42,1540.03 2888.45,1541.18C2886.65,1541.47 2885.64,1543.71 2886.09,1545.33C2886.62,1547.24 2888.44,1547.99 2890.24,1547.69Z" style="fill:rgb(26,57,102);fill-rule:nonzero;"/>
            <path d="M2894.72,1532.89C2916.46,1525.75 2939.47,1523.33 2962.22,1525.74C2964.04,1525.93 2965.6,1524.05 2965.6,1522.36C2965.6,1520.38 2964.04,1519.18 2962.22,1518.98C2938.94,1516.52 2915.17,1519.07 2892.93,1526.37C2888.81,1527.72 2890.57,1534.25 2894.72,1532.89Z" style="fill:rgb(26,57,102);fill-rule:nonzero;"/>
            <path d="M2651.06,1518.44C2627.42,1512.4 2602.95,1509.47 2578.55,1509.86C2571.67,1509.97 2564.79,1510.35 2557.93,1510.97C2556.11,1511.14 2554.55,1512.41 2554.55,1514.35C2554.55,1516.05 2556.1,1517.9 2557.93,1517.73C2581.74,1515.55 2605.84,1516.46 2629.39,1520.64C2636.06,1521.83 2642.69,1523.27 2649.26,1524.95C2653.47,1526.03 2655.27,1519.51 2651.06,1518.44Z" style="fill:rgb(26,57,102);fill-rule:nonzero;"/>
            <path d="M2646.93,1547.26C2622.59,1546.77 2598.17,1549.53 2574.56,1555.44C2567.82,1557.13 2561.15,1559.08 2554.56,1561.27C2550.45,1562.64 2552.21,1569.17 2556.35,1567.79C2579,1560.25 2602.58,1555.68 2626.42,1554.36C2633.25,1553.99 2640.09,1553.88 2646.93,1554.01C2651.28,1554.1 2651.28,1547.35 2646.93,1547.26Z" style="fill:rgb(26,57,102);fill-rule:nonzero;"/>
            <path d="M2641.28,1533.37C2617.87,1529.25 2593.81,1530.08 2570.76,1535.92C2566.55,1536.99 2568.33,1543.51 2572.55,1542.44C2594.37,1536.9 2617.31,1535.98 2639.49,1539.88C2641.28,1540.19 2643.13,1539.4 2643.64,1537.52C2644.09,1535.89 2643.09,1533.68 2641.28,1533.37Z" style="fill:rgb(26,57,102);fill-rule:nonzero;"/>
            <path d="M2764.84,1534.75C2764.55,1534.54 2764.27,1534.32 2763.99,1534.09C2761.54,1532.09 2752.69,1525.79 2758.5,1522.63C2762.06,1520.69 2767.17,1521.1 2771.05,1521.42C2772.1,1521.51 2773.16,1521.61 2774.2,1521.8C2778.66,1522.61 2778.27,1525.9 2775.99,1528.94C2774.05,1531.52 2770.53,1536.32 2766.76,1535.65C2766.05,1535.53 2765.43,1535.17 2764.84,1534.75Z" style="fill:rgb(26,57,102);fill-rule:nonzero;"/>
            <path d="M2764.02,1526.1C2764.34,1533.38 2764.66,1540.65 2764.98,1547.92C2765.03,1548.97 2765.07,1550.01 2765.12,1551.06C2765.2,1552.88 2766.61,1554.44 2768.5,1554.44C2770.26,1554.44 2771.95,1552.89 2771.87,1551.06C2771.55,1543.79 2771.23,1536.52 2770.91,1529.24C2770.87,1528.2 2770.82,1527.15 2770.78,1526.1C2770.7,1524.28 2769.28,1522.73 2767.4,1522.73C2765.63,1522.73 2763.94,1524.27 2764.02,1526.1Z" style="fill:rgb(26,57,102);fill-rule:nonzero;"/>
            <path d="M2684.62,1531.17C2683.45,1523.62 2689.13,1515.73 2696.18,1513.38C2704.37,1510.66 2713.33,1513.99 2718.96,1520.22C2721.88,1523.45 2726.65,1518.66 2723.74,1515.44C2716.43,1507.36 2703.95,1503.12 2693.49,1507.19C2683.14,1511.22 2676.38,1521.87 2678.11,1532.97C2678.39,1534.77 2680.65,1535.77 2682.26,1535.33C2684.19,1534.8 2684.9,1532.98 2684.62,1531.17Z" style="fill:rgb(26,57,102);fill-rule:nonzero;"/>
            <path d="M2856.5,1524.52C2857.23,1513.62 2848.91,1503.31 2838.48,1500.68C2827.34,1497.88 2815.85,1503.25 2809.13,1512.14C2808.03,1513.6 2808.9,1515.92 2810.34,1516.76C2812.08,1517.77 2813.86,1517.01 2814.96,1515.55C2819.81,1509.14 2828.73,1505.19 2836.68,1507.2C2844.38,1509.14 2850.28,1516.5 2849.75,1524.52C2849.63,1526.34 2851.39,1527.9 2853.13,1527.9C2855.05,1527.9 2856.38,1526.35 2856.5,1524.52Z" style="fill:rgb(26,57,102);fill-rule:nonzero;"/>
        </g>
    </g>
</svg>
