<?xml version="1.0" encoding="UTF-8" standalone="no"?>
<!DOCTYPE svg PUBLIC "-//W3C//DTD SVG 1.1//EN" "http://www.w3.org/Graphics/SVG/1.1/DTD/svg11.dtd">
<svg width="100%" height="100%" viewBox="0 0 2563 2991" version="1.1" xmlns="http://www.w3.org/2000/svg" xmlns:xlink="http://www.w3.org/1999/xlink" xml:space="preserve" xmlns:serif="http://www.serif.com/" style="fill-rule:evenodd;clip-rule:evenodd;stroke-linejoin:round;stroke-miterlimit:2;">
    <g transform="matrix(1,0,0,1,-7155.79,-5426.21)">
        <g transform="matrix(4.16667,0,0,4.16667,0,0)">
            <path d="M1925.04,1987.33C1945.88,2004.37 1983.06,2010.83 1998.62,1984.12C2054.15,2053.76 2173.61,2042.42 2243.73,1997.48C2329.74,1949.65 2378.2,1817.38 2275.15,1766.82C2274.64,1754.73 2273.72,1742.03 2272.34,1728.13C2292.82,1731.25 2317.81,1739.07 2337.25,1725.42C2342,1721.37 2351.8,1709.72 2340.02,1689C2317.75,1656.3 2283.23,1632.34 2253.94,1605C2254.82,1583.21 2252.94,1534.42 2232.79,1516.42C2231.6,1511.84 2230.39,1507.27 2229.17,1502.71C2234.8,1503.46 2240.42,1505.39 2246.14,1505.77C2270.33,1503.93 2267.42,1471.15 2243.44,1470.97C2245.27,1465.95 2244.57,1460.27 2241.59,1455.74C2261.29,1453.05 2259.01,1421.5 2238.79,1422.11C2228.06,1422.19 2217.2,1422.89 2206.35,1424.2C2183.36,1347.17 2141.19,1217.47 2060.51,1337.15C2036.67,1334.65 2014.83,1335.12 1990.61,1338.27C1911.12,1218.98 1868.39,1341.63 1844.64,1422.25C1837.19,1422.02 1829.77,1422.09 1822.27,1422.45C1801.89,1423.16 1800.69,1454.26 1821.01,1456.21C1818.28,1460.84 1817.89,1466.59 1819.99,1471.48C1795.52,1473.07 1795.35,1507.67 1820.3,1506.33C1817.46,1516.97 1814.73,1527.55 1812.13,1537.97C1795.6,1551.99 1793.51,1589.48 1792.09,1607.59C1770.17,1631.37 1680.17,1688.1 1709.62,1723.32C1727.01,1740.42 1758.82,1730.68 1778.91,1726.84C1772.73,1795.74 1778.01,1903.72 1867.32,1916.48C1881.47,1941.62 1903.48,1971.29 1925.04,1987.33Z" style="fill:white;fill-rule:nonzero;"/>
            <path d="M1872.78,1883.52C1882.37,1921.69 1908.1,1955.52 1942.32,1974.95C1948.71,1978.58 1955.56,1981.78 1962.88,1982.42C1970.21,1983.06 1978.12,1980.73 1982.69,1974.97C1988.02,1968.24 1987.68,1958.75 1986.61,1950.24C1984.35,1932.28 1970.44,1915.17 1964.07,1898.23C1962.28,1893.49 1969.65,1887.94 1965.4,1885.18C1961.68,1882.76 1957.02,1882.47 1952.58,1882.26C1928.59,1881.07 1904.6,1879.89 1872.78,1883.52Z" style="fill:white;fill-rule:nonzero;"/>
            <path d="M2256.22,1763.64C2256.22,1708.66 2242.46,1646.27 2229.93,1575.26C2212.55,1485.58 2188.78,1419.2 2153.89,1333.39C2135.02,1302.51 2123.66,1295.91 2107.73,1310.37C2091.8,1324.84 2088.63,1328.34 2070.61,1353.21C2043.22,1355.28 2007.53,1351.15 1980.14,1353.21C1969.35,1342.42 1975.56,1348.14 1966.09,1333.04C1956.62,1317.93 1941.99,1300.39 1924.94,1305.63C1909.17,1310.48 1903.54,1318.62 1896.71,1333.65C1873.24,1385.28 1849.49,1451.97 1838.02,1506.3C1821.49,1584.66 1801.32,1649.01 1796.6,1739.3C1795.12,1767.6 1792.62,1789.1 1798.32,1816.86C1804.02,1844.61 1816.38,1878.45 1842.76,1888.78C1840.78,1893.72 1922.92,1917.4 1921.27,1914.2C1936.14,1921.07 2105.57,1926.39 2134.66,1913.4C2142.8,1917.16 2219.86,1898.9 2214.9,1888.78C2235.78,1867.89 2241.3,1852.37 2249.69,1830.02C2258.09,1807.68 2256.22,1787.51 2256.22,1763.64Z" style="fill:white;fill-rule:nonzero;"/>
            <path d="M1828.96,1532.5C1868.38,1474.01 1932.2,1432.54 2001.65,1420.27C2071.11,1407.99 2145.27,1425.09 2200.4,1466.27C2192.95,1421.73 2176.99,1380.88 2157.59,1340.1C2151.67,1327.65 2146.48,1311.88 2133.7,1306.72C2120.29,1301.31 2110.65,1307.33 2099.76,1316.84C2088.87,1326.35 2075.71,1338.71 2068.96,1351.49C2047.37,1352.57 2025.78,1353.65 2004.19,1354.73C1997.2,1355.08 1989.83,1355.35 1983.59,1352.18C1975.53,1348.07 1971.26,1339.27 1966.2,1331.76C1956.18,1316.89 1938.37,1304.89 1921.02,1309.41C1903.57,1313.95 1894.21,1332.46 1887.42,1349.17C1863.48,1408 1844.31,1468.65 1828.96,1532.5Z" style="fill:rgb(242,107,96);fill-rule:nonzero;"/>
            <path d="M2145.7,1349.61C2146.57,1354.94 2153.57,1358.16 2158.19,1355.35C2162.8,1352.55 2163.17,1344.85 2158.84,1341.62C2154.51,1338.39 2144.27,1340.91 2145.7,1349.61Z" style="fill:white;fill-rule:nonzero;"/>
            <path d="M1848.05,1468.36C1848.93,1473.68 1855.93,1476.9 1860.54,1474.1C1865.16,1471.29 1865.52,1463.6 1861.19,1460.37C1856.87,1457.13 1846.62,1459.65 1848.05,1468.36Z" style="fill:white;fill-rule:nonzero;"/>
            <path d="M2054.09,1365.73C2054.96,1371.06 2061.96,1374.28 2066.58,1371.47C2071.19,1368.67 2071.56,1360.97 2067.23,1357.74C2062.9,1354.51 2052.66,1357.03 2054.09,1365.73Z" style="fill:white;fill-rule:nonzero;"/>
            <path d="M1989.38,1361.6C1990.26,1366.93 1997.26,1370.15 2001.87,1367.34C2006.49,1364.54 2006.85,1356.84 2002.53,1353.61C1998.2,1350.38 1987.95,1352.9 1989.38,1361.6Z" style="fill:white;fill-rule:nonzero;"/>
            <path d="M1970.9,1921.49C1974.02,1928.55 1977.11,1935.64 1979.75,1942.9C1981.65,1948.13 1983.41,1953.52 1984.15,1959.05C1984.09,1958.58 1984.24,1959.94 1984.26,1960.18C1984.3,1960.67 1984.34,1961.16 1984.36,1961.65C1984.41,1962.74 1984.41,1963.84 1984.34,1964.93C1984.31,1965.43 1984.26,1965.92 1984.2,1966.42C1984.3,1965.64 1984.09,1967.04 1984.05,1967.25C1983.86,1968.19 1983.62,1969.12 1983.32,1970.03C1983.17,1970.48 1983,1970.92 1982.82,1971.37C1983.1,1970.68 1982.55,1971.94 1982.46,1972.13C1982.02,1973.01 1981.53,1973.85 1980.99,1974.67C1979.41,1977.06 1977.25,1978.83 1974.7,1980.11C1968.24,1983.32 1960.71,1982.28 1954.15,1979.99C1948.49,1978.02 1943.19,1975.14 1938.35,1971.62C1928.14,1964.23 1919.21,1954.37 1911.21,1944.54C1899.94,1930.68 1890.13,1915.57 1881.78,1899.79C1879.74,1895.94 1873.89,1899.36 1875.93,1903.21C1883.91,1918.29 1893.25,1932.63 1903.79,1946.04C1912.57,1957.21 1922.26,1967.93 1933.63,1976.51C1938.63,1980.29 1944,1983.22 1949.81,1985.56C1957.43,1988.64 1966.05,1990.15 1974.05,1987.61C1980.34,1985.61 1985.46,1981.36 1988.37,1975.42C1990.4,1971.27 1991.29,1966.74 1991.15,1962.13C1990.95,1955.79 1989.2,1949.54 1987.15,1943.58C1984.17,1934.9 1980.45,1926.46 1976.74,1918.07C1976,1916.4 1973.56,1916.01 1972.11,1916.86C1970.39,1917.86 1970.15,1919.81 1970.9,1921.49Z" style="fill:rgb(26,57,102);fill-rule:nonzero;"/>
            <path d="M1963.96,1363.59C1980.36,1360.08 1996.95,1357.44 2013.7,1356.39C2028.68,1355.44 2043.71,1355.77 2058.65,1357.28C2067.17,1358.14 2075.65,1359.39 2084.09,1360.88C2085.89,1361.2 2087.74,1360.4 2088.26,1358.52C2088.7,1356.88 2087.7,1354.68 2085.89,1354.35C2070.52,1351.63 2054.98,1349.71 2039.36,1349.21C2023.41,1348.7 2007.47,1349.71 1991.66,1351.85C1981.76,1353.18 1971.93,1354.97 1962.16,1357.06C1957.9,1357.97 1959.71,1364.5 1963.96,1363.59Z" style="fill:rgb(26,57,102);fill-rule:nonzero;"/>
            <path d="M1866.52,1896.15C1853.53,1894.64 1841.15,1885.94 1831.57,1877.55C1822.62,1869.72 1815.98,1860.28 1811.24,1849.38C1800.7,1825.16 1798.52,1797.61 1798.19,1771.49C1797.6,1724.03 1804.39,1676.53 1813.12,1629.99C1822.15,1581.87 1833.83,1534.25 1847.06,1487.13C1856.53,1453.39 1866.73,1419.81 1878.18,1386.68C1883.78,1370.46 1889.6,1354.14 1897.8,1339.04C1901.54,1332.16 1905.76,1325.33 1911,1319.48C1915.58,1314.37 1921.63,1309.27 1928.84,1309.03C1936.44,1308.77 1942.96,1313.81 1948.27,1318.69C1953.96,1323.92 1959.25,1329.63 1964.12,1335.64C1969.05,1341.72 1973.47,1348.19 1977.47,1354.92C1979.69,1358.67 1985.55,1355.26 1983.32,1351.5C1974.94,1337.4 1964.55,1324.24 1952.34,1313.25C1946.72,1308.19 1940.24,1303.52 1932.56,1302.49C1925.45,1301.53 1918.67,1304.1 1913.05,1308.36C1900.41,1317.94 1892.32,1333.67 1885.95,1347.83C1882.07,1356.45 1878.64,1365.27 1875.43,1374.15C1864.4,1404.66 1854.85,1435.75 1845.8,1466.89C1832.04,1514.19 1819.83,1562 1810.08,1610.3C1800.17,1659.34 1792.22,1709.36 1791.44,1759.48C1791.03,1785.81 1792.42,1812.93 1800.05,1838.27C1803.73,1850.47 1809.04,1862.29 1817.02,1872.3C1825.16,1882.49 1836.38,1891.08 1847.96,1896.96C1853.83,1899.94 1859.97,1902.16 1866.52,1902.92C1870.84,1903.42 1870.81,1896.64 1866.52,1896.15Z" style="fill:rgb(26,57,102);fill-rule:nonzero;"/>
            <path d="M2248.08,1648.62C2242.22,1613.48 2234.74,1578.62 2226.24,1544.03C2218.64,1513.06 2210.2,1482.29 2201.05,1451.74C2194.47,1429.73 2187.54,1407.81 2180.04,1386.1C2177.83,1379.68 2175.56,1373.27 2173.14,1366.92C2167.02,1350.89 2160.28,1334.81 2150.03,1320.92C2145.4,1314.64 2139.96,1308.44 2132.81,1304.97C2125.3,1301.32 2117.26,1301.59 2109.84,1305.35C2102.6,1309.01 2096.59,1315.14 2091.05,1320.95C2085.14,1327.14 2079.72,1333.81 2074.81,1340.82C2072.38,1344.29 2070.1,1347.86 2067.94,1351.5C2065.71,1355.26 2071.56,1358.67 2073.78,1354.92C2082.12,1340.84 2092.57,1327.63 2104.98,1316.9C2110.26,1312.35 2116.97,1308.02 2124.27,1309.2C2131.37,1310.34 2137.09,1315.66 2141.54,1320.97C2152.07,1333.51 2158.91,1349.04 2164.84,1364.15C2167.56,1371.09 2170.1,1378.1 2172.56,1385.14C2179.73,1405.71 2186.34,1426.48 2192.65,1447.32C2201.52,1476.58 2209.72,1506.04 2217.19,1535.69C2225.7,1569.47 2233.27,1603.5 2239.37,1637.79C2240.12,1642 2240.85,1646.2 2241.55,1650.42C2241.85,1652.22 2244.08,1653.23 2245.72,1652.78C2247.63,1652.25 2248.38,1650.43 2248.08,1648.62Z" style="fill:rgb(26,57,102);fill-rule:nonzero;"/>
            <path d="M2245.48,1672.48C2249.43,1701.23 2253.27,1730.02 2254.91,1759.01C2255.38,1767.3 2255.67,1775.6 2255.75,1783.91C2255.8,1788.26 2262.57,1788.27 2262.52,1783.91C2262.22,1754.46 2259.2,1725.15 2255.41,1695.96C2254.32,1687.53 2253.16,1679.1 2252.01,1670.68C2251.76,1668.87 2249.44,1667.88 2247.84,1668.31C2245.89,1668.85 2245.23,1670.66 2245.48,1672.48Z" style="fill:rgb(26,57,102);fill-rule:nonzero;"/>
            <path d="M1818.08,1609.62C1787.25,1633.65 1758.14,1659.88 1731.04,1688.05C1727.75,1691.47 1724.41,1695.05 1722.72,1699.48C1721.02,1703.92 1721.36,1709.47 1724.79,1712.76C1728.62,1716.45 1734.67,1716.14 1739.94,1715.44C1760.54,1712.72 1780.84,1707.75 1800.37,1700.65C1815.63,1695.1 1830.83,1687.96 1841.93,1676.11C1853.04,1664.25 1859.35,1646.8 1854.33,1631.35C1849.31,1615.9 1828.72,1601.33 1818.08,1609.62Z" style="fill:white;fill-rule:nonzero;"/>
            <path d="M2216.17,1777.76C2228.58,1791.99 2244.94,1828.78 2232.85,1843.28C2220.77,1857.77 2201.57,1864.62 2182.79,1866.51C2164.01,1868.4 2145.1,1865.99 2126.24,1865.26C2106.59,1864.51 2086.87,1865.6 2067.42,1868.51C2050.51,1871.04 2033.1,1875.29 2020.04,1886.32C2000.77,1902.61 1995.18,1931.78 2003.65,1955.55C2012.12,1979.32 2032.76,1997.5 2056.2,2006.84C2079.65,2016.17 2125.97,2019.37 2151.05,2016.63C2198.12,2011.48 2226.94,1991.55 2263.62,1961.6C2284.28,1944.73 2298.81,1922.92 2308.7,1898.14C2318.58,1873.36 2319.34,1844.17 2306.76,1820.65C2294.19,1797.12 2248.08,1767.43 2216.17,1777.76Z" style="fill:white;fill-rule:nonzero;"/>
            <path d="M1810.63,1609.8C1785.63,1631.52 1760.39,1653.12 1736.86,1676.45C1731.54,1681.72 1726.4,1687.31 1722.41,1693.69C1718.66,1699.67 1714.53,1708.04 1720.12,1714.25C1724.29,1718.88 1731.36,1719.24 1737.15,1719.2C1744.01,1719.14 1750.86,1718.48 1757.65,1717.47C1773.05,1715.19 1788.53,1710.9 1802.33,1703.57C1806.18,1701.53 1802.76,1695.68 1798.91,1697.73C1787.57,1703.75 1775.01,1707.44 1762.44,1709.83C1756.12,1711.03 1749.73,1711.85 1743.3,1712.22C1738.23,1712.51 1731.93,1713.26 1727.21,1711.11C1725.15,1710.17 1723.87,1708.71 1724.12,1706.28C1724.44,1703.12 1726.47,1699.99 1728.1,1697.35C1731.77,1691.44 1736.52,1686.33 1741.44,1681.44C1752.41,1670.54 1763.87,1660.1 1775.38,1649.76C1788.59,1637.89 1802.01,1626.24 1815.42,1614.59C1816.8,1613.39 1816.65,1611.03 1815.42,1609.8C1814.05,1608.43 1812.01,1608.6 1810.63,1609.8Z" style="fill:rgb(26,57,102);fill-rule:nonzero;"/>
            <path d="M2229.71,1612.08C2260.54,1636.11 2289.65,1662.34 2316.74,1690.51C2320.04,1693.93 2323.38,1697.51 2325.07,1701.94C2326.76,1706.38 2326.42,1711.93 2323,1715.22C2319.17,1718.91 2313.12,1718.6 2307.85,1717.9C2287.25,1715.18 2266.95,1710.21 2247.42,1703.11C2232.16,1697.56 2216.96,1690.42 2205.85,1678.56C2194.75,1666.71 2188.44,1649.26 2193.46,1633.81C2198.48,1618.36 2219.07,1603.79 2229.71,1612.08Z" style="fill:white;fill-rule:nonzero;"/>
            <path d="M2234.48,1614.59C2257.57,1634.65 2280.68,1654.72 2302.75,1675.9C2307.7,1680.65 2312.67,1685.41 2317.03,1690.71C2319.13,1693.27 2321.04,1695.98 2322.69,1698.85C2324.11,1701.33 2326.25,1704.69 2325.77,1707.69C2325.08,1712.02 2318.36,1712.38 2314.69,1712.42C2308.27,1712.5 2301.85,1712.18 2295.47,1711.49C2281.09,1709.95 2266.52,1706.45 2253.69,1699.64C2249.84,1697.6 2246.42,1703.44 2250.27,1705.49C2262.68,1712.07 2276.44,1715.74 2290.3,1717.63C2297.31,1718.58 2304.36,1719.13 2311.43,1719.2C2317.41,1719.25 2324.1,1719.18 2328.9,1715.09C2335.09,1709.83 2332.04,1701.59 2328.68,1695.68C2325.07,1689.33 2320.21,1683.73 2315.11,1678.53C2303.98,1667.17 2292.1,1656.49 2280.28,1645.85C2266.75,1633.67 2253.01,1621.74 2239.26,1609.8C2237.89,1608.6 2235.83,1608.44 2234.48,1609.8C2233.25,1611.03 2233.09,1613.39 2234.48,1614.59Z" style="fill:rgb(26,57,102);fill-rule:nonzero;"/>
            <path d="M1822.76,1549.28C1951.1,1592.86 2099.06,1583.57 2222.38,1528.1C2224.83,1527 2227.8,1528.45 2228.63,1530.64C2335.46,1813.99 1715.31,1825.55 1817.11,1551.98C1817.85,1549.98 1820.41,1548.48 1822.76,1549.28Z" style="fill:rgb(242,107,96);fill-rule:nonzero;"/>
            <path d="M2238.02,1804.47C2242.64,1817.01 2238.97,1830.83 2231.1,1841.25C2222.56,1852.55 2209.06,1858.86 2195.54,1861.89C2179.3,1865.53 2162.51,1864.47 2146.06,1863.18C2128.14,1861.77 2110.34,1860.76 2092.37,1862.05C2076.88,1863.15 2061.15,1865.2 2046.28,1869.85C2033.14,1873.95 2020.29,1880.33 2010.72,1890.44C2001.29,1900.39 1996.05,1913.26 1995.15,1926.89C1994.27,1940.3 1997.54,1953.91 2003.63,1965.84C2016.91,1991.85 2044.13,2007.15 2071.53,2014.23C2099.44,2021.44 2129.17,2021.61 2157.46,2016.61C2185.57,2011.63 2212.78,2001.15 2236.97,1985.99C2261.49,1970.62 2283.42,1950.31 2299.24,1925.97C2315.08,1901.59 2324.68,1871.83 2318.96,1842.71C2314.19,1818.44 2299.33,1793.71 2276.83,1782.17C2271.55,1779.46 2265.9,1777.51 2260.04,1776.58C2258.23,1776.29 2256.4,1777.04 2255.87,1778.94C2255.43,1780.55 2256.42,1782.82 2258.24,1783.11C2282.15,1786.92 2299.7,1807.51 2307.99,1829.16C2312.54,1841.04 2314.52,1853.51 2313.68,1866.21C2312.74,1880.46 2308.45,1894.42 2302.16,1907.19C2289.58,1932.71 2269.51,1954.45 2246.7,1971.21C2224.27,1987.7 2198.69,1999.73 2171.72,2006.61C2145.04,2013.42 2116.81,2015.27 2089.55,2011.03C2062.46,2006.81 2034.09,1996.13 2016.7,1973.87C2001.49,1954.4 1995.86,1924.84 2009.44,1903.04C2024.1,1879.51 2054.89,1872.89 2080.43,1869.94C2097.91,1867.91 2115.48,1867.7 2133.01,1868.94C2150.08,1870.15 2167.26,1872.25 2184.37,1870.48C2198.94,1868.98 2213.74,1864.9 2225.6,1855.99C2236.54,1847.76 2244.54,1835.6 2246.43,1821.9C2247.32,1815.44 2246.82,1808.83 2244.55,1802.67C2243.92,1800.96 2242.26,1799.79 2240.39,1800.31C2238.74,1800.76 2237.39,1802.75 2238.02,1804.47Z" style="fill:rgb(26,57,102);fill-rule:nonzero;"/>
            <path d="M2019.1,1624.13C2031.86,1693.43 2039.23,1763.71 2041.16,1834.14C2041.72,1854.57 2062.79,1867.94 2081.56,1859.88L2138.6,1835.38C2150.7,1830.18 2164.3,1823.29 2167.32,1810.46C2168.81,1804.11 2167.31,1797.47 2165.82,1791.12C2152.9,1736.29 2139.98,1681.47 2127.06,1626.64C2124.29,1614.89 2120.58,1601.83 2110.08,1595.87C2087.91,1583.3 2062.64,1613.5 2019.1,1624.13Z" style="fill:rgb(242,107,96);fill-rule:nonzero;"/>
            <path d="M1942.96,1594.63C1915.65,1657 1921.23,1728.19 1927.31,1796.01C1928.31,1807.19 1929.57,1819.06 1936.5,1827.89C1947.14,1841.43 1966.74,1842.92 1983.96,1843.28C2003.59,1843.7 2023.23,1844.11 2042.87,1844.53C2050.41,1844.68 2058.62,1844.63 2064.57,1840C2073.34,1833.15 2073.05,1820.03 2071.94,1808.96C2066.55,1755.15 2061.17,1701.33 2055.78,1647.52C2054.75,1637.2 2053.56,1626.44 2047.92,1617.75C2038.06,1602.59 2017.91,1598.29 1999.84,1597.56C1981.77,1596.83 1962.62,1598.09 1942.96,1594.63Z" style="fill:rgb(242,107,96);fill-rule:nonzero;"/>
            <path d="M1942.73,1595.72C1934.04,1620.14 1927.88,1645.45 1924.36,1671.13C1920.83,1696.92 1919.82,1723.01 1921.55,1748.98C1922.53,1763.61 1924.36,1778.19 1927,1792.62C1927.33,1794.42 1929.51,1795.44 1931.16,1794.98C1933.06,1794.46 1933.86,1792.62 1933.53,1790.82C1928.93,1765.72 1926.98,1740.16 1927.6,1714.65C1928.21,1689.14 1931.4,1663.72 1937.16,1638.85C1940.4,1624.86 1944.44,1611.05 1949.26,1597.52C1949.87,1595.8 1948.57,1593.81 1946.9,1593.36C1945.02,1592.84 1943.35,1593.99 1942.73,1595.72Z" style="fill:rgb(26,57,102);fill-rule:nonzero;"/>
            <path d="M2029.38,1625.9C2032.74,1640.41 2034.42,1655.17 2033.82,1670.07C2033.38,1680.79 2031.71,1691.39 2031.02,1702.09C2030.65,1707.93 2030.66,1713.78 2031.3,1719.6C2031.5,1721.42 2032.72,1722.98 2034.69,1722.98C2036.36,1722.98 2038.28,1721.43 2038.07,1719.6C2036.93,1709.2 2037.96,1698.85 2039.07,1688.49C2040.38,1676.33 2041.22,1664.19 2040.29,1651.96C2039.58,1642.58 2038.03,1633.26 2035.91,1624.1C2034.93,1619.86 2028.4,1621.65 2029.38,1625.9Z" style="fill:rgb(26,57,102);fill-rule:nonzero;"/>
            <path d="M2031.61,1734.09C2033.12,1750.17 2034.1,1766.29 2034.39,1782.44C2034.57,1792.32 2034.4,1802.23 2035.06,1812.09C2035.74,1822.16 2037.31,1832.41 2040.23,1842.09C2042.47,1849.48 2047.37,1855.95 2053.95,1860.01C2061.28,1864.53 2069.8,1865.2 2078.1,1863.5C2087.6,1861.55 2096.35,1856.95 2105.19,1853.14C2114.65,1849.07 2124.25,1845.33 2133.7,1841.23C2149.16,1834.51 2166.58,1826.38 2172.4,1809.15C2175.46,1800.11 2173.83,1790.35 2170.83,1781.54C2167.72,1772.4 2163.55,1763.71 2160.7,1754.47C2154.93,1735.75 2152.42,1716.25 2150.24,1696.84C2146.23,1661.02 2142.88,1623.1 2123.15,1591.85C2120.81,1588.14 2118.23,1584.6 2115.48,1581.18C2114.33,1579.75 2111.89,1579.98 2110.69,1581.18C2109.28,1582.59 2109.54,1584.54 2110.69,1585.97C2132.47,1613.03 2138.08,1649.02 2141.88,1682.51C2144.05,1701.64 2145.82,1720.89 2149.89,1739.74C2151.9,1749.06 2154.49,1758.26 2157.95,1767.15C2161.24,1775.6 2165.29,1783.91 2166.83,1792.92C2168.19,1800.94 2166.46,1808.81 2161.55,1815.3C2156.94,1821.38 2150.4,1825.8 2143.66,1829.19C2134.92,1833.58 2125.86,1837.3 2116.82,1841.01C2107.94,1844.66 2099.18,1848.57 2090.34,1852.33C2082.78,1855.54 2073.91,1858.92 2065.55,1857.33C2058.93,1856.07 2053.1,1852.06 2049.53,1846.33C2046.42,1841.34 2045.35,1835.27 2044.18,1829.58C2043.71,1827.26 2043.29,1824.92 2042.94,1822.58C2042.86,1822.09 2042.79,1821.6 2042.73,1821.12C2042.59,1820.14 2042.82,1821.83 2042.69,1820.86C2042.65,1820.57 2042.62,1820.28 2042.58,1820C2042.45,1818.91 2042.33,1817.82 2042.22,1816.73C2041.32,1807.63 2041.36,1798.47 2041.26,1789.33C2041.11,1775.59 2040.6,1761.86 2039.58,1748.15C2039.22,1743.46 2038.82,1738.77 2038.38,1734.09C2038.21,1732.27 2036.95,1730.7 2034.99,1730.7C2033.29,1730.7 2031.43,1732.26 2031.61,1734.09Z" style="fill:rgb(26,57,102);fill-rule:nonzero;"/>
            <path d="M1822.44,1637.22C1842.69,1662.13 1867.83,1683.7 1897.98,1695.51C1906.38,1698.79 1915.09,1701.23 1923.98,1702.78C1925.78,1703.09 1927.62,1702.29 1928.14,1700.41C1928.59,1698.78 1927.59,1696.56 1925.78,1696.25C1894.76,1690.85 1867.47,1674.16 1845.23,1652.31C1838.85,1646.04 1832.87,1639.37 1827.22,1632.43C1826.07,1631.01 1823.64,1631.23 1822.44,1632.43C1821.03,1633.84 1821.28,1635.8 1822.44,1637.22Z" style="fill:rgb(26,57,102);fill-rule:nonzero;"/>
            <path d="M2219.77,1628.98C2204.2,1647.33 2185.39,1662.8 2163.4,1672.8C2157.26,1675.59 2150.9,1677.88 2144.42,1679.76C2140.24,1680.97 2142.02,1687.51 2146.22,1686.29C2170.22,1679.33 2191.89,1666.3 2210.01,1649.17C2215.15,1644.32 2219.98,1639.15 2224.55,1633.77C2225.74,1632.37 2225.92,1630.34 2224.55,1628.98C2223.34,1627.76 2220.95,1627.58 2219.77,1628.98Z" style="fill:rgb(26,57,102);fill-rule:nonzero;"/>
            <path d="M1972.92,1923.04C1978.34,1924.05 1983.92,1924.93 1989.45,1924.61C1992.19,1924.45 1994.9,1923.92 1997.66,1924.11C1999.48,1924.23 2001.04,1922.46 2001.04,1920.72C2001.04,1918.79 1999.49,1917.46 1997.66,1917.33C1994.96,1917.15 1992.32,1917.66 1989.64,1917.83C1987.69,1917.95 1985.73,1917.92 1983.79,1917.77C1980.5,1917.53 1978.12,1917.14 1974.72,1916.51C1972.92,1916.18 1971.07,1917.01 1970.55,1918.88C1970.1,1920.53 1971.11,1922.71 1972.92,1923.04Z" style="fill:rgb(26,57,102);fill-rule:nonzero;"/>
            <path d="M1918.62,1332.25C1919.49,1337.58 1926.49,1340.8 1931.11,1337.99C1935.72,1335.19 1936.09,1327.49 1931.76,1324.26C1927.43,1321.03 1917.19,1323.55 1918.62,1332.25Z" style="fill:white;fill-rule:nonzero;"/>
            <path d="M1887.47,1369.66C1888.34,1374.99 1895.34,1378.21 1899.96,1375.4C1904.57,1372.6 1904.94,1364.9 1900.61,1361.67C1896.28,1358.44 1886.04,1360.96 1887.47,1369.66Z" style="fill:white;fill-rule:nonzero;"/>
            <path d="M1937.72,1390.87C1938.6,1396.2 1945.6,1399.41 1950.21,1396.61C1954.83,1393.8 1955.19,1386.11 1950.87,1382.88C1946.54,1379.65 1936.29,1382.17 1937.72,1390.87Z" style="fill:white;fill-rule:nonzero;"/>
            <path d="M2104.29,1334.72C2105.16,1340.05 2112.16,1343.26 2116.78,1340.46C2121.39,1337.65 2121.76,1329.96 2117.43,1326.73C2113.1,1323.5 2102.86,1326.02 2104.29,1334.72Z" style="fill:white;fill-rule:nonzero;"/>
            <path d="M1890.68,1423.95C1891.56,1429.28 1898.56,1432.5 1903.17,1429.7C1907.79,1426.89 1908.15,1419.2 1903.82,1415.97C1899.5,1412.73 1889.25,1415.25 1890.68,1423.95Z" style="fill:white;fill-rule:nonzero;"/>
            <path d="M1949.66,1434C1950.54,1439.33 1957.54,1442.54 1962.15,1439.74C1966.77,1436.93 1967.13,1429.24 1962.8,1426.01C1958.48,1422.78 1948.23,1425.3 1949.66,1434Z" style="fill:white;fill-rule:nonzero;"/>
            <path d="M2006.66,1398.93C2007.53,1404.26 2014.53,1407.47 2019.15,1404.67C2023.76,1401.86 2024.13,1394.17 2019.8,1390.94C2015.47,1387.71 2005.23,1390.23 2006.66,1398.93Z" style="fill:white;fill-rule:nonzero;"/>
            <path d="M2070.71,1415.9C2071.58,1421.23 2078.58,1424.44 2083.2,1421.64C2087.81,1418.83 2088.18,1411.14 2083.85,1407.91C2079.52,1404.67 2069.28,1407.19 2070.71,1415.9Z" style="fill:white;fill-rule:nonzero;"/>
            <path d="M2096.13,1385.98C2097,1391.31 2104,1394.53 2108.62,1391.72C2113.23,1388.91 2113.6,1381.22 2109.27,1377.99C2104.94,1374.76 2094.7,1377.28 2096.13,1385.98Z" style="fill:white;fill-rule:nonzero;"/>
            <path d="M2141.41,1402.27C2142.28,1407.6 2149.28,1410.82 2153.9,1408.02C2158.51,1405.21 2158.88,1397.52 2154.55,1394.28C2150.22,1391.05 2139.98,1393.57 2141.41,1402.27Z" style="fill:white;fill-rule:nonzero;"/>
            <path d="M2147.76,1439.86C2148.64,1445.19 2155.64,1448.41 2160.25,1445.6C2164.87,1442.8 2165.23,1435.11 2160.9,1431.87C2156.57,1428.64 2146.33,1431.16 2147.76,1439.86Z" style="fill:white;fill-rule:nonzero;"/>
            <path d="M2130.57,1470.34C2154.13,1470.34 2173.23,1478.23 2173.23,1487.95C2173.23,1497.68 2154.13,1505.56 2130.57,1505.56C2107.01,1505.56 2087.91,1497.68 2087.91,1487.95C2087.91,1478.23 2107.01,1470.34 2130.57,1470.34Z" style="fill:rgb(251,210,207);fill-rule:nonzero;"/>
            <path d="M1936.16,1470.34C1959.72,1470.34 1978.82,1478.23 1978.82,1487.95C1978.82,1497.68 1959.72,1505.56 1936.16,1505.56C1912.59,1505.56 1893.49,1497.68 1893.49,1487.95C1893.49,1478.23 1912.59,1470.34 1936.16,1470.34Z" style="fill:rgb(251,210,207);fill-rule:nonzero;"/>
            <path d="M2148.8,1458.78C2171.31,1450.58 2194.89,1445.3 2218.78,1443.33C2225.57,1442.77 2232.38,1442.47 2239.19,1442.42C2243.54,1442.38 2243.55,1435.61 2239.19,1435.65C2214.74,1435.84 2190.29,1439.27 2166.74,1445.88C2160.08,1447.75 2153.5,1449.88 2147,1452.25C2145.28,1452.88 2144.12,1454.55 2144.63,1456.41C2145.09,1458.07 2147.07,1459.41 2148.8,1458.78Z" style="fill:rgb(26,57,102);fill-rule:nonzero;"/>
            <path d="M2153.99,1487.46C2177.73,1484.62 2201.9,1484.82 2225.56,1488.33C2232.33,1489.34 2239.06,1490.61 2245.74,1492.12C2249.98,1493.08 2251.79,1486.55 2247.54,1485.59C2223.72,1480.21 2199.18,1477.94 2174.78,1478.98C2167.83,1479.28 2160.9,1479.86 2153.99,1480.68C2152.18,1480.9 2150.61,1482.09 2150.61,1484.07C2150.61,1485.73 2152.16,1487.68 2153.99,1487.46Z" style="fill:rgb(26,57,102);fill-rule:nonzero;"/>
            <path d="M2160.03,1472.7C2181.75,1466.62 2204.73,1465.08 2227.06,1468.43C2228.86,1468.7 2230.7,1467.98 2231.22,1466.07C2231.66,1464.47 2230.68,1462.18 2228.86,1461.9C2205.29,1458.36 2181.19,1459.74 2158.23,1466.17C2154.04,1467.35 2155.82,1473.88 2160.03,1472.7Z" style="fill:rgb(26,57,102);fill-rule:nonzero;"/>
            <path d="M1916.3,1447.5C1892.94,1440.43 1868.63,1436.47 1844.23,1435.76C1837.27,1435.56 1830.3,1435.63 1823.34,1435.96C1819,1436.17 1818.98,1442.94 1823.34,1442.74C1847.25,1441.6 1871.25,1443.6 1894.61,1448.8C1901.31,1450.29 1907.94,1452.04 1914.5,1454.03C1918.68,1455.3 1920.47,1448.76 1916.3,1447.5Z" style="fill:rgb(26,57,102);fill-rule:nonzero;"/>
            <path d="M1910.89,1476.23C1886.47,1474.67 1861.85,1476.4 1837.87,1481.31C1831.1,1482.7 1824.4,1484.35 1817.75,1486.24C1813.57,1487.43 1815.35,1493.97 1819.55,1492.77C1842.64,1486.2 1866.51,1482.7 1890.51,1482.45C1897.31,1482.37 1904.11,1482.57 1910.89,1483C1912.72,1483.12 1914.28,1481.36 1914.28,1479.61C1914.28,1477.68 1912.73,1476.35 1910.89,1476.23Z" style="fill:rgb(26,57,102);fill-rule:nonzero;"/>
            <path d="M1905.86,1462.02C1882.58,1456.87 1858.44,1456.72 1835.1,1461.56C1833.31,1461.93 1832.27,1464.04 1832.73,1465.72C1833.24,1467.58 1835.1,1468.46 1836.9,1468.09C1859.01,1463.5 1882.01,1463.67 1904.06,1468.55C1908.3,1469.49 1910.12,1462.97 1905.86,1462.02Z" style="fill:rgb(26,57,102);fill-rule:nonzero;"/>
            <path d="M2029.7,1468.9C2029.42,1468.68 2029.15,1468.44 2028.88,1468.2C2026.52,1466.1 2017.93,1459.39 2023.89,1456.48C2027.54,1454.7 2032.63,1455.33 2036.51,1455.83C2037.56,1455.96 2038.61,1456.11 2039.65,1456.34C2044.08,1457.35 2043.54,1460.63 2041.13,1463.57C2039.07,1466.08 2035.34,1470.72 2031.58,1469.89C2030.88,1469.73 2030.27,1469.35 2029.7,1468.9Z" style="fill:rgb(26,57,102);fill-rule:nonzero;"/>
            <path d="M2029.26,1460.34L2029.26,1485.39C2029.26,1489.75 2036.03,1489.75 2036.03,1485.39L2036.03,1460.34C2036.03,1455.98 2029.26,1455.98 2029.26,1460.34Z" style="fill:rgb(26,57,102);fill-rule:nonzero;"/>
            <path d="M1949.59,1462.54C1948.7,1454.48 1954.23,1446.66 1962.01,1444.44C1970.33,1442.07 1979.15,1445.98 1984.49,1452.43C1985.65,1453.84 1988.07,1453.64 1989.28,1452.43C1990.67,1451.04 1990.45,1449.06 1989.28,1447.64C1982.37,1439.3 1970.31,1434.75 1959.74,1438.05C1949.56,1441.23 1941.62,1451.68 1942.82,1462.54C1943.02,1464.36 1944.23,1465.93 1946.21,1465.93C1947.88,1465.93 1949.79,1464.37 1949.59,1462.54Z" style="fill:rgb(26,57,102);fill-rule:nonzero;"/>
            <path d="M2121.97,1462.54C2123.17,1451.68 2115.23,1441.23 2105.05,1438.05C2094.48,1434.75 2082.42,1439.3 2075.52,1447.64C2074.35,1449.05 2074.14,1451.05 2075.52,1452.43C2076.72,1453.63 2079.13,1453.85 2080.3,1452.43C2085.64,1445.98 2094.46,1442.07 2102.78,1444.44C2110.56,1446.66 2116.09,1454.48 2115.2,1462.54C2115,1464.36 2116.9,1465.93 2118.59,1465.93C2120.58,1465.93 2121.77,1464.37 2121.97,1462.54Z" style="fill:rgb(26,57,102);fill-rule:nonzero;"/>
        </g>
    </g>
</svg>
