<?xml version="1.0" encoding="UTF-8" standalone="no"?>
<!DOCTYPE svg PUBLIC "-//W3C//DTD SVG 1.1//EN" "http://www.w3.org/Graphics/SVG/1.1/DTD/svg11.dtd">
<svg width="100%" height="100%" viewBox="0 0 2462 3717" version="1.1" xmlns="http://www.w3.org/2000/svg" xmlns:xlink="http://www.w3.org/1999/xlink" xml:space="preserve" xmlns:serif="http://www.serif.com/" style="fill-rule:evenodd;clip-rule:evenodd;stroke-linejoin:round;stroke-miterlimit:2;">
    <g transform="matrix(1,0,0,1,-567.211,-1177.81)">
        <g transform="matrix(4.16667,0,0,4.16667,0,0)">
            <path d="M619.233,1004.31C618.71,1012.22 614.987,1019.73 610.257,1026.03C576.534,994.772 617.576,962.172 619.233,1004.31ZM576.582,1046.83C554.138,1051.88 528.483,1047.25 510.007,1033.5L510.003,1033.5C494.414,1022.08 485.619,1000.85 492.835,982.235C494.445,977.611 498.581,974.13 499.631,969.232C516.172,985.867 536.384,1002.18 561.292,1001.95C561.912,1017.54 568.606,1033.02 580.017,1045.94C578.884,1046.26 577.736,1046.56 576.582,1046.83ZM482.332,947.207C482.943,947.118 483.563,947.034 484.169,946.942C484.199,947.069 484.242,947.194 484.275,947.32C483.632,947.249 482.985,947.208 482.332,947.207ZM467.586,954.931C451.479,976.205 450.56,1009.95 464.694,1034.51C434.324,1015.76 418.404,989.646 420.914,951.182C439.179,951.718 459.969,950.157 477.684,947.857C473.754,948.944 470.21,951.379 467.586,954.931ZM717.771,1003.25C701.026,995.469 694.669,1008.88 687.019,1020.75C676.537,1033.51 660.156,1041.41 643.542,1040.33C671.158,1001.96 644.602,932.289 591.61,952.104C590.264,945.128 588.412,939.068 586.389,932.664C621.642,913.724 647.456,861.239 611.755,827.223C615.875,763.915 603.931,700.314 592.675,646.524C616.603,624.504 619.213,584.502 588.328,568.315C592.553,562.453 595.563,555.636 597.327,547.935C604.783,543.12 605.89,530.605 599.029,524.865C598.57,516.94 597.185,507.891 594.878,500.034C600.552,491.359 594.749,478.352 584.359,477.404C572.928,460.779 555.999,451.294 535.979,447.481C527.036,421.903 505.411,376.658 473.638,383.254C480.918,366.668 489.894,346.752 486.286,328.022C480.469,293.25 439.025,288.726 418.029,316.466C402.777,264.379 353.478,275.93 349.82,327.719C335.805,320.551 318.807,323.579 307.718,334.392L306.136,335.957C293.436,349.2 291.173,367.847 297.252,385.729C263.974,404.793 257.125,443.87 243.994,477.727C234.961,477.181 226.067,477.139 217.005,477.567C199.127,478.189 198.08,505.475 215.902,507.184C213.51,511.243 213.162,516.29 215.006,520.584C188.42,523.611 197.425,559.774 222.173,549.415C214.354,577.054 207.587,603.427 201.715,629.153C159.913,640.151 148.56,703.439 183.272,728.263C180.775,747.083 179.172,764.638 178.4,781.604C137.066,792.829 124.721,843.791 147.26,876.574C158.835,895.322 185.691,908.421 212.993,912.12C214.152,913.121 215.34,914.094 216.554,915.035C169.718,1021.35 264.311,1026.1 311.535,949.601C318.004,950.5 324.743,951.037 331.712,951.214C313.432,1009.98 309.361,1079.57 350.427,1127.16C387.528,1174.82 481.84,1198.41 517.672,1141.04C531.28,1120.1 524.421,1091.15 509.854,1074.31C542.066,1088.8 583.734,1088.12 613.818,1069.69C628.929,1075.68 645.727,1077.5 661.711,1074.67C685.508,1074.04 750.547,1026.48 717.771,1003.25Z" style="fill:white;fill-rule:nonzero;"/>
            <path d="M230.876,573.785C240.933,526.125 261.765,467.623 282.355,422.337C288.348,409.154 293.283,402.016 307.124,397.759C322.073,393.16 334.913,408.55 343.22,421.801C351.528,435.052 346.078,430.033 355.543,439.498C379.567,437.687 410.878,441.309 434.901,439.498C447.296,417.331 453.492,414.606 467.462,401.919C481.433,389.232 491.402,395.025 507.954,422.106C538.554,497.379 559.41,555.611 574.652,634.277C585.647,696.563 597.716,751.292 597.716,799.521C597.716,820.458 599.352,838.151 591.991,857.752C584.629,877.352 579.79,890.971 561.474,909.287C569.126,922.2 573.141,933.537 575.401,948.376C578.235,966.985 581.601,985.15 566.77,987.464C559.24,988.639 542.084,982.717 535.271,979.3C517.331,970.302 502.713,953.435 491.087,930.892C466.498,937.719 433.046,939.768 406.116,935.218C399.822,972.955 414.144,1013.49 442.75,1038.9C456.774,1051.35 473.736,1060.22 487.416,1073.05C501.095,1085.89 513.888,1105.17 509.16,1123.32C503.42,1145.35 478.201,1158.96 455.45,1159.95C418.868,1161.54 379.543,1141.11 357.843,1111.62C339.758,1087.04 332.403,1055.83 332.146,1025.31C331.889,994.796 344.388,965.189 352.007,938.684C336.751,940.651 316.947,937.615 303.905,931.594C292.804,953.039 277.718,971.844 255.904,982.203C246.415,986.709 234.907,991.412 226.891,984.624C218.883,977.843 216.032,959.825 218.458,949.616C222.155,934.062 225.762,921.979 235.037,909.287C211.89,900.23 201.05,870.55 196.051,846.202C191.052,821.854 193.242,802.994 194.541,778.172C198.687,698.966 216.373,642.519 230.876,573.785Z" style="fill:white;fill-rule:nonzero;"/>
            <path d="M468.081,655.442C455.941,661.762 445.487,670.946 437.364,681.933C429.108,693.101 423.131,706.532 421.389,720.367C420.435,727.936 421.109,735.765 424.461,742.699C427.335,748.644 432.584,753.356 438.669,755.83C444.837,758.339 451.907,757.905 457.536,754.248C463.566,750.33 467.279,744.012 469.906,737.487C473.116,729.515 475.025,721.183 480.111,714.091C484.498,707.972 490.587,703.206 497.425,700.116C498.887,699.456 499.24,697.334 498.491,696.053C497.611,694.549 495.894,694.324 494.427,694.987C488.455,697.685 483.02,701.665 478.632,706.535C473.85,711.841 470.61,717.961 468.187,724.647C464.403,735.088 459.967,752.463 445.6,751.474C440.275,751.108 435.23,747.768 432.005,743.645C427.905,738.406 426.712,731.461 426.945,724.966C427.407,712.104 432.863,699.253 439.895,688.641C447.721,676.832 458.516,667.112 471.079,660.571C474.471,658.805 471.471,653.677 468.081,655.442Z" style="fill:rgb(26,57,102);fill-rule:nonzero;"/>
            <path d="M433.162,725.783C430.214,733.466 429.558,741.798 430.953,749.884C431.226,751.466 433.169,752.354 434.607,751.959C436.279,751.499 436.955,749.892 436.681,748.305C435.466,741.259 436.337,734.016 438.89,727.362C439.465,725.864 438.255,724.104 436.815,723.708C435.141,723.248 433.739,724.279 433.162,725.783Z" style="fill:rgb(26,57,102);fill-rule:nonzero;"/>
            <path d="M448.844,730.439C445.424,738.116 444.336,746.372 445.643,754.674C445.893,756.26 447.875,757.139 449.297,756.749C450.987,756.284 451.621,754.686 451.371,753.095C450.339,746.541 451.262,739.525 453.974,733.437C454.626,731.973 454.399,730.246 452.908,729.374C451.642,728.633 449.501,728.967 448.844,730.439Z" style="fill:rgb(26,57,102);fill-rule:nonzero;"/>
            <path d="M328.278,636.663C350.588,648.279 367.97,670.637 371.917,695.72C372.957,702.336 372.727,709.668 369.767,715.794C367.373,720.746 363.02,724.935 357.756,726.703C352.342,728.52 346.841,727.382 342.626,723.49C337.7,718.942 335.255,712.585 333.126,706.389C331.69,702.211 330.307,698.005 328.404,694.009C326.789,690.615 324.728,687.486 322.373,684.562C317.733,678.8 311.669,674.125 304.93,671.08C303.47,670.42 301.735,670.66 300.867,672.145C300.122,673.418 300.463,675.545 301.932,676.209C308.219,679.05 313.661,683.242 318.028,688.582C322.687,694.281 325.04,701.106 327.398,707.968C329.766,714.86 332.518,721.83 337.78,727.071C342.808,732.079 349.546,734.43 356.562,733.148C362.965,731.978 368.639,727.881 372.482,722.736C376.907,716.811 378.512,709.106 378.373,701.825C378.105,687.832 372.436,673.705 364.841,662.114C356.45,649.309 344.871,638.612 331.277,631.534C327.89,629.771 324.883,634.896 328.278,636.663Z" style="fill:rgb(26,57,102);fill-rule:nonzero;"/>
            <path d="M360.467,703.454C363.02,710.109 363.892,717.352 362.676,724.398C362.404,725.977 363.097,727.597 364.75,728.052C366.18,728.444 368.13,727.566 368.404,725.977C369.799,717.89 369.143,709.559 366.195,701.875C365.621,700.378 364.196,699.346 362.542,699.801C361.11,700.194 359.89,701.949 360.467,703.454Z" style="fill:rgb(26,57,102);fill-rule:nonzero;"/>
            <path d="M345.384,709.53C348.095,715.618 349.018,722.634 347.986,729.188C347.737,730.77 348.391,732.383 350.061,732.841C351.472,733.229 353.463,732.361 353.714,730.767C355.021,722.465 353.933,714.209 350.513,706.532C349.86,705.067 347.725,704.72 346.449,705.466C344.94,706.349 344.728,708.059 345.384,709.53Z" style="fill:rgb(26,57,102);fill-rule:nonzero;"/>
            <path d="M232.691,907.788C228.582,917.103 224.913,926.637 221.77,936.321C218.65,945.935 215.68,956.021 215.707,966.215C215.724,972.493 216.918,979.004 221.31,983.766C225.335,988.131 231.411,990.241 237.241,990.423C244.053,990.635 250.65,988.185 256.676,985.238C262.158,982.556 267.397,979.367 272.321,975.762C283.591,967.513 293.225,957.227 300.641,945.385C302.676,942.136 297.539,939.151 295.512,942.387C289.486,952.009 281.883,960.555 273.083,967.727C268.761,971.25 264.116,974.387 259.271,977.146C254.011,980.142 248.46,982.912 242.472,984.068C237.433,985.041 232.019,984.417 227.709,981.497C223.299,978.509 221.911,973.202 221.69,968.156C221.28,958.764 223.806,949.713 226.63,940.631C229.783,930.49 233.629,920.288 237.821,910.786C238.468,909.32 238.249,907.597 236.755,906.723C235.493,905.984 233.342,906.313 232.691,907.788Z" style="fill:rgb(26,57,102);fill-rule:nonzero;"/>
            <path d="M559.128,910.786C562.797,919.102 566.192,928.002 569.107,936.85C570.695,941.668 572.154,946.536 573.331,951.472C574.347,955.739 575.108,959.578 575.258,963.8C575.441,968.935 575.296,974.894 571.87,979.075C568.743,982.891 563.627,984.526 558.825,984.493C552.69,984.452 546.837,981.968 541.47,979.203C536.428,976.604 531.602,973.587 527.048,970.206C516.875,962.654 508.156,953.115 501.437,942.387C499.412,939.154 494.271,942.133 496.308,945.385C502.804,955.758 511.022,965.052 520.598,972.679C525.425,976.523 530.529,979.999 535.934,982.978C541.695,986.154 547.883,989.106 554.451,990.055C560.47,990.925 566.884,990.159 572.058,986.748C577.533,983.137 580.194,977.415 580.962,971.048C582.203,960.755 579.458,950.291 576.497,940.518C573.12,929.376 568.956,918.438 564.257,907.788C563.61,906.32 561.466,905.978 560.194,906.723C558.68,907.608 558.478,909.313 559.128,910.786Z" style="fill:rgb(26,57,102);fill-rule:nonzero;"/>
            <path d="M290.578,931.521C297.624,935.334 305.707,937.011 313.573,938.093C322.491,939.319 331.504,939.753 340.501,939.594C344.785,939.518 349.068,939.305 353.333,938.895C352.379,937.642 351.424,936.388 350.469,935.135C341.804,956.237 335.869,978.4 332.817,1001.01C329.804,1023.32 329.359,1046.24 334.29,1068.32C338.529,1087.31 347.092,1104.86 359.666,1119.71C371.267,1133.41 386.006,1144.58 402.312,1152.09C419.139,1159.84 437.851,1163.99 456.413,1162.89C476.621,1161.69 497.002,1153.45 507.578,1135.29C512.546,1126.76 514.625,1116.9 512.914,1107.14C511.096,1096.78 505.226,1087.65 498.858,1079.49C487.184,1064.54 471.415,1054.08 456.171,1043.13C448.701,1037.76 441.301,1032.24 434.665,1025.85C428.066,1019.49 422.634,1012.28 418.646,1004.01C410.438,986.997 408.404,967.4 409.307,948.73C409.53,944.126 409.95,939.534 410.538,934.963C410.743,933.369 409.026,931.993 407.568,931.993C405.793,931.993 404.803,933.364 404.598,934.963C402.196,953.638 402.524,973.081 407.614,991.306C410.088,1000.16 413.763,1008.8 418.907,1016.44C423.951,1023.94 430.357,1030.35 437.27,1036.12C451.419,1047.94 467.483,1057.27 481.309,1069.49C488.282,1075.64 494.451,1082.68 499.506,1090.5C504.724,1098.57 508.405,1107.7 507.463,1117.47C506.617,1126.24 502.072,1134.5 496.024,1140.77C489.319,1147.71 480.595,1152.17 471.319,1154.62C453.494,1159.31 434.021,1157.22 416.696,1151.45C400.363,1146.01 385.275,1136.82 372.804,1124.97C360.11,1112.9 350.116,1098.06 344.252,1081.52C336.942,1060.91 335.496,1038.77 337.062,1017.09C338.661,994.972 343.269,973.046 350.426,952.063C352.191,946.889 354.12,941.772 356.197,936.714C356.895,935.015 355.112,932.784 353.333,932.955C345.506,933.707 337.608,933.845 329.753,933.547C321.31,933.228 312.814,932.427 304.596,930.393C300.669,929.421 296.997,928.243 293.576,926.392C290.214,924.573 287.211,929.699 290.578,931.521Z" style="fill:rgb(26,57,102);fill-rule:nonzero;"/>
            <path d="M498.083,926.093C493.741,927.556 489.159,928.358 484.652,929.112C478.164,930.197 472.259,930.922 465.61,931.603C451.735,933.025 437.718,933.966 423.765,933.66C420.689,933.593 417.612,933.457 414.55,933.155C413.916,933.093 413.283,933.02 412.65,932.943C412.578,932.935 412.188,932.883 412.595,932.937C413.056,932.999 412.423,932.912 412.329,932.898C412.047,932.855 411.765,932.813 411.484,932.767C410.432,932.592 409.386,932.38 408.358,932.099C404.665,931.091 403.089,936.82 406.778,937.827C411.427,939.096 416.408,939.345 421.2,939.525C427.781,939.772 434.377,939.636 440.955,939.353C455.243,938.737 469.553,937.449 483.688,935.25C489.038,934.418 494.514,933.555 499.662,931.821C503.265,930.606 501.72,924.867 498.083,926.093Z" style="fill:rgb(26,57,102);fill-rule:nonzero;"/>
            <path d="M477.094,962.218C465.48,977.937 463.919,999.645 470.074,1017.82C476.487,1036.76 491.016,1051.67 508.588,1060.79C526.818,1070.26 548.161,1074.33 568.597,1072.31C589.44,1070.26 609.557,1061.96 624.05,1046.52C630.831,1039.3 636.134,1030.88 639.564,1021.58C642.708,1013.05 643.584,1004.2 642.312,995.227C641.128,986.867 637.771,978.938 632.471,972.365C627.062,965.657 619.222,961.552 610.674,960.77C600.91,959.877 591.136,964.563 584.407,971.421C577.107,978.86 573.221,988.789 573.081,999.171C572.795,1020.33 586.436,1039.5 603.348,1051.03C619.668,1062.16 640.162,1066.63 659.6,1063.2C678.609,1059.84 695.761,1048.66 707.35,1033.37C710.024,1029.85 712.352,1026.08 714.305,1022.11C715.674,1019.33 715.149,1015.56 712.174,1013.98C709.497,1012.57 705.51,1013.14 704.046,1016.11C702.156,1019.96 699.902,1023.58 697.358,1027.02C697.017,1027.49 697.246,1027.61 697.481,1026.87C697.429,1027.03 697.177,1027.26 697.07,1027.39C696.749,1027.79 696.423,1028.19 696.093,1028.59C695.386,1029.44 694.658,1030.27 693.911,1031.08C692.467,1032.66 690.953,1034.17 689.374,1035.61C688.612,1036.3 687.834,1036.98 687.043,1037.64C686.647,1037.97 686.248,1038.3 685.845,1038.62C685.738,1038.71 685.458,1039.02 685.325,1039.04C685.888,1038.61 685.997,1038.52 685.653,1038.78C685.536,1038.87 685.419,1038.96 685.3,1039.05C683.592,1040.34 681.827,1041.55 680.013,1042.68C678.199,1043.81 676.335,1044.86 674.428,1045.83C673.508,1046.29 672.578,1046.74 671.639,1047.17C671.172,1047.38 670.706,1047.62 670.224,1047.79C671.455,1047.34 670.094,1047.84 669.599,1048.03C665.623,1049.59 661.506,1050.79 657.311,1051.58C656.425,1051.75 655.067,1051.7 654.259,1052.09C654.28,1052.08 655.432,1051.95 654.743,1052.02C654.449,1052.05 654.157,1052.09 653.864,1052.13C653.268,1052.19 652.671,1052.25 652.074,1052.3C649.891,1052.48 647.699,1052.55 645.508,1052.52C643.32,1052.48 641.133,1052.34 638.957,1052.1C638.732,1052.07 638.508,1052.05 638.283,1052.02C637.347,1051.91 638.45,1051.9 638.514,1052.05C638.466,1051.94 637.051,1051.83 636.947,1051.81C635.83,1051.63 634.716,1051.42 633.609,1051.18C631.466,1050.72 629.345,1050.17 627.253,1049.51C626.315,1049.22 625.382,1048.91 624.457,1048.58C623.454,1048.22 621.919,1047.93 621.07,1047.27C621.095,1047.29 622.07,1047.71 621.445,1047.43C621.238,1047.34 621.029,1047.25 620.822,1047.16C620.269,1046.91 619.719,1046.66 619.172,1046.4C618.215,1045.95 617.268,1045.48 616.332,1044.98C614.327,1043.92 612.372,1042.77 610.475,1041.53C609.59,1040.95 608.718,1040.35 607.859,1039.74C607.492,1039.47 607.129,1039.2 606.764,1038.93C605.885,1038.28 606.732,1038.94 606.886,1039.03C606.636,1038.88 606.405,1038.66 606.176,1038.47C604.408,1037.06 602.709,1035.56 601.089,1033.97C599.576,1032.5 598.131,1030.95 596.765,1029.34C596.423,1028.93 596.086,1028.52 595.754,1028.11C595.459,1027.75 594.746,1026.76 595.404,1027.68C594.688,1026.68 593.954,1025.7 593.273,1024.67C591.952,1022.68 590.746,1020.62 589.671,1018.49C589.152,1017.46 588.67,1016.41 588.208,1015.35C588.736,1016.56 588.084,1015.01 587.972,1014.72C587.738,1014.11 587.514,1013.49 587.303,1012.87C586.54,1010.63 585.927,1008.34 585.493,1006.02C585.389,1005.46 585.307,1004.9 585.212,1004.34C585.062,1003.46 585.307,1005.37 585.234,1004.48C585.215,1004.24 585.181,1004 585.157,1003.76C585.039,1002.55 584.973,1001.35 584.96,1000.14C584.948,999.009 584.983,997.882 585.068,996.757C585.103,996.29 585.047,995.518 585.232,995.072C585.172,995.216 585.017,996.391 585.222,995.21C585.277,994.891 585.329,994.571 585.388,994.252C585.785,992.126 586.41,990.096 587.178,988.078C587.474,987.302 586.713,989.056 587.086,988.315C587.182,988.123 587.264,987.924 587.356,987.731C587.571,987.278 587.798,986.831 588.034,986.389C588.54,985.441 589.092,984.517 589.686,983.621C589.963,983.203 590.251,982.791 590.547,982.386C591.423,981.185 590.112,982.86 590.802,982.057C591.503,981.242 592.2,980.433 592.959,979.669C593.661,978.961 594.395,978.285 595.159,977.643C595.322,977.506 595.487,977.372 595.652,977.236C596.49,976.542 595.543,977.276 595.457,977.383C595.771,976.989 596.419,976.69 596.844,976.407C597.663,975.863 598.509,975.358 599.377,974.896C599.809,974.667 600.247,974.448 600.69,974.241C600.84,974.171 601.144,974.094 601.261,973.98C600.546,974.276 600.394,974.341 600.805,974.176C600.934,974.123 601.064,974.073 601.194,974.024C602.102,973.679 603.027,973.383 603.967,973.139C604.436,973.017 604.908,972.907 605.384,972.813C605.587,972.772 605.792,972.735 605.996,972.699C607.112,972.506 606.12,972.455 605.858,972.704C606.224,972.356 608.282,972.548 608.777,972.554C609.27,972.559 609.761,972.58 610.252,972.616C610.464,972.631 610.674,972.653 610.886,972.67C612.287,972.78 609.944,972.464 610.643,972.631C612.347,973.037 613.987,973.384 615.645,973.978C616.618,974.326 614.503,973.408 615.673,973.999C616.035,974.182 616.404,974.351 616.764,974.541C617.531,974.948 618.275,975.395 618.996,975.878C619.333,976.104 619.659,976.343 619.989,976.578C620.816,977.167 618.952,975.682 620.016,976.619C620.675,977.198 621.33,977.77 621.949,978.393C622.53,978.977 623.086,979.587 623.618,980.217C623.767,980.394 624.677,981.512 624.046,980.727C623.432,979.961 624.409,981.243 624.537,981.427C625.545,982.872 626.442,984.395 627.232,985.97C627.426,986.355 627.613,986.745 627.794,987.136C627.872,987.305 627.945,987.475 628.024,987.643C628.291,988.21 627.917,988.079 627.867,987.251C627.915,988.038 628.596,989.12 628.856,989.884C629.445,991.62 629.926,993.393 630.301,995.187C630.484,996.06 630.629,996.938 630.774,997.818C630.952,998.891 630.631,996.435 630.788,997.944C630.84,998.452 630.895,998.958 630.936,999.467C631.085,1001.3 631.127,1003.15 631.057,1004.99C631.023,1005.88 630.964,1006.76 630.878,1007.64C630.844,1007.98 630.71,1008.43 630.753,1008.76C630.62,1007.73 630.907,1007.73 630.811,1008.3C630.759,1008.61 630.713,1008.92 630.66,1009.23C630.316,1011.19 629.821,1013.13 629.242,1015.04C628.941,1016.04 628.613,1017.03 628.26,1018C628.109,1018.42 627.954,1018.84 627.794,1019.25C627.687,1019.53 627.575,1019.8 627.467,1020.08C627.167,1020.85 627.578,1020.18 627.555,1019.89C627.584,1020.26 626.986,1021.18 626.831,1021.52C626.645,1021.92 626.454,1022.32 626.259,1022.72C625.738,1023.79 625.188,1024.84 624.609,1025.87C623.595,1027.69 622.493,1029.45 621.314,1031.16C620.83,1031.86 620.201,1033.24 619.482,1033.69C620.136,1033.28 619.946,1033.11 619.591,1033.55C619.451,1033.73 619.313,1033.9 619.172,1034.07C618.752,1034.6 618.324,1035.11 617.888,1035.62C616.532,1037.21 615.104,1038.74 613.614,1040.21C612.068,1041.73 610.455,1043.18 608.781,1044.55C608.376,1044.89 607.967,1045.21 607.558,1045.54C606.667,1046.25 607.623,1045.54 607.695,1045.43C607.6,1045.58 607.297,1045.73 607.156,1045.84C606.257,1046.51 605.342,1047.16 604.414,1047.78C600.646,1050.33 596.654,1052.48 592.507,1054.34C591.466,1054.81 592.289,1054.44 592.502,1054.36C592.264,1054.46 592.025,1054.55 591.786,1054.65C591.228,1054.88 590.668,1055.1 590.106,1055.31C588.901,1055.77 587.684,1056.2 586.459,1056.6C584.089,1057.38 581.686,1058.05 579.258,1058.62C576.826,1059.2 574.37,1059.67 571.9,1060.04C571.718,1060.07 570.632,1060.23 571.408,1060.11C572.127,1060.01 571.271,1060.13 571.171,1060.14C570.571,1060.22 569.971,1060.29 569.37,1060.35C568.082,1060.49 566.79,1060.6 565.497,1060.69C560.489,1061.02 555.457,1060.98 550.454,1060.59C549.247,1060.49 548.041,1060.38 546.838,1060.24C546.237,1060.17 545.636,1060.1 545.036,1060.02C544.334,1059.94 545.252,1060.05 545.331,1060.06C544.904,1060 544.477,1059.94 544.05,1059.87C541.839,1059.53 539.64,1059.12 537.455,1058.64C533.089,1057.69 528.782,1056.45 524.579,1054.93C523.565,1054.56 522.556,1054.17 521.554,1053.77C521.331,1053.68 519.836,1053.06 520.554,1053.37C521.25,1053.66 520.528,1053.36 520.414,1053.31C520.062,1053.15 519.709,1053 519.357,1052.84C517.326,1051.93 515.325,1050.95 513.364,1049.89C509.548,1047.84 505.488,1045.56 502.194,1042.72C503.074,1043.48 502.173,1042.7 501.779,1042.38C501.365,1042.05 500.953,1041.71 500.545,1041.37C499.672,1040.64 498.816,1039.88 497.976,1039.11C496.354,1037.62 494.798,1036.06 493.317,1034.43C492.601,1033.65 491.903,1032.84 491.224,1032.02C490.884,1031.61 490.557,1031.19 490.219,1030.78C489.794,1030.26 490.415,1031.04 490.446,1031.08C490.202,1030.79 489.985,1030.47 489.759,1030.16C488.461,1028.4 487.249,1026.58 486.144,1024.7C485.045,1022.82 484.05,1020.89 483.157,1018.9C483.065,1018.7 482.975,1018.49 482.883,1018.29C482.624,1017.71 482.463,1017.99 482.953,1018.46C482.709,1018.23 482.576,1017.53 482.452,1017.21C482.018,1016.08 481.616,1014.95 481.247,1013.81C480.6,1011.8 480.053,1009.77 479.609,1007.71C479.386,1006.69 479.19,1005.65 479.019,1004.62C478.988,1004.43 478.735,1002.76 478.86,1003.63C478.983,1004.49 478.849,1003.52 478.824,1003.3C478.781,1002.93 478.74,1002.56 478.703,1002.19C478.278,997.882 478.333,993.562 478.816,989.265C478.948,988.089 478.653,990.254 478.843,989.086C478.926,988.576 479.006,988.066 479.098,987.557C479.295,986.47 479.525,985.388 479.788,984.315C480.297,982.245 480.931,980.207 481.692,978.216C481.797,977.942 481.912,977.671 482.014,977.396C482.259,976.741 481.853,977.809 481.838,977.798C481.793,977.763 482.407,976.525 482.47,976.39C482.907,975.456 483.373,974.537 483.869,973.634C484.905,971.748 486.074,969.944 487.352,968.214C489.206,965.705 487.85,961.476 485.221,960.087C482.119,958.448 479.072,959.54 477.094,962.218Z" style="fill:rgb(242,107,96);fill-rule:nonzero;"/>
            <path d="M341.352,448.597C355.739,445.52 370.288,443.21 384.981,442.283C398.121,441.453 411.307,441.741 424.406,443.064C431.886,443.819 439.323,444.916 446.725,446.227C448.303,446.507 449.926,445.801 450.379,444.153C450.773,442.718 449.892,440.781 448.304,440.499C434.817,438.11 421.19,436.429 407.492,435.988C393.495,435.538 379.514,436.422 365.642,438.298C356.961,439.472 348.339,441.037 339.773,442.869C336.036,443.668 337.617,449.396 341.352,448.597Z" style="fill:rgb(26,57,102);fill-rule:nonzero;"/>
            <path d="M249.662,913.119C237.342,908.68 225.437,901.388 217.088,891.166C210.436,883.021 206.172,873.047 203.191,863.045C196.927,842.033 195.702,819.699 195.931,797.882C196.367,756.429 202.609,715.082 210.527,674.469C218.505,633.548 228.583,593.038 239.942,552.931C248.037,524.352 256.717,495.904 266.452,467.837C271.415,453.526 276.598,439.124 283.977,425.862C287.227,420.021 290.888,414.215 295.447,409.298C299.572,404.849 304.972,400.621 311.349,400.731C317.69,400.839 323.126,405.119 327.581,409.214C332.69,413.909 337.426,419.032 341.778,424.434C345.99,429.663 349.77,435.226 353.198,440.997C355.148,444.281 360.286,441.297 358.327,437.999C351.11,425.848 342.197,414.587 331.781,405.013C327.133,400.741 321.756,396.58 315.439,395.263C308.972,393.915 302.607,395.833 297.343,399.662C286.592,407.481 279.579,420.48 274.065,432.267C270.272,440.374 267.009,448.732 263.953,457.142C254.659,482.718 246.623,508.784 238.962,534.888C227.108,575.277 216.549,616.079 207.949,657.289C199.076,699.803 191.9,743.059 190.268,786.524C189.456,808.13 189.998,830.058 194.205,851.322C196.479,862.818 199.947,874.26 205.61,884.571C211.348,895.018 219.563,903.391 229.585,909.813C235.379,913.528 241.611,916.515 248.083,918.847C251.686,920.145 253.238,914.407 249.662,913.119Z" style="fill:rgb(26,57,102);fill-rule:nonzero;"/>
            <path d="M542.799,918.847C555.458,914.286 567.834,907.058 576.755,896.835C583.954,888.588 588.823,878.617 592.265,868.288C599.495,846.588 601.003,823.099 600.91,800.362C600.735,757.69 594.289,715.045 586.153,673.245C577.946,631.078 567.511,589.347 555.728,548.045C547.554,519.392 538.826,490.85 528.93,462.74C522.898,445.606 516.461,428.124 505.992,413.155C498.967,403.11 488.553,392.255 475.042,395.356C468.61,396.832 463.198,401.18 458.482,405.589C453.396,410.344 448.67,415.494 444.337,420.943C440.027,426.361 436.091,432.046 432.556,437.999C430.599,441.294 435.732,444.285 437.685,440.997C444.794,429.028 453.572,417.971 463.929,408.641C468.429,404.588 473.978,400.502 480.339,400.738C486.67,400.973 491.961,405.414 495.993,409.91C505.081,420.043 511.082,433.037 516.143,445.536C518.297,450.857 520.322,456.229 522.25,461.635C531.487,487.518 539.605,513.823 547.285,540.204C558.723,579.489 568.931,619.162 577.28,659.222C585.838,700.288 592.759,741.992 594.571,783.959C595.463,804.614 595.222,825.603 591.644,846.013C589.632,857.49 586.599,869.013 581.277,879.433C576.065,889.638 568.656,897.896 559.057,904.193C553.48,907.852 547.495,910.858 541.22,913.119C537.651,914.405 539.191,920.147 542.799,918.847Z" style="fill:rgb(26,57,102);fill-rule:nonzero;"/>
            <path d="M406.187,464.604C412.101,470.152 419.369,473.998 427.256,475.868C434.959,477.694 442.985,477.91 450.848,477.28C458.864,476.638 466.81,475.249 474.702,473.74C478.266,473.059 481.825,472.351 485.394,471.701C487.099,471.391 488.806,471.094 490.517,470.826C491.279,470.706 492.043,470.604 492.805,470.486C493.471,470.383 492.018,470.588 492.089,470.581C492.26,470.564 492.431,470.535 492.602,470.514C493.052,470.459 493.502,470.403 493.953,470.352C502.048,469.441 510.277,469.126 518.414,469.527C520.538,469.631 522.659,469.791 524.775,470.015C525.301,470.071 525.827,470.13 526.352,470.194C526.577,470.221 526.801,470.252 527.026,470.279C527.73,470.363 526.578,470.231 526.567,470.217C526.689,470.382 527.953,470.422 528.129,470.449C528.647,470.531 529.165,470.617 529.682,470.707C533.761,471.422 537.796,472.421 541.707,473.789C542.602,474.102 543.49,474.434 544.371,474.786C544.442,474.815 544.92,475.064 544.977,475.032C544.96,475.042 543.939,474.578 544.562,474.858C545.091,475.097 545.624,475.328 546.149,475.574C547.984,476.435 549.774,477.392 551.503,478.449C552.307,478.94 553.098,479.453 553.873,479.987C554.232,480.235 554.588,480.487 554.94,480.743C555.152,480.897 555.448,481.074 555.641,481.263C555.349,480.977 554.92,480.685 555.476,481.139C557.087,482.453 558.638,483.827 560.084,485.322C560.8,486.063 561.492,486.826 562.159,487.611C562.517,488.032 562.857,488.468 563.212,488.891C562.465,488.002 563.31,489.026 563.569,489.383C564.866,491.167 566.046,493.033 567.114,494.962C567.611,495.86 568.084,496.77 568.533,497.693C568.776,498.19 569.011,498.692 569.24,499.196C569.426,499.606 569.938,500.84 569.494,499.74C570.329,501.81 571.095,503.901 571.749,506.036C573.045,510.268 573.899,514.582 574.586,518.949C574.695,519.644 574.547,518.611 574.536,518.562C574.6,518.868 574.618,519.204 574.656,519.516C574.713,519.993 574.767,520.47 574.818,520.948C574.943,522.134 575.048,523.323 575.133,524.513C575.28,526.581 575.36,528.654 575.358,530.728C575.356,532.892 575.264,535.057 575.061,537.212C575.018,537.673 574.965,538.133 574.916,538.593C574.785,539.818 574.983,538.465 574.952,538.387C575.003,538.514 574.872,538.932 574.851,539.07C574.688,540.128 574.496,541.182 574.269,542.228C573.821,544.295 573.241,546.334 572.501,548.316C572.422,548.527 572.339,548.735 572.261,548.946C571.991,549.664 572.415,549.192 572.345,548.77C572.389,549.037 571.908,549.741 571.788,549.992C571.338,550.931 570.845,551.852 570.311,552.746C569.831,553.549 569.276,554.733 568.575,555.353C568.601,555.33 569.251,554.524 568.818,555.041C568.673,555.214 568.535,555.393 568.39,555.566C568.002,556.031 567.597,556.479 567.184,556.923C565.067,559.198 564.762,563.1 567.184,565.323C569.485,567.436 573.324,567.753 575.585,565.323C588.739,551.184 588.732,529.872 585.419,511.988C583.729,502.865 580.586,493.761 575.558,485.921C570.592,478.177 563.842,471.715 555.815,467.202C540.361,458.513 521.862,456.849 504.462,457.671C496.73,458.037 489.093,458.981 481.484,460.383C473.943,461.773 466.439,463.37 458.85,464.494C458.365,464.565 457.88,464.634 457.394,464.703C456.235,464.869 458.469,464.568 457.308,464.715C456.266,464.847 455.225,464.974 454.181,465.086C452.243,465.294 450.3,465.461 448.353,465.571C444.537,465.789 440.703,465.796 436.893,465.467C436.425,465.427 435.958,465.381 435.492,465.331C435.209,465.3 433.758,465.121 434.693,465.241C435.682,465.368 434.1,465.143 433.906,465.111C433.384,465.025 432.864,464.931 432.345,464.83C430.542,464.477 428.758,464.027 427.008,463.469C426.199,463.211 425.399,462.929 424.607,462.623C424.364,462.529 424.123,462.426 423.879,462.335C423.255,462.102 424.418,462.542 424.395,462.553C424.198,462.645 423.16,461.989 422.97,461.897C421.305,461.091 419.698,460.166 418.167,459.127C417.779,458.863 417.395,458.591 417.016,458.312C415.903,457.494 417.571,458.793 416.769,458.12C416.027,457.497 415.296,456.867 414.588,456.203C412.321,454.076 408.405,453.787 406.187,456.203C404.068,458.512 403.767,462.333 406.187,464.604Z" style="fill:rgb(242,107,96);fill-rule:nonzero;"/>
            <path d="M198.746,642.125C190.555,648.138 183.067,655.532 178.769,664.885C174.481,674.216 173.439,684.175 175.296,694.253C176.716,701.953 180.017,709.047 185.479,714.709C190.483,719.897 196.791,723.412 203.402,726.111C217.354,731.805 233.075,733.14 248,733.5C261.896,733.836 275.813,733.04 289.685,732.268C340.168,729.46 390.447,721.437 439.333,708.54C480.916,697.569 523.209,683.499 558.922,658.929C567.878,652.768 576.5,645.959 584.252,638.326C588.664,633.981 592.488,628.801 595.16,623.208C598.133,616.987 600.112,610.045 599.361,603.095C598.474,594.892 594.34,587.709 587.876,582.588C583.702,579.281 579.174,576.931 574.266,574.9C571.386,573.708 567.611,576.186 566.959,579.049C566.17,582.512 568.023,585.08 571.107,586.356C570.241,585.998 572.133,586.817 572.042,586.775C572.599,587.031 573.152,587.296 573.7,587.571C574.736,588.091 575.754,588.644 576.748,589.239C577.597,589.747 578.429,590.283 579.238,590.852C579.589,591.099 579.937,591.35 580.278,591.61C579.191,590.78 580.803,592.079 580.984,592.24C582.235,593.343 583.379,594.549 584.425,595.847C583.418,594.598 584.942,596.671 585.174,597.05C585.662,597.851 586.055,598.688 586.48,599.522C585.694,597.979 586.569,599.799 586.723,600.266C586.96,600.986 587.16,601.718 587.322,602.459C587.402,602.825 587.449,603.201 587.535,603.564C587.839,604.852 587.473,602.146 587.521,603.466C587.548,604.21 587.636,604.949 587.644,605.696C587.651,606.44 587.625,607.185 587.569,607.928C587.544,608.254 587.574,608.736 587.462,609.043C587.998,607.58 587.566,608.406 587.462,608.946C587.178,610.431 586.852,611.893 586.4,613.338C586.173,614.062 585.923,614.779 585.653,615.488C585.518,615.843 585.364,616.192 585.232,616.548C585.755,615.139 585.535,615.864 585.38,616.177C584.65,617.652 583.96,619.13 583.13,620.555C582.444,621.734 581.707,622.885 580.927,624.005C580.52,624.589 580.125,625.242 579.643,625.767C580.896,624.401 579.352,626.109 579.023,626.5C576.665,629.305 573.957,631.799 571.243,634.252C567.735,637.422 563.354,641.045 560.195,643.432C527.497,668.134 489.28,682.086 450.266,693.216C404.452,706.287 357.449,714.963 310.121,718.956C293.898,720.325 277.566,721.282 261.282,721.622C254.261,721.768 247.23,721.717 240.218,721.3C236.543,721.081 232.873,720.762 229.219,720.306C228.935,720.27 227.382,720.053 228.986,720.28C228.534,720.216 228.083,720.153 227.632,720.087C226.885,719.976 226.138,719.859 225.392,719.735C223.55,719.428 221.714,719.081 219.89,718.684C216.573,717.962 213.287,717.081 210.077,715.974C209.285,715.701 208.497,715.415 207.715,715.113C207.329,714.964 206.946,714.807 206.56,714.655C205.226,714.128 207.764,715.208 206.467,714.613C205.003,713.941 203.551,713.259 202.139,712.481C200.885,711.789 199.66,711.042 198.476,710.235C198.104,709.98 196.106,708.437 197.516,709.581C196.879,709.064 196.244,708.548 195.634,708C194.567,707.041 193.559,706.017 192.623,704.93C192.38,704.647 192.152,704.352 191.909,704.07C192.997,705.333 192.146,704.392 191.934,704.085C191.507,703.469 191.078,702.858 190.684,702.219C190.287,701.577 189.914,700.919 189.566,700.248C189.391,699.909 189.228,699.564 189.059,699.222C189.002,699.107 188.482,697.938 188.888,698.876C189.296,699.817 188.793,698.626 188.75,698.506C188.615,698.137 188.476,697.769 188.35,697.397C187.979,696.303 187.672,695.187 187.394,694.065C187.127,692.985 186.895,691.896 186.7,690.801C186.613,690.314 186.531,689.826 186.462,689.337C186.637,690.574 186.403,688.687 186.395,688.603C186.184,686.365 186.141,684.112 186.288,681.869C186.323,681.322 186.383,680.779 186.428,680.234C186.574,678.468 186.182,681.398 186.504,679.665C186.701,678.607 186.891,677.554 187.151,676.509C187.386,675.559 187.659,674.618 187.965,673.688C188.104,673.265 188.249,672.845 188.402,672.428C188.481,672.214 189.333,670.209 188.807,671.37C189.664,669.48 190.631,667.651 191.738,665.895C192.277,665.04 192.843,664.204 193.436,663.386C193.481,663.324 194.601,661.883 193.86,662.809C194.332,662.219 194.815,661.639 195.31,661.069C196.712,659.458 198.211,657.931 199.783,656.484C200.67,655.668 201.581,654.877 202.512,654.11C203.723,653.113 203.681,653.162 204.743,652.383C207.325,650.487 208.613,647.23 206.874,644.256C205.383,641.708 201.347,640.216 198.746,642.125Z" style="fill:rgb(242,107,96);fill-rule:nonzero;"/>
            <path d="M179.504,793.793C171.123,797.259 163.366,802.086 157.709,809.303C152.909,815.427 149.693,822.616 148.545,830.331C146.517,843.962 149.499,858.694 157.128,870.258C168.016,886.76 187.78,895.176 206.469,899.078C229.951,903.98 254.725,904.391 278.521,901.889C303.431,899.271 327.575,893.075 350.845,883.859C373.614,874.841 395.431,863.699 417.518,853.172C459.196,833.31 506.639,814.181 553.624,823.595C563.978,825.669 573.077,828.64 581.859,833.884C586.318,836.546 589.464,838.856 593.137,842.399C596.648,845.786 598.781,848.367 601.144,852.529C602.366,854.681 602.968,856.003 603.595,857.818C604.332,859.948 604.911,862.166 605.214,864.403C605.062,863.276 605.284,865.324 605.283,865.316C605.332,865.949 605.364,866.583 605.38,867.218C605.407,868.346 605.382,869.475 605.306,870.601C605.156,872.802 604.78,874.705 604.027,877.275C601.365,886.352 595.098,894.336 588.248,901.288C584.614,904.976 580.752,908.428 576.81,911.782C574.365,913.862 574.67,918.043 576.81,920.183C579.232,922.605 582.76,922.268 585.211,920.183C600.925,906.811 617.8,889.397 617.26,867.218C616.753,846.394 600.848,830.052 583.228,821.07C562.74,810.625 538.454,808.069 515.786,809.946C491.753,811.937 468.38,818.601 446.066,827.552C401.207,845.547 359.73,872.027 312.514,883.912C288.535,889.949 263.748,892.331 239.054,891.093C218.606,890.068 196.612,887.426 179.263,875.725C175.718,873.333 172.31,870.375 169.275,866.822C169.017,866.52 167.785,864.855 168.874,866.369C168.481,865.823 168.078,865.285 167.699,864.728C166.871,863.508 166.108,862.245 165.403,860.95C164.691,859.641 164.11,858.281 163.453,856.948C164.194,858.45 163.256,856.441 163.106,856.047C162.804,855.253 162.52,854.451 162.254,853.643C161.248,850.583 160.549,847.454 160.056,844.272C160.317,845.96 159.953,843.197 159.915,842.741C159.853,841.994 159.807,841.246 159.778,840.497C159.708,838.69 159.735,836.878 159.868,835.074C159.924,834.318 160.006,833.566 160.091,832.813C159.903,834.475 160.223,832.101 160.301,831.689C160.641,829.884 161.097,828.101 161.674,826.357C161.918,825.622 162.194,824.903 162.467,824.179C163.019,822.717 161.911,825.289 162.601,823.881C162.773,823.529 162.932,823.171 163.105,822.82C163.915,821.176 164.844,819.592 165.885,818.084C166.162,817.682 166.451,817.288 166.741,816.894C166.607,817.075 166.004,817.777 166.723,816.927C167.375,816.157 168.023,815.389 168.718,814.657C170.046,813.26 171.476,811.955 172.991,810.762C172.018,811.528 173.47,810.424 173.547,810.369C173.929,810.097 174.315,809.832 174.705,809.571C175.586,808.982 176.487,808.424 177.406,807.894C178.275,807.394 179.159,806.92 180.055,806.471C180.611,806.193 181.171,805.924 181.735,805.665C181.651,805.704 183.548,804.883 182.662,805.249C185.625,804.024 187.736,801.308 186.811,797.941C186.042,795.141 182.487,792.559 179.504,793.793Z" style="fill:rgb(242,107,96);fill-rule:nonzero;"/>
            <path d="M487.236,519.82C507.904,519.82 524.659,526.734 524.659,535.264C524.659,543.794 507.904,550.708 487.236,550.708C466.568,550.708 449.813,543.794 449.813,535.264C449.813,526.734 466.568,519.82 487.236,519.82Z" style="fill:rgb(251,210,207);fill-rule:nonzero;"/>
            <path d="M316.698,519.82C337.366,519.82 354.121,526.734 354.121,535.264C354.121,543.794 337.366,550.708 316.698,550.708C296.03,550.708 279.275,543.794 279.275,535.264C279.275,526.734 296.03,519.82 316.698,519.82Z" style="fill:rgb(251,210,207);fill-rule:nonzero;"/>
            <path d="M503.223,509.675C522.974,502.481 543.659,497.852 564.613,496.123C570.569,495.632 576.54,495.371 582.515,495.323C586.335,495.293 586.344,489.353 582.515,489.383C561.067,489.554 539.617,492.564 518.964,498.361C513.12,500 507.346,501.87 501.644,503.947C500.137,504.495 499.12,505.964 499.569,507.6C499.969,509.053 501.708,510.226 503.223,509.675Z" style="fill:rgb(26,57,102);fill-rule:nonzero;"/>
            <path d="M507.78,534.829C528.606,532.338 549.803,532.518 570.558,535.6C576.498,536.482 582.401,537.595 588.258,538.919C591.981,539.76 593.571,534.034 589.838,533.19C568.941,528.469 547.421,526.478 526.014,527.398C519.919,527.66 513.838,528.165 507.78,528.889C506.188,529.08 504.81,530.118 504.81,531.859C504.81,533.317 506.177,535.021 507.78,534.829Z" style="fill:rgb(26,57,102);fill-rule:nonzero;"/>
            <path d="M513.075,521.888C532.134,516.549 552.286,515.197 571.873,518.142C573.457,518.381 575.066,517.745 575.527,516.068C575.912,514.665 575.048,512.654 573.452,512.414C552.777,509.306 531.642,510.516 511.496,516.16C507.82,517.19 509.382,522.923 513.075,521.888Z" style="fill:rgb(26,57,102);fill-rule:nonzero;"/>
            <path d="M299.284,499.78C278.793,493.576 257.463,490.101 236.06,489.482C229.952,489.306 223.84,489.372 217.737,489.661C213.931,489.841 213.909,495.782 217.737,495.601C238.707,494.608 259.759,496.36 280.255,500.921C286.128,502.228 291.947,503.765 297.705,505.508C301.371,506.619 302.939,500.887 299.284,499.78Z" style="fill:rgb(26,57,102);fill-rule:nonzero;"/>
            <path d="M294.538,524.98C273.11,523.61 251.518,525.13 230.483,529.439C224.548,530.655 218.663,532.103 212.837,533.762C209.167,534.808 210.727,540.541 214.416,539.49C234.665,533.723 255.605,530.654 276.661,530.434C282.624,530.371 288.587,530.54 294.538,530.92C296.141,531.023 297.509,529.482 297.509,527.95C297.509,526.257 296.146,525.083 294.538,524.98Z" style="fill:rgb(26,57,102);fill-rule:nonzero;"/>
            <path d="M290.121,512.519C269.705,507.999 248.523,507.868 228.05,512.113C226.479,512.439 225.57,514.292 225.976,515.767C226.424,517.398 228.053,518.168 229.629,517.841C249.023,513.82 269.205,513.966 288.542,518.247C292.267,519.072 293.858,513.347 290.121,512.519Z" style="fill:rgb(26,57,102);fill-rule:nonzero;"/>
            <path d="M398.756,518.555C398.509,518.359 398.271,518.149 398.038,517.941C395.96,516.092 388.43,510.214 393.656,507.657C396.857,506.092 401.327,506.653 404.73,507.083C405.649,507.2 406.572,507.332 407.477,507.537C411.37,508.417 410.897,511.299 408.778,513.878C406.973,516.075 403.697,520.151 400.406,519.42C399.792,519.284 399.255,518.949 398.756,518.555Z" style="fill:rgb(26,57,102);fill-rule:nonzero;"/>
            <path d="M398.367,511.044L398.367,533.017C398.367,536.839 404.307,536.846 404.307,533.017L404.307,511.044C404.307,507.222 398.367,507.216 398.367,511.044Z" style="fill:rgb(26,57,102);fill-rule:nonzero;"/>
            <path d="M328.484,512.975C327.701,505.904 332.553,499.039 339.374,497.096C346.679,495.016 354.411,498.448 359.094,504.107C360.117,505.344 362.235,505.166 363.294,504.107C364.518,502.884 364.32,501.147 363.294,499.907C357.234,492.584 346.66,488.594 337.388,491.49C328.459,494.278 321.489,503.444 322.543,512.975C322.72,514.569 323.782,515.945 325.513,515.945C326.982,515.945 328.661,514.579 328.484,512.975Z" style="fill:rgb(26,57,102);fill-rule:nonzero;"/>
            <path d="M479.693,512.975C480.747,503.444 473.778,494.278 464.849,491.49C455.576,488.594 445.002,492.583 438.942,499.907C437.921,501.142 437.733,502.898 438.942,504.107C439.995,505.16 442.115,505.349 443.143,504.107C447.825,498.448 455.558,495.016 462.862,497.096C469.683,499.039 474.535,505.904 473.753,512.975C473.576,514.571 475.244,515.945 476.723,515.945C478.475,515.945 479.516,514.576 479.693,512.975Z" style="fill:rgb(26,57,102);fill-rule:nonzero;"/>
            <path d="M383.133,446.278C378.99,450.901 374.854,455.534 370.524,459.985C366.29,464.336 361.864,468.902 356.903,472.437C358.153,471.546 356.202,472.955 355.955,473.137C355.356,473.575 354.752,474.006 354.142,474.427C352.94,475.258 351.713,476.053 350.461,476.806C349.235,477.543 347.984,478.239 346.706,478.882C346.078,479.199 345.443,479.503 344.802,479.794C344.564,479.902 344.248,479.996 344.035,480.133C345.25,479.347 344.329,480.006 343.912,480.169C341.281,481.194 338.603,481.868 335.834,482.389C334.953,482.555 337.372,482.227 336.005,482.369C335.736,482.397 335.467,482.427 335.197,482.452C334.521,482.513 333.843,482.553 333.164,482.572C331.647,482.614 330.144,482.523 328.635,482.379C327.945,482.313 328.307,482.606 328.965,482.424C328.713,482.494 328.185,482.295 327.919,482.245C327.285,482.126 326.654,481.99 326.027,481.833C325.347,481.662 324.674,481.468 324.008,481.249C323.603,481.115 323.202,480.973 322.803,480.822C322.67,480.77 322.537,480.719 322.404,480.667C321.796,480.421 321.873,480.454 322.635,480.766C322.526,480.488 320.956,479.951 320.701,479.814C320.133,479.507 319.576,479.181 319.03,478.835C318.728,478.644 318.43,478.448 318.136,478.245C318.073,478.201 316.927,477.381 317.707,477.955C318.48,478.522 317.387,477.68 317.321,477.623C317.004,477.351 316.693,477.07 316.391,476.78C315.892,476.302 315.443,475.79 314.976,475.282C314.218,474.456 315.093,475.502 315.147,475.53C314.908,475.404 314.608,474.765 314.464,474.538C314.153,474.049 313.943,473.431 313.594,472.98C313.116,472.361 314.035,474.335 313.653,473.133C313.534,472.758 313.397,472.391 313.294,472.011C313.274,471.934 313.033,470.858 313.038,470.858C313.119,470.854 313.135,472.422 313.102,471.253C313.094,470.981 312.885,469.399 313.109,469.218C312.981,469.321 312.865,470.384 313.073,469.5C313.171,469.081 313.251,468.662 313.372,468.248C313.451,467.974 313.547,467.708 313.635,467.437C314.004,466.303 313.1,468.467 313.806,467.102C314.102,466.53 314.432,465.978 314.792,465.444C314.875,465.326 314.957,465.207 315.039,465.089C315.424,464.566 315.378,464.621 314.902,465.254C314.98,465.062 315.358,464.715 315.472,464.587C315.963,464.033 316.484,463.505 317.024,463C317.243,462.796 317.465,462.595 317.689,462.398C317.809,462.294 319.15,461.183 318.483,461.717C317.755,462.3 318.931,461.395 318.97,461.368C319.277,461.148 319.588,460.934 319.901,460.723C320.463,460.346 321.034,459.984 321.613,459.634C323.101,458.737 324.64,457.924 326.198,457.158C326.931,456.797 327.67,456.449 328.414,456.114C328.712,455.979 329.012,455.849 329.31,455.717C330.759,455.077 328.557,455.999 329.472,455.651C331.076,455.04 332.666,454.412 334.298,453.876C337.401,452.854 340.569,452.034 343.777,451.414C344.739,451.228 345.706,451.061 346.675,450.912C346.989,450.863 347.33,450.784 347.645,450.769C346.141,450.844 347.936,450.739 348.254,450.703C350.122,450.493 351.998,450.349 353.876,450.274C357.468,450.128 361.071,450.229 364.65,450.578C365.138,450.625 365.625,450.677 366.112,450.734C366.454,450.774 367.912,450.814 366.477,450.774C367.431,450.8 368.444,451.074 369.379,451.244C371.146,451.565 372.902,451.948 374.642,452.394C376.382,452.841 378.106,453.349 379.809,453.919C380.738,454.23 381.661,454.56 382.577,454.909C382.882,455.026 383.187,455.144 383.491,455.264C383.795,455.385 384.098,455.507 384.4,455.632C383.735,455.348 383.714,455.339 384.336,455.607C385.86,456.266 387.241,456.667 388.913,456.206C390.291,455.827 391.784,454.761 392.463,453.476C393.987,450.591 393.172,447.07 390.332,445.349C382.37,440.524 374.42,435.669 366.705,430.455C362.85,427.851 359.053,425.158 355.353,422.337C355.162,422.192 354.973,422.045 354.782,421.9C354.087,421.371 355.532,422.492 354.847,421.949C354.41,421.602 353.968,421.261 353.531,420.913C352.595,420.171 351.667,419.419 350.747,418.657C348.975,417.19 347.232,415.688 345.525,414.145C342.134,411.078 338.884,407.852 335.835,404.443C334.368,402.803 332.948,401.121 331.582,399.396C331.387,399.149 331.193,398.902 331,398.654C331.037,398.701 331.608,399.461 331.21,398.92C330.884,398.476 330.547,398.04 330.221,397.596C329.522,396.643 328.84,395.677 328.175,394.7C325.422,390.651 323.098,386.42 321.009,381.998C320.612,381.158 321.32,382.81 320.983,381.945C320.886,381.697 320.783,381.451 320.685,381.203C320.458,380.625 320.242,380.043 320.035,379.458C319.593,378.21 319.198,376.944 318.857,375.664C318.541,374.478 318.273,373.278 318.06,372.068C318.015,371.811 317.982,371.549 317.932,371.293C317.755,370.38 318.01,372.241 317.934,371.316C317.876,370.622 317.795,369.931 317.755,369.235C317.686,368.018 317.68,366.799 317.744,365.582C317.776,364.971 317.848,364.364 317.891,363.755C317.885,363.842 317.731,364.727 317.852,364.03C317.915,363.666 317.97,363.302 318.042,362.94C318.235,361.971 318.484,361.012 318.788,360.072C318.941,359.6 319.13,359.14 319.286,358.669C319.497,358.031 319.094,359.089 319.09,359.102C319.19,358.77 319.383,358.444 319.533,358.133C319.964,357.236 320.444,356.364 320.972,355.521C321.235,355.1 321.509,354.686 321.795,354.281C321.918,354.107 322.047,353.939 322.169,353.766C322.587,353.171 321.428,354.633 322.157,353.804C322.807,353.064 323.457,352.336 324.174,351.66C324.529,351.326 324.912,351.024 325.269,350.693C325.756,350.24 324.885,350.97 324.88,350.975C325.112,350.737 325.449,350.557 325.721,350.371C326.513,349.828 327.341,349.338 328.202,348.911C329.448,348.291 327.492,349.12 328.47,348.767C328.984,348.581 329.497,348.398 330.024,348.249C330.419,348.136 330.819,348.037 331.221,347.952C331.205,347.955 331.983,347.757 332.033,347.8C332.031,347.798 330.488,347.932 331.69,347.854C332.688,347.79 333.678,347.758 334.677,347.828C334.767,347.835 335.396,347.827 335.519,347.907C335.468,347.874 334.051,347.639 335.184,347.88C335.592,347.967 336.001,348.044 336.405,348.145C336.875,348.262 337.341,348.399 337.801,348.549C338.064,348.636 338.325,348.727 338.585,348.824C338.715,348.871 338.844,348.921 338.973,348.973C339.385,349.137 339.231,349.072 338.513,348.778C338.953,349.313 340.307,349.668 340.931,350.037C341.207,350.201 343.462,351.897 343.587,351.823C343.467,351.894 342.709,351.105 343.407,351.697C343.573,351.838 343.743,351.975 343.909,352.116C344.299,352.448 344.683,352.788 345.059,353.135C345.876,353.89 346.661,354.68 347.417,355.495C348.131,356.267 348.82,357.062 349.486,357.875C349.81,358.271 350.572,359.166 349.822,358.273C350.209,358.733 350.55,359.241 350.901,359.729C353.338,363.111 355.474,366.705 357.419,370.388C358.389,372.223 359.308,374.085 360.188,375.964C360.625,376.897 361.052,377.835 361.47,378.778C361.681,379.254 361.89,379.732 362.097,380.211C362.186,380.417 362.273,380.625 362.363,380.831C362.657,381.506 361.946,379.816 362.379,380.869C364.086,385.029 365.675,389.231 367.129,393.486C372.951,410.526 377.066,428.162 380.193,445.883C380.541,447.856 380.874,449.831 381.195,451.808C381.694,454.884 385.678,456.871 388.502,455.957C391.836,454.878 393.185,451.947 392.651,448.65C389.063,426.501 382.414,404.974 377.772,383.044C376.597,377.488 375.534,371.908 374.669,366.295C374.558,365.572 374.45,364.849 374.345,364.125C374.289,363.736 374.013,361.858 374.224,363.3C374.014,361.869 373.857,360.427 373.698,358.99C373.392,356.231 373.147,353.465 372.978,350.694C372.653,345.394 372.604,340.072 372.955,334.772C373.044,333.426 373.159,332.08 373.303,330.738C373.366,330.146 373.438,329.555 373.51,328.964C373.577,328.41 373.857,328.354 373.475,329.219C373.615,328.901 373.617,328.248 373.67,327.903C374.055,325.441 374.545,322.995 375.155,320.579C375.449,319.414 375.765,318.254 376.137,317.111C376.333,316.512 376.541,315.917 376.764,315.328C376.833,315.148 377.083,314.693 377.073,314.54C376.983,314.752 376.892,314.964 376.802,315.177C376.914,314.917 377.03,314.659 377.148,314.402C377.62,313.38 378.143,312.381 378.725,311.417C379.012,310.943 379.312,310.476 379.63,310.021C379.739,309.864 379.945,309.489 380.112,309.353C379.013,310.248 379.914,309.626 380.209,309.291C380.561,308.89 380.929,308.502 381.315,308.133C381.542,307.917 381.854,307.715 382.05,307.473C382.526,306.883 381.123,308.07 381.771,307.676C382.271,307.373 382.729,307.022 383.245,306.74C383.33,306.694 383.928,306.375 383.936,306.389C383.952,306.417 382.524,306.862 383.778,306.478C384.2,306.349 385.161,306.26 385.496,306.026C384.989,305.958 384.482,305.89 383.975,305.822C382.365,305.456 381.978,305.443 382.815,305.782C383.028,305.915 383.301,306.015 383.522,306.128C384.559,306.658 385.524,307.284 386.478,307.951C387.397,308.593 386.164,307.741 386.182,307.722C386.189,307.714 386.693,308.15 386.764,308.212C387.195,308.587 387.612,308.978 388.014,309.383C388.373,309.744 388.72,310.115 389.056,310.497C389.225,310.688 389.387,310.886 389.554,311.078C390.429,312.091 389.278,310.641 389.573,311.086C390.85,313.014 392.063,314.905 393.037,317.012C393.139,317.234 393.232,317.554 393.366,317.745C393.287,317.631 392.849,316.46 393.238,317.443C393.437,317.947 393.635,318.452 393.821,318.961C394.243,320.121 394.621,321.296 394.961,322.482C395.65,324.883 396.183,327.327 396.601,329.789C396.694,330.335 396.781,330.882 396.862,331.43C396.903,331.702 396.929,331.981 396.98,332.25C396.703,330.789 396.888,331.548 396.93,331.898C397.076,333.112 397.209,334.326 397.315,335.544C397.492,337.578 397.61,339.617 397.688,341.657C397.857,346.145 397.828,350.64 397.679,355.128C397.343,365.243 396.414,375.338 395.148,385.376C395.062,386.056 394.974,386.735 394.886,387.415C394.846,387.717 394.805,388.019 394.766,388.321C394.651,389.188 394.916,387.237 394.794,388.103C394.593,389.541 394.394,390.979 394.184,392.415C393.807,394.983 393.407,397.548 392.985,400.108C392.131,405.292 391.187,410.462 390.145,415.611C388.265,424.91 386.096,434.167 383.382,443.261C382.818,445.149 382.227,447.029 381.606,448.899C385.424,449.952 389.243,451.004 393.062,452.057C397.429,433.675 401.838,415.297 407.196,397.173C410.114,387.3 413.295,377.496 416.973,367.878C417.835,365.624 418.726,363.381 419.65,361.151C419.757,360.893 419.865,360.635 419.972,360.377C420.38,359.398 419.931,360.503 419.86,360.643C420.107,360.153 420.296,359.624 420.515,359.12C421.003,357.995 421.501,356.874 422.01,355.758C423.885,351.648 425.901,347.598 428.136,343.67C429.139,341.906 430.187,340.168 431.291,338.465C431.818,337.652 432.358,336.846 432.913,336.051C433.23,335.595 433.553,335.144 433.883,334.696C434.074,334.438 434.741,333.584 433.951,334.586C434.197,334.274 434.445,333.964 434.696,333.656C436.482,331.474 438.432,329.42 440.557,327.565C441.04,327.143 441.537,326.739 442.034,326.334C441.072,327.119 442.371,326.097 442.737,325.843C443.879,325.049 445.068,324.318 446.307,323.684C446.576,323.546 446.851,323.42 447.121,323.283C448.248,322.712 446.938,323.335 446.936,323.341C447.05,323.075 448.575,322.747 448.809,322.676C449.364,322.507 449.925,322.36 450.493,322.24C450.775,322.18 451.06,322.138 451.341,322.081C452.073,321.932 450.116,322.134 451.252,322.113C451.898,322.101 452.531,322.054 453.178,322.081C453.464,322.093 453.749,322.128 454.035,322.141C454.871,322.179 452.927,321.899 453.743,322.109C454.387,322.275 455.035,322.387 455.671,322.589C455.787,322.626 456.507,322.905 456.525,322.889C456.409,322.993 455.314,322.292 456.359,322.831C457.159,323.243 458.061,324.069 458.889,324.354C458.782,324.317 457.788,323.41 458.48,324.056C458.643,324.209 458.816,324.35 458.98,324.502C459.386,324.88 459.771,325.28 460.133,325.7C460.271,325.859 460.406,326.073 460.557,326.211C459.616,325.355 459.964,325.401 460.224,325.808C460.464,326.183 460.719,326.546 460.946,326.931C461.203,327.366 461.44,327.812 461.661,328.267C461.76,328.471 461.847,328.681 461.947,328.883C462.268,329.532 461.471,327.588 461.803,328.575C462.122,329.519 462.438,330.452 462.671,331.423C462.797,331.946 462.908,332.474 463.003,333.004C463.046,333.242 463.081,333.482 463.122,333.721C463.308,334.794 463.029,332.652 463.079,333.414C463.224,335.631 463.356,337.798 463.223,340.022C463.174,340.847 462.716,342.343 462.934,343.105C462.742,342.432 463.103,341.98 462.987,342.68C462.944,342.935 462.908,343.192 462.865,343.447C462.76,344.084 462.642,344.72 462.512,345.353C462.068,347.525 461.489,349.671 460.775,351.769C458.969,357.076 456.865,362.297 454.718,367.473C454.289,368.509 454.666,367.602 454.75,367.405C454.623,367.704 454.496,368.003 454.368,368.302C454.114,368.898 453.857,369.494 453.598,370.088C453.02,371.418 452.431,372.744 451.831,374.065C450.677,376.61 449.484,379.138 448.25,381.645C443.423,391.453 437.962,400.948 431.844,410.009C430.344,412.231 428.804,414.428 427.228,416.597C426.481,417.624 425.727,418.645 424.964,419.659C424.533,420.232 424.095,420.799 423.664,421.371C423.138,422.068 424.253,420.618 423.715,421.307C423.469,421.622 423.224,421.938 422.978,422.253C419.469,426.728 415.799,431.077 411.991,435.301C410.09,437.41 408.153,439.485 406.187,441.533C404.035,443.777 403.79,447.732 406.187,449.933C408.518,452.073 412.29,452.329 414.588,449.933C430.782,433.055 444.743,414.088 455.605,393.357C461.166,382.744 465.959,371.726 470.186,360.518C471.951,355.838 473.599,351.18 474.384,346.222C475.236,340.836 475.42,335.596 474.52,330.203C473.711,325.352 471.619,320.711 468.314,317.05C464.455,312.775 458.673,310.357 452.963,310.192C440.261,309.822 429.64,320.131 422.847,329.779C417.633,337.185 413.585,345.395 410.01,353.693C405.727,363.635 402.053,373.814 398.771,384.127C392.627,403.429 387.742,423.101 383.055,442.797C382.571,444.831 382.089,446.865 381.606,448.899C380.889,451.916 382.551,455.476 385.755,456.206C389.03,456.952 392.013,455.217 393.062,452.057C399.421,432.908 403.231,412.798 406.03,392.85C407.585,381.771 408.818,370.639 409.378,359.462C409.837,350.298 409.954,341.019 408.811,331.898C407.457,321.093 404.653,309.896 397.074,301.67C395.279,299.722 393.141,297.998 390.876,296.627C389.756,295.948 388.581,295.41 387.376,294.901C385.222,293.993 382.99,294.249 380.804,294.959C375.056,296.825 370.683,301.293 367.839,306.515C365.161,311.432 363.642,316.873 362.624,322.349C361.558,328.092 360.981,333.937 360.859,339.775C360.611,351.586 362.085,363.407 364.135,375.018C368.233,398.239 375.25,420.808 379.782,443.934C380.295,446.551 380.769,449.175 381.195,451.808C385.014,450.755 388.832,449.703 392.651,448.65C389.666,430.241 385.613,411.921 379.862,394.168C376.885,384.979 373.42,375.893 369.129,367.232C365.103,359.106 360.172,350.932 353.46,344.734C346.068,337.909 335.673,333.594 325.695,337.169C316.199,340.571 309.048,349.184 306.764,358.956C304.092,370.393 307.492,382.178 312.84,392.31C317.526,401.186 323.836,409.284 330.815,416.468C344.602,430.66 361.408,441.591 378.194,451.87C380.238,453.122 382.286,454.365 384.336,455.607C386.334,452.188 388.333,448.768 390.332,445.349C375.955,439.136 360.482,437.097 344.972,439.246C337.618,440.264 330.578,442.335 323.764,445.265C317.335,448.03 310.678,451.647 306.229,457.195C303.484,460.617 301.718,464.385 301.273,468.781C300.898,472.485 301.858,476.245 303.603,479.505C306.988,485.827 313.467,490.043 320.046,492.426C333.021,497.128 347.127,493.145 358.307,485.91C371.151,477.599 381.408,465.979 391.534,454.678C393.607,452.365 393.987,448.529 391.534,446.278C389.27,444.199 385.348,443.806 383.133,446.278Z" style="fill:rgb(242,107,96);fill-rule:nonzero;"/>
        </g>
    </g>
</svg>
