<?xml version="1.0" encoding="UTF-8" standalone="no"?>
<!DOCTYPE svg PUBLIC "-//W3C//DTD SVG 1.1//EN" "http://www.w3.org/Graphics/SVG/1.1/DTD/svg11.dtd">
<svg width="100%" height="100%" viewBox="0 0 2235 3210" version="1.1" xmlns="http://www.w3.org/2000/svg" xmlns:xlink="http://www.w3.org/1999/xlink" xml:space="preserve" xmlns:serif="http://www.serif.com/" style="fill-rule:evenodd;clip-rule:evenodd;stroke-linejoin:round;stroke-miterlimit:2;">
    <g transform="matrix(1,0,0,1,-926.665,-5264.15)">
        <g transform="matrix(4.16667,0,0,4.16667,0,0)">
            <path d="M384.184,2012.72C403.303,2017.9 427.695,2010.22 430.385,1988.03C432.994,1988.19 435.617,1988.32 438.244,1988.43C536.787,2095.91 772.521,1997.2 757.172,1850.15C761.219,1842.18 756.659,1834.51 751.127,1828.39C746.059,1815.56 738.722,1804.09 729.73,1794.94C725.436,1782.49 712.563,1773.69 699.453,1775.58C697.797,1756.22 695.246,1736.07 692.094,1715.99C695.983,1708.38 689.929,1702.28 688.631,1695.35C696.581,1678.82 692.337,1657.67 678.703,1645.28C671.996,1614.46 663.952,1582.27 654.639,1548.86C661.529,1549.66 668.507,1551.89 675.511,1552.55C698.791,1550.78 695.989,1519.25 672.914,1519.07C674.677,1514.24 674.005,1508.78 671.132,1504.42C690.086,1501.83 687.9,1471.47 668.442,1472.07C656.451,1472.15 644.372,1473.03 632.396,1474.68C622.597,1445.55 613.923,1415.02 596.723,1387.77C623.968,1351.22 627.987,1294.51 590.546,1269C560.918,1251.43 530.024,1277.88 536.672,1311.3C510.764,1301.31 487.731,1325.12 493.469,1353.75C496.222,1369.7 505.885,1383.68 500.879,1399.93C474.006,1396.68 458.245,1397.61 426.258,1401.54C420.282,1384.8 430.246,1370.21 433.194,1353.75C438.935,1325.12 415.892,1301.31 389.991,1311.3C396.63,1277.88 365.744,1251.42 336.116,1269C298.88,1294.4 302.634,1350.59 329.529,1387.2C311.223,1415.89 301.736,1450.09 291.232,1481.93C283.388,1481.62 275.615,1481.68 267.724,1482.05C248.118,1482.73 246.971,1512.66 266.515,1514.53C263.89,1518.99 263.512,1524.52 265.534,1529.23C240.725,1530.91 242.696,1566.36 267.576,1562.43C253.919,1613 243.155,1659.88 235,1708.71C229.256,1715.16 226.824,1723.99 228.205,1732.6C224.573,1738.05 224.909,1745.73 229.008,1750.95C225.371,1784.72 222.199,1817.08 226.306,1854.17C219.776,1862 221.562,1874.39 230.696,1879.2C246.932,1952.59 311.697,2001.51 384.184,2012.72Z" style="fill:white;fill-rule:nonzero;"/>
            <path d="M430.178,1973.78L430.211,1973.78C431.41,1973.84 432.603,1973.79 433.794,1973.63C434.248,1973.57 434.703,1973.51 435.158,1973.46C502.722,1965.27 580.164,1974.31 638.682,1937.48C640.778,1936.17 642.629,1934.5 644.116,1932.52C650.15,1924.49 671.916,1898.52 678.776,1880.25C686.85,1858.75 685.055,1839.35 685.055,1816.39C685.055,1763.49 671.819,1703.47 659.76,1635.15C643.15,1549.42 620.46,1485.82 587.247,1404.02C586.825,1402.99 586.312,1401.97 585.721,1401.01C568.096,1372.55 557.271,1366.63 542.2,1380.31C529.742,1391.63 519.951,1396.71 513.617,1410.52C510.374,1417.59 506.488,1424.59 491.491,1422.09C471.624,1418.79 442.473,1424.06 422.831,1424.59C415.109,1424.79 414.173,1417.1 410.641,1410.23C409.762,1408.52 408.402,1406.05 405.937,1402.12C396.826,1387.59 382.744,1370.71 366.349,1375.75C351.168,1380.42 345.756,1388.25 339.183,1402.71C316.602,1452.38 293.753,1516.54 282.723,1568.81C266.817,1644.19 247.42,1706.1 242.873,1792.97C241.448,1820.19 239.91,1840.72 244.529,1867.58C256.295,1936.02 312.048,1953.8 322.529,1956.91C332.822,1959.96 417.281,1972.05 428.411,1973.61C428.996,1973.69 429.589,1973.74 430.178,1973.78Z" style="fill:white;fill-rule:nonzero;"/>
            <path d="M560.167,1915.07C540.074,1929.31 523.904,1949.02 513.88,1971.51C511.029,1977.91 508.684,1985.4 511.66,1991.74C514.349,1997.47 520.899,2000.63 527.224,2000.91C533.549,2001.18 539.72,1999.05 545.567,1996.62C566.573,1987.89 585.576,1975.06 604.419,1962.32C620.129,1951.7 635.971,1940.96 649.089,1927.26C662.208,1913.56 672.566,1896.49 674.963,1877.67C675.956,1869.88 675.266,1861.16 669.868,1855.45C661.063,1846.14 645.54,1849.79 634.074,1855.52C598.019,1873.55 572.184,1906.56 560.167,1915.07Z" style="fill:white;fill-rule:nonzero;"/>
            <path d="M353.967,1909.6C377.795,1924.4 397.43,1945.87 410.045,1970.92C412.952,1976.69 415.521,1983.47 413.06,1989.45C410.57,1995.5 403.476,1998.61 396.939,1998.38C390.402,1998.16 384.894,1993.37 378.433,1992.36C334.229,1985.39 320.318,1980.5 276,1936.18C270.038,1930.22 260.086,1910.97 256.403,1903.39C252.719,1895.8 252.379,1886 257.721,1879.48C264.888,1870.73 278.411,1871.35 289.328,1874.3C322.635,1883.3 349.572,1906.87 353.967,1909.6Z" style="fill:white;fill-rule:nonzero;"/>
            <path d="M446.404,1541.55C452.213,1543.36 459.004,1542.39 463.931,1538.75C468.982,1535.03 472.049,1529.23 472.243,1522.95C472.296,1521.24 470.707,1519.61 468.986,1519.69C467.176,1519.77 465.784,1521.12 465.728,1522.95C465.718,1523.29 465.694,1523.62 465.675,1523.96C465.644,1524.52 465.7,1523.92 465.649,1524.26C465.563,1524.81 465.445,1525.36 465.302,1525.9C465.144,1526.49 464.95,1527.08 464.732,1527.66C464.547,1528.14 464.732,1527.68 464.598,1527.96C464.476,1528.21 464.356,1528.46 464.225,1528.71C463.963,1529.21 463.677,1529.69 463.368,1530.16C463.183,1530.44 462.992,1530.72 462.787,1530.98C463.042,1530.65 462.648,1531.13 462.558,1531.24C462.192,1531.66 461.805,1532.07 461.398,1532.45C461.194,1532.64 460.981,1532.82 460.772,1533.01C460.044,1533.66 461.177,1532.77 460.371,1533.33C458.326,1534.73 456.872,1535.32 454.38,1535.79C454.06,1535.85 454.604,1535.79 454.054,1535.84C453.712,1535.88 453.37,1535.9 453.026,1535.92C452.455,1535.94 451.881,1535.94 451.31,1535.9C450.968,1535.88 450.622,1535.86 450.284,1535.81C450.641,1535.86 450.284,1535.8 450.132,1535.77C449.456,1535.63 448.794,1535.47 448.136,1535.27C446.509,1534.76 444.51,1535.86 444.129,1537.54C443.725,1539.31 444.662,1541 446.404,1541.55Z" style="fill:rgb(26,57,102);fill-rule:nonzero;"/>
            <path d="M489.836,1535.27C489.233,1535.45 488.627,1535.62 488.008,1535.74C487.924,1535.75 487.198,1535.88 487.687,1535.81C487.404,1535.85 487.118,1535.87 486.833,1535.89C486.204,1535.94 485.574,1535.94 484.945,1535.92C484.659,1535.91 484.373,1535.89 484.088,1535.86C483.927,1535.84 483.317,1535.75 483.761,1535.82C482.576,1535.63 481.404,1535.32 480.289,1534.87C480.08,1534.79 480.076,1534.79 480.276,1534.86C480.172,1534.82 480.069,1534.77 479.965,1534.72C479.711,1534.59 479.453,1534.46 479.201,1534.33C478.647,1534.02 478.119,1533.69 477.6,1533.33C477.188,1533.04 477.553,1533.31 477.328,1533.12C477.114,1532.94 476.901,1532.76 476.696,1532.57C476.285,1532.19 475.892,1531.78 475.522,1531.37C475.531,1531.37 474.886,1530.6 475.184,1530.98C475.012,1530.76 474.854,1530.53 474.697,1530.3C474.384,1529.83 474.093,1529.35 473.826,1528.86C473.693,1528.61 473.574,1528.36 473.444,1528.11C472.981,1527.22 473.592,1528.59 473.239,1527.66C473.041,1527.13 472.861,1526.6 472.712,1526.06C472.564,1525.52 472.445,1524.97 472.348,1524.42C472.168,1523.4 472.363,1524.99 472.296,1523.96C472.274,1523.62 472.253,1523.29 472.243,1522.95C472.19,1521.25 470.782,1519.61 468.986,1519.69C467.266,1519.77 465.672,1521.12 465.728,1522.95C465.922,1529.23 468.985,1535.04 474.04,1538.75C478.976,1542.38 485.75,1543.36 491.567,1541.55C493.246,1541.02 494.32,1539.28 493.843,1537.54C493.387,1535.88 491.521,1534.74 489.836,1535.27Z" style="fill:rgb(26,57,102);fill-rule:nonzero;"/>
            <path d="M527.654,1506.33C535.03,1506.33 541.009,1512.31 541.009,1519.69C541.009,1527.06 535.03,1533.04 527.654,1533.04C520.278,1533.04 514.297,1527.06 514.297,1519.69C514.297,1512.31 520.278,1506.33 527.654,1506.33Z" style="fill:rgb(26,57,102);fill-rule:nonzero;"/>
            <path d="M409.837,1508.94C417.213,1508.94 423.192,1514.92 423.192,1522.29C423.192,1529.67 417.213,1535.65 409.837,1535.65C402.461,1535.65 396.481,1529.67 396.481,1522.29C396.481,1514.92 402.461,1508.94 409.837,1508.94Z" style="fill:rgb(26,57,102);fill-rule:nonzero;"/>
            <path d="M569.186,1535.65C591.854,1535.65 610.23,1543.23 610.23,1552.59C610.23,1561.94 591.854,1569.53 569.186,1569.53C546.518,1569.53 528.142,1561.94 528.142,1552.59C528.142,1543.23 546.518,1535.65 569.186,1535.65Z" style="fill:rgb(251,210,207);fill-rule:nonzero;"/>
            <path d="M382.148,1542.44C404.816,1542.44 423.192,1550.02 423.192,1559.38C423.192,1568.73 404.816,1576.31 382.148,1576.31C359.481,1576.31 341.105,1568.73 341.105,1559.38C341.105,1550.02 359.481,1542.44 382.148,1542.44Z" style="fill:rgb(251,210,207);fill-rule:nonzero;"/>
            <path d="M581.687,1507.35C603.349,1499.46 626.035,1494.38 649.017,1492.49C655.548,1491.95 662.097,1491.66 668.65,1491.61C672.84,1491.58 672.85,1485.06 668.65,1485.1C645.127,1485.28 621.602,1488.59 598.951,1494.94C592.543,1496.74 586.209,1498.79 579.955,1501.07C578.303,1501.67 577.187,1503.28 577.68,1505.08C578.118,1506.67 580.026,1507.96 581.687,1507.35Z" style="fill:rgb(26,57,102);fill-rule:nonzero;"/>
            <path d="M586.685,1534.94C609.525,1532.21 632.774,1532.4 655.536,1535.78C662.051,1536.75 668.525,1537.97 674.95,1539.42C679.033,1540.35 680.776,1534.07 676.682,1533.14C653.764,1527.96 630.161,1525.78 606.683,1526.79C599.999,1527.08 593.328,1527.63 586.685,1528.42C584.939,1528.63 583.428,1529.77 583.428,1531.68C583.428,1533.28 584.927,1535.15 586.685,1534.94Z" style="fill:rgb(26,57,102);fill-rule:nonzero;"/>
            <path d="M592.492,1520.75C613.395,1514.89 635.497,1513.41 656.979,1516.64C658.716,1516.9 660.481,1516.2 660.986,1514.36C661.409,1512.83 660.461,1510.62 658.711,1510.36C636.036,1506.95 612.855,1508.27 590.76,1514.46C586.729,1515.59 588.442,1521.88 592.492,1520.75Z" style="fill:rgb(26,57,102);fill-rule:nonzero;"/>
            <path d="M358.016,1506.16C335.543,1499.36 312.149,1495.55 288.676,1494.87C281.977,1494.67 275.273,1494.75 268.579,1495.06C264.405,1495.26 264.381,1501.78 268.579,1501.58C291.579,1500.49 314.667,1502.41 337.146,1507.41C343.587,1508.85 349.969,1510.53 356.284,1512.44C360.306,1513.66 362.025,1507.38 358.016,1506.16Z" style="fill:rgb(26,57,102);fill-rule:nonzero;"/>
            <path d="M352.812,1533.8C329.31,1532.3 305.629,1533.96 282.559,1538.69C276.049,1540.02 269.596,1541.61 263.205,1543.43C259.18,1544.58 260.89,1550.87 264.937,1549.71C287.145,1543.39 310.112,1540.02 333.204,1539.78C339.745,1539.71 346.285,1539.9 352.812,1540.31C354.569,1540.43 356.069,1538.74 356.069,1537.06C356.069,1535.2 354.574,1533.91 352.812,1533.8Z" style="fill:rgb(26,57,102);fill-rule:nonzero;"/>
            <path d="M347.967,1520.13C325.576,1515.18 302.345,1515.03 279.89,1519.69C278.167,1520.05 277.171,1522.08 277.615,1523.7C278.107,1525.48 279.894,1526.33 281.622,1525.97C302.893,1521.56 325.027,1521.72 346.235,1526.42C350.32,1527.32 352.065,1521.04 347.967,1520.13Z" style="fill:rgb(26,57,102);fill-rule:nonzero;"/>
            <path d="M403.888,1431.51C419.667,1428.13 435.624,1425.6 451.738,1424.58C466.15,1423.67 480.611,1423.99 494.977,1425.44C503.181,1426.27 511.338,1427.47 519.456,1428.91C521.187,1429.22 522.966,1428.44 523.463,1426.64C523.896,1425.06 522.93,1422.94 521.188,1422.63C506.396,1420.01 491.451,1418.16 476.427,1417.68C461.076,1417.19 445.742,1418.16 430.529,1420.21C421.007,1421.5 411.551,1423.22 402.156,1425.23C398.058,1426.1 399.792,1432.39 403.888,1431.51Z" style="fill:rgb(26,57,102);fill-rule:nonzero;"/>
            <path d="M671.472,1796.77C666.083,1803.96 668.311,1815.54 675.879,1820.39C683.447,1825.23 694.733,1822.56 699.493,1814.94C704.252,1807.31 701.834,1796.16 694.46,1791.02C687.086,1785.88 677.718,1788.43 671.472,1796.77Z" style="fill:rgb(242,107,96);fill-rule:nonzero;"/>
            <path d="M550.928,1918.45C535.915,1933.09 519.495,1948.61 511.09,1968.24C507.439,1976.76 505.384,1988.69 512.854,1995.9C519.426,2002.24 529.672,2001.93 537.915,1999.84C548.676,1997.11 558.374,1991.06 568.012,1985.76C577.236,1980.69 586.405,1975.52 595.471,1970.17C609.642,1961.81 623.648,1953.06 636.82,1943.18C653.312,1930.81 669.249,1916.26 677.679,1897.03C685.162,1879.97 686.549,1861.12 687.796,1842.75C689.849,1812.5 687.733,1782.01 684.164,1751.96C680.168,1718.3 674.146,1684.9 667.015,1651.77C660.082,1619.56 652.072,1587.58 643.289,1555.82C636.165,1530.07 628.537,1504.45 620.343,1479.02C615.175,1462.98 609.902,1446.94 603.78,1431.23C599.914,1421.31 595.738,1411.46 590.47,1402.19C585.598,1393.62 579.81,1384.82 571.939,1378.71C564.19,1372.69 554.836,1370.73 545.692,1374.79C536.496,1378.88 529.009,1387.13 522.437,1394.52C515.466,1402.36 509.273,1410.87 503.916,1419.89C501.769,1423.5 507.399,1426.78 509.541,1423.17C514.901,1414.15 521.084,1405.68 528.141,1397.91C534.436,1390.98 542.04,1382.12 551.439,1379.6C560.979,1377.03 569.147,1383.82 574.868,1390.68C581.453,1398.57 586.488,1407.83 590.812,1417.12C598.767,1434.2 604.709,1452.28 610.608,1470.16C618.127,1492.95 625.143,1515.9 631.766,1538.97C640.224,1568.42 648.023,1598.06 654.987,1627.9C662.407,1659.69 668.907,1691.73 673.838,1724C678.462,1754.27 681.776,1784.87 682.032,1815.51C682.136,1827.97 681.56,1840.39 680.523,1852.81C679.804,1861.42 678.873,1870.04 676.94,1878.47C673.069,1895.36 664.397,1909.61 652.108,1921.74C631.164,1942.41 604.711,1957.56 579.312,1971.99C569.807,1977.39 560.255,1982.75 550.57,1987.82C542.608,1991.98 532.5,1996.36 523.318,1994.2C511.793,1991.49 513.469,1978.62 517.333,1970.11C521.539,1960.85 527.787,1952.48 534.421,1944.83C541.049,1937.19 548.296,1930.12 555.534,1923.06C558.542,1920.13 553.933,1915.52 550.928,1918.45Z" style="fill:rgb(26,57,102);fill-rule:nonzero;"/>
            <path d="M370.441,1923.06C378.58,1930.99 386.735,1938.95 394,1947.71C401.105,1956.28 408.887,1966.61 411.17,1977.73C412.186,1982.68 411.982,1988.78 407.578,1992.07C404.054,1994.7 399.107,1994.99 394.891,1994.54C393.612,1994.4 392.334,1994.2 391.062,1994.01C378.355,1992.16 365.824,1989.02 353.699,1984.8C333.591,1977.81 314.382,1967.58 298.091,1953.8C277.329,1936.24 261.983,1913.28 253.551,1887.43C243.531,1856.71 243.359,1823.78 245.191,1791.83C247.193,1756.94 252.305,1722.25 258.743,1687.92C265.313,1652.89 273.378,1618.15 282.39,1583.67C290.063,1554.31 298.432,1525.13 307.473,1496.17C313.19,1477.85 319.079,1459.56 325.677,1441.53C331.901,1424.53 338.838,1407.25 349.904,1392.74C355.716,1385.13 364.551,1376.75 374.982,1379.6C385.098,1382.35 393.234,1392.2 399.754,1399.87C406.827,1408.2 413.138,1417.19 418.713,1426.58C420.851,1430.18 426.485,1426.91 424.339,1423.29C418.391,1413.27 411.585,1403.71 404.011,1394.85C397.249,1386.94 389.374,1378.21 379.498,1374.27C356.971,1365.28 340.691,1392.35 332.36,1408.92C322.076,1429.37 315.009,1451.61 307.92,1473.34C298.975,1500.76 290.712,1528.4 283.029,1556.2C273.402,1591.03 264.699,1626.13 257.345,1661.51C249.818,1697.73 243.611,1734.31 240.23,1771.16C237.178,1804.41 235.594,1839.1 242.649,1871.97C248.917,1901.17 262.813,1928.4 283.948,1949.62C300.616,1966.36 321.015,1978.89 342.859,1987.67C356.885,1993.32 371.572,1997.45 386.5,1999.86C393.497,2000.99 400.81,2002.23 407.585,1999.43C418.366,1994.97 419.731,1982.82 416.609,1972.79C413.236,1961.96 406.091,1952.18 398.951,1943.52C391.599,1934.6 383.316,1926.51 375.048,1918.45C372.043,1915.53 367.432,1920.13 370.441,1923.06Z" style="fill:rgb(26,57,102);fill-rule:nonzero;"/>
            <path d="M244.321,1743.61C269.377,1720.44 296.313,1699.26 325.388,1681.36C353.997,1663.74 384.659,1649.32 416.991,1640.01C447.466,1631.24 479.067,1627.18 510.757,1629.21C540.415,1631.1 569.995,1638.07 597.053,1650.46C623.927,1662.76 648.328,1680.36 667.375,1703.06C669.722,1705.86 671.976,1708.72 674.141,1711.66C675.192,1713.09 676.953,1713.77 678.598,1712.83C680.004,1712.03 680.807,1709.79 679.767,1708.37C661.687,1683.84 637.86,1664.09 610.883,1649.99C583.571,1635.72 553.537,1627.15 522.956,1623.76C491.311,1620.25 459.372,1622.77 428.456,1630.23C395.037,1638.3 363.066,1651.93 333.311,1669.05C303.25,1686.35 275.306,1707.25 249.377,1730.24C246.125,1733.13 242.906,1736.05 239.714,1739C236.629,1741.85 241.245,1746.45 244.321,1743.61Z" style="fill:rgb(26,57,102);fill-rule:nonzero;"/>
            <path d="M504.311,1966.12C483.085,1968.79 461.654,1969.76 440.273,1968.96C434.211,1968.73 428.156,1968.35 422.11,1967.85C420.355,1967.7 418.853,1969.45 418.853,1971.11C418.853,1972.99 420.35,1974.22 422.11,1974.36C443.43,1976.15 464.883,1976.21 486.211,1974.5C492.258,1974.02 498.292,1973.39 504.311,1972.63C506.056,1972.41 507.568,1971.29 507.568,1969.37C507.568,1967.78 506.069,1965.89 504.311,1966.12Z" style="fill:rgb(26,57,102);fill-rule:nonzero;"/>
            <path d="M645.185,1787.07C657.117,1800.75 672.859,1836.15 661.232,1850.09C649.605,1864.04 631.13,1870.63 613.065,1872.45C594.999,1874.27 576.81,1871.95 558.666,1871.25C539.759,1870.52 520.784,1871.57 502.071,1874.37C485.807,1876.8 469.058,1880.89 456.496,1891.51C437.954,1907.17 432.574,1935.24 440.721,1958.11C448.869,1980.98 468.73,1998.47 491.283,2007.45C513.836,2016.43 558.4,2019.51 582.531,2016.87C627.817,2011.92 655.543,1992.74 690.83,1963.93C710.709,1947.7 724.687,1926.71 734.197,1902.88C743.706,1879.04 744.436,1850.95 732.336,1828.32C720.236,1805.69 675.882,1777.13 645.185,1787.07Z" style="fill:white;fill-rule:nonzero;"/>
            <path d="M666.204,1812.76C670.642,1824.83 667.117,1838.12 659.544,1848.14C651.325,1859.01 638.344,1865.08 625.33,1868C609.714,1871.51 593.555,1870.48 577.734,1869.24C560.486,1867.89 543.366,1866.92 526.074,1868.15C511.173,1869.22 496.038,1871.19 481.736,1875.66C469.093,1879.61 456.731,1885.74 447.524,1895.46C438.453,1905.05 433.414,1917.42 432.548,1930.53C431.696,1943.44 434.848,1956.53 440.706,1968C453.479,1993.03 479.666,2007.75 506.026,2014.56C532.879,2021.5 561.479,2021.67 588.7,2016.85C615.739,2012.06 641.92,2001.98 665.189,1987.39C688.783,1972.61 709.881,1953.07 725.095,1929.65C740.334,1906.2 749.57,1877.56 744.067,1849.55C739.481,1826.2 725.185,1802.41 703.539,1791.31C698.46,1788.7 693.024,1786.83 687.384,1785.93C685.649,1785.65 683.879,1786.37 683.377,1788.2C682.951,1789.75 683.905,1791.93 685.652,1792.21C708.655,1795.88 725.538,1815.69 733.519,1836.52C737.898,1847.95 739.801,1859.94 738.994,1872.16C738.088,1885.87 733.956,1899.29 727.903,1911.58C715.807,1936.13 696.498,1957.05 674.547,1973.18C652.968,1989.04 628.361,2000.61 602.419,2007.23C576.75,2013.78 549.59,2015.57 523.366,2011.48C497.3,2007.42 470.009,1997.15 453.279,1975.73C438.648,1957 433.23,1928.56 446.296,1907.59C460.396,1884.96 490.02,1878.59 514.594,1875.74C531.403,1873.79 548.308,1873.59 565.179,1874.78C581.598,1875.94 598.13,1877.96 614.586,1876.27C628.604,1874.82 642.838,1870.9 654.249,1862.32C664.777,1854.41 672.475,1842.71 674.291,1829.53C675.148,1823.31 674.664,1816.95 672.486,1811.03C671.879,1809.38 670.277,1808.26 668.479,1808.76C666.89,1809.19 665.593,1811.1 666.204,1812.76Z" style="fill:rgb(26,57,102);fill-rule:nonzero;"/>
            <path d="M600.255,1301.19C596.977,1292.77 591.694,1284.81 583.919,1280.22C576.145,1275.63 565.606,1275.09 558.373,1280.49C551.101,1285.92 548.658,1295.87 549.147,1304.94C549.635,1314 552.504,1322.76 553.674,1331.76C555.529,1346.03 552.917,1360.83 546.438,1373.66C545.89,1374.75 544.246,1374.08 544.617,1372.92C546.479,1367.11 547.977,1361.21 548.395,1355.14C549.16,1344.03 545.85,1332.06 536.147,1325.62C531.123,1322.29 524.855,1321.09 519.119,1322.96C507.395,1326.76 504.363,1340.32 506.306,1351.52C508.011,1361.36 512.623,1370.5 514.445,1380.32C516.604,1391.95 514.552,1404.27 508.963,1414.67C500.335,1412.77 491.71,1411.64 483.519,1411.31C466.355,1410.62 442.933,1411.6 418.445,1416.01C412.294,1405.33 409.962,1392.45 412.214,1380.32C414.037,1370.5 418.648,1361.36 420.354,1351.52C422.297,1340.32 419.265,1326.76 407.54,1322.96C401.804,1321.09 395.537,1322.29 390.513,1325.62C380.809,1332.06 377.499,1344.03 378.264,1355.14C378.682,1361.21 380.18,1367.11 382.043,1372.92C382.413,1374.08 380.769,1374.75 380.222,1373.66C373.742,1360.83 371.13,1346.03 372.985,1331.76C374.155,1322.76 377.025,1314 377.513,1304.94C378.001,1295.87 375.559,1285.92 368.287,1280.49C361.054,1275.09 350.514,1275.63 342.74,1280.22C334.966,1284.81 329.682,1292.77 326.405,1301.19C316.361,1326.96 323.808,1357.18 340.076,1379.56C353.247,1397.67 371.46,1411.33 391.055,1422.42C382.532,1424.92 374.11,1427.9 366.009,1431.45C361.117,1433.6 363.478,1440.96 368.721,1439.94C427.861,1428.47 491.914,1428.58 549.026,1440.4C553.842,1441.4 556.546,1434.98 552.426,1432.29C546.906,1428.7 540.936,1425.58 534.724,1422.91C554.653,1411.73 573.216,1397.94 586.583,1379.56C602.852,1357.18 610.299,1326.96 600.255,1301.19Z" style="fill:rgb(242,107,96);fill-rule:nonzero;"/>
            <path d="M437.888,1616.57C427.92,1629.87 432.041,1651.29 446.04,1660.26C460.04,1669.22 480.918,1664.27 489.723,1650.17C498.527,1636.07 494.053,1615.44 480.413,1605.93C466.772,1596.43 449.442,1601.15 437.888,1616.57Z" style="fill:rgb(242,107,96);fill-rule:nonzero;"/>
            <path d="M241.468,1866.75C262.946,1832.31 293.108,1803.57 328.295,1783.37C345.766,1773.35 364.42,1765.46 383.827,1760.04C407.871,1753.33 432.78,1750.36 457.687,1749.56C488.453,1748.58 519.414,1750.45 549.882,1754.78C584.123,1759.66 618.185,1767.68 650.278,1780.73C680.924,1793.19 710.353,1810.84 732.187,1836.06C734.71,1838.97 737.117,1841.98 739.399,1845.08C741.855,1848.43 747.512,1845.18 745.024,1841.8C724.85,1814.33 696.284,1794.48 665.595,1780.32C633.323,1765.43 598.636,1756.16 563.65,1750.36C532.017,1745.11 499.861,1742.52 467.793,1742.84C444.638,1743.07 421.423,1744.98 398.731,1749.72C377.445,1754.16 356.809,1761.34 337.374,1771.1C300.492,1789.62 268.232,1817.2 244.277,1850.81C241.333,1854.94 238.527,1859.16 235.843,1863.47C233.618,1867.03 239.252,1870.31 241.468,1866.75Z" style="fill:rgb(26,57,102);fill-rule:nonzero;"/>
            <path d="M535.676,1580.93C507.574,1590.74 485.901,1616.97 481.561,1646.42C480.191,1655.72 480.528,1665.63 484.902,1673.95C489.276,1682.27 498.396,1688.54 507.731,1687.45C518.992,1686.12 526.59,1675.32 530.942,1664.85C535.294,1654.38 538.25,1642.74 546.448,1634.9C554.133,1627.56 565.638,1624.45 571.606,1615.65C578.339,1605.73 574.958,1591.01 565.647,1583.45C556.336,1575.89 544.307,1577.92 535.676,1580.93Z" style="fill:white;fill-rule:nonzero;"/>
            <path d="M382.729,1580.66C409.625,1589.43 431.643,1611.92 439.831,1639C443.374,1650.72 444.305,1663.91 438.693,1674.79C433.081,1685.68 419.458,1692.93 408.097,1688.37C398.455,1684.49 393.381,1674.02 390.091,1664.16C386.801,1654.3 384.062,1643.59 376.402,1636.57C368.765,1629.57 356.861,1626.89 352.255,1617.61C348.492,1610.03 351.349,1600.5 356.925,1594.14C362.5,1587.77 370.298,1583.87 382.729,1580.66Z" style="fill:white;fill-rule:nonzero;"/>
            <path d="M529.88,1577.63C516.567,1584.56 505.101,1594.63 496.192,1606.69C487.137,1618.93 480.582,1633.66 478.671,1648.84C477.626,1657.14 478.364,1665.73 482.041,1673.33C485.193,1679.85 490.949,1685.02 497.623,1687.73C504.388,1690.48 512.142,1690.01 518.315,1686C524.93,1681.7 529.001,1674.77 531.883,1667.61C535.403,1658.87 537.497,1649.73 543.074,1641.95C547.887,1635.24 554.564,1630.02 562.064,1626.63C563.667,1625.9 564.054,1623.58 563.233,1622.17C562.268,1620.52 560.385,1620.28 558.776,1621C552.226,1623.96 546.265,1628.33 541.453,1633.67C536.208,1639.49 532.655,1646.2 529.997,1653.53C525.847,1664.98 520.982,1684.04 505.224,1682.95C499.385,1682.55 493.851,1678.89 490.314,1674.37C485.818,1668.62 484.509,1661 484.765,1653.88C485.271,1639.78 491.255,1625.68 498.968,1614.04C507.551,1601.09 519.39,1590.43 533.169,1583.26C536.889,1581.32 533.598,1575.69 529.88,1577.63Z" style="fill:rgb(26,57,102);fill-rule:nonzero;"/>
            <path d="M491.583,1654.78C488.35,1663.2 487.631,1672.34 489.161,1681.21C489.46,1682.95 491.591,1683.92 493.168,1683.49C495.002,1682.98 495.743,1681.22 495.443,1679.48C494.11,1671.75 495.066,1663.81 497.866,1656.51C498.496,1654.87 497.169,1652.94 495.59,1652.5C493.754,1652 492.216,1653.13 491.583,1654.78Z" style="fill:rgb(26,57,102);fill-rule:nonzero;"/>
            <path d="M508.783,1659.88C505.032,1668.3 503.839,1677.36 505.272,1686.46C505.546,1688.2 507.72,1689.17 509.279,1688.74C511.133,1688.23 511.829,1686.48 511.554,1684.73C510.423,1677.54 511.434,1669.85 514.409,1663.17C515.124,1661.57 514.875,1659.67 513.24,1658.72C511.851,1657.9 509.503,1658.27 508.783,1659.88Z" style="fill:rgb(26,57,102);fill-rule:nonzero;"/>
            <path d="M390.175,1586.47C414.643,1599.21 433.707,1623.73 438.035,1651.24C439.177,1658.49 438.924,1666.54 435.677,1673.25C433.052,1678.69 428.278,1683.28 422.505,1685.22C416.567,1687.21 410.534,1685.96 405.911,1681.7C400.508,1676.71 397.827,1669.74 395.491,1662.94C393.917,1658.36 392.4,1653.74 390.313,1649.36C388.541,1645.64 386.281,1642.21 383.698,1639C378.609,1632.68 371.959,1627.55 364.568,1624.21C362.966,1623.49 361.064,1623.75 360.111,1625.38C359.295,1626.78 359.669,1629.11 361.28,1629.84C368.175,1632.95 374.144,1637.55 378.933,1643.41C384.043,1649.66 386.623,1657.15 389.209,1664.67C391.807,1672.23 394.825,1679.87 400.596,1685.62C406.111,1691.12 413.501,1693.69 421.195,1692.29C428.217,1691 434.441,1686.51 438.655,1680.87C443.509,1674.37 445.269,1665.92 445.116,1657.93C444.823,1642.59 438.605,1627.09 430.275,1614.38C421.072,1600.34 408.373,1588.61 393.463,1580.84C389.749,1578.91 386.451,1584.53 390.175,1586.47Z" style="fill:rgb(26,57,102);fill-rule:nonzero;"/>
            <path d="M425.478,1659.72C428.278,1667.02 429.234,1674.96 427.901,1682.69C427.602,1684.42 428.363,1686.2 430.176,1686.7C431.744,1687.13 433.882,1686.17 434.183,1684.42C435.713,1675.55 434.993,1666.42 431.76,1657.99C431.131,1656.35 429.568,1655.22 427.753,1655.71C426.183,1656.15 424.845,1658.07 425.478,1659.72Z" style="fill:rgb(26,57,102);fill-rule:nonzero;"/>
            <path d="M408.935,1666.38C411.91,1673.06 412.921,1680.76 411.79,1687.94C411.516,1689.68 412.234,1691.45 414.065,1691.95C415.612,1692.38 417.797,1691.42 418.072,1689.68C419.505,1680.57 418.312,1671.52 414.561,1663.1C413.845,1661.49 411.503,1661.11 410.104,1661.93C408.448,1662.9 408.216,1664.77 408.935,1666.38Z" style="fill:rgb(26,57,102);fill-rule:nonzero;"/>
            <path d="M357.47,1673.39C345.077,1622.9 284.594,1647.12 297.114,1689.65C310.186,1724.96 368.828,1711.98 357.47,1673.39Z" style="fill:rgb(26,57,102);fill-rule:nonzero;"/>
            <path d="M243.846,1718.49C238.457,1725.68 240.685,1737.26 248.252,1742.11C255.82,1746.95 267.107,1744.28 271.866,1736.65C276.626,1729.03 274.207,1717.88 266.834,1712.74C259.459,1707.6 250.092,1710.15 243.846,1718.49Z" style="fill:rgb(242,107,96);fill-rule:nonzero;"/>
            <path d="M569.881,1632.56C564.492,1639.76 566.72,1651.34 574.288,1656.18C581.856,1661.03 593.142,1658.35 597.901,1650.73C602.661,1643.11 600.242,1631.95 592.869,1626.82C585.495,1621.68 576.127,1624.23 569.881,1632.56Z" style="fill:rgb(26,57,102);fill-rule:nonzero;"/>
            <path d="M629.43,1662.25C620.562,1674.08 624.228,1693.14 636.682,1701.11C649.136,1709.09 667.71,1704.69 675.543,1692.14C683.375,1679.6 679.395,1661.24 667.26,1652.79C655.126,1644.33 639.709,1648.53 629.43,1662.25Z" style="fill:rgb(242,107,96);fill-rule:nonzero;"/>
            <path d="M336.795,1759.67C331.406,1766.87 333.633,1778.44 341.201,1783.29C348.769,1788.14 360.056,1785.46 364.815,1777.84C369.575,1770.22 367.156,1759.06 359.782,1753.93C352.409,1748.79 343.04,1751.34 336.795,1759.67Z" style="fill:rgb(242,107,96);fill-rule:nonzero;"/>
            <path d="M261.879,1800.93C253.011,1812.77 256.677,1831.82 269.131,1839.8C281.585,1847.78 300.159,1843.37 307.991,1830.83C315.824,1818.28 311.843,1799.93 299.709,1791.47C287.574,1783.02 272.158,1787.22 261.879,1800.93Z" style="fill:rgb(26,57,102);fill-rule:nonzero;"/>
            <path d="M514.24,1740.88C508.851,1748.07 511.079,1759.65 518.646,1764.5C526.215,1769.35 537.501,1766.67 542.261,1759.05C547.021,1751.42 544.602,1740.27 537.228,1735.13C529.854,1730 520.486,1732.55 514.24,1740.88Z" style="fill:rgb(26,57,102);fill-rule:nonzero;"/>
            <path d="M409.268,1715.74C373.002,1755.38 430.829,1791.43 460.105,1756.32C482.78,1724.95 435.831,1683.89 409.268,1715.74Z" style="fill:rgb(242,107,96);fill-rule:nonzero;"/>
            <path d="M595.22,1738.83C558.954,1778.47 616.781,1814.52 646.057,1779.41C668.732,1748.04 621.784,1706.98 595.22,1738.83Z" style="fill:rgb(242,107,96);fill-rule:nonzero;"/>
            <path d="M688.195,1796.77C682.806,1803.96 685.033,1815.54 692.601,1820.39C700.169,1825.23 711.456,1822.56 716.215,1814.94C720.975,1807.31 718.556,1796.16 711.182,1791.02C703.809,1785.88 694.441,1788.43 688.195,1796.77Z" style="fill:rgb(26,57,102);fill-rule:nonzero;"/>
        </g>
    </g>
</svg>
