<?xml version="1.0" encoding="UTF-8" standalone="no"?>
<!DOCTYPE svg PUBLIC "-//W3C//DTD SVG 1.1//EN" "http://www.w3.org/Graphics/SVG/1.1/DTD/svg11.dtd">
<svg width="100%" height="100%" viewBox="0 0 2628 3083" version="1.1" xmlns="http://www.w3.org/2000/svg" xmlns:xlink="http://www.w3.org/1999/xlink" xml:space="preserve" xmlns:serif="http://www.serif.com/" style="fill-rule:evenodd;clip-rule:evenodd;stroke-linejoin:round;stroke-miterlimit:2;">
    <g transform="matrix(1,0,0,1,-8632.69,-2321.4)">
        <g transform="matrix(4.16667,0,0,4.16667,1617.99,-391.541)">
            <g transform="matrix(1,0,0,1,-264.873,304.237)">
                <path d="M2334.33,959.033C2346.06,965.075 2358.7,968.988 2370.79,974.196C2373.46,975.346 2376.11,976.578 2378.7,977.913C2362.17,970.572 2342.8,966.28 2327.69,956.242C2323.38,953.384 2319.44,950.007 2315.92,946.231C2321.4,951.306 2327.6,955.565 2334.33,959.033ZM2239.6,941.548C2241.57,934.368 2244.05,927.348 2246.48,920.312C2243.4,930.485 2240,940.611 2238.12,951.047C2234.76,969.729 2236.58,989.25 2242.97,1007.11C2239.18,997.502 2236.8,987.259 2236.01,976.976C2235.09,964.973 2236.42,953.14 2239.6,941.548ZM1975.21,641.353C1975.33,641.018 1975.53,640.679 1975.69,640.369C1976.07,639.653 1976.51,638.987 1976.95,638.316C1976.98,638.282 1976.99,638.258 1977.01,638.229C1977.05,638.187 1977.1,638.137 1977.16,638.071C1977.35,637.872 1977.52,637.665 1977.71,637.468C1977.99,637.175 1978.28,636.893 1978.58,636.62C1978.77,636.443 1978.97,636.27 1979.17,636.102C1979.61,635.746 1979.58,635.774 1979.06,636.184C1979.46,635.683 1980.4,635.293 1980.96,634.995C1981.21,634.863 1981.66,634.535 1981.94,634.511C1981.76,634.587 1981.58,634.662 1981.4,634.738C1981.62,634.648 1981.84,634.564 1982.07,634.484C1982.63,634.285 1983.21,634.116 1983.79,633.973C1984.14,633.888 1984.49,633.814 1984.84,633.749C1984.95,633.728 1985.07,633.711 1985.18,633.692C1985.21,633.689 1985.24,633.686 1985.27,633.682C1986.74,633.595 1988.19,633.547 1989.66,633.657C1990,633.682 1991.99,633.796 1990.54,633.718C1991.4,633.764 1992.29,634.001 1993.14,634.176C1998.08,635.201 2002.88,636.925 2007.64,638.641C2005.18,638.758 2002.71,638.873 2000.24,639.002C1991.44,639.462 1982.05,640.262 1974.42,644.221C1974.59,643.381 1974.81,642.549 1975.09,641.738C1975.11,641.677 1975.16,641.515 1975.21,641.353ZM2061.44,604.642C2061.54,604.803 2061.64,604.976 2061.7,605.17C2061.61,605.104 2061.52,604.896 2061.44,604.642ZM2005.19,588.569C2004.6,587.261 2004.03,585.945 2003.47,584.625C2003.38,584.418 2003.27,584.158 2003.25,584.093C2003.08,583.699 2002.92,583.304 2002.76,582.91C2002.43,582.115 2002.12,581.318 2001.81,580.519C2000.55,577.302 1999.41,574.04 1998.47,570.718C1998,569.073 1997.58,567.414 1997.23,565.74C1997.06,564.913 1996.9,564.082 1996.76,563.247C1996.69,562.84 1996.6,562.415 1996.57,562.002C1996.57,562.049 1996.57,562.074 1996.58,562.112C1996.56,561.979 1996.55,561.827 1996.54,561.692C1996.19,558.605 1995.98,555.262 1996.48,552.167C1996.52,551.963 1996.57,551.707 1996.59,551.621C1996.66,551.222 1996.73,550.824 1996.82,550.428C1996.99,549.634 1997.18,548.847 1997.41,548.069C1997.65,547.282 1997.92,546.516 1998.2,545.746C1998.22,545.697 1998.23,545.67 1998.24,545.631C1998.44,545.183 1998.64,544.737 1998.86,544.299C1999.24,543.55 1999.64,542.811 2000.09,542.1C2000.3,541.76 2000.53,541.436 2000.75,541.105C2000.77,541.066 2000.79,541.039 2000.81,541.008C2000.85,540.972 2000.89,540.932 2000.94,540.88C2001.46,540.347 2001.98,539.831 2002.52,539.326C2002.54,539.317 2002.55,539.307 2002.56,539.3C2003.02,539.03 2003.48,538.766 2003.93,538.491C2003.99,538.459 2004.02,538.434 2004.06,538.41C2004.08,538.404 2004.1,538.4 2004.12,538.394C2004.47,538.283 2004.81,538.159 2005.17,538.066C2005.24,538.046 2005.43,537.984 2005.62,537.929C2005.84,537.908 2006.06,537.892 2006.28,537.883C2006.64,537.869 2006.99,537.871 2007.34,537.888C2007.46,537.895 2007.57,537.903 2007.69,537.91C2008.26,537.967 2008.16,537.948 2007.4,537.853C2007.76,537.656 2009.11,538.231 2009.49,538.348C2009.84,538.458 2010.18,538.589 2010.52,538.711C2010.53,538.715 2010.54,538.717 2010.55,538.72C2010.59,538.742 2010.63,538.763 2010.68,538.791C2011.35,539.155 2012.04,539.489 2012.69,539.889C2013.37,540.301 2014.01,540.754 2014.65,541.208C2014.65,541.211 2014.66,541.215 2014.66,541.218C2014.63,541.192 2014.61,541.176 2014.58,541.146C2014.61,541.171 2014.64,541.195 2014.67,541.22C2014.83,541.339 2015.17,541.642 2014.87,541.388C2015.19,541.652 2015.51,541.911 2015.82,542.184C2017.05,543.261 2018.21,544.419 2019.31,545.632C2019.8,546.184 2020.29,546.748 2020.76,547.322C2020.97,547.574 2021.17,547.829 2021.38,548.083C2021.52,548.269 2021.66,548.455 2021.8,548.643C2026.05,554.438 2029.95,560.517 2033.56,566.731C2037.18,572.971 2040.49,579.391 2043.48,585.96C2044.21,587.571 2044.92,589.192 2045.62,590.82C2045.67,590.95 2045.73,591.088 2045.76,591.158C2045.9,591.505 2046.05,591.852 2046.19,592.2C2046.59,593.174 2046.98,594.15 2047.37,595.129C2048.69,598.486 2049.93,601.876 2051.08,605.295C2051.76,607.303 2052.19,609.594 2053.77,611.113C2055.77,613.026 2058.94,613.327 2061.29,611.892C2063.98,610.257 2064.56,607.382 2063.95,604.502C2063.55,602.603 2063.06,600.718 2062.59,598.833C2060.74,591.359 2058.71,583.93 2056.83,576.462C2054.99,569.141 2053.3,561.775 2052.1,554.319C2051.95,553.397 2051.81,552.474 2051.68,551.55C2051.66,551.439 2051.51,550.265 2051.57,550.726C2051.54,550.527 2051.52,550.327 2051.49,550.126C2051.25,548.126 2051.04,546.12 2050.89,544.111C2050.61,540.397 2050.49,536.668 2050.59,532.944C2050.64,531.224 2050.73,529.506 2050.87,527.791C2050.94,526.848 2051.04,525.907 2051.14,524.968C2051.18,524.607 2051.23,524.246 2051.27,523.886C2051.27,523.942 2051.44,522.687 2051.46,522.537C2051.91,519.683 2052.52,516.841 2053.53,514.13C2053.55,514.07 2053.58,513.98 2053.61,513.885C2053.71,513.608 2053.87,513.32 2053.99,513.069C2054.24,512.55 2054.51,512.04 2054.81,511.543C2054.98,511.249 2055.16,510.959 2055.35,510.675C2055.41,510.582 2055.48,510.488 2055.54,510.395C2055.86,509.953 2055.8,510.024 2055.35,510.608C2055.51,510.043 2056.51,509.289 2056.94,508.903C2057.02,508.83 2057.1,508.756 2057.18,508.683C2057.27,508.609 2057.33,508.562 2057.37,508.525C2057.55,508.42 2057.72,508.325 2057.77,508.298C2057.96,508.182 2058.15,508.07 2058.35,507.964C2058.45,507.912 2058.55,507.86 2058.65,507.808C2059.15,507.576 2059.06,507.606 2058.38,507.899C2058.76,507.508 2059.87,507.44 2060.39,507.3C2060.4,507.296 2060.4,507.294 2060.42,507.291C2060.84,507.276 2061.25,507.249 2061.67,507.264C2061.71,507.266 2061.75,507.268 2061.78,507.27C2062.03,507.334 2062.4,507.349 2062.57,507.39C2063.1,507.514 2063.61,507.693 2064.13,507.861C2064.14,507.867 2064.14,507.871 2064.15,507.878C2064.45,508.038 2064.76,508.18 2065.06,508.346C2065.63,508.668 2066.51,509.074 2066.99,509.578C2067.05,509.652 2067.12,509.723 2067.18,509.773C2067.41,509.969 2067.64,510.171 2067.86,510.375C2068.35,510.834 2068.83,511.312 2069.3,511.807C2069.78,512.323 2070.43,512.9 2070.77,513.518C2070.17,512.442 2070.74,513.484 2070.9,513.705C2071.21,514.119 2071.5,514.539 2071.78,514.965C2072.56,516.138 2073.27,517.355 2073.91,518.607C2074.26,519.28 2074.57,519.966 2074.89,520.654C2074.89,520.665 2074.89,520.67 2074.9,520.68C2074.91,520.72 2074.93,520.76 2074.94,520.814C2075.12,521.301 2075.31,521.785 2075.48,522.274C2076.71,525.735 2077.73,529.267 2078.56,532.841C2078.94,534.465 2079.28,536.099 2079.59,537.739C2079.75,538.633 2079.9,539.528 2080.05,540.424C2080.12,540.873 2080.19,541.321 2080.25,541.77C2080.28,541.978 2080.31,542.187 2080.34,542.395C2080.35,542.468 2080.36,542.548 2080.38,542.67C2080.8,546.28 2081.11,549.895 2081.24,553.528C2081.5,560.859 2081.14,568.204 2080.35,575.493C2080.26,576.26 2080.17,577.026 2080.08,577.792C2080.02,578.252 2079.96,578.712 2079.91,579.172C2079.89,579.276 2079.88,579.358 2079.88,579.426C2079.87,579.491 2079.85,579.57 2079.84,579.665C2079.56,581.663 2079.26,583.658 2078.92,585.648C2078.32,589.266 2077.62,592.869 2076.85,596.456C2075.3,603.75 2073.46,610.98 2071.46,618.166C2069.72,624.453 2067.85,630.705 2065.96,636.948C2057.23,637.038 2048.51,637.207 2039.79,637.443C2038.84,636.579 2037.9,635.705 2036.97,634.811C2034.71,632.623 2032.53,630.352 2030.44,628.009C2029.22,626.649 2028.02,625.264 2026.86,623.857C2026.29,623.171 2025.73,622.479 2025.17,621.782C2024.87,621.4 2024.56,621.017 2024.26,620.633C2024.31,620.697 2024.35,620.746 2024.41,620.824C2024.33,620.714 2024.24,620.604 2024.16,620.494C2024.15,620.48 2024.14,620.467 2024.13,620.454C2024.01,620.305 2023.9,620.155 2023.78,620.006C2018.08,612.493 2013.09,604.446 2008.79,596.049C2007.53,593.585 2006.33,591.09 2005.19,588.569ZM2002.5,539.343C2002.02,539.771 2002.28,539.495 2002.5,539.343ZM2006.22,537.843C2006.03,537.87 2005.84,537.897 2005.64,537.923C2005.88,537.855 2006.13,537.797 2006.22,537.843ZM2054.18,607.197C2054.18,607.173 2054.18,607.149 2054.17,607.126C2054.18,607.163 2054.18,607.192 2054.18,607.197ZM2057.31,508.562C2057.23,508.628 2057.11,508.718 2056.94,508.856C2056.94,508.803 2057.12,508.68 2057.31,508.562ZM2399.13,420.432C2399.14,420.304 2399.18,420.022 2399.2,419.865C2399.24,419.558 2399.29,419.251 2399.33,418.944C2399.44,418.219 2399.55,417.495 2399.67,416.771C2399.95,415.038 2400.26,413.31 2400.62,411.588C2401.29,408.297 2402.09,405.033 2403.03,401.808C2403.97,398.587 2405.04,395.406 2406.26,392.28C2406.52,391.6 2406.8,390.925 2407.07,390.249C2407.11,390.172 2407.13,390.11 2407.15,390.055C2407.18,389.998 2407.21,389.929 2407.25,389.845C2407.42,389.444 2407.6,389.041 2407.77,388.641C2408.46,387.104 2409.18,385.584 2409.95,384.082C2411.27,381.459 2412.77,378.951 2414.53,376.594C2414.66,376.423 2414.88,376.147 2414.93,376.08C2415.19,375.765 2415.45,375.454 2415.72,375.148C2416.16,374.638 2416.62,374.14 2417.09,373.654C2417.65,373.076 2418.22,372.515 2418.82,371.975C2419.01,371.797 2419.21,371.621 2419.41,371.448C2419.5,371.371 2419.87,371.061 2420.1,370.864C2421.13,370.052 2422.28,369.337 2423.44,368.726C2423.77,368.552 2424.1,368.396 2424.44,368.23C2425.12,367.889 2424.63,368.101 2424.37,368.231C2424.97,367.856 2425.98,367.691 2426.63,367.534C2426.92,367.464 2427.21,367.403 2427.5,367.349C2427.77,367.3 2427.88,367.26 2427.91,367.233C2428.48,367.209 2429.3,367.288 2429.5,367.298C2429.5,367.298 2429.65,367.299 2429.81,367.305C2429.97,367.332 2430.13,367.357 2430.28,367.39C2431.01,367.541 2431.7,367.774 2432.39,368.017C2432.54,368.09 2432.69,368.16 2432.84,368.236C2433.21,368.432 2433.57,368.643 2433.93,368.87C2434.06,368.951 2434.18,369.047 2434.31,369.145C2434.39,369.175 2434.52,369.247 2434.65,369.369C2434.69,369.404 2434.73,369.439 2434.77,369.473C2434.83,369.514 2434.9,369.556 2434.96,369.588C2434.9,369.558 2434.86,369.534 2434.8,369.507C2434.93,369.613 2435.05,369.718 2435.16,369.827C2435.75,370.373 2436.27,370.969 2436.79,371.574C2436.9,371.719 2437,371.861 2437.1,372.007C2437.37,372.408 2437.63,372.819 2437.88,373.236C2438.33,373.987 2438.73,374.763 2439.1,375.553C2439.13,375.597 2439.21,375.748 2439.27,375.884C2439.29,375.94 2439.31,375.996 2439.33,376.051C2439.38,376.16 2439.42,376.271 2439.48,376.377C2439.44,376.297 2439.41,376.242 2439.38,376.176C2439.56,376.654 2439.75,377.131 2439.92,377.616C2440.62,379.627 2441.16,381.692 2441.6,383.776C2441.81,384.771 2441.99,385.771 2442.15,386.775C2442.24,387.284 2442.31,387.794 2442.39,388.303C2442.42,388.569 2442.45,388.835 2442.48,389.101C2442.75,391.398 2442.94,393.705 2443.06,396.015C2443.31,400.503 2443.35,404.999 2443.31,409.493C2443.22,420.17 2443.4,430.844 2443.27,441.52C2442.98,464.897 2441.52,488.232 2439.69,511.534C2430.74,509.752 2421.69,508.554 2412.59,507.958C2411.67,504.812 2410.74,501.669 2409.81,498.528C2416.42,498.403 2423.04,498.816 2429.59,499.801C2430.94,500.004 2432.31,499.461 2432.71,498.031C2433.04,496.835 2432.3,495.119 2430.94,494.914C2423.43,493.785 2415.86,493.331 2408.31,493.544C2407.28,490.154 2406.25,486.767 2405.2,483.385C2411.22,482.317 2417.3,481.518 2423.4,481.015C2428.48,480.595 2433.57,480.373 2438.67,480.332C2441.93,480.306 2441.94,475.238 2438.67,475.265C2426.94,475.357 2415.22,476.458 2403.67,478.529C2402.63,475.223 2401.57,471.923 2400.5,468.628C2400.3,467.391 2400.09,466.154 2399.9,464.914C2399.78,464.119 2399.67,463.323 2399.55,462.527C2399.54,462.441 2399.53,462.372 2399.52,462.31C2399.52,462.248 2399.51,462.176 2399.5,462.086C2399.43,461.576 2399.37,461.066 2399.3,460.555C2397.69,447.254 2397.46,433.74 2399.13,420.432ZM2430.21,367.351C2430.11,367.337 2430.01,367.323 2429.91,367.309C2430.05,367.316 2430.19,367.329 2430.21,367.351ZM2465.49,480.778C2467.42,475.514 2469.45,470.284 2471.57,465.093C2472.07,463.85 2472.59,462.61 2473.11,461.371C2473.18,461.195 2473.25,461.018 2473.33,460.842C2473.32,460.857 2473.32,460.852 2473.33,460.833C2473.34,460.823 2473.34,460.814 2473.34,460.804C2473.34,460.811 2473.34,460.823 2473.33,460.828C2473.37,460.747 2473.48,460.479 2473.51,460.398C2473.82,459.672 2474.13,458.945 2474.44,458.22C2475.57,455.608 2476.72,453.007 2477.89,450.417C2482.34,440.562 2486.97,430.649 2493.21,421.774C2493.55,421.284 2493.9,420.797 2494.26,420.314C2494.44,420.073 2494.62,419.835 2494.79,419.594C2494.84,419.531 2494.88,419.479 2494.91,419.432C2494.93,419.414 2494.94,419.4 2494.96,419.377C2495.72,418.435 2496.45,417.477 2497.31,416.617C2497.6,416.324 2497.9,416.042 2498.21,415.77C2498.19,415.755 2498.23,415.704 2498.39,415.594C2498.47,415.545 2498.54,415.499 2498.61,415.45C2498.66,415.413 2498.69,415.38 2498.69,415.359C2498.69,415.38 2498.67,415.398 2498.66,415.418C2499.36,414.952 2500.05,414.509 2500.81,414.14C2500.88,414.101 2500.96,414.065 2501.04,414.029C2501.41,413.916 2501.77,413.762 2502.14,413.652C2502.5,413.544 2502.87,413.448 2503.24,413.365C2503.41,413.326 2503.59,413.291 2503.76,413.258C2503.69,413.261 2503.63,413.262 2503.56,413.26C2503.63,413.262 2503.7,413.257 2503.76,413.257C2503.77,413.255 2503.78,413.253 2503.79,413.251C2504.57,413.105 2504.22,413.232 2503.77,413.257C2504.49,413.253 2505.22,413.13 2505.94,413.146C2506.3,413.153 2506.66,413.183 2507.02,413.207C2506.92,413.186 2506.82,413.165 2506.69,413.136C2506.84,413.171 2507,413.192 2507.16,413.216C2507.18,413.216 2507.19,413.217 2507.2,413.218C2507.35,413.227 2507.5,413.262 2507.56,413.285C2508.33,413.434 2509.08,413.632 2509.82,413.881C2509.93,413.919 2510.46,414.135 2510.64,414.198C2510.87,414.311 2511.12,414.43 2511.2,414.471C2511.91,414.842 2512.6,415.261 2513.25,415.725C2513.29,415.749 2513.31,415.765 2513.34,415.785C2513.35,415.791 2513.35,415.795 2513.36,415.801C2513.71,416.121 2514.08,416.428 2514.42,416.765C2514.73,417.069 2515.03,417.385 2515.31,417.712C2515.42,417.839 2515.54,418.034 2515.67,418.171C2516.12,418.837 2516.55,419.505 2516.92,420.223C2516.97,420.33 2517.03,420.438 2517.08,420.546C2517.16,420.918 2517.42,421.378 2517.52,421.715C2517.69,422.222 2517.82,422.734 2517.95,423.251C2518.02,423.563 2518.08,423.876 2518.15,424.19C2518.17,424.322 2518.25,424.861 2518.28,425.051C2518.4,426.21 2518.45,427.376 2518.43,428.541C2518.42,429.261 2518.39,429.98 2518.34,430.697C2518.31,431.098 2518.27,431.497 2518.23,431.896C2518.22,431.968 2518.16,432.468 2518.13,432.706C2518.1,432.891 2518.07,433.126 2518.06,433.186C2518,433.586 2517.93,433.985 2517.86,434.383C2517.74,435.021 2517.62,435.657 2517.48,436.291C2517.18,437.716 2516.85,439.132 2516.49,440.543C2515.13,445.955 2513.59,451.321 2511.91,456.64C2510.28,461.801 2508.5,466.917 2506.61,471.988C2505.64,474.597 2504.63,477.194 2503.6,479.779C2503.11,481.001 2502.61,482.22 2502.11,483.436C2501.85,484.08 2501.58,484.723 2501.31,485.366C2501.29,485.423 2501.23,485.56 2501.18,485.669C2501.06,485.949 2500.94,486.23 2500.83,486.51C2495.53,498.926 2489.63,511.062 2483.39,523.025C2472.92,523.36 2462.45,523.695 2451.99,524.031C2455.79,509.408 2460.29,494.966 2465.49,480.778ZM2515.5,511.358C2516.19,510.778 2516.88,510.205 2517.58,509.641C2517.91,509.376 2518.24,509.114 2518.57,508.853C2518.78,508.68 2519.01,508.514 2519.22,508.337C2519.18,508.37 2519.16,508.387 2519.13,508.416C2520.58,507.315 2522.05,506.252 2523.56,505.239C2526.34,503.379 2529.24,501.676 2532.29,500.301C2532.37,500.264 2532.49,500.217 2532.61,500.17C2532.53,500.198 2532.44,500.23 2532.34,500.266C2532.7,500.14 2533.04,499.984 2533.39,499.851C2534.1,499.58 2534.83,499.33 2535.56,499.106C2536.92,498.689 2538.29,498.457 2539.68,498.167C2537.62,498.598 2539.85,498.173 2540.47,498.147C2541.1,498.12 2541.73,498.123 2542.36,498.16C2542.58,498.173 2542.8,498.196 2543.03,498.216L2543.03,498.218C2543.69,498.338 2544.35,498.499 2544.99,498.703C2545.2,498.773 2545.42,498.854 2545.63,498.93C2546.25,499.24 2546.85,499.556 2547.43,499.936C2547.53,500.006 2548.25,500.64 2547.82,500.212C2547.91,500.302 2548,500.385 2548.02,500.405C2548.19,500.563 2548.75,501.309 2549.01,501.519C2549.13,501.707 2549.25,501.892 2549.36,502.086C2549.45,502.252 2549.53,502.425 2549.62,502.592C2549.77,503.052 2549.92,503.506 2550.03,503.978C2550.08,504.159 2550.09,504.54 2550.17,504.762C2550.24,505.809 2550.26,506.848 2550.17,507.898C2550.16,508.078 2550.14,508.258 2550.12,508.439C2550.12,508.45 2550.11,508.456 2550.11,508.469C2550.02,508.948 2549.94,509.429 2549.83,509.906C2549.59,511.02 2549.28,512.119 2548.93,513.202C2548.68,513.964 2548.29,514.734 2548.03,515.509C2548.08,515.406 2548.08,515.594 2547.98,515.817C2547.93,515.912 2547.89,516.007 2547.85,516.102C2547.84,516.128 2547.83,516.154 2547.83,516.18C2547.83,516.157 2547.84,516.144 2547.84,516.122C2547.76,516.294 2547.69,516.467 2547.61,516.639C2547.3,517.307 2546.99,517.971 2546.67,518.633C2546.25,519.512 2545.8,520.38 2545.36,521.249C2543.24,521.122 2541.09,521.175 2538.99,521.243C2527.26,521.619 2515.53,521.994 2503.81,522.37C2507.54,518.524 2511.41,514.814 2515.5,511.358ZM2548.8,501.173C2548.71,501.028 2548.67,500.963 2548.8,501.173ZM2550.15,504.443C2550.15,504.45 2550.15,504.457 2550.16,504.464C2550.13,504.166 2550.11,503.902 2550.15,504.443ZM2438.64,524.458C2431.59,524.684 2424.54,524.91 2417.49,525.136C2416.86,522.899 2416.25,520.659 2415.61,518.424C2415.1,516.652 2414.59,514.882 2414.08,513.111C2418.89,513.463 2423.69,513.986 2428.47,514.695C2432.09,515.233 2435.69,515.875 2439.28,516.608C2439.07,519.225 2438.86,521.842 2438.64,524.458ZM2568.68,773.09C2567.74,698.688 2566.28,624.293 2564.32,549.91C2564.08,540.451 2562.86,529.369 2555.21,524.195C2555.69,523.205 2556.16,522.214 2556.61,521.21C2558.7,516.507 2560.35,511.517 2560.38,506.312C2560.41,500.388 2557.95,495.071 2553.12,491.585C2547.58,487.582 2540.29,487.315 2533.89,489.038C2526.94,490.907 2520.56,494.784 2514.84,499.043C2509.84,502.759 2505.15,506.835 2500.68,511.155C2502.94,506.456 2505.15,501.728 2507.26,496.955C2511.98,486.295 2516.32,475.461 2520.03,464.408C2521.83,459.054 2523.48,453.651 2524.96,448.201C2526.59,442.239 2528.18,436.175 2528.52,429.978C2528.82,424.541 2527.93,418.782 2525.09,414.059C2522.95,410.514 2519.77,407.452 2516.06,405.591C2507.96,401.524 2498.56,402.443 2491.53,408.192C2489.53,409.82 2488,411.911 2486.45,413.943C2484.76,416.153 2483.19,418.445 2481.71,420.799C2478.76,425.479 2476.19,430.38 2473.78,435.351C2468.61,445.995 2463.92,456.887 2459.59,467.896C2456.64,475.399 2453.89,482.982 2451.33,490.626C2452.24,476.956 2452.94,463.274 2453.26,449.574C2453.55,437.461 2453.23,425.356 2453.4,413.246C2453.53,403.736 2453.48,394.23 2452.04,384.807C2450.69,375.944 2447.69,366.578 2440.26,360.975C2435.53,357.41 2429.3,356.335 2423.59,357.847C2417.16,359.551 2411.61,364.135 2407.51,369.228C2402.96,374.876 2399.86,381.273 2397.13,387.959C2394.6,394.175 2392.64,400.62 2391.2,407.177C2389.37,415.542 2388.35,424.077 2388,432.638C2384.04,422.378 2379.46,412.328 2373.18,403.341C2367.18,394.771 2358.3,385.509 2346.77,388.155C2341.28,389.414 2336.66,393.124 2332.64,396.885C2328.3,400.943 2324.27,405.336 2320.57,409.985C2316.9,414.608 2313.54,419.458 2310.52,424.537C2310.51,424.557 2310.5,424.577 2310.49,424.597C2303.41,423.68 2296.28,423.051 2289.14,422.821C2277.2,422.437 2265.27,423.191 2253.43,424.792C2251.47,425.058 2249.51,425.35 2247.55,425.66C2247.53,425.299 2247.42,424.921 2247.19,424.537C2241.54,415.025 2234.68,406.215 2226.75,398.492C2219.75,391.668 2210.75,384.937 2200.51,388.895C2190.84,392.634 2184.43,402.636 2179.57,411.283C2174.81,419.771 2171.15,428.859 2167.75,437.959C2162.15,452.902 2157.21,468.113 2152.51,483.381C2149.37,483.146 2146.23,482.956 2143.08,482.865C2137.87,482.715 2132.66,482.771 2127.45,483.018C2124.2,483.172 2124.19,488.24 2127.45,488.086C2135.3,487.714 2143.16,487.821 2150.99,488.356C2149.77,492.366 2148.57,496.379 2147.37,500.391C2143.64,500.822 2139.93,501.41 2136.25,502.173C2134.91,502.451 2134.14,504.032 2134.48,505.29C2134.86,506.682 2136.25,507.339 2137.6,507.06C2140.32,506.496 2143.06,506.037 2145.82,505.665C2144.79,509.14 2143.78,512.618 2142.77,516.101C2141.29,516.372 2139.81,516.652 2138.33,516.955C2133.26,517.993 2128.24,519.228 2123.27,520.644C2120.14,521.536 2121.47,526.427 2124.62,525.531C2130.1,523.971 2135.64,522.67 2141.22,521.577C2133.38,549.225 2126.3,577.096 2120.26,605.19C2117.98,615.805 2115.82,626.473 2113.85,637.183C2101.43,636.933 2089,636.83 2076.57,636.875C2082.23,618.082 2087.43,599.132 2089.98,579.632C2091.33,569.334 2091.88,558.906 2091.1,548.538C2090.32,538.268 2088.5,527.741 2084.72,518.119C2081.36,509.587 2075.26,500.635 2066.06,497.83C2061.49,496.439 2056.2,497.149 2052.23,499.818C2048.15,502.559 2045.63,506.59 2043.89,511.103C2042.18,515.518 2041.53,520.292 2041,524.968C2040.42,530.165 2040.3,535.408 2040.54,540.631C2040.9,548.416 2042.03,556.15 2043.55,563.798C2041.77,560.648 2039.92,557.541 2037.98,554.484C2032.64,546.057 2026.99,537.111 2018.47,531.554C2014.12,528.716 2009.06,527.22 2003.88,528.018C1998.6,528.831 1994.24,532.403 1991.44,536.816C1985.85,545.617 1985.31,556.353 1987.06,566.357C1988.73,575.909 1992.53,585.057 1996.52,593.846C1999.56,600.565 2003.03,607.095 2006.93,613.357C2011.16,620.145 2015.91,626.656 2021.13,632.738C2014.77,630.315 2008.35,628.05 2001.87,626.01C1993.78,623.461 1984.99,622.102 1976.99,625.686C1968.3,629.584 1963.5,639.316 1964.07,648.583C1964.16,650.02 1964.35,651.426 1964.63,652.806C1957.8,662.835 1958.12,676.97 1959.03,689.53L1969.55,835.939C1970.5,849.139 1982.71,858.633 1995.72,856.211C2003.27,854.805 2011.36,853.485 2019.82,852.246C2023.49,851.71 2027.22,851.19 2031.02,850.686C2031.06,850.681 2031.1,850.676 2031.14,850.67C2033,850.423 2034.87,850.181 2036.76,849.942C2036.83,849.934 2036.89,849.926 2036.96,849.918C2038.84,849.68 2040.74,849.446 2042.65,849.216C2071.78,845.71 2103.63,843.137 2133.37,841.64C2137.89,848.321 2143.16,854.446 2149.83,859.111C2157.27,864.323 2166.67,867.368 2175.8,866.418C2183.89,865.578 2191.57,861.774 2196.02,854.78C2198.11,851.502 2199.22,847.858 2199.61,844.11C2201.43,844.459 2203.27,844.811 2205.12,845.163C2204.9,846.561 2205.7,848.153 2207.53,848.157C2217.62,848.178 2228.32,849.518 2236.99,854.468C2240.1,856.243 2242.24,857.88 2244.68,860.632C2244.9,860.887 2245.12,861.145 2245.34,861.408C2245.43,861.516 2245.51,861.627 2245.6,861.737C2245.67,861.819 2245.77,861.953 2245.8,861.991C2246.21,862.561 2246.62,863.137 2246.99,863.733C2247.7,864.855 2248.31,866.03 2248.85,867.241C2248.91,867.388 2249.01,867.637 2249.05,867.725C2249.17,868.033 2249.28,868.345 2249.39,868.659C2249.59,869.262 2249.78,869.873 2249.94,870.491C2250.07,870.98 2250.18,871.473 2250.28,871.969C2250.33,872.255 2250.38,872.542 2250.43,872.83C2250.45,872.922 2250.46,872.98 2250.47,873.03C2250.47,873.06 2250.47,873.081 2250.48,873.131C2251.01,878.528 2250.66,884.064 2249.82,889.411C2247.73,902.664 2242.79,915.236 2238.53,927.892C2234.48,939.944 2231.23,952.176 2230.72,964.941C2230.25,976.676 2231.8,988.535 2235.12,999.793C2241.89,1022.68 2256.02,1043.13 2275.59,1056.89C2295.03,1070.55 2319.19,1077.44 2342.9,1076.48C2367.04,1075.51 2394.05,1066.41 2407.87,1045.35C2414.67,1035 2417.78,1021.98 2414.73,1009.82C2411.92,998.605 2404.28,989.369 2395.3,982.41C2385.33,974.687 2373.82,969.798 2362.14,965.282C2349.98,960.583 2337.56,956.122 2326.78,948.634C2309.31,936.509 2297.15,915.339 2299.12,893.741C2299.46,890.05 2300.24,885.98 2301.35,882.039C2302.53,877.84 2303.96,874.048 2305.91,870.274C2309.68,862.963 2314.89,856.549 2322.43,853.148C2325.82,851.615 2329.89,850.983 2333.88,851.174C2335.68,851.261 2336.48,849.752 2336.29,848.359C2338.1,848.146 2339.9,847.936 2341.66,847.728C2341.57,848.343 2341.47,848.958 2341.4,849.58C2341.32,850.235 2341.27,850.895 2341.24,851.556C2339.51,856.284 2338.76,861.296 2339.61,866.457C2340.95,874.578 2346.84,881.29 2354.24,884.603C2362.81,888.435 2372.67,888.411 2381.5,885.411C2392.93,881.525 2402.14,873.214 2409.96,864.28C2417.87,855.24 2424.86,845.446 2433.15,836.725C2433.78,836.065 2434.42,835.42 2435.06,834.773C2465.1,832.464 2495.08,829.413 2524.97,825.57C2537.16,824.003 2550.33,821.817 2558.79,812.894C2568.44,802.703 2568.85,787.128 2568.68,773.09Z" style="fill:white;fill-rule:nonzero;"/>
            </g>
            <g transform="matrix(1,0,0,1,-264.873,304.237)">
                <path d="M2503.76,413.257L2503.76,413.258L2503.77,413.257L2503.76,413.257Z" style="fill:white;fill-rule:nonzero;"/>
            </g>
            <g transform="matrix(1,0,0,1,-264.873,304.237)">
                <path d="M2434.8,369.507C2434.79,369.496 2434.78,369.484 2434.77,369.473C2434.61,369.375 2434.46,369.261 2434.31,369.145C2434.16,369.088 2434.21,369.205 2434.8,369.507Z" style="fill:white;fill-rule:nonzero;"/>
            </g>
            <g transform="matrix(1,0,0,1,-264.873,304.237)">
                <path d="M2547.85,516.102C2547.9,515.904 2547.96,515.706 2548.03,515.509C2547.99,515.573 2547.92,515.757 2547.84,516.122C2547.84,516.115 2547.85,516.109 2547.85,516.102Z" style="fill:white;fill-rule:nonzero;"/>
            </g>
            <g transform="matrix(1,0,0,1,-264.873,304.237)">
                <path d="M2439.38,376.176C2439.36,376.134 2439.35,376.092 2439.33,376.051C2439.27,375.924 2439.22,375.798 2439.16,375.674C2439.14,375.633 2439.12,375.594 2439.1,375.553C2439.06,375.499 2439.11,375.63 2439.38,376.176Z" style="fill:white;fill-rule:nonzero;"/>
            </g>
            <g transform="matrix(1,0,0,1,-264.873,304.237)">
                <path d="M2498.66,415.418C2498.65,415.429 2498.63,415.439 2498.61,415.45C2498.5,415.554 2498.29,415.698 2498.22,415.757C2498.22,415.761 2498.21,415.766 2498.21,415.77C2498.24,415.802 2498.55,415.648 2498.66,415.418Z" style="fill:white;fill-rule:nonzero;"/>
            </g>
            <g transform="matrix(1,0,0,1,-264.873,304.237)">
                <path d="M2519.13,508.416C2519.11,508.429 2519.09,508.442 2519.07,508.455C2518.83,508.645 2518.09,509.263 2519.13,508.416Z" style="fill:white;fill-rule:nonzero;"/>
            </g>
            <g transform="matrix(1,0,0,1,-264.873,304.237)">
                <path d="M2473.33,460.828L2473.33,460.842L2473.33,460.828Z" style="fill:white;fill-rule:nonzero;"/>
            </g>
            <g transform="matrix(1,0,0,1,-264.873,304.237)">
                <path d="M2507.56,413.285C2507.55,413.282 2507.53,413.278 2507.52,413.275C2507.4,413.253 2507.28,413.233 2507.16,413.216C2507.11,413.213 2507.07,413.21 2507.02,413.207C2507.53,413.316 2507.64,413.314 2507.56,413.285Z" style="fill:white;fill-rule:nonzero;"/>
            </g>
            <g transform="matrix(1,0,0,1,-264.873,304.237)">
                <path d="M2532.61,500.17C2533.61,499.812 2533.07,499.992 2532.61,500.17Z" style="fill:white;fill-rule:nonzero;"/>
            </g>
            <g transform="matrix(1,0,0,1,-264.873,304.237)">
                <path d="M2014.67,541.22C2014.66,541.219 2014.66,541.218 2014.66,541.218C2014.75,541.291 2014.82,541.348 2014.87,541.388C2014.8,541.333 2014.73,541.276 2014.67,541.22Z" style="fill:white;fill-rule:nonzero;"/>
            </g>
            <g transform="matrix(1,0,0,1,-264.873,304.237)">
                <path d="M2508.23,429.947C2502.63,459.611 2490.87,485.501 2477.11,513.084L2465.42,513.459C2469.67,498.904 2474.51,484.912 2480.12,470.968L2480.14,470.968C2481.57,466.764 2508.34,403.094 2508.23,429.947ZM2433.16,424.477C2433.27,437.939 2433.06,451.93 2432.46,465.265C2425.2,465.531 2417.92,466.164 2410.68,467.159C2406.05,445.153 2406.79,403.845 2422.11,383.891C2424.89,380.273 2430.56,381.462 2431.64,385.892C2434.63,398.052 2432.45,411.824 2433.16,424.477ZM2043.69,627.203C2030.64,615.178 2007.45,580.592 2006.61,558.183C2006.46,554.23 2011.43,552.273 2013.95,555.324C2023.41,566.782 2030.04,581.43 2036.3,594.805C2041.31,605.716 2048.64,627.081 2043.69,627.203ZM2578.81,772.962C2577.88,698.885 2576.41,623.75 2574.46,549.644C2574.3,543.639 2573.97,531.197 2567.27,521.986C2580.28,492.854 2553.35,468.103 2524.63,481.536C2533.89,455.025 2552.78,413.087 2519.99,396.244L2512.86,393.772C2486.89,387.676 2473.02,413.055 2463.52,433.301C2462.66,408.355 2468.52,369.643 2446.36,352.882C2413.95,331.327 2388.31,372.645 2382.69,399.292C2355.86,357.715 2324.52,383.932 2305.3,413.785C2287.45,411.914 2271.1,412.267 2252.97,414.628C2195.27,328.058 2163.06,412.011 2145.19,472.796C2139.11,472.563 2133.09,472.606 2126.97,472.893C2111.72,473.426 2110.83,496.705 2126.03,498.161C2123.99,501.624 2123.7,505.93 2125.27,509.594C2105.97,510.904 2107.5,538.475 2126.85,535.421C2118.34,566.822 2111.4,596.335 2105.48,626.9C2100.36,626.825 2095.22,626.774 2090.1,626.749C2135.04,481.78 2035.64,449.871 2030.54,528.189C2000.45,500.156 1969.06,532.465 1977.08,568.104C1980.61,585.791 1987.46,599.335 1995.52,614.042C1973.07,608.968 1951.22,626.962 1954.08,650.705C1947.61,662.849 1947.99,677.386 1948.92,690.257L1959.44,836.666C1960.63,855.642 1978.96,869.852 1997.57,866.175C2040.65,858.456 2082.7,854.705 2128.37,852.051C2145.21,878.215 2189.02,887.985 2205.78,858.172C2285.79,858.508 2199.36,931.307 2225.4,1002.67C2244.12,1083.57 2367.3,1118.68 2416.35,1050.91C2433.71,1024.44 2427.02,993.44 2401.51,974.398C2379.96,957.437 2353.91,954.599 2332.56,940.309C2313.69,927.012 2304.79,905.306 2311.1,884.782C2313.84,875.056 2319.83,863.639 2329.13,861.599C2327.97,889.309 2360.83,904.51 2384.76,895.006C2412.83,884.287 2421.77,863.442 2439.67,844.58C2468.83,842.277 2497.93,839.266 2526.26,835.624C2566.13,833.25 2581.37,807.916 2578.81,772.962Z" style="fill:white;fill-rule:nonzero;"/>
            </g>
            <g transform="matrix(1,0,0,1,-264.873,304.237)">
                <path d="M2024.13,620.454C2024.14,620.467 2024.15,620.481 2024.16,620.494C2024.19,620.534 2024.22,620.572 2024.24,620.603C2024.25,620.613 2024.26,620.623 2024.26,620.633C2023.65,619.817 2023.9,620.162 2024.13,620.454Z" style="fill:white;fill-rule:nonzero;"/>
            </g>
            <g transform="matrix(1,0,0,1,-264.873,304.237)">
                <path d="M2188.77,840.073C2133.13,840.053 2050.54,845.973 1995.84,856.158C1982.83,858.58 1970.62,849.086 1969.67,835.886L1959.14,689.477C1958.1,675.016 1957.83,658.465 1968.36,648.501C1976.63,640.679 1988.99,639.543 2000.36,638.949C2059.95,635.831 2119.72,636.116 2179.29,639.804C2187.86,702.447 2213.39,765.663 2188.77,840.073Z" style="fill:rgb(242,107,96);fill-rule:nonzero;"/>
            </g>
            <g transform="matrix(1,0,0,1,-264.873,304.237)">
                <path d="M1970.49,800.794C1970.39,804.37 1970.54,808.447 1970.69,812.523C1970.75,814.028 1970.98,815.823 1972.75,816.282C1973.17,816.392 1973.63,816.38 1974.05,816.271C1975.93,815.79 1979.33,808.095 1981.63,800.151C1981.66,800.061 1981.78,800.03 1981.85,800.096C1984.69,802.646 1987.83,804.917 1991.19,806.857C1992.74,807.748 1994.52,808.609 1996.36,807.711C1998.33,806.75 1998.86,804.334 1997.63,802.616C1993.9,797.419 1990.59,794.466 1989.62,792.496C1989.58,792.417 1989.63,792.345 1989.71,792.294C1997.71,786.973 2006.33,782.867 2003,780.294C2002.48,779.891 2001.76,779.769 2001.09,779.891C1995.41,780.929 1989.82,782.436 1984.43,784.387C1984.29,784.436 1984.15,784.355 1984.13,784.224C1983.59,780.088 1983.01,775.994 1982.44,771.9C1982.21,770.324 1981.72,768.417 1979.82,768.224C1979.36,768.178 1978.9,768.269 1978.5,768.458C1977.2,769.061 1976.59,770.228 1976.07,771.383C1974.62,774.656 1973.78,778.16 1973.59,781.694C1973.56,782.116 1973.06,782.343 1972.69,782.093C1970.39,780.532 1967.98,779.112 1965.5,777.825L1967.16,800.983L1970.13,800.512C1970.32,800.482 1970.49,800.616 1970.49,800.794Z" style="fill:rgb(26,57,102);fill-rule:nonzero;"/>
            </g>
            <g transform="matrix(1,0,0,1,-264.873,304.237)">
                <path d="M2152.7,794.37C2152.18,793.966 2151.47,793.844 2150.8,793.966C2145.11,795.004 2139.53,796.511 2134.13,798.463C2134,798.511 2133.85,798.43 2133.84,798.299C2133.29,794.163 2132.72,790.069 2132.14,785.975C2131.92,784.399 2131.42,782.493 2129.52,782.299C2129.07,782.254 2128.61,782.344 2128.2,782.534C2126.91,783.137 2126.29,784.304 2125.78,785.458C2124.32,788.731 2123.48,792.235 2123.29,795.77C2123.27,796.191 2122.76,796.418 2122.39,796.168C2119.76,794.382 2117,792.768 2114.12,791.343C2112.85,790.711 2111.49,790.101 2109.98,790.341C2109.51,790.416 2109.05,790.597 2108.69,790.884C2107.33,791.959 2107.79,793.593 2108.39,794.923C2109.91,798.29 2112.15,801.373 2114.95,803.94C2115.22,804.187 2115.17,804.596 2114.84,804.77C2110.82,806.889 2107.04,809.387 2103.57,812.214C2102.33,813.225 2101.01,814.792 2102.12,816.132C2102.71,816.846 2103.72,817.145 2104.68,816.992L2119.83,814.587C2120.02,814.557 2120.19,814.691 2120.19,814.87C2120.1,818.445 2120.25,822.522 2120.4,826.598C2120.45,828.103 2120.68,829.898 2122.45,830.358C2122.87,830.468 2123.33,830.455 2123.76,830.347C2125.63,829.865 2129.03,822.17 2131.34,814.227C2131.36,814.136 2131.48,814.106 2131.55,814.171C2134.4,816.721 2137.54,818.992 2140.9,820.932C2142.44,821.824 2144.22,822.684 2146.06,821.786C2148.03,820.826 2148.57,818.409 2147.34,816.691C2143.61,811.494 2140.3,808.541 2139.32,806.571C2139.28,806.492 2139.34,806.42 2139.41,806.369C2147.41,801.049 2156.04,796.942 2152.7,794.37Z" style="fill:rgb(26,57,102);fill-rule:nonzero;"/>
            </g>
            <g transform="matrix(1,0,0,1,-264.873,304.237)">
                <path d="M2104.15,676.08C2103.68,679.871 2103.6,683.743 2103.92,687.61C2104.06,689.387 2104.37,691.341 2106.15,692.344C2108.07,693.417 2110.36,692.48 2111.07,690.489C2113.22,684.465 2113.76,680.062 2114.82,678.138C2114.87,678.061 2114.96,678.065 2115.04,678.099C2123.97,681.642 2132.26,686.395 2132.47,682.192C2132.51,681.532 2132.2,680.874 2131.72,680.394C2127.63,676.312 2123.21,672.58 2118.53,669.255C2118.42,669.173 2118.4,669.008 2118.5,668.919C2121.59,666.118 2124.63,663.312 2127.67,660.506C2128.83,659.426 2130.12,657.932 2129.2,656.26C2128.98,655.863 2128.64,655.534 2128.25,655.308C2127.02,654.59 2125.71,654.746 2124.47,654.982C2120.95,655.651 2117.59,656.952 2114.57,658.809C2114.22,659.03 2113.74,658.743 2113.74,658.299C2113.71,655.12 2113.46,651.927 2112.99,648.751C2112.79,647.343 2112.52,645.885 2111.46,644.778C2111.13,644.433 2110.72,644.161 2110.28,644.025C2108.62,643.516 2107.54,644.829 2106.79,646.079C2104.88,649.243 2103.63,652.844 2103.11,656.607C2103.06,656.969 2102.69,657.157 2102.36,656.985C2098.33,654.89 2094.13,653.204 2089.83,651.961C2088.29,651.517 2086.25,651.323 2085.78,652.998C2085.53,653.892 2085.86,654.895 2086.53,655.596L2097.14,666.681C2097.27,666.82 2097.26,667.037 2097.11,667.135C2094.12,669.096 2090.85,671.54 2087.58,673.984C2086.38,674.886 2085.03,676.096 2085.66,677.813C2085.81,678.224 2086.08,678.592 2086.41,678.879C2087.88,680.15 2096.14,678.561 2103.98,675.932C2104.07,675.902 2104.17,675.983 2104.15,676.08Z" style="fill:rgb(26,57,102);fill-rule:nonzero;"/>
            </g>
            <g transform="matrix(1,0,0,1,-264.873,304.237)">
                <path d="M2018.14,663.41C2015.61,663.038 2012.98,663.196 2010.44,663.871C2010.19,663.936 2009.97,663.751 2010,663.494C2010.26,660.363 2010.21,657.228 2009.86,654.151C2009.73,653.051 2009.31,651.697 2008.12,651.844C2007.48,651.923 2006.93,652.402 2006.66,653.017L2002.41,662.743C2002.36,662.865 2002.22,662.915 2002.11,662.846C2000.06,661.459 1997.63,660.026 1995.2,658.592C1994.3,658.063 1993.17,657.527 1992.25,658.387C1992.02,658.593 1991.86,658.864 1991.76,659.152C1991.34,660.427 1994.56,665.276 1998.33,669.582C1998.37,669.631 1998.35,669.712 1998.28,669.73C1995.74,670.437 1993.24,671.418 1990.86,672.653C1989.76,673.22 1988.6,673.937 1988.43,675.346C1988.26,676.853 1989.47,678.065 1990.93,677.988C1995.35,677.753 1998.3,676.925 1999.81,677.091C1999.88,677.098 1999.9,677.157 1999.9,677.221C2000.02,683.864 1999.19,690.423 2001.93,689.441C2002.36,689.287 2002.7,688.915 2002.88,688.48C2004.4,684.78 2005.6,680.964 2006.48,677.091C2006.5,676.995 2006.6,676.941 2006.68,676.98C2009.29,678.206 2011.9,679.397 2014.5,680.587C2015.5,681.045 2016.79,681.467 2017.62,680.431C2017.81,680.185 2017.93,679.882 2017.97,679.574C2018.1,678.597 2017.65,677.801 2017.17,677.072C2015.81,675.004 2014.08,673.205 2012.09,671.777C2011.85,671.607 2011.91,671.227 2012.19,671.106C2014.21,670.239 2016.19,669.229 2018.09,668.085C2018.93,667.577 2019.79,667.017 2020.22,666.046C2020.35,665.743 2020.41,665.41 2020.38,665.09C2020.26,663.895 2019.14,663.557 2018.14,663.41Z" style="fill:rgb(26,57,102);fill-rule:nonzero;"/>
            </g>
            <g transform="matrix(1,0,0,1,-264.873,304.237)">
                <path d="M2034.55,849.523C2034.3,849.587 2034.08,849.403 2034.11,849.146C2034.37,846.015 2034.32,842.879 2033.97,839.803C2033.84,838.703 2033.42,837.348 2032.23,837.496C2031.59,837.574 2031.04,838.054 2030.77,838.669L2026.52,848.395C2026.47,848.517 2026.33,848.567 2026.22,848.498C2024.18,847.111 2021.74,845.678 2019.31,844.244C2018.42,843.715 2017.28,843.179 2016.36,844.039C2016.13,844.245 2015.97,844.516 2015.88,844.804C2015.55,845.782 2017.38,848.866 2019.94,852.193C2027.29,851.118 2034.93,850.106 2042.77,849.162C2042.6,849.122 2042.42,849.087 2042.25,849.062C2039.72,848.69 2037.09,848.848 2034.55,849.523Z" style="fill:rgb(26,57,102);fill-rule:nonzero;"/>
            </g>
            <g transform="matrix(1,0,0,1,-264.873,304.237)">
                <path d="M2067.08,734.241C2064.55,733.87 2061.91,734.028 2059.37,734.702C2059.13,734.767 2058.91,734.582 2058.93,734.326C2059.2,731.195 2059.15,728.059 2058.8,724.983C2058.67,723.883 2058.25,722.528 2057.06,722.676C2056.42,722.754 2055.87,723.233 2055.6,723.849L2051.35,733.575C2051.3,733.697 2051.15,733.747 2051.05,733.678C2049,732.291 2046.57,730.858 2044.14,729.424C2043.24,728.895 2042.11,728.359 2041.18,729.219C2040.96,729.425 2040.8,729.696 2040.7,729.984C2040.28,731.259 2043.5,736.108 2047.27,740.414C2047.31,740.463 2047.28,740.544 2047.22,740.562C2044.67,741.269 2042.18,742.25 2039.79,743.485C2038.7,744.052 2037.53,744.769 2037.37,746.178C2037.19,747.685 2038.4,748.897 2039.86,748.819C2044.28,748.585 2047.24,747.757 2048.75,747.923C2048.81,747.93 2048.83,747.989 2048.83,748.052C2048.95,754.696 2048.13,761.254 2050.87,760.273C2051.3,760.119 2051.64,759.747 2051.82,759.312C2053.33,755.612 2054.54,751.796 2055.41,747.923C2055.43,747.827 2055.54,747.773 2055.62,747.812C2058.23,749.038 2060.83,750.228 2063.43,751.419C2064.43,751.877 2065.73,752.299 2066.55,751.263C2066.75,751.017 2066.87,750.713 2066.91,750.406C2067.04,749.429 2066.59,748.633 2066.11,747.904C2064.74,745.836 2063.01,744.037 2061.03,742.608C2060.79,742.438 2060.84,742.058 2061.13,741.937C2063.15,741.071 2065.12,740.061 2067.03,738.916C2067.87,738.409 2068.73,737.849 2069.15,736.877C2069.28,736.575 2069.35,736.241 2069.32,735.922C2069.2,734.726 2068.07,734.388 2067.08,734.241Z" style="fill:rgb(26,57,102);fill-rule:nonzero;"/>
            </g>
            <g transform="matrix(1,0,0,1,-264.873,304.237)">
                <path d="M2348,527.314C2411.7,525.272 2475.41,523.231 2539.11,521.19C2544.26,521.025 2549.71,520.926 2554.22,523.431C2562.88,528.245 2564.18,539.95 2564.44,549.858C2566.4,624.24 2567.85,698.636 2568.79,773.038C2568.97,787.075 2568.56,802.65 2558.91,812.841C2550.45,821.764 2537.28,823.95 2525.09,825.518C2472.75,832.248 2420.1,836.631 2367.37,838.65C2358.6,838.986 2348.39,838.612 2343.11,831.605C2339.45,826.747 2339.39,820.159 2339.49,814.076C2341.03,719.396 2342.58,624.715 2348,527.314Z" style="fill:rgb(242,107,96);fill-rule:nonzero;"/>
            </g>
            <g transform="matrix(1,0,0,1,-264.873,304.237)">
                <path d="M2422.79,544.097C2417.88,530.289 2412.96,516.47 2408.81,502.41C2406.72,495.322 2404.82,488.174 2403.22,480.958C2402.42,477.353 2401.69,473.732 2401.06,470.094C2400.75,468.353 2400.47,466.609 2400.2,464.861C2400.08,464.066 2399.97,463.27 2399.86,462.474C2399.63,460.896 2399.98,463.511 2399.8,462.034C2399.74,461.523 2399.67,461.013 2399.61,460.503C2398,447.201 2397.77,433.687 2399.43,420.379C2399.47,420.107 2399.6,419.114 2399.45,420.198C2399.51,419.762 2399.57,419.327 2399.64,418.891C2399.74,418.166 2399.85,417.442 2399.97,416.719C2400.25,414.985 2400.57,413.257 2400.92,411.536C2401.59,408.245 2402.39,404.98 2403.33,401.755C2404.27,398.534 2405.35,395.353 2406.56,392.227C2406.83,391.547 2407.1,390.872 2407.38,390.196C2407.93,388.845 2406.96,391.126 2407.55,389.792C2407.73,389.391 2407.9,388.988 2408.08,388.588C2408.77,387.052 2409.49,385.531 2410.25,384.029C2411.63,381.309 2413.18,378.71 2415.02,376.278C2414.28,377.251 2415.12,376.17 2415.24,376.027C2415.5,375.712 2415.76,375.402 2416.03,375.095C2416.47,374.586 2416.93,374.087 2417.39,373.601C2417.95,373.023 2418.53,372.462 2419.12,371.922C2419.32,371.744 2419.52,371.568 2419.72,371.395C2419.9,371.24 2421.24,370.12 2420.22,370.946C2421.29,370.073 2422.52,369.32 2423.74,368.673C2424.07,368.499 2424.41,368.343 2424.74,368.177C2425.59,367.754 2424.63,368.185 2424.54,368.251C2425.12,367.816 2426.24,367.649 2426.94,367.481C2427.22,367.411 2427.51,367.35 2427.8,367.296C2428.76,367.12 2427.85,367.054 2427.68,367.301C2427.85,367.06 2429.51,367.231 2429.8,367.245C2429.8,367.245 2430.47,367.246 2430.51,367.298C2430.3,367.268 2430.09,367.238 2429.87,367.208C2430.11,367.245 2430.35,367.288 2430.59,367.337C2431.39,367.503 2432.14,367.765 2432.91,368.035C2433.68,368.308 2431.71,367.438 2432.52,367.875C2432.72,367.986 2432.94,368.076 2433.14,368.184C2433.51,368.379 2433.88,368.591 2434.24,368.817C2434.58,369.033 2434.91,369.362 2435.27,369.535C2434.14,368.993 2434.54,368.938 2434.96,369.317C2435.12,369.471 2435.3,369.618 2435.47,369.774C2436.1,370.357 2436.65,370.996 2437.21,371.644C2437.81,372.352 2436.47,370.588 2436.99,371.368C2437.12,371.567 2437.27,371.757 2437.41,371.954C2437.68,372.355 2437.94,372.766 2438.19,373.183C2438.66,373.973 2439.08,374.788 2439.47,375.621C2439.57,375.853 2439.67,376.095 2439.78,376.324C2439.15,375.058 2439.44,375.507 2439.57,375.831C2439.8,376.406 2440.02,376.981 2440.22,377.564C2440.93,379.574 2441.47,381.64 2441.9,383.723C2442.11,384.719 2442.29,385.719 2442.46,386.722C2442.54,387.256 2442.62,387.791 2442.7,388.326C2442.86,389.416 2442.55,387.061 2442.68,388.158C2442.71,388.455 2442.75,388.751 2442.79,389.048C2443.06,391.345 2443.24,393.652 2443.37,395.962C2443.62,400.45 2443.65,404.947 2443.61,409.44C2443.52,420.117 2443.71,430.792 2443.57,441.468C2443.2,472.031 2440.81,502.523 2438.22,532.965C2437.91,536.639 2437.6,540.313 2437.28,543.988C2437.07,546.493 2439.38,548.656 2441.68,548.965C2444.03,549.281 2446.71,547.811 2447.24,545.335C2451.87,523.39 2458.07,501.783 2465.8,480.725C2467.73,475.461 2469.75,470.232 2471.87,465.041C2472.38,463.797 2472.89,462.557 2473.41,461.318C2473.53,461.027 2473.65,460.736 2473.78,460.444C2473.44,461.242 2473.76,460.489 2473.82,460.345C2474.13,459.619 2474.44,458.892 2474.75,458.167C2475.87,455.555 2477.02,452.954 2478.19,450.364C2482.64,440.509 2487.27,430.596 2493.51,421.722C2493.86,421.231 2494.21,420.744 2494.56,420.261C2494.74,420.02 2494.92,419.782 2495.1,419.541C2495.95,418.385 2494.72,420.002 2495.26,419.325C2496.02,418.383 2496.76,417.424 2497.61,416.564C2497.91,416.267 2498.21,415.98 2498.53,415.704C2498.62,415.624 2498.97,415.386 2499,415.306C2498.88,415.681 2498.17,415.906 2498.7,415.541C2499.48,415.008 2500.26,414.504 2501.11,414.086C2501.28,414.001 2501.46,413.927 2501.64,413.839C2502.21,413.548 2500.61,414.186 2501.23,414.016C2501.64,413.903 2502.03,413.721 2502.44,413.599C2502.81,413.491 2503.17,413.395 2503.54,413.312C2503.73,413.271 2503.91,413.233 2504.1,413.198C2504.99,413.03 2504.4,413.224 2503.87,413.207C2504.65,413.232 2505.46,413.076 2506.25,413.093C2506.67,413.101 2507.09,413.139 2507.51,413.165C2507.88,413.188 2508.34,413.388 2506.99,413.083C2507.26,413.144 2507.55,413.17 2507.82,413.222C2508.6,413.372 2509.37,413.575 2510.13,413.828C2510.31,413.889 2511.55,414.407 2510.7,414.019C2509.86,413.632 2511.29,414.306 2511.5,414.419C2512.22,414.789 2512.9,415.208 2513.56,415.672C2514.63,416.429 2513.04,415.196 2513.66,415.748C2514.02,416.068 2514.38,416.375 2514.72,416.712C2515.03,417.016 2515.33,417.332 2515.62,417.659C2515.76,417.821 2515.91,418.097 2516.08,418.216C2516.01,418.167 2515.36,417.203 2515.83,417.888C2516.33,418.63 2516.81,419.37 2517.22,420.17C2517.32,420.35 2517.4,420.535 2517.49,420.715C2517.88,421.461 2517.36,420.45 2517.35,420.345C2517.38,420.734 2517.71,421.281 2517.83,421.663C2517.99,422.169 2518.13,422.681 2518.25,423.198C2518.32,423.51 2518.39,423.823 2518.45,424.137C2518.49,424.357 2518.68,425.733 2518.56,424.677C2518.7,425.942 2518.76,427.216 2518.74,428.488C2518.73,429.208 2518.69,429.927 2518.64,430.644C2518.61,431.045 2518.58,431.444 2518.53,431.844C2518.52,431.961 2518.36,433.23 2518.45,432.609C2518.53,432 2518.39,433 2518.36,433.134C2518.3,433.533 2518.23,433.932 2518.16,434.33C2518.05,434.968 2517.92,435.604 2517.79,436.238C2517.49,437.663 2517.15,439.079 2516.8,440.49C2515.44,445.902 2513.9,451.268 2512.22,456.588C2510.58,461.748 2508.81,466.864 2506.92,471.935C2505.94,474.544 2504.94,477.141 2503.9,479.727C2503.41,480.948 2502.92,482.167 2502.42,483.383C2502.15,484.028 2501.88,484.67 2501.61,485.314C2501.55,485.468 2501.24,486.211 2501.58,485.388C2501.43,485.745 2501.28,486.101 2501.13,486.457C2492.48,506.746 2482.21,526.295 2471.48,545.545C2470.15,547.917 2468.82,550.284 2467.49,552.648C2466.19,554.957 2466.86,558.291 2469.31,559.582C2471.71,560.851 2474.85,560.228 2476.24,557.764C2478.86,553.132 2481.98,548.766 2485.16,544.502C2485.63,543.871 2486.11,543.241 2486.58,542.615C2486.84,542.276 2487.1,541.94 2487.36,541.602C2487.76,541.077 2486.53,542.664 2487.12,541.911C2487.28,541.705 2487.44,541.499 2487.6,541.293C2488.74,539.84 2489.89,538.4 2491.06,536.973C2493.5,533.984 2496.02,531.05 2498.61,528.181C2503.98,522.215 2509.67,516.492 2515.81,511.305C2516.49,510.725 2517.19,510.152 2517.89,509.588C2518.21,509.323 2518.54,509.061 2518.87,508.8C2519.09,508.628 2519.31,508.461 2519.53,508.284C2518.33,509.268 2519.12,508.599 2519.38,508.402C2520.84,507.287 2522.34,506.211 2523.87,505.186C2526.65,503.326 2529.55,501.623 2532.6,500.248C2533.01,500.062 2534.34,499.611 2532.65,500.213C2533,500.088 2533.35,499.931 2533.69,499.798C2534.41,499.527 2535.13,499.277 2535.86,499.053C2537.23,498.636 2538.6,498.404 2539.98,498.114C2537.92,498.545 2540.15,498.121 2540.77,498.094C2541.4,498.068 2542.04,498.07 2542.67,498.107C2542.98,498.125 2543.28,498.162 2543.59,498.186C2544.43,498.25 2542.16,497.942 2542.98,498.103C2543.1,498.127 2543.22,498.143 2543.34,498.165C2544,498.285 2544.65,498.446 2545.29,498.65C2545.55,498.734 2545.81,498.836 2546.07,498.923C2546.97,499.221 2544.74,498.272 2545.87,498.843C2546.51,499.164 2547.14,499.489 2547.73,499.883C2547.84,499.957 2548.64,500.667 2548.07,500.099C2547.48,499.516 2548.25,500.284 2548.32,500.352C2548.52,500.535 2549.25,501.522 2549.42,501.525C2549.32,501.523 2548.74,500.5 2549.18,501.25C2549.34,501.514 2549.51,501.765 2549.66,502.033C2549.76,502.21 2549.85,502.395 2549.95,502.572C2550.44,503.464 2549.62,501.57 2549.91,502.474C2550.06,502.957 2550.22,503.431 2550.34,503.925C2550.39,504.139 2550.4,504.648 2550.52,504.822C2550.47,504.755 2550.39,503.511 2550.46,504.39C2550.55,505.545 2550.57,506.688 2550.48,507.845C2550.46,508.058 2550.43,508.27 2550.41,508.483C2550.31,509.635 2550.64,507.276 2550.42,508.416C2550.32,508.895 2550.24,509.376 2550.14,509.853C2549.9,510.967 2549.59,512.066 2549.24,513.149C2548.91,514.131 2548.35,515.127 2548.13,516.127C2548.36,515.102 2548.45,515.392 2548.28,515.764C2548.16,516.038 2548.04,516.313 2547.91,516.586C2547.61,517.254 2547.29,517.918 2546.98,518.58C2545.8,521.032 2544.53,523.445 2543.2,525.815C2540.57,530.463 2537.66,534.945 2534.5,539.252C2534.11,539.783 2533.72,540.312 2533.33,540.838C2533.11,541.125 2532.09,542.453 2532.8,541.538C2531.91,542.682 2531.01,543.815 2530.09,544.934C2528.41,546.974 2526.69,548.973 2524.92,550.931C2521.27,554.97 2517.43,558.837 2513.45,562.556C2509.44,566.311 2505.28,569.914 2501.03,573.395C2498.94,575.104 2496.83,576.781 2494.7,578.437C2493.66,579.246 2495.25,578.016 2494.6,578.513C2494.34,578.718 2494.07,578.924 2493.8,579.13C2493.26,579.541 2492.72,579.95 2492.18,580.358C2491.05,581.215 2489.91,582.065 2488.77,582.91C2479.9,589.463 2470.76,595.652 2461.57,601.736C2459.33,603.216 2457.09,604.69 2454.84,606.163C2452.63,607.615 2451.49,610.714 2453.02,613.096C2454.45,615.306 2457.59,616.47 2459.96,614.915C2479.26,602.252 2498.55,589.361 2515.87,574.039C2532.58,559.264 2547.79,541.697 2556.91,521.157C2559,516.454 2560.66,511.464 2560.68,506.259C2560.71,500.335 2558.25,495.018 2553.43,491.533C2547.88,487.529 2540.59,487.262 2534.19,488.985C2527.24,490.854 2520.86,494.731 2515.14,498.99C2508.36,504.034 2502.13,509.738 2496.27,515.822C2490.74,521.574 2485.52,527.635 2480.6,533.918C2476.56,539.075 2472.61,544.337 2469.14,549.893C2468.57,550.8 2468.02,551.717 2467.49,552.648C2470.41,554.353 2473.32,556.059 2476.24,557.764C2487.46,537.892 2498.33,517.782 2507.57,496.901C2512.28,486.242 2516.62,475.408 2520.33,464.355C2522.13,459.001 2523.78,453.598 2525.27,448.148C2526.89,442.186 2528.48,436.122 2528.82,429.925C2529.12,424.488 2528.24,418.729 2525.39,414.006C2523.26,410.461 2520.08,407.399 2516.37,405.538C2508.26,401.471 2498.87,402.39 2491.83,408.139C2489.84,409.767 2488.31,411.858 2486.75,413.891C2485.07,416.1 2483.49,418.392 2482.01,420.746C2479.07,425.426 2476.5,430.328 2474.08,435.298C2468.92,445.942 2464.23,456.834 2459.9,467.844C2451.4,489.449 2444.5,511.686 2439.3,534.312C2438.66,537.082 2438.05,539.859 2437.46,542.64C2440.78,543.089 2444.1,543.538 2447.42,543.988C2450.11,512.548 2452.83,481.081 2453.57,449.521C2453.85,437.409 2453.53,425.303 2453.7,413.193C2453.84,403.683 2453.79,394.177 2452.35,384.754C2450.99,375.891 2448,366.525 2440.57,360.922C2435.84,357.357 2429.6,356.282 2423.9,357.795C2417.47,359.499 2411.92,364.082 2407.81,369.175C2403.26,374.823 2400.17,381.22 2397.44,387.906C2394.9,394.122 2392.94,400.568 2391.51,407.125C2388.49,420.928 2387.62,435.19 2388.46,449.279C2390.23,479.29 2399.4,508.148 2409.3,536.32C2410.53,539.814 2411.77,543.303 2413.02,546.792C2413.9,549.283 2416.51,551.217 2419.25,550.332C2421.71,549.536 2423.74,546.771 2422.79,544.097Z" style="fill:rgb(26,57,102);fill-rule:nonzero;"/>
            </g>
            <g transform="matrix(1,0,0,1,-264.873,304.237)">
                <path d="M2415.31,662.397C2419.84,657.279 2424.38,652.162 2428.91,647.044C2431.18,644.486 2433.44,641.927 2435.71,639.368C2436.68,638.273 2437.63,637.15 2438.64,636.095C2439.53,635.169 2440.58,634.148 2441.91,633.944C2444.47,633.554 2447.02,635.571 2448.96,636.951C2451.45,638.723 2453.89,640.57 2456.26,642.494C2461.06,646.374 2465.62,650.532 2469.93,654.941C2473.64,658.735 2478.1,665.316 2484.31,663.227C2487.18,662.259 2489.43,659.783 2491.66,657.833C2494.32,655.502 2496.99,653.17 2499.65,650.838C2504.79,646.342 2509.92,641.845 2515.06,637.349C2516.26,636.294 2517.47,635.239 2518.67,634.184C2519.9,633.107 2521.09,631.848 2522.47,630.957C2523.37,630.369 2523.89,630.343 2524.76,631.031C2525.9,631.941 2526.87,633.156 2527.87,634.212C2537.99,644.902 2547.61,656.056 2556.72,667.62C2557.57,668.696 2559.42,668.507 2560.3,667.62C2561.37,666.557 2561.15,665.115 2560.3,664.036C2551.99,653.478 2543.24,643.261 2534.08,633.427C2531.93,631.121 2529.83,628.361 2527.21,626.566C2524.19,624.492 2520.98,625.593 2518.38,627.729C2512.97,632.178 2507.81,636.976 2502.53,641.593C2497.21,646.256 2491.88,650.919 2486.56,655.582C2484.93,657.007 2482.94,659.365 2480.58,658.171C2478.14,656.93 2476.33,654.278 2474.47,652.341C2470.04,647.731 2465.33,643.387 2460.38,639.342C2457.85,637.28 2455.27,635.288 2452.63,633.375C2450.13,631.563 2447.48,629.62 2444.38,629.039C2440.69,628.349 2437.58,629.898 2435.06,632.512C2432.43,635.24 2430,638.189 2427.48,641.027C2422.23,646.955 2416.98,652.884 2411.73,658.813C2409.57,661.247 2413.14,664.844 2415.31,662.397Z" style="fill:rgb(26,57,102);fill-rule:nonzero;"/>
            </g>
            <g transform="matrix(1,0,0,1,-264.873,304.237)">
                <path d="M2425.47,753.985C2433.07,746.576 2440.66,739.168 2448.26,731.759C2452,728.113 2455.74,724.467 2459.48,720.822C2461.32,719.024 2463.1,717.116 2465.04,715.423C2466.35,714.284 2467.44,714.378 2468.8,715.418C2470.61,716.806 2472.03,718.791 2473.52,720.499C2475.21,722.447 2476.91,724.396 2478.61,726.344C2482.06,730.304 2485.51,734.264 2488.96,738.223C2490.53,740.027 2492.01,742.073 2493.79,743.673C2495.81,745.49 2498.26,745.945 2500.75,744.804C2502.87,743.833 2504.79,742.223 2506.7,740.89C2508.74,739.462 2510.77,738.017 2512.79,736.554C2522.07,729.822 2531.1,722.73 2539.85,715.307C2540.89,714.421 2540.76,712.636 2539.85,711.724C2538.81,710.69 2537.31,710.835 2536.26,711.724C2528.58,718.244 2520.68,724.504 2512.57,730.472C2508.55,733.424 2504.49,736.311 2500.37,739.12C2499.79,739.513 2498.7,740.525 2497.93,740.424C2497.3,740.342 2496.69,739.397 2496.32,738.976C2494.61,737.041 2492.92,735.079 2491.23,733.131C2487.78,729.171 2484.33,725.212 2480.88,721.252C2479.13,719.241 2477.37,717.23 2475.62,715.218C2474.17,713.555 2472.73,711.86 2470.83,710.687C2468.94,709.522 2466.62,709.088 2464.5,709.884C2462.2,710.753 2460.51,712.737 2458.79,714.416C2455.05,718.061 2451.31,721.707 2447.57,725.352C2439.01,733.702 2430.45,742.052 2421.89,750.402C2419.55,752.683 2423.13,756.265 2425.47,753.985Z" style="fill:rgb(26,57,102);fill-rule:nonzero;"/>
            </g>
            <g transform="matrix(1,0,0,1,-264.873,304.237)">
                <path d="M2546.93,730.086C2550.22,733.652 2553.52,737.218 2556.81,740.784C2557.71,741.76 2559.49,741.765 2560.39,740.784C2561.35,739.739 2561.35,738.242 2560.39,737.2C2557.1,733.634 2553.81,730.068 2550.52,726.502C2549.61,725.526 2547.83,725.521 2546.93,726.502C2545.97,727.547 2545.97,729.044 2546.93,730.086Z" style="fill:rgb(26,57,102);fill-rule:nonzero;"/>
            </g>
            <g transform="matrix(1,0,0,1,-264.873,304.237)">
                <path d="M2226.15,842.528C2245.76,847.866 2254.64,871.628 2252.84,891.877C2251.04,912.126 2241.85,930.988 2238.24,950.994C2232.95,980.329 2240.44,1011.74 2258.38,1035.54C2276.33,1059.34 2304.34,1071 2334,1073.98C2355.97,1076.19 2382.6,1067.9 2398.6,1052.68C2414.6,1037.46 2417.79,1018.41 2406.25,999.587C2390.36,973.687 2353.12,972.999 2327.81,956.189C2310.73,944.848 2299.32,925.38 2297.77,904.939C2296.22,884.498 2304.57,863.532 2319.74,849.746C2324.07,845.812 2329.01,842.322 2331.98,837.281C2340.34,823.084 2329.15,805.115 2316.12,795.022C2300.47,782.898 2280.14,775.149 2260.8,779.361C2241.46,783.572 2224.88,802.453 2226.15,842.528Z" style="fill:white;fill-rule:nonzero;"/>
            </g>
            <g transform="matrix(1,0,0,1,-264.873,304.237)">
                <path d="M2374.99,843.428C2381.84,841.582 2388.59,839.026 2395.32,836.773C2398.97,835.55 2402.53,834.126 2406.13,832.773C2406.39,832.677 2406.6,832.599 2406.77,832.536C2409.48,831.378 2412.31,830.1 2415.11,829.065C2408.69,831.438 2412.83,829.892 2414.39,829.141C2416.51,828.12 2418.7,827.173 2420.94,826.442C2436.46,810.882 2440.59,799.28 2446.85,782.604C2453.13,765.881 2451.74,750.787 2451.74,732.923C2451.74,691.776 2441.44,645.083 2432.06,591.942C2419.05,524.827 2401.26,475.145 2375.15,410.924C2361.03,387.82 2352.53,382.877 2340.61,393.701C2328.69,404.525 2323.83,410.064 2312.83,425.763C2292.33,427.308 2265.62,424.218 2245.12,425.763C2237.05,417.687 2241.7,421.969 2234.61,410.664C2227.52,399.359 2216.57,386.229 2203.81,390.152C2192,393.784 2187.79,399.874 2182.68,411.121C2165.11,449.758 2147.34,499.67 2138.76,540.333C2126.39,598.974 2111.3,647.133 2107.76,714.709C2106.65,735.887 2104.78,751.977 2109.05,772.75C2113.31,793.523 2122.56,818.846 2142.31,826.573C2142,827.002 2148.93,831.311 2152.55,833.269C2152.74,833.37 2156.71,835.266 2157.61,835.857C2158.26,836.28 2259.45,855.371 2260.54,855.668C2262.03,855.67 2265.2,855.853 2265.62,855.873C2266.94,856.058 2268.05,856.213 2268.95,856.338C2269.05,856.326 2269.14,856.314 2269.23,856.303C2269.01,856.271 2268.79,856.238 2268.55,856.201C2270.43,856.087 2270.65,856.121 2269.23,856.303C2269.29,856.313 2269.36,856.324 2269.42,856.333C2272.84,855.874 2278.64,854.924 2278.11,854.923C2278.05,854.929 2277.98,854.929 2277.92,854.935C2278.02,854.926 2278.07,854.923 2278.11,854.923C2281.29,854.643 2370.75,844.571 2374.99,843.428Z" style="fill:white;fill-rule:nonzero;"/>
            </g>
            <g transform="matrix(1,0,0,1,-264.873,304.237)">
                <path d="M2334.18,846.053C2325.15,845.619 2316.72,849.29 2310.4,855.662C2304.18,861.923 2300.06,870.098 2297.42,878.44C2295.04,885.973 2293.65,894.162 2294.24,902.076C2295.13,914.06 2299.63,925.647 2306.64,935.371C2313.93,945.49 2323.58,953.285 2334.63,958.98C2346.36,965.022 2359,968.936 2371.09,974.143C2381.69,978.71 2391.98,984.563 2399.93,993.073C2407.8,1001.5 2412.25,1012.33 2410.91,1023.95C2409.52,1036.03 2402.42,1046.78 2393.14,1054.34C2383.68,1062.04 2371.88,1066.67 2360.05,1069.23C2337.15,1074.19 2312.51,1070.79 2291.6,1060.31C2270.55,1049.75 2254.16,1032.11 2244.73,1010.58C2240.08,999.968 2237.2,988.469 2236.32,976.923C2235.4,964.92 2236.72,953.087 2239.91,941.495C2243.44,928.645 2248.6,916.312 2252.17,903.473C2253.94,897.104 2255.28,890.601 2255.83,884.005C2256.19,879.57 2256.34,874.961 2255.47,870.569C2254.37,864.983 2251.41,859.796 2247.42,855.774C2241.51,849.828 2233.46,846.426 2225.37,844.721C2219.61,843.51 2213.71,843.048 2207.84,843.036C2204.58,843.029 2204.57,848.097 2207.84,848.104C2217.93,848.125 2228.63,849.465 2237.3,854.415C2240.41,856.19 2242.54,857.827 2244.98,860.58C2245.21,860.834 2245.43,861.093 2245.64,861.355C2245.77,861.51 2245.89,861.666 2246.02,861.823C2245.63,861.336 2246.04,861.857 2246.1,861.939C2246.52,862.508 2246.92,863.084 2247.3,863.68C2248.03,864.848 2248.67,866.07 2249.22,867.334C2248.92,866.655 2249.28,867.494 2249.35,867.671C2249.47,867.981 2249.58,868.292 2249.69,868.606C2249.9,869.209 2250.08,869.82 2250.24,870.438C2250.37,870.927 2250.48,871.42 2250.58,871.916C2250.64,872.202 2250.69,872.489 2250.74,872.777C2250.89,873.652 2250.72,872.43 2250.78,873.079C2251.31,878.475 2250.96,884.011 2250.12,889.358C2248.03,902.611 2243.09,915.183 2238.84,927.84C2234.79,939.892 2231.54,952.123 2231.02,964.888C2230.55,976.623 2232.1,988.482 2235.43,999.74C2242.19,1022.63 2256.33,1043.08 2275.9,1056.83C2295.33,1070.49 2319.5,1077.39 2343.2,1076.43C2367.35,1075.45 2394.35,1066.36 2408.18,1045.3C2414.98,1034.94 2418.09,1021.92 2415.04,1009.76C2412.23,998.552 2404.58,989.316 2395.6,982.357C2385.64,974.634 2374.12,969.745 2362.44,965.229C2350.29,960.53 2337.86,956.069 2327.08,948.582C2309.62,936.456 2297.45,915.286 2299.43,893.688C2299.77,889.997 2300.54,885.926 2301.65,881.986C2302.83,877.787 2304.27,873.996 2306.22,870.221C2309.99,862.91 2315.19,856.496 2322.73,853.095C2326.13,851.562 2330.2,850.93 2334.18,851.121C2337.44,851.278 2337.44,846.21 2334.18,846.053Z" style="fill:rgb(26,57,102);fill-rule:nonzero;"/>
            </g>
            <g transform="matrix(1,0,0,1,-264.873,304.237)">
                <path d="M2266.09,519.125C2270.61,520.535 2275.89,519.78 2279.72,516.952C2283.65,514.053 2286.04,509.547 2286.19,504.657C2286.23,503.331 2284.99,502.063 2283.65,502.123C2282.25,502.186 2281.16,503.236 2281.12,504.657C2281.11,504.919 2281.09,505.179 2281.08,505.44C2281.05,505.883 2281.1,505.416 2281.06,505.674C2280.99,506.105 2280.9,506.531 2280.79,506.952C2280.67,507.416 2280.51,507.87 2280.34,508.318C2280.2,508.698 2280.35,508.339 2280.24,508.555C2280.15,508.751 2280.05,508.948 2279.95,509.141C2279.75,509.526 2279.52,509.902 2279.28,510.265C2279.14,510.482 2278.99,510.7 2278.83,510.906C2279.03,510.65 2278.72,511.025 2278.65,511.105C2278.37,511.435 2278.07,511.749 2277.75,512.048C2277.59,512.198 2277.43,512.339 2277.26,512.484C2276.7,512.991 2277.58,512.298 2276.95,512.73C2275.36,513.825 2274.23,514.281 2272.29,514.649C2272.04,514.696 2272.47,514.647 2272.04,514.687C2271.77,514.713 2271.51,514.734 2271.24,514.745C2270.79,514.765 2270.35,514.761 2269.9,514.734C2269.64,514.719 2269.37,514.699 2269.11,514.663C2269.38,514.701 2269.11,514.656 2268.99,514.632C2268.46,514.524 2267.95,514.398 2267.43,514.238C2266.17,513.843 2264.61,514.705 2264.32,516.008C2264,517.385 2264.73,518.702 2266.09,519.125Z" style="fill:rgb(26,57,102);fill-rule:nonzero;"/>
            </g>
            <g transform="matrix(1,0,0,1,-264.873,304.237)">
                <path d="M2299.87,514.238C2299.4,514.384 2298.93,514.511 2298.45,514.606C2298.39,514.619 2297.82,514.717 2298.2,514.663C2297.98,514.694 2297.76,514.71 2297.54,514.725C2297.05,514.759 2296.56,514.766 2296.07,514.745C2295.85,514.736 2295.62,514.72 2295.4,514.7C2295.28,514.688 2294.8,514.615 2295.15,514.672C2294.23,514.519 2293.31,514.277 2292.45,513.93C2292.28,513.866 2292.28,513.864 2292.44,513.926C2292.36,513.888 2292.28,513.85 2292.19,513.813C2292,513.711 2291.8,513.615 2291.6,513.508C2291.17,513.273 2290.76,513.009 2290.35,512.73C2290.03,512.509 2290.32,512.715 2290.14,512.568C2289.98,512.427 2289.81,512.286 2289.65,512.138C2289.33,511.842 2289.03,511.53 2288.74,511.204C2288.75,511.212 2288.24,510.608 2288.48,510.906C2288.34,510.734 2288.22,510.554 2288.1,510.373C2287.85,510.012 2287.63,509.639 2287.42,509.255C2287.32,509.064 2287.22,508.866 2287.12,508.673C2286.76,507.983 2287.24,509.046 2286.96,508.318C2286.81,507.911 2286.67,507.499 2286.55,507.078C2286.44,506.658 2286.35,506.232 2286.27,505.803C2286.13,505.009 2286.28,506.246 2286.23,505.44C2286.21,505.179 2286.2,504.919 2286.19,504.657C2286.15,503.334 2285.05,502.06 2283.65,502.123C2282.32,502.183 2281.08,503.238 2281.12,504.657C2281.27,509.541 2283.65,514.061 2287.59,516.952C2291.43,519.776 2296.7,520.537 2301.22,519.125C2302.53,518.717 2303.36,517.359 2302.99,516.008C2302.64,514.719 2301.18,513.829 2299.87,514.238Z" style="fill:rgb(26,57,102);fill-rule:nonzero;"/>
            </g>
            <g transform="matrix(1,0,0,1,-264.873,304.237)">
                <path d="M2329.29,491.732C2335.03,491.732 2339.68,496.383 2339.68,502.121C2339.68,507.859 2335.03,512.51 2329.29,512.51C2323.55,512.51 2318.9,507.859 2318.9,502.121C2318.9,496.383 2323.55,491.732 2329.29,491.732Z" style="fill:rgb(26,57,102);fill-rule:nonzero;"/>
            </g>
            <g transform="matrix(1,0,0,1,-264.873,304.237)">
                <path d="M2237.64,493.759C2243.38,493.759 2248.03,498.41 2248.03,504.148C2248.03,509.886 2243.38,514.537 2237.64,514.537C2231.9,514.537 2227.25,509.886 2227.25,504.148C2227.25,498.41 2231.9,493.759 2237.64,493.759Z" style="fill:rgb(26,57,102);fill-rule:nonzero;"/>
            </g>
            <g transform="matrix(1,0,0,1,-264.873,304.237)">
                <path d="M2361.6,514.537C2379.23,514.537 2393.53,520.437 2393.53,527.714C2393.53,534.991 2379.23,540.891 2361.6,540.891C2343.97,540.891 2329.67,534.991 2329.67,527.714C2329.67,520.437 2343.97,514.537 2361.6,514.537Z" style="fill:rgb(251,210,207);fill-rule:nonzero;"/>
            </g>
            <g transform="matrix(1,0,0,1,-264.873,304.237)">
                <path d="M2216.1,519.817C2233.74,519.817 2248.03,525.717 2248.03,532.994C2248.03,540.271 2233.74,546.171 2216.1,546.171C2198.47,546.171 2184.17,540.271 2184.17,532.994C2184.17,525.717 2198.47,519.817 2216.1,519.817Z" style="fill:rgb(251,210,207);fill-rule:nonzero;"/>
            </g>
            <g transform="matrix(1,0,0,1,-264.873,304.237)">
                <path d="M2371.32,492.524C2388.18,486.386 2405.82,482.437 2423.7,480.962C2428.78,480.543 2433.88,480.32 2438.97,480.28C2442.23,480.254 2442.24,475.186 2438.97,475.212C2420.68,475.357 2402.38,477.925 2384.75,482.871C2379.77,484.27 2374.84,485.865 2369.98,487.637C2368.69,488.105 2367.82,489.358 2368.21,490.754C2368.55,491.993 2370.03,492.994 2371.32,492.524Z" style="fill:rgb(26,57,102);fill-rule:nonzero;"/>
            </g>
            <g transform="matrix(1,0,0,1,-264.873,304.237)">
                <path d="M2375.21,513.985C2392.98,511.859 2411.07,512.013 2428.77,514.642C2433.84,515.395 2438.88,516.344 2443.87,517.474C2447.05,518.191 2448.41,513.306 2445.22,512.587C2427.39,508.558 2409.03,506.86 2390.77,507.645C2385.57,507.868 2380.38,508.299 2375.21,508.917C2373.85,509.08 2372.68,509.965 2372.68,511.451C2372.68,512.694 2373.85,514.148 2375.21,513.985Z" style="fill:rgb(26,57,102);fill-rule:nonzero;"/>
            </g>
            <g transform="matrix(1,0,0,1,-264.873,304.237)">
                <path d="M2379.73,502.944C2395.99,498.388 2413.18,497.235 2429.9,499.748C2431.25,499.951 2432.62,499.409 2433.01,497.978C2433.34,496.782 2432.6,495.066 2431.24,494.861C2413.6,492.209 2395.57,493.241 2378.38,498.057C2375.25,498.935 2376.58,503.827 2379.73,502.944Z" style="fill:rgb(26,57,102);fill-rule:nonzero;"/>
            </g>
            <g transform="matrix(1,0,0,1,-264.873,304.237)">
                <path d="M2197.33,491.599C2179.85,486.305 2161.65,483.34 2143.39,482.813C2138.18,482.662 2132.96,482.718 2127.76,482.965C2124.51,483.119 2124.49,488.187 2127.76,488.033C2145.65,487.186 2163.61,488.68 2181.1,492.572C2186.11,493.687 2191.07,494.998 2195.98,496.486C2199.11,497.433 2200.45,492.543 2197.33,491.599Z" style="fill:rgb(26,57,102);fill-rule:nonzero;"/>
            </g>
            <g transform="matrix(1,0,0,1,-264.873,304.237)">
                <path d="M2193.28,513.098C2175,511.93 2156.58,513.226 2138.63,516.902C2133.57,517.94 2128.55,519.175 2123.58,520.591C2120.44,521.483 2121.78,526.374 2124.92,525.478C2142.2,520.557 2160.06,517.939 2178.03,517.751C2183.12,517.698 2188.2,517.842 2193.28,518.166C2194.65,518.254 2195.82,516.939 2195.82,515.632C2195.82,514.188 2194.65,513.186 2193.28,513.098Z" style="fill:rgb(26,57,102);fill-rule:nonzero;"/>
            </g>
            <g transform="matrix(1,0,0,1,-264.873,304.237)">
                <path d="M2189.51,502.467C2172.09,498.61 2154.02,498.498 2136.56,502.12C2135.22,502.398 2134.44,503.979 2134.79,505.237C2135.17,506.629 2136.56,507.286 2137.9,507.007C2154.45,503.576 2171.67,503.701 2188.17,507.354C2191.34,508.058 2192.7,503.173 2189.51,502.467Z" style="fill:rgb(26,57,102);fill-rule:nonzero;"/>
            </g>
            <g transform="matrix(1,0,0,1,-264.873,304.237)">
                <path d="M2269.23,827.593C2270.66,828.448 2272.04,829.367 2273.38,830.359C2273.54,830.483 2273.71,830.607 2273.87,830.734C2274.24,831.012 2273.43,830.375 2274.05,830.872C2274.37,831.132 2274.7,831.392 2275.02,831.658C2275.65,832.19 2276.28,832.738 2276.89,833.302C2278.08,834.4 2279.21,835.557 2280.29,836.767C2280.84,837.388 2281.38,838.023 2281.9,838.671C2282.03,838.832 2282.16,838.995 2282.28,839.159C2282.07,838.888 2282.34,839.234 2282.42,839.338C2282.69,839.703 2282.96,840.072 2283.23,840.444C2284,841.52 2285.47,842.141 2286.69,841.353C2287.76,840.665 2288.43,839.04 2287.6,837.886C2283.38,831.966 2278.04,826.96 2271.79,823.217C2270.65,822.535 2268.96,822.926 2268.33,824.126C2267.68,825.352 2268.02,826.865 2269.23,827.593Z" style="fill:rgb(26,57,102);fill-rule:nonzero;"/>
            </g>
            <g transform="matrix(1,0,0,1,-264.873,304.237)">
                <path d="M2275.34,840.517C2278.37,835.882 2281.39,831.246 2284.42,826.611C2285.14,825.499 2284.68,823.762 2283.51,823.144C2282.24,822.476 2280.82,822.866 2280.04,824.053C2277.02,828.689 2273.99,833.324 2270.96,837.959C2270.24,839.072 2270.7,840.809 2271.87,841.426C2273.14,842.095 2274.56,841.704 2275.34,840.517Z" style="fill:rgb(26,57,102);fill-rule:nonzero;"/>
            </g>
            <g transform="matrix(1,0,0,1,-264.873,304.237)">
                <path d="M2341.14,609.999C2330.78,615.392 2321.86,623.227 2314.93,632.601C2307.89,642.129 2302.79,653.588 2301.3,665.392C2300.49,671.849 2301.06,678.529 2303.92,684.445C2306.37,689.517 2310.85,693.537 2316.04,695.648C2321.3,697.788 2327.34,697.418 2332.14,694.298C2337.28,690.956 2340.45,685.565 2342.69,679.998C2345.43,673.197 2347.06,666.088 2351.4,660.037C2355.14,654.817 2360.34,650.751 2366.17,648.114C2367.42,647.551 2367.72,645.741 2367.08,644.648C2366.33,643.365 2364.86,643.173 2363.61,643.739C2358.52,646.041 2353.88,649.436 2350.14,653.591C2346.06,658.118 2343.29,663.339 2341.23,669.043C2338,677.951 2334.21,692.775 2321.96,691.932C2317.41,691.619 2313.11,688.769 2310.36,685.252C2306.86,680.782 2305.84,674.856 2306.04,669.316C2306.43,658.342 2311.09,647.378 2317.09,638.324C2323.76,628.249 2332.97,619.956 2343.69,614.376C2346.59,612.869 2344.03,608.494 2341.14,609.999Z" style="fill:rgb(26,57,102);fill-rule:nonzero;"/>
            </g>
            <g transform="matrix(1,0,0,1,-264.873,304.237)">
                <path d="M2311.34,670.012C2308.83,676.567 2308.27,683.676 2309.46,690.575C2309.69,691.925 2311.35,692.682 2312.58,692.345C2314,691.953 2314.58,690.582 2314.35,689.228C2313.31,683.216 2314.05,677.037 2316.23,671.359C2316.72,670.081 2315.69,668.58 2314.46,668.242C2313.03,667.85 2311.84,668.73 2311.34,670.012Z" style="fill:rgb(26,57,102);fill-rule:nonzero;"/>
            </g>
            <g transform="matrix(1,0,0,1,-264.873,304.237)">
                <path d="M2324.72,673.985C2321.81,680.535 2320.88,687.579 2321.99,694.662C2322.21,696.015 2323.9,696.765 2325.11,696.432C2326.55,696.035 2327.09,694.672 2326.88,693.314C2326,687.723 2326.79,681.737 2329.1,676.543C2329.66,675.294 2329.46,673.82 2328.19,673.076C2327.11,672.444 2325.28,672.729 2324.72,673.985Z" style="fill:rgb(26,57,102);fill-rule:nonzero;"/>
            </g>
            <g transform="matrix(1,0,0,1,-264.873,304.237)">
                <path d="M2221.86,593.978C2240.89,603.888 2255.72,622.963 2259.09,644.364C2259.98,650.008 2259.78,656.264 2257.26,661.49C2255.21,665.715 2251.5,669.29 2247.01,670.797C2242.39,672.348 2237.7,671.377 2234.1,668.056C2229.9,664.176 2227.81,658.753 2226,653.466C2224.77,649.901 2223.59,646.314 2221.97,642.904C2220.59,640.009 2218.83,637.339 2216.82,634.844C2212.86,629.928 2207.69,625.939 2201.94,623.342C2200.69,622.778 2199.21,622.983 2198.47,624.251C2197.84,625.336 2198.13,627.151 2199.38,627.717C2204.75,630.141 2209.39,633.718 2213.11,638.274C2217.09,643.136 2219.1,648.959 2221.11,654.813C2223.13,660.694 2225.48,666.64 2229.97,671.112C2234.26,675.384 2240.01,677.39 2245.99,676.296C2251.45,675.298 2256.3,671.802 2259.57,667.413C2263.35,662.358 2264.72,655.784 2264.6,649.572C2264.37,637.634 2259.53,625.581 2253.05,615.692C2245.9,604.767 2236.02,595.641 2224.42,589.602C2221.53,588.098 2218.96,592.47 2221.86,593.978Z" style="fill:rgb(26,57,102);fill-rule:nonzero;"/>
            </g>
            <g transform="matrix(1,0,0,1,-264.873,304.237)">
                <path d="M2249.32,650.962C2251.5,656.64 2252.24,662.819 2251.21,668.831C2250.97,670.178 2251.57,671.561 2252.98,671.948C2254.2,672.283 2255.86,671.534 2256.09,670.178C2257.28,663.279 2256.72,656.17 2254.21,649.615C2253.72,648.338 2252.5,647.457 2251.09,647.845C2249.87,648.181 2248.83,649.678 2249.32,650.962Z" style="fill:rgb(26,57,102);fill-rule:nonzero;"/>
            </g>
            <g transform="matrix(1,0,0,1,-264.873,304.237)">
                <path d="M2236.45,656.146C2238.77,661.34 2239.55,667.326 2238.67,672.918C2238.46,674.268 2239.02,675.643 2240.44,676.035C2241.65,676.365 2243.35,675.625 2243.56,674.265C2244.68,667.182 2243.75,660.138 2240.83,653.588C2240.27,652.338 2238.45,652.042 2237.36,652.679C2236.08,653.432 2235.89,654.891 2236.45,656.146Z" style="fill:rgb(26,57,102);fill-rule:nonzero;"/>
            </g>
            <g transform="matrix(1,0,0,1,-264.873,304.237)">
                <path d="M2233.01,433.526C2245.29,430.9 2257.7,428.93 2270.24,428.139C2281.45,427.431 2292.7,427.677 2303.87,428.805C2310.26,429.449 2316.6,430.385 2322.92,431.504C2324.26,431.743 2325.65,431.141 2326.03,429.734C2326.37,428.51 2325.62,426.857 2324.26,426.617C2312.76,424.578 2301.13,423.144 2289.44,422.768C2277.5,422.384 2265.57,423.138 2253.74,424.739C2246.33,425.741 2238.98,427.076 2231.67,428.639C2228.48,429.321 2229.83,434.207 2233.01,433.526Z" style="fill:rgb(26,57,102);fill-rule:nonzero;"/>
            </g>
            <g transform="matrix(1,0,0,1,-264.873,304.237)">
                <path d="M2154.79,829.842C2145.12,826.357 2135.75,820.81 2128.78,813.176C2123.43,807.319 2119.67,800.09 2116.97,792.674C2110.05,773.641 2108.8,752.771 2108.94,732.692C2109.2,694.807 2115.18,656.988 2122.65,619.929C2129.69,584.988 2138.46,550.395 2148.32,516.148C2155.07,492.694 2162.25,469.323 2170.38,446.306C2175.16,432.782 2180.28,419.091 2188.34,407.134C2193.37,399.658 2201.4,389.924 2211.59,393.469C2216.24,395.085 2220.02,398.654 2223.47,402.023C2227.36,405.809 2231,409.854 2234.34,414.124C2237.56,418.225 2240.46,422.564 2243.12,427.042C2244.78,429.844 2249.17,427.297 2247.5,424.484C2241.85,414.972 2234.99,406.162 2227.06,398.439C2220.05,391.615 2211.05,384.884 2200.82,388.842C2191.15,392.582 2184.73,402.583 2179.88,411.23C2175.11,419.718 2171.46,428.806 2168.05,437.906C2160.34,458.503 2153.86,479.607 2147.57,500.674C2137.29,535.142 2128.12,569.968 2120.56,605.137C2112.55,642.415 2106.01,680.339 2104.25,718.484C2103.25,740.252 2103.62,762.689 2109,783.927C2111.19,792.572 2114.34,801.153 2119.11,808.727C2124.11,816.661 2130.99,822.959 2138.97,827.841C2143.53,830.638 2148.4,832.914 2153.44,834.729C2156.51,835.836 2157.84,830.941 2154.79,829.842Z" style="fill:rgb(26,57,102);fill-rule:nonzero;"/>
            </g>
            <g transform="matrix(1,0,0,1,-264.873,304.237)">
                <path d="M2404.88,834.729C2415.68,830.838 2426.24,824.671 2433.85,815.949C2439.99,808.913 2444.15,800.406 2447.09,791.594C2453.25,773.08 2454.54,753.04 2454.46,733.641C2454.31,697.235 2448.81,660.851 2441.87,625.189C2434.87,589.213 2425.97,553.609 2415.91,518.371C2408.94,493.926 2401.49,469.574 2393.05,445.592C2387.9,430.974 2382.41,416.059 2373.48,403.288C2367.49,394.718 2358.6,385.456 2347.07,388.102C2341.59,389.361 2336.97,393.072 2332.95,396.832C2328.61,400.89 2324.57,405.283 2320.88,409.932C2317.2,414.555 2313.84,419.405 2310.83,424.484C2309.16,427.295 2313.54,429.847 2315.2,427.042C2321.27,416.83 2328.76,407.397 2337.59,399.436C2341.43,395.978 2346.17,392.493 2351.59,392.694C2357,392.894 2361.51,396.683 2364.95,400.519C2372.7,409.164 2377.82,420.25 2382.14,430.914C2383.98,435.454 2385.71,440.037 2387.35,444.65C2395.23,466.732 2402.16,489.175 2408.71,511.682C2418.47,545.199 2427.18,579.047 2434.3,613.225C2441.6,648.261 2447.51,683.842 2449.05,719.647C2449.81,737.269 2449.61,755.176 2446.56,772.589C2444.84,782.381 2442.25,792.212 2437.71,801.102C2433.26,809.808 2426.94,816.854 2418.75,822.227C2414,825.349 2408.89,827.913 2403.54,829.842C2400.49,830.939 2401.8,835.838 2404.88,834.729Z" style="fill:rgb(26,57,102);fill-rule:nonzero;"/>
            </g>
            <g transform="matrix(1,0,0,1,-264.873,304.237)">
                <path d="M2083.15,758.54C2108.56,783.311 2116.66,821.197 2139.46,848.389C2147.87,858.414 2159.9,867.355 2172.86,865.571C2186.53,863.689 2196.16,849.953 2197.66,836.238C2199.16,822.523 2194.33,808.952 2188.88,796.275C2177.87,770.632 2163.23,745.328 2140.21,729.562C2131.83,723.825 2122.24,719.421 2112.1,718.833C2101.96,718.245 2091.25,721.941 2085,729.945C2078.76,737.949 2076.31,751.878 2083.15,758.54Z" style="fill:white;fill-rule:nonzero;"/>
            </g>
            <g transform="matrix(1,0,0,1,-264.873,304.237)">
                <path d="M2470.29,798.867C2440.07,817.455 2423.84,852.638 2395.63,874.16C2385.23,882.095 2371.52,888.175 2359.27,883.589C2346.35,878.752 2339.97,863.236 2341.52,849.527C2343.06,835.818 2350.76,823.639 2358.85,812.466C2375.22,789.866 2395.06,768.394 2420.99,758.068C2430.42,754.31 2440.75,752.12 2450.76,753.772C2460.78,755.424 2470.42,761.382 2474.76,770.563C2479.1,779.743 2478.42,793.868 2470.29,798.867Z" style="fill:white;fill-rule:nonzero;"/>
            </g>
            <g transform="matrix(1,0,0,1,-264.873,304.237)">
                <path d="M2421.5,787.155C2425.36,783.29 2433.44,785.099 2439.53,791.195C2445.63,797.291 2447.44,805.365 2443.57,809.23C2439.71,813.095 2431.63,811.287 2425.54,805.191C2419.44,799.095 2417.63,791.02 2421.5,787.155Z" style="fill:rgb(251,210,207);fill-rule:nonzero;"/>
            </g>
            <g transform="matrix(1,0,0,1,-264.873,304.237)">
                <path d="M2442.42,778.851C2445.13,776.14 2449.44,776.06 2452.06,778.672C2454.67,781.285 2454.59,785.601 2451.88,788.312C2449.17,791.023 2444.85,791.104 2442.24,788.491C2439.63,785.879 2439.71,781.563 2442.42,778.851Z" style="fill:rgb(251,210,207);fill-rule:nonzero;"/>
            </g>
            <g transform="matrix(1,0,0,1,-264.873,304.237)">
                <path d="M2450.08,793.267C2452.79,790.555 2457.1,790.475 2459.72,793.088C2462.33,795.7 2462.25,800.016 2459.54,802.727C2456.83,805.439 2452.51,805.519 2449.9,802.907C2447.29,800.294 2447.37,795.978 2450.08,793.267Z" style="fill:rgb(251,210,207);fill-rule:nonzero;"/>
            </g>
            <g transform="matrix(1,0,0,1,-264.873,304.237)">
                <path d="M2428,771.192C2430.71,768.48 2435.03,768.4 2437.64,771.013C2440.25,773.625 2440.17,777.941 2437.46,780.653C2434.75,783.364 2430.44,783.444 2427.82,780.832C2425.21,778.219 2425.29,773.903 2428,771.192Z" style="fill:rgb(251,210,207);fill-rule:nonzero;"/>
            </g>
            <g transform="matrix(1,0,0,1,-264.873,304.237)">
                <path d="M2111.88,778.162C2108.01,774.297 2109.82,766.222 2115.92,760.126C2122.01,754.03 2130.09,752.222 2133.95,756.087C2137.82,759.952 2136.01,768.027 2129.91,774.122C2123.82,780.218 2115.74,782.027 2111.88,778.162Z" style="fill:rgb(251,210,207);fill-rule:nonzero;"/>
            </g>
            <g transform="matrix(1,0,0,1,-264.873,304.237)">
                <path d="M2103.57,757.244C2100.86,754.532 2100.78,750.216 2103.4,747.604C2106.01,744.991 2110.32,745.072 2113.04,747.783C2115.75,750.494 2115.83,754.81 2113.21,757.423C2110.6,760.035 2106.29,759.955 2103.57,757.244Z" style="fill:rgb(251,210,207);fill-rule:nonzero;"/>
            </g>
            <g transform="matrix(1,0,0,1,-264.873,304.237)">
                <path d="M2117.99,749.584C2115.28,746.873 2115.2,742.557 2117.81,739.944C2120.42,737.332 2124.74,737.412 2127.45,740.123C2130.16,742.835 2130.24,747.15 2127.63,749.763C2125.02,752.376 2120.7,752.295 2117.99,749.584Z" style="fill:rgb(251,210,207);fill-rule:nonzero;"/>
            </g>
            <g transform="matrix(1,0,0,1,-264.873,304.237)">
                <path d="M2095.91,771.659C2093.2,768.947 2093.12,764.632 2095.74,762.019C2098.35,759.407 2102.66,759.487 2105.38,762.198C2108.09,764.91 2108.17,769.225 2105.55,771.838C2102.94,774.45 2098.63,774.37 2095.91,771.659Z" style="fill:rgb(251,210,207);fill-rule:nonzero;"/>
            </g>
            <g transform="matrix(1,0,0,1,-264.873,304.237)">
                <path d="M2350.13,836.942C2343.45,845.207 2338.11,855.481 2339.91,866.404C2341.26,874.525 2347.14,881.237 2354.55,884.55C2363.11,888.382 2372.98,888.359 2381.8,885.358C2393.23,881.472 2402.44,873.161 2410.26,864.227C2418.17,855.187 2425.17,845.393 2433.45,836.672C2440.71,829.033 2448.83,822.304 2456.76,815.383C2465.77,807.517 2474.48,798.508 2478.08,786.789C2480.45,779.055 2479.99,770.245 2474.98,763.628C2469.88,756.9 2461.64,753.805 2453.38,753.634C2442.34,753.404 2431.54,757.934 2422.5,763.966C2419.55,765.935 2416.73,768.107 2414.02,770.397C2412.97,771.282 2413.11,773.07 2414.02,773.981C2415.05,775.017 2416.55,774.867 2417.6,773.981C2426.13,766.771 2436.29,760.748 2447.49,759.06C2451.36,758.476 2455.58,758.556 2459.21,759.41C2460.07,759.614 2460.93,759.859 2461.78,760.148C2462.86,760.519 2463.14,760.638 2464.03,761.072C2464.77,761.437 2465.5,761.842 2466.2,762.286C2467.11,762.862 2467.44,763.107 2468.04,763.612C2469.28,764.655 2470.52,766.029 2471.16,766.949C2471.61,767.597 2472.02,768.273 2472.39,768.971C2472.92,769.974 2472.96,770.069 2473.29,770.999C2474.47,774.293 2474.7,777.708 2474.22,780.953C2472.72,791.115 2466,799.83 2458.79,806.754C2451.09,814.152 2442.56,820.656 2434.86,828.065C2426.98,835.648 2420.18,844.14 2413.34,852.643C2406.2,861.514 2398.66,870.525 2388.8,876.493C2384.63,879.024 2380.14,880.893 2375.34,881.845C2371.57,882.594 2367.08,882.692 2363.46,882.042C2356.22,880.743 2349.81,876.981 2346.53,870.538C2345.02,867.555 2344.4,864.065 2344.65,860.408C2344.93,856.131 2346.61,851.604 2348.81,847.697C2350.24,845.171 2351.89,842.779 2353.71,840.525C2354.57,839.462 2354.75,837.981 2353.71,836.942C2352.82,836.053 2350.99,835.872 2350.13,836.942Z" style="fill:rgb(26,57,102);fill-rule:nonzero;"/>
            </g>
            <g transform="matrix(1,0,0,1,-264.873,304.237)">
                <path d="M2133.9,832.447C2127.63,821.791 2122.43,810.552 2115.63,800.203C2109.54,790.938 2102.38,782.434 2095.55,773.716C2089.2,765.598 2083.2,755.629 2082.36,745.492C2082.02,741.501 2082.29,738.446 2083.68,734.751C2083.76,734.54 2083.84,734.331 2083.92,734.123C2083.73,734.583 2083.93,734.126 2083.98,734.014C2084.15,733.649 2084.32,733.284 2084.51,732.926C2084.92,732.16 2085.37,731.42 2085.87,730.713C2086,730.538 2086.12,730.364 2086.25,730.194C2086.19,730.27 2085.95,730.57 2086.25,730.203C2086.52,729.874 2086.8,729.551 2087.08,729.238C2087.66,728.614 2088.28,728.037 2088.93,727.486C2088.92,727.49 2089.46,727.053 2089.17,727.285C2088.87,727.518 2089.43,727.094 2089.42,727.098C2089.77,726.848 2090.12,726.606 2090.48,726.376C2091.21,725.912 2091.97,725.495 2092.75,725.126C2092.88,725.063 2093.01,725.003 2093.15,724.942C2093.81,724.639 2092.67,725.124 2093.35,724.854C2093.76,724.691 2094.18,724.536 2094.6,724.395C2095.39,724.132 2096.19,723.912 2097,723.733C2098.75,723.348 2099.92,723.221 2102.02,723.216C2104.12,723.211 2105.76,723.388 2107.54,723.732C2117.42,725.642 2126.09,731.563 2133.19,738.617C2135.42,740.832 2137.51,743.18 2139.49,745.618C2140.36,746.681 2142.18,746.516 2143.08,745.618C2144.13,744.568 2143.94,743.1 2143.08,742.035C2135.58,732.812 2126.19,724.665 2114.9,720.533C2106.98,717.632 2097.96,717.072 2090.19,720.749C2083.32,724.004 2078.72,730.7 2077.57,738.147C2075.99,748.394 2079.75,758.682 2084.97,767.364C2088.5,773.256 2092.93,778.547 2097.2,783.917C2100.58,788.184 2103.98,792.44 2107.18,796.855C2114.48,806.96 2120.12,817.975 2126.08,828.894C2132.25,840.219 2139.38,851.535 2150.13,859.058C2157.58,864.271 2166.97,867.315 2176.11,866.366C2184.19,865.525 2191.87,861.721 2196.33,854.727C2201.38,846.788 2200.78,836.718 2197.73,828.168C2196.69,825.274 2195.4,822.471 2193.95,819.766C2192.4,816.893 2188.03,819.449 2189.57,822.324C2192.08,826.976 2194.08,831.985 2194.8,837.248C2195.33,841.056 2195.1,844.809 2193.76,848.556C2193.7,848.712 2193.32,849.672 2193.49,849.284C2193.3,849.716 2193.09,850.142 2192.88,850.56C2192.45,851.382 2191.97,852.176 2191.44,852.934C2191.35,853.059 2191.26,853.183 2191.17,853.306C2190.73,853.916 2191.48,852.934 2191.01,853.518C2190.72,853.872 2190.43,854.219 2190.12,854.554C2189.53,855.196 2188.9,855.801 2188.24,856.366C2188.09,856.489 2187.94,856.609 2187.8,856.729C2187.22,857.203 2188.19,856.446 2187.59,856.891C2187.25,857.139 2186.91,857.381 2186.56,857.611C2185.82,858.097 2185.05,858.541 2184.26,858.94C2183.84,859.151 2183.42,859.35 2182.99,859.537C2183.41,859.356 2182.45,859.751 2182.29,859.81C2181.39,860.144 2180.47,860.426 2179.55,860.662C2177.46,861.191 2176.42,861.334 2174.35,861.429C2173.41,861.473 2172.46,861.473 2171.52,861.434C2171,861.412 2170.48,861.377 2169.96,861.331C2169.78,861.315 2169.61,861.298 2169.43,861.28C2169.34,861.27 2168.39,861.149 2168.79,861.206C2164.5,860.596 2160.52,859.233 2156.85,857.254C2146.71,851.786 2139.64,842.199 2133.9,832.447Z" style="fill:rgb(26,57,102);fill-rule:nonzero;"/>
            </g>
            <g transform="matrix(1,0,0,1,-264.873,304.237)">
                <path d="M2050.04,684.215C2048.44,684.565 2046.84,684.872 2045.23,685.122C2044.83,685.185 2044.43,685.257 2044.02,685.3C2045.35,685.159 2043.97,685.301 2043.75,685.327C2042.94,685.422 2042.13,685.503 2041.32,685.573C2038.07,685.851 2034.81,685.921 2031.55,685.795C2029.93,685.731 2028.3,685.617 2026.68,685.455C2025.87,685.374 2025.05,685.295 2024.25,685.174C2025.57,685.372 2024.2,685.16 2023.98,685.127C2023.58,685.066 2023.18,685.002 2022.77,684.935C2019.56,684.398 2016.37,683.668 2013.24,682.749C2011.68,682.29 2010.13,681.784 2008.59,681.231C2007.83,680.955 2007.06,680.667 2006.31,680.368C2005.99,680.243 2005.68,680.116 2005.36,679.987C2005.17,679.91 2004.98,679.832 2004.8,679.754C2005.38,680 2005.41,680.01 2004.88,679.784C2001.91,678.44 1999,676.997 1996.19,675.33C1994.79,674.498 1993.41,673.622 1992.07,672.703C1991.39,672.244 1990.73,671.773 1990.07,671.292C1989.85,671.131 1989.63,670.97 1989.42,670.807C1989.2,670.644 1988.98,670.48 1988.77,670.315C1989.25,670.692 1989.27,670.706 1988.83,670.356C1986.4,668.387 1984.06,666.327 1981.95,664.017C1981.42,663.442 1980.91,662.856 1980.41,662.256C1980.28,662.093 1979.44,661.073 1980.24,662.067C1980,661.767 1979.78,661.449 1979.55,661.136C1978.66,659.887 1977.83,658.584 1977.11,657.228C1976.77,656.595 1976.28,655.861 1976.1,655.164C1976.41,656.384 1976.12,655.217 1976.03,654.958C1975.89,654.599 1975.76,654.238 1975.64,653.874C1975.17,652.475 1974.62,650.838 1974.56,649.354C1974.61,650.709 1974.58,649.377 1974.56,649.129C1974.52,648.73 1974.5,648.329 1974.48,647.928C1974.45,647.111 1974.47,646.293 1974.53,645.478C1974.54,645.342 1974.55,645.207 1974.56,645.072C1974.63,644.486 1974.62,644.532 1974.53,645.209C1974.49,645.045 1974.63,644.604 1974.67,644.411C1974.85,643.486 1975.09,642.574 1975.4,641.684C1975.46,641.486 1975.85,640.2 1975.47,641.4C1975.59,641.033 1975.82,640.657 1976,640.316C1976.37,639.601 1976.81,638.934 1977.26,638.263C1977.99,637.168 1976.57,638.984 1977.47,638.018C1977.65,637.819 1977.83,637.612 1978.02,637.415C1978.3,637.123 1978.59,636.84 1978.89,636.567C1979.08,636.39 1979.28,636.217 1979.48,636.049C1979.92,635.693 1979.88,635.721 1979.37,636.131C1979.76,635.63 1980.71,635.24 1981.27,634.942C1981.51,634.81 1981.97,634.481 1982.25,634.458C1982.07,634.534 1981.88,634.609 1981.7,634.685C1981.92,634.595 1982.15,634.511 1982.38,634.431C1982.94,634.232 1983.51,634.063 1984.09,633.921C1984.44,633.835 1984.79,633.761 1985.15,633.696C1985.38,633.653 1985.62,633.614 1985.85,633.579C1985.1,633.676 1985.01,633.693 1985.58,633.629C1987.05,633.542 1988.49,633.494 1989.96,633.603C1990.31,633.629 1992.3,633.744 1990.84,633.665C1991.7,633.712 1992.6,633.948 1993.44,634.123C1999.33,635.344 2005.02,637.556 2010.67,639.566C2015.26,641.196 2019.82,642.886 2024.36,644.659C2026.13,645.354 2027.9,646.061 2029.66,646.784C2030.4,647.085 2031.13,647.391 2031.87,647.697C2033.1,648.212 2030.74,647.217 2031.81,647.671C2032.19,647.836 2032.58,648.001 2032.97,648.167C2034.98,649.03 2036.98,649.918 2038.96,650.833C2040.26,651.43 2041.6,652.195 2042.96,652.625C2043.97,652.943 2044.99,653.031 2046.03,652.743C2049.76,651.713 2050.98,646.803 2048.19,644.157C2047.65,643.641 2047.01,643.208 2046.43,642.745C2043.24,640.242 2040.19,637.575 2037.28,634.758C2035.02,632.57 2032.84,630.299 2030.74,627.956C2029.52,626.596 2028.33,625.211 2027.16,623.804C2026.6,623.118 2026.03,622.426 2025.48,621.729C2025.16,621.338 2024.85,620.945 2024.55,620.55C2024.33,620.275 2023.75,619.492 2024.71,620.772C2024.51,620.497 2024.3,620.226 2024.09,619.953C2018.38,612.44 2013.39,604.394 2009.1,595.996C2007.84,593.532 2006.64,591.037 2005.5,588.516C2004.88,587.149 2004.28,585.773 2003.7,584.394C2004.17,585.507 2003.61,584.196 2003.55,584.04C2003.39,583.646 2003.22,583.252 2003.06,582.857C2002.74,582.062 2002.42,581.265 2002.11,580.466C2000.86,577.249 1999.71,573.987 1998.77,570.666C1998.31,569.02 1997.89,567.361 1997.54,565.687C1997.36,564.86 1997.21,564.029 1997.07,563.195C1997,562.787 1996.9,562.362 1996.87,561.949C1996.93,562.849 1996.9,562.118 1996.84,561.639C1996.48,558.456 1996.26,554.997 1996.83,551.822C1996.6,553.14 1996.85,551.789 1996.89,551.568C1996.96,551.169 1997.04,550.771 1997.12,550.375C1997.29,549.582 1997.49,548.794 1997.72,548.015C1997.95,547.23 1998.23,546.463 1998.51,545.693C1998.83,544.806 1998.54,545.587 1998.46,545.757C1998.69,545.247 1998.92,544.743 1999.17,544.246C1999.54,543.497 1999.95,542.759 2000.39,542.047C2000.6,541.707 2000.83,541.384 2001.05,541.052C2001.77,539.979 2000.34,541.747 2001.24,540.827C2001.8,540.257 2002.35,539.705 2002.94,539.167C2002.2,539.842 2002.64,539.383 2002.87,539.247C2003.32,538.978 2003.79,538.713 2004.24,538.438C2005.3,537.791 2003.27,538.703 2004.42,538.341C2004.77,538.231 2005.12,538.106 2005.47,538.013C2005.65,537.968 2006.37,537.706 2006.53,537.79C2006.31,537.82 2006.1,537.849 2005.88,537.879C2006.12,537.856 2006.35,537.839 2006.59,537.83C2006.94,537.816 2007.29,537.819 2007.64,537.835C2007.76,537.843 2007.88,537.85 2008,537.857C2008.56,537.914 2008.46,537.895 2007.7,537.8C2008.06,537.603 2009.42,538.178 2009.79,538.296C2010.14,538.405 2010.48,538.536 2010.83,538.658C2012,539.072 2009.88,538.141 2010.98,538.739C2011.66,539.102 2012.34,539.436 2013,539.837C2013.67,540.248 2014.31,540.702 2014.95,541.155C2015.14,541.289 2015.67,541.759 2014.88,541.093C2015.29,541.441 2015.72,541.775 2016.12,542.131C2017.35,543.208 2018.51,544.366 2019.61,545.579C2020.11,546.131 2020.6,546.695 2021.07,547.269C2021.28,547.527 2021.49,547.789 2021.7,548.049C2022.05,548.494 2022.03,548.466 2021.63,547.963C2021.79,548.171 2021.95,548.38 2022.1,548.59C2026.35,554.385 2030.25,560.465 2033.86,566.678C2037.48,572.918 2040.8,579.338 2043.78,585.907C2044.53,587.549 2045.26,589.201 2045.96,590.861C2045.58,589.956 2045.97,590.879 2046.06,591.105C2046.21,591.452 2046.35,591.799 2046.49,592.147C2046.89,593.121 2047.29,594.097 2047.67,595.076C2048.99,598.433 2050.23,601.823 2051.39,605.242C2052.06,607.25 2052.49,609.541 2054.08,611.06C2056.07,612.973 2059.24,613.274 2061.6,611.839C2064.29,610.204 2064.86,607.329 2064.26,604.449C2063.86,602.55 2063.36,600.665 2062.9,598.781C2061.04,591.306 2059.02,583.877 2057.14,576.409C2055.3,569.088 2053.6,561.722 2052.4,554.266C2052.26,553.344 2052.12,552.421 2051.98,551.497C2051.97,551.369 2051.77,549.835 2051.91,550.997C2051.87,550.689 2051.84,550.382 2051.8,550.073C2051.55,548.073 2051.35,546.067 2051.19,544.058C2050.91,540.344 2050.8,536.616 2050.9,532.892C2050.94,531.172 2051.04,529.453 2051.17,527.738C2051.25,526.796 2051.34,525.854 2051.45,524.915C2051.5,524.443 2051.56,523.971 2051.61,523.5C2051.48,524.605 2051.74,522.673 2051.77,522.484C2052.21,519.63 2052.83,516.788 2053.84,514.077C2053.95,513.773 2054.18,512.694 2053.86,513.973C2053.93,513.655 2054.15,513.31 2054.29,513.016C2054.55,512.497 2054.82,511.987 2055.11,511.49C2055.28,511.196 2055.47,510.906 2055.65,510.622C2055.72,510.529 2055.78,510.435 2055.85,510.342C2056.17,509.9 2056.1,509.972 2055.66,510.555C2055.81,509.99 2056.82,509.236 2057.24,508.85C2057.32,508.777 2057.41,508.703 2057.49,508.63C2057.91,508.285 2057.82,508.343 2057.24,508.803C2057.24,508.697 2057.97,508.305 2058.07,508.246C2058.26,508.129 2058.46,508.017 2058.65,507.911C2058.75,507.859 2058.85,507.807 2058.95,507.755C2059.45,507.522 2059.36,507.553 2058.68,507.846C2059.07,507.456 2060.18,507.387 2060.69,507.247C2061.81,506.942 2059.52,507.276 2060.67,507.24C2061.1,507.226 2061.54,507.195 2061.98,507.211C2062.08,507.217 2062.19,507.222 2062.3,507.228C2062.86,507.279 2062.73,507.254 2061.92,507.152C2062.1,507.278 2062.66,507.285 2062.88,507.337C2063.41,507.463 2063.92,507.644 2064.44,507.813C2065.54,508.169 2063.44,507.275 2064.46,507.825C2064.76,507.985 2065.06,508.128 2065.36,508.293C2065.97,508.637 2066.95,509.069 2067.39,509.621C2066.64,508.696 2067.19,509.47 2067.48,509.72C2067.71,509.916 2067.94,510.118 2068.16,510.323C2068.66,510.781 2069.14,511.259 2069.6,511.754C2070.08,512.27 2070.73,512.847 2071.08,513.465C2070.48,512.389 2071.05,513.431 2071.21,513.652C2071.51,514.066 2071.8,514.486 2072.08,514.913C2072.86,516.085 2073.57,517.302 2074.22,518.554C2074.56,519.228 2074.88,519.913 2075.19,520.601C2075.72,521.762 2074.82,519.574 2075.25,520.761C2075.43,521.249 2075.62,521.732 2075.79,522.221C2077.01,525.682 2078.03,529.214 2078.87,532.788C2079.25,534.413 2079.59,536.046 2079.89,537.687C2080.06,538.58 2080.21,539.475 2080.35,540.372C2080.42,540.82 2080.49,541.268 2080.56,541.717C2080.6,542.017 2080.64,542.316 2080.68,542.615C2080.6,542.017 2080.6,542.018 2080.68,542.617C2081.1,546.227 2081.41,549.842 2081.54,553.475C2081.8,560.806 2081.45,568.151 2080.65,575.44C2080.57,576.207 2080.48,576.973 2080.39,577.739C2080.33,578.199 2080.27,578.659 2080.21,579.119C2080.02,580.648 2080.36,578.086 2080.15,579.612C2079.86,581.61 2079.56,583.605 2079.23,585.595C2078.62,589.213 2077.92,592.816 2077.16,596.403C2075.6,603.697 2073.76,610.927 2071.77,618.113C2069.81,625.177 2067.7,632.198 2065.56,639.21C2064.79,641.746 2066.48,644.848 2069.1,645.444C2071.84,646.068 2074.51,644.62 2075.34,641.905C2081.58,621.443 2087.5,600.839 2090.29,579.579C2091.64,569.281 2092.19,558.853 2091.4,548.485C2090.63,538.216 2088.81,527.688 2085.02,518.066C2081.67,509.534 2075.57,500.582 2066.36,497.777C2061.8,496.386 2056.51,497.096 2052.53,499.765C2048.45,502.506 2045.93,506.537 2044.19,511.05C2042.48,515.465 2041.83,520.239 2041.31,524.915C2040.73,530.112 2040.6,535.355 2040.84,540.578C2041.35,551.394 2043.32,562.113 2045.79,572.636C2048.26,583.16 2051.22,593.561 2053.76,604.069C2053.93,604.778 2054.1,605.487 2054.26,606.197C2054.29,606.327 2054.52,607.116 2054.48,607.144C2054.48,607.041 2054.47,606.939 2054.47,606.836C2054.35,605.721 2054.74,604.691 2055.62,603.746C2056.61,602.941 2058.09,602.238 2059.39,602.768C2059.78,603.069 2060.17,603.37 2060.56,603.671C2061.29,603.954 2061.77,604.436 2062.01,605.117C2061.73,604.925 2061.49,603.532 2061.38,603.189C2060.57,600.765 2059.71,598.355 2058.82,595.961C2056.96,590.975 2054.92,586.051 2052.72,581.202C2048.54,571.957 2043.72,563.002 2038.28,554.431C2032.94,546.005 2027.29,537.058 2018.77,531.501C2014.42,528.663 2009.36,527.167 2004.18,527.965C1998.91,528.778 1994.55,532.351 1991.75,536.763C1986.16,545.564 1985.61,556.3 1987.36,566.304C1989.04,575.856 1992.84,585.005 1996.82,593.793C1999.87,600.512 2003.34,607.042 2007.24,613.304C2013.25,622.956 2020.29,632.069 2028.31,640.143C2032.13,643.991 2036.22,647.481 2040.46,650.851C2040.61,650.97 2040.75,651.114 2040.91,651.219C2040.95,651.247 2041,651.328 2041.05,651.342C2040.25,651.092 2039.6,648.087 2039.62,647.848C2039.85,646.995 2040.08,646.143 2040.31,645.29C2041.28,643.111 2044.11,642.481 2045.94,642.957C2045.88,642.943 2045.83,642.918 2045.78,642.901C2045.58,642.838 2047.44,643.637 2046.44,643.176C2045.8,642.878 2045.16,642.58 2044.51,642.281C2041.94,641.093 2039.36,639.949 2036.75,638.845C2025.44,634.055 2013.89,629.647 2002.18,625.957C1994.08,623.408 1985.29,622.049 1977.3,625.633C1968.6,629.531 1963.81,639.263 1964.38,648.531C1964.92,657.461 1969.25,665.338 1975.31,671.755C1981.07,677.856 1988.24,682.852 1995.71,686.628C2011.45,694.586 2029.26,697.525 2046.72,695.074C2048.73,694.791 2050.74,694.427 2052.73,693.988C2055.32,693.418 2057.08,690.265 2056.27,687.754C2055.39,685.03 2052.81,683.603 2050.04,684.215Z" style="fill:rgb(26,57,102);fill-rule:nonzero;"/>
            </g>
            <g transform="matrix(1,0,0,1,-452.619,35.905)">
                <path d="M2086.42,1387.57C2051.16,1354.66 2019.08,1345.93 1995.48,1335.77C1956.55,1319.02 1923.12,1314.65 1870.86,1308.04C1829.98,1302.87 1713.68,1328.32 1713.68,1328.32C1668.59,1339.35 1622.61,1345.91 1582.37,1369.06C1575.81,1372.84 1567.37,1378.43 1564.64,1385.5C1559.95,1397.64 1569.27,1413.68 1580.82,1419.68C1592.36,1425.68 1585.7,1429.83 1601.4,1433.35C1601.41,1433.35 1601.42,1433.36 1601.41,1433.37C1597.99,1443.54 1601.84,1491.67 1602.24,1503.02C1602.44,1501.37 1597.51,1500.67 1586.29,1511.89C1577.08,1521.09 1556.97,1533 1561.66,1545.14C1564.39,1552.2 1575.28,1567.44 1582.19,1570.54C1636.37,1594.8 1678.74,1607.5 1733.27,1617.68L1733.26,1617.7C1736.02,1631.63 1728.47,1677.43 1726.95,1691.55C1725.46,1705.4 1733.37,1717.2 1746.98,1719.32C1756.76,1720.85 1766.52,1716.66 1772.73,1708.97C1789.98,1687.58 1804.19,1663.85 1815.14,1638.69C1815.15,1638.68 1815.16,1638.67 1815.16,1638.68C1858.3,1646 1902.47,1644.46 1946.02,1638.45C1946.03,1638.45 1946.04,1638.46 1946.04,1638.48L1944.69,1641.2L1944.69,1641.21C1943.32,1660.17 1944.95,1671.91 1943.43,1686.03C1941.92,1700.15 1944.59,1715.04 1958.68,1716.82C1969.66,1718.22 1983.6,1709.62 1990.55,1701C2040.33,1639.24 2060.09,1557.51 2054.09,1478.52C2054.09,1478.5 2054.1,1478.49 2054.12,1478.5C2083.85,1493.5 2101.03,1550.32 2092.6,1602.48C2084.84,1650.53 2074.66,1661.61 2075.66,1685.46C2078.56,1754.25 2123.33,1743.81 2154.47,1729.63C2179.35,1718.31 2184.96,1692.32 2192.26,1665.98C2196.78,1649.65 2188.79,1574.21 2159.89,1502.19C2142.17,1458.02 2119.35,1418.31 2086.42,1387.57Z" style="fill:white;fill-rule:nonzero;"/>
            </g>
            <g transform="matrix(1,0,0,1,-452.619,35.905)">
                <path d="M1601.7,1431.75C1594.51,1427.37 1587.45,1422.71 1581.07,1417.2C1574.83,1411.81 1568.14,1405.16 1566.13,1396.88C1563.54,1386.23 1573.18,1378.39 1581.07,1373.2C1590.74,1366.84 1601.47,1362.39 1612.28,1358.4C1659.45,1341.01 1709.06,1330.84 1758.46,1322.16C1808.13,1313.43 1858.55,1308.45 1908.82,1314.69C1945.32,1319.23 1981.67,1328.02 2015.19,1343.37C2047.35,1358.1 2076.46,1378.87 2100.14,1405.21C2128.47,1436.71 2147.89,1474.99 2161.82,1514.76C2169.8,1537.52 2175.91,1560.83 2181.24,1584.34C2186.4,1607.1 2191.24,1630.32 2190.14,1653.79C2189.11,1675.92 2182.09,1697.79 2167.24,1714.55C2154.29,1729.17 2135.41,1740.37 2115.27,1738.37C2105.03,1737.35 2095,1732.77 2088.07,1725.08C2081.17,1717.42 2078.31,1707.2 2078.03,1697.07C2077.42,1674.9 2086.12,1653.27 2090.67,1631.86C2099.54,1590.03 2102.23,1541.67 2079.65,1503.45C2074.15,1494.15 2067.29,1485.75 2059.55,1478.23C2057.05,1475.8 2053.23,1479.62 2055.73,1482.05C2071.8,1497.68 2082.75,1516.96 2087.72,1538.83C2092.94,1561.84 2092.54,1586.08 2089.22,1609.33C2087.37,1622.3 2084.62,1635.13 2081.35,1647.82C2078.59,1658.55 2075.5,1669.22 2073.85,1680.21C2072.3,1690.48 2071.8,1701.17 2074.65,1711.27C2077.43,1721.14 2083.41,1729.66 2091.85,1735.5C2108.98,1747.34 2131.44,1745.78 2149.12,1736.11C2167,1726.33 2180.61,1709.45 2188.03,1690.64C2196.97,1667.99 2196.91,1643.26 2193.55,1619.49C2190.11,1595.11 2184.15,1570.81 2177.58,1547.11C2165.31,1502.87 2147.95,1459.02 2120.58,1421.83C2098.64,1392.02 2070.63,1367.18 2038.34,1349.07C2005.57,1330.69 1969.29,1319.29 1932.39,1312.8C1909.67,1308.8 1886.68,1306.47 1863.6,1306.36C1837.48,1306.23 1811.42,1308.65 1785.59,1312.36C1759.37,1316.12 1733.31,1321.11 1707.38,1326.52C1681.97,1331.81 1656.71,1337.99 1631.97,1345.92C1620.18,1349.7 1608.41,1353.75 1597.03,1358.67C1586.84,1363.08 1576.18,1368.48 1568.26,1376.44C1561.46,1383.27 1558.29,1392.17 1561.9,1401.42C1565.16,1409.77 1571.81,1416.5 1578.57,1422.15C1584.95,1427.47 1591.88,1432.1 1598.98,1436.42C1601.96,1438.23 1604.68,1433.55 1601.7,1431.75Z" style="fill:rgb(26,57,102);fill-rule:nonzero;"/>
            </g>
        </g>
    </g>
</svg>
