<?xml version="1.0" encoding="UTF-8" standalone="no"?>
<!DOCTYPE svg PUBLIC "-//W3C//DTD SVG 1.1//EN" "http://www.w3.org/Graphics/SVG/1.1/DTD/svg11.dtd">
<svg width="100%" height="100%" viewBox="0 0 3237 2836" version="1.1" xmlns="http://www.w3.org/2000/svg" xmlns:xlink="http://www.w3.org/1999/xlink" xml:space="preserve" xmlns:serif="http://www.serif.com/" style="fill-rule:evenodd;clip-rule:evenodd;stroke-miterlimit:2;">
    <g transform="matrix(1,0,0,1,-9258.12,-5569.71)">
        <g transform="matrix(4.16667,0,0,4.16667,1617.99,-391.541)">
            <g transform="matrix(1,0,0,1,-462.447,269.471)">
                <path d="M2968.28,1464.6C2968.01,1464.64 2967.73,1464.68 2967.45,1464.72L2967.28,1463.79C2967.53,1463.76 2967.87,1463.74 2968.28,1463.74L2968.28,1464.6ZM2888.88,1468.7C2895.28,1451.69 2907.64,1420.49 2928.31,1418.94C2932.17,1419.04 2937.31,1420.2 2938.69,1424.31C2940.63,1442.29 2900.96,1500.19 2888.95,1516.25C2886.37,1516.54 2883.85,1516.82 2881.4,1517.1C2881.29,1511.44 2881.51,1505.84 2882.05,1500.28C2883.18,1489.56 2885.48,1478.93 2888.88,1468.7ZM3072.67,1781.96C3065.37,1708.54 3052.77,1631.85 3060.14,1558.54C3059.95,1542.07 3060.09,1529.77 3056.51,1514.71C3053.6,1507.06 3046.7,1502.68 3038.75,1503.22C3024.39,1504.11 3009.84,1505.12 2995.23,1506.24C3018.36,1480.25 2997.32,1446.6 2963.9,1454.17C2990.81,1405.13 2937.11,1366.16 2895.73,1398.82C2878.56,1412.3 2865.54,1437.36 2858.16,1459.57C2854.91,1454.41 2851.4,1449.59 2847.62,1445.13C2867.85,1444.06 2865.07,1416.87 2845.51,1416.94C2846.93,1412.9 2846.27,1408.21 2843.83,1404.6C2859.61,1402.19 2857.69,1376.9 2841.42,1377.37C2831.87,1377.56 2822.28,1378.36 2812.73,1379.74C2805.02,1285.03 2691.3,1215.53 2614.05,1200.63L2611.38,1211.28L2613.91,1200.59C2584.22,1193.23 2554.2,1188.95 2524.71,1188.64C2518.17,1159.46 2474.92,1150.88 2454.16,1176.18C2429.87,1208.26 2466.77,1251.36 2502.62,1233.54C2548.34,1295.3 2527.42,1374.61 2505.23,1443.94C2503.01,1454.88 2495.35,1467.28 2497.62,1479.07C2491.58,1502.98 2486.09,1526.64 2481.44,1548.97C2468.85,1561.16 2459.9,1578.9 2456.57,1597.91C2429.26,1560.47 2392.04,1586.7 2401.55,1627.59C2375.09,1628.16 2348.02,1628.76 2321.48,1629.49C2307.26,1629.88 2296.1,1641.35 2296.08,1655.59C2295.92,1675.65 2304.88,1689.68 2321.83,1693.83C2322.13,1715.87 2321.7,1738.05 2320.57,1760.07C2319.68,1777.06 2318.35,1794.22 2316.62,1811.07C2316.15,1815.65 2317.65,1820.25 2320.73,1823.67C2323.81,1827.08 2328.22,1829.04 2332.81,1829.04L2602.35,1826.28C2628.14,1829.9 2654.98,1830.3 2681.12,1827.64C2722.14,1849.16 2775.1,1847.36 2808.22,1813.23C2878.51,1807.81 2974.07,1809.42 3045.71,1811.77C3061.46,1812.61 3075.08,1797.55 3072.67,1781.96Z" style="fill:white;fill-rule:nonzero;"/>
            </g>
            <g transform="matrix(1,0,0,1,-462.447,269.471)">
                <path d="M2723.18,1572.11L3039.74,1557.63C3043.06,1557.48 3045.84,1560.11 3045.89,1563.43C3047.01,1636.86 3052.32,1710.23 3061.8,1783.05C3063.02,1792.46 3055.55,1800.74 3046.06,1800.46C2947.95,1797.57 2849.5,1795.49 2752.08,1807.17C2744.47,1808.08 2735.86,1808.79 2730.06,1803.79C2725.23,1799.63 2723.93,1792.8 2722.97,1786.5C2713.18,1722.44 2708.1,1657.66 2709.33,1586.32C2709.47,1578.68 2715.54,1572.46 2723.18,1572.11Z" style="fill:rgb(242,107,96);fill-rule:nonzero;"/>
            </g>
            <g transform="matrix(1,0,0,1,-462.447,269.471)">
                <path d="M2871.31,1529.07C2870.39,1519.31 2870.37,1509.49 2871.27,1499.73C2871.28,1499.58 2871.36,1498.7 2871.3,1499.36C2871.23,1500.14 2871.36,1498.8 2871.36,1498.79C2871.42,1498.24 2871.48,1497.7 2871.54,1497.16C2871.68,1495.93 2871.84,1494.71 2872.01,1493.49C2872.35,1491.05 2872.74,1488.61 2873.2,1486.19C2874.1,1481.34 2875.22,1476.53 2876.57,1471.79C2877.22,1469.48 2877.92,1467.19 2878.68,1464.92C2879.05,1463.81 2879.42,1462.71 2879.81,1461.62C2880,1461.1 2880.19,1460.59 2880.37,1460.07C2880.83,1458.82 2880.13,1460.7 2880.43,1459.93C2880.55,1459.61 2880.67,1459.29 2880.79,1458.97C2882.56,1454.37 2884.55,1449.86 2886.74,1445.44C2888.92,1441.07 2891.28,1436.78 2893.88,1432.65C2894.51,1431.63 2895.16,1430.63 2895.83,1429.64C2896.15,1429.17 2896.46,1428.7 2896.79,1428.24C2896.2,1429.08 2896.75,1428.3 2896.9,1428.09C2897.11,1427.8 2897.32,1427.52 2897.53,1427.24C2899.03,1425.2 2900.62,1423.22 2902.32,1421.34C2904,1419.48 2905.79,1417.72 2907.68,1416.07C2907.84,1415.92 2908.43,1415.47 2907.63,1416.11C2907.84,1415.94 2908.05,1415.76 2908.27,1415.59C2908.75,1415.2 2909.25,1414.82 2909.74,1414.45C2910.79,1413.68 2911.88,1412.94 2912.99,1412.26C2913.93,1411.68 2914.88,1411.14 2915.86,1410.64C2916.17,1410.49 2916.48,1410.34 2916.79,1410.18C2917.47,1409.84 2915.98,1410.52 2916.69,1410.23C2917.33,1409.97 2917.96,1409.69 2918.61,1409.45C2919.55,1409.09 2920.51,1408.77 2921.48,1408.51C2921.92,1408.39 2922.36,1408.28 2922.81,1408.18C2923.09,1408.12 2923.37,1408.06 2923.65,1408C2924.67,1407.8 2923.62,1407.84 2923.5,1408.02C2923.61,1407.87 2924.83,1407.84 2925.04,1407.82C2925.56,1407.76 2926.07,1407.72 2926.59,1407.69C2927.63,1407.63 2928.67,1407.62 2929.71,1407.65C2930.23,1407.67 2930.74,1407.71 2931.26,1407.74C2931.95,1407.78 2930.3,1407.62 2930.99,1407.71C2931.27,1407.75 2931.56,1407.78 2931.84,1407.82C2932.87,1407.96 2933.88,1408.16 2934.89,1408.39C2935.83,1408.62 2936.76,1408.89 2937.67,1409.2C2937.84,1409.26 2938.56,1409.49 2937.86,1409.26C2937.07,1408.99 2938.11,1409.36 2938.21,1409.4C2938.72,1409.61 2939.24,1409.84 2939.74,1410.08C2940.54,1410.47 2941.33,1410.89 2942.09,1411.36C2942.32,1411.5 2942.55,1411.65 2942.79,1411.8C2942.95,1411.9 2943.54,1412.34 2942.94,1411.89C2942.26,1411.39 2943.13,1412.05 2943.21,1412.11C2943.43,1412.27 2943.64,1412.44 2943.86,1412.62C2944.57,1413.21 2945.26,1413.84 2945.9,1414.51C2946.05,1414.67 2946.19,1414.83 2946.34,1414.99C2947.01,1415.69 2946.11,1414.76 2946.14,1414.74C2946.18,1414.71 2947.05,1415.93 2947.13,1416.05C2947.7,1416.87 2948.18,1417.73 2948.65,1418.61C2948.84,1418.97 2948.8,1419.34 2948.51,1418.3C2948.57,1418.5 2948.7,1418.73 2948.78,1418.93C2949.03,1419.55 2949.25,1420.19 2949.44,1420.84C2949.62,1421.42 2949.76,1422 2949.89,1422.59C2949.93,1422.76 2950.09,1423.6 2949.96,1422.9C2949.81,1422.07 2950.02,1423.36 2950.03,1423.41C2950.17,1424.59 2950.23,1425.78 2950.21,1426.97C2950.2,1427.51 2950.17,1428.04 2950.14,1428.57C2950.1,1429.5 2950.15,1428.64 2950.16,1428.47C2950.14,1428.8 2950.09,1429.14 2950.04,1429.47C2949.87,1430.75 2949.62,1432.02 2949.32,1433.27C2949.06,1434.35 2948.77,1435.41 2948.44,1436.47C2948.25,1437.07 2948.05,1437.66 2947.85,1438.26C2947.73,1438.59 2947.62,1438.92 2947.5,1439.25C2947.74,1438.58 2947.59,1438.99 2947.43,1439.41C2946.52,1441.76 2945.49,1444.06 2944.4,1446.33C2942.08,1451.17 2939.61,1455.95 2937.11,1460.69C2932.02,1470.34 2926.62,1479.84 2920.88,1489.12C2917.98,1493.83 2914.98,1498.48 2911.9,1503.08C2910.4,1505.31 2908.87,1507.52 2907.34,1509.73C2906.83,1510.46 2908.01,1508.79 2907.16,1509.99C2906.98,1510.25 2906.8,1510.5 2906.62,1510.75C2906.27,1511.25 2905.91,1511.75 2905.56,1512.25C2904.71,1513.44 2903.85,1514.62 2902.99,1515.8C2901.4,1517.97 2899.79,1520.12 2898.16,1522.26C2900.64,1524.53 2903.12,1526.8 2905.61,1529.08C2913.95,1517.53 2922.47,1505.99 2932.61,1495.95C2933.72,1494.85 2934.85,1493.76 2936,1492.7C2936.63,1492.13 2937.26,1491.56 2937.9,1491C2938.22,1490.72 2938.54,1490.44 2938.86,1490.16C2939.07,1489.98 2939.29,1489.8 2939.5,1489.62C2939.04,1490 2939.03,1490.01 2939.47,1489.65C2942.2,1487.44 2944.98,1485.33 2947.92,1483.41C2950.73,1481.58 2953.65,1479.97 2956.66,1478.48C2957.92,1477.85 2955.66,1478.91 2956.95,1478.34C2957.33,1478.17 2957.71,1478 2958.1,1477.83C2958.87,1477.5 2959.65,1477.18 2960.44,1476.87C2962.09,1476.23 2963.77,1475.64 2965.47,1475.15C2965.83,1475.04 2969.04,1474.27 2969.05,1474.31C2969.05,1474.35 2967.82,1474.49 2969.05,1474.32C2969.39,1474.27 2969.73,1474.23 2970.06,1474.19C2970.85,1474.11 2971.64,1474.05 2972.43,1474.03C2973.11,1474 2973.78,1474 2974.45,1474.03C2974.79,1474.04 2975.12,1474.07 2975.45,1474.09C2976.61,1474.15 2974.32,1473.91 2975.46,1474.09C2976.1,1474.2 2976.74,1474.29 2977.38,1474.43C2977.69,1474.5 2978,1474.58 2978.31,1474.66C2978.56,1474.74 2979.26,1475.1 2979.51,1475.04C2979.3,1474.97 2979.09,1474.89 2978.88,1474.81C2979.07,1474.89 2979.26,1474.97 2979.45,1475.05C2979.69,1475.16 2979.92,1475.27 2980.15,1475.39C2980.56,1475.6 2981.15,1476.14 2981.59,1476.23C2981.4,1476.1 2981.22,1475.97 2981.03,1475.84C2981.19,1475.96 2981.35,1476.09 2981.5,1476.22C2981.74,1476.41 2981.97,1476.61 2982.19,1476.82C2982.33,1476.96 2982.65,1477.42 2982.82,1477.48C2982.32,1476.87 2982.23,1476.77 2982.57,1477.19C2982.69,1477.36 2982.82,1477.53 2982.93,1477.7C2983.11,1477.97 2983.28,1478.24 2983.44,1478.51C2983.49,1478.61 2983.54,1478.7 2983.59,1478.8C2983.85,1479.31 2983.81,1479.21 2983.48,1478.51C2983.63,1478.49 2984.07,1480.22 2984.11,1480.41C2984.14,1480.51 2984.16,1480.62 2984.19,1480.73C2984.29,1481.28 2984.27,1481.16 2984.13,1480.36C2984.06,1480.42 2984.21,1481.21 2984.21,1481.33C2984.23,1481.65 2984.23,1481.98 2984.22,1482.3C2984.22,1482.52 2984.21,1482.73 2984.19,1482.95C2984.27,1482.19 2984.28,1482.08 2984.21,1482.62C2984.09,1483.28 2983.98,1483.93 2983.8,1484.58C2983.74,1484.79 2983.68,1485.01 2983.61,1485.22C2983.57,1485.33 2983.54,1485.44 2983.5,1485.55C2983.32,1486.06 2983.36,1485.98 2983.6,1485.3C2983.59,1485.86 2982.99,1486.72 2982.74,1487.22C2982.36,1487.96 2981.94,1488.69 2981.5,1489.4C2981.31,1489.71 2981.1,1490.01 2980.9,1490.32C2980.22,1491.37 2981.57,1489.47 2980.79,1490.47C2980.34,1491.05 2979.89,1491.64 2979.42,1492.22C2978.39,1493.45 2977.3,1494.62 2976.15,1495.73C2975.12,1496.73 2974.05,1497.66 2972.97,1498.58C2973.79,1497.88 2972.62,1498.88 2972.55,1498.94C2972.19,1499.23 2971.83,1499.53 2971.47,1499.82C2970.63,1500.51 2969.78,1501.18 2968.92,1501.85C2965.87,1504.23 2962.72,1506.5 2959.5,1508.65C2956.02,1510.98 2952.45,1513.16 2948.8,1515.21C2946.9,1516.27 2944.99,1517.29 2943.05,1518.27C2942.09,1518.76 2941.11,1519.24 2940.14,1519.71C2939.72,1519.91 2939.3,1520.11 2938.88,1520.31C2938.33,1520.56 2938.31,1520.57 2938.84,1520.33C2938.56,1520.45 2938.28,1520.58 2937.99,1520.71C2930.22,1524.23 2922.18,1527.1 2913.95,1529.33C2911.4,1530.02 2909.72,1533.14 2910.62,1535.65C2911.57,1538.3 2914.2,1539.71 2916.94,1538.97C2932.69,1534.71 2947.85,1528.03 2961.64,1519.31C2968.67,1514.86 2975.34,1509.85 2981.61,1504.38C2986.74,1499.9 2991.15,1494.35 2993.34,1487.83C2995.57,1481.18 2993.84,1473.32 2988.32,1468.77C2983.19,1464.54 2976.21,1463.4 2969.74,1464.1C2962.47,1464.89 2955.6,1467.65 2949.15,1471C2942.41,1474.5 2936.31,1479.04 2930.61,1484.04C2919.4,1493.87 2910.2,1505.76 2901.43,1517.74C2900.34,1519.25 2899.25,1520.75 2898.16,1522.26C2896.61,1524.39 2896.22,1527.5 2898.47,1529.39C2900.41,1531.02 2903.89,1531.32 2905.61,1529.08C2919.62,1510.71 2932.08,1491.18 2943.11,1470.89C2945.82,1465.89 2948.45,1460.84 2951,1455.76C2953.52,1450.73 2955.93,1445.67 2957.75,1440.35C2961.13,1430.51 2961.76,1418.83 2955.25,1410.07C2949.38,1402.17 2940.05,1398.24 2930.42,1397.61C2920.4,1396.95 2910.58,1400.88 2902.82,1407.08C2894.21,1413.96 2887.73,1422.91 2882.27,1432.4C2877.03,1441.51 2872.78,1451.14 2869.37,1461.07C2862.68,1480.56 2859.7,1501.43 2860.69,1522.01C2860.8,1524.47 2860.98,1526.93 2861.21,1529.38C2861.46,1532.01 2863.59,1534.49 2866.42,1534.27C2869.01,1534.07 2871.57,1531.88 2871.31,1529.07Z" style="fill:rgb(26,57,102);fill-rule:nonzero;"/>
            </g>
            <g transform="matrix(1,0,0,1,-462.447,269.471)">
                <path d="M2841.74,1547.71C2833.19,1548.01 2824.63,1547.89 2816.09,1547.32C2813.99,1547.18 2811.9,1547.01 2809.81,1546.82C2809.55,1546.79 2808.1,1546.65 2809.02,1546.75C2808.56,1546.7 2808.09,1546.65 2807.63,1546.6C2806.47,1546.48 2805.31,1546.35 2804.15,1546.21C2799.98,1545.7 2795.83,1545.1 2791.69,1544.38C2784.04,1543.07 2776.41,1541.47 2769.02,1539.07C2768.18,1538.79 2767.35,1538.51 2766.51,1538.21C2766.26,1538.12 2766,1538.03 2765.75,1537.94C2765.66,1537.91 2765.02,1537.66 2765.59,1537.88C2766.16,1538.1 2765.52,1537.85 2765.43,1537.82C2765.18,1537.72 2764.93,1537.62 2764.68,1537.52C2762.92,1536.83 2761.19,1536.07 2759.49,1535.25C2757.86,1534.46 2756.26,1533.62 2754.7,1532.7C2753.95,1532.26 2753.21,1531.8 2752.48,1531.33C2752.09,1531.07 2751.71,1530.81 2751.32,1530.55C2750.84,1530.24 2751.51,1530.69 2751.55,1530.72C2751.28,1530.52 2751.01,1530.33 2750.74,1530.13C2749.28,1529.06 2747.88,1527.91 2746.54,1526.69C2745.95,1526.14 2745.37,1525.59 2744.81,1525.01C2744.53,1524.72 2744.27,1524.42 2743.99,1524.12C2743.9,1524.02 2743.48,1523.6 2743.96,1524.1C2744.52,1524.67 2743.77,1523.86 2743.71,1523.79C2742.73,1522.55 2741.84,1521.23 2741.06,1519.85C2740.86,1519.5 2740.66,1519.14 2740.48,1518.77C2740.4,1518.62 2740.32,1518.46 2740.24,1518.3C2739.98,1517.79 2740.45,1518.75 2740.45,1518.75C2740.27,1517.99 2739.82,1517.24 2739.58,1516.5C2739.33,1515.75 2739.15,1514.99 2738.96,1514.23C2738.73,1513.29 2739.06,1515.21 2738.96,1514.26C2738.91,1513.82 2738.86,1513.39 2738.83,1512.96C2738.81,1512.63 2738.8,1512.31 2738.8,1511.99C2738.8,1511.77 2738.82,1511.56 2738.82,1511.34C2738.82,1510.98 2739.01,1510.98 2738.8,1511.36C2738.59,1511.73 2738.74,1511.72 2738.8,1511.37C2738.84,1511.16 2738.86,1510.95 2738.9,1510.74C2738.97,1510.37 2739.05,1510.01 2739.15,1509.65C2739.19,1509.5 2739.24,1509.34 2739.29,1509.19C2739.53,1508.27 2739.21,1509.51 2739.16,1509.49C2739.14,1509.48 2739.52,1508.67 2739.55,1508.59C2739.73,1508.25 2739.91,1507.91 2740.12,1507.58C2740.2,1507.44 2740.29,1507.29 2740.39,1507.15C2740.01,1507.74 2740.22,1507.4 2740.52,1507.05C2740.79,1506.73 2741.07,1506.42 2741.37,1506.13C2741.51,1505.99 2741.68,1505.85 2741.82,1505.7C2741.16,1506.39 2741.56,1505.9 2741.78,1505.74C2742.57,1505.16 2743.37,1504.62 2744.24,1504.15C2744.42,1504.05 2744.62,1503.97 2744.8,1503.86C2745.46,1503.48 2744,1504.17 2744.71,1503.9C2745.11,1503.75 2745.49,1503.58 2745.88,1503.43C2746.85,1503.07 2747.84,1502.77 2748.84,1502.53C2749.23,1502.43 2749.63,1502.35 2750.03,1502.26C2750.95,1502.06 2749.18,1502.36 2750.49,1502.18C2751.43,1502.05 2752.37,1501.97 2753.31,1501.93C2754.19,1501.89 2755.07,1501.89 2755.94,1501.91C2756.42,1501.93 2756.89,1501.96 2757.37,1501.99C2757.57,1502 2757.77,1502.02 2757.98,1502.04C2757.55,1502.01 2757.35,1501.96 2757.9,1502.03C2759.82,1502.28 2761.72,1502.62 2763.6,1503.08C2765.44,1503.53 2767.26,1504.08 2769.05,1504.69C2769.52,1504.85 2769.99,1505.01 2770.45,1505.18C2771.36,1505.5 2769.94,1504.97 2770.83,1505.32C2771.76,1505.69 2772.68,1506.05 2773.59,1506.44C2777.3,1507.99 2780.92,1509.75 2784.53,1511.53C2799.76,1519.09 2814.44,1527.77 2828.4,1537.48C2828.59,1537.61 2828.78,1537.74 2828.97,1537.87C2829,1537.9 2829.63,1538.34 2829.2,1538.04C2828.72,1537.7 2829.51,1538.26 2829.62,1538.33C2829.81,1538.47 2830,1538.6 2830.18,1538.73C2831.07,1539.36 2831.95,1539.99 2832.82,1540.63C2834.96,1542.17 2838.07,1542.57 2839.96,1540.31C2841.55,1538.41 2841.93,1534.83 2839.64,1533.18C2824.95,1522.54 2809.52,1512.97 2793.37,1504.69C2778.68,1497.15 2761.18,1488.09 2744.27,1493.32C2739.91,1494.67 2735.53,1497.06 2732.68,1500.71C2730.07,1504.07 2728.72,1508.05 2728.71,1512.31C2728.69,1519.89 2732.87,1527.13 2737.99,1532.46C2743.5,1538.19 2750.65,1542.5 2757.91,1545.61C2765.38,1548.8 2773.22,1551 2781.16,1552.65C2798.92,1556.36 2817.15,1558.12 2835.29,1557.96C2837.55,1557.94 2839.8,1557.89 2842.06,1557.81C2844.69,1557.71 2847.15,1555.32 2846.94,1552.6C2846.74,1549.88 2844.56,1547.61 2841.74,1547.71Z" style="fill:rgb(26,57,102);fill-rule:nonzero;"/>
            </g>
            <g transform="matrix(1,0,0,1,-462.447,269.471)">
                <path d="M2693.79,1593.47C2694.98,1601.58 2702.32,1607.34 2710.48,1606.53L3028.04,1575.3C3034.98,1574.62 3044.79,1573.84 3047.81,1566.33C3048.89,1563.66 3049.09,1560.72 3049.19,1557.84C3049.51,1548.5 3048.8,1539.17 3047.85,1529.89C3047.26,1524.17 3048.11,1513.33 3039.46,1513.86C2923,1521.07 2814.33,1534.41 2699.59,1554.03C2695.46,1554.74 2692.24,1558.1 2691.83,1562.26C2690.84,1572.39 2692.17,1582.39 2693.79,1593.47Z" style="fill:rgb(242,107,96);fill-rule:nonzero;"/>
            </g>
            <g transform="matrix(1,0,0,1,-462.447,269.471)">
                <path d="M2860.46,1543.74C2859.97,1543.4 2859.47,1543.06 2858.98,1542.72C2858.73,1542.55 2858.48,1542.38 2858.24,1542.2C2858.28,1542.23 2857.07,1541.39 2857.66,1541.8C2858.14,1542.14 2857.37,1541.6 2857.26,1541.52C2857.02,1541.35 2856.77,1541.18 2856.53,1541C2855.98,1540.61 2855.43,1540.21 2854.88,1539.82C2852.81,1538.32 2850.77,1536.8 2848.74,1535.25C2844.68,1532.14 2840.71,1528.94 2836.82,1525.62C2829,1518.95 2821.53,1511.85 2814.46,1504.38C2810.95,1500.67 2807.54,1496.87 2804.23,1492.98C2804.14,1492.87 2803.53,1492.15 2803.92,1492.62C2804.32,1493.09 2803.71,1492.36 2803.62,1492.26C2803.23,1491.8 2802.85,1491.33 2802.47,1490.87C2801.59,1489.81 2800.72,1488.74 2799.86,1487.66C2798.22,1485.58 2796.62,1483.47 2795.1,1481.3C2793.58,1479.14 2792.14,1476.92 2790.83,1474.62C2790.18,1473.49 2789.55,1472.33 2788.97,1471.16C2788.83,1470.89 2788.7,1470.61 2788.56,1470.33C2788.48,1470.16 2788.15,1469.42 2788.55,1470.31C2788.27,1469.68 2787.99,1469.06 2787.73,1468.42C2786.76,1466.03 2785.95,1463.57 2785.38,1461.06C2785.24,1460.47 2785.13,1459.87 2785.01,1459.28C2784.84,1458.41 2785.15,1460.49 2784.98,1459.04C2784.94,1458.74 2784.9,1458.44 2784.86,1458.13C2784.71,1456.88 2784.63,1455.63 2784.61,1454.37C2784.6,1453.82 2784.6,1453.27 2784.62,1452.73C2784.64,1452.41 2784.84,1450.62 2784.67,1451.78C2784.84,1450.63 2785.01,1449.5 2785.31,1448.37C2785.38,1448.13 2785.99,1446.34 2785.55,1447.46C2785.75,1446.96 2785.97,1446.46 2786.21,1445.98C2786.45,1445.49 2786.71,1445.02 2786.99,1444.56C2787.05,1444.47 2787.37,1443.92 2787.4,1443.93C2787.33,1443.91 2786.75,1444.79 2787.43,1443.95C2787.77,1443.52 2788.14,1443.11 2788.52,1442.72C2788.77,1442.46 2789.46,1442.04 2789.59,1441.72C2789.54,1441.85 2788.68,1442.41 2789.44,1441.87C2789.64,1441.73 2789.83,1441.58 2790.03,1441.44C2790.48,1441.12 2790.95,1440.83 2791.42,1440.55C2791.83,1440.31 2792.54,1440.1 2792.89,1439.78C2792.78,1439.88 2791.8,1440.23 2792.68,1439.89C2792.91,1439.8 2793.13,1439.71 2793.37,1439.62C2794.42,1439.22 2795.5,1438.9 2796.59,1438.66C2796.72,1438.63 2797.29,1438.56 2797.33,1438.51C2797.28,1438.57 2796.1,1438.68 2797.11,1438.55C2797.61,1438.49 2798.11,1438.43 2798.61,1438.38C2799.74,1438.29 2800.88,1438.28 2802.01,1438.34C2802.1,1438.34 2802.75,1438.37 2802.76,1438.39C2802.76,1438.41 2801.52,1438.22 2802.57,1438.38C2803.08,1438.46 2803.58,1438.53 2804.08,1438.63C2805.26,1438.85 2806.42,1439.15 2807.57,1439.52C2807.87,1439.62 2809.3,1440.16 2808.24,1439.73C2808.73,1439.93 2809.23,1440.12 2809.71,1440.34C2810.82,1440.82 2811.89,1441.36 2812.95,1441.94C2813.89,1442.46 2814.81,1443.02 2815.71,1443.6C2816.16,1443.89 2816.61,1444.2 2817.05,1444.5C2816.2,1443.92 2816.81,1444.33 2816.99,1444.46C2817.31,1444.7 2817.64,1444.94 2817.96,1445.19C2821.69,1448.01 2825.11,1451.24 2828.33,1454.63C2829.09,1455.44 2829.85,1456.26 2830.59,1457.09C2830.96,1457.51 2831.32,1457.93 2831.68,1458.35C2831.87,1458.56 2832.05,1458.77 2832.23,1458.98C2831.45,1458.07 2832.36,1459.15 2832.45,1459.26C2833.95,1461.09 2835.38,1462.96 2836.75,1464.87C2839.51,1468.71 2842.01,1472.71 2844.29,1476.85C2845.43,1478.92 2846.52,1481.03 2847.55,1483.16C2847.79,1483.66 2848.04,1484.16 2848.26,1484.67C2847.78,1483.57 2848.43,1485.05 2848.57,1485.35C2849.08,1486.5 2849.59,1487.66 2850.07,1488.82C2853.78,1497.7 2856.61,1506.93 2858.74,1516.3C2859.28,1518.66 2859.78,1521.03 2860.23,1523.41C2860.44,1524.53 2860.65,1525.65 2860.84,1526.77C2860.89,1527.05 2860.94,1527.34 2860.99,1527.62C2860.8,1526.51 2860.96,1527.48 2861.01,1527.76C2861.11,1528.39 2861.21,1529.02 2861.31,1529.66C2862.05,1534.43 2862.63,1539.23 2863.07,1544.05C2863.3,1546.44 2863.48,1548.83 2863.64,1551.23C2863.81,1553.86 2866.06,1556.33 2868.84,1556.12C2871.5,1555.91 2873.92,1553.73 2873.73,1550.91C2872.39,1530.42 2868.87,1509.79 2861.58,1490.53C2854.41,1471.56 2843.46,1453.58 2827.94,1440.29C2820.17,1433.64 2810.69,1428.15 2800.18,1428.21C2795.07,1428.24 2789.85,1429.64 2785.5,1432.33C2780.78,1435.25 2777.56,1439.69 2775.82,1444.92C2774.05,1450.27 2774.31,1456.11 2775.25,1461.59C2776.23,1467.32 2778.4,1472.72 2781.09,1477.84C2786.29,1487.71 2793.74,1496.36 2801.1,1504.68C2815.27,1520.71 2831.24,1535.16 2848.61,1547.66C2850.97,1549.36 2853.35,1551.03 2855.76,1552.67C2857.95,1554.17 2861.5,1552.83 2862.58,1550.56C2863.86,1547.85 2862.8,1545.33 2860.46,1543.74Z" style="fill:rgb(26,57,102);fill-rule:nonzero;"/>
            </g>
            <g transform="matrix(1,0,0,1,-462.447,269.471)">
                <path d="M2968.6,1684.64C2965.68,1688.8 2968.18,1695.56 2973.1,1696.83C2978.02,1698.09 2983.47,1693.37 2982.92,1688.32C2982.37,1683.27 2973.68,1677.39 2968.6,1684.64Z" style="fill:white;fill-rule:nonzero;"/>
            </g>
            <g transform="matrix(1,0,0,1,-462.447,269.471)">
                <path d="M3027.01,1679.67C3024.09,1683.83 3026.58,1690.59 3031.51,1691.85C3036.43,1693.12 3041.88,1688.4 3041.32,1683.35C3040.77,1678.29 3032.09,1672.42 3027.01,1679.67Z" style="fill:white;fill-rule:nonzero;"/>
            </g>
            <g transform="matrix(1,0,0,1,-462.447,269.471)">
                <path d="M2907.62,1689.83C2904.7,1694 2907.2,1700.75 2912.12,1702.02C2917.04,1703.28 2922.49,1698.57 2921.94,1693.51C2921.39,1688.46 2912.7,1682.58 2907.62,1689.83Z" style="fill:white;fill-rule:nonzero;"/>
            </g>
            <g transform="matrix(1,0,0,1,-462.447,269.471)">
                <path d="M2787.87,1699.74C2784.95,1703.91 2787.44,1710.66 2792.37,1711.93C2797.29,1713.19 2802.73,1708.48 2802.18,1703.42C2801.63,1698.37 2792.95,1692.49 2787.87,1699.74Z" style="fill:white;fill-rule:nonzero;"/>
            </g>
            <g transform="matrix(1,0,0,1,-462.447,269.471)">
                <path d="M2729.75,1703.45C2726.83,1707.62 2729.33,1714.37 2734.25,1715.64C2739.18,1716.9 2744.62,1712.19 2744.07,1707.13C2743.52,1702.08 2734.83,1696.2 2729.75,1703.45Z" style="fill:white;fill-rule:nonzero;"/>
            </g>
            <g transform="matrix(1,0,0,1,-462.447,269.471)">
                <path d="M2846.23,1696.72C2843.31,1700.88 2845.81,1707.63 2850.73,1708.9C2855.65,1710.16 2861.1,1705.45 2860.55,1700.39C2859.99,1695.34 2851.31,1689.46 2846.23,1696.72Z" style="fill:white;fill-rule:nonzero;"/>
            </g>
            <g transform="matrix(1,0,0,1,-462.447,269.471)">
                <path d="M2730.49,1755.5C2734.94,1751.82 2739.4,1748.13 2743.85,1744.44C2746.92,1741.9 2749.99,1739.36 2753.05,1736.82C2754.02,1736.03 2754.98,1735.23 2755.94,1734.43C2756.2,1734.22 2756.46,1733.99 2756.72,1733.79C2756.79,1733.74 2756.85,1733.68 2756.91,1733.63C2756.93,1733.62 2756.94,1733.61 2756.95,1733.6C2756.55,1733.88 2757.15,1733.5 2757.21,1733.47C2759.01,1732.84 2761.05,1734.48 2762.59,1735.27C2765.85,1736.96 2769.1,1738.64 2772.36,1740.32C2778.41,1743.45 2784.44,1746.61 2790.51,1749.7C2793.77,1751.37 2796.93,1751.01 2799.72,1748.63C2801.89,1746.78 2804.02,1744.9 2806.17,1743.04C2809.39,1740.25 2812.6,1737.46 2815.82,1734.67C2817.73,1733.02 2819.58,1731.14 2821.62,1729.64C2823.32,1728.4 2825,1729.92 2826.47,1730.82C2829.56,1732.73 2832.66,1734.63 2835.76,1736.53C2839.2,1738.65 2842.63,1740.76 2846.07,1742.87C2847.89,1743.99 2849.75,1745.43 2851.77,1746.19C2854.41,1747.18 2857.15,1746.45 2859.24,1744.67C2859.86,1744.13 2860.47,1743.57 2861.08,1743.02C2863.85,1740.56 2866.62,1738.09 2869.38,1735.62C2872.29,1733.02 2875.2,1730.43 2878.11,1727.83C2879.4,1726.68 2881.05,1724.45 2883.02,1725.18C2884.84,1725.85 2886.6,1727 2888.33,1727.88C2891.88,1729.67 2895.43,1731.47 2898.97,1733.27C2904.46,1736.05 2909.9,1738.95 2915.44,1741.62C2917.83,1742.76 2920.65,1742.86 2922.91,1741.32C2923.59,1740.86 2924.19,1740.29 2924.81,1739.76C2927.29,1737.59 2929.78,1735.42 2932.27,1733.25C2935.4,1730.53 2938.52,1727.81 2941.65,1725.09C2943.2,1723.74 2944.74,1722 2946.48,1720.88C2946.78,1720.68 2947.15,1720.52 2947.52,1720.48C2947.71,1720.46 2948.81,1720.67 2948.43,1720.54C2948.59,1720.6 2948.75,1720.69 2948.91,1720.76C2949.73,1721.11 2950.55,1721.49 2951.37,1721.85C2954.49,1723.25 2957.61,1724.64 2960.73,1726.03C2967.86,1729.21 2975,1732.39 2982.13,1735.57C2983.88,1736.34 2985.83,1737.48 2987.72,1737.79C2991.42,1738.38 2993.75,1736.03 2996.22,1733.82C3001.92,1728.74 3007.61,1723.65 3013.31,1718.57C3014.67,1717.35 3016.07,1715.43 3018.09,1716.44C3020.03,1717.41 3021.88,1718.67 3023.74,1719.77C3030.59,1723.8 3037.43,1727.83 3044.27,1731.86C3045.69,1732.7 3047.11,1733.53 3048.53,1734.37C3051.34,1736.02 3053.88,1731.66 3051.08,1730.01C3046.08,1727.07 3041.09,1724.13 3036.1,1721.19C3030.94,1718.15 3025.85,1714.9 3020.59,1712.05C3017.73,1710.51 3014.5,1710.87 3012.02,1712.96C3011.59,1713.32 3011.18,1713.71 3010.76,1714.09C3008.14,1716.42 3005.52,1718.76 3002.9,1721.1C2999.88,1723.8 2996.87,1726.49 2993.85,1729.18C2992.46,1730.42 2990.62,1732.88 2988.58,1732.85C2988.32,1732.84 2987.72,1732.56 2987.11,1732.29C2986.08,1731.83 2985.05,1731.37 2984.03,1730.92C2980.62,1729.4 2977.22,1727.88 2973.82,1726.37C2966.97,1723.31 2960.13,1720.26 2953.28,1717.21C2950.47,1715.96 2947.77,1714.69 2944.66,1716.15C2942.58,1717.12 2940.75,1719.19 2939.05,1720.67C2933.31,1725.67 2927.57,1730.67 2921.83,1735.66C2920.56,1736.77 2919.53,1737.96 2917.7,1737.11C2915.4,1736.04 2913.15,1734.8 2910.89,1733.66C2903.8,1730.06 2896.72,1726.47 2889.63,1722.88C2887.86,1721.98 2885.98,1720.75 2884.04,1720.21C2880.2,1719.13 2877.59,1721.54 2875.01,1723.84C2869.33,1728.91 2863.64,1733.98 2857.96,1739.05C2856.54,1740.32 2855.09,1742.32 2853,1741.21C2850.88,1740.08 2848.87,1738.67 2846.83,1737.41C2840.52,1733.53 2834.21,1729.65 2827.9,1725.77C2827.07,1725.27 2826.28,1724.74 2825.35,1724.44C2822.76,1723.58 2820.18,1724.3 2818.13,1726C2816.21,1727.6 2814.35,1729.28 2812.46,1730.92C2807.05,1735.61 2801.72,1740.41 2796.22,1745C2794.76,1746.22 2793.57,1745.61 2792.11,1744.85C2789.26,1743.38 2786.41,1741.91 2783.57,1740.44C2776.87,1736.98 2770.18,1733.52 2763.48,1730.06C2762.87,1729.74 2762.26,1729.41 2761.64,1729.11C2759.11,1727.89 2756.22,1727.92 2753.9,1729.62C2752.31,1730.79 2750.82,1732.14 2749.3,1733.4C2743.2,1738.45 2737.11,1743.5 2731.01,1748.55C2729.65,1749.68 2728.28,1750.8 2726.92,1751.93C2725.87,1752.8 2726.02,1754.6 2726.92,1755.5C2727.96,1756.54 2729.44,1756.37 2730.49,1755.5Z" style="fill:white;fill-rule:nonzero;"/>
            </g>
            <g transform="matrix(1,0,0,1,-462.447,269.471)">
                <path d="M2723.06,1673.42C2727.51,1669.73 2731.97,1666.05 2736.42,1662.36C2739.49,1659.82 2742.56,1657.28 2745.62,1654.74C2746.59,1653.94 2747.55,1653.15 2748.51,1652.35C2748.77,1652.13 2749.03,1651.91 2749.29,1651.7C2749.36,1651.65 2749.42,1651.59 2749.48,1651.54C2749.5,1651.54 2749.51,1651.52 2749.52,1651.51C2749.12,1651.79 2749.72,1651.41 2749.78,1651.39C2751.58,1650.76 2753.62,1652.4 2755.16,1653.19C2758.42,1654.87 2761.67,1656.56 2764.93,1658.24C2770.98,1661.37 2777.01,1664.53 2783.08,1667.62C2786.34,1669.28 2789.5,1668.93 2792.29,1666.55C2794.45,1664.7 2796.59,1662.82 2798.74,1660.95C2801.96,1658.17 2805.17,1655.38 2808.39,1652.59C2810.3,1650.93 2812.15,1649.05 2814.19,1647.56C2815.89,1646.31 2817.57,1647.84 2819.04,1648.74C2822.13,1650.64 2825.23,1652.55 2828.33,1654.45C2831.77,1656.56 2835.2,1658.68 2838.64,1660.79C2840.46,1661.91 2842.32,1663.35 2844.34,1664.11C2846.98,1665.1 2849.72,1664.36 2851.81,1662.58C2852.43,1662.05 2853.04,1661.49 2853.65,1660.94C2856.42,1658.47 2859.19,1656 2861.95,1653.54C2864.86,1650.94 2867.77,1648.35 2870.68,1645.75C2871.97,1644.6 2873.62,1642.37 2875.59,1643.1C2877.41,1643.77 2879.17,1644.91 2880.9,1645.79C2884.45,1647.59 2888,1649.39 2891.54,1651.18C2897.03,1653.96 2902.47,1656.86 2908.01,1659.53C2910.4,1660.68 2913.22,1660.78 2915.48,1659.24C2916.16,1658.78 2916.76,1658.21 2917.38,1657.67C2919.86,1655.51 2922.35,1653.34 2924.84,1651.17C2927.96,1648.45 2931.09,1645.73 2934.22,1643.01C2935.77,1641.65 2937.31,1639.92 2939.05,1638.8C2939.35,1638.6 2939.72,1638.44 2940.09,1638.4C2940.28,1638.37 2941.38,1638.59 2941,1638.46C2941.16,1638.52 2941.32,1638.61 2941.48,1638.68C2942.3,1639.03 2943.12,1639.41 2943.94,1639.77C2947.06,1641.16 2950.18,1642.55 2953.3,1643.94C2960.43,1647.12 2967.57,1650.3 2974.7,1653.48C2976.45,1654.26 2978.4,1655.4 2980.29,1655.71C2983.99,1656.3 2986.32,1653.94 2988.79,1651.74C2994.49,1646.65 3000.18,1641.57 3005.88,1636.49C3007.24,1635.27 3008.64,1633.35 3010.66,1634.36C3012.6,1635.33 3014.45,1636.59 3016.31,1637.69C3023.16,1641.72 3030,1645.75 3036.84,1649.78C3038.26,1650.61 3039.68,1651.45 3041.1,1652.29C3043.91,1653.94 3046.45,1649.58 3043.65,1647.93C3038.65,1644.98 3033.66,1642.04 3028.67,1639.1C3023.51,1636.07 3018.42,1632.82 3013.16,1629.97C3010.3,1628.42 3007.07,1628.78 3004.59,1630.88C3004.16,1631.24 3003.75,1631.63 3003.33,1632C3000.71,1634.34 2998.09,1636.68 2995.47,1639.02C2992.45,1641.71 2989.44,1644.41 2986.42,1647.1C2985.03,1648.34 2983.19,1650.79 2981.15,1650.76C2980.89,1650.76 2980.28,1650.48 2979.68,1650.2C2978.65,1649.75 2977.62,1649.29 2976.6,1648.83C2973.19,1647.32 2969.79,1645.8 2966.39,1644.28C2959.54,1641.23 2952.7,1638.18 2945.85,1635.13C2943.04,1633.88 2940.34,1632.6 2937.22,1634.06C2935.15,1635.03 2933.32,1637.11 2931.62,1638.59C2925.88,1643.59 2920.14,1648.58 2914.4,1653.58C2913.13,1654.69 2912.1,1655.88 2910.27,1655.03C2907.97,1653.95 2905.72,1652.72 2903.46,1651.57C2896.37,1647.98 2889.29,1644.39 2882.2,1640.8C2880.43,1639.9 2878.55,1638.67 2876.61,1638.12C2872.77,1637.05 2870.16,1639.46 2867.58,1641.76C2861.9,1646.83 2856.21,1651.9 2850.53,1656.97C2849.11,1658.24 2847.66,1660.24 2845.57,1659.12C2843.45,1657.99 2841.44,1656.59 2839.4,1655.33C2833.09,1651.45 2826.78,1647.57 2820.47,1643.69C2819.64,1643.19 2818.85,1642.66 2817.92,1642.35C2815.33,1641.5 2812.74,1642.22 2810.7,1643.92C2808.78,1645.52 2806.92,1647.2 2805.03,1648.83C2799.62,1653.52 2794.29,1658.33 2788.79,1662.91C2787.33,1664.13 2786.14,1663.52 2784.68,1662.77C2781.83,1661.3 2778.98,1659.83 2776.14,1658.36C2769.44,1654.9 2762.75,1651.44 2756.05,1647.97C2755.44,1647.66 2754.83,1647.32 2754.21,1647.02C2751.68,1645.8 2748.78,1645.84 2746.47,1647.54C2744.88,1648.71 2743.39,1650.06 2741.87,1651.32C2735.77,1656.37 2729.68,1661.42 2723.58,1666.46C2722.22,1667.59 2720.85,1668.72 2719.49,1669.85C2718.44,1670.72 2718.59,1672.52 2719.49,1673.42C2720.53,1674.46 2722.01,1674.29 2723.06,1673.42Z" style="fill:white;fill-rule:nonzero;"/>
            </g>
            <g transform="matrix(1,0,0,1,-462.447,269.471)">
                <path d="M2710.68,1609.28C2713.61,1608.99 2716.54,1608.71 2719.46,1608.42C2727.4,1607.64 2735.33,1606.86 2743.26,1606.08C2755.04,1604.92 2766.81,1603.76 2778.58,1602.6C2792.89,1601.2 2807.2,1599.79 2821.51,1598.38C2837.19,1596.84 2852.86,1595.3 2868.54,1593.76C2884.41,1592.2 2900.29,1590.63 2916.16,1589.07C2930.91,1587.62 2945.66,1586.17 2960.42,1584.72C2972.92,1583.49 2985.43,1582.26 2997.94,1581.03C3006.9,1580.15 3015.86,1579.27 3024.82,1578.39C3029.07,1577.97 3033.32,1577.57 3037.56,1577.13C3037.75,1577.11 3037.93,1577.1 3038.12,1577.08C3039.59,1576.93 3040.86,1575.92 3040.86,1574.33C3040.86,1572.96 3039.6,1571.44 3038.12,1571.58C3035.19,1571.87 3032.26,1572.16 3029.33,1572.45C3021.4,1573.23 3013.46,1574.01 3005.53,1574.79C2993.76,1575.95 2981.99,1577.1 2970.22,1578.26C2955.9,1579.67 2941.59,1581.08 2927.28,1582.49C2911.61,1584.03 2895.93,1585.57 2880.26,1587.11C2864.38,1588.67 2848.51,1590.23 2832.63,1591.79C2817.88,1593.24 2803.13,1594.7 2788.38,1596.15C2775.87,1597.38 2763.36,1598.61 2750.86,1599.84C2741.9,1600.72 2732.93,1601.6 2723.97,1602.48C2719.73,1602.9 2715.48,1603.3 2711.23,1603.73C2711.05,1603.75 2710.86,1603.77 2710.68,1603.79C2709.2,1603.93 2707.93,1604.95 2707.93,1606.53C2707.93,1607.91 2709.19,1609.43 2710.68,1609.28Z" style="fill:rgb(26,57,102);fill-rule:nonzero;"/>
            </g>
            <g transform="matrix(1,0,0,1,-462.447,269.471)">
                <path d="M2719.99,1313.33C2718.14,1315.02 2716.04,1316.5 2713.81,1317.7C2713.66,1318.16 2713.51,1318.63 2713.34,1319.09C2711.02,1325.57 2707.5,1330.47 2701.73,1334.19C2701.27,1334.49 2700.76,1334.77 2700.23,1335.03C2699.77,1336.86 2699.22,1338.68 2698.6,1340.48C2710.57,1334.73 2720.44,1325.23 2723.67,1312.85C2724.02,1311.51 2724.25,1310.16 2724.4,1308.8C2723.05,1310.37 2721.58,1311.89 2719.99,1313.33Z" style="fill:white;fill-rule:nonzero;"/>
            </g>
            <g transform="matrix(1,0,0,1,-462.447,269.471)">
                <path d="M2478.83,1672.2C2478.83,1627.6 2489.99,1576.99 2500.16,1519.38C2526.11,1425.29 2533.54,1392.78 2561.84,1323.17C2577.15,1298.13 2586.37,1292.77 2599.29,1304.5C2612.21,1316.23 2615.71,1316.51 2629.4,1339.26C2651.62,1340.93 2680.57,1337.58 2702.79,1339.26C2711.54,1330.5 2706.5,1335.14 2714.18,1322.89C2721.87,1310.63 2733.74,1296.4 2747.57,1300.65C2760.37,1304.59 2764.93,1311.19 2770.47,1323.38C2789.51,1365.26 2808.78,1419.37 2818.08,1463.44C2831.49,1527.01 2847.85,1579.21 2851.68,1652.46C2852.88,1675.41 2854.91,1692.85 2850.29,1715.37C2845.66,1737.89 2834.11,1771.37 2812.7,1779.75C2812.29,1784.68 2745.24,1815.57 2743.5,1808.63C2731.44,1814.2 2638.1,1817.61 2576.32,1801.47C2572.94,1804.85 2508.94,1783.6 2512.35,1773.71C2495.41,1756.77 2490.93,1744.18 2484.12,1726.05C2477.32,1707.93 2478.83,1691.56 2478.83,1672.2Z" style="fill:white;fill-rule:nonzero;"/>
            </g>
            <g transform="matrix(1,0,0,1,-462.447,269.471)">
                <path d="M2478.83,1672.2C2485.11,1612.06 2489.99,1576.99 2500.16,1519.38C2526.11,1425.29 2533.54,1392.78 2561.84,1323.17C2577.15,1298.13 2586.37,1292.77 2599.29,1304.5C2612.21,1316.23 2615.71,1316.51 2629.4,1339.26C2651.62,1340.93 2680.57,1337.58 2702.79,1339.26C2711.54,1330.5 2706.5,1335.14 2714.18,1322.89C2721.87,1310.63 2733.74,1296.4 2747.57,1300.65C2760.37,1304.59 2764.93,1311.19 2770.47,1323.38C2789.51,1365.26 2808.78,1419.37 2818.08,1463.44C2831.49,1527.01 2847.85,1579.21 2851.68,1652.46C2852.88,1675.41 2854.91,1692.85 2850.29,1715.37C2845.66,1737.89 2836.35,1759.35 2820.8,1773.56C2820.45,1777.76 2798.85,1816.74 2756.26,1825.73C2751.33,1826.77 2746.42,1828.23 2741.4,1827.81C2704.64,1824.78 2681.22,1810.63 2679.94,1811.15C2656.32,1820.71 2625.17,1816.68 2590.28,1810.03C2586.89,1813.41 2508.94,1783.6 2512.35,1773.71C2495.41,1756.77 2492.92,1761.81 2486.11,1743.68C2479.3,1725.56 2476.82,1691.46 2478.83,1672.2Z" style="fill:white;fill-rule:nonzero;"/>
            </g>
            <g transform="matrix(1,0,0,1,-462.447,269.471)">
                <path d="M2809.43,1786.05C2802.55,1796.12 2793.61,1805.42 2783.51,1812C2781.08,1813.59 2778.56,1815.05 2775.97,1816.38C2773.32,1817.74 2771.1,1818.72 2768.7,1819.64C2763.53,1821.63 2758.15,1823.08 2752.69,1824C2752.03,1824.11 2751.36,1824.21 2750.7,1824.31C2750.54,1824.34 2750.37,1824.36 2750.2,1824.38C2750.73,1824.31 2750.29,1824.37 2750.18,1824.38C2749.77,1824.44 2749.35,1824.49 2748.94,1824.54C2747.6,1824.69 2746.26,1824.81 2744.92,1824.91C2742.09,1825.1 2739.25,1825.16 2736.42,1825.1C2733.59,1825.04 2730.77,1824.85 2727.97,1824.54C2727.28,1824.47 2726.59,1824.39 2725.91,1824.3C2725.26,1824.22 2726,1824.32 2725.35,1824.22C2724.96,1824.17 2724.58,1824.11 2724.19,1824.05C2722.77,1823.84 2721.35,1823.59 2719.94,1823.32C2714.12,1822.19 2708.4,1820.59 2702.81,1818.6C2697.01,1816.54 2692.06,1814.36 2686.46,1811.46C2674.99,1805.52 2664.52,1798.21 2654.99,1789.85C2644.83,1780.94 2635.57,1770.73 2627.78,1759.96C2619.57,1748.58 2612.45,1736.01 2607.1,1723.25C2601.4,1709.66 2597.36,1695.37 2595.14,1680.8C2592.85,1665.76 2592.69,1650.04 2594.38,1634.76C2596.41,1616.45 2602.19,1598.46 2610.9,1582.25C2619.65,1565.95 2631.48,1551.17 2646.16,1539.82C2652.27,1535.09 2658.91,1530.76 2666.03,1527.7C2668.65,1526.57 2672.16,1525.36 2675.23,1524.51C2678.54,1523.59 2681.91,1522.88 2685.31,1522.38C2691.56,1521.46 2698.84,1521.32 2705.49,1522.02C2711.57,1522.67 2718.67,1524.38 2724.47,1526.84C2736.23,1531.83 2746.12,1540.9 2750.61,1552.89C2751.23,1554.55 2751.76,1556.24 2752.21,1557.95C2752.68,1559.78 2752.75,1561.26 2752.73,1563.19C2752.69,1566.95 2752.34,1570.53 2751.66,1574.14C2750.27,1581.51 2747.72,1588.61 2744.49,1595.3C2737.62,1609.54 2728.14,1622.32 2719.26,1635.34C2710.47,1648.24 2701.9,1661.67 2697.28,1676.71C2694.96,1684.27 2694.19,1691.89 2693.79,1699.75C2693.39,1707.63 2694.24,1715.6 2696.05,1723.28C2699.67,1738.61 2707.34,1753.27 2718.42,1764.52C2729.17,1775.43 2743.38,1782.83 2758.84,1783.43C2766.84,1783.74 2774.85,1782.19 2782.3,1779.32C2783.68,1778.78 2784.64,1777.47 2784.22,1775.94C2783.85,1774.61 2782.23,1773.48 2780.84,1774.02C2773.24,1776.95 2765.27,1778.43 2757.13,1777.84C2750.03,1777.33 2742.87,1775.06 2736.58,1771.59C2723.24,1764.21 2713.24,1751.76 2706.89,1738C2703.6,1730.89 2701.33,1723.27 2700.11,1715.53C2698.91,1707.99 2699.02,1700.08 2699.69,1692.41C2701.03,1677.21 2708.08,1663.03 2716.11,1650.14C2724.61,1636.48 2734.5,1623.74 2742.77,1609.93C2750.82,1596.51 2757.29,1581.81 2758.14,1565.99C2758.24,1564.06 2758.28,1562.11 2758.19,1560.18C2758.09,1558.2 2757.47,1556.2 2756.89,1554.3C2755.83,1550.85 2754.41,1547.49 2752.65,1544.34C2749.29,1538.33 2744.62,1533.19 2739.16,1529.02C2728.18,1520.62 2714.18,1516.76 2700.52,1516.16C2686.43,1515.54 2672.02,1518.39 2659.41,1524.75C2651.83,1528.57 2644.77,1533.67 2638.32,1539.15C2631.05,1545.3 2624.58,1552.31 2618.8,1559.86C2607.25,1574.92 2598.73,1592.35 2593.58,1610.6C2588.9,1627.18 2587.2,1644.62 2587.86,1661.81C2588.46,1677.11 2591.02,1692.36 2595.45,1707.01C2599.7,1721.1 2605.65,1734.69 2613.06,1747.4C2620.2,1759.64 2628.74,1771.1 2638.43,1781.45C2647.66,1791.32 2658.01,1800.18 2669.26,1807.68C2679.82,1814.71 2691.25,1820.51 2703.28,1824.57C2714.46,1828.34 2726.26,1830.56 2738.07,1830.62C2749.49,1830.68 2760.98,1828.67 2771.58,1824.38C2782.92,1819.78 2793.11,1812.83 2801.7,1804.12C2806.32,1799.43 2810.46,1794.26 2814.18,1788.82C2815.02,1787.6 2814.41,1785.78 2813.19,1785.07C2811.83,1784.27 2810.27,1784.82 2809.43,1786.05Z" style="fill:rgb(26,57,102);fill-rule:nonzero;"/>
            </g>
            <g transform="matrix(1,0,0,1,-462.447,269.471)">
                <path d="M2762.93,1546.37C2756.47,1543.24 2744.63,1541.03 2737.45,1541.01C2730.26,1540.99 2722.94,1543.82 2718.26,1549.26C2713.58,1554.71 2711.93,1562.84 2714.87,1569.4C2717.82,1575.95 2725.58,1580.19 2733.02,1578.22C2729.05,1579.53 2726.56,1583.93 2726.86,1588.09C2727.16,1592.26 2729.9,1596.01 2733.46,1598.2C2737.02,1600.38 2741.31,1601.13 2745.77,1598.57C2739.93,1602.63 2738.71,1611.57 2742.47,1617.6C2746.22,1623.63 2753.97,1626.53 2760.99,1625.48C2768.02,1624.44 2774.22,1619.91 2778.36,1614.13C2782.5,1608.36 2785.93,1603.74 2787.2,1596.76C2788.31,1590.66 2788.81,1583.12 2787.17,1577.15C2785.27,1570.21 2782.42,1555.81 2762.93,1546.37Z" style="fill:white;fill-rule:nonzero;"/>
            </g>
            <g transform="matrix(1,0,0,1,-462.447,269.471)">
                <path d="M2758.1,1543.77C2746.57,1538.94 2733.13,1536.81 2721.67,1543.01C2716.68,1545.71 2712.49,1549.94 2710.31,1555.21C2707.73,1561.45 2709.24,1567.9 2713.8,1572.76C2718.55,1577.82 2725.59,1580.52 2732.47,1580.48C2732.23,1578.68 2731.98,1576.88 2731.74,1575.08C2724.27,1578.03 2722.22,1587.12 2725.33,1594.02C2728.71,1601.56 2737.57,1603.48 2745.04,1603.82C2744.58,1602.12 2744.11,1600.41 2743.65,1598.7C2739.78,1600.81 2738.23,1605.31 2737.85,1609.45C2737.47,1613.59 2738.4,1618.22 2741.2,1621.41C2748.53,1629.74 2762.28,1628.2 2771.23,1623.77C2776.06,1621.38 2780.03,1617.63 2783,1613.17C2784.97,1610.22 2780.21,1607.46 2778.26,1610.4C2773.84,1617.03 2766.52,1621.06 2758.61,1621.75C2754.59,1622.1 2750.26,1621.6 2746.9,1619.2C2744.29,1617.33 2743.37,1614.78 2743.28,1611.57C2743.22,1609.66 2743.41,1608.27 2744.04,1606.46C2744.49,1605.16 2745.32,1604.05 2746.42,1603.45C2748.92,1602.09 2747.64,1598.45 2745.04,1598.33C2739.9,1598.1 2733.23,1597.2 2730.5,1592.15C2728.48,1588.4 2729.13,1581.99 2733.2,1580.38C2734.47,1579.88 2735.39,1578.81 2735.17,1577.37C2734.97,1576.04 2733.86,1574.98 2732.47,1574.99C2723.57,1575.04 2711.24,1567.87 2715.29,1557.45C2718.76,1548.51 2729.16,1544.49 2738.09,1544.62C2744.52,1544.71 2750.76,1546.6 2756.64,1549.07C2758.01,1549.64 2759.66,1548.45 2760.02,1547.15C2760.46,1545.57 2759.48,1544.35 2758.1,1543.77Z" style="fill:rgb(26,57,102);fill-rule:nonzero;"/>
            </g>
            <g transform="matrix(1,0,0,1,-462.447,269.471)">
                <path d="M2595.06,1546.3C2601.53,1543.17 2613.36,1540.96 2620.55,1540.94C2627.73,1540.92 2635.05,1543.75 2639.73,1549.2C2644.42,1554.64 2646.07,1562.78 2643.12,1569.33C2640.18,1575.88 2632.41,1580.13 2624.98,1578.16C2628.94,1579.46 2631.44,1583.86 2631.14,1588.03C2630.83,1592.19 2628.1,1595.95 2624.54,1598.13C2620.97,1600.31 2616.68,1601.07 2612.23,1598.5C2618.06,1602.56 2619.29,1611.51 2615.53,1617.54C2611.77,1623.56 2604.03,1626.46 2597,1625.41C2589.98,1624.37 2583.77,1619.84 2579.64,1614.07C2575.5,1608.29 2572.07,1603.68 2570.8,1596.69C2569.69,1590.59 2569.19,1583.06 2570.82,1577.08C2572.72,1570.15 2575.58,1555.74 2595.06,1546.3Z" style="fill:white;fill-rule:nonzero;"/>
            </g>
            <g transform="matrix(1,0,0,1,-462.447,269.471)">
                <path d="M2601.76,1549C2611.25,1545.03 2622.49,1542.41 2632.3,1546.86C2636.35,1548.69 2639.94,1551.54 2642.16,1555.43C2643.41,1557.63 2644.27,1560.27 2643.87,1562.82C2643.52,1565.01 2642.35,1567.03 2640.86,1568.65C2637.06,1572.79 2631.5,1574.95 2625.93,1574.92C2624.58,1574.91 2623.39,1575.97 2623.23,1577.3C2623.06,1578.75 2623.89,1579.8 2625.2,1580.31C2629.27,1581.92 2629.92,1588.33 2627.9,1592.08C2625.17,1597.13 2618.51,1598.03 2613.36,1598.26C2610.76,1598.38 2609.47,1602.02 2611.98,1603.38C2613.03,1603.95 2613.61,1604.65 2614.24,1606.06C2614.69,1607.08 2615.06,1608.9 2615.11,1610.2C2615.19,1611.97 2615.06,1613.28 2614.59,1614.88C2614.14,1616.39 2613.62,1617.24 2612.48,1618.32C2606.51,1623.94 2595.8,1622.08 2589.26,1618.61C2585.56,1616.65 2582.46,1613.81 2580.14,1610.33C2578.19,1607.4 2573.43,1610.15 2575.4,1613.1C2581.15,1621.73 2590.65,1626.84 2601.01,1627.26C2606.26,1627.47 2611.69,1626.16 2615.77,1622.73C2619.26,1619.79 2620.66,1615.31 2620.62,1610.85C2620.59,1606.29 2619.02,1600.96 2614.75,1598.64C2614.29,1600.34 2613.82,1602.05 2613.36,1603.76C2620.83,1603.42 2629.69,1601.49 2633.08,1593.96C2636.18,1587.05 2634.13,1577.96 2626.66,1575.02C2626.42,1576.82 2626.17,1578.61 2625.93,1580.41C2637.76,1580.49 2652.36,1570.97 2648.91,1557.53C2645.91,1545.83 2633.32,1539.46 2622.07,1539.08C2614.57,1538.82 2607.16,1540.83 2600.3,1543.7C2598.93,1544.28 2597.95,1545.52 2598.38,1547.08C2598.73,1548.37 2600.38,1549.58 2601.76,1549Z" style="fill:rgb(26,57,102);fill-rule:nonzero;"/>
            </g>
            <g transform="matrix(1,0,0,1,-462.447,269.471)">
                <path d="M2692.88,1432.33C2690.82,1433.14 2689.39,1433.29 2687.23,1433.17C2685.7,1433.09 2683.68,1432.35 2682.22,1431.41C2680.95,1430.6 2679.72,1429.32 2678.89,1427.98C2678.34,1427.1 2678.05,1426.5 2677.79,1425.77C2677.64,1425.31 2677.5,1424.85 2677.39,1424.38C2677.34,1424.14 2677.29,1423.91 2677.24,1423.67C2677.13,1423.12 2677.25,1423.87 2677.19,1423.25C2677.04,1421.78 2676.03,1420.51 2674.44,1420.51C2673.07,1420.51 2671.54,1421.77 2671.69,1423.25C2672.22,1428.43 2674.86,1433.07 2679.2,1436C2683.54,1438.93 2689.48,1439.52 2694.34,1437.63C2695.73,1437.09 2696.69,1435.79 2696.26,1434.25C2695.9,1432.93 2694.27,1431.79 2692.88,1432.33Z" style="fill:rgb(26,57,102);fill-rule:nonzero;"/>
            </g>
            <g transform="matrix(1,0,0,1,-462.447,269.471)">
                <path d="M2656.35,1440.18C2661.57,1441.42 2667.03,1440.16 2671.19,1436.79C2675.15,1433.57 2677.39,1428.32 2677.19,1423.25C2677.13,1421.82 2675.96,1420.44 2674.44,1420.51C2673,1420.57 2671.63,1421.72 2671.69,1423.25C2671.72,1423.8 2671.71,1424.34 2671.68,1424.88C2671.67,1424.94 2671.6,1425.64 2671.64,1425.33C2671.68,1425.01 2671.57,1425.7 2671.56,1425.76C2671.46,1426.3 2671.32,1426.83 2671.16,1427.34C2671.09,1427.56 2671.02,1427.77 2670.94,1427.99C2670.89,1428.12 2670.71,1428.56 2670.86,1428.21C2670.47,1429.13 2669.95,1429.98 2669.38,1430.8C2669.04,1431.29 2669.51,1430.69 2669.15,1431.1C2668.96,1431.3 2668.79,1431.51 2668.6,1431.71C2668.26,1432.07 2667.89,1432.4 2667.51,1432.73C2667.31,1432.91 2667.69,1432.62 2667.32,1432.88C2667.1,1433.04 2666.88,1433.2 2666.65,1433.34C2666.23,1433.61 2665.79,1433.85 2665.35,1434.07C2665.14,1434.17 2664.94,1434.27 2664.73,1434.36C2665.18,1434.17 2664.38,1434.47 2664.38,1434.48C2663.91,1434.64 2663.43,1434.78 2662.94,1434.89C2662.72,1434.95 2662.5,1434.99 2662.28,1435.03C2662.25,1435.04 2661.4,1435.15 2661.93,1435.1C2661.44,1435.15 2660.94,1435.18 2660.44,1435.18C2659.94,1435.18 2659.45,1435.16 2658.95,1435.11C2658.1,1435.03 2659.44,1435.23 2658.61,1435.05C2658.34,1435 2658.08,1434.94 2657.81,1434.88C2656.42,1434.55 2654.77,1435.32 2654.43,1436.8C2654.11,1438.21 2654.86,1439.82 2656.35,1440.18Z" style="fill:rgb(26,57,102);fill-rule:nonzero;"/>
            </g>
            <g transform="matrix(1,0,0,1,-462.447,269.471)">
                <path d="M2623.71,1412.73C2617.51,1413.17 2612.83,1418.55 2613.26,1424.75C2613.69,1430.96 2619.07,1435.64 2625.28,1435.2C2631.48,1434.77 2636.16,1429.39 2635.73,1423.18C2635.3,1416.98 2629.92,1412.3 2623.71,1412.73Z" style="fill:rgb(26,57,102);fill-rule:nonzero;"/>
            </g>
            <g transform="matrix(1,0,0,1,-462.447,269.471)">
                <path d="M2722.97,1408.01C2716.76,1408.44 2712.08,1413.83 2712.52,1420.03C2712.95,1426.23 2718.33,1430.91 2724.54,1430.48C2730.74,1430.05 2735.42,1424.67 2734.99,1418.46C2734.55,1412.26 2729.17,1407.58 2722.97,1408.01Z" style="fill:rgb(26,57,102);fill-rule:nonzero;"/>
            </g>
            <g transform="matrix(1,0,0,1,-462.447,269.471)">
                <path d="M2590.5,1439.83C2571.43,1441.16 2556.42,1448.62 2556.97,1456.49C2557.51,1464.36 2573.42,1469.66 2592.48,1468.33C2611.55,1467 2626.56,1459.54 2626.02,1451.67C2625.47,1443.8 2609.56,1438.5 2590.5,1439.83Z" style="fill:rgb(251,210,207);fill-rule:nonzero;"/>
            </g>
            <g transform="matrix(1,0,0,1,-462.447,269.471)">
                <path d="M2748.22,1434.56C2729.16,1435.89 2714.14,1443.35 2714.69,1451.22C2715.24,1459.09 2731.15,1464.39 2750.21,1463.06C2769.28,1461.73 2784.29,1454.27 2783.74,1446.4C2783.19,1438.53 2767.29,1433.23 2748.22,1434.56Z" style="fill:rgb(251,210,207);fill-rule:nonzero;"/>
            </g>
            <g transform="matrix(1,0,0,1,-462.447,269.471)">
                <path d="M2768.44,1407.86C2786.56,1400.96 2805.58,1396.4 2824.88,1394.51C2830.43,1393.97 2836,1393.65 2841.57,1393.52C2845.1,1393.44 2845.11,1387.95 2841.57,1388.03C2821.79,1388.47 2802.04,1391.52 2783.06,1397.13C2777.63,1398.73 2772.27,1400.55 2766.98,1402.56C2765.6,1403.09 2764.64,1404.41 2765.06,1405.94C2765.43,1407.27 2767.05,1408.39 2768.44,1407.86Z" style="fill:rgb(26,57,102);fill-rule:nonzero;"/>
            </g>
            <g transform="matrix(1,0,0,1,-462.447,269.471)">
                <path d="M2772.99,1431.05C2792.3,1428.46 2811.94,1428.39 2831.26,1430.94C2836.69,1431.66 2842.1,1432.62 2847.46,1433.75C2848.91,1434.05 2850.43,1433.32 2850.84,1431.83C2851.22,1430.46 2850.38,1428.76 2848.92,1428.45C2829.53,1424.36 2809.62,1422.8 2789.83,1423.93C2784.2,1424.26 2778.58,1424.81 2772.99,1425.56C2771.52,1425.75 2770.24,1426.68 2770.24,1428.3C2770.24,1429.63 2771.51,1431.25 2772.99,1431.05Z" style="fill:rgb(26,57,102);fill-rule:nonzero;"/>
            </g>
            <g transform="matrix(1,0,0,1,-462.447,269.471)">
                <path d="M2777.72,1419.02C2795.26,1413.83 2813.89,1412.29 2832.04,1414.75C2833.5,1414.95 2834.98,1414.4 2835.41,1412.84C2835.77,1411.56 2834.98,1409.66 2833.5,1409.46C2814.34,1406.86 2794.81,1408.24 2776.25,1413.73C2772.87,1414.73 2774.31,1420.03 2777.72,1419.02Z" style="fill:rgb(26,57,102);fill-rule:nonzero;"/>
            </g>
            <g transform="matrix(1,0,0,1,-462.447,269.471)">
                <path d="M2717.78,1342.37C2704.08,1339.44 2690.19,1337.25 2676.2,1336.35C2663.75,1335.55 2651.25,1335.84 2638.85,1337.13C2631.67,1337.87 2624.52,1338.92 2617.41,1340.18C2615.95,1340.44 2615.12,1342.23 2615.49,1343.56C2615.91,1345.1 2617.4,1345.74 2618.87,1345.48C2630.94,1343.34 2643.12,1341.88 2655.37,1341.5C2667.86,1341.11 2680.38,1341.82 2692.76,1343.49C2700.67,1344.56 2708.52,1346 2716.32,1347.67C2719.77,1348.41 2721.24,1343.11 2717.78,1342.37Z" style="fill:rgb(26,57,102);fill-rule:nonzero;"/>
            </g>
            <g transform="matrix(1,0,0,1,-462.447,269.471)">
                <path d="M2488.96,1598.74C2493.62,1570.82 2499.44,1543.1 2505.86,1515.54C2511.98,1489.32 2518.66,1463.22 2525.81,1437.26C2531.35,1417.14 2537.15,1397.08 2543.4,1377.17C2548.44,1361.13 2553.67,1344.96 2561.42,1329.99C2564.78,1323.5 2568.64,1317.01 2573.58,1311.59C2577.74,1307.03 2583.41,1302.65 2589.96,1303.49C2596.71,1304.35 2602.16,1309.77 2606.76,1314.33C2612.06,1319.59 2616.93,1325.29 2621.24,1331.39C2623.36,1334.39 2625.36,1337.48 2627.23,1340.64C2629.03,1343.68 2633.78,1340.92 2631.97,1337.87C2628.02,1331.19 2623.5,1324.85 2618.48,1318.93C2613.62,1313.19 2608.3,1307.51 2602.21,1303.05C2596.38,1298.79 2589.12,1296.5 2582.06,1298.98C2575.27,1301.36 2570.16,1306.7 2565.93,1312.31C2557,1324.16 2551.22,1338.09 2546.06,1351.89C2544.11,1357.09 2542.39,1362.37 2540.68,1367.64C2534.59,1386.44 2529.03,1405.4 2523.69,1424.41C2516.39,1450.34 2509.57,1476.39 2503.29,1502.58C2496.58,1530.53 2490.47,1558.63 2485.45,1586.94C2484.83,1590.38 2484.24,1593.83 2483.67,1597.28C2483.42,1598.74 2484.05,1600.24 2485.58,1600.66C2486.9,1601.02 2488.72,1600.21 2488.96,1598.74Z" style="fill:rgb(26,57,102);fill-rule:nonzero;"/>
            </g>
            <g transform="matrix(1,0,0,1,-462.447,269.471)">
                <path d="M2820.39,1777.85C2845.16,1755.82 2854.69,1721.55 2855.46,1689.39C2855.94,1669.26 2855.69,1649.19 2854.04,1629.11C2852.38,1608.74 2849.58,1588.46 2845.98,1568.34C2838.65,1527.35 2827.99,1487.04 2816.65,1446.99C2813.84,1437.07 2810.99,1427.16 2808.13,1417.25C2806.66,1412.15 2805.18,1407.05 2803.71,1401.95C2803.01,1399.5 2802.47,1396.9 2801.57,1394.52C2800.69,1392.16 2799.56,1389.88 2798.67,1387.51C2797.79,1385.18 2796.63,1382.91 2795.86,1380.55C2795.12,1378.26 2794.54,1375.9 2793.87,1373.59C2792.59,1369.24 2791.27,1364.91 2789.84,1360.61C2787,1352.01 2783.78,1343.53 2779.93,1335.33C2776.06,1327.1 2771.52,1319.19 2766.15,1311.85C2763.65,1308.42 2761.13,1304.7 2757.68,1302.18C2754.52,1299.87 2750.73,1298.51 2746.87,1298.05C2737.91,1296.97 2730.84,1301.98 2724.33,1307.52C2717.76,1313.11 2712.19,1319.8 2707.35,1326.92C2704.94,1330.47 2702.72,1334.14 2700.62,1337.87C2698.88,1340.95 2703.62,1343.72 2705.36,1340.64C2709.44,1333.41 2713.96,1326.39 2719.43,1320.12C2722.23,1316.91 2725.25,1313.9 2728.5,1311.16C2731.56,1308.58 2735.09,1305.6 2738.91,1304.26C2742.57,1302.98 2746.53,1303.13 2750.18,1304.39C2754.15,1305.76 2756.63,1308.44 2759.16,1311.65C2764.57,1318.53 2769.17,1326.06 2773.12,1333.86C2777.1,1341.75 2780.39,1349.96 2783.28,1358.31C2784.71,1362.45 2786.04,1366.63 2787.31,1370.82C2788.57,1374.97 2789.41,1379.45 2791.06,1383.45C2792.94,1388 2795.19,1392.58 2796.65,1397.29C2798.14,1402.06 2799.43,1406.91 2800.81,1411.71C2803.59,1421.33 2806.37,1430.95 2809.12,1440.58C2820.09,1479.04 2830.59,1517.7 2838.28,1556.98C2845.92,1595.96 2850.69,1635.59 2850.24,1675.36C2850.05,1691.72 2849.45,1707.89 2845.37,1723.82C2841.5,1738.92 2834.97,1753.6 2824.79,1765.54C2822.23,1768.54 2819.46,1771.35 2816.51,1773.97C2813.86,1776.32 2817.76,1780.2 2820.39,1777.85Z" style="fill:rgb(26,57,102);fill-rule:nonzero;"/>
            </g>
            <g transform="matrix(1,0,0,1,-462.447,269.471)">
                <path d="M2483.57,1598.01C2479.16,1631.1 2476.66,1664.44 2476.21,1697.82C2476.13,1704.21 2475.94,1710.63 2476.54,1717C2477,1721.95 2477.83,1726.87 2479.11,1731.67C2481.55,1740.84 2485.58,1749.6 2490.92,1757.44C2502.12,1773.9 2518.44,1786.21 2536.11,1795.04C2556.38,1805.16 2578.54,1811.22 2600.87,1814.61C2625.28,1818.31 2650.13,1818.96 2674.72,1816.9C2677.81,1816.64 2680.89,1816.33 2683.96,1815.99C2685.44,1815.83 2686.71,1814.85 2686.71,1813.24C2686.71,1811.89 2685.45,1810.33 2683.96,1810.5C2659.7,1813.21 2635.11,1813.32 2610.86,1810.46C2588.72,1807.84 2566.44,1802.67 2546.04,1793.66C2528.11,1785.73 2511.44,1774.86 2499.17,1759.45C2493.85,1752.77 2489.15,1744.42 2486.3,1736.34C2483,1727 2481.63,1717.73 2481.64,1707.92C2481.65,1675.14 2483.69,1642.35 2487.57,1609.8C2488.04,1605.87 2488.54,1601.94 2489.06,1598.01C2489.26,1596.54 2487.66,1595.27 2486.31,1595.27C2484.67,1595.27 2483.76,1596.53 2483.57,1598.01Z" style="fill:rgb(26,57,102);fill-rule:nonzero;"/>
            </g>
            <g transform="matrix(1,0,0,1,-462.447,269.471)">
                <path d="M2508.32,1471.59C2506.67,1477.17 2511.25,1481.91 2517.07,1481.91C2610.41,1481.91 2679.39,1371.88 2791.47,1390.28C2797.4,1391.25 2802.81,1387.34 2801.95,1381.4C2781.35,1239.03 2594.53,1193.76 2506.51,1199.81C2499.94,1200.26 2496.64,1207.99 2500.87,1213.04C2527.79,1245.17 2539.64,1274.57 2540.84,1319.51C2542.1,1366.9 2526.9,1408.88 2508.32,1471.59Z" style="fill:rgb(242,107,96);fill-rule:nonzero;"/>
            </g>
            <g transform="matrix(1,0,0,1,-462.447,269.471)">
                <path d="M2462.88,1182.58C2456,1191.49 2455.79,1204.89 2462.17,1214.17C2468.54,1223.45 2480.9,1228.06 2491.86,1225.5C2502.82,1222.94 2511.78,1213.51 2514.08,1202.48C2515.55,1195.45 2514.35,1187.7 2509.97,1182.01C2505.14,1175.73 2496.99,1172.62 2489.08,1172.42C2481.16,1172.21 2470.96,1172.13 2462.88,1182.58Z" style="fill:white;fill-rule:nonzero;"/>
            </g>
            <g transform="matrix(1,0,0,1,-462.447,269.471)">
                <path d="M2553.79,1206.83C2555.79,1205.62 2557.03,1203.54 2557.52,1201.28C2551.6,1200.64 2545.84,1200.16 2540.27,1199.83C2540.29,1200.1 2540.32,1200.38 2540.37,1200.66C2541.31,1206.39 2548.83,1209.84 2553.79,1206.83Z" style="fill:white;fill-rule:nonzero;"/>
            </g>
            <g transform="matrix(1,0,0,1,-462.447,269.471)">
                <path d="M2616.83,1215.49C2617.86,1214.86 2618.68,1214.01 2619.31,1213.02C2613.97,1211.57 2608.65,1210.24 2603.37,1209.03C2603.39,1209.13 2603.39,1209.22 2603.41,1209.32C2604.35,1215.05 2611.87,1218.5 2616.83,1215.49Z" style="fill:white;fill-rule:nonzero;"/>
            </g>
            <g transform="matrix(1,0,0,1,-462.447,269.471)">
                <path d="M2672.89,1245.43C2668.24,1241.96 2657.24,1244.67 2658.77,1254.01C2659.71,1259.74 2667.23,1263.2 2672.19,1260.18C2677.15,1257.17 2677.54,1248.9 2672.89,1245.43Z" style="fill:white;fill-rule:nonzero;"/>
            </g>
            <g transform="matrix(1,0,0,1,-462.447,269.471)">
                <path d="M2737.34,1282.62C2738.29,1288.35 2745.81,1291.8 2750.76,1288.79C2751.96,1288.06 2752.88,1287.03 2753.53,1285.84C2749.53,1281.77 2745.34,1277.85 2740.99,1274.1C2738.42,1275.68 2736.67,1278.51 2737.34,1282.62Z" style="fill:white;fill-rule:nonzero;"/>
            </g>
            <g transform="matrix(1,0,0,1,-462.447,269.471)">
                <path d="M2595.78,1245.43C2591.13,1241.96 2580.12,1244.67 2581.66,1254.01C2582.6,1259.74 2590.12,1263.2 2595.08,1260.18C2600.03,1257.17 2600.43,1248.9 2595.78,1245.43Z" style="fill:white;fill-rule:nonzero;"/>
            </g>
            <g transform="matrix(1,0,0,1,-462.447,269.471)">
                <path d="M2636.65,1301.59C2632,1298.12 2620.99,1300.83 2622.53,1310.18C2623.47,1315.9 2630.99,1319.36 2635.95,1316.35C2640.91,1313.33 2641.3,1305.06 2636.65,1301.59Z" style="fill:white;fill-rule:nonzero;"/>
            </g>
            <g transform="matrix(1,0,0,1,-462.447,269.471)">
                <path d="M2708.29,1317.44C2703.64,1313.96 2692.63,1316.67 2694.17,1326.02C2695.11,1331.75 2702.63,1335.2 2707.59,1332.19C2712.55,1329.17 2712.94,1320.91 2708.29,1317.44Z" style="fill:white;fill-rule:nonzero;"/>
            </g>
            <g transform="matrix(1,0,0,1,-462.447,269.471)">
                <path d="M2671.07,1371.84C2666.42,1368.36 2655.41,1371.07 2656.95,1380.42C2657.89,1386.15 2665.41,1389.6 2670.37,1386.59C2675.33,1383.57 2675.72,1375.31 2671.07,1371.84Z" style="fill:white;fill-rule:nonzero;"/>
            </g>
            <g transform="matrix(1,0,0,1,-462.447,269.471)">
                <path d="M2742.7,1380.5C2738.05,1377.02 2727.04,1379.73 2728.58,1389.08C2728.79,1390.34 2729.32,1391.48 2730.07,1392.47C2735.21,1391.27 2740.43,1390.3 2745.75,1389.59C2746.42,1386.26 2745.45,1382.54 2742.7,1380.5Z" style="fill:white;fill-rule:nonzero;"/>
            </g>
            <g transform="matrix(1,0,0,1,-462.447,269.471)">
                <path d="M2781.78,1342.58C2777.13,1339.11 2766.12,1341.81 2767.66,1351.16C2768.6,1356.89 2776.12,1360.35 2781.07,1357.33C2786.03,1354.32 2786.43,1346.05 2781.78,1342.58Z" style="fill:white;fill-rule:nonzero;"/>
            </g>
            <g transform="matrix(1,0,0,1,-462.447,269.471)">
                <path d="M2591.76,1371.84C2587.11,1368.36 2576.1,1371.07 2577.64,1380.42C2578.58,1386.15 2586.1,1389.6 2591.05,1386.59C2596.01,1383.57 2596.41,1375.31 2591.76,1371.84Z" style="fill:white;fill-rule:nonzero;"/>
            </g>
            <g transform="matrix(1,0,0,1,-462.447,269.471)">
                <path d="M2587.01,1441.57C2582.36,1438.09 2571.35,1440.8 2572.89,1450.15C2573.83,1455.88 2581.35,1459.33 2586.31,1456.32C2591.27,1453.3 2591.66,1445.04 2587.01,1441.57Z" style="fill:white;fill-rule:nonzero;"/>
            </g>
            <g transform="matrix(1,0,0,1,-462.447,269.471)">
                <path d="M2523.68,1443.52C2528.64,1440.5 2529.03,1432.24 2524.38,1428.76C2523.6,1428.18 2522.63,1427.77 2521.57,1427.54C2519.96,1432.92 2518.3,1438.45 2516.57,1444.14C2518.93,1444.91 2521.54,1444.82 2523.68,1443.52Z" style="fill:white;fill-rule:nonzero;"/>
            </g>
            <g transform="matrix(1,0,0,1,-462.447,269.471)">
                <path d="M2575.27,1302.11C2570.62,1298.64 2559.62,1301.34 2561.15,1310.69C2562.09,1316.42 2569.61,1319.87 2574.57,1316.86C2579.53,1313.84 2579.92,1305.58 2575.27,1302.11Z" style="fill:white;fill-rule:nonzero;"/>
            </g>
            <g transform="matrix(1,0,0,1,-462.447,269.471)">
                <path d="M2541.21,1365.99C2546.17,1362.98 2546.56,1354.71 2541.91,1351.24C2541.21,1350.71 2540.36,1350.33 2539.44,1350.09C2538.79,1355.74 2537.94,1361.39 2536.91,1367.09C2538.41,1367.12 2539.9,1366.79 2541.21,1365.99Z" style="fill:white;fill-rule:nonzero;"/>
            </g>
            <g transform="matrix(1,0,0,1,-462.447,269.471)">
                <path d="M2533.15,1248.62C2530.98,1247 2527.45,1246.73 2524.43,1247.83C2527.09,1253.06 2529.41,1258.39 2531.39,1263.9C2531.75,1263.75 2532.11,1263.58 2532.45,1263.37C2537.41,1260.36 2537.8,1252.09 2533.15,1248.62Z" style="fill:white;fill-rule:nonzero;"/>
            </g>
            <g transform="matrix(1,0,0,1,-462.447,269.471)">
                <path d="M2332.46,1675.91C2333.86,1721.27 2332.22,1766.73 2327.58,1811.87C2327.25,1815.02 2329.73,1817.76 2332.9,1817.72L2624.99,1814.73C2627.69,1814.7 2629.94,1812.65 2630.22,1809.97C2635.86,1755.89 2635.03,1722.61 2634.96,1671.49C2634.96,1668.37 2632.28,1665.93 2629.17,1666.21C2529.71,1675.24 2428.25,1670.43 2337.75,1670.44C2334.75,1670.44 2332.37,1672.92 2332.46,1675.91Z" style="fill:rgb(242,107,96);fill-rule:nonzero;"/>
            </g>
            <g transform="matrix(1,0,0,1,-462.447,269.471)">
                <path d="M2592.22,1701.91C2588.29,1703.33 2587.96,1709.02 2590.9,1711.17C2593.84,1713.32 2598.76,1711.24 2599.28,1707.64C2599.79,1704.03 2595.64,1700.66 2592.22,1701.91Z" style="fill:white;fill-rule:nonzero;"/>
            </g>
            <g transform="matrix(1,0,0,1,-462.447,269.471)">
                <path d="M2499.93,1750.67C2496.01,1752.1 2495.67,1757.78 2498.61,1759.94C2501.55,1762.09 2506.47,1760.01 2506.99,1756.41C2507.5,1752.8 2503.35,1749.43 2499.93,1750.67Z" style="fill:white;fill-rule:nonzero;"/>
            </g>
            <g transform="matrix(1,0,0,1,-462.447,269.471)">
                <path d="M2624.15,1740.95C2619.05,1740.07 2617.55,1746.08 2619.43,1748.62C2621.31,1751.16 2625.81,1750.96 2627.46,1748.27C2629.12,1745.58 2627.26,1741.48 2624.15,1740.95Z" style="fill:white;fill-rule:nonzero;"/>
            </g>
            <g transform="matrix(1,0,0,1,-462.447,269.471)">
                <path d="M2566.44,1734.53C2561.34,1733.65 2559.84,1739.66 2561.72,1742.2C2563.6,1744.73 2568.1,1744.54 2569.75,1741.85C2571.41,1739.16 2569.55,1735.06 2566.44,1734.53Z" style="fill:white;fill-rule:nonzero;"/>
            </g>
            <g transform="matrix(1,0,0,1,-462.447,269.471)">
                <path d="M2538.59,1786.28C2533.48,1785.4 2531.99,1791.41 2533.87,1793.94C2535.75,1796.48 2540.24,1796.29 2541.9,1793.6C2543.55,1790.91 2541.7,1786.81 2538.59,1786.28Z" style="fill:white;fill-rule:nonzero;"/>
            </g>
            <g transform="matrix(1,0,0,1,-462.447,269.471)">
                <path d="M2425.53,1689.35C2420.43,1688.48 2418.94,1694.48 2420.81,1697.02C2422.69,1699.56 2427.19,1699.37 2428.85,1696.68C2430.5,1693.99 2428.65,1689.89 2425.53,1689.35Z" style="fill:white;fill-rule:nonzero;"/>
            </g>
            <g transform="matrix(1,0,0,1,-462.447,269.471)">
                <path d="M2336.36,1758.25C2338.01,1755.56 2336.16,1751.46 2333.05,1750.92C2332.68,1750.86 2332.34,1750.84 2332.01,1750.84C2331.88,1754.01 2331.73,1757.18 2331.56,1760.34C2333.4,1760.55 2335.38,1759.84 2336.36,1758.25Z" style="fill:white;fill-rule:nonzero;"/>
            </g>
            <g transform="matrix(1,0,0,1,-462.447,269.471)">
                <path d="M2353.2,1673.94C2355.08,1676.48 2359.58,1676.29 2361.23,1673.6C2361.8,1672.68 2361.95,1671.59 2361.78,1670.53C2358.67,1670.51 2355.57,1670.49 2352.48,1670.48C2352.31,1671.76 2352.55,1673.06 2353.2,1673.94Z" style="fill:white;fill-rule:nonzero;"/>
            </g>
            <g transform="matrix(1,0,0,1,-462.447,269.471)">
                <path d="M2519.18,1717.36C2514.08,1716.49 2512.59,1722.49 2514.46,1725.03C2516.34,1727.57 2520.84,1727.38 2522.5,1724.69C2524.15,1722 2522.3,1717.9 2519.18,1717.36Z" style="fill:white;fill-rule:nonzero;"/>
            </g>
            <g transform="matrix(1,0,0,1,-462.447,269.471)">
                <path d="M2397.8,1746.15C2392.7,1745.27 2391.2,1751.28 2393.08,1753.82C2394.96,1756.35 2399.46,1756.16 2401.11,1753.47C2402.77,1750.78 2400.91,1746.68 2397.8,1746.15Z" style="fill:white;fill-rule:nonzero;"/>
            </g>
            <g transform="matrix(1,0,0,1,-462.447,269.471)">
                <path d="M2357.92,1789.1C2352.82,1788.23 2351.32,1794.23 2353.2,1796.77C2355.08,1799.31 2359.58,1799.12 2361.23,1796.43C2362.89,1793.74 2361.03,1789.64 2357.92,1789.1Z" style="fill:white;fill-rule:nonzero;"/>
            </g>
            <g transform="matrix(1,0,0,1,-462.447,269.471)">
                <path d="M2425.53,1789.1C2420.43,1788.23 2418.94,1794.23 2420.81,1796.77C2422.69,1799.31 2427.19,1799.12 2428.85,1796.43C2430.5,1793.74 2428.65,1789.64 2425.53,1789.1Z" style="fill:white;fill-rule:nonzero;"/>
            </g>
            <g transform="matrix(1,0,0,1,-462.447,269.471)">
                <path d="M2480.77,1684.58C2475.67,1683.7 2474.17,1689.71 2476.05,1692.25C2477.93,1694.79 2482.43,1694.59 2484.08,1691.9C2485.74,1689.21 2483.88,1685.11 2480.77,1684.58Z" style="fill:white;fill-rule:nonzero;"/>
            </g>
            <g transform="matrix(1,0,0,1,-462.447,269.471)">
                <path d="M2573.88,1679.64C2568.62,1678.13 2566.55,1684.3 2568.23,1687.05C2569.92,1689.81 2574.51,1690.04 2576.47,1687.47C2578.43,1684.9 2576.99,1680.54 2573.88,1679.64Z" style="fill:white;fill-rule:nonzero;"/>
            </g>
            <g transform="matrix(1,0,0,1,-462.447,269.471)">
                <path d="M2476.64,1794.29C2471.38,1792.78 2469.31,1798.95 2471,1801.7C2472.68,1804.46 2477.27,1804.69 2479.23,1802.12C2481.19,1799.55 2479.75,1795.19 2476.64,1794.29Z" style="fill:white;fill-rule:nonzero;"/>
            </g>
            <g transform="matrix(1,0,0,1,-462.447,269.471)">
                <path d="M2374.83,1706.92C2369.57,1705.4 2367.49,1711.57 2369.18,1714.33C2370.87,1717.09 2375.46,1717.32 2377.42,1714.75C2379.37,1712.18 2377.93,1707.82 2374.83,1706.92Z" style="fill:white;fill-rule:nonzero;"/>
            </g>
            <g transform="matrix(1,0,0,1,-462.447,269.471)">
                <path d="M2595.5,1794.29C2590.24,1792.78 2588.17,1798.95 2589.86,1801.7C2591.54,1804.46 2596.13,1804.69 2598.09,1802.12C2600.05,1799.55 2598.61,1795.19 2595.5,1794.29Z" style="fill:white;fill-rule:nonzero;"/>
            </g>
            <g transform="matrix(1,0,0,1,-462.447,269.471)">
                <path d="M2454.11,1726.86C2448.63,1727.59 2448.41,1734.34 2451.26,1736.71C2454.1,1739.09 2459.19,1737.53 2460.22,1733.98C2461.25,1730.42 2457.78,1726.38 2454.11,1726.86Z" style="fill:white;fill-rule:nonzero;"/>
            </g>
            <g transform="matrix(1,0,0,1,-462.447,269.471)">
                <path d="M2478.39,1656.45C2466.65,1706.32 2463.48,1757.92 2469.04,1808.71C2472,1752.28 2480.13,1696.08 2493.31,1640.94" style="fill:none;stroke:rgb(26,57,102);stroke-width:4.46px;"/>
            </g>
            <g transform="matrix(1,0,0,1,-462.447,269.471)">
                <path d="M2321.81,1640.15C2313.62,1640.37 2307.1,1647.09 2307.09,1655.28C2307.08,1665.01 2309.29,1674.31 2316.99,1679.61C2323.73,1684.24 2332.57,1684.02 2340.74,1683.62L2649.57,1668.52C2651.59,1668.43 2653.31,1666.99 2653.75,1665.02C2654.96,1659.63 2655.91,1654.15 2655.32,1648.68C2654.6,1642.07 2651.17,1635.37 2645.17,1632.54C2640.78,1630.47 2635.7,1630.7 2630.85,1630.96C2527.43,1636.55 2423.75,1637.35 2321.81,1640.15Z" style="fill:rgb(242,107,96);fill-rule:nonzero;"/>
            </g>
            <g transform="matrix(1,0,0,1,-462.447,269.471)">
                <path d="M2474.23,1669.01C2474.06,1668.94 2473.44,1668.68 2474.26,1669.03C2474.09,1668.95 2473.91,1668.88 2473.74,1668.81C2473.34,1668.64 2472.94,1668.46 2472.53,1668.29C2471.73,1667.95 2470.92,1667.61 2470.12,1667.26C2468.45,1666.54 2466.78,1665.8 2465.12,1665.05C2461.87,1663.58 2458.64,1662.04 2455.47,1660.38C2452.38,1658.76 2449.35,1657.03 2446.41,1655.14C2444.9,1654.17 2443.42,1653.16 2441.97,1652.1C2441.62,1651.84 2441.27,1651.59 2440.92,1651.32C2440.67,1651.13 2440.05,1650.63 2440.65,1651.12C2439.93,1650.54 2439.2,1649.96 2438.49,1649.36C2435.81,1647.1 2433.27,1644.64 2430.99,1641.97C2430.71,1641.64 2430.44,1641.31 2430.17,1640.98C2430.03,1640.8 2429.27,1639.81 2429.85,1640.59C2429.34,1639.9 2428.83,1639.21 2428.34,1638.5C2427.33,1637.04 2426.39,1635.52 2425.53,1633.96C2425.15,1633.26 2424.78,1632.55 2424.42,1631.83C2424.23,1631.45 2424.05,1631.06 2423.87,1630.67C2423.76,1630.44 2423.66,1630.22 2423.56,1630C2423.52,1629.91 2423.21,1629.17 2423.42,1629.68C2423.65,1630.22 2423.35,1629.49 2423.3,1629.36C2423.23,1629.19 2423.16,1629.02 2423.1,1628.85C2422.94,1628.45 2422.79,1628.05 2422.65,1627.64C2422.34,1626.78 2422.06,1625.9 2421.8,1625.02C2421.32,1623.38 2420.93,1621.71 2420.65,1620.02C2420.62,1619.84 2420.43,1618.59 2420.51,1619.17C2420.59,1619.74 2420.51,1619.13 2420.5,1619.03C2420.47,1618.79 2420.44,1618.55 2420.42,1618.31C2420.36,1617.66 2420.31,1617.02 2420.28,1616.37C2420.24,1615.29 2420.25,1614.2 2420.32,1613.12C2420.35,1612.61 2420.39,1612.11 2420.45,1611.6C2420.47,1611.32 2420.51,1611.05 2420.54,1610.77C2420.6,1610.2 2420.38,1611.81 2420.48,1611.24C2420.51,1611.09 2420.53,1610.93 2420.55,1610.77C2420.92,1608.51 2421.52,1606.32 2422.34,1604.18C2422.6,1603.49 2421.86,1605.22 2422.3,1604.29C2422.41,1604.05 2422.52,1603.81 2422.64,1603.58C2422.87,1603.11 2423.12,1602.66 2423.39,1602.22C2423.65,1601.8 2424,1601.4 2424.24,1600.97C2423.99,1601.43 2423.61,1601.74 2424.13,1601.15C2424.31,1600.95 2424.49,1600.75 2424.68,1600.56C2424.85,1600.39 2425.02,1600.24 2425.19,1600.08C2425.72,1599.59 2425.23,1600.13 2424.9,1600.28C2425.32,1600.09 2425.73,1599.75 2426.13,1599.52C2426.88,1599.09 2425.19,1599.81 2425.86,1599.62C2426.07,1599.56 2426.28,1599.47 2426.5,1599.41C2426.72,1599.35 2426.95,1599.31 2427.17,1599.25C2427.32,1599.21 2427.76,1599.16 2426.97,1599.27C2426.08,1599.39 2426.81,1599.29 2426.97,1599.29C2427.43,1599.28 2427.89,1599.34 2428.34,1599.32C2428.77,1599.31 2427.67,1599.22 2427.7,1599.23C2427.83,1599.28 2428.01,1599.29 2428.15,1599.31C2428.46,1599.38 2428.77,1599.46 2429.07,1599.55C2429.35,1599.63 2429.63,1599.73 2429.9,1599.83C2430.84,1600.16 2429.25,1599.48 2429.95,1599.84C2430.56,1600.16 2431.17,1600.47 2431.75,1600.83C2432.4,1601.23 2433.02,1601.67 2433.64,1602.11C2433.72,1602.17 2434.19,1602.49 2433.72,1602.16C2433.22,1601.8 2433.8,1602.22 2433.92,1602.32C2434.26,1602.6 2434.6,1602.88 2434.94,1603.17C2436.12,1604.2 2437.24,1605.3 2438.31,1606.45C2438.85,1607.04 2439.37,1607.64 2439.89,1608.24C2440.14,1608.55 2440.4,1608.86 2440.65,1609.17C2440.82,1609.38 2441.69,1610.44 2441.02,1609.62C2442.05,1610.87 2442.96,1612.24 2443.87,1613.57C2445.74,1616.3 2447.47,1619.12 2449.21,1621.93C2452.9,1627.94 2456.86,1633.78 2460.42,1639.87C2464.34,1646.57 2467.9,1653.49 2470.98,1660.62C2471.14,1661 2471.3,1661.37 2471.46,1661.75C2471.14,1660.98 2471.64,1662.18 2471.72,1662.38C2472.11,1663.33 2472.49,1664.27 2472.86,1665.23C2473.71,1667.39 2475.9,1669.14 2478.36,1668.34C2480.69,1667.59 2482.1,1665.28 2481.47,1662.85C2480.26,1658.13 2479.13,1653.39 2478.17,1648.61C2477.69,1646.22 2477.24,1643.82 2476.84,1641.41C2476.64,1640.21 2476.46,1639 2476.28,1637.8C2476.24,1637.51 2476.21,1637.23 2476.16,1636.94C2476.05,1636.21 2476.24,1637.59 2476.15,1636.85C2476.06,1636.14 2475.97,1635.43 2475.88,1634.72C2474.75,1625.1 2474.49,1615.35 2475.65,1605.72C2475.69,1605.44 2475.73,1605.15 2475.76,1604.87C2475.86,1604.05 2475.6,1605.93 2475.8,1604.57C2475.88,1604.06 2475.96,1603.56 2476.04,1603.05C2476.19,1602.1 2476.36,1601.15 2476.55,1600.2C2476.93,1598.25 2477.38,1596.3 2477.9,1594.38C2478.41,1592.5 2478.98,1590.65 2479.61,1588.81C2479.91,1587.95 2480.22,1587.09 2480.55,1586.24C2480.71,1585.81 2480.88,1585.39 2481.05,1584.96C2481.14,1584.75 2481.22,1584.54 2481.31,1584.33C2481.75,1583.25 2480.92,1585.2 2481.39,1584.13C2482.95,1580.59 2484.71,1577.16 2486.77,1573.88C2487.79,1572.26 2488.88,1570.68 2490.03,1569.14C2490.16,1568.97 2490.29,1568.76 2490.44,1568.61C2490.34,1568.7 2489.85,1569.35 2490.36,1568.71C2490.64,1568.36 2490.92,1568.01 2491.21,1567.66C2491.85,1566.88 2492.51,1566.12 2493.19,1565.37C2494.47,1563.96 2495.82,1562.61 2497.23,1561.33C2497.89,1560.72 2498.57,1560.13 2499.26,1559.56C2499.6,1559.27 2499.95,1558.99 2500.3,1558.71C2500.93,1558.2 2500.3,1558.7 2500.2,1558.79C2500.45,1558.57 2500.73,1558.38 2501,1558.18C2502.54,1557.05 2504.14,1555.99 2505.8,1555.03C2506.57,1554.58 2507.36,1554.17 2508.17,1553.79C2508.37,1553.69 2508.58,1553.6 2508.78,1553.51C2509.79,1553.04 2508.15,1553.73 2508.81,1553.5C2509.29,1553.33 2509.77,1553.13 2510.25,1552.97C2511.16,1552.67 2512.08,1552.42 2513.01,1552.23C2513.23,1552.19 2513.45,1552.16 2513.67,1552.11C2514.29,1551.98 2512.82,1552.19 2513.46,1552.13C2513.94,1552.09 2514.43,1552.04 2514.91,1552.03C2515.34,1552.02 2515.77,1552.02 2516.19,1552.05C2516.29,1552.05 2517.31,1552.05 2516.54,1552.06C2515.89,1552.06 2516.52,1552.06 2516.72,1552.1C2517.12,1552.17 2517.53,1552.27 2517.92,1552.39C2518.12,1552.45 2518.31,1552.53 2518.51,1552.59C2519.03,1552.74 2517.71,1552.18 2518.44,1552.57C2518.86,1552.79 2519.25,1553.05 2519.66,1553.28C2520.19,1553.56 2519.08,1552.75 2519.53,1553.16C2519.69,1553.3 2519.86,1553.43 2520.02,1553.58C2520.32,1553.87 2520.59,1554.19 2520.88,1554.49C2521.3,1554.93 2520.44,1553.82 2520.75,1554.33C2520.88,1554.55 2521.04,1554.76 2521.17,1554.98C2521.42,1555.38 2521.61,1555.8 2521.83,1556.21C2522.1,1556.76 2521.55,1555.43 2521.74,1556.01C2521.8,1556.21 2521.88,1556.41 2521.95,1556.61C2522.25,1557.53 2522.43,1558.47 2522.62,1559.41C2522.75,1560.04 2522.54,1558.56 2522.6,1559.2C2522.62,1559.41 2522.65,1559.63 2522.67,1559.85C2522.71,1560.29 2522.74,1560.73 2522.77,1561.17C2522.81,1562.16 2522.81,1563.15 2522.78,1564.14C2522.72,1566.25 2522.53,1568.35 2522.31,1570.44C2522.26,1570.97 2522.2,1571.49 2522.14,1572.01C2522.1,1572.27 2522.07,1572.53 2522.04,1572.79C2522.02,1572.92 2521.92,1573.75 2521.99,1573.16C2522.08,1572.48 2521.91,1573.75 2521.91,1573.74C2521.88,1574 2521.84,1574.25 2521.8,1574.51C2521.71,1575.09 2521.62,1575.67 2521.53,1576.25C2521.17,1578.44 2520.75,1580.62 2520.28,1582.78C2518.38,1591.53 2515.61,1600.07 2512.28,1608.37C2511.89,1609.35 2511.49,1610.32 2511.09,1611.29C2511.02,1611.44 2510.75,1612.08 2511.08,1611.32C2510.97,1611.56 2510.87,1611.8 2510.77,1612.04C2510.51,1612.65 2510.24,1613.25 2509.98,1613.85C2509.07,1615.91 2508.14,1617.95 2507.18,1619.98C2505.25,1624.06 2503.21,1628.08 2501.11,1632.07C2496.89,1640.05 2492.37,1647.88 2487.79,1655.66C2486.65,1657.6 2485.5,1659.53 2484.36,1661.46C2483.17,1663.47 2483.84,1666.45 2485.96,1667.57C2488.12,1668.71 2490.78,1668.1 2492.07,1665.97C2495.72,1659.9 2499.39,1653.85 2503.28,1647.94C2505.23,1644.98 2507.23,1642.06 2509.31,1639.19C2509.84,1638.46 2510.37,1637.74 2510.91,1637.02C2511.13,1636.73 2511.34,1636.45 2511.56,1636.16C2511.7,1635.97 2511.85,1635.78 2511.99,1635.59C2512.5,1634.92 2511.73,1635.93 2512.06,1635.5C2513.12,1634.14 2514.2,1632.79 2515.3,1631.46C2519.75,1626.12 2524.6,1621.09 2529.97,1616.66C2530.61,1616.14 2531.25,1615.63 2531.9,1615.12C2531.05,1615.78 2532.23,1614.87 2532.39,1614.75C2532.77,1614.47 2533.15,1614.19 2533.53,1613.91C2534.92,1612.91 2536.33,1611.95 2537.78,1611.04C2539.36,1610.05 2540.96,1609.09 2542.62,1608.24C2543.04,1608.02 2543.46,1607.81 2543.88,1607.61C2544.13,1607.5 2544.37,1607.38 2544.62,1607.27C2544.66,1607.25 2545.28,1607 2544.83,1607.18C2544.37,1607.36 2545,1607.12 2545.04,1607.1C2545.29,1607.01 2545.54,1606.91 2545.8,1606.83C2546.3,1606.65 2546.81,1606.49 2547.32,1606.35C2547.83,1606.21 2548.35,1606.08 2548.86,1605.98C2549.2,1605.92 2550.02,1605.86 2549.23,1605.91C2550.29,1605.85 2551.31,1605.8 2552.37,1605.9C2551.6,1605.83 2552.39,1605.92 2552.7,1606C2553.04,1606.07 2553.38,1606.16 2553.7,1606.26C2553.89,1606.32 2554.07,1606.39 2554.26,1606.45C2554.59,1606.56 2554.59,1606.42 2554.27,1606.44C2553.82,1606.48 2554.08,1606.35 2554.4,1606.52C2554.58,1606.6 2554.75,1606.69 2554.92,1606.78C2555.22,1606.94 2555.51,1607.11 2555.8,1607.3C2555.96,1607.4 2556.12,1607.52 2556.28,1607.62C2556.8,1607.94 2556.29,1607.46 2556.08,1607.44C2556.52,1607.48 2557.4,1608.61 2557.7,1608.92C2557.94,1609.17 2558.16,1609.44 2558.4,1609.69C2558.92,1610.27 2557.93,1609.03 2558.52,1609.85C2558.96,1610.46 2559.36,1611.09 2559.73,1611.75C2559.92,1612.11 2560.11,1612.47 2560.28,1612.83C2560.34,1612.97 2560.4,1613.11 2560.47,1613.25C2560.73,1613.8 2560.17,1612.45 2560.37,1613.02C2560.63,1613.75 2560.89,1614.46 2561.09,1615.2C2561.28,1615.89 2561.41,1616.59 2561.54,1617.29C2561.69,1618.1 2561.45,1616.41 2561.55,1617.46C2561.59,1617.92 2561.61,1618.37 2561.62,1618.83C2561.63,1619.58 2561.6,1620.32 2561.53,1621.07C2561.51,1621.25 2561.49,1621.43 2561.47,1621.61C2561.4,1622.28 2561.62,1620.85 2561.48,1621.51C2561.37,1621.98 2561.31,1622.46 2561.2,1622.94C2561.02,1623.76 2560.79,1624.58 2560.53,1625.38C2560.4,1625.79 2560.26,1626.19 2560.11,1626.58C2560,1626.9 2559.49,1628.04 2559.88,1627.2C2559.1,1628.88 2558.27,1630.5 2557.29,1632.07C2556.84,1632.8 2556.36,1633.52 2555.86,1634.23C2555.61,1634.59 2555.36,1634.94 2555.1,1635.29C2554.95,1635.49 2554.8,1635.68 2554.65,1635.88C2554.24,1636.44 2555.3,1635.08 2554.55,1636.01C2552.36,1638.74 2550,1641.32 2547.5,1643.77C2544.94,1646.26 2542.24,1648.59 2539.44,1650.8C2540.12,1650.26 2539.33,1650.88 2539.06,1651.08C2538.73,1651.33 2538.4,1651.58 2538.06,1651.82C2537.34,1652.35 2536.61,1652.87 2535.88,1653.37C2534.46,1654.35 2533.01,1655.3 2531.54,1656.2C2528.5,1658.07 2525.36,1659.78 2522.13,1661.3C2521.38,1661.66 2520.62,1662.01 2519.86,1662.35C2519.48,1662.52 2519.1,1662.68 2518.71,1662.85C2518.25,1663.05 2518.92,1662.76 2518.96,1662.74C2518.68,1662.86 2518.41,1662.97 2518.13,1663.08C2516.48,1663.76 2514.81,1664.38 2513.12,1664.97C2509.8,1666.11 2506.42,1667.07 2503,1667.85C2501.32,1668.23 2499.62,1668.57 2497.92,1668.86C2497.1,1669 2496.28,1669.13 2495.46,1669.25C2494.29,1669.41 2495.88,1669.2 2495.05,1669.3C2494.52,1669.37 2493.99,1669.43 2493.46,1669.49C2491.74,1669.68 2490.02,1669.81 2488.3,1669.91C2485.97,1670.03 2483.72,1671.87 2483.83,1674.37C2483.94,1676.68 2485.8,1678.97 2488.3,1678.84C2503.67,1678 2518.73,1673.62 2532.2,1666.16C2538.87,1662.46 2545.13,1657.97 2550.82,1652.88C2556.59,1647.71 2562.12,1641.77 2565.95,1634.99C2569.82,1628.13 2571.85,1619.96 2569.53,1612.24C2567.47,1605.38 2562.2,1598.92 2554.93,1597.35C2546.16,1595.47 2537.76,1600.19 2530.76,1604.98C2524.52,1609.25 2518.82,1614.28 2513.68,1619.81C2503.35,1630.93 2495.09,1643.79 2487.23,1656.71C2486.27,1658.29 2485.31,1659.88 2484.36,1661.46C2486.93,1662.96 2489.5,1664.46 2492.07,1665.97C2501.69,1649.73 2511.3,1633.39 2518.71,1616C2522.45,1607.22 2525.72,1598.24 2528.01,1588.96C2529.12,1584.47 2530,1579.92 2530.63,1575.33C2531.27,1570.72 2531.9,1566 2531.7,1561.33C2531.5,1556.69 2530.41,1552.24 2527.49,1548.54C2524.57,1544.86 2519.85,1543.06 2515.24,1543.09C2506.4,1543.15 2498.34,1548.53 2491.92,1554.12C2479.39,1565.02 2471.44,1580.88 2468.11,1596.99C2463.93,1617.19 2466.45,1638.04 2471.07,1657.92C2471.64,1660.37 2472.24,1662.8 2472.86,1665.23C2475.73,1664.44 2478.6,1663.64 2481.47,1662.85C2478.4,1655.01 2474.82,1647.36 2470.76,1639.98C2467.01,1633.18 2462.69,1626.76 2458.61,1620.17C2454.82,1614.06 2451.13,1607.88 2446.53,1602.33C2444.19,1599.51 2441.59,1597.01 2438.68,1594.79C2436.22,1592.93 2433.37,1591.22 2430.3,1590.66C2427.27,1590.11 2424.39,1590.41 2421.63,1591.81C2419.27,1593.01 2417.41,1595.08 2415.97,1597.25C2413.06,1601.68 2411.86,1607.21 2411.44,1612.42C2410.91,1618.94 2412.27,1625.7 2414.69,1631.74C2417.63,1639.09 2421.96,1645.74 2427.53,1651.39C2438.25,1662.25 2452.11,1669.15 2465.96,1675.12C2467.92,1675.96 2469.88,1676.79 2471.85,1677.62C2474.01,1678.53 2476.86,1676.64 2477.34,1674.5C2477.94,1671.89 2476.54,1669.99 2474.23,1669.01Z" style="fill:rgb(26,57,102);fill-rule:nonzero;"/>
            </g>
            <g transform="matrix(1,0,0,1,-462.447,269.471)">
                <path d="M2334.19,1683.94C2450.76,1674.37 2539.11,1676.46 2636.29,1669.17" style="fill:none;stroke:rgb(26,57,102);stroke-width:4.46px;stroke-linecap:round;"/>
            </g>
        </g>
    </g>
</svg>
