<?xml version="1.0" encoding="UTF-8" standalone="no"?>
<!DOCTYPE svg PUBLIC "-//W3C//DTD SVG 1.1//EN" "http://www.w3.org/Graphics/SVG/1.1/DTD/svg11.dtd">
<svg width="100%" height="100%" viewBox="0 0 3206 2816" version="1.1" xmlns="http://www.w3.org/2000/svg" xmlns:xlink="http://www.w3.org/1999/xlink" xml:space="preserve" xmlns:serif="http://www.serif.com/" style="fill-rule:evenodd;clip-rule:evenodd;stroke-linejoin:round;stroke-miterlimit:2;">
    <g transform="matrix(1,0,0,1,-7319.67,-1226.05)">
        <g transform="matrix(4.16667,0,0,4.16667,0,0)">
            <path d="M2080.74,820.287C2078.75,819.353 2076.95,818.087 2075.43,816.506C2069.25,810.091 2047.31,789.597 2039.3,774.272C2029.88,756.235 2029.37,738.975 2026.89,718.777C2021.18,672.253 2026.35,618.031 2029.59,556.646C2034.95,479.451 2048.04,421.061 2068.43,345.532C2068.69,344.573 2069.03,343.62 2069.45,342.718C2081.88,315.784 2090.76,309.407 2105.49,319.819C2117.67,328.425 2128.83,334.214 2135.89,345.676C2139.51,351.545 2147.75,351.882 2154.6,351.095C2172.33,349.058 2196.14,347.333 2213.47,345.676C2220.29,345.025 2222.07,338.359 2224.43,331.935C2225.02,330.336 2225.95,328.021 2227.7,324.298C2234.14,310.533 2244.71,294.168 2259.67,296.835C2273.53,299.304 2279.13,305.606 2286.47,317.614C2311.69,358.863 2338.71,412.832 2354.05,457.617C2376.18,522.205 2399.91,574.564 2413.29,650.48C2417.48,674.271 2421.94,692.214 2419.88,716.283C2412.98,796.793 2357.81,824.72 2348.93,828.587C2345.04,830.28 2328.55,843.62 2283.25,843.62C2235.81,843.62 2169,861.794 2080.74,820.287Z" style="fill:white;fill-rule:nonzero;"/>
            <path d="M2220.94,801.271C2208.62,818.244 2200.13,837.98 2196.28,858.597C2195.11,864.832 2194.48,871.735 2197.87,877.095C2203.42,885.862 2216.23,885.77 2226.25,883.087C2246.49,877.667 2264.94,865.755 2278.21,849.539C2283.6,842.942 2288.31,835.197 2288.59,826.677C2288.96,815.1 2280.86,804.581 2270.87,798.724C2260.88,792.867 2249.19,790.78 2220.94,801.271Z" style="fill:white;fill-rule:nonzero;"/>
            <path d="M2288.21,437.046C2307.94,433.275 2325.19,436.819 2326.75,444.961C2328.31,453.104 2313.57,462.762 2293.84,466.533C2274.11,470.304 2256.86,466.76 2255.3,458.617C2253.75,450.475 2268.48,440.817 2288.21,437.046Z" style="fill:rgb(251,210,207);fill-rule:nonzero;"/>
            <path d="M2125.41,468.162C2145.14,464.391 2162.4,467.934 2163.96,476.077C2165.51,484.219 2150.78,493.877 2131.05,497.648C2111.32,501.419 2094.06,497.875 2092.51,489.733C2090.95,481.59 2105.68,471.933 2125.41,468.162Z" style="fill:rgb(251,210,207);fill-rule:nonzero;"/>
            <path d="M2301.8,424.387C2319.38,413.897 2338.28,405.774 2358,400.291C2363.59,398.737 2369.23,397.4 2374.92,396.266C2376.45,395.961 2377.33,394.141 2376.94,392.715C2376.5,391.121 2374.92,390.394 2373.39,390.699C2352.93,394.777 2333.05,401.613 2314.38,410.923C2309.11,413.551 2303.95,416.384 2298.89,419.403C2295.7,421.305 2298.6,426.298 2301.8,424.387Z" style="fill:rgb(26,57,102);fill-rule:nonzero;"/>
            <path d="M2310.79,447.614C2330.23,441.429 2350.44,437.808 2370.83,436.957C2376.67,436.713 2382.52,436.699 2388.36,436.894C2392.08,437.019 2392.08,431.245 2388.36,431.121C2367.57,430.427 2346.67,432.51 2326.42,437.291C2320.64,438.655 2314.91,440.248 2309.25,442.047C2305.73,443.169 2307.23,448.745 2310.79,447.614Z" style="fill:rgb(26,57,102);fill-rule:nonzero;"/>
            <path d="M2313.44,434.249C2330.68,425.663 2349.69,420.812 2368.93,420.051C2372.64,419.905 2372.65,414.131 2368.93,414.278C2348.64,415.081 2328.7,420.21 2310.52,429.264C2307.2,430.921 2310.12,435.902 2313.44,434.249Z" style="fill:rgb(26,57,102);fill-rule:nonzero;"/>
            <path d="M2104.91,452.241C2084.14,450.049 2063.14,450.688 2042.53,454.031C2036.72,454.973 2030.95,456.143 2025.22,457.52C2021.61,458.389 2023.14,463.957 2026.76,463.087C2046.65,458.3 2067.11,456.193 2087.57,456.824C2093.36,457.003 2099.14,457.406 2104.91,458.014C2106.46,458.178 2107.79,456.57 2107.79,455.128C2107.79,453.431 2106.46,452.406 2104.91,452.241Z" style="fill:rgb(26,57,102);fill-rule:nonzero;"/>
            <path d="M2105.75,477.12C2084.93,479.736 2064.51,485.01 2045.11,493.033C2039.53,495.341 2034.03,497.843 2028.64,500.559C2025.32,502.23 2028.24,507.212 2031.55,505.544C2049.67,496.421 2068.98,489.752 2088.86,485.689C2094.45,484.546 2100.09,483.604 2105.75,482.893C2107.29,482.699 2108.63,481.705 2108.63,480.006C2108.63,478.597 2107.31,476.924 2105.75,477.12Z" style="fill:rgb(26,57,102);fill-rule:nonzero;"/>
            <path d="M2098.48,466.074C2078.48,465.491 2058.38,469.154 2039.9,476.826C2038.46,477.423 2037.43,478.74 2037.88,480.377C2038.25,481.736 2039.98,482.994 2041.43,482.393C2059.49,474.898 2078.94,471.278 2098.48,471.847C2102.2,471.955 2102.2,466.182 2098.48,466.074Z" style="fill:rgb(26,57,102);fill-rule:nonzero;"/>
            <path d="M2188.55,468.577C2193.85,469.189 2199.49,467.094 2203.14,463.208C2207.02,459.072 2208.55,453.404 2207.66,447.857C2207.42,446.362 2205.48,445.397 2204.11,445.841C2202.49,446.366 2201.84,447.789 2202.1,449.392C2202.21,450.08 2202.1,449.053 2202.13,449.69C2202.15,449.958 2202.17,450.225 2202.18,450.493C2202.2,451.03 2202.19,451.567 2202.15,452.103C2202.15,452.159 2202.04,453.027 2202.14,452.403C2202.1,452.668 2202.05,452.934 2202,453.197C2201.89,453.723 2201.76,454.244 2201.59,454.757C2201.51,455.013 2201.42,455.264 2201.33,455.519C2201.14,456.093 2201.5,455.224 2201.21,455.821C2200.99,456.266 2200.78,456.705 2200.53,457.131C2200.39,457.363 2200.25,457.591 2200.1,457.815C2200.05,457.894 2199.63,458.505 2199.78,458.288C2199.94,458.074 2199.48,458.653 2199.42,458.727C2199.24,458.93 2199.06,459.127 2198.87,459.32C2198.53,459.673 2198.16,459.997 2197.79,460.321C2197.3,460.748 2198.02,460.195 2197.52,460.524C2197.3,460.673 2197.08,460.83 2196.85,460.973C2196.4,461.26 2195.93,461.522 2195.45,461.759C2195.41,461.776 2194.62,462.126 2195.16,461.907C2194.91,462.009 2194.65,462.103 2194.4,462.19C2193.89,462.366 2193.38,462.514 2192.85,462.635C2192.59,462.695 2192.32,462.739 2192.06,462.795C2191.44,462.925 2192.45,462.786 2191.77,462.839C2190.69,462.921 2189.63,462.929 2188.55,462.804C2187.04,462.631 2185.6,464.256 2185.66,465.691C2185.74,467.403 2186.94,468.391 2188.55,468.577Z" style="fill:rgb(26,57,102);fill-rule:nonzero;"/>
            <path d="M2224.9,455.973C2221.53,457.765 2217.26,457.889 2213.88,456.1C2210.63,454.379 2208.47,451.438 2207.66,447.857C2207.32,446.335 2205.56,445.442 2204.11,445.841C2202.55,446.271 2201.75,447.865 2202.1,449.392C2203.21,454.381 2206.66,458.932 2211.25,461.231C2216.48,463.849 2222.66,463.701 2227.81,460.958C2229.19,460.225 2229.61,458.316 2228.85,457.009C2228.03,455.617 2226.28,455.237 2224.9,455.973Z" style="fill:rgb(26,57,102);fill-rule:nonzero;"/>
            <path d="M2202.99,452.083C2202.72,451.941 2202.45,451.784 2202.19,451.628C2199.87,450.242 2191.61,446.004 2196.13,442.611C2198.9,440.532 2203.27,440.252 2206.6,440.042C2207.5,439.985 2208.4,439.943 2209.31,439.973C2213.18,440.104 2213.26,442.941 2211.7,445.789C2210.38,448.216 2208,452.705 2204.72,452.608C2204.11,452.59 2203.54,452.368 2202.99,452.083Z" style="fill:rgb(26,57,102);fill-rule:nonzero;"/>
            <path d="M2132.85,448.95C2130.89,442.606 2134.19,435.527 2139.88,432.307C2146.2,428.735 2154.64,430.28 2160.09,434.779C2161.29,435.771 2162.99,435.955 2164.17,434.779C2165.19,433.757 2165.38,431.694 2164.17,430.697C2156.69,424.521 2145.69,422.39 2136.97,427.322C2129.11,431.77 2124.58,441.726 2127.28,450.485C2128.38,454.024 2133.95,452.514 2132.85,448.95Z" style="fill:rgb(26,57,102);fill-rule:nonzero;"/>
            <path d="M2277.3,422.128C2276.56,412.712 2268.79,405.061 2259.5,403.851C2249.89,402.598 2240.42,408.413 2235.86,416.712C2234.07,419.97 2239.05,422.886 2240.84,419.626C2244.29,413.36 2251.18,408.78 2258.51,409.508C2264.88,410.142 2271.01,415.599 2271.53,422.128C2271.65,423.683 2272.76,425.015 2274.41,425.015C2275.88,425.015 2277.42,423.691 2277.3,422.128Z" style="fill:rgb(26,57,102);fill-rule:nonzero;"/>
            <path d="M2244.18,791.824C2234.79,802.511 2225.25,813.071 2216.21,824.049C2211.97,829.197 2207.81,834.434 2203.96,839.876C2200.88,844.209 2197.9,848.706 2195.7,853.559C2194.86,855.425 2194.07,857.345 2193.61,859.348C2193,862.011 2193,864.831 2193.16,867.542C2193.37,871.23 2194.11,874.916 2195.92,878.176C2197.7,881.408 2200.55,884.006 2203.81,885.71C2218.52,893.405 2235.87,885.596 2249.01,878.157C2263.53,869.934 2276.29,858.698 2285.96,845.077C2286.86,843.805 2286.18,841.865 2284.92,841.128C2283.47,840.281 2281.88,840.888 2280.97,842.163C2273,853.393 2262.64,862.884 2251.01,870.23C2244.9,874.096 2238.38,877.546 2231.6,880.081C2224.91,882.577 2217.6,884.147 2210.57,882.202C2207.56,881.37 2204.69,879.933 2202.56,877.613C2200.49,875.364 2199.49,872.354 2199.09,869.369C2198.87,867.707 2198.84,866.004 2198.87,864.33C2198.88,863.661 2198.9,862.988 2198.94,862.321C2198.96,862.128 2198.98,861.936 2198.99,861.744C2198.93,862.584 2198.98,861.808 2199.03,861.61C2199.18,860.849 2199.36,860.098 2199.59,859.355C2199.74,858.89 2199.9,858.43 2200.07,857.974C2200.13,857.815 2200.19,857.657 2200.25,857.499C2200.31,857.338 2200.38,857.177 2200.44,857.017C2200.32,857.3 2200.33,857.285 2200.46,856.971C2202.42,852.503 2205.08,848.35 2207.85,844.347C2211.22,839.469 2214.86,834.788 2218.6,830.189C2228.14,818.464 2238.29,807.259 2248.26,795.907C2249.29,794.736 2249.41,792.977 2248.26,791.824C2247.21,790.775 2245.21,790.648 2244.18,791.824Z" style="fill:rgb(26,57,102);fill-rule:nonzero;"/>
            <path d="M2233.52,344.157C2219,342.866 2204.4,342.359 2189.84,343.223C2176.79,343.998 2163.8,345.88 2151.05,348.775C2143.73,350.438 2136.48,352.427 2129.3,354.629C2125.76,355.715 2127.27,361.289 2130.83,360.196C2143.27,356.384 2155.91,353.243 2168.77,351.234C2181.8,349.199 2195,348.421 2208.18,348.584C2216.64,348.688 2225.09,349.181 2233.52,349.93C2235.07,350.068 2236.4,348.505 2236.4,347.044C2236.4,345.367 2235.08,344.296 2233.52,344.157Z" style="fill:rgb(26,57,102);fill-rule:nonzero;"/>
            <path d="M2132.87,495.566C2158.65,501.166 2180.54,521.897 2187.54,547.33C2189.74,555.362 2190.52,564.112 2187.57,571.902C2184.62,579.691 2177.27,586.193 2168.94,586.237C2158.9,586.291 2151.05,577.604 2146.09,568.865C2141.13,560.126 2137.28,550.205 2129.22,544.201C2121.67,538.573 2111.22,537.076 2105.02,529.985C2098.03,521.984 2099.41,508.666 2106.78,501.016C2114.16,493.366 2124.96,493.846 2132.87,495.566Z" style="fill:white;fill-rule:nonzero;"/>
            <path d="M2267.37,478.831C2244.66,489.441 2227.72,511.599 2223.44,536.299C2221.59,546.988 2222.19,558.698 2228.3,567.662C2234.41,576.627 2247.18,581.537 2256.68,576.298C2264.74,571.851 2268.07,562.09 2269.9,553.065C2271.73,544.041 2272.99,534.322 2278.97,527.32C2284.93,520.338 2295.11,516.699 2298.16,508.039C2300.65,500.965 2297.11,492.896 2291.52,487.898C2285.93,482.899 2278.65,480.309 2267.37,478.831Z" style="fill:white;fill-rule:nonzero;"/>
            <path d="M2272.47,564.752C2258.68,562.542 2244.48,563.614 2231.2,567.986C2218.45,572.187 2205.82,579.321 2196.83,589.444C2192.4,594.425 2188.77,600.376 2187.5,606.992C2186.38,612.81 2187.22,618.865 2189.87,624.163C2192.54,629.484 2197.36,633.79 2203.23,635.134C2210.48,636.79 2217.93,634.363 2224.19,630.755C2231.2,626.716 2237.33,621.105 2244.98,618.231C2252.5,615.407 2260.71,614.732 2268.56,616.44C2272.18,617.228 2273.73,611.663 2270.1,610.873C2263.2,609.373 2256.09,609.383 2249.2,610.942C2242.26,612.513 2236.14,615.854 2230.31,619.836C2224.7,623.666 2219.11,627.868 2212.36,629.406C2206.89,630.652 2201.41,629.499 2197.57,625.299C2194.35,621.784 2192.78,616.838 2192.76,612.138C2192.74,606.459 2195.2,601.073 2198.49,596.514C2202.07,591.552 2206.87,587.431 2211.87,583.96C2217.1,580.328 2222.78,577.276 2228.72,574.986C2242.08,569.839 2256.77,568.049 2270.94,570.319C2272.47,570.565 2274.04,569.922 2274.49,568.303C2274.87,566.928 2274.02,565 2272.47,564.752Z" style="fill:rgb(26,57,102);fill-rule:nonzero;"/>
            <path d="M2204.32,599.075C2197.63,603.307 2192.08,609.314 2188.51,616.398C2187.83,617.745 2188.11,619.589 2189.54,620.347C2190.86,621.041 2192.77,620.752 2193.49,619.312C2194.32,617.673 2195.25,616.089 2196.28,614.574C2196.53,614.214 2196.78,613.857 2197.04,613.505C2197.17,613.329 2197.3,613.156 2197.43,612.979C2197.62,612.722 2197.21,613.248 2197.54,612.839C2198.12,612.125 2198.7,611.421 2199.32,610.741C2200.52,609.415 2201.81,608.168 2203.18,607.01C2203.51,606.728 2203.85,606.453 2204.19,606.18C2204.84,605.657 2203.94,606.354 2204.33,606.069C2204.51,605.94 2204.68,605.807 2204.85,605.678C2205.63,605.11 2206.43,604.573 2207.24,604.06C2208.51,603.253 2209.14,601.452 2208.27,600.11C2207.45,598.833 2205.69,598.212 2204.32,599.075Z" style="fill:rgb(26,57,102);fill-rule:nonzero;"/>
            <path d="M2213.21,612.179C2206.44,615.972 2200.78,621.767 2197.19,628.651C2196.49,629.988 2196.8,631.848 2198.23,632.6C2199.55,633.302 2201.43,632.994 2202.18,631.564C2203.01,629.969 2203.95,628.434 2205,626.974C2205.12,626.808 2205.24,626.643 2205.36,626.479C2205.51,626.283 2205.68,626.061 2205.43,626.381C2205.71,626.027 2205.99,625.678 2206.28,625.334C2206.86,624.646 2207.46,623.978 2208.09,623.333C2208.69,622.717 2209.3,622.122 2209.94,621.548C2210.28,621.248 2210.62,620.953 2210.96,620.665C2211.12,620.534 2211.28,620.404 2211.44,620.276C2211.49,620.233 2212.13,619.729 2211.62,620.121C2213.05,619.024 2214.56,618.042 2216.13,617.164C2217.45,616.425 2218,614.508 2217.16,613.214C2216.3,611.88 2214.62,611.388 2213.21,612.179Z" style="fill:rgb(26,57,102);fill-rule:nonzero;"/>
            <path d="M2058.88,800.284C2036.83,775.214 2031.02,741.256 2029.08,708.986C2026.81,671.275 2026.86,633.301 2028.92,595.587C2031.12,555.292 2035.75,515.16 2042.16,475.324C2045.42,455.028 2049.14,434.806 2053.19,414.654C2055.24,404.481 2057.38,394.326 2059.59,384.187C2060.68,379.217 2061.55,374.158 2062.93,369.262C2064.2,364.782 2065.74,360.337 2067.35,355.969C2071.72,344.072 2075.73,328.826 2087.8,322.401C2091.15,320.618 2095.35,319.335 2099.16,319.924C2103.49,320.592 2107.58,323.674 2111.1,326.113C2118.55,331.287 2125.1,337.67 2131.15,344.403C2134.03,347.609 2136.8,350.916 2139.52,354.258C2141.87,357.141 2145.93,353.035 2143.6,350.176C2137.78,343.025 2131.72,336.033 2124.88,329.822C2121.45,326.701 2117.82,323.775 2114.01,321.128C2110.22,318.494 2106.02,315.602 2101.47,314.518C2093.78,312.687 2085.34,316.158 2079.53,321.125C2074.28,325.62 2070.77,331.85 2068.05,338.112C2064.98,345.184 2062.43,352.522 2059.92,359.808C2056.57,369.56 2054.66,379.64 2052.5,389.71C2047.99,410.743 2043.81,431.85 2040.09,453.037C2032.86,494.154 2027.34,535.595 2024.31,577.24C2021.4,617.393 2021.16,657.587 2022.76,697.802C2024.07,730.879 2027.63,766.174 2046.88,794.224C2049.31,797.762 2051.96,801.145 2054.8,804.366C2057.26,807.161 2061.33,803.065 2058.88,800.284Z" style="fill:rgb(26,57,102);fill-rule:nonzero;"/>
            <path d="M2395.19,565.003C2387.84,541.025 2379.71,517.286 2371,493.768C2361.89,469.16 2352.13,444.792 2341.75,420.688C2336.67,408.873 2331.43,397.124 2326.02,385.453C2320.9,374.387 2315.45,363.472 2310.35,352.393C2305.73,342.35 2301.14,332.238 2295.16,322.908C2292.08,318.094 2288.64,313.489 2284.79,309.258C2280.81,304.882 2276.25,300.319 2271.12,297.298C2266.19,294.388 2260.43,293.545 2254.86,294.849C2249.43,296.122 2244.57,299.266 2240.43,302.911C2235.93,306.872 2232.33,311.706 2228.95,316.624C2225.27,321.977 2221.92,327.575 2219.07,333.416C2217.7,336.239 2216.45,339.126 2215.33,342.06C2214.78,343.518 2215.95,345.226 2217.35,345.611C2218.97,346.058 2220.34,345.058 2220.9,343.595C2223.09,337.839 2225.94,332.342 2229.1,327.062C2232.17,321.939 2235.49,316.819 2239.36,312.261C2245.55,304.983 2255.2,297.366 2265.32,300.9C2267.85,301.786 2270.03,303.406 2272.08,305.099C2274.3,306.939 2276.43,308.896 2278.46,310.956C2282.26,314.83 2285.66,319.062 2288.69,323.56C2294.76,332.549 2299.41,342.376 2303.94,352.199C2308.8,362.747 2313.93,373.162 2318.86,383.681C2324.18,395.052 2329.34,406.499 2334.35,418.01C2344.45,441.212 2353.94,464.679 2362.84,488.364C2371.5,511.381 2379.6,534.609 2386.99,558.064C2387.88,560.885 2388.76,563.71 2389.62,566.537C2390.71,570.079 2396.28,568.568 2395.19,565.003Z" style="fill:rgb(26,57,102);fill-rule:nonzero;"/>
            <path d="M2398.66,790.347C2404.33,779.832 2408.99,768.739 2412.87,757.443C2416.88,745.775 2420.08,733.758 2421.83,721.534C2422.74,715.155 2423.31,708.725 2423.14,702.276C2423.04,698.568 2417.26,698.553 2417.36,702.276C2417.67,713.584 2415.83,724.862 2413.19,735.825C2410.32,747.734 2406.43,759.434 2401.66,770.717C2399.26,776.407 2396.61,781.998 2393.67,787.433C2391.91,790.702 2396.89,793.62 2398.66,790.347Z" style="fill:rgb(26,57,102);fill-rule:nonzero;"/>
            <path d="M2283.47,846.507C2302.52,846.73 2321.78,844.09 2339.76,837.62C2344.87,835.779 2349.88,833.634 2354.75,831.202C2358.07,829.54 2355.15,824.559 2351.83,826.217C2335.49,834.387 2317.44,838.848 2299.26,840.241C2294.01,840.644 2288.74,840.795 2283.47,840.734C2279.75,840.69 2279.75,846.463 2283.47,846.507Z" style="fill:rgb(26,57,102);fill-rule:nonzero;"/>
            <path d="M2343.78,822.836C2386.12,843.198 2440.07,833.545 2475.15,802.282C2510.22,771.019 2526.06,720.781 2518.85,674.352C2513.84,642.07 2499.42,605.968 2473.89,585.584C2448.36,565.201 2408.28,561.136 2377.01,570.601C2345.74,580.065 2323.51,609.12 2320.75,641.673C2319.56,655.732 2322.83,670.862 2332.76,680.886C2342.3,690.514 2349.48,701.145 2362.98,702.276C2376.49,703.407 2397.14,695.47 2410.41,698.238C2423.68,701.006 2430.22,705.911 2435.67,718.319C2440.99,730.401 2436.79,754.059 2430.17,765.478C2413.17,794.823 2381.34,801.852 2349.67,789.724C2348.11,799.82 2346.54,809.916 2343.78,822.836Z" style="fill:white;fill-rule:nonzero;"/>
            <path d="M2352.52,831.493C2366.27,837.214 2381.33,839.446 2396.18,838.59C2411.32,837.716 2426.1,833.819 2440,827.81C2453.8,821.84 2466.65,813.664 2478,803.801C2489.44,793.855 2499.15,782 2506.66,768.831C2514.51,755.087 2520.03,739.999 2523.11,724.486C2526.2,708.892 2526.95,692.828 2525.18,677.025C2523.38,660.898 2519.06,645.216 2512.26,630.477C2505.36,615.54 2495.84,601.67 2483.91,590.298C2471.52,578.485 2456.48,569.49 2440.05,564.583C2423.2,559.552 2405.31,559.22 2388.33,563.808C2371.91,568.242 2356.43,576.686 2343.63,587.866C2331.98,598.051 2322.41,610.936 2317.29,625.628C2312.45,639.534 2312.22,654.657 2317.52,668.465C2322.49,681.429 2331.71,693.205 2344.28,699.514C2350.92,702.847 2358.13,704.441 2365.55,704.403C2374.21,704.359 2382.72,702.484 2391.24,701.193C2399.13,699.996 2407.41,699.293 2415.11,701.851C2417.45,702.627 2419.66,703.726 2421.73,705.057C2422.13,705.31 2422.52,705.572 2422.9,705.843C2423.12,705.999 2423.34,706.161 2423.56,706.321C2424.09,706.708 2423.42,706.202 2423.79,706.505C2424.56,707.135 2425.31,707.78 2426.03,708.471C2426.73,709.154 2427.4,709.871 2428.04,710.618C2428.21,710.818 2428.38,711.021 2428.55,711.225C2428.62,711.306 2429.03,711.828 2428.81,711.552C2428.6,711.277 2429,711.805 2429.06,711.89C2429.24,712.133 2429.42,712.377 2429.59,712.625C2430.71,714.239 2431.69,715.953 2432.52,717.733C2432.62,717.94 2432.71,718.148 2432.81,718.356C2432.9,718.569 2433.14,719.144 2432.93,718.615C2433.11,719.076 2433.3,719.54 2433.47,720.008C2433.83,720.988 2434.15,721.983 2434.44,722.989C2435,724.962 2435.41,726.977 2435.69,729.009C2435.62,728.486 2435.68,728.951 2435.71,729.195C2435.74,729.475 2435.77,729.755 2435.8,730.035C2435.85,730.558 2435.9,731.081 2435.93,731.605C2436.01,732.705 2436.04,733.807 2436.05,734.909C2436.05,737.072 2435.93,739.235 2435.68,741.384C2435.65,741.677 2435.61,741.969 2435.57,742.262C2435.64,741.743 2435.57,742.29 2435.54,742.499C2435.45,743.044 2435.37,743.589 2435.27,744.132C2435.07,745.268 2434.83,746.399 2434.57,747.521C2434.05,749.711 2433.4,751.872 2432.65,753.991C2432.46,754.525 2432.26,755.057 2432.05,755.586C2431.96,755.831 2431.86,756.075 2431.76,756.318C2431.7,756.465 2431.4,757.193 2431.6,756.722C2431.13,757.816 2430.64,758.895 2430.11,759.959C2429.08,762.023 2427.95,764.03 2426.7,765.964C2426.07,766.938 2425.41,767.893 2424.72,768.828C2424.54,769.08 2424.35,769.33 2424.16,769.58C2423.85,770.002 2424.29,769.431 2423.96,769.846C2423.57,770.337 2423.18,770.825 2422.77,771.305C2421.27,773.097 2419.65,774.798 2417.93,776.389C2414.48,779.584 2410.94,782.08 2406.46,784.347C2405.91,784.623 2405.36,784.89 2404.81,785.146C2404.55,785.266 2404.29,785.382 2404.03,785.497C2403.9,785.555 2403.77,785.612 2403.64,785.668C2403.2,785.859 2403.99,785.526 2403.54,785.71C2402.34,786.206 2401.12,786.656 2399.89,787.06C2397.43,787.863 2394.92,788.484 2392.38,788.924C2390.07,789.322 2387.56,789.56 2384.86,789.629C2382.01,789.702 2379.15,789.564 2376.31,789.261C2374.76,789.095 2373.42,790.706 2373.42,792.147C2373.42,793.846 2374.75,794.868 2376.31,795.034C2387.32,796.208 2398.48,794.59 2408.49,789.769C2417.29,785.526 2424.72,778.83 2430.33,770.872C2435.62,763.373 2439.28,754.578 2440.86,745.541C2442.37,736.91 2442.22,727.811 2439.38,719.454C2436.66,711.437 2431.57,704.412 2424.35,699.883C2410.72,691.333 2394.65,694.872 2379.8,697.241C2372.11,698.466 2364.08,699.439 2356.39,697.757C2350.22,696.407 2344.37,693.564 2339.45,689.596C2328.97,681.157 2322.16,668.681 2319.95,655.478C2317.59,641.411 2321.58,626.874 2328.64,614.71C2336.21,601.676 2347.37,590.83 2360.02,582.744C2374.52,573.485 2391.29,567.186 2408.57,566.371C2425.29,565.583 2442.02,569.805 2456.74,577.657C2471.08,585.304 2483.45,596.354 2493.11,609.394C2502.68,622.316 2509.84,636.989 2514.4,652.401C2518.79,667.247 2520.72,682.731 2520.3,698.201C2519.87,713.718 2517.02,729.132 2511.83,743.764C2506.73,758.134 2499.26,771.799 2489.6,783.617C2480.53,794.714 2469.58,804.242 2457.52,811.953C2445.08,819.899 2431.46,825.976 2417.13,829.557C2403.3,833.016 2388.68,834.12 2374.56,831.794C2367.52,830.635 2360.64,828.666 2354.06,825.927C2352.62,825.327 2350.88,826.573 2350.51,827.943C2350.05,829.604 2351.08,830.892 2352.52,831.493Z" style="fill:rgb(26,57,102);fill-rule:nonzero;"/>
            <path d="M2082.6,881.153C2084.58,880.219 2086.39,878.953 2087.91,877.372C2094.09,870.957 2116.03,850.463 2124.04,835.138C2133.46,817.101 2133.97,799.841 2136.45,779.643C2142.16,733.119 2136.99,678.897 2133.75,617.512C2128.39,540.316 2115.3,481.927 2094.91,406.398C2094.65,405.439 2094.31,404.486 2093.89,403.584C2081.46,376.65 2072.58,370.273 2057.85,380.685C2045.67,389.291 2040.59,417.431 2038.66,416.999C2026.53,414.281 2015.59,412.748 2008.74,411.961C1991.01,409.924 1986.24,411.662 1961.62,411.662C1961.16,411.662 1956.4,398.883 1954.47,394.863C1927.87,339.31 1898.56,373.219 1891.22,385.228C1866,426.477 1842.66,475.829 1827.32,520.615C1805.2,585.202 1786.6,612.128 1773.23,688.044C1769.04,711.834 1764.18,753.112 1765.35,777.241C1768.31,838.705 1815.61,886.055 1824.51,889.883C1843.75,898.16 1923.3,956.067 2082.6,881.153Z" style="fill:white;fill-rule:nonzero;"/>
            <path d="M2085.88,596.298C2098.28,591.472 2111.66,589.779 2124.89,591.223C2137.37,592.585 2150.49,596.84 2160.53,604.553C2164.88,607.89 2168.91,612.304 2170.82,617.523C2172.52,622.164 2172.6,627.318 2170.89,631.96C2169.11,636.789 2165.23,640.091 2160.19,641.148C2153.71,642.507 2147.02,640.159 2141.08,637.779C2137.49,636.339 2133.94,634.763 2130.26,633.557C2126.48,632.319 2122.56,631.573 2118.59,631.303C2110.71,630.767 2102.85,632.354 2095.69,635.609C2094.27,636.253 2093.92,638.311 2094.65,639.558C2095.51,641.017 2097.18,641.24 2098.6,640.593C2104.99,637.691 2112.11,636.561 2119.09,637.112C2126.51,637.698 2133.21,640.834 2140.03,643.542C2146.64,646.163 2153.65,648.063 2160.8,646.885C2166.98,645.867 2172.36,642.015 2175.2,636.416C2177.87,631.152 2178.49,625.063 2177.32,619.308C2176.09,613.234 2172.46,607.757 2168.07,603.482C2163.44,598.969 2157.82,595.53 2151.97,592.849C2145.44,589.863 2138.59,587.671 2131.53,586.4C2115.77,583.563 2099.29,584.916 2084.34,590.731C2082.89,591.295 2081.88,592.668 2082.33,594.282C2082.71,595.668 2084.42,596.866 2085.88,596.298Z" style="fill:rgb(26,57,102);fill-rule:nonzero;"/>
            <path d="M2155.96,615.685C2156.41,615.852 2156.86,616.024 2157.31,616.203C2157.44,616.259 2157.7,616.368 2157.42,616.246C2157.64,616.341 2157.86,616.439 2158.08,616.538C2158.87,616.895 2159.65,617.277 2160.41,617.684C2162.03,618.543 2163.59,619.51 2165.08,620.577C2165.43,620.83 2165.78,621.086 2166.13,621.352C2165.89,621.165 2166.12,621.35 2166.23,621.435C2166.41,621.586 2166.6,621.738 2166.79,621.891C2167.49,622.476 2168.18,623.083 2168.84,623.714C2170.17,624.976 2171.41,626.328 2172.56,627.754C2173.51,628.934 2175.66,628.819 2176.64,627.754C2177.79,626.5 2177.66,624.93 2176.64,623.672C2171.64,617.478 2164.94,612.854 2157.49,610.118C2156.07,609.597 2154.27,610.701 2153.94,612.134C2153.57,613.766 2154.43,615.127 2155.96,615.685Z" style="fill:rgb(26,57,102);fill-rule:nonzero;"/>
            <path d="M2150.03,630.367C2150.86,630.624 2151.69,630.905 2152.5,631.218C2152.73,631.305 2152.95,631.395 2153.18,631.486C2153.63,631.668 2152.84,631.339 2153.29,631.533C2153.69,631.707 2154.09,631.888 2154.48,632.076C2156.1,632.848 2157.67,633.738 2159.16,634.733C2160.74,635.787 2161.52,636.391 2162.93,637.674C2164.27,638.878 2165.5,640.179 2166.65,641.56C2167.62,642.725 2169.75,642.637 2170.73,641.56C2171.87,640.321 2171.77,638.721 2170.73,637.477C2165.75,631.49 2158.99,627.092 2151.56,624.8C2150.12,624.355 2148.35,625.328 2148.01,626.816C2147.65,628.381 2148.48,629.891 2150.03,630.367Z" style="fill:rgb(26,57,102);fill-rule:nonzero;"/>
            <path d="M1950.61,415.385C1964.97,414.108 1979.41,413.598 1993.82,414.424C2006.6,415.157 2019.28,417.001 2031.76,419.847C2039.01,421.5 2046.18,423.472 2053.29,425.651C2056.85,426.742 2058.38,421.171 2054.83,420.084C2042.25,416.228 2029.46,413.058 2016.45,411.053C2003.13,409.001 1989.67,408.108 1976.19,408.263C1967.65,408.361 1959.12,408.855 1950.61,409.612C1949.06,409.75 1947.72,410.84 1947.72,412.499C1947.72,413.953 1949.05,415.524 1950.61,415.385Z" style="fill:rgb(26,57,102);fill-rule:nonzero;"/>
            <path d="M1895.97,539.696C1918.68,550.307 1935.62,572.465 1939.9,597.165C1941.75,607.854 1941.15,619.563 1935.04,628.528C1928.93,637.493 1916.16,642.403 1906.66,637.164C1898.6,632.717 1895.27,622.956 1893.44,613.931C1891.61,604.907 1890.35,595.188 1884.37,588.186C1878.41,581.204 1868.23,577.565 1865.18,568.904C1862.69,561.831 1866.23,553.762 1871.82,548.763C1877.41,543.765 1884.69,541.175 1895.97,539.696Z" style="fill:white;fill-rule:nonzero;"/>
            <path d="M2134.16,586.238C2131.91,565.406 2128.97,544.65 2125.47,523.992C2121.92,502.98 2117.8,482.063 2113.15,461.266C2110.87,451.07 2108.46,440.902 2105.92,430.768C2103.55,421.316 2101.47,411.607 2097.93,402.508C2094.67,394.131 2089.97,386.389 2083.08,380.502C2079.22,377.211 2074.29,375.039 2069.25,374.423C2064.33,373.822 2059.82,375.287 2055.68,377.873C2050.51,381.112 2046.32,385.48 2043.73,391.038C2040.78,397.362 2039.28,404.273 2037.51,410.986C2036.91,413.236 2036.31,415.481 2035.67,417.721C2034.66,421.303 2040.23,422.832 2041.24,419.256C2043.27,412.077 2044.81,404.716 2047.25,397.66C2047.48,396.99 2047.73,396.324 2047.98,395.664C2048.31,394.826 2048.26,394.944 2048.66,394.081C2049.22,392.864 2049.85,391.678 2050.56,390.546C2050.88,390.048 2051.22,389.564 2051.56,389.085C2051.93,388.576 2051.57,389.05 2051.86,388.697C2052.09,388.413 2052.33,388.132 2052.57,387.857C2053.49,386.821 2054.5,385.865 2055.57,384.984C2056.42,384.282 2057.66,383.432 2058.89,382.68C2060.68,381.58 2062.46,380.66 2064.54,380.246C2068.95,379.37 2073.5,381.103 2077.26,383.292C2079.11,384.367 2080.73,386.072 2082.21,387.607C2083.58,389.031 2084.87,390.538 2086.02,392.148C2088.38,395.455 2090.33,399.076 2091.88,402.833C2095.4,411.387 2097.38,420.566 2099.65,429.508C2102.12,439.268 2104.47,449.06 2106.7,458.88C2111.26,478.956 2115.32,499.145 2118.86,519.426C2122.32,539.235 2125.28,559.133 2127.59,579.11C2127.86,581.485 2128.13,583.861 2128.38,586.238C2128.55,587.788 2129.59,589.124 2131.27,589.124C2132.7,589.124 2134.32,587.798 2134.16,586.238Z" style="fill:rgb(26,57,102);fill-rule:nonzero;"/>
            <path d="M2132.09,824.035C2136.75,797.946 2138.76,771.411 2139.67,744.948C2140.51,720.25 2140.31,695.521 2139.47,670.825C2139.12,660.316 2138.64,649.812 2138.08,639.312C2137.88,635.616 2132.11,635.593 2132.31,639.312C2133.41,659.875 2134.17,680.457 2134.37,701.049C2134.63,727.185 2134.08,753.363 2131.93,779.42C2130.75,793.849 2129.07,808.244 2126.52,822.501C2126.25,824.034 2126.94,825.612 2128.54,826.051C2129.93,826.435 2131.81,825.578 2132.09,824.035Z" style="fill:rgb(26,57,102);fill-rule:nonzero;"/>
            <path d="M1795.66,854.172C1791.22,850.706 1788.21,846.143 1785.34,841.476C1776.88,827.7 1772.43,811.682 1770.22,795.775C1767.49,776.169 1768.33,756.125 1770.06,736.47C1771.92,715.398 1775.09,694.399 1779.66,673.743C1782.66,660.186 1786.54,646.794 1790.32,633.437C1796.79,610.623 1804.98,588.146 1813.15,565.898C1830.1,519.745 1849.39,474.536 1870.81,430.287C1880.09,411.132 1887.77,390.843 1903.53,375.853C1907.17,372.387 1911.27,369.113 1915.97,367.176C1920.27,365.403 1926.4,367.34 1930.31,369.499C1934.97,372.077 1938.34,376.908 1941.61,380.994C1945.27,385.564 1948.66,390.366 1951.66,395.395C1954.54,400.218 1957.04,405.248 1959.05,410.494C1960.36,413.93 1965.95,412.439 1964.62,408.96C1960.33,397.766 1954.11,387.624 1946.73,378.217C1943.27,373.809 1939.7,368.9 1935.07,365.665C1931.01,362.831 1925.7,361.301 1920.81,360.766C1915.57,360.192 1910.94,363.137 1906.64,365.744C1901.85,368.645 1897.58,373.343 1893.93,377.536C1886.85,385.667 1881.33,394.953 1876.54,404.578C1871.52,414.658 1866.95,424.969 1862.07,435.114C1856.66,446.353 1851.41,457.674 1846.32,469.062C1835.88,492.412 1826.05,516.04 1816.82,539.891C1802.05,578.039 1788.6,616.739 1777.98,656.251C1772.44,676.847 1768.75,697.956 1766.13,719.11C1763.65,739.161 1762.02,759.539 1762.99,779.751C1763.91,799.011 1767.47,818.504 1775.82,836.004C1779.51,843.75 1784.28,851.657 1790.69,857.492C1790.98,857.753 1791.27,858.015 1791.58,858.254C1794.47,860.514 1798.58,856.457 1795.66,854.172Z" style="fill:rgb(26,57,102);fill-rule:nonzero;"/>
            <path d="M2144.42,844.644C2162.26,849.117 2180.49,851.602 2198.9,850.87C2202.6,850.723 2202.62,844.949 2198.9,845.097C2180.97,845.81 2163.32,843.433 2145.95,839.077C2142.35,838.173 2140.81,843.74 2144.42,844.644Z" style="fill:rgb(26,57,102);fill-rule:nonzero;"/>
            <path d="M1990.83,747.27C2013.75,746.035 2037.34,744.888 2059.05,752.335C2080.76,759.783 2100.42,777.992 2102.43,800.858C2103.26,810.36 2102.35,822.446 2110.9,826.687C2117.94,830.182 2126.02,825.262 2132.67,821.073C2140.06,816.418 2148.2,812.355 2156.93,812.029C2165.66,811.704 2175.04,815.967 2178.46,824.005C2184.07,837.225 2171.86,850.863 2160.4,859.533C2134.19,879.377 2105.6,896.067 2075.43,909.128C2069.11,911.865 2062.22,914.494 2055.49,913.01C2046.51,911.032 2040.73,902.489 2036.28,894.45C2012.55,851.635 1999.69,802.85 1990.83,747.27Z" style="fill:white;fill-rule:nonzero;"/>
            <path d="M2010.64,745.302C2019.09,745.312 2027.56,745.829 2035.86,747.327C2039.45,747.976 2043.01,748.797 2046.51,749.83C2048.08,750.291 2049.63,750.794 2051.16,751.343C2051.88,751.599 2052.59,751.864 2053.3,752.14C2053.67,752.284 2054.04,752.432 2054.41,752.582C2054.59,752.656 2054.77,752.731 2054.96,752.807C2054.6,752.658 2055.08,752.862 2055.21,752.917C2057.9,754.086 2060.52,755.399 2063.04,756.892C2064.24,757.603 2065.42,758.353 2066.57,759.142C2067.09,759.502 2067.61,759.87 2068.13,760.246C2068.36,760.419 2068.6,760.595 2068.83,760.771C2068.97,760.87 2069.1,760.972 2069.23,761.073C2068.78,760.728 2069.25,761.085 2069.33,761.156C2071.31,762.737 2073.19,764.411 2074.96,766.22C2075.82,767.102 2076.65,768.011 2077.46,768.945C2077.83,769.375 2078.19,769.811 2078.55,770.252C2078.74,770.486 2078.93,770.722 2079.11,770.957C2079.53,771.472 2078.93,770.701 2079.42,771.349C2082.14,774.997 2084.48,778.897 2086.44,783.005C2086.9,783.978 2087.34,784.962 2087.77,785.95C2088.07,786.621 2087.61,785.537 2087.88,786.213C2087.97,786.435 2088.07,786.657 2088.16,786.879C2088.38,787.417 2088.59,787.956 2088.8,788.498C2089.55,790.464 2090.24,792.455 2090.88,794.463C2093.14,801.586 2094.64,808.908 2096.65,816.099C2098.12,821.347 2099.99,827.617 2104.8,830.797C2110.86,834.808 2119.26,830.732 2124.94,827.972C2131.9,824.587 2138.54,820.146 2145.98,818.15C2153.02,816.258 2161.76,815.35 2168.24,819.064C2171.77,821.088 2173.93,824.505 2174.62,828.621C2174.8,829.677 2174.85,830.757 2174.85,831.826C2174.85,832.493 2174.83,833.16 2174.78,833.825C2174.76,834.148 2174.7,834.492 2174.7,834.818C2174.7,834.945 2174.64,835.36 2174.71,834.798C2174.78,834.232 2174.63,835.202 2174.59,835.414C2174.52,835.765 2174.43,836.112 2174.33,836.456C2174.12,837.209 2173.84,837.93 2173.56,838.66C2173.91,837.735 2173.42,838.943 2173.3,839.204C2173.1,839.633 2172.88,840.058 2172.66,840.478C2171.72,842.238 2170.62,843.915 2169.45,845.529C2169.14,845.958 2168.82,846.382 2168.5,846.803C2168.89,846.291 2168.41,846.917 2168.28,847.082C2168.09,847.315 2167.9,847.548 2167.71,847.78C2166.92,848.752 2166.1,849.703 2165.26,850.637C2163.43,852.682 2161.5,854.641 2159.51,856.535C2149.04,866.499 2137.23,874.65 2124.77,882.083C2108.18,891.974 2090.61,900.201 2072.55,907.029C2067.46,908.953 2062.34,910.764 2057.18,912.476C2053.67,913.641 2055.17,919.218 2058.71,918.043C2078.6,911.444 2098.05,903.332 2116.51,893.393C2130.73,885.739 2144.47,876.992 2156.87,866.607C2164.75,860.003 2172.93,852.391 2177.76,843.164C2180.14,838.635 2181.06,833.981 2180.44,828.837C2179.86,823.987 2177.87,819.304 2174.04,816.126C2170.86,813.483 2167,811.915 2162.93,811.28C2154.63,809.987 2145.93,811.491 2138.27,814.805C2130.89,817.997 2124.04,822.692 2116.53,825.359C2115.75,825.633 2114.97,825.884 2114.17,826.096C2113.78,826.202 2113.37,826.3 2112.97,826.384C2112.77,826.425 2112.58,826.46 2112.38,826.497C2111.86,826.595 2112.44,826.505 2112.14,826.54C2111.46,826.62 2110.79,826.629 2110.1,826.613C2109.93,826.609 2109.76,826.591 2109.59,826.573C2110.16,826.634 2109.73,826.592 2109.6,826.564C2109.24,826.481 2108.89,826.388 2108.54,826.275C2108.13,826.144 2108.94,826.48 2108.56,826.29C2108.41,826.219 2108.27,826.147 2108.13,826.068C2107.91,825.942 2107.64,825.662 2107.41,825.6C2107.95,825.743 2107.95,826.071 2107.63,825.758C2107.52,825.659 2107.41,825.57 2107.3,825.473C2106.91,825.113 2106.6,824.698 2106.23,824.317C2105.87,823.937 2106.65,824.95 2106.37,824.495C2106.3,824.378 2106.2,824.27 2106.13,824.155C2105.96,823.902 2105.79,823.65 2105.63,823.39C2105.31,822.873 2105.03,822.338 2104.76,821.795C2104.62,821.526 2104.5,821.254 2104.38,820.981C2104.32,820.851 2104.26,820.717 2104.2,820.588C2104.02,820.204 2104.35,820.944 2104.35,820.933C2104.3,820.816 2104.25,820.701 2104.2,820.583C2103.95,819.93 2103.7,819.275 2103.47,818.612C2101.16,811.936 2099.87,804.926 2097.99,798.125C2095.6,789.505 2092.47,780.981 2087.76,773.342C2082.22,764.387 2074.59,756.927 2065.49,751.636C2052.99,744.372 2038.53,741.233 2024.25,740.062C2019.72,739.691 2015.18,739.534 2010.64,739.529C2006.93,739.524 2006.92,745.297 2010.64,745.302Z" style="fill:rgb(26,57,102);fill-rule:nonzero;"/>
            <path d="M1847.8,800.274C1843.35,815.738 1843.99,850.058 1858.56,856.892C1873.13,863.726 1890.43,862.084 1905.62,856.768C1920.8,851.451 1934.53,842.762 1948.84,835.395C1963.74,827.718 1979.37,821.439 1995.44,816.668C2009.41,812.52 2024.39,809.519 2038.46,813.327C2059.22,818.948 2074.07,839.464 2076.11,860.878C2078.15,882.292 2068.77,903.789 2054.03,919.458C2039.29,935.128 2004.67,954.317 1984.31,961.252C1946.1,974.267 1916.64,969.276 1877.51,959.383C1855.46,953.81 1836.36,942.209 1819.79,926.64C1803.21,911.071 1792.09,888.799 1793.31,866.09C1794.53,843.381 1819.42,803.812 1847.8,800.274Z" style="fill:white;fill-rule:nonzero;"/>
            <path d="M1835.24,829.181C1836.22,840.84 1843.22,850.784 1852.77,857.227C1863.53,864.48 1876.82,866.175 1889.46,864.452C1903.53,862.535 1916.53,856.59 1928.88,849.849C1941.22,843.118 1953.21,835.868 1966.08,830.173C1978.66,824.61 1991.88,819.963 2005.35,817.109C2017.43,814.548 2030.32,813.611 2042.27,817.307C2052.56,820.49 2061.09,827.313 2066.62,836.524C2071.85,845.223 2074.41,855.385 2074.52,865.498C2074.77,888.754 2061.16,909.125 2044.2,923.954C2025.85,940.006 2003.03,951.093 1979.61,957.53C1955.77,964.087 1930.6,965.821 1906.08,962.561C1882.1,959.375 1858.31,951.392 1838.02,938.088C1819.43,925.897 1803.35,908.193 1797.89,886.203C1793.22,867.34 1795.35,844.855 1807.45,829.058C1810.17,825.5 1813.51,822.306 1817.23,819.789C1820.29,817.717 1817.4,812.713 1814.31,814.804C1796.54,826.84 1789.38,849.213 1789.93,869.892C1790.22,880.609 1792.53,891.191 1796.98,900.949C1801.94,911.797 1809.33,921.48 1817.98,929.643C1835.95,946.593 1859.16,957.611 1882.88,963.839C1907.68,970.35 1933.73,971.532 1959.07,967.755C1984.21,964.007 2008.74,955.156 2030.22,941.494C2050.81,928.392 2069.5,910.071 2077.16,886.351C2083.78,865.856 2080.03,841.108 2065.18,825.022C2056.85,816.008 2045.44,811.072 2033.38,809.596C2020.32,807.997 2006.94,810.346 1994.38,813.88C1980.47,817.794 1966.91,823.084 1953.96,829.503C1941.01,835.924 1928.87,843.854 1915.83,850.09C1903.34,856.059 1889.55,860.343 1875.56,859.138C1864.28,858.165 1853.14,852.758 1846.48,843.387C1843.5,839.189 1841.45,834.342 1841.01,829.181C1840.88,827.628 1839.78,826.295 1838.12,826.295C1836.66,826.295 1835.1,827.619 1835.24,829.181Z" style="fill:rgb(26,57,102);fill-rule:nonzero;"/>
            <path d="M1779.68,600.382C1810.28,627.438 1844.76,649.874 1880.96,668.683C1919.94,688.941 1961,705.204 2002.9,718.351C2046.67,732.088 2091.51,742.432 2136.79,749.774C2181.73,757.06 2227.15,761.494 2272.66,762.712C2315.12,763.849 2357.74,762.243 2399.9,756.883C2405.05,756.228 2410.19,755.523 2415.32,754.766C2418.41,754.31 2420.11,750.407 2419.35,747.664C2418.44,744.355 2415.35,743.175 2412.25,743.632C2371.36,749.668 2329.9,751.868 2288.58,751.459C2244.15,751.019 2199.72,747.512 2155.76,741.091C2110.91,734.539 2066.45,725.062 2022.94,712.356C1981.11,700.143 1940.07,684.961 1900.9,665.826C1864.75,648.162 1829.88,627.188 1798.78,601.559C1795.08,598.51 1791.44,595.394 1787.85,592.218C1782.3,587.312 1774.1,595.448 1779.68,600.382Z" style="fill:rgb(242,107,96);fill-rule:nonzero;"/>
            <path d="M2388.44,531.636C2354.56,565.467 2317.36,595.865 2277.14,621.874C2239.22,646.401 2198.8,667.092 2156.69,683.431C2115.98,699.229 2073.78,711.106 2030.88,719.233C1988.86,727.192 1946.21,731.476 1903.47,732.549C1861.47,733.603 1819.42,731.549 1777.69,726.732C1772.62,726.146 1767.55,725.517 1762.49,724.852C1759.4,724.446 1756.72,727.797 1756.72,730.626C1756.72,734.083 1759.39,735.991 1762.49,736.399C1804.48,741.914 1846.83,744.689 1889.19,744.334C1932.57,743.969 1975.93,740.295 2018.72,733.091C2061.97,725.81 2104.6,714.782 2145.83,699.799C2188.69,684.22 2230.05,664.475 2268.96,640.661C2310.09,615.485 2348.49,585.826 2383.45,552.623C2387.89,548.406 2392.27,544.128 2396.61,539.801C2401.87,534.544 2393.71,526.377 2388.44,531.636Z" style="fill:rgb(242,107,96);fill-rule:nonzero;"/>
            <path d="M1812.37,524.945C1837.69,553.642 1864.88,580.67 1893.53,606.04C1923.65,632.712 1955.38,657.583 1988.35,680.63C2022.22,704.305 2057.46,726.031 2093.8,745.705C2130.95,765.817 2169.26,783.754 2208.49,799.438C2248.13,815.29 2288.74,828.755 2330.05,839.557C2335.16,840.894 2340.28,842.187 2345.42,843.444C2352.63,845.211 2355.71,834.08 2348.49,832.31C2307.26,822.215 2266.69,809.491 2227.04,794.354C2188.01,779.456 2149.9,762.185 2112.9,742.805C2076.31,723.641 2040.8,702.407 2006.61,679.221C1973.74,656.925 1942.11,632.816 1912.02,606.893C1883.05,581.944 1855.49,555.346 1829.76,527.071C1826.66,523.665 1823.58,520.234 1820.54,516.78C1818.47,514.441 1814.48,514.672 1812.37,516.78C1810.05,519.103 1810.3,522.6 1812.37,524.945Z" style="fill:rgb(242,107,96);fill-rule:nonzero;"/>
            <path d="M2059.26,716.795C2052.12,706.374 2045.52,695.565 2039.85,684.267C2038.49,681.559 2037.19,678.824 2035.95,676.062C2035.33,674.684 2034.72,673.299 2034.13,671.907C2034.58,672.968 2034.14,671.927 2034.03,671.661C2033.87,671.274 2033.71,670.886 2033.56,670.497C2033.24,669.721 2032.93,668.943 2032.63,668.162C2030.39,662.411 2028.43,656.547 2026.82,650.586C2025.22,644.653 2023.97,638.624 2023.14,632.536C2023.31,633.78 2023.15,632.653 2023.12,632.341C2023.06,631.928 2023.02,631.516 2022.97,631.103C2022.89,630.443 2022.82,629.781 2022.76,629.119C2022.59,627.462 2022.46,625.802 2022.36,624.14C2022.18,621.166 2022.1,618.183 2022.14,615.203C2022.19,612.404 2022.35,609.607 2022.64,606.823C2022.72,606.073 2022.77,605.303 2022.9,604.559C2022.87,604.745 2022.72,605.824 2022.88,604.739C2022.93,604.438 2022.97,604.137 2023.02,603.837C2023.25,602.335 2023.53,600.839 2023.84,599.352C2024.43,596.609 2025.15,593.895 2026.04,591.234C2026.44,590.015 2026.88,588.807 2027.36,587.614C2027.37,587.581 2027.93,586.203 2027.58,587.047C2027.23,587.89 2027.81,586.524 2027.83,586.491C2028.13,585.803 2028.45,585.12 2028.79,584.443C2030.01,581.94 2031.41,579.52 2032.99,577.219C2033.38,576.657 2033.78,576.107 2034.18,575.556C2034.8,574.698 2034.22,575.483 2034.1,575.639C2034.34,575.34 2034.57,575.043 2034.81,574.749C2035.73,573.624 2036.7,572.537 2037.71,571.494C2038.61,570.564 2039.55,569.674 2040.53,568.83C2040.8,568.597 2041.08,568.368 2041.36,568.142C2041.51,568.02 2042.23,567.435 2041.61,567.926C2040.89,568.498 2042.01,567.635 2042.06,567.601C2042.41,567.347 2042.76,567.099 2043.11,566.856C2045.3,565.355 2047.63,564.053 2050.06,562.972C2050.42,562.809 2051.15,562.287 2050.06,562.965C2050.28,562.831 2050.64,562.735 2050.86,562.65C2051.47,562.421 2052.07,562.205 2052.68,562.003C2053.97,561.579 2055.27,561.215 2056.59,560.918C2057.21,560.778 2057.84,560.653 2058.47,560.543C2058.79,560.487 2059.19,560.354 2059.51,560.374C2059.37,560.365 2058.15,560.526 2059.24,560.416C2060.63,560.274 2062.03,560.177 2063.44,560.18C2064.62,560.182 2065.81,560.245 2066.99,560.371C2067.59,560.435 2068.02,560.153 2066.9,560.351C2067.09,560.318 2067.57,560.459 2067.72,560.487C2068.41,560.609 2069.09,560.753 2069.77,560.92C2070.99,561.224 2072.17,561.638 2073.37,562.05C2074.67,562.5 2072.56,561.657 2073.35,562.032C2073.67,562.183 2074,562.323 2074.32,562.477C2074.97,562.795 2075.61,563.136 2076.24,563.498C2077.34,564.131 2078.55,564.814 2079.5,565.665C2079.37,565.547 2078.56,564.891 2079.36,565.569C2079.58,565.756 2079.8,565.939 2080.02,566.129C2080.63,566.651 2081.21,567.194 2081.78,567.756C2082.71,568.678 2083.59,569.651 2084.42,570.666C2084.64,570.936 2085.34,571.623 2084.46,570.705C2084.65,570.902 2084.83,571.197 2084.98,571.412C2085.41,572.008 2085.82,572.615 2086.21,573.232C2086.93,574.347 2087.59,575.495 2088.2,576.67C2088.5,577.259 2088.79,577.855 2089.07,578.456C2089.22,578.785 2089.41,579.121 2089.53,579.464C2089.22,578.545 2089.4,579.16 2089.62,579.72C2090.66,582.401 2091.45,585.176 2092.02,587.996C2092.19,588.878 2092.33,589.763 2092.49,590.649C2092.52,590.853 2092.64,591.784 2092.51,590.716C2092.55,591.072 2092.59,591.43 2092.63,591.787C2092.83,593.576 2092.95,595.373 2093.01,597.172C2093.13,600.516 2093.02,603.865 2092.76,607.199C2092.64,608.824 2092.48,610.447 2092.29,612.065C2092.23,612.515 2092.18,612.963 2092.12,613.412C2092.1,613.613 2091.97,614.549 2092.12,613.489C2091.99,614.371 2091.87,615.252 2091.73,616.133C2091.22,619.471 2090.61,622.794 2089.92,626.099C2087.22,638.977 2083.22,651.549 2078.53,663.834C2077.32,667.004 2076.07,670.156 2074.78,673.294C2074.5,673.955 2074.23,674.615 2073.95,675.276C2073.78,675.688 2073.61,676.1 2073.44,676.512C2073.04,677.467 2073.96,675.28 2073.29,676.863C2072.62,678.426 2071.95,679.988 2071.27,681.547C2068.59,687.697 2065.81,693.802 2062.99,699.89C2061.64,702.806 2060.28,705.718 2058.92,708.63C2057.65,711.361 2058.06,714.981 2060.99,716.528C2063.55,717.879 2067.53,717.378 2068.89,714.457C2075.81,699.654 2084.24,685.44 2094.16,672.446C2094.27,672.304 2094.48,672.113 2094.54,671.948C2094.22,672.769 2094.1,672.524 2094.41,672.126C2094.75,671.687 2095.09,671.248 2095.44,670.812C2096.13,669.94 2096.83,669.075 2097.54,668.216C2098.96,666.506 2100.4,664.823 2101.89,663.173C2104.8,659.93 2107.85,656.81 2111.08,653.872C2112.65,652.442 2114.25,651.055 2115.91,649.722C2116.31,649.397 2116.76,649.098 2117.13,648.746C2117.13,648.747 2116.23,649.436 2116.74,649.052C2116.95,648.896 2117.15,648.738 2117.36,648.582C2118.24,647.925 2119.12,647.285 2120.02,646.662C2123.25,644.427 2126.64,642.417 2130.19,640.75C2130.63,640.545 2131.07,640.348 2131.52,640.149C2132.71,639.614 2130.68,640.47 2131.63,640.098C2132.58,639.729 2133.52,639.362 2134.48,639.034C2136.27,638.426 2138.08,637.915 2139.92,637.517C2140.32,637.43 2140.72,637.348 2141.12,637.274C2141.38,637.227 2141.63,637.188 2141.88,637.141C2143,636.934 2141.5,637.219 2141.5,637.185C2141.49,637.112 2144.32,636.97 2144.6,636.964C2145.64,636.941 2146.68,636.971 2147.72,637.048C2148.24,637.087 2148.77,637.198 2149.28,637.204C2149.29,637.204 2148.07,637.011 2148.72,637.133C2149.04,637.194 2149.36,637.237 2149.68,637.297C2150.7,637.487 2151.72,637.726 2152.72,638.014C2153.26,638.17 2155.38,638.552 2155.65,639.024C2155.51,638.786 2154.6,638.546 2155.33,638.894C2155.56,639.004 2155.8,639.107 2156.03,639.218C2156.49,639.439 2156.94,639.672 2157.39,639.918C2158.27,640.406 2159.13,640.943 2159.96,641.53C2160.07,641.612 2160.53,641.885 2160.56,641.976C2160.56,641.957 2159.47,641.057 2160.28,641.775C2160.6,642.067 2160.94,642.344 2161.26,642.643C2161.46,642.838 2163.54,644.758 2163.41,644.965C2163.4,644.991 2162.57,643.774 2163.19,644.688C2163.32,644.895 2163.47,645.095 2163.61,645.303C2163.85,645.668 2164.08,646.04 2164.3,646.42C2164.55,646.858 2164.77,647.307 2165,647.757C2165.03,647.809 2165.27,648.232 2165.24,648.274C2164.94,647.538 2164.86,647.373 2165.02,647.779C2165.1,647.981 2165.18,648.184 2165.25,648.389C2165.63,649.472 2165.83,650.569 2166.1,651.678C2166.31,652.499 2166.02,650.639 2166.09,651.482C2166.11,651.707 2166.14,651.931 2166.16,652.155C2166.22,652.905 2166.24,653.658 2166.23,654.41C2166.22,654.938 2166.19,655.466 2166.15,655.993C2166.13,656.295 2166.09,656.596 2166.06,656.897C2165.98,657.745 2166.27,655.884 2166.08,656.715C2165.8,657.912 2165.59,659.105 2165.23,660.284C2165.05,660.873 2164.85,661.455 2164.64,662.032C2164.57,662.204 2164.23,663.133 2164.5,662.419C2164.76,661.756 2164.48,662.477 2164.43,662.581C2163.88,663.776 2163.28,664.943 2162.6,666.071C2162,667.063 2161.35,668.004 2160.67,668.941C2161.44,667.87 2160.25,669.426 2160.08,669.633C2159.61,670.181 2159.13,670.716 2158.63,671.24C2156.93,673.047 2155.07,674.693 2153.13,676.245C2152.29,676.923 2152.99,676.355 2153.16,676.228C2152.9,676.42 2152.64,676.615 2152.38,676.805C2151.86,677.187 2151.34,677.562 2150.81,677.93C2149.75,678.67 2148.67,679.383 2147.58,680.076C2143.01,682.98 2138.25,685.6 2133.48,688.151C2128.48,690.821 2123.41,693.36 2118.28,695.766C2115.72,696.969 2113.14,698.138 2110.54,699.274C2109.98,699.522 2109.41,699.769 2108.84,700.014C2108.51,700.154 2108.19,700.294 2107.86,700.433C2107.72,700.491 2106.7,700.924 2107.33,700.66C2107.9,700.419 2107.09,700.76 2107.04,700.781C2106.71,700.917 2106.39,701.054 2106.06,701.19C2105.32,701.495 2104.58,701.797 2103.85,702.097C2093.43,706.325 2082.79,710.016 2071.99,713.145C2069.27,713.934 2066.54,714.685 2063.8,715.404C2060.88,716.17 2058.82,719.563 2059.77,722.505C2060.74,725.511 2063.74,727.359 2066.87,726.537C2089.95,720.479 2112.39,711.902 2133.66,701.069C2143.89,695.858 2154.41,690.412 2163.15,682.878C2171.61,675.59 2178.04,664.976 2177.77,653.506C2177.52,642.873 2171.1,633.546 2161.51,629.084C2152.6,624.94 2142.83,624.486 2133.44,627.255C2116.19,632.343 2101.96,645.148 2090.58,658.612C2079,672.312 2069.29,687.63 2061.31,703.678C2060.49,705.318 2059.7,706.969 2058.92,708.63C2062.25,710.572 2065.57,712.515 2068.89,714.457C2080.73,689.094 2092.72,663.455 2099.45,636.174C2101.1,629.528 2102.4,622.805 2103.32,616.021C2104.32,608.703 2104.96,601.32 2104.38,593.935C2103.36,580.908 2098.83,567.733 2089,558.689C2084.42,554.479 2078.89,551.286 2072.84,549.787C2066.76,548.281 2060.47,548.369 2054.35,549.606C2042,552.104 2031.61,559.748 2024.21,569.728C2008.97,590.263 2008.57,618.375 2013.12,642.486C2018.01,668.359 2029.81,692.652 2043.99,714.654C2045.71,717.336 2047.48,719.991 2049.29,722.623C2050.99,725.109 2054.44,726.467 2057.19,724.694C2059.66,723.099 2061.08,719.459 2059.26,716.795Z" style="fill:rgb(242,107,96);fill-rule:nonzero;"/>
            <path d="M2011.46,720.229C1993.28,728.051 1976.39,738.531 1961.15,751.146C1954,757.067 1947.1,763.983 1942.89,772.365C1940.64,776.827 1939.19,781.534 1938.91,786.538C1938.64,791.32 1939.74,796.003 1941.74,800.321C1945.19,807.793 1952.24,813.571 1959.65,816.84C1968.09,820.558 1977.3,821.933 1986.49,820.945C1996.33,819.886 2005.93,816.693 2014.13,811.066C2021.37,806.099 2027.31,799.79 2032.34,792.624C2037.06,785.888 2040.79,778.508 2044.14,771.012C2045.95,766.958 2047.67,762.859 2049.36,758.754C2050.17,756.796 2050.97,754.836 2051.78,752.878C2052.17,751.936 2052.56,750.994 2052.95,750.053C2053.14,749.584 2053.34,749.115 2053.53,748.646C2053.62,748.446 2053.7,748.245 2053.79,748.044C2054.11,747.275 2053.24,749.335 2053.8,748.023C2054.59,746.169 2055.39,744.32 2056.21,742.481C2052.62,741.51 2049.04,740.539 2045.45,739.567C2044.28,757.052 2046.06,774.809 2050.63,791.728C2054.46,805.919 2060.05,820.648 2070.74,831.171C2075.55,835.915 2081.62,839.811 2088.31,841.175C2090.22,841.562 2092.21,841.864 2094.16,841.872C2097.97,841.888 2099.61,839.139 2101.21,836.193C2103.15,832.636 2104.72,828.825 2105.88,824.948C2110.37,809.942 2109.02,793.344 2103.97,778.661C2097.91,761.071 2087.3,745.73 2076.1,731.06C2075.15,729.812 2074.23,728.842 2072.65,728.407C2071.27,728.027 2069.43,728.199 2068.21,728.989C2065.84,730.514 2064.18,734.32 2066.13,736.888C2075.17,748.732 2083.94,760.978 2090.05,774.634C2090.23,775.019 2090.4,775.405 2090.56,775.792C2090.68,776.054 2091.11,777.101 2090.67,776.044C2090.99,776.826 2091.31,777.608 2091.61,778.396C2092.34,780.278 2093.01,782.183 2093.61,784.108C2094.65,787.417 2095.48,790.792 2096.08,794.208C2096.22,794.987 2096.34,795.768 2096.46,796.55C2096.71,798.131 2096.34,795.305 2096.5,796.896C2096.54,797.21 2096.58,797.524 2096.61,797.839C2096.82,799.722 2096.95,801.613 2097,803.507C2097.11,806.895 2096.9,810.238 2096.56,813.607C2096.47,814.557 2096.79,812.192 2096.55,813.696C2096.45,814.311 2096.36,814.927 2096.25,815.54C2096.09,816.458 2095.9,817.372 2095.69,818.281C2095.28,820.094 2094.78,821.887 2094.18,823.649C2093.88,824.531 2093.55,825.394 2093.22,826.266C2092.68,827.726 2093.73,825.179 2093.09,826.601C2092.9,827.026 2092.71,827.45 2092.51,827.871C2091.64,829.704 2090.66,831.475 2089.58,833.192C2091.24,832.239 2092.9,831.286 2094.57,830.333C2093.76,830.318 2092.97,830.258 2092.17,830.194C2090.8,830.085 2093.49,830.462 2092.15,830.185C2091.77,830.106 2091.38,830.045 2091,829.961C2090.38,829.823 2089.75,829.66 2089.14,829.474C2088.77,829.362 2088.4,829.243 2088.04,829.115C2087.8,829.03 2087.56,828.942 2087.32,828.85C2086.74,828.617 2086.84,828.665 2087.63,828.995C2087.27,829.039 2086.23,828.335 2085.9,828.166C2085.22,827.81 2084.55,827.425 2083.89,827.017C2083.34,826.673 2082.8,826.313 2082.27,825.937C2082,825.743 2080.87,825.1 2082.18,825.901C2081.75,825.634 2081.35,825.23 2080.96,824.899C2079.84,823.943 2078.78,822.921 2077.77,821.851C2077.21,821.257 2076.67,820.648 2076.14,820.026C2075.96,819.817 2075.79,819.607 2075.61,819.395C2075.41,819.141 2074.16,817.811 2075.24,818.941C2074.21,817.87 2073.42,816.419 2072.61,815.172C2071.71,813.755 2070.85,812.301 2070.05,810.82C2069.25,809.343 2068.5,807.838 2067.8,806.31C2067.52,805.686 2067.18,805.057 2066.96,804.407C2067.47,805.865 2067.02,804.54 2066.9,804.261C2066.7,803.755 2066.5,803.246 2066.3,802.736C2064.86,798.967 2063.6,795.125 2062.48,791.249C2061.34,787.287 2060.36,783.279 2059.53,779.237C2059.14,777.305 2058.78,775.364 2058.46,773.418C2058.29,772.356 2058.14,771.291 2057.98,770.227C2057.71,768.466 2058.11,771.397 2057.89,769.63C2057.83,769.096 2057.76,768.562 2057.7,768.028C2056.58,758.585 2056.36,749.053 2057,739.567C2057.16,737.155 2055.1,734.533 2052.76,734C2050.45,733.474 2047.3,734.284 2046.24,736.654C2042.86,744.204 2039.81,751.896 2036.63,759.532C2036.37,760.139 2036.77,759.198 2036.78,759.163C2036.7,759.367 2036.61,759.567 2036.53,759.769C2036.33,760.239 2036.13,760.709 2035.93,761.179C2035.52,762.117 2035.12,763.053 2034.7,763.987C2033.91,765.781 2033.1,767.566 2032.26,769.339C2030.61,772.841 2028.84,776.295 2026.91,779.65C2025.92,781.364 2024.88,783.053 2023.79,784.706C2022.77,786.248 2021.76,787.974 2020.51,789.339C2021.17,788.626 2020.75,789.033 2020.39,789.492C2020.08,789.874 2019.77,790.252 2019.46,790.627C2018.84,791.377 2018.2,792.114 2017.55,792.837C2016.28,794.232 2014.96,795.573 2013.58,796.849C2012.91,797.467 2012.22,798.069 2011.53,798.655C2011.15,798.972 2010.77,799.28 2010.39,799.592C2010.28,799.675 2009.71,800.124 2010.3,799.663C2010.92,799.181 2010.16,799.767 2010.04,799.854C2008.38,801.093 2006.64,802.24 2004.85,803.278C2003.87,803.842 2002.87,804.376 2001.86,804.876C2001.42,805.091 2000.98,805.3 2000.54,805.503C2000.2,805.662 1998.58,806.327 1999.7,805.885C1997.67,806.686 1995.62,807.407 1993.51,807.984C1991.41,808.559 1989.27,808.996 1987.11,809.329C1985.97,809.506 1987.88,809.257 1986.73,809.373C1986.16,809.429 1985.6,809.489 1985.04,809.535C1983.91,809.625 1982.78,809.681 1981.65,809.7C1979.47,809.738 1977.29,809.641 1975.12,809.409C1974.97,809.392 1974.23,809.247 1974.16,809.296C1974.17,809.286 1975.34,809.479 1974.7,809.363C1974.3,809.292 1973.9,809.235 1973.5,809.163C1972.49,808.98 1971.49,808.761 1970.51,808.506C1968.71,808.041 1966.97,807.428 1965.24,806.768C1964.63,806.538 1965.65,806.938 1965.67,806.953C1965.55,806.842 1965.26,806.771 1965.11,806.703C1964.67,806.505 1964.24,806.301 1963.81,806.087C1962.96,805.663 1962.12,805.208 1961.3,804.721C1960.54,804.272 1959.81,803.797 1959.09,803.294C1958.76,803.063 1958.43,802.821 1958.11,802.585C1957.47,802.121 1958.92,803.265 1958.33,802.747C1958.13,802.571 1957.92,802.408 1957.72,802.236C1957.06,801.677 1956.43,801.093 1955.83,800.481C1955.28,799.925 1954.66,798.817 1954,798.431C1954.01,798.437 1954.67,799.343 1954.3,798.828C1954.15,798.616 1953.99,798.409 1953.85,798.196C1953.62,797.877 1953.41,797.553 1953.2,797.224C1952.71,796.457 1952.27,795.663 1951.87,794.846C1951.25,793.541 1952.12,795.586 1951.75,794.615C1951.62,794.246 1951.48,793.879 1951.35,793.506C1951.06,792.625 1950.83,791.725 1950.65,790.815C1950.6,790.587 1950.47,790.165 1950.49,789.911C1950.49,789.939 1950.59,791.003 1950.55,790.321C1950.51,789.798 1950.45,789.279 1950.43,788.755C1950.39,787.717 1950.46,786.694 1950.52,785.659C1950.59,784.52 1950.33,786.568 1950.54,785.447C1950.63,784.942 1950.72,784.436 1950.83,783.935C1951.06,782.926 1951.35,781.932 1951.68,780.954C1951.83,780.532 1952,780.119 1952.15,779.697C1952.42,778.909 1951.73,780.589 1952.08,779.831C1952.18,779.627 1952.27,779.419 1952.36,779.214C1952.81,778.248 1953.3,777.302 1953.83,776.378C1954.33,775.506 1954.86,774.652 1955.41,773.816C1955.72,773.361 1956.03,772.911 1956.34,772.466C1956.48,772.275 1956.62,772.084 1956.76,771.895C1956.83,771.797 1957.44,770.98 1957.02,771.537C1956.6,772.082 1957.08,771.45 1957.15,771.374C1957.34,771.127 1957.54,770.88 1957.74,770.635C1958.05,770.268 1958.35,769.903 1958.66,769.542C1959.39,768.698 1960.14,767.873 1960.9,767.065C1962.43,765.456 1964.03,763.916 1965.68,762.433C1967.31,760.966 1969,759.561 1970.7,758.176C1971.56,757.477 1972.43,756.785 1973.3,756.101C1973.56,755.893 1974.51,755.16 1973.74,755.748C1974.28,755.332 1974.83,754.919 1975.37,754.509C1979.05,751.74 1982.82,749.097 1986.67,746.584C1994.45,741.514 2002.58,736.98 2010.99,733.028C2013.07,732.049 2015.17,731.109 2017.28,730.199C2020.07,729.001 2020.9,724.699 2019.36,722.3C2017.49,719.409 2014.44,718.947 2011.46,720.229Z" style="fill:rgb(242,107,96);fill-rule:nonzero;"/>
            <path d="M2097.36,510.243C2117.4,511.634 2133.18,519.465 2132.6,527.735C2132.03,536.005 2115.32,541.582 2095.28,540.192C2075.24,538.801 2059.46,530.97 2060.03,522.7C2060.61,514.43 2077.32,508.853 2097.36,510.243Z" style="fill:rgb(251,210,207);fill-rule:nonzero;"/>
            <path d="M1932.01,498.771C1952.05,500.162 1967.83,507.993 1967.26,516.263C1966.68,524.533 1949.97,530.11 1929.93,528.719C1909.9,527.329 1894.12,519.498 1894.69,511.228C1895.26,502.958 1911.97,497.381 1932.01,498.771Z" style="fill:rgb(251,210,207);fill-rule:nonzero;"/>
            <path d="M2113.73,501.422C2133.35,495.781 2153.64,492.748 2174.05,492.468C2179.9,492.387 2185.75,492.537 2191.58,492.895C2195.29,493.123 2195.28,487.349 2191.58,487.122C2170.8,485.846 2149.88,487.365 2129.49,491.579C2123.67,492.782 2117.91,494.214 2112.2,495.855C2108.64,496.88 2110.15,502.452 2113.73,501.422Z" style="fill:rgb(26,57,102);fill-rule:nonzero;"/>
            <path d="M2116.47,526.171C2136.84,525.155 2157.31,526.804 2177.24,531.186C2182.95,532.442 2188.61,533.922 2194.21,535.602C2197.78,536.672 2199.3,531.102 2195.74,530.035C2175.82,524.055 2155.08,520.728 2134.27,520.179C2128.34,520.023 2122.4,520.102 2116.47,520.397C2112.77,520.582 2112.75,526.356 2116.47,526.171Z" style="fill:rgb(26,57,102);fill-rule:nonzero;"/>
            <path d="M2122.47,513.926C2141.32,510.029 2160.93,510.184 2179.72,514.356C2183.34,515.16 2184.89,509.595 2181.26,508.789C2161.42,504.384 2140.83,504.245 2120.93,508.359C2119.4,508.675 2118.52,510.477 2118.91,511.91C2119.35,513.496 2120.93,514.243 2122.47,513.926Z" style="fill:rgb(26,57,102);fill-rule:nonzero;"/>
            <path d="M1916.29,478.096C1896.82,470.697 1876.42,465.957 1855.7,463.914C1849.78,463.331 1843.84,462.983 1837.89,462.852C1834.18,462.77 1834.18,468.544 1837.89,468.625C1858.29,469.073 1878.55,472.235 1898.11,478.033C1903.73,479.698 1909.28,481.582 1914.75,483.663C1916.21,484.217 1917.92,483.049 1918.3,481.647C1918.75,480.023 1917.75,478.653 1916.29,478.096Z" style="fill:rgb(26,57,102);fill-rule:nonzero;"/>
            <path d="M1909.98,502.262C1889.4,499.506 1868.51,499.528 1847.92,502.284C1841.97,503.081 1836.06,504.093 1830.18,505.334C1826.55,506.102 1828.09,511.668 1831.72,510.901C1851.69,506.682 1872.18,505.165 1892.56,506.354C1898.39,506.694 1904.2,507.261 1909.98,508.035C1911.53,508.243 1912.87,506.56 1912.87,505.149C1912.87,503.417 1911.53,502.47 1909.98,502.262Z" style="fill:rgb(26,57,102);fill-rule:nonzero;"/>
            <path d="M1906.55,489.831C1887.04,484.07 1866.52,482.629 1846.39,485.368C1844.84,485.578 1844,487.559 1844.37,488.919C1844.83,490.586 1846.37,491.146 1847.92,490.935C1867,488.34 1886.57,489.951 1905.01,495.398C1908.58,496.452 1910.11,490.883 1906.55,489.831Z" style="fill:rgb(26,57,102);fill-rule:nonzero;"/>
            <path d="M2011.66,503.065C2011.43,502.859 2011.21,502.639 2011,502.422C2009.11,500.489 2002.21,494.283 2007.44,492.156C2010.65,490.854 2014.95,491.698 2018.22,492.345C2019.1,492.519 2019.99,492.71 2020.85,492.969C2024.57,494.085 2023.92,496.847 2021.69,499.205C2019.79,501.213 2016.34,504.945 2013.2,504.015C2012.61,503.842 2012.11,503.481 2011.66,503.065Z" style="fill:rgb(26,57,102);fill-rule:nonzero;"/>
            <path d="M2011.78,495.942C2011.35,502.15 2010.92,508.357 2010.49,514.565C2010.42,515.459 2010.36,516.352 2010.3,517.246C2010.19,518.803 2011.7,520.133 2013.19,520.133C2014.84,520.133 2015.97,518.808 2016.07,517.246C2016.5,511.038 2016.93,504.831 2017.37,498.623C2017.43,497.729 2017.49,496.836 2017.55,495.942C2017.66,494.385 2016.15,493.056 2014.67,493.056C2013.01,493.056 2011.89,494.381 2011.78,495.942Z" style="fill:rgb(26,57,102);fill-rule:nonzero;"/>
            <path d="M1943.91,492.728C1943.63,485.929 1948.81,479.851 1955.33,478.307C1962.24,476.667 1969.82,480.324 1973.86,485.951C1974.77,487.217 1976.37,487.826 1977.81,486.987C1979.06,486.256 1979.76,484.311 1978.84,483.038C1973.25,475.237 1963.4,470.463 1953.79,472.74C1944.89,474.85 1937.75,483.469 1938.13,492.728C1938.29,496.43 1944.06,496.449 1943.91,492.728Z" style="fill:rgb(26,57,102);fill-rule:nonzero;"/>
            <path d="M2090.41,503.667C2092.12,494.263 2086.49,484.926 2077.73,481.359C2068.82,477.728 2058.18,481.041 2051.73,487.825C2049.17,490.516 2053.24,494.605 2055.81,491.907C2060.77,486.698 2068.51,484.129 2075.44,486.631C2081.45,488.799 2086.01,495.725 2084.84,502.132C2084.56,503.665 2085.26,505.244 2086.86,505.683C2088.26,506.068 2090.13,505.209 2090.41,503.667Z" style="fill:rgb(26,57,102);fill-rule:nonzero;"/>
        </g>
    </g>
</svg>
