<?xml version="1.0" encoding="UTF-8" standalone="no"?>
<!DOCTYPE svg PUBLIC "-//W3C//DTD SVG 1.1//EN" "http://www.w3.org/Graphics/SVG/1.1/DTD/svg11.dtd">
<svg width="100%" height="100%" viewBox="0 0 2210 2692" version="1.1" xmlns="http://www.w3.org/2000/svg" xmlns:xlink="http://www.w3.org/1999/xlink" xml:space="preserve" xmlns:serif="http://www.serif.com/" style="fill-rule:evenodd;clip-rule:evenodd;stroke-linejoin:round;stroke-miterlimit:2;">
    <g transform="matrix(1,0,0,1,-3487.06,-4973.55)">
        <g transform="matrix(4.16667,0,0,4.16667,1617.99,-391.541)">
            <g transform="matrix(1,0,0,1,-472.275,33.0395)">
                <path d="M1374.75,1384.72C1370.07,1411.31 1358.14,1436.86 1346.02,1460.98L1332.66,1461.53C1329.3,1447.72 1325.63,1433.53 1321.7,1419.18C1321.98,1418.66 1322.26,1418.14 1322.55,1417.62C1349.72,1427.65 1357.38,1400.04 1339,1393.39C1347.1,1382.71 1377.81,1354.25 1374.75,1384.72ZM1437.76,1437.39C1422.38,1427.34 1406.33,1431.48 1392.21,1438.08C1399.29,1418.59 1408.06,1400.11 1407.27,1377.81C1405.33,1335.99 1360.87,1328.12 1332.98,1353.57C1323.05,1352.36 1312.8,1353.96 1302.73,1354.89C1283.9,1290.76 1249.39,1202.88 1188.8,1293.35C1169.76,1291.35 1152.31,1291.73 1132.96,1294.24C1072.31,1202.74 1037.63,1289.68 1018.87,1353.4C1011.5,1353.02 1004.24,1353.04 996.83,1353.39C980.556,1353.96 979.604,1378.8 995.828,1380.35C993.648,1384.05 993.336,1388.64 995.013,1392.55C972.373,1394.49 977.7,1426.56 999.406,1419.37C993.919,1439.43 989.195,1458.03 985.032,1475.96C970.436,1477.31 942.838,1472.32 942.86,1494.66C943.441,1524.34 943.382,1555.6 943.232,1580.64C934.86,1587.61 921.601,1592.98 920.882,1605.25C920.163,1616.61 932.463,1625.4 942.91,1620.96C941.752,1641.14 942.121,1668.43 965.82,1678.16C973.851,1741.24 1029.07,1767.93 1086.47,1775.31C1055.26,1973.76 1430.95,1929.92 1363.1,1688C1379.81,1688.08 1401.99,1690.24 1414.12,1676.1C1433.82,1655.58 1423.39,1624.54 1423.59,1598.88C1434.31,1592.37 1432.77,1574.38 1420.68,1570.27C1420.54,1569.14 1420.4,1568.01 1420.25,1566.88C1427.96,1559.53 1425.83,1545.83 1416.45,1541.2C1415.62,1536.29 1414.74,1531.37 1413.81,1526.5C1435.84,1505.18 1470.22,1464.42 1437.76,1437.39Z" style="fill:white;fill-rule:nonzero;"/>
            </g>
            <g transform="matrix(1,0,0,1,-472.275,33.0395)">
                <path d="M1263.01,1751.78C1270.31,1749.81 1277.52,1747.08 1284.7,1744.68C1288.6,1743.37 1292.4,1741.85 1296.24,1740.41C1296.51,1740.31 1296.74,1740.23 1296.92,1740.16C1299.82,1738.92 1302.84,1737.56 1305.83,1736.45C1298.97,1738.99 1303.39,1737.34 1305.05,1736.54C1307.31,1735.45 1309.65,1734.44 1312.05,1733.66C1328.61,1717.05 1333.01,1704.67 1339.69,1686.88C1346.4,1669.03 1344.91,1652.92 1344.91,1633.86C1344.91,1589.95 1333.92,1540.12 1323.91,1483.42C1310.03,1411.8 1291.04,1358.78 1263.18,1290.25C1248.11,1265.59 1239.04,1260.32 1226.32,1271.87C1213.6,1283.42 1207.96,1289.89 1196.67,1306.08C1174.8,1307.73 1146.3,1304.44 1124.42,1306.08C1115.81,1297.47 1120.77,1302.04 1113.2,1289.97C1105.64,1277.91 1093.95,1263.9 1080.34,1268.08C1067.74,1271.96 1063.25,1278.46 1057.79,1290.46C1039.05,1331.69 1020.08,1384.95 1010.92,1428.34C997.719,1490.92 981.617,1542.31 977.843,1614.42C976.66,1637.02 974.666,1654.19 979.217,1676.36C983.768,1698.53 993.637,1725.55 1014.71,1733.79C1014.38,1734.25 1021.78,1738.85 1025.64,1740.94C1025.87,1741.07 1090.18,1773.21 1149.85,1765.56C1149.93,1765.55 1150.06,1765.53 1150.15,1765.52C1149.91,1765.49 1149.68,1765.45 1149.43,1765.41C1151.43,1765.29 1151.67,1765.33 1150.15,1765.52C1150.21,1765.53 1150.29,1765.54 1150.36,1765.55C1154,1765.06 1160.2,1764.05 1159.63,1764.05C1159.56,1764.05 1170.31,1787.29 1170.24,1787.3C1170.34,1787.29 1185.55,1795.41 1185.59,1795.41C1188.97,1795.12 1258.49,1753 1263.01,1751.78Z" style="fill:white;fill-rule:nonzero;"/>
            </g>
            <g transform="matrix(1,0,0,1,-472.275,33.0395)">
                <path d="M1094.53,1760.46C1089.99,1758.89 1084.95,1758.48 1080.24,1757.69C1072.48,1756.38 1064.76,1754.85 1057.17,1752.76C1036.66,1747.1 1017.28,1737.26 1002.41,1721.8C995.214,1714.31 990.56,1705.12 987.233,1695.34C983.055,1683.06 980.803,1670.14 979.83,1657.23C977.902,1631.62 979.723,1605.76 982.747,1580.31C988.257,1533.95 998.321,1488.13 1010.05,1442.98C1019.16,1407.88 1029.38,1373.01 1041,1338.65C1045.51,1325.3 1050.12,1311.83 1056.38,1299.19C1059.32,1293.24 1062.67,1287.44 1066.71,1282.16C1070.23,1277.56 1074.72,1272.83 1080.49,1271.26C1086.73,1269.57 1092.52,1272.95 1097.13,1276.88C1102.1,1281.12 1106.62,1285.99 1110.78,1291.01C1115.06,1296.17 1118.87,1301.69 1122.29,1307.45C1124.06,1310.44 1128.74,1307.72 1126.96,1304.72C1120.02,1293.04 1111.32,1281.9 1100.96,1273.06C1096.22,1269.01 1090.62,1265.47 1084.19,1265.38C1078.08,1265.29 1072.58,1268.45 1068.19,1272.46C1058.37,1281.46 1052.19,1294.54 1047.1,1306.61C1044.44,1312.93 1042.02,1319.34 1039.73,1325.79C1028.52,1357.4 1018.9,1389.62 1010.05,1421.96C997.402,1468.2 986.495,1515.1 979.673,1562.59C976.101,1587.45 973.558,1612.57 973.685,1637.71C973.813,1663.2 976.415,1690.94 989.395,1713.48C994.833,1722.93 1002.92,1730.54 1011.57,1737.05C1020.4,1743.71 1030.22,1748.9 1040.5,1752.93C1055.74,1758.91 1071.58,1761.45 1087.58,1764.38C1089.43,1764.72 1091.31,1765.06 1093.09,1765.68C1096.39,1766.82 1097.8,1761.59 1094.53,1760.46Z" style="fill:rgb(26,57,102);fill-rule:nonzero;"/>
            </g>
            <g transform="matrix(1,0,0,1,-472.275,33.0395)">
                <path d="M1294.91,1742.5C1306.43,1738.35 1317.7,1731.76 1325.82,1722.46C1332.38,1714.95 1336.81,1705.87 1339.94,1696.47C1346.53,1676.71 1347.9,1655.33 1347.81,1634.63C1347.65,1595.78 1341.79,1556.95 1334.38,1518.89C1326.91,1480.5 1317.41,1442.51 1306.68,1404.91C1299.24,1378.82 1291.29,1352.84 1282.28,1327.24C1276.79,1311.64 1270.93,1295.73 1261.4,1282.1C1255,1272.96 1245.52,1263.07 1233.22,1265.9C1227.36,1267.24 1222.44,1271.2 1218.14,1275.21C1213.51,1279.54 1209.21,1284.23 1205.26,1289.19C1201.34,1294.12 1197.76,1299.3 1194.54,1304.72C1192.76,1307.72 1197.43,1310.44 1199.21,1307.45C1205.68,1296.55 1213.67,1286.49 1223.1,1277.99C1227.2,1274.3 1232.25,1270.58 1238.04,1270.8C1243.81,1271.01 1248.62,1275.05 1252.29,1279.15C1260.57,1288.37 1266.03,1300.2 1270.64,1311.58C1272.6,1316.43 1274.44,1321.32 1276.2,1326.24C1284.61,1349.8 1292,1373.75 1298.99,1397.77C1309.41,1433.54 1318.7,1469.66 1326.3,1506.13C1334.09,1543.52 1340.39,1581.48 1342.04,1619.69C1342.85,1638.5 1342.63,1657.61 1339.38,1676.19C1337.55,1686.64 1334.78,1697.13 1329.94,1706.61C1325.19,1715.91 1318.45,1723.42 1309.71,1729.16C1304.63,1732.49 1299.18,1735.22 1293.47,1737.28C1290.22,1738.45 1291.62,1743.68 1294.91,1742.5Z" style="fill:rgb(26,57,102);fill-rule:nonzero;"/>
            </g>
            <g transform="matrix(1,0,0,1,-472.275,33.0395)">
                <path d="M1136.86,1705.47C1138.38,1706.38 1139.86,1707.36 1141.28,1708.42C1141.46,1708.55 1141.64,1708.68 1141.81,1708.82C1142.2,1709.12 1141.34,1708.44 1142,1708.97C1142.35,1709.24 1142.69,1709.52 1143.03,1709.81C1143.71,1710.37 1144.38,1710.96 1145.03,1711.56C1146.3,1712.73 1147.51,1713.97 1148.66,1715.26C1149.25,1715.92 1149.82,1716.6 1150.38,1717.29C1150.51,1717.46 1150.65,1717.63 1150.79,1717.81C1150.56,1717.52 1150.85,1717.89 1150.93,1718C1151.22,1718.39 1151.51,1718.78 1151.79,1719.18C1152.61,1720.33 1154.19,1720.99 1155.49,1720.15C1156.63,1719.42 1157.34,1717.68 1156.46,1716.45C1151.96,1710.13 1146.25,1704.79 1139.59,1700.8C1138.38,1700.07 1136.57,1700.49 1135.89,1701.77C1135.2,1703.08 1135.57,1704.69 1136.86,1705.47Z" style="fill:rgb(26,57,102);fill-rule:nonzero;"/>
            </g>
            <g transform="matrix(1,0,0,1,-472.275,33.0395)">
                <path d="M1143.38,1719.26C1146.61,1714.31 1149.84,1709.37 1153.06,1704.42C1153.84,1703.23 1153.34,1701.38 1152.09,1700.72C1150.75,1700.01 1149.22,1700.42 1148.4,1701.69C1145.17,1706.64 1141.94,1711.58 1138.71,1716.53C1137.93,1717.72 1138.43,1719.57 1139.68,1720.23C1141.03,1720.94 1142.55,1720.53 1143.38,1719.26Z" style="fill:rgb(26,57,102);fill-rule:nonzero;"/>
            </g>
            <g transform="matrix(1,0,0,1,-472.275,33.0395)">
                <path d="M959.854,1487.73L1373.1,1470.58C1382.61,1470.18 1391.11,1476.47 1393.51,1485.67C1407.31,1538.5 1414.51,1593.06 1414.89,1647.66C1415,1663.9 1401.77,1677.07 1385.54,1677.08L1110.47,1677.15C1072.48,1677.16 1034.45,1677.17 996.588,1674.09C982.006,1672.91 965.338,1669.97 957.906,1657.37C953.551,1649.99 953.509,1640.93 953.59,1632.36C954.04,1584.91 954.49,1537.46 953.644,1494.34C953.575,1490.82 956.329,1487.88 959.854,1487.73Z" style="fill:rgb(242,107,96);fill-rule:nonzero;"/>
            </g>
            <g transform="matrix(1,0,0,1,-472.275,33.0395)">
                <path d="M1111.5,1314.37C1124.6,1311.57 1137.85,1309.46 1151.22,1308.62C1163.19,1307.86 1175.19,1308.13 1187.12,1309.33C1193.93,1310.02 1200.7,1311.02 1207.44,1312.21C1208.88,1312.47 1210.35,1311.82 1210.77,1310.32C1211.12,1309.02 1210.32,1307.25 1208.88,1307C1196.6,1304.82 1184.19,1303.29 1171.72,1302.89C1158.98,1302.48 1146.25,1303.28 1133.62,1304.99C1125.71,1306.06 1117.86,1307.48 1110.07,1309.15C1106.66,1309.88 1108.1,1315.1 1111.5,1314.37Z" style="fill:rgb(26,57,102);fill-rule:nonzero;"/>
            </g>
            <g transform="matrix(1,0,0,1,-472.275,33.0395)">
                <path d="M979.356,1494.58C975.773,1496.47 972.399,1498.7 969.303,1501.22C968.196,1502.12 967.017,1503.52 968.007,1504.71C968.536,1505.35 969.439,1505.62 970.295,1505.48L983.812,1503.34C983.982,1503.31 984.135,1503.43 984.131,1503.59C984.049,1506.78 984.182,1510.41 984.315,1514.05C984.365,1515.39 984.568,1517 986.148,1517.41C986.526,1517.5 986.933,1517.49 987.312,1517.4C988.989,1516.97 992.02,1510.1 994.076,1503.01C994.099,1502.93 994.206,1502.91 994.27,1502.96C996.809,1505.24 999.608,1507.27 1002.61,1509C1003.98,1509.79 1005.57,1510.56 1007.22,1509.76C1008.98,1508.9 1009.45,1506.75 1008.35,1505.21C1005.03,1500.58 1002.07,1497.94 1001.2,1496.18C1001.17,1496.11 1001.22,1496.05 1001.28,1496C1008.2,1491.4 1015.64,1487.82 1013.38,1485.51L1007.46,1485.76C1003.76,1486.6 1000.12,1487.67 996.571,1488.95C996.452,1488.99 996.323,1488.92 996.308,1488.8C996.194,1487.94 996.07,1487.09 995.954,1486.23L986.874,1486.61C986.803,1486.94 986.403,1487.11 986.098,1486.9C985.976,1486.82 985.85,1486.74 985.728,1486.66L974.297,1487.13C975.608,1489.61 977.342,1491.89 979.459,1493.84C979.699,1494.06 979.65,1494.42 979.356,1494.58Z" style="fill:rgb(26,57,102);fill-rule:nonzero;"/>
            </g>
            <g transform="matrix(1,0,0,1,-472.275,33.0395)">
                <path d="M1138.87,1624.11C1138.4,1623.75 1137.76,1623.64 1137.17,1623.75C1132.09,1624.67 1127.11,1626.02 1122.3,1627.76C1122.18,1627.8 1122.05,1627.73 1122.03,1627.61C1121.55,1623.92 1121.03,1620.27 1120.52,1616.62C1120.32,1615.21 1119.88,1613.51 1118.18,1613.34C1117.78,1613.3 1117.37,1613.38 1117,1613.55C1115.85,1614.08 1115.3,1615.12 1114.84,1616.15C1113.55,1619.08 1112.79,1622.2 1112.62,1625.35C1112.6,1625.73 1112.15,1625.93 1111.82,1625.71C1109.48,1624.12 1107.01,1622.68 1104.44,1621.41C1103.31,1620.84 1102.1,1620.3 1100.75,1620.51C1100.33,1620.58 1099.92,1620.74 1099.6,1621C1098.38,1621.96 1098.8,1623.41 1099.33,1624.6C1100.68,1627.6 1102.69,1630.35 1105.18,1632.64C1105.42,1632.87 1105.38,1633.23 1105.08,1633.39C1101.5,1635.28 1098.12,1637.5 1095.03,1640.03C1093.92,1640.93 1092.74,1642.33 1093.73,1643.52C1094.26,1644.16 1095.17,1644.43 1096.02,1644.29L1109.54,1642.14C1109.71,1642.12 1109.86,1642.24 1109.86,1642.4C1109.78,1645.59 1109.91,1649.22 1110.04,1652.86C1110.09,1654.2 1110.29,1655.81 1111.87,1656.21C1112.25,1656.31 1112.66,1656.3 1113.04,1656.21C1114.72,1655.78 1117.75,1648.91 1119.8,1641.82C1119.83,1641.74 1119.93,1641.71 1120,1641.77C1122.53,1644.05 1125.33,1646.07 1128.33,1647.81C1129.71,1648.6 1131.3,1649.37 1132.94,1648.57C1134.7,1647.71 1135.18,1645.55 1134.08,1644.02C1130.75,1639.38 1127.8,1636.75 1126.93,1634.99C1126.89,1634.92 1126.94,1634.86 1127.01,1634.81C1134.14,1630.06 1141.84,1626.4 1138.87,1624.11Z" style="fill:rgb(26,57,102);fill-rule:nonzero;"/>
            </g>
            <g transform="matrix(1,0,0,1,-472.275,33.0395)">
                <path d="M1408.12,1614.16C1407.65,1613.8 1407.01,1613.69 1406.41,1613.8C1401.34,1614.73 1396.36,1616.07 1391.55,1617.81C1391.43,1617.86 1391.3,1617.78 1391.28,1617.67C1390.8,1613.98 1390.28,1610.32 1389.77,1606.67C1389.57,1605.27 1389.13,1603.57 1387.43,1603.39C1387.03,1603.35 1386.61,1603.43 1386.25,1603.6C1385.1,1604.14 1384.55,1605.18 1384.09,1606.21C1382.79,1609.13 1382.04,1612.26 1381.87,1615.41C1381.85,1615.79 1381.4,1615.99 1381.07,1615.77C1378.73,1614.17 1376.26,1612.73 1373.69,1611.46C1372.55,1610.9 1371.35,1610.35 1370,1610.57C1369.58,1610.63 1369.17,1610.8 1368.85,1611.05C1367.63,1612.01 1368.04,1613.47 1368.58,1614.66C1369.93,1617.66 1371.94,1620.41 1374.43,1622.7C1374.67,1622.92 1374.62,1623.29 1374.33,1623.44C1370.75,1625.33 1367.37,1627.56 1364.28,1630.08C1363.17,1630.99 1361.99,1632.38 1362.98,1633.58C1363.51,1634.22 1364.41,1634.48 1365.27,1634.35L1378.79,1632.2C1378.96,1632.17 1379.11,1632.29 1379.11,1632.45C1379.02,1635.64 1379.16,1639.28 1379.29,1642.92C1379.34,1644.26 1379.54,1645.86 1381.12,1646.27C1381.5,1646.37 1381.91,1646.36 1382.29,1646.26C1383.96,1645.83 1386.99,1638.97 1389.05,1631.88C1389.07,1631.8 1389.18,1631.77 1389.25,1631.83C1391.78,1634.1 1394.58,1636.13 1397.58,1637.86C1398.96,1638.66 1400.55,1639.43 1402.19,1638.62C1403.95,1637.77 1404.43,1635.61 1403.33,1634.08C1400,1629.44 1397.05,1626.81 1396.18,1625.05C1396.14,1624.98 1396.19,1624.91 1396.26,1624.87C1403.39,1620.12 1411.09,1616.46 1408.12,1614.16Z" style="fill:rgb(26,57,102);fill-rule:nonzero;"/>
            </g>
            <g transform="matrix(1,0,0,1,-472.275,33.0395)">
                <path d="M1370.05,1481.01C1370.03,1481.39 1369.57,1481.59 1369.25,1481.37C1366.9,1479.77 1364.43,1478.33 1361.87,1477.06C1360.73,1476.5 1359.52,1475.95 1358.17,1476.17C1357.75,1476.23 1357.34,1476.4 1357.02,1476.65C1355.8,1477.61 1356.22,1479.07 1356.75,1480.25C1358.11,1483.26 1360.11,1486.01 1362.61,1488.3C1362.85,1488.52 1362.8,1488.89 1362.5,1489.04C1358.92,1490.93 1355.55,1493.16 1352.45,1495.68C1351.34,1496.58 1350.16,1497.98 1351.16,1499.18C1351.68,1499.81 1352.59,1500.08 1353.44,1499.95L1366.96,1497.8C1367.13,1497.77 1367.28,1497.89 1367.28,1498.05C1367.2,1501.24 1367.33,1504.88 1367.46,1508.52C1367.51,1509.86 1367.72,1511.46 1369.3,1511.87C1369.67,1511.97 1370.08,1511.96 1370.46,1511.86C1372.14,1511.43 1375.17,1504.57 1377.22,1497.48C1377.25,1497.4 1377.35,1497.37 1377.42,1497.43C1379.96,1499.7 1382.76,1501.73 1385.75,1503.46C1387.13,1504.26 1388.72,1505.02 1390.36,1504.22C1392.12,1503.37 1392.6,1501.21 1391.5,1499.68C1388.17,1495.04 1385.22,1492.41 1384.35,1490.65C1384.31,1490.58 1384.36,1490.51 1384.43,1490.47C1387.59,1488.37 1390.85,1486.48 1393.25,1484.83C1392.73,1483.14 1392.01,1481.56 1391.11,1480.11C1387.24,1480.97 1383.43,1482.07 1379.72,1483.41C1379.6,1483.46 1379.47,1483.38 1379.46,1483.27C1378.97,1479.58 1378.46,1475.92 1377.94,1472.27C1377.88,1471.83 1377.79,1471.36 1377.64,1470.92C1376.17,1470.64 1374.65,1470.51 1373.1,1470.58L1372.92,1470.59C1372.67,1470.98 1372.45,1471.39 1372.26,1471.81C1370.97,1474.73 1370.21,1477.86 1370.05,1481.01Z" style="fill:rgb(26,57,102);fill-rule:nonzero;"/>
            </g>
            <g transform="matrix(1,0,0,1,-472.275,33.0395)">
                <path d="M1213.99,1541.5C1213.53,1541.14 1212.89,1541.03 1212.29,1541.14C1207.22,1542.06 1202.24,1543.41 1197.42,1545.15C1197.3,1545.19 1197.18,1545.12 1197.16,1545C1196.68,1541.31 1196.16,1537.66 1195.65,1534.01C1195.45,1532.6 1195,1530.9 1193.31,1530.73C1192.91,1530.69 1192.49,1530.77 1192.13,1530.94C1190.98,1531.48 1190.43,1532.52 1189.97,1533.55C1188.67,1536.47 1187.92,1539.59 1187.75,1542.75C1187.73,1543.12 1187.28,1543.33 1186.95,1543.1C1184.6,1541.51 1182.14,1540.07 1179.57,1538.8C1178.43,1538.23 1177.23,1537.69 1175.88,1537.9C1175.46,1537.97 1175.05,1538.13 1174.72,1538.39C1173.51,1539.35 1173.92,1540.81 1174.46,1541.99C1175.81,1545 1177.81,1547.75 1180.31,1550.04C1180.55,1550.26 1180.5,1550.62 1180.21,1550.78C1176.63,1552.67 1173.25,1554.9 1170.16,1557.42C1169.05,1558.32 1167.87,1559.72 1168.86,1560.92C1169.39,1561.55 1170.29,1561.82 1171.15,1561.68L1184.66,1559.54C1184.83,1559.51 1184.99,1559.63 1184.98,1559.79C1184.9,1562.98 1185.04,1566.62 1185.17,1570.25C1185.22,1571.6 1185.42,1573.2 1187,1573.61C1187.38,1573.71 1187.79,1573.69 1188.16,1573.6C1189.84,1573.17 1192.87,1566.3 1194.93,1559.22C1194.95,1559.13 1195.06,1559.11 1195.12,1559.17C1197.66,1561.44 1200.46,1563.47 1203.46,1565.2C1204.84,1565.99 1206.43,1566.76 1208.07,1565.96C1209.83,1565.1 1210.3,1562.95 1209.2,1561.41C1205.88,1556.78 1202.92,1554.14 1202.05,1552.38C1202.02,1552.31 1202.07,1552.25 1202.14,1552.2C1209.27,1547.46 1216.97,1543.79 1213.99,1541.5Z" style="fill:rgb(26,57,102);fill-rule:nonzero;"/>
            </g>
            <g transform="matrix(1,0,0,1,-472.275,33.0395)">
                <path d="M1232.08,1669.86C1234.62,1672.13 1237.41,1674.16 1240.41,1675.89C1241.79,1676.69 1243.38,1677.46 1245.02,1676.65C1246.78,1675.8 1247.26,1673.64 1246.16,1672.11C1242.83,1667.47 1239.88,1664.84 1239.01,1663.08C1238.97,1663.01 1239.02,1662.94 1239.09,1662.9C1246.22,1658.15 1253.92,1654.49 1250.95,1652.19C1250.48,1651.83 1249.84,1651.72 1249.25,1651.83C1244.17,1652.76 1239.19,1654.1 1234.38,1655.84C1234.26,1655.89 1234.13,1655.82 1234.11,1655.7C1233.63,1652.01 1233.11,1648.35 1232.6,1644.7C1232.4,1643.3 1231.96,1641.6 1230.26,1641.42C1229.86,1641.38 1229.45,1641.46 1229.08,1641.63C1227.93,1642.17 1227.38,1643.21 1226.92,1644.24C1225.63,1647.16 1224.87,1650.29 1224.7,1653.44C1224.68,1653.82 1224.23,1654.02 1223.9,1653.8C1221.56,1652.2 1219.09,1650.76 1216.52,1649.49C1215.39,1648.93 1214.18,1648.38 1212.83,1648.6C1212.41,1648.66 1212,1648.83 1211.68,1649.08C1210.46,1650.04 1210.88,1651.5 1211.41,1652.69C1212.76,1655.69 1214.77,1658.44 1217.27,1660.73C1217.51,1660.95 1217.46,1661.32 1217.16,1661.47C1213.58,1663.36 1210.2,1665.59 1207.11,1668.11C1206,1669.02 1204.82,1670.41 1205.81,1671.61C1206.34,1672.25 1207.25,1672.51 1208.1,1672.38L1221.62,1670.23C1221.79,1670.2 1221.94,1670.32 1221.94,1670.48C1221.88,1672.55 1221.92,1674.8 1221.99,1677.12L1229.42,1677.12C1230.29,1674.93 1231.15,1672.44 1231.88,1669.91C1231.91,1669.83 1232.01,1669.8 1232.08,1669.86Z" style="fill:rgb(26,57,102);fill-rule:nonzero;"/>
            </g>
            <g transform="matrix(1,0,0,1,-472.275,33.0395)">
                <path d="M1058.21,1535.93C1055.67,1536.39 1053.18,1537.06 1050.77,1537.93C1050.71,1537.96 1050.65,1537.92 1050.64,1537.86C1050.4,1536.02 1050.14,1534.19 1049.88,1532.36C1049.79,1531.66 1049.56,1530.81 1048.72,1530.72C1048.51,1530.7 1048.31,1530.74 1048.13,1530.83C1047.55,1531.1 1047.28,1531.62 1047.05,1532.13C1046.4,1533.59 1046.02,1535.16 1045.94,1536.73C1045.93,1536.92 1045.7,1537.02 1045.54,1536.91C1044.36,1536.11 1043.13,1535.39 1041.85,1534.76C1041.28,1534.48 1040.67,1534.2 1040,1534.31C1039.79,1534.35 1039.59,1534.43 1039.42,1534.55C1038.82,1535.03 1039.02,1535.76 1039.29,1536.36C1039.97,1537.86 1040.97,1539.23 1042.22,1540.38C1042.34,1540.49 1042.31,1540.67 1042.17,1540.75C1040.37,1541.69 1038.69,1542.81 1037.14,1544.07C1036.59,1544.52 1036,1545.22 1036.49,1545.82C1036.76,1546.14 1037.21,1546.27 1037.64,1546.2L1044.39,1545.13C1044.48,1545.11 1044.56,1545.17 1044.55,1545.25C1044.51,1546.85 1044.58,1548.67 1044.65,1550.49C1044.67,1551.16 1044.77,1551.96 1045.56,1552.16C1045.75,1552.21 1045.95,1552.21 1046.14,1552.16C1046.98,1551.94 1048.5,1548.51 1049.53,1544.97C1049.54,1544.93 1049.59,1544.91 1049.62,1544.94C1050.89,1546.08 1052.29,1547.09 1053.79,1547.96C1054.48,1548.36 1055.27,1548.74 1056.1,1548.34C1056.98,1547.91 1057.21,1546.83 1056.66,1546.07C1055,1543.75 1053.52,1542.43 1053.09,1541.55C1053.07,1541.52 1053.1,1541.48 1053.13,1541.46C1056.7,1539.09 1060.55,1537.26 1059.06,1536.11C1058.83,1535.93 1058.51,1535.87 1058.21,1535.93Z" style="fill:rgb(26,57,102);fill-rule:nonzero;"/>
            </g>
            <g transform="matrix(1,0,0,1,-472.275,33.0395)">
                <path d="M1173.59,1502.88C1174.47,1502.45 1174.71,1501.37 1174.16,1500.6C1172.5,1498.29 1171.02,1496.97 1170.59,1496.09C1170.57,1496.05 1170.59,1496.02 1170.63,1496C1174.19,1493.63 1178.04,1491.79 1176.56,1490.65C1176.32,1490.47 1176,1490.41 1175.7,1490.47C1173.17,1490.93 1170.68,1491.6 1168.27,1492.47C1168.21,1492.49 1168.15,1492.46 1168.14,1492.4C1167.9,1490.55 1167.64,1488.73 1167.38,1486.9C1167.28,1486.2 1167.06,1485.35 1166.21,1485.26C1166.01,1485.24 1165.81,1485.28 1165.62,1485.37C1165.05,1485.64 1164.77,1486.16 1164.54,1486.67C1163.89,1488.13 1163.52,1489.69 1163.43,1491.27C1163.42,1491.46 1163.2,1491.56 1163.03,1491.45C1161.86,1490.65 1160.63,1489.93 1159.34,1489.3C1158.77,1489.01 1158.17,1488.74 1157.5,1488.85C1157.29,1488.88 1157.08,1488.96 1156.92,1489.09C1156.31,1489.57 1156.52,1490.3 1156.79,1490.89C1157.46,1492.39 1158.47,1493.77 1159.71,1494.92C1159.83,1495.03 1159.81,1495.21 1159.66,1495.29C1157.87,1496.23 1156.18,1497.35 1154.64,1498.61C1154.08,1499.06 1153.49,1499.76 1153.99,1500.35C1154.25,1500.67 1154.7,1500.81 1155.13,1500.74L1161.89,1499.67C1161.98,1499.65 1162.05,1499.71 1162.05,1499.79C1162.01,1501.39 1162.08,1503.21 1162.14,1505.02C1162.17,1505.69 1162.27,1506.5 1163.06,1506.7C1163.25,1506.75 1163.45,1506.74 1163.64,1506.7C1164.48,1506.48 1165.99,1503.05 1167.02,1499.5C1167.03,1499.46 1167.09,1499.45 1167.12,1499.48C1168.39,1500.62 1169.79,1501.63 1171.29,1502.5C1171.98,1502.89 1172.77,1503.28 1173.59,1502.88Z" style="fill:rgb(26,57,102);fill-rule:nonzero;"/>
            </g>
            <g transform="matrix(1,0,0,1,-472.275,33.0395)">
                <path d="M1310.4,1495.67C1307.87,1496.13 1305.38,1496.8 1302.97,1497.68C1302.91,1497.7 1302.85,1497.66 1302.84,1497.6C1302.6,1495.76 1302.34,1493.93 1302.08,1492.1C1301.98,1491.4 1301.76,1490.55 1300.91,1490.46C1300.71,1490.44 1300.5,1490.48 1300.32,1490.57C1299.75,1490.84 1299.47,1491.36 1299.24,1491.87C1298.59,1493.33 1298.22,1494.9 1298.13,1496.47C1298.12,1496.66 1297.9,1496.76 1297.73,1496.65C1296.56,1495.86 1295.33,1495.13 1294.04,1494.5C1293.47,1494.22 1292.87,1493.95 1292.2,1494.05C1291.99,1494.09 1291.78,1494.17 1291.62,1494.29C1291.01,1494.77 1291.22,1495.5 1291.49,1496.1C1292.16,1497.6 1293.16,1498.97 1294.41,1500.12C1294.53,1500.23 1294.51,1500.41 1294.36,1500.49C1292.57,1501.43 1290.88,1502.55 1289.33,1503.81C1288.78,1504.26 1288.19,1504.96 1288.69,1505.56C1288.95,1505.88 1289.4,1506.01 1289.83,1505.94L1296.59,1504.87C1296.67,1504.86 1296.75,1504.92 1296.75,1504.99C1296.71,1506.59 1296.77,1508.41 1296.84,1510.23C1296.87,1510.9 1296.97,1511.7 1297.76,1511.9C1297.95,1511.95 1298.15,1511.95 1298.34,1511.9C1299.18,1511.68 1300.69,1508.25 1301.72,1504.71C1301.73,1504.67 1301.79,1504.65 1301.82,1504.68C1303.09,1505.82 1304.49,1506.83 1305.99,1507.7C1306.68,1508.1 1307.47,1508.48 1308.29,1508.08C1309.17,1507.65 1309.41,1506.57 1308.86,1505.81C1307.2,1503.49 1305.72,1502.17 1305.28,1501.29C1305.27,1501.26 1305.29,1501.23 1305.33,1501.2C1308.89,1498.83 1312.74,1497 1311.25,1495.85C1311.02,1495.67 1310.7,1495.62 1310.4,1495.67Z" style="fill:rgb(26,57,102);fill-rule:nonzero;"/>
            </g>
            <g transform="matrix(1,0,0,1,-472.275,33.0395)">
                <path d="M1194.79,1611.9C1192.25,1612.36 1189.76,1613.03 1187.35,1613.91C1187.29,1613.93 1187.23,1613.89 1187.22,1613.83C1186.98,1611.99 1186.72,1610.16 1186.46,1608.33C1186.36,1607.63 1186.14,1606.78 1185.3,1606.69C1185.09,1606.67 1184.89,1606.71 1184.71,1606.8C1184.13,1607.07 1183.85,1607.59 1183.63,1608.1C1182.98,1609.56 1182.6,1611.13 1182.52,1612.7C1182.51,1612.89 1182.28,1612.99 1182.12,1612.88C1180.94,1612.08 1179.71,1611.36 1178.43,1610.73C1177.86,1610.45 1177.25,1610.17 1176.58,1610.28C1176.37,1610.32 1176.17,1610.4 1176,1610.52C1175.39,1611 1175.6,1611.73 1175.87,1612.33C1176.55,1613.83 1177.55,1615.2 1178.8,1616.35C1178.92,1616.46 1178.89,1616.64 1178.75,1616.72C1176.95,1617.66 1175.27,1618.78 1173.72,1620.04C1173.17,1620.49 1172.58,1621.19 1173.07,1621.79C1173.34,1622.11 1173.79,1622.24 1174.21,1622.17L1180.97,1621.1C1181.06,1621.08 1181.13,1621.14 1181.13,1621.22C1181.09,1622.82 1181.16,1624.64 1181.23,1626.46C1181.25,1627.13 1181.35,1627.93 1182.14,1628.13C1182.33,1628.18 1182.53,1628.18 1182.72,1628.13C1183.56,1627.91 1185.08,1624.48 1186.11,1620.94C1186.12,1620.9 1186.17,1620.88 1186.2,1620.91C1187.47,1622.05 1188.87,1623.06 1190.37,1623.93C1191.06,1624.33 1191.85,1624.71 1192.68,1624.31C1193.56,1623.88 1193.79,1622.8 1193.24,1622.04C1191.58,1619.72 1190.1,1618.4 1189.67,1617.52C1189.65,1617.49 1189.68,1617.45 1189.71,1617.43C1193.28,1615.06 1197.12,1613.23 1195.64,1612.08C1195.4,1611.9 1195.09,1611.84 1194.79,1611.9Z" style="fill:rgb(26,57,102);fill-rule:nonzero;"/>
            </g>
            <g transform="matrix(1,0,0,1,-472.275,33.0395)">
                <path d="M1341.45,1592.07C1338.91,1592.54 1336.42,1593.21 1334.02,1594.08C1333.96,1594.1 1333.89,1594.07 1333.88,1594.01C1333.64,1592.16 1333.38,1590.34 1333.13,1588.51C1333.03,1587.81 1332.81,1586.96 1331.96,1586.87C1331.76,1586.85 1331.55,1586.89 1331.37,1586.97C1330.79,1587.24 1330.52,1587.76 1330.29,1588.28C1329.64,1589.74 1329.26,1591.3 1329.18,1592.88C1329.17,1593.07 1328.94,1593.17 1328.78,1593.06C1327.61,1592.26 1326.37,1591.54 1325.09,1590.9C1324.52,1590.62 1323.92,1590.35 1323.24,1590.46C1323.03,1590.49 1322.83,1590.57 1322.67,1590.7C1322.06,1591.18 1322.26,1591.91 1322.53,1592.5C1323.21,1594 1324.21,1595.38 1325.46,1596.52C1325.58,1596.63 1325.56,1596.82 1325.41,1596.89C1323.62,1597.84 1321.93,1598.95 1320.38,1600.21C1319.83,1600.67 1319.24,1601.36 1319.73,1601.96C1320,1602.28 1320.45,1602.41 1320.88,1602.35L1327.64,1601.27C1327.72,1601.26 1327.8,1601.32 1327.8,1601.4C1327.75,1602.99 1327.82,1604.81 1327.89,1606.63C1327.91,1607.3 1328.01,1608.1 1328.8,1608.31C1328.99,1608.36 1329.2,1608.35 1329.39,1608.3C1330.22,1608.09 1331.74,1604.66 1332.77,1601.11C1332.78,1601.07 1332.83,1601.06 1332.86,1601.09C1334.13,1602.22 1335.53,1603.24 1337.03,1604.1C1337.72,1604.5 1338.52,1604.89 1339.34,1604.48C1340.22,1604.06 1340.46,1602.98 1339.91,1602.21C1338.24,1599.89 1336.77,1598.58 1336.33,1597.7C1336.31,1597.66 1336.34,1597.63 1336.37,1597.61C1339.94,1595.23 1343.79,1593.4 1342.3,1592.25C1342.07,1592.07 1341.75,1592.02 1341.45,1592.07Z" style="fill:rgb(26,57,102);fill-rule:nonzero;"/>
            </g>
            <g transform="matrix(1,0,0,1,-472.275,33.0395)">
                <path d="M1001.08,1628.25C998.542,1628.71 996.051,1629.38 993.643,1630.25C993.584,1630.28 993.519,1630.24 993.512,1630.18C993.269,1628.34 993.012,1626.51 992.755,1624.68C992.655,1623.98 992.433,1623.13 991.586,1623.04C991.384,1623.02 991.178,1623.06 990.997,1623.15C990.421,1623.42 990.145,1623.94 989.916,1624.45C989.268,1625.91 988.891,1627.48 988.807,1629.05C988.797,1629.24 988.571,1629.34 988.407,1629.23C987.233,1628.43 986,1627.71 984.716,1627.08C984.147,1626.8 983.545,1626.52 982.87,1626.63C982.66,1626.67 982.456,1626.75 982.294,1626.87C981.685,1627.35 981.893,1628.08 982.16,1628.68C982.837,1630.18 983.839,1631.55 985.087,1632.7C985.207,1632.81 985.183,1632.99 985.036,1633.07C983.244,1634.01 981.557,1635.13 980.009,1636.39C979.456,1636.84 978.866,1637.54 979.361,1638.14C979.626,1638.46 980.078,1638.59 980.505,1638.52L987.264,1637.45C987.349,1637.43 987.425,1637.49 987.423,1637.57C987.382,1639.17 987.449,1640.99 987.516,1642.81C987.54,1643.48 987.642,1644.28 988.432,1644.48C988.621,1644.53 988.825,1644.53 989.014,1644.48C989.852,1644.26 991.368,1640.83 992.396,1637.29C992.408,1637.25 992.461,1637.23 992.493,1637.26C993.762,1638.4 995.162,1639.41 996.661,1640.28C997.35,1640.68 998.144,1641.06 998.966,1640.66C999.845,1640.23 1000.08,1639.15 999.534,1638.39C997.871,1636.07 996.393,1634.75 995.958,1633.87C995.941,1633.84 995.965,1633.8 996,1633.78C999.566,1631.41 1003.41,1629.58 1001.93,1628.43C1001.7,1628.25 1001.38,1628.19 1001.08,1628.25Z" style="fill:rgb(26,57,102);fill-rule:nonzero;"/>
            </g>
            <g transform="matrix(1,0,0,1,-472.275,33.0395)">
                <path d="M1203.21,1461.34C1197.57,1465.61 1190.35,1475.01 1187.12,1481.3C1183.89,1487.59 1183.1,1495.28 1185.79,1501.82C1188.48,1508.36 1194.87,1513.44 1201.94,1513.79C1209,1514.13 1216.19,1509.21 1217.79,1501.81C1217.16,1505.88 1219.9,1510.03 1223.69,1511.63C1227.48,1513.22 1232,1512.5 1235.5,1510.35C1239.01,1508.2 1241.59,1504.77 1241.33,1499.72C1242.28,1506.65 1249.58,1511.72 1256.55,1511.12C1263.52,1510.52 1269.52,1505.02 1271.74,1498.39C1273.96,1491.76 1272.77,1484.29 1269.55,1478.08C1266.33,1471.87 1263.82,1466.8 1258.25,1462.56C1253.4,1458.87 1247.01,1455.06 1241.04,1453.83C1234.11,1452.39 1220.19,1448.46 1203.21,1461.34Z" style="fill:white;fill-rule:nonzero;"/>
            </g>
            <g transform="matrix(1,0,0,1,-472.275,33.0395)">
                <path d="M1198.97,1464.5C1189.83,1472.24 1182.04,1482.68 1181.92,1495.13C1181.87,1501.16 1183.72,1507.21 1187.69,1511.81C1192.09,1516.89 1198.8,1518.32 1205.09,1516.23C1211.33,1514.15 1216.62,1509.49 1219.55,1503.62C1217.88,1503.16 1216.2,1502.71 1214.52,1502.25C1213.79,1510.01 1221.71,1515.82 1228.87,1515.83C1236.69,1515.83 1242.11,1509.25 1245.65,1503.02C1243.97,1502.57 1242.29,1502.11 1240.61,1501.66C1240.85,1509.95 1251.68,1515.91 1259.18,1514.18C1269.49,1511.8 1274.4,1499.59 1274.89,1490.11C1275.19,1484.42 1273.72,1478.81 1270.94,1473.86C1269.24,1470.82 1264.57,1473.54 1266.27,1476.59C1270.32,1483.79 1270.55,1492.64 1267.03,1500.14C1265.49,1503.42 1263.24,1506.46 1259.97,1508.15C1257.28,1509.54 1254.69,1509.27 1251.85,1507.96C1250.28,1507.23 1248.87,1506.29 1247.69,1505.04C1247.1,1504.42 1246.79,1503.99 1246.39,1503.19C1246.2,1502.81 1246.03,1502.14 1246.02,1501.66C1245.94,1499.04 1242.34,1497.9 1240.98,1500.29C1238.56,1504.54 1234.97,1509.96 1229.59,1510.4C1224.87,1510.78 1219.46,1507.21 1219.92,1502.25C1220.17,1499.59 1216.05,1498.56 1214.89,1500.89C1212.78,1505.09 1209.41,1508.49 1205.11,1510.44C1200.52,1512.53 1195.49,1512.27 1191.95,1508.46C1185.08,1501.09 1186.68,1489.37 1191.34,1481.34C1194.27,1476.3 1198.36,1472.08 1202.79,1468.33C1203.91,1467.38 1203.76,1465.48 1202.79,1464.5C1201.69,1463.4 1200.08,1463.56 1198.97,1464.5Z" style="fill:rgb(26,57,102);fill-rule:nonzero;"/>
            </g>
            <g transform="matrix(1,0,0,1,-472.275,33.0395)">
                <path d="M941.073,1609.62C961.672,1591.47 986.978,1579.54 1013.33,1572.39C1042.79,1564.41 1073.39,1562.51 1103.79,1563.27C1136.96,1564.1 1170.01,1567.79 1203.02,1570.86C1236.27,1573.96 1269.52,1577.05 1302.77,1580.14C1336.02,1583.24 1369.27,1586.33 1402.52,1589.43C1406.64,1589.81 1410.75,1590.19 1414.87,1590.57C1417.78,1590.85 1420.28,1587.9 1420.28,1585.17C1420.28,1582.02 1417.79,1580.03 1414.87,1579.76C1381.3,1576.64 1347.74,1573.51 1314.17,1570.39C1280.45,1567.25 1246.72,1564.11 1213,1560.97C1179.64,1557.87 1146.25,1554.12 1112.76,1552.75C1081.25,1551.46 1049.39,1552.7 1018.59,1559.91C990.797,1566.42 963.984,1577.84 941.359,1595.41C938.646,1597.51 936.002,1599.7 933.425,1601.97C931.232,1603.9 931.451,1607.65 933.425,1609.62C935.602,1611.8 938.875,1611.56 941.073,1609.62Z" style="fill:rgb(26,57,102);fill-rule:nonzero;"/>
            </g>
            <g transform="matrix(1,0,0,1,-472.275,33.0395)">
                <path d="M965.766,1608.32C994.902,1605.35 1023.91,1601.27 1052.84,1596.68C1081.78,1592.09 1110.64,1587 1139.52,1582.07C1168.2,1577.17 1196.91,1572.41 1225.73,1568.45C1254.18,1564.53 1282.76,1561.46 1311.43,1559.81C1340.25,1558.15 1369.16,1557.96 1397.97,1559.88C1401.64,1560.12 1405.31,1560.4 1408.97,1560.72C1411.88,1560.96 1414.38,1558.05 1414.38,1555.31C1414.38,1552.18 1411.89,1550.15 1408.97,1549.9C1380.18,1547.46 1351.25,1547.15 1322.39,1548.43C1293.38,1549.72 1264.45,1552.57 1235.65,1556.3C1206.62,1560.07 1177.71,1564.69 1148.84,1569.56C1120.09,1574.42 1091.38,1579.52 1062.6,1584.22C1034.07,1588.87 1005.48,1593.14 976.751,1596.34C973.091,1596.74 969.43,1597.13 965.766,1597.51C962.861,1597.8 960.358,1599.78 960.358,1602.91C960.358,1605.61 962.843,1608.62 965.766,1608.32Z" style="fill:rgb(26,57,102);fill-rule:nonzero;"/>
            </g>
            <g transform="matrix(1,0,0,1,-472.275,33.0395)">
                <path d="M1119.97,1462.66C1125.61,1466.93 1132.84,1476.33 1136.06,1482.62C1139.29,1488.92 1140.08,1496.6 1137.39,1503.14C1134.71,1509.68 1128.31,1514.77 1121.25,1515.11C1114.18,1515.46 1106.99,1510.54 1105.4,1503.14C1106.02,1507.2 1103.28,1511.35 1099.49,1512.95C1095.7,1514.55 1091.19,1513.83 1087.68,1511.68C1084.17,1509.53 1081.59,1506.1 1081.85,1501.05C1080.9,1507.98 1073.6,1513.05 1066.63,1512.45C1059.66,1511.84 1053.66,1506.35 1051.44,1499.71C1049.22,1493.08 1050.42,1485.62 1053.63,1479.41C1056.85,1473.2 1059.37,1468.13 1064.93,1463.89C1069.78,1460.19 1076.17,1456.39 1082.14,1455.15C1089.07,1453.72 1102.99,1449.79 1119.97,1462.66Z" style="fill:white;fill-rule:nonzero;"/>
            </g>
            <g transform="matrix(1,0,0,1,-472.275,33.0395)">
                <path d="M1120.79,1469.65C1128.27,1475.98 1135.35,1484.31 1136.16,1494.5C1136.55,1499.37 1135.62,1504.26 1132.82,1508.33C1131.54,1510.18 1129.7,1511.88 1127.54,1512.62C1125.2,1513.42 1122.71,1513.19 1120.37,1512.48C1115.22,1510.9 1111.08,1506.97 1108.7,1502.21C1107.53,1499.88 1103.41,1500.91 1103.66,1503.58C1104.12,1508.56 1098.72,1512.08 1093.99,1511.72C1088.62,1511.32 1085,1505.84 1082.6,1501.62C1081.25,1499.23 1077.64,1500.36 1077.56,1502.98C1077.54,1503.86 1077.1,1504.91 1076.43,1505.76C1075.47,1506.97 1074.28,1507.88 1072.96,1508.64C1070.25,1510.2 1067.37,1510.86 1064.76,1509.97C1057.35,1507.43 1054.21,1497.57 1054.07,1490.54C1053.98,1486.08 1055.13,1481.79 1057.31,1477.91C1059.01,1474.87 1054.34,1472.14 1052.64,1475.18C1047.44,1484.45 1047.45,1495.87 1052.42,1505.27C1054.69,1509.55 1058.2,1513.22 1062.77,1514.98C1066.86,1516.56 1071.3,1515.62 1075.08,1513.64C1079.1,1511.54 1082.84,1507.76 1082.97,1502.98C1081.29,1503.44 1079.61,1503.89 1077.93,1504.35C1081.47,1510.57 1086.9,1517.16 1094.72,1517.15C1101.87,1517.15 1109.79,1511.34 1109.07,1503.58C1107.39,1504.03 1105.71,1504.49 1104.03,1504.94C1109.29,1515.45 1124.19,1523.64 1134.39,1514.65C1143.87,1506.3 1143.04,1491.35 1137.55,1481.09C1134.39,1475.17 1129.71,1470.14 1124.62,1465.83C1123.5,1464.88 1121.88,1464.74 1120.79,1465.83C1119.82,1466.8 1119.67,1468.7 1120.79,1469.65Z" style="fill:rgb(26,57,102);fill-rule:nonzero;"/>
            </g>
            <g transform="matrix(1,0,0,1,-472.275,33.0395)">
                <path d="M1070.83,1565.91C1057.57,1601.38 1024.06,1625.59 1007.31,1659.56C1001.14,1672.08 997.581,1687.68 1004.9,1699.57C1012.62,1712.1 1030.17,1715.6 1044.21,1711.16C1058.25,1706.73 1067.52,1689.67 1075.13,1677.06C1094.85,1644.35 1096.72,1643.42 1113.07,1609.89C1128.74,1577.77 1110.06,1558.08 1099.55,1555.42C1089.05,1552.76 1074.39,1556.37 1070.83,1565.91Z" style="fill:white;fill-rule:nonzero;"/>
            </g>
            <g transform="matrix(1,0,0,1,-472.275,33.0395)">
                <path d="M1064.03,1602.41C1066.14,1596.97 1074.8,1595.27 1083.38,1598.6C1091.95,1601.93 1097.19,1609.03 1095.08,1614.47C1092.97,1619.91 1084.3,1621.62 1075.73,1618.29C1067.15,1614.95 1061.91,1607.85 1064.03,1602.41Z" style="fill:rgb(251,210,207);fill-rule:nonzero;"/>
            </g>
            <g transform="matrix(1,0,0,1,-472.275,33.0395)">
                <path d="M1080.88,1585.3C1082.36,1581.49 1086.54,1579.55 1090.22,1580.98C1093.89,1582.41 1095.67,1586.66 1094.19,1590.47C1092.71,1594.29 1088.53,1596.22 1084.85,1594.79C1081.18,1593.37 1079.4,1589.12 1080.88,1585.3Z" style="fill:rgb(251,210,207);fill-rule:nonzero;"/>
            </g>
            <g transform="matrix(1,0,0,1,-472.275,33.0395)">
                <path d="M1094.56,1596.08C1096.04,1592.27 1100.22,1590.34 1103.9,1591.76C1107.57,1593.19 1109.35,1597.44 1107.87,1601.25C1106.39,1605.07 1102.21,1607 1098.53,1605.58C1094.86,1604.15 1093.08,1599.9 1094.56,1596.08Z" style="fill:rgb(251,210,207);fill-rule:nonzero;"/>
            </g>
            <g transform="matrix(1,0,0,1,-472.275,33.0395)">
                <path d="M1063.51,1584.02C1064.99,1580.21 1069.17,1578.27 1072.85,1579.7C1076.52,1581.13 1078.3,1585.38 1076.82,1589.19C1075.34,1593.01 1071.16,1594.94 1067.48,1593.51C1063.81,1592.09 1062.03,1587.84 1063.51,1584.02Z" style="fill:rgb(251,210,207);fill-rule:nonzero;"/>
            </g>
            <g transform="matrix(1,0,0,1,-472.275,33.0395)">
                <path d="M1054.72,1696.77C1050.88,1701.69 1046.42,1706.25 1040.92,1709.3C1036.87,1711.54 1032.6,1712.72 1028.12,1712.46C1026.4,1712.37 1024.52,1711.99 1022.54,1711.27C1021.66,1710.95 1021.17,1710.74 1020.14,1710.18C1019.24,1709.7 1018.37,1709.15 1017.53,1708.56C1016.96,1708.15 1016.2,1707.52 1015.44,1706.82C1014.67,1706.09 1013.94,1705.32 1013.25,1704.51C1011.98,1703.02 1010.71,1701.04 1009.7,1699.05C1005.1,1690 1005.31,1679.06 1008.51,1669.32C1012.66,1656.68 1021.17,1646 1029.29,1635.69C1036.8,1626.16 1043.98,1616.48 1049.96,1605.91C1052.76,1600.94 1055.39,1595.88 1058.05,1590.83C1061.08,1585.09 1064.04,1579.29 1067.82,1573.99C1070.83,1569.78 1074.35,1565.87 1078.41,1562.64C1079.77,1561.55 1081.74,1560.24 1083.48,1559.28C1084.35,1558.8 1085.25,1558.36 1086.16,1557.96C1086.95,1557.61 1085.68,1558.14 1086.48,1557.83C1086.64,1557.76 1086.8,1557.7 1086.96,1557.64C1087.52,1557.43 1088.08,1557.24 1088.65,1557.06C1089.43,1556.82 1090.22,1556.61 1091.02,1556.44C1091.49,1556.34 1091.96,1556.26 1092.43,1556.19C1092.54,1556.17 1092.96,1556.12 1092.41,1556.19C1092.72,1556.15 1093.03,1556.11 1093.34,1556.09C1094.17,1556.02 1095,1555.99 1095.84,1556.01C1096.21,1556.02 1096.58,1556.04 1096.95,1556.07C1097.16,1556.09 1098.42,1556.25 1097.77,1556.14C1099.39,1556.4 1100.94,1556.83 1102.47,1557.41C1102.88,1557.57 1101.89,1557.14 1102.52,1557.43C1102.72,1557.52 1102.92,1557.61 1103.11,1557.7C1103.43,1557.86 1103.75,1558.02 1104.07,1558.19C1104.83,1558.61 1105.57,1559.07 1106.28,1559.57C1106.4,1559.66 1106.51,1559.74 1106.63,1559.83C1107.22,1560.26 1106.21,1559.48 1106.78,1559.95C1107.09,1560.2 1107.4,1560.46 1107.7,1560.73C1108.34,1561.31 1108.95,1561.92 1109.53,1562.57C1109.78,1562.85 1110.03,1563.14 1110.27,1563.44C1110.32,1563.49 1110.79,1564.1 1110.42,1563.62C1110.56,1563.8 1110.7,1563.99 1110.83,1564.18C1111.34,1564.89 1111.81,1565.63 1112.25,1566.38C1112.7,1567.17 1113.12,1567.97 1113.5,1568.79C1113.6,1569.02 1113.71,1569.25 1113.81,1569.48C1113.63,1569.06 1113.8,1569.46 1113.83,1569.54C1114.06,1570.1 1114.27,1570.67 1114.46,1571.24C1115.11,1573.13 1115.59,1575.08 1115.93,1577.06C1116.6,1581.01 1116.58,1586.07 1116.02,1590.49C1115.34,1595.77 1113.78,1601.26 1111.83,1606.33C1110.71,1609.23 1109.41,1612.05 1107.99,1614.81C1106.41,1617.9 1111.07,1620.64 1112.66,1617.54C1118.13,1606.86 1122.08,1594.97 1121.84,1582.85C1121.66,1574.18 1119.22,1565.31 1113.35,1558.74C1108.44,1553.25 1101.17,1550.17 1093.8,1550.65C1084.53,1551.25 1076.31,1556.5 1069.97,1563.01C1060.8,1572.4 1055.35,1584.47 1049.26,1595.91C1043.66,1606.42 1037.41,1616.39 1030.17,1625.85C1021.55,1637.11 1011.91,1647.94 1006.01,1660.99C1001,1672.08 998.847,1684.7 1002.81,1696.48C1005.88,1705.62 1012.5,1713.74 1021.89,1716.75C1032.56,1720.17 1043.43,1715.47 1051.4,1708.35C1054.03,1706.01 1056.38,1703.37 1058.54,1700.6C1059.44,1699.45 1059.66,1697.9 1058.54,1696.77C1057.61,1695.84 1055.62,1695.62 1054.72,1696.77Z" style="fill:rgb(26,57,102);fill-rule:nonzero;"/>
            </g>
            <g transform="matrix(1,0,0,1,-472.275,33.0395)">
                <path d="M1251.72,1565.69C1264,1601.51 1296.84,1626.63 1312.64,1661.04C1318.47,1673.73 1321.6,1689.42 1313.96,1701.1C1305.9,1713.43 1288.25,1716.44 1274.34,1711.62C1260.43,1706.8 1264.69,1701.35 1254.95,1690.31C1230.99,1663.15 1205.06,1599.23 1204.49,1592C1202.98,1572.62 1212.72,1556.79 1223.29,1554.42C1233.87,1552.05 1248.42,1556.06 1251.72,1565.69Z" style="fill:white;fill-rule:nonzero;"/>
            </g>
            <g transform="matrix(1,0,0,1,-472.275,33.0395)">
                <path d="M1257.52,1602.36C1255.56,1596.87 1246.94,1594.93 1238.28,1598.02C1229.62,1601.11 1224.18,1608.08 1226.14,1613.57C1228.11,1619.06 1236.72,1621.01 1245.38,1617.91C1254.05,1614.82 1259.48,1607.86 1257.52,1602.36Z" style="fill:rgb(251,210,207);fill-rule:nonzero;"/>
            </g>
            <g transform="matrix(1,0,0,1,-472.275,33.0395)">
                <path d="M1241.14,1584.8C1239.76,1580.95 1235.64,1578.9 1231.92,1580.22C1228.21,1581.55 1226.32,1585.75 1227.69,1589.6C1229.07,1593.45 1233.19,1595.5 1236.91,1594.18C1240.62,1592.85 1242.51,1588.65 1241.14,1584.8Z" style="fill:rgb(251,210,207);fill-rule:nonzero;"/>
            </g>
            <g transform="matrix(1,0,0,1,-472.275,33.0395)">
                <path d="M1227.17,1595.2C1225.79,1591.35 1221.66,1589.3 1217.95,1590.63C1214.24,1591.95 1212.34,1596.15 1213.72,1600C1215.1,1603.86 1219.22,1605.91 1222.93,1604.58C1226.65,1603.25 1228.54,1599.06 1227.17,1595.2Z" style="fill:rgb(251,210,207);fill-rule:nonzero;"/>
            </g>
            <g transform="matrix(1,0,0,1,-472.275,33.0395)">
                <path d="M1258.54,1584C1257.16,1580.14 1253.04,1578.1 1249.32,1579.42C1245.61,1580.75 1243.72,1584.95 1245.09,1588.8C1246.47,1592.65 1250.59,1594.7 1254.31,1593.38C1258.02,1592.05 1259.91,1587.85 1258.54,1584Z" style="fill:rgb(251,210,207);fill-rule:nonzero;"/>
            </g>
            <g transform="matrix(1,0,0,1,-472.275,33.0395)">
                <path d="M1260.33,1700.18C1267.25,1709.57 1277.01,1718.35 1289.29,1718.77C1298.77,1719.09 1307.22,1713.74 1312.47,1706.09C1318.62,1697.13 1320.07,1685.65 1318.18,1675.12C1315.68,1661.19 1307.57,1649.04 1299.34,1637.85C1291.58,1627.27 1283.75,1616.84 1277.5,1605.28C1274.72,1600.16 1272.17,1594.92 1269.6,1589.69C1266.55,1583.49 1263.62,1577.2 1259.78,1571.43C1254.22,1563.09 1246.73,1555.13 1236.93,1552.02C1229.82,1549.76 1221.92,1550.8 1215.83,1555.18C1199.77,1566.74 1199.87,1590.25 1205.4,1607.23C1206.4,1610.29 1207.6,1613.29 1208.92,1616.22C1209.52,1617.55 1211.46,1617.87 1212.62,1617.19C1213.99,1616.39 1214.19,1614.83 1213.59,1613.49C1209.28,1603.9 1206.75,1593.43 1207.54,1582.93C1207.83,1579.05 1208.73,1574.85 1210.3,1570.92C1210.33,1570.85 1210.5,1570.44 1210.33,1570.84C1210.43,1570.6 1210.54,1570.36 1210.64,1570.13C1210.82,1569.74 1211.01,1569.35 1211.2,1568.97C1211.65,1568.07 1212.13,1567.2 1212.66,1566.35C1213.76,1564.61 1214.21,1564 1215.56,1562.56C1216.13,1561.95 1216.73,1561.37 1217.36,1560.82C1218.22,1560.06 1217.98,1560.24 1218.92,1559.6C1219.58,1559.14 1220.26,1558.72 1220.96,1558.34C1221.28,1558.17 1221.6,1558.01 1221.93,1557.85C1222.12,1557.76 1222.32,1557.67 1222.52,1557.58C1221.93,1557.84 1222.53,1557.58 1222.67,1557.53C1223.41,1557.25 1224.15,1557 1224.92,1556.8C1225.26,1556.71 1225.61,1556.62 1225.96,1556.55C1226.18,1556.51 1226.39,1556.47 1226.6,1556.43C1226.74,1556.41 1226.89,1556.38 1227.03,1556.36C1226.7,1556.4 1226.64,1556.41 1226.85,1556.39C1228.51,1556.19 1230.17,1556.2 1231.84,1556.38C1232.36,1556.44 1231.9,1556.39 1231.8,1556.37C1232.03,1556.41 1232.26,1556.45 1232.48,1556.49C1232.87,1556.56 1233.25,1556.63 1233.63,1556.72C1234.58,1556.94 1235.51,1557.22 1236.42,1557.55C1236.81,1557.69 1237.21,1557.84 1237.59,1558C1237.07,1557.79 1237.85,1558.12 1237.89,1558.14C1238.12,1558.25 1238.36,1558.36 1238.59,1558.48C1239.48,1558.91 1240.35,1559.39 1241.19,1559.91C1245.02,1562.26 1248.33,1565.44 1251.33,1569.05C1255.21,1573.72 1258.26,1579.02 1260.97,1584.43C1263.74,1589.96 1266.42,1595.52 1269.2,1601.04C1274.42,1611.4 1280.42,1621.2 1287.27,1630.58C1300.8,1649.1 1320.13,1671.63 1311.49,1696.13C1310.15,1699.93 1307.9,1703.75 1305.12,1706.63C1302.42,1709.43 1299.22,1711.5 1295.66,1712.56C1293.42,1713.22 1292.12,1713.4 1289.85,1713.37C1287.63,1713.35 1286.14,1713.11 1283.92,1712.45C1279.26,1711.05 1274.96,1708.14 1271.35,1704.7C1269.02,1702.48 1266.91,1700.04 1265,1697.45C1264.14,1696.27 1262.66,1695.68 1261.3,1696.48C1260.14,1697.15 1259.46,1698.99 1260.33,1700.18Z" style="fill:rgb(26,57,102);fill-rule:nonzero;"/>
            </g>
            <g transform="matrix(1,0,0,1,-472.275,33.0395)">
                <path d="M1121.41,1721.54C1103.09,1754.87 1087.07,1789.36 1101.35,1824.6C1113.36,1854.23 1142.93,1875.46 1174.37,1881.26C1219.32,1889.57 1267.91,1880.32 1304.76,1853.28C1341.61,1826.24 1359.48,1786.84 1357.59,1741.17C1355.69,1695.5 1332.65,1645.42 1290.31,1628.19C1270.48,1620.11 1252.11,1624.26 1236.7,1639.13C1221.99,1653.33 1214.71,1671.23 1217.78,1691.45C1220.84,1711.67 1226.38,1732.63 1220.23,1752.14C1214.09,1771.65 1190.26,1779.17 1173.36,1767.65C1165.1,1762.01 1160.77,1759.79 1157.92,1750.2C1155.06,1740.61 1152.49,1730.42 1145.64,1723.13C1138.79,1715.83 1126.07,1713.07 1121.41,1721.54Z" style="fill:white;fill-rule:nonzero;"/>
            </g>
            <g transform="matrix(1,0,0,1,-472.275,33.0395)">
                <path d="M1147.95,1741.52C1150.53,1749.7 1154.19,1757.38 1160.74,1763.12C1165.97,1767.7 1172.4,1770.85 1179.24,1772.11C1192.72,1774.6 1207.4,1770.39 1216.63,1760C1221.6,1754.41 1224.76,1747.42 1225.84,1740.03C1227.53,1728.45 1225.38,1716.84 1223.08,1705.5C1220.87,1694.58 1218.35,1683.44 1219.59,1672.23C1220.61,1663.12 1224.96,1654.83 1231.11,1648.13C1243,1635.18 1260.94,1627.78 1278.36,1627.63C1282.6,1627.6 1287.02,1627.7 1290.98,1629.15C1294.53,1630.46 1297.78,1631.91 1301.24,1633.75C1308.04,1637.36 1313.93,1641.59 1319.45,1646.75C1330.39,1656.96 1338.74,1670 1344.32,1683.67C1350.29,1698.29 1353.59,1713.89 1354.64,1729.37C1355.7,1745.11 1354.61,1760.68 1351.17,1775.86C1349.51,1783.2 1347.31,1790.42 1344.48,1797.4C1343.3,1800.31 1341.73,1803.73 1340.1,1806.86C1338.54,1809.88 1336.83,1812.81 1335.01,1815.68C1333.28,1818.42 1331.46,1821.1 1329.54,1823.71C1327.71,1826.2 1326.12,1828.2 1323.92,1830.78C1319.83,1835.6 1315.4,1840.13 1310.69,1844.36C1305.81,1848.74 1301.61,1852.03 1296.33,1855.67C1291.21,1859.19 1285.89,1862.4 1280.39,1865.29C1277.66,1866.72 1274.89,1868.08 1272.07,1869.36C1269.02,1870.75 1267.17,1871.53 1264,1872.76C1258.3,1874.97 1252.47,1876.87 1246.56,1878.45C1240.72,1880.01 1234.79,1881.26 1228.81,1882.2C1228.1,1882.31 1227.39,1882.41 1226.68,1882.52C1226.36,1882.56 1226.05,1882.6 1225.73,1882.65C1224.96,1882.76 1226.11,1882.6 1225.63,1882.66C1225.4,1882.69 1225.16,1882.72 1224.92,1882.75C1223.46,1882.94 1222,1883.11 1220.54,1883.26C1217.55,1883.56 1214.55,1883.78 1211.56,1883.92C1205.77,1884.2 1199.97,1884.16 1194.2,1883.8C1191.34,1883.62 1188.49,1883.36 1185.65,1883.02C1185.32,1882.98 1184.98,1882.93 1184.64,1882.89C1184.47,1882.87 1183.44,1882.73 1184.14,1882.83C1183.4,1882.72 1182.65,1882.62 1181.91,1882.5C1180.54,1882.3 1179.17,1882.07 1177.81,1881.82C1172.39,1880.83 1167.03,1879.51 1161.79,1877.84C1159.23,1877.03 1156.69,1876.13 1154.19,1875.14C1153.6,1874.91 1153.01,1874.66 1152.42,1874.42C1152.29,1874.37 1152.16,1874.31 1152.03,1874.26C1152.59,1874.49 1152.22,1874.34 1152.1,1874.29C1151.75,1874.14 1151.39,1873.98 1151.04,1873.83C1149.85,1873.31 1148.67,1872.76 1147.5,1872.2C1142.84,1869.95 1138.35,1867.36 1134.11,1864.41C1133.05,1863.68 1132.01,1862.91 1130.98,1862.14C1130.35,1861.66 1131.17,1862.3 1130.66,1861.89C1130.42,1861.7 1130.18,1861.52 1129.95,1861.33C1129.42,1860.91 1128.9,1860.48 1128.38,1860.05C1126.48,1858.46 1124.65,1856.78 1122.89,1855.03C1121.12,1853.26 1119.44,1851.4 1117.84,1849.47C1117.46,1849.01 1117.08,1848.54 1116.71,1848.07C1116.6,1847.94 1116.5,1847.81 1116.4,1847.68C1116.45,1847.74 1116.76,1848.15 1116.46,1847.76C1116.26,1847.49 1116.06,1847.23 1115.86,1846.96C1115.1,1845.94 1114.36,1844.9 1113.66,1843.84C1112.25,1841.74 1110.94,1839.57 1109.75,1837.34C1109.16,1836.22 1108.59,1835.1 1108.06,1833.95C1107.79,1833.4 1107.54,1832.83 1107.29,1832.27C1107.15,1831.95 1107.01,1831.64 1106.87,1831.32C1107.15,1831.96 1106.76,1831.04 1106.68,1830.83C1104.66,1825.88 1103.17,1820.72 1102.17,1815.46C1101.92,1814.11 1101.7,1812.75 1101.5,1811.39C1101.41,1810.72 1101.54,1811.71 1101.44,1810.89C1101.4,1810.55 1101.35,1810.21 1101.32,1809.87C1101.23,1809.15 1101.16,1808.43 1101.09,1807.7C1100.82,1804.72 1100.7,1801.72 1100.71,1798.73C1100.71,1795.66 1100.86,1792.59 1101.13,1789.54C1101.27,1787.9 1101.45,1786.27 1101.66,1784.64C1101.74,1784.08 1101.69,1784.48 1101.67,1784.59C1101.7,1784.37 1101.73,1784.16 1101.76,1783.94C1101.82,1783.54 1101.87,1783.15 1101.93,1782.75C1102.07,1781.86 1102.21,1780.98 1102.37,1780.09C1103.59,1773.03 1105.39,1766.08 1107.61,1759.27C1110.05,1751.79 1112.92,1744.66 1116.2,1737.61C1116.83,1736.25 1116.58,1734.62 1115.2,1733.81C1114.01,1733.11 1112.04,1733.44 1111.41,1734.81C1104.83,1748.97 1099.5,1763.85 1096.91,1779.29C1094.81,1791.75 1094.47,1804.48 1096.83,1816.94C1098.81,1827.43 1102.83,1837.58 1108.76,1846.47C1114.6,1855.25 1122.13,1862.71 1130.73,1868.79C1139.51,1875 1149.38,1879.64 1159.59,1882.96C1170.45,1886.48 1181.79,1888.48 1193.16,1889.27C1205.16,1890.11 1217.21,1889.49 1229.1,1887.72C1241.25,1885.91 1253.2,1882.79 1264.67,1878.41C1276.49,1873.9 1287.83,1868.13 1298.3,1861.02C1308.89,1853.83 1318.63,1845.35 1327.01,1835.67C1335.93,1825.38 1343.49,1813.85 1348.82,1801.3C1354.99,1786.74 1358.51,1771.2 1359.91,1755.46C1361.34,1739.35 1360.44,1723 1357.18,1707.15C1354.01,1691.71 1348.44,1676.58 1340.03,1663.2C1331.74,1650.01 1320.63,1638.59 1307.14,1630.7C1303.66,1628.66 1300.03,1626.89 1296.31,1625.33C1294.47,1624.56 1292.54,1623.64 1290.6,1623.2C1288.33,1622.69 1285.96,1622.45 1283.65,1622.27C1274.47,1621.56 1265.07,1622.91 1256.36,1625.82C1238.92,1631.64 1223,1644.02 1216.4,1661.6C1212.35,1672.41 1213.55,1684.5 1215.51,1695.61C1217.5,1706.87 1220.6,1718.04 1220.91,1729.53C1221.03,1734.29 1220.71,1739.07 1219.41,1743.66C1218.9,1745.44 1218.3,1747.08 1217.67,1748.44C1216.92,1750.03 1216.06,1751.57 1215.08,1753.02C1214.11,1754.47 1213.48,1755.27 1212.17,1756.67C1211.03,1757.9 1209.8,1759.03 1208.5,1760.08C1208.44,1760.13 1208.08,1760.4 1208.44,1760.13C1208.3,1760.24 1208.16,1760.34 1208.02,1760.44C1207.67,1760.7 1207.31,1760.96 1206.95,1761.2C1206.23,1761.69 1205.5,1762.16 1204.75,1762.59C1204.07,1762.99 1203.38,1763.36 1202.68,1763.71C1202.37,1763.86 1202.06,1764.01 1201.75,1764.16C1201.55,1764.25 1201.35,1764.33 1201.15,1764.42C1201.03,1764.48 1200.92,1764.53 1200.8,1764.58C1201.02,1764.49 1201.04,1764.48 1200.86,1764.55C1199.33,1765.17 1197.77,1765.7 1196.17,1766.12C1195.42,1766.32 1194.66,1766.49 1193.89,1766.65C1193.51,1766.72 1193.12,1766.79 1192.74,1766.86C1192.53,1766.89 1192.31,1766.93 1192.1,1766.96C1191.97,1766.98 1191.84,1767 1191.71,1767.02C1191.97,1766.98 1192,1766.98 1191.8,1767C1188.56,1767.4 1185.27,1767.41 1182.04,1766.99C1182.57,1767.06 1182,1766.98 1181.87,1766.96C1181.66,1766.92 1181.44,1766.89 1181.23,1766.85C1180.88,1766.8 1180.54,1766.73 1180.2,1766.67C1179.34,1766.49 1178.49,1766.3 1177.65,1766.07C1176.89,1765.86 1176.13,1765.63 1175.39,1765.37C1174.97,1765.23 1174.56,1765.08 1174.15,1764.93C1173.99,1764.86 1173.82,1764.8 1173.66,1764.73C1173.64,1764.72 1172.86,1764.4 1173.35,1764.61C1171.81,1763.94 1170.31,1763.16 1168.88,1762.29C1168.19,1761.86 1167.52,1761.42 1166.87,1760.95C1166.04,1760.37 1165.92,1760.27 1165.07,1759.56C1158.92,1754.33 1155.71,1747.71 1153.3,1740.05C1152.23,1736.66 1146.88,1738.1 1147.95,1741.52Z" style="fill:rgb(26,57,102);fill-rule:nonzero;"/>
            </g>
            <g transform="matrix(1,0,0,1,-472.275,33.0395)">
                <path d="M1280.35,1536.34C1280.71,1532.8 1281.1,1529.27 1281.51,1525.74C1281.7,1524.12 1281.9,1522.51 1282.1,1520.9C1282.2,1520.09 1282.3,1519.28 1282.41,1518.48C1282.46,1518.07 1282.51,1517.67 1282.57,1517.26C1282.6,1517.03 1282.83,1515.3 1282.66,1516.52C1283.59,1509.72 1284.63,1502.93 1285.83,1496.16C1288.25,1482.51 1291.31,1468.96 1295.32,1455.68C1297.32,1449.05 1299.57,1442.49 1302.1,1436.04C1302.68,1434.55 1303.29,1433.07 1303.89,1431.59C1304.48,1430.16 1303.63,1432.19 1304,1431.33C1304.16,1430.97 1304.31,1430.6 1304.47,1430.23C1304.85,1429.35 1305.23,1428.48 1305.62,1427.6C1306.98,1424.55 1308.42,1421.54 1309.92,1418.56C1312.99,1412.5 1316.38,1406.59 1320.1,1400.9C1321.91,1398.13 1323.81,1395.41 1325.79,1392.75C1326.26,1392.12 1326.73,1391.49 1327.21,1390.87C1326.49,1391.81 1327.45,1390.57 1327.53,1390.46C1327.72,1390.21 1327.92,1389.97 1328.12,1389.72C1329.2,1388.36 1330.31,1387.01 1331.43,1385.69C1335.87,1380.49 1340.63,1375.45 1345.82,1371C1346.44,1370.47 1347.07,1369.96 1347.7,1369.45C1348.51,1368.79 1347.95,1369.25 1347.77,1369.39C1348.16,1369.09 1348.56,1368.79 1348.96,1368.5C1350.43,1367.43 1351.95,1366.42 1353.51,1365.48C1354.92,1364.64 1356.37,1363.85 1357.85,1363.14C1358.29,1362.93 1358.74,1362.73 1359.18,1362.53C1360.15,1362.1 1359.43,1362.43 1359.23,1362.51C1360.12,1362.16 1361.02,1361.83 1361.93,1361.53C1363.5,1361.03 1365.08,1360.73 1366.68,1360.37C1367.56,1360.17 1365.38,1360.47 1366.83,1360.34C1367.2,1360.31 1367.58,1360.27 1367.95,1360.24C1368.85,1360.18 1369.74,1360.17 1370.64,1360.21C1371.01,1360.22 1371.38,1360.26 1371.75,1360.28C1373.16,1360.36 1370.99,1360.11 1371.85,1360.29C1372.65,1360.46 1373.44,1360.6 1374.23,1360.82C1374.51,1360.91 1374.8,1361 1375.08,1361.09C1375.26,1361.15 1376.63,1361.72 1375.47,1361.2C1376.31,1361.58 1377.13,1362 1377.92,1362.49C1378.26,1362.7 1379.94,1363.96 1378.86,1363.08C1379.37,1363.49 1379.87,1363.92 1380.34,1364.38C1380.81,1364.83 1381.22,1365.31 1381.66,1365.79C1382.51,1366.69 1381.23,1365.08 1381.65,1365.74C1381.88,1366.11 1382.17,1366.46 1382.41,1366.83C1382.75,1367.36 1383.07,1367.91 1383.37,1368.47C1383.54,1368.79 1384.51,1370.6 1383.8,1369.26C1384.45,1370.49 1384.79,1372 1385.11,1373.34C1385.26,1373.99 1385.4,1374.64 1385.51,1375.29C1385.58,1375.69 1385.67,1376.09 1385.7,1376.49C1385.59,1375.19 1385.64,1375.99 1385.66,1376.27C1385.79,1377.86 1385.9,1379.44 1385.9,1381.04C1385.9,1382.54 1385.83,1384.03 1385.7,1385.52C1385.64,1386.23 1385.57,1386.95 1385.49,1387.66C1385.45,1387.95 1385.42,1388.24 1385.38,1388.52C1385.57,1387.06 1385.3,1388.97 1385.26,1389.23C1384.22,1395.66 1382.28,1401.87 1380.26,1408.04C1377.87,1415.37 1375.25,1422.63 1372.41,1429.81C1371.75,1431.47 1371.08,1433.14 1370.4,1434.79C1370.06,1435.62 1369.71,1436.45 1369.36,1437.28C1369.71,1436.47 1369.26,1437.53 1369.18,1437.72C1368.93,1438.3 1368.68,1438.88 1368.43,1439.45C1366.94,1442.91 1365.39,1446.35 1363.8,1449.76C1357.34,1463.57 1350.05,1476.99 1341.99,1489.93C1337.91,1496.48 1333.64,1502.9 1329.17,1509.19C1324.61,1515.61 1320.7,1520.76 1316.04,1526.54C1313.68,1529.47 1311.26,1532.36 1308.81,1535.22C1311.64,1537.41 1314.48,1539.59 1317.31,1541.78C1320.71,1537.2 1324.11,1532.63 1327.56,1528.08C1328.34,1527.05 1329.13,1526.01 1329.92,1524.98C1330.34,1524.43 1330.77,1523.88 1331.19,1523.33C1331.26,1523.24 1331.92,1522.38 1331.56,1522.85C1331.24,1523.26 1332.12,1522.13 1332.1,1522.16C1333.8,1519.97 1335.51,1517.79 1337.25,1515.62C1344.26,1506.85 1351.57,1498.3 1359.4,1490.25C1363.35,1486.2 1367.43,1482.28 1371.66,1478.54C1373.71,1476.73 1375.79,1474.97 1377.91,1473.25C1378.44,1472.82 1378.98,1472.39 1379.51,1471.97C1379.78,1471.76 1380.05,1471.55 1380.31,1471.34C1380.43,1471.24 1381.12,1470.71 1380.43,1471.24C1381.58,1470.36 1382.74,1469.49 1383.91,1468.64C1388.4,1465.37 1393.06,1462.33 1397.87,1459.56C1399.98,1458.35 1402.1,1457.17 1404.32,1456.18C1404.58,1456.07 1404.84,1455.95 1405.11,1455.84C1404.05,1456.3 1404.78,1455.98 1405.01,1455.89C1405.54,1455.68 1406.08,1455.47 1406.62,1455.28C1407.78,1454.86 1408.95,1454.49 1410.13,1454.16C1411.16,1453.88 1412.21,1453.63 1413.26,1453.43C1413.82,1453.32 1414.38,1453.24 1414.94,1453.14C1413.51,1453.39 1415.58,1453.09 1415.98,1453.06C1417,1452.99 1418.02,1452.97 1419.03,1453.02C1419.56,1453.04 1420.08,1453.11 1420.61,1453.13C1421.37,1453.16 1419.6,1452.92 1420.33,1453.1C1420.64,1453.17 1420.97,1453.21 1421.28,1453.28C1422.05,1453.44 1423.59,1453.62 1424.18,1454.15C1424.13,1454.1 1423.03,1453.58 1423.92,1454.07C1424.14,1454.18 1424.36,1454.29 1424.58,1454.41C1425.02,1454.65 1425.43,1454.93 1425.86,1455.2C1426.72,1455.74 1425.73,1455.05 1425.67,1455.03C1425.81,1455.07 1426.12,1455.41 1426.25,1455.53C1426.63,1455.88 1427,1456.25 1427.34,1456.64C1427.52,1456.84 1427.69,1457.04 1427.85,1457.25C1427.7,1457.06 1427.22,1456.28 1427.77,1457.2C1428.14,1457.8 1428.46,1458.43 1428.82,1459.04C1429.21,1459.73 1428.6,1458.27 1428.81,1459.03C1428.89,1459.32 1429.01,1459.61 1429.1,1459.9C1429.28,1460.49 1429.37,1461.1 1429.53,1461.69C1429.69,1462.29 1429.51,1461.48 1429.51,1461.4C1429.54,1461.7 1429.57,1462.01 1429.59,1462.32C1429.64,1463.1 1429.64,1463.89 1429.6,1464.67C1429.58,1465.02 1429.39,1466.75 1429.56,1465.61C1429.47,1466.18 1429.37,1466.74 1429.26,1467.29C1428.97,1468.67 1428.59,1470.03 1428.13,1471.36C1427.92,1472 1427.68,1472.62 1427.44,1473.25C1427.38,1473.41 1427.05,1474.21 1427.41,1473.35C1427.28,1473.66 1427.14,1473.97 1427,1474.27C1426.46,1475.48 1425.86,1476.66 1425.23,1477.83C1423.95,1480.17 1422.56,1482.45 1421.13,1484.69C1419.7,1486.91 1418.2,1489.09 1416.64,1491.23C1416.27,1491.74 1415.88,1492.26 1415.5,1492.77C1415.31,1493.02 1415.12,1493.28 1414.92,1493.53C1414.88,1493.58 1414.4,1494.21 1414.76,1493.74C1415.16,1493.23 1414.54,1494.02 1414.45,1494.14C1414.25,1494.39 1414.05,1494.64 1413.85,1494.89C1413.4,1495.45 1412.95,1496 1412.49,1496.55C1409.2,1500.55 1405.68,1504.36 1401.99,1508C1398.29,1511.66 1394.41,1515.14 1390.4,1518.46C1389.41,1519.28 1388.41,1520.09 1387.4,1520.9C1386.9,1521.3 1386.39,1521.7 1385.88,1522.1C1385.63,1522.3 1385.37,1522.49 1385.12,1522.69C1385.72,1522.22 1385.18,1522.65 1384.87,1522.88C1382.74,1524.5 1380.59,1526.09 1378.41,1527.64C1361.03,1540 1342.21,1550.14 1323.28,1559.88C1320.96,1561.07 1318.65,1562.26 1316.33,1563.44C1313.42,1564.93 1312.63,1569.77 1315.23,1571.93C1328.11,1582.62 1340.91,1593.68 1351.38,1606.81C1351.58,1607.06 1351.78,1607.31 1351.98,1607.56C1352.01,1607.61 1352.5,1608.24 1352.14,1607.77C1351.85,1607.4 1352.6,1608.38 1352.74,1608.56C1353.36,1609.38 1353.97,1610.22 1354.57,1611.06C1355.76,1612.74 1356.9,1614.44 1357.99,1616.18C1360.13,1619.62 1362.06,1623.19 1363.71,1626.89C1363.86,1627.23 1364.25,1628.18 1363.89,1627.3C1364.07,1627.73 1364.25,1628.16 1364.41,1628.59C1364.81,1629.6 1365.18,1630.61 1365.53,1631.64C1366.16,1633.47 1366.71,1635.32 1367.18,1637.2C1367.67,1639.17 1368.08,1641.15 1368.38,1643.16C1368.42,1643.39 1368.45,1643.62 1368.49,1643.86C1368.47,1643.78 1368.38,1642.95 1368.45,1643.59C1368.5,1644.14 1368.58,1644.69 1368.63,1645.24C1368.72,1646.2 1368.8,1647.16 1368.83,1648.12C1368.86,1648.91 1368.85,1649.7 1368.82,1650.49C1368.8,1650.95 1368.77,1651.42 1368.73,1651.89C1368.71,1652.14 1368.52,1653.52 1368.64,1652.78C1368.77,1652.01 1368.55,1653.26 1368.52,1653.46C1368.44,1653.86 1368.36,1654.26 1368.27,1654.65C1368.07,1655.57 1367.82,1656.48 1367.53,1657.37C1367.4,1657.75 1367.27,1658.12 1367.13,1658.49C1367.06,1658.68 1366.98,1658.86 1366.92,1659.05C1366.93,1659.01 1367.36,1658.13 1367.07,1658.65C1366.67,1659.38 1366.35,1660.15 1365.92,1660.86C1365.69,1661.24 1365.45,1661.6 1365.2,1661.96C1365.11,1662.09 1365,1662.31 1364.87,1662.41C1364.86,1662.42 1365.59,1661.62 1365.15,1662.03C1364.58,1662.55 1364.08,1663.16 1363.51,1663.68C1362.79,1664.34 1364.31,1663.2 1363.48,1663.69C1363.13,1663.9 1362.78,1664.11 1362.43,1664.32C1362.39,1664.34 1361.96,1664.56 1361.95,1664.56C1361.93,1664.5 1363.01,1664.2 1362.43,1664.35C1362.03,1664.46 1361.64,1664.63 1361.24,1664.73C1361.07,1664.77 1360.87,1664.79 1360.7,1664.85C1360.09,1665.08 1361.29,1664.74 1361.23,1664.8C1361.05,1664.96 1360.15,1664.88 1359.93,1664.88C1359.65,1664.88 1358.37,1664.77 1359.24,1664.9C1358.54,1664.8 1357.84,1664.61 1357.17,1664.39C1356.96,1664.33 1355.74,1663.86 1356.44,1664.17C1355.94,1663.95 1355.45,1663.7 1354.97,1663.45C1353.84,1662.86 1352.74,1662.19 1351.67,1661.5C1349.98,1660.41 1348.32,1659.27 1346.7,1658.09C1345.86,1657.48 1345.03,1656.86 1344.21,1656.23C1344.93,1656.78 1344.05,1656.1 1343.8,1655.91C1343.36,1655.56 1342.93,1655.21 1342.5,1654.86C1340.9,1653.55 1339.33,1652.2 1337.8,1650.82C1334.74,1648.04 1331.82,1645.1 1329.05,1642.03C1327.73,1640.55 1326.43,1639.04 1325.18,1637.5C1324.82,1637.07 1324.47,1636.63 1324.13,1636.2C1323.99,1636.02 1323.23,1635.04 1323.52,1635.43C1323.82,1635.81 1323.06,1634.82 1322.93,1634.64C1322.6,1634.2 1322.27,1633.75 1321.94,1633.3C1319.5,1629.96 1317.23,1626.5 1315.13,1622.93C1313.07,1619.43 1311.18,1615.83 1309.47,1612.15C1309.03,1611.22 1308.61,1610.27 1308.2,1609.32C1308.06,1609.01 1307.64,1608 1307.99,1608.86C1307.78,1608.35 1307.57,1607.83 1307.36,1607.31C1306.59,1605.39 1305.87,1603.46 1305.2,1601.5C1303.85,1597.59 1302.7,1593.62 1301.76,1589.59C1301.31,1587.65 1300.9,1585.71 1300.55,1583.75C1300.36,1582.74 1300.19,1581.72 1300.03,1580.7C1299.96,1580.22 1299.9,1579.75 1299.82,1579.28C1299.72,1578.64 1299.84,1579.46 1299.85,1579.54C1299.81,1579.22 1299.77,1578.9 1299.73,1578.59C1299.48,1576.54 1299.29,1574.48 1299.14,1572.41C1298.94,1569.6 1296.8,1566.87 1293.73,1567C1290.97,1567.13 1288.11,1569.39 1288.32,1572.41C1289.6,1590.4 1294.73,1607.9 1303.22,1623.81C1311.5,1639.33 1323.03,1653.31 1336.9,1664.14C1344.48,1670.07 1354.16,1678.02 1364.46,1675.07C1372.53,1672.75 1377.25,1664.73 1378.83,1656.93C1380.58,1648.34 1379.22,1639.28 1376.68,1630.97C1374.11,1622.56 1370.07,1614.61 1365.13,1607.36C1354.96,1592.43 1341.6,1580.06 1327.88,1568.47C1326.22,1567.07 1324.55,1565.67 1322.88,1564.29C1322.52,1567.12 1322.15,1569.95 1321.79,1572.78C1341.62,1562.66 1361.45,1552.35 1379.86,1539.77C1398.32,1527.15 1415.31,1512.25 1428.07,1493.75C1431.14,1489.3 1434.1,1484.66 1436.34,1479.73C1438.86,1474.2 1440.92,1468.02 1440.37,1461.86C1439.79,1455.45 1436.89,1449.85 1431.62,1446.08C1427.52,1443.14 1422.19,1442.05 1417.21,1442.19C1406.2,1442.49 1396.24,1447.65 1387.13,1453.4C1377.15,1459.7 1367.87,1467.14 1359.28,1475.21C1341.98,1491.45 1327.4,1510.31 1313.22,1529.26C1311.47,1531.61 1309.72,1533.96 1307.97,1536.32C1306.36,1538.47 1307.43,1541.8 1309.36,1543.29C1311.35,1544.83 1314.7,1544.92 1316.46,1542.87C1337.19,1518.68 1354.98,1491.99 1369.16,1463.46C1376.32,1449.07 1382.59,1434.23 1387.93,1419.07C1392.49,1406.1 1397.44,1392.3 1396.64,1378.32C1396.28,1371.94 1394.75,1365.34 1390.87,1360.13C1386.23,1353.89 1379.49,1350.18 1371.75,1349.47C1364.28,1348.78 1356.68,1351.42 1350.2,1354.92C1343.61,1358.48 1337.85,1363.36 1332.55,1368.6C1312.12,1388.79 1298.12,1414.37 1288.65,1441.29C1279.07,1468.52 1274.06,1497.14 1270.7,1525.74C1270.28,1529.27 1269.9,1532.8 1269.53,1536.34C1269.24,1539.16 1272.23,1541.87 1274.94,1541.75C1278.12,1541.61 1280.04,1539.36 1280.35,1536.34Z" style="fill:rgb(26,57,102);fill-rule:nonzero;"/>
            </g>
            <g transform="matrix(1,0,0,1,-472.275,33.0395)">
                <path d="M1214.24,1363.04C1220.36,1363.04 1225.33,1368 1225.33,1374.13C1225.33,1380.25 1220.36,1385.21 1214.24,1385.21C1208.12,1385.21 1203.15,1380.25 1203.15,1374.13C1203.15,1368 1208.12,1363.04 1214.24,1363.04Z" style="fill:rgb(26,57,102);fill-rule:nonzero;"/>
            </g>
            <g transform="matrix(1,0,0,1,-472.275,33.0395)">
                <path d="M1114.7,1363.04C1120.82,1363.04 1125.79,1368 1125.79,1374.13C1125.79,1380.25 1120.82,1385.21 1114.7,1385.21C1108.58,1385.21 1103.61,1380.25 1103.61,1374.13C1103.61,1368 1108.58,1363.04 1114.7,1363.04Z" style="fill:rgb(26,57,102);fill-rule:nonzero;"/>
            </g>
            <g transform="matrix(1,0,0,1,-472.275,33.0395)">
                <path d="M1242.87,1391.55C1261.69,1391.55 1276.94,1397.84 1276.94,1405.61C1276.94,1413.37 1261.69,1419.67 1242.87,1419.67C1224.06,1419.67 1208.8,1413.37 1208.8,1405.61C1208.8,1397.84 1224.06,1391.55 1242.87,1391.55Z" style="fill:rgb(251,210,207);fill-rule:nonzero;"/>
            </g>
            <g transform="matrix(1,0,0,1,-472.275,33.0395)">
                <path d="M1087.61,1391.55C1106.43,1391.55 1121.68,1397.84 1121.68,1405.61C1121.68,1413.37 1106.43,1419.67 1087.61,1419.67C1068.79,1419.67 1053.54,1413.37 1053.54,1405.61C1053.54,1397.84 1068.79,1391.55 1087.61,1391.55Z" style="fill:rgb(251,210,207);fill-rule:nonzero;"/>
            </g>
            <g transform="matrix(1,0,0,1,-472.275,33.0395)">
                <path d="M1257.43,1382.31C1275.41,1375.76 1294.24,1371.55 1313.32,1369.97C1318.74,1369.53 1324.18,1369.29 1329.62,1369.25C1333.1,1369.22 1333.11,1363.81 1329.62,1363.84C1310.09,1363.99 1290.56,1366.73 1271.76,1372.01C1266.44,1373.5 1261.18,1375.21 1255.99,1377.1C1254.62,1377.6 1253.69,1378.93 1254.1,1380.42C1254.47,1381.75 1256.05,1382.81 1257.43,1382.31Z" style="fill:rgb(26,57,102);fill-rule:nonzero;"/>
            </g>
            <g transform="matrix(1,0,0,1,-472.275,33.0395)">
                <path d="M1261.58,1405.21C1280.54,1402.94 1299.84,1403.11 1318.73,1405.91C1324.14,1406.72 1329.52,1407.73 1334.85,1408.94C1338.24,1409.7 1339.68,1404.49 1336.29,1403.72C1317.26,1399.42 1297.67,1397.61 1278.18,1398.45C1272.63,1398.69 1267.09,1399.15 1261.58,1399.8C1260.13,1399.98 1258.87,1400.92 1258.87,1402.51C1258.87,1403.84 1260.12,1405.39 1261.58,1405.21Z" style="fill:rgb(26,57,102);fill-rule:nonzero;"/>
            </g>
            <g transform="matrix(1,0,0,1,-472.275,33.0395)">
                <path d="M1266.4,1393.43C1283.75,1388.57 1302.1,1387.34 1319.93,1390.02C1321.37,1390.24 1322.84,1389.66 1323.26,1388.13C1323.61,1386.86 1322.82,1385.02 1321.37,1384.81C1302.54,1381.98 1283.3,1383.08 1264.96,1388.22C1261.61,1389.15 1263.04,1394.37 1266.4,1393.43Z" style="fill:rgb(26,57,102);fill-rule:nonzero;"/>
            </g>
            <g transform="matrix(1,0,0,1,-472.275,33.0395)">
                <path d="M1071.76,1373.3C1053.1,1367.65 1033.68,1364.49 1014.2,1363.93C1008.63,1363.77 1003.07,1363.83 997.513,1364.09C994.048,1364.25 994.029,1369.66 997.513,1369.5C1016.61,1368.59 1035.77,1370.19 1054.43,1374.34C1059.78,1375.53 1065.08,1376.93 1070.32,1378.52C1073.66,1379.53 1075.08,1374.31 1071.76,1373.3Z" style="fill:rgb(26,57,102);fill-rule:nonzero;"/>
            </g>
            <g transform="matrix(1,0,0,1,-472.275,33.0395)">
                <path d="M1067.44,1396.25C1047.93,1395 1028.27,1396.38 1009.12,1400.31C1003.71,1401.41 998.357,1402.73 993.052,1404.24C989.711,1405.19 991.131,1410.41 994.49,1409.46C1012.93,1404.21 1031.99,1401.41 1051.16,1401.21C1056.59,1401.15 1062.02,1401.31 1067.44,1401.65C1068.9,1401.75 1070.14,1400.34 1070.14,1398.95C1070.14,1397.41 1068.9,1396.34 1067.44,1396.25Z" style="fill:rgb(26,57,102);fill-rule:nonzero;"/>
            </g>
            <g transform="matrix(1,0,0,1,-472.275,33.0395)">
                <path d="M1063.41,1384.9C1044.83,1380.79 1025.54,1380.67 1006.9,1384.53C1005.47,1384.83 1004.65,1386.51 1005.01,1387.86C1005.42,1389.34 1006.91,1390.04 1008.34,1389.75C1026,1386.09 1044.37,1386.22 1061.98,1390.12C1065.37,1390.87 1066.82,1385.65 1063.41,1384.9Z" style="fill:rgb(26,57,102);fill-rule:nonzero;"/>
            </g>
            <g transform="matrix(1,0,0,1,-472.275,33.0395)">
                <path d="M1162.32,1390.4C1162.09,1390.22 1161.88,1390.03 1161.67,1389.84C1159.77,1388.15 1152.92,1382.8 1157.68,1380.47C1160.59,1379.05 1164.66,1379.56 1167.76,1379.95C1168.59,1380.06 1169.44,1380.18 1170.26,1380.36C1173.8,1381.17 1173.37,1383.79 1171.44,1386.14C1169.8,1388.14 1166.82,1391.85 1163.82,1391.18C1163.26,1391.06 1162.77,1390.76 1162.32,1390.4Z" style="fill:rgb(26,57,102);fill-rule:nonzero;"/>
            </g>
            <g transform="matrix(1,0,0,1,-472.275,33.0395)">
                <path d="M1161.96,1383.56L1161.96,1403.56C1161.96,1407.04 1167.37,1407.05 1167.37,1403.56L1167.37,1383.56C1167.37,1380.08 1161.96,1380.07 1161.96,1383.56Z" style="fill:rgb(26,57,102);fill-rule:nonzero;"/>
            </g>
        </g>
    </g>
</svg>
