<?xml version="1.0" encoding="UTF-8" standalone="no"?>
<!DOCTYPE svg PUBLIC "-//W3C//DTD SVG 1.1//EN" "http://www.w3.org/Graphics/SVG/1.1/DTD/svg11.dtd">
<svg width="100%" height="100%" viewBox="0 0 3257 4093" version="1.1" xmlns="http://www.w3.org/2000/svg" xmlns:xlink="http://www.w3.org/1999/xlink" xml:space="preserve" xmlns:serif="http://www.serif.com/" style="fill-rule:evenodd;clip-rule:evenodd;stroke-linejoin:round;stroke-miterlimit:2;">
    <g transform="matrix(1,0,0,1,-344.461,-178.34)">
        <g transform="matrix(4.16667,0,0,4.16667,1617.99,-391.541)">
            <g transform="matrix(1,0,0,1,-429.108,-5.19277)">
                <path d="M833.374,849.086C849.037,851.349 879.712,856.912 872.675,878.852C867.368,892.904 844.998,890.608 832.427,891.064C832.787,876.832 833.104,862.769 833.374,849.086ZM142.332,1005.48C169.818,1064.74 233.672,1115.31 298.952,1099.47C331.089,1115.06 376.828,1119.43 414.363,1121.9C432.919,1123.09 446.43,1123.95 464.335,1124.1C475.564,1124.65 491.953,1122.95 498.344,1110.9C517.62,1107.75 534.995,1102.54 550.113,1095.39C569.328,1096.5 596.435,1101.37 613.439,1091.41L702.665,1095.65C706.226,1109.79 727.444,1110.55 732.175,1097.05C738.255,1097.33 776.71,1099.29 781.851,1099.25C812.239,1101 827.47,1079.22 826.681,1051.77C827.576,1032.5 828.57,1008.88 829.357,988.315C845.328,972.159 844.019,946.452 831.42,927.626C831.474,925.85 831.527,924.074 831.581,922.298C867.148,924.411 906.037,912.947 904.887,870.327C903.118,834.533 865.322,820.578 833.921,817.801C834.652,770.882 834.955,723.677 834.821,677.339C832.06,632.427 794.497,628.684 758.163,632.308C756.746,630.35 754.826,628.683 752.748,627.567C748.799,599.519 731.11,574.196 706.307,565.776C701.728,512.978 689.735,456.74 675.344,402.407C698.896,412.167 709.185,380.403 683.326,377.464C684.735,373.61 684.198,369.245 681.903,365.758C697.046,363.696 695.299,339.438 679.753,339.912C672.459,339.965 665.081,340.392 657.714,341.181C644.993,306.008 623.308,201.407 567.858,243.276C565.944,238.733 563.912,234.245 561.77,229.831C562.832,224.236 559.48,217.989 554.402,215.729C548.142,204.498 541.119,193.681 533.44,183.444C544.9,164.756 529.322,141.126 508.306,141.987C483.761,141.146 467.026,171.524 485.76,190.465C478.242,207.519 471.747,225.056 466.353,242.854C411.799,202.495 390.281,303.767 377.373,340.033C371.446,339.836 365.552,339.887 359.589,340.167C343.925,340.716 343.009,364.624 358.624,366.12C356.527,369.68 356.225,374.102 357.84,377.862C338.497,379.145 339.247,406.66 358.822,404.527C352.019,430.257 346.441,453.97 341.58,477.927C335.636,478.949 329.677,480.207 323.784,481.688C256.515,400.782 230.628,488.252 221.817,552.644C195.95,552.343 194.78,578.27 214.415,580.058C212.798,583.653 213.095,588.392 215.255,591.866C200.51,594.596 197.947,615.313 213.549,618.549C208.155,677.275 206.818,736.148 214.137,791.062C123.07,806.759 103.587,933.276 142.332,1005.48Z" style="fill:white;fill-rule:nonzero;"/>
            </g>
            <g transform="matrix(1,0,0,1,-429.108,-5.19277)">
                <path d="M464.126,651.222L787.911,641.905C807.935,641.329 824.512,657.37 824.57,677.403C824.929,802.086 822.219,926.777 816.441,1051.33C815.943,1062.07 814.932,1073.94 807.151,1081.36C798.868,1089.27 786.04,1089.21 774.605,1088.67C659.2,1083.19 543.796,1077.71 428.392,1072.23C415.779,1071.63 402.298,1070.73 392.273,1063.05C377.109,1051.44 375.774,1029.48 375.847,1010.38C376.326,884.029 380.161,757.693 464.126,651.222Z" style="fill:rgb(242,107,96);fill-rule:nonzero;"/>
            </g>
            <g transform="matrix(1,0,0,1,-429.108,-5.19277)">
                <path d="M528.435,664.469C534.679,662.848 538.025,655.029 535.866,649.158L514.972,649.759C514.781,650.31 514.624,650.893 514.51,651.514C513.146,658.932 521.133,666.364 528.435,664.469Z" style="fill:rgb(26,57,102);fill-rule:nonzero;"/>
            </g>
            <g transform="matrix(1,0,0,1,-429.108,-5.19277)">
                <path d="M453.004,761.308C451.639,768.727 459.627,776.158 466.928,774.263C474.229,772.369 477.594,761.991 472.794,756.172C467.994,750.353 454.9,750.996 453.004,761.308Z" style="fill:rgb(26,57,102);fill-rule:nonzero;"/>
            </g>
            <g transform="matrix(1,0,0,1,-429.108,-5.19277)">
                <path d="M389.921,860.321C397.223,858.426 400.588,848.048 395.787,842.23C393.621,839.604 389.767,838.3 386.014,838.6C384.893,845.559 383.896,852.548 383.011,859.562C385.165,860.568 387.577,860.93 389.921,860.321Z" style="fill:rgb(26,57,102);fill-rule:nonzero;"/>
            </g>
            <g transform="matrix(1,0,0,1,-429.108,-5.19277)">
                <path d="M578.194,722.266C576.83,729.685 584.817,737.116 592.118,735.221C599.42,733.326 602.785,722.948 597.985,717.13C593.185,711.311 580.091,711.953 578.194,722.266Z" style="fill:rgb(26,57,102);fill-rule:nonzero;"/>
            </g>
            <g transform="matrix(1,0,0,1,-429.108,-5.19277)">
                <path d="M536.693,825.298C535.328,832.717 543.315,840.148 550.617,838.253C557.917,836.358 561.283,825.98 556.482,820.161C551.683,814.343 538.589,814.985 536.693,825.298Z" style="fill:rgb(26,57,102);fill-rule:nonzero;"/>
            </g>
            <g transform="matrix(1,0,0,1,-429.108,-5.19277)">
                <path d="M453.004,907.301C451.639,914.719 459.627,922.15 466.928,920.255C474.229,918.361 477.594,907.983 472.794,902.164C467.994,896.345 454.9,896.987 453.004,907.301Z" style="fill:rgb(26,57,102);fill-rule:nonzero;"/>
            </g>
            <g transform="matrix(1,0,0,1,-429.108,-5.19277)">
                <path d="M375.998,1011.33C374.633,1018.75 382.621,1026.18 389.921,1024.29C397.223,1022.39 400.588,1012.01 395.787,1006.19C390.988,1000.38 377.894,1001.02 375.998,1011.33Z" style="fill:rgb(26,57,102);fill-rule:nonzero;"/>
            </g>
            <g transform="matrix(1,0,0,1,-429.108,-5.19277)">
                <path d="M725.669,885.232C724.304,892.651 732.292,900.082 739.592,898.187C746.894,896.292 750.258,885.914 745.459,880.096C740.659,874.277 727.565,874.919 725.669,885.232Z" style="fill:rgb(26,57,102);fill-rule:nonzero;"/>
            </g>
            <g transform="matrix(1,0,0,1,-429.108,-5.19277)">
                <path d="M802.573,1000.3C801.209,1007.71 809.197,1015.15 816.497,1013.25C817.069,1013.1 817.607,1012.89 818.129,1012.64C818.405,1005.96 818.671,999.277 818.929,992.595C813.059,989.92 804.115,991.911 802.573,1000.3Z" style="fill:rgb(26,57,102);fill-rule:nonzero;"/>
            </g>
            <g transform="matrix(1,0,0,1,-429.108,-5.19277)">
                <path d="M690.656,1004.99C689.292,1012.4 697.279,1019.84 704.58,1017.94C711.881,1016.05 715.246,1005.67 710.446,999.85C705.647,994.031 692.552,994.673 690.656,1004.99Z" style="fill:rgb(26,57,102);fill-rule:nonzero;"/>
            </g>
            <g transform="matrix(1,0,0,1,-429.108,-5.19277)">
                <path d="M647.935,1070.49C643.135,1064.67 630.041,1065.31 628.145,1075.62C627.755,1077.74 628.147,1079.85 629.049,1081.76C635.646,1082.07 642.243,1082.38 648.839,1082.7C650.742,1078.79 650.728,1073.87 647.935,1070.49Z" style="fill:rgb(26,57,102);fill-rule:nonzero;"/>
            </g>
            <g transform="matrix(1,0,0,1,-429.108,-5.19277)">
                <path d="M605.963,918.335C604.599,925.753 612.586,933.184 619.887,931.29C627.188,929.395 630.553,919.017 625.753,913.198C620.953,907.379 607.859,908.022 605.963,918.335Z" style="fill:rgb(26,57,102);fill-rule:nonzero;"/>
            </g>
            <g transform="matrix(1,0,0,1,-429.108,-5.19277)">
                <path d="M525.602,1000.3C524.237,1007.71 532.225,1015.15 539.525,1013.25C546.826,1011.36 550.191,1000.98 545.392,995.16C540.592,989.341 527.498,989.983 525.602,1000.3Z" style="fill:rgb(26,57,102);fill-rule:nonzero;"/>
            </g>
            <g transform="matrix(1,0,0,1,-429.108,-5.19277)">
                <path d="M475.464,1074.46C482.679,1074.81 489.894,1075.15 497.109,1075.49C496.862,1073.68 496.174,1071.94 494.975,1070.49C490.363,1064.9 478.098,1065.28 475.464,1074.46Z" style="fill:rgb(26,57,102);fill-rule:nonzero;"/>
            </g>
            <g transform="matrix(1,0,0,1,-429.108,-5.19277)">
                <path d="M736.759,722.266C735.395,729.685 743.383,737.116 750.683,735.221C757.984,733.326 761.349,722.948 756.55,717.13C751.75,711.311 738.656,711.953 736.759,722.266Z" style="fill:rgb(26,57,102);fill-rule:nonzero;"/>
            </g>
            <g transform="matrix(1,0,0,1,-429.108,-5.19277)">
                <path d="M693.489,812.941C700.79,811.046 704.155,800.668 699.355,794.849C694.556,789.031 681.462,789.673 679.565,799.986C678.201,807.404 686.188,814.836 693.489,812.941Z" style="fill:rgb(26,57,102);fill-rule:nonzero;"/>
            </g>
            <g transform="matrix(1,0,0,1,-429.108,-5.19277)">
                <path d="M693.489,654.842C698.099,653.646 701.132,649.068 701.539,644.39L679.54,645.024C680.478,651.228 687.227,656.468 693.489,654.842Z" style="fill:rgb(26,57,102);fill-rule:nonzero;"/>
            </g>
            <g transform="matrix(1,0,0,1,-429.108,-5.19277)">
                <path d="M802.573,836.332C801.209,843.751 809.197,851.182 816.497,849.287C819.523,848.502 821.857,846.251 823.23,843.48C823.297,839.931 823.357,836.383 823.42,832.834C823.122,832.262 822.785,831.706 822.364,831.196C817.564,825.377 804.47,826.019 802.573,836.332Z" style="fill:rgb(26,57,102);fill-rule:nonzero;"/>
            </g>
            <g transform="matrix(1,0,0,1,-429.108,-5.19277)">
                <path d="M491.323,724.161C491.332,724.161 491.34,724.162 491.349,724.162C492.307,724.215 493.26,724.173 494.211,724.047C494.575,723.999 494.938,723.952 495.302,723.908C549.284,717.362 611.157,724.585 657.912,695.166C659.587,694.112 661.066,692.78 662.254,691.198C667.074,684.78 684.465,664.03 689.946,649.437C696.397,632.261 694.963,616.758 694.963,598.41C694.963,556.149 684.387,508.191 674.753,453.611C661.481,385.116 643.353,334.299 616.817,268.944C616.48,268.114 616.07,267.299 615.598,266.537C601.516,243.798 592.866,239.066 580.825,250.001C570.871,259.04 559.805,263.023 554.744,274.056C552.153,279.705 546.525,283.334 540.31,283.382C524.219,283.505 506.125,282.134 490.432,282.553C484.262,282.718 478.535,279.389 475.713,273.9C475.011,272.534 473.924,270.564 471.955,267.423C464.675,255.812 453.424,242.326 440.325,246.356C428.196,250.087 423.872,256.341 418.62,267.893C400.578,307.577 382.323,358.84 373.51,400.604C360.801,460.833 345.303,510.297 341.671,579.703C340.532,601.454 339.303,617.85 342.994,639.316C352.395,693.996 396.94,708.199 405.314,710.684C413.538,713.125 481.019,722.783 489.911,724.028C490.378,724.094 490.852,724.136 491.323,724.161Z" style="fill:white;fill-rule:nonzero;"/>
            </g>
            <g transform="matrix(1,0,0,1,-429.108,-5.19277)">
                <path d="M595.181,677.259C579.126,688.632 566.208,704.384 558.198,722.355C555.92,727.466 554.047,733.447 556.424,738.512C558.574,743.091 563.806,745.618 568.86,745.839C573.913,746.059 578.844,744.355 583.515,742.415C600.299,735.442 615.482,725.19 630.536,715.009C643.089,706.519 655.746,697.942 666.227,686.998C676.708,676.054 684.984,662.409 686.899,647.377C687.693,641.149 687.141,634.186 682.829,629.624C675.794,622.18 663.391,625.102 654.23,629.681C625.424,644.08 604.781,670.458 595.181,677.259Z" style="fill:white;fill-rule:nonzero;"/>
            </g>
            <g transform="matrix(1,0,0,1,-429.108,-5.19277)">
                <path d="M430.432,672.888C449.47,684.711 465.158,701.864 475.237,721.88C477.56,726.492 479.612,731.91 477.646,736.685C475.657,741.518 469.988,744.001 464.765,743.822C459.542,743.644 455.142,739.82 449.979,739.006C414.662,733.443 403.548,729.534 368.138,694.125C363.375,689.361 355.424,673.981 352.481,667.922C349.538,661.863 349.266,654.034 353.535,648.823C359.26,641.833 370.065,642.324 378.787,644.681C405.399,651.875 426.92,670.707 430.432,672.888Z" style="fill:white;fill-rule:nonzero;"/>
            </g>
            <g transform="matrix(1,0,0,1,-429.108,-5.19277)">
                <path d="M470.317,290.904C482.924,288.208 495.674,286.184 508.549,285.371C520.063,284.645 531.618,284.897 543.096,286.056C549.651,286.718 556.167,287.679 562.654,288.828C564.036,289.073 565.458,288.455 565.855,287.01C566.201,285.753 565.429,284.055 564.037,283.809C552.219,281.714 540.278,280.241 528.275,279.855C516.008,279.461 503.758,280.235 491.603,281.88C483.995,282.909 476.44,284.279 468.934,285.885C465.66,286.585 467.045,291.604 470.317,290.904Z" style="fill:rgb(26,57,102);fill-rule:nonzero;"/>
            </g>
            <g transform="matrix(1,0,0,1,-429.108,-5.19277)">
                <path d="M575.613,410.287C553.16,418.128 535.844,439.084 532.377,462.612C531.282,470.042 531.551,477.958 535.046,484.605C538.54,491.253 545.827,496.265 553.286,495.391C562.283,494.336 568.354,485.699 571.831,477.335C575.307,468.97 577.67,459.668 584.22,453.411C590.359,447.545 599.552,445.058 604.32,438.032C609.7,430.104 606.998,418.337 599.559,412.301C592.12,406.264 582.509,407.879 575.613,410.287Z" style="fill:white;fill-rule:nonzero;"/>
            </g>
            <g transform="matrix(1,0,0,1,-429.108,-5.19277)">
                <path d="M453.412,410.073C474.902,417.076 492.493,435.047 499.035,456.681C501.866,466.044 502.61,476.589 498.126,485.283C493.642,493.976 482.757,499.772 473.681,496.125C465.977,493.03 461.923,484.661 459.294,476.786C456.666,468.911 454.477,460.351 448.357,454.741C442.255,449.146 432.744,447.007 429.064,439.592C426.058,433.535 428.34,425.926 432.795,420.839C437.25,415.752 443.48,412.635 453.412,410.073Z" style="fill:white;fill-rule:nonzero;"/>
            </g>
            <g transform="matrix(1,0,0,1,-429.108,-5.19277)">
                <path d="M611.864,466.072C606.326,455.434 598.278,446.273 588.65,439.155C578.864,431.921 567.094,426.683 554.971,425.157C548.339,424.321 541.479,424.912 535.402,427.849C530.193,430.367 526.064,434.967 523.896,440.299C521.697,445.704 522.078,451.899 525.282,456.831C528.715,462.116 534.252,465.369 539.969,467.671C546.955,470.484 554.256,472.157 560.471,476.613C565.833,480.458 570.009,485.793 572.716,491.785C573.295,493.067 575.154,493.376 576.277,492.719C577.595,491.948 577.792,490.444 577.211,489.158C574.846,483.925 571.359,479.163 567.092,475.317C562.442,471.127 557.079,468.288 551.221,466.165C542.072,462.849 526.846,458.962 527.713,446.372C528.034,441.707 530.961,437.285 534.573,434.459C539.164,430.867 545.25,429.821 550.941,430.025C562.212,430.43 573.472,435.211 582.772,441.373C593.12,448.231 601.638,457.69 607.369,468.699C608.917,471.671 613.41,469.042 611.864,466.072Z" style="fill:rgb(26,57,102);fill-rule:nonzero;"/>
            </g>
            <g transform="matrix(1,0,0,1,-429.108,-5.19277)">
                <path d="M550.226,435.473C543.493,432.89 536.192,432.315 529.106,433.538C527.72,433.777 526.942,435.479 527.288,436.739C527.691,438.205 529.099,438.797 530.489,438.557C536.664,437.492 543.011,438.255 548.842,440.493C550.154,440.996 551.697,439.936 552.043,438.675C552.447,437.207 551.543,435.979 550.226,435.473Z" style="fill:rgb(26,57,102);fill-rule:nonzero;"/>
            </g>
            <g transform="matrix(1,0,0,1,-429.108,-5.19277)">
                <path d="M546.145,449.215C539.418,446.219 532.183,445.265 524.908,446.41C523.518,446.629 522.748,448.366 523.091,449.612C523.498,451.093 524.898,451.649 526.292,451.429C532.035,450.525 538.183,451.334 543.518,453.71C544.801,454.282 546.315,454.082 547.079,452.776C547.728,451.667 547.435,449.79 546.145,449.215Z" style="fill:rgb(26,57,102);fill-rule:nonzero;"/>
            </g>
            <g transform="matrix(1,0,0,1,-429.108,-5.19277)">
                <path d="M431.406,461.557C437.766,452.465 446.286,444.97 455.981,439.602C465.727,434.206 477.029,430.69 488.229,430.659C494.074,430.643 500.02,431.745 504.974,434.994C508.971,437.615 511.856,441.932 512.828,446.599C513.841,451.46 512.037,456.019 508.332,459.232C503.905,463.072 497.894,464.435 492.311,465.577C485.214,467.029 478.314,468.57 472.087,472.454C466.482,475.95 461.748,480.712 458.269,486.325C456.5,489.18 461.001,491.797 462.764,488.952C465.879,483.924 470.163,479.683 475.232,476.63C480.941,473.192 487.244,471.916 493.695,470.596C500.02,469.303 506.304,467.543 511.412,463.414C516.028,459.682 518.768,453.988 518.25,448.011C517.763,442.383 515.076,437.038 510.977,433.161C506.269,428.708 499.98,426.541 493.65,425.767C487.305,424.99 480.804,425.713 474.584,427.063C468.732,428.333 463.053,430.337 457.646,432.904C445.355,438.738 434.705,447.789 426.911,458.93C426.105,460.082 426.702,461.822 427.845,462.491C429.143,463.25 430.598,462.712 431.406,461.557Z" style="fill:rgb(26,57,102);fill-rule:nonzero;"/>
            </g>
            <g transform="matrix(1,0,0,1,-429.108,-5.19277)">
                <path d="M493.245,441.41C499.349,439.943 505.693,440.196 511.682,442.056C513.024,442.473 514.52,441.562 514.883,440.239C515.267,438.843 514.413,437.455 513.065,437.037C506.2,434.905 498.845,434.712 491.862,436.391C490.495,436.719 489.68,438.269 490.044,439.592C490.427,440.988 491.874,441.74 493.245,441.41Z" style="fill:rgb(26,57,102);fill-rule:nonzero;"/>
            </g>
            <g transform="matrix(1,0,0,1,-429.108,-5.19277)">
                <path d="M496.156,455.387C502.057,453.635 508.265,453.626 514.169,455.365C515.518,455.762 517.004,454.885 517.372,453.547C517.75,452.167 516.906,450.744 515.554,450.346C508.799,448.357 501.522,448.364 494.772,450.367C493.425,450.767 492.576,452.194 492.954,453.569C493.322,454.908 494.803,455.788 496.156,455.387Z" style="fill:rgb(26,57,102);fill-rule:nonzero;"/>
            </g>
            <g transform="matrix(1,0,0,1,-429.108,-5.19277)">
                <path d="M684.111,582.738C679.805,588.485 681.585,597.735 687.631,601.608C693.678,605.481 702.696,603.343 706.498,597.252C710.301,591.161 708.369,582.25 702.477,578.145C696.586,574.04 689.101,576.078 684.111,582.738Z" style="fill:rgb(242,107,96);fill-rule:nonzero;"/>
            </g>
            <g transform="matrix(1,0,0,1,-429.108,-5.19277)">
                <path d="M587.799,679.961C575.803,691.651 562.685,704.056 555.969,719.736C553.052,726.547 551.41,736.074 557.379,741.834C562.629,746.901 570.816,746.653 577.402,744.984C585.999,742.804 593.748,737.972 601.449,733.739C608.818,729.687 616.144,725.555 623.387,721.282C634.71,714.602 645.901,707.611 656.425,699.717C669.601,689.833 682.334,678.205 689.069,662.846C695.049,649.21 696.157,634.151 697.153,619.472C698.793,595.305 697.102,570.947 694.251,546.936C691.058,520.043 686.246,493.354 680.549,466.886C675.01,441.149 668.611,415.599 661.593,390.228C655.901,369.652 649.806,349.184 643.26,328.864C639.13,316.048 634.917,303.23 630.026,290.681C626.938,282.755 623.601,274.886 619.392,267.481C615.499,260.633 610.874,253.598 604.586,248.716C598.395,243.908 590.921,242.342 583.615,245.591C576.268,248.858 570.286,255.449 565.035,261.353C559.466,267.615 554.518,274.416 550.237,281.618C548.522,284.504 553.02,287.125 554.732,284.245C559.015,277.038 563.954,270.267 569.592,264.059C574.622,258.521 580.698,251.445 588.207,249.427C595.83,247.379 602.355,252.8 606.927,258.28C612.188,264.587 616.211,271.987 619.665,279.405C626.021,293.053 630.768,307.502 635.481,321.785C641.489,339.992 647.094,358.332 652.386,376.759C659.144,400.289 665.375,423.974 670.939,447.816C676.868,473.218 682.061,498.811 686.001,524.601C689.695,548.783 692.343,573.231 692.548,597.714C692.631,607.668 692.17,617.591 691.342,627.509C690.768,634.39 690.024,641.277 688.479,648.017C685.387,661.509 678.457,672.894 668.639,682.585C651.905,699.103 630.77,711.208 610.477,722.736C602.883,727.049 595.251,731.328 587.513,735.379C581.152,738.708 573.075,742.203 565.74,740.478C556.531,738.312 557.87,728.032 560.957,721.236C564.318,713.837 569.31,707.144 574.61,701.034C579.906,694.929 585.696,689.278 591.479,683.641C593.882,681.299 590.2,677.62 587.799,679.961Z" style="fill:rgb(26,57,102);fill-rule:nonzero;"/>
            </g>
            <g transform="matrix(1,0,0,1,-429.108,-5.19277)">
                <path d="M443.594,683.641C449.995,689.879 456.407,696.137 462.142,703.005C467.866,709.859 474.022,718.03 476.038,726.894C476.925,730.798 476.953,735.851 473.527,738.593C470.776,740.795 466.847,741.085 463.474,740.781C462.357,740.68 461.239,740.499 460.129,740.338C450.071,738.876 440.151,736.4 430.546,733.085C414.579,727.573 399.307,719.508 386.319,708.648C369.788,694.825 357.449,676.732 350.577,656.304C342.346,631.833 342.062,605.572 343.453,580.042C344.958,552.431 348.936,524.983 353.97,497.814C359.146,469.88 365.529,442.174 372.669,414.68C378.787,391.122 385.471,367.709 392.692,344.466C397.348,329.479 402.156,314.519 407.517,299.768C412.082,287.204 417.108,274.575 424.653,263.465C428.945,257.146 435.216,249.057 443.65,248.964C452.205,248.87 459.307,257.048 464.654,262.774C470.777,269.331 476.116,276.535 480.698,284.245C482.408,287.122 486.91,284.507 485.192,281.618C480.392,273.54 474.749,265.963 468.334,259.093C462.607,252.96 455.722,245.626 447.078,244.068C438.666,242.552 431.208,247.392 425.828,253.432C419.724,260.284 415.13,268.5 411.27,276.778C403.899,292.586 398.494,309.38 393.113,325.949C385.948,348.012 379.325,370.255 373.176,392.623C365.532,420.432 358.627,448.456 352.812,476.706C346.907,505.395 342.048,534.374 339.442,563.563C337.069,590.134 335.895,617.858 341.766,644.068C346.939,667.166 358.145,688.652 374.997,705.37C388.312,718.58 404.541,728.468 421.904,735.404C433.053,739.859 444.722,743.124 456.58,745.026C462.242,745.934 468.122,746.891 473.582,744.526C481.977,740.89 482.93,731.217 480.482,723.377C477.735,714.582 471.915,706.669 466.098,699.656C460.294,692.658 453.778,686.299 447.275,679.961C444.875,677.621 441.19,681.298 443.594,683.641Z" style="fill:rgb(26,57,102);fill-rule:nonzero;"/>
            </g>
            <g transform="matrix(1,0,0,1,-429.108,-5.19277)">
                <path d="M550.553,718.041C533.594,720.181 516.471,720.953 499.388,720.31C494.545,720.128 489.707,719.83 484.877,719.426C483.474,719.309 482.274,720.706 482.274,722.029C482.274,723.534 483.47,724.514 484.877,724.631C501.911,726.055 519.051,726.104 536.091,724.741C540.923,724.355 545.744,723.853 550.553,723.246C551.947,723.07 553.156,722.176 553.156,720.643C553.156,719.373 551.957,717.863 550.553,718.041Z" style="fill:rgb(26,57,102);fill-rule:nonzero;"/>
            </g>
            <g transform="matrix(1,0,0,1,-429.108,-5.19277)">
                <path d="M663.107,574.986C672.641,585.921 685.218,614.2 675.929,625.342C666.639,636.485 651.878,641.749 637.445,643.204C623.011,644.658 608.478,642.801 593.981,642.244C578.875,641.663 563.714,642.499 548.763,644.738C535.768,646.683 522.387,649.949 512.349,658.43C497.535,670.948 493.237,693.374 499.746,711.644C506.256,729.914 522.125,743.892 540.144,751.066C558.164,758.239 593.769,760.698 613.049,758.59C649.231,754.634 671.384,739.314 699.577,716.293C715.46,703.324 726.628,686.559 734.226,667.514C741.824,648.469 742.407,626.03 732.739,607.947C723.071,589.865 687.633,567.046 663.107,574.986Z" style="fill:white;fill-rule:nonzero;"/>
            </g>
            <g transform="matrix(1,0,0,1,-429.108,-5.19277)">
                <path d="M679.901,595.517C683.447,605.155 680.631,615.779 674.581,623.782C668.013,632.468 657.642,637.318 647.245,639.651C634.767,642.451 621.857,641.632 609.216,640.641C595.435,639.561 581.757,638.783 567.941,639.771C556.036,640.623 543.943,642.196 532.516,645.766C522.414,648.923 512.538,653.822 505.182,661.593C497.934,669.247 493.908,679.134 493.216,689.611C492.535,699.925 495.054,710.381 499.734,719.55C509.939,739.543 530.862,751.306 551.923,756.749C573.378,762.294 596.228,762.423 617.978,758.575C639.581,754.752 660.499,746.692 679.09,735.042C697.941,723.229 714.799,707.616 726.953,688.908C739.129,670.168 746.509,647.291 742.112,624.907C738.448,606.253 727.026,587.244 709.731,578.374C705.673,576.293 701.33,574.793 696.824,574.074C695.438,573.853 694.024,574.431 693.622,575.892C693.282,577.131 694.044,578.871 695.44,579.093C713.818,582.026 727.308,597.853 733.685,614.496C737.183,623.627 738.704,633.21 738.059,642.971C737.335,653.923 734.033,664.653 729.198,674.468C719.533,694.084 704.105,710.796 686.567,723.684C669.326,736.354 649.666,745.603 628.939,750.891C608.43,756.124 586.73,757.55 565.778,754.288C544.951,751.045 523.146,742.836 509.78,725.724C498.09,710.759 493.761,688.036 504.201,671.279C515.466,653.197 539.135,648.109 558.769,645.835C572.199,644.279 585.706,644.116 599.185,645.069C612.303,645.996 625.512,647.611 638.66,646.256C649.86,645.102 661.232,641.963 670.349,635.112C678.761,628.792 684.912,619.444 686.362,608.916C687.048,603.943 686.66,598.862 684.92,594.133C684.435,592.814 683.155,591.92 681.719,592.315C680.449,592.664 679.413,594.191 679.901,595.517Z" style="fill:rgb(26,57,102);fill-rule:nonzero;"/>
            </g>
            <g transform="matrix(1,0,0,1,-429.108,-5.19277)">
                <path d="M238.388,835.886C204.344,756.954 230.706,561.193 247.25,498.452C250.511,486.084 254.884,470.529 266.523,465.222C285.626,456.512 300.198,475.401 317.173,494.088C345.888,489.487 359.822,488.99 383.057,486.313C390.531,469.579 406.298,450.383 408.893,449.042C428.057,439.145 448.077,468 456.951,484.793C491.894,550.915 515.185,616.834 529.83,690.174C429.029,793.372 438.279,920.7 238.388,835.886Z" style="fill:white;fill-rule:nonzero;"/>
            </g>
            <g transform="matrix(1,0,0,1,-429.108,-5.19277)">
                <path d="M238.827,832.851C231.096,805.13 227.696,776.311 226.107,747.637C224.408,716.99 224.895,686.232 226.705,655.602C228.326,628.173 231.006,600.79 234.803,573.576C237.416,554.851 240.339,536.05 244.799,517.662C246.641,510.069 248.692,502.495 251.307,495.129C254.195,486.995 257.811,478.323 263.5,471.711C265.996,468.811 269.031,466.185 272.797,465.167C277.141,463.992 281.508,465.462 285.291,467.612C293.108,472.054 300.076,478.543 306.248,485.016C309.391,488.311 312.361,491.776 315.117,495.401C315.974,496.529 317.351,497.09 318.678,496.335C319.787,495.704 320.461,493.891 319.612,492.774C313.817,485.153 307.295,478.143 299.975,471.964C293.246,466.283 285.113,459.403 275.784,459.533C267.083,459.654 260.486,466.241 256.043,473.094C250.94,480.966 247.424,489.88 244.598,498.788C238.296,518.651 234.731,539.364 231.579,559.921C227.45,586.857 224.45,613.976 222.457,641.153C220.164,672.424 219.202,703.837 220.333,735.18C221.416,765.179 224.272,795.394 231.313,824.63C232.087,827.847 232.919,831.048 233.808,834.235C234.707,837.457 239.73,836.088 238.827,832.851Z" style="fill:rgb(26,57,102);fill-rule:nonzero;"/>
            </g>
            <g transform="matrix(1,0,0,1,-429.108,-5.19277)">
                <path d="M531.64,681.744C527.272,664.814 522.107,648.083 516.771,631.436C510.158,610.804 503.145,590.298 495.742,569.936C488.723,550.63 481.38,531.423 473.247,512.556C470.031,505.094 466.688,497.677 463.018,490.426C457.214,478.961 450.909,467.582 442.571,457.738C438.409,452.823 433.608,447.913 427.673,445.186C421.618,442.403 415.07,442.402 409.26,445.83C403.741,449.086 399.599,454.309 395.744,459.31C391.63,464.647 387.93,470.293 384.706,476.212C383.095,479.171 381.61,482.195 380.237,485.271C379.665,486.554 379.865,488.068 381.171,488.832C382.281,489.481 384.156,489.188 384.732,487.898C387.479,481.745 390.696,475.809 394.382,470.167C397.841,464.871 401.656,459.661 406.063,455.107C409.927,451.116 414.862,447.552 420.72,448.39C426.618,449.233 431.557,453.511 435.519,457.666C444.65,467.241 451.186,478.898 457.244,490.563C460.818,497.445 464.073,504.488 467.189,511.588C475.048,529.489 482.154,547.972 488.94,566.441C496.283,586.428 503.233,606.563 509.813,626.814C515.347,643.845 520.685,660.961 525.337,678.258C525.773,679.879 526.201,681.502 526.621,683.128C527.457,686.369 532.479,684.996 531.64,681.744Z" style="fill:rgb(26,57,102);fill-rule:nonzero;"/>
            </g>
            <g transform="matrix(1,0,0,1,-429.108,-5.19277)">
                <path d="M305.45,503.549C317.813,499.378 330.411,495.864 343.259,493.544C354.526,491.509 365.943,490.472 377.39,490.321C384.139,490.232 390.888,490.443 397.624,490.852C400.97,491.055 400.958,485.849 397.624,485.647C385.734,484.925 373.802,484.854 361.925,485.861C349.846,486.886 337.874,488.974 326.128,491.956C318.687,493.845 311.339,496.076 304.066,498.53C300.909,499.596 302.263,504.625 305.45,503.549Z" style="fill:rgb(26,57,102);fill-rule:nonzero;"/>
            </g>
            <g transform="matrix(1,0,0,1,-429.108,-5.19277)">
                <path d="M479.703,627.533C477.941,629.134 475.959,630.534 473.839,631.668C473.697,632.11 473.555,632.553 473.399,632.989C471.203,639.126 467.86,643.775 462.396,647.298C461.958,647.58 461.478,647.843 460.98,648.094C460.543,649.829 460.022,651.551 459.433,653.261C470.772,647.805 480.128,638.809 483.183,627.08C483.516,625.805 483.739,624.523 483.881,623.239C482.595,624.728 481.207,626.165 479.703,627.533Z" style="fill:white;fill-rule:nonzero;"/>
            </g>
            <g transform="matrix(1,0,0,1,-429.108,-5.19277)">
                <path d="M251.19,967.575C251.19,925.313 261.765,877.356 271.4,822.776C284.757,753.843 303.032,702.816 329.846,636.855C344.35,613.125 353.086,608.048 365.328,619.166C377.57,630.283 391.496,633.751 393.861,652.096C414.911,653.683 442.349,650.509 463.4,652.096C471.694,643.802 466.919,648.2 474.198,636.588C481.478,624.977 492.729,611.491 505.828,615.52C517.956,619.252 522.281,625.506 527.533,637.058C545.575,676.741 563.83,728.005 572.643,769.769C585.352,829.998 600.85,879.462 604.482,948.868C605.621,970.619 607.54,987.145 603.159,1008.48C598.779,1029.82 587.83,1061.54 567.547,1069.48C567.159,1074.15 503.626,1103.43 501.98,1096.85C490.552,1102.13 381.696,1114.51 343.565,1090.06C340.36,1093.27 279.72,1073.13 282.948,1063.76C266.898,1047.71 262.658,1035.78 256.207,1018.6C249.756,1001.43 251.19,985.922 251.19,967.575Z" style="fill:white;fill-rule:nonzero;"/>
            </g>
            <g transform="matrix(1,0,0,1,-429.108,-5.19277)">
                <path d="M561.694,1032.64C579.805,1036.61 596.392,1047.19 607.634,1061.93C610.989,1066.33 613.953,1072.3 611.305,1077.16C608.861,1081.64 602.983,1082.69 597.89,1083.06C578.215,1084.5 558.348,1083.28 538.994,1079.46C536.87,1079.04 534.581,1078.49 533.211,1076.82C531.459,1074.67 531.86,1071.54 532.449,1068.84C535.853,1053.23 542.497,1038.34 561.694,1032.64Z" style="fill:white;fill-rule:nonzero;"/>
            </g>
            <g transform="matrix(1,0,0,1,-429.108,-5.19277)">
                <path d="M477.603,655.05C464.62,652.273 451.463,650.194 438.205,649.344C426.408,648.588 414.57,648.86 402.813,650.079C396.008,650.785 389.235,651.78 382.5,652.973C381.115,653.219 380.334,654.91 380.682,656.175C381.083,657.635 382.494,658.239 383.883,657.993C395.318,655.966 406.858,654.58 418.471,654.219C430.306,653.85 442.164,654.529 453.897,656.111C461.388,657.12 468.829,658.488 476.22,660.069C479.486,660.768 480.883,655.751 477.603,655.05Z" style="fill:rgb(26,57,102);fill-rule:nonzero;"/>
            </g>
            <g transform="matrix(1,0,0,1,-429.108,-5.19277)">
                <path d="M260.792,897.971C265.206,871.517 270.719,845.251 276.806,819.135C282.599,794.284 288.934,769.559 295.709,744.958C300.959,725.894 306.448,706.888 312.376,688.023C317.152,672.822 322.106,657.505 329.449,643.315C332.632,637.165 336.288,631.014 340.973,625.879C344.911,621.562 350.287,617.415 356.492,618.206C362.888,619.022 368.052,624.159 372.407,628.481C377.429,633.464 382.043,638.863 386.13,644.64C388.142,647.484 390.03,650.412 391.805,653.41C393.511,656.289 398.012,653.674 396.3,650.782C392.551,644.454 388.268,638.45 383.514,632.837C378.906,627.395 373.87,622.017 368.096,617.793C362.569,613.75 355.692,611.582 349.002,613.933C342.573,616.193 337.733,621.252 333.724,626.568C325.259,637.788 319.787,650.988 314.892,664.066C313.049,668.99 311.412,673.995 309.793,678.996C304.026,696.801 298.761,714.772 293.693,732.787C286.782,757.349 280.318,782.039 274.365,806.851C268.012,833.334 262.217,859.966 257.459,886.784C256.88,890.049 256.318,893.316 255.772,896.587C255.541,897.972 256.135,899.389 257.59,899.788C258.837,900.131 260.558,899.365 260.792,897.971Z" style="fill:rgb(26,57,102);fill-rule:nonzero;"/>
            </g>
            <g transform="matrix(1,0,0,1,-429.108,-5.19277)">
                <path d="M337.907,1091.3C371.82,1099.83 406.736,1105.1 441.752,1105.2C468.801,1105.28 496.202,1102.35 522.148,1094.46C541.212,1088.66 560.08,1080.09 575.124,1066.79C593.427,1050.6 603.088,1026.28 606.721,1002.57C610.626,977.084 608.999,950.623 606.358,925.089C603.526,897.706 598.857,870.522 593.25,843.579C587.749,817.143 581.303,790.905 574.2,764.855C568.346,743.384 562.046,722.032 555.268,700.835C551.266,688.322 547.199,675.798 542.543,663.51C539.398,655.212 536.056,646.944 531.86,639.112C527.991,631.891 523.349,624.376 517.067,618.994C511.12,613.901 503.536,611.268 495.94,614.241C488.169,617.281 481.95,624.041 476.494,630.124C470.782,636.493 465.714,643.429 461.345,650.782C459.63,653.669 464.128,656.29 465.839,653.41C470.272,645.948 475.414,638.957 481.296,632.571C486.434,626.993 492.971,619.378 500.936,618.236C508.952,617.087 515.487,623.9 519.831,629.737C524.99,636.669 528.998,644.396 532.453,652.295C538.438,665.976 543.107,680.271 547.739,694.454C554.094,713.908 560.011,733.507 565.566,753.204C572.57,778.041 578.986,803.049 584.618,828.233C590.502,854.545 595.592,881.077 599.115,907.815C602.315,932.104 604.402,956.71 603.449,981.224C602.439,1007.2 596.429,1035.39 578.922,1055.59C567.251,1069.05 551.048,1078.21 534.636,1084.64C511.632,1093.65 486.914,1097.97 462.324,1099.43C430.008,1101.34 397.492,1098.38 365.758,1092.2C356.882,1090.48 348.06,1088.49 339.29,1086.28C336.041,1085.47 334.655,1090.49 337.907,1091.3Z" style="fill:rgb(26,57,102);fill-rule:nonzero;"/>
            </g>
            <g transform="matrix(1,0,0,1,-429.108,-5.19277)">
                <path d="M465.839,975.009C471.397,965.531 478.516,956.709 487.639,950.449C497.07,943.978 508.624,940.381 520.099,941.818C541.69,944.523 554.56,965.793 556.3,985.938C557.565,1000.6 554.355,1015.13 550.057,1029.06C549.658,1030.36 550.531,1031.97 551.875,1032.26C560.955,1034.27 569.795,1037.3 578.146,1041.4C586.211,1045.36 594.325,1050.16 600.995,1056.23C606.261,1061.02 611.339,1068.95 607.177,1076.07C605.245,1079.37 601.434,1080.55 597.84,1080.99C593.022,1081.59 588.075,1081.59 583.227,1081.63C571.509,1081.74 559.767,1081.03 548.154,1079.45C546.763,1079.26 545.36,1079.79 544.952,1081.27C544.619,1082.48 545.368,1084.28 546.77,1084.47C558.014,1086 569.333,1086.83 580.683,1086.85C586.048,1086.85 591.469,1086.8 596.815,1086.31C601.498,1085.87 606.412,1084.77 609.772,1081.22C612.746,1078.08 614.037,1073.62 613.79,1069.35C613.516,1064.61 611.526,1060.41 608.62,1056.73C605.631,1052.94 601.753,1049.95 597.86,1047.15C593.814,1044.23 589.583,1041.58 585.202,1039.2C575.181,1033.75 564.394,1029.71 553.259,1027.24C553.865,1028.31 554.471,1029.38 555.077,1030.45C562.481,1006.45 566.476,978.515 551.489,956.481C545.215,947.256 536.073,940.005 525.072,937.455C512.823,934.615 499.709,937.285 488.907,943.5C477.188,950.243 468.12,960.828 461.345,972.382C459.646,975.278 464.144,977.9 465.839,975.009Z" style="fill:rgb(26,57,102);fill-rule:nonzero;"/>
            </g>
            <g transform="matrix(1,0,0,1,-429.108,-5.19277)">
                <path d="M350.378,1020.56C334.417,1027.82 296.127,1033.49 284.564,1020.23C273.001,1006.98 270.104,989.45 271.866,973.351C273.628,957.252 279.533,941.984 283.813,926.387C288.273,910.134 290.984,893.42 291.898,876.538C292.693,861.864 291.94,846.395 283.874,833.086C271.967,813.441 245.133,802.418 220.795,804.319C196.457,806.22 175.142,819.507 161.76,837.059C148.378,854.611 136.511,892.611 134.363,914.162C130.332,954.605 143.909,983.019 165.572,1020.18C177.775,1041.11 195.868,1058 217.68,1071.65C239.492,1085.3 267.262,1092.29 292.148,1086.9C317.034,1081.52 354.188,1049.46 350.378,1020.56Z" style="fill:white;fill-rule:nonzero;"/>
            </g>
            <g transform="matrix(1,0,0,1,-429.108,-5.19277)">
                <path d="M321.164,1033.11C308.428,1034.23 295.895,1028.55 287.049,1019.56C277.483,1009.84 273.399,996.364 273.383,982.939C273.365,967.872 278.197,953.44 282.809,939.271C285.307,931.598 287.71,923.903 289.549,916.04C291.378,908.217 292.73,900.287 293.652,892.306C296.619,866.616 295.673,836.931 275.662,817.835C258.144,801.116 230.955,797.31 208.102,802.936C183.077,809.097 163.544,827.962 151.61,850.214C139.527,872.742 133.912,898.686 134.047,924.162C134.187,950.733 140.614,977.087 152.073,1001.02C163.628,1025.16 180.438,1047.32 201.405,1064.04C221.695,1080.23 246.448,1091.54 272.724,1091.89C284.408,1092.05 296.277,1090.29 307.312,1086.41C317.464,1082.83 327.298,1077.41 334.637,1069.41C337.971,1065.77 340.767,1061.65 342.707,1057.1C343.259,1055.81 343.093,1054.31 341.774,1053.54C340.679,1052.9 338.768,1053.18 338.213,1054.48C329.837,1074.08 307.15,1083.18 287.337,1085.83C276.085,1087.34 264.54,1086.93 253.469,1084.41C240.742,1081.5 228.711,1076.22 217.675,1069.28C195.619,1055.42 177.648,1035.35 164.409,1013.05C151.151,990.72 142.556,965.505 140.044,939.622C137.618,914.615 140.78,889.12 150.095,865.735C159.204,842.871 175.139,821.945 198.091,811.773C208.463,807.176 220.084,805.34 231.378,805.802C242.693,806.265 254.061,809.199 263.743,815.179C274.05,821.545 281.523,831.456 285.453,842.864C289.507,854.633 290.165,867.224 289.516,879.564C288.69,895.272 285.993,910.838 281.552,925.926C277.266,940.485 271.507,954.718 269.233,969.798C267.133,983.713 268.053,998.224 274.503,1010.94C280.349,1022.47 290.832,1031.42 302.947,1035.82C308.741,1037.92 315.015,1038.86 321.164,1038.31C322.564,1038.19 323.766,1037.21 323.766,1035.71C323.766,1034.4 322.572,1032.99 321.164,1033.11Z" style="fill:rgb(26,57,102);fill-rule:nonzero;"/>
            </g>
            <g transform="matrix(1,0,0,1,-429.108,-5.19277)">
                <path d="M350.378,1020.56C334.417,1027.82 296.127,1033.49 284.564,1020.23C273.001,1006.98 270.104,989.45 271.866,973.351C273.628,957.252 279.533,941.984 283.813,926.387C288.273,910.134 290.984,893.42 291.898,876.538C292.693,861.864 291.94,846.395 283.874,833.086C271.967,813.441 245.133,802.418 220.795,804.319C196.457,806.22 175.142,819.507 161.76,837.059C148.378,854.611 136.511,892.611 134.363,914.162C130.332,954.605 143.909,983.019 165.572,1020.18C177.775,1041.11 195.868,1058 217.68,1071.65C239.492,1085.3 267.262,1092.29 292.148,1086.9C317.034,1081.52 354.188,1049.46 350.378,1020.56Z" style="fill:white;fill-rule:nonzero;"/>
            </g>
            <g transform="matrix(1,0,0,1,-429.108,-5.19277)">
                <path d="M321.164,1033.11C308.428,1034.23 295.895,1028.55 287.049,1019.56C277.483,1009.84 273.399,996.364 273.383,982.939C273.365,967.872 278.197,953.44 282.809,939.271C285.307,931.598 287.71,923.903 289.549,916.04C291.378,908.217 292.73,900.287 293.652,892.306C296.619,866.616 295.673,836.931 275.662,817.835C258.144,801.116 230.955,797.31 208.102,802.936C183.077,809.097 163.544,827.962 151.61,850.214C139.527,872.742 133.912,898.686 134.047,924.162C134.187,950.733 140.614,977.087 152.073,1001.02C163.628,1025.16 180.438,1047.32 201.405,1064.04C221.695,1080.23 246.448,1091.54 272.724,1091.89C284.408,1092.05 296.277,1090.29 307.312,1086.41C317.464,1082.83 327.298,1077.41 334.637,1069.41C337.971,1065.77 340.767,1061.65 342.707,1057.1C343.259,1055.81 343.093,1054.31 341.774,1053.54C340.679,1052.9 338.768,1053.18 338.213,1054.48C329.837,1074.08 307.15,1083.18 287.337,1085.83C276.085,1087.34 264.54,1086.93 253.469,1084.41C240.742,1081.5 228.711,1076.22 217.675,1069.28C195.619,1055.42 177.648,1035.35 164.409,1013.05C151.151,990.72 142.556,965.505 140.044,939.622C137.618,914.615 140.78,889.12 150.095,865.735C159.204,842.871 175.139,821.945 198.091,811.773C208.463,807.176 220.084,805.34 231.378,805.802C242.693,806.265 254.061,809.199 263.743,815.179C274.05,821.545 281.523,831.456 285.453,842.864C289.507,854.633 290.165,867.224 289.516,879.564C288.69,895.272 285.993,910.838 281.552,925.926C277.266,940.485 271.507,954.718 269.233,969.798C267.133,983.713 268.053,998.224 274.503,1010.94C280.349,1022.47 290.832,1031.42 302.947,1035.82C308.741,1037.92 315.015,1038.86 321.164,1038.31C322.564,1038.19 323.766,1037.21 323.766,1035.71C323.766,1034.4 322.572,1032.99 321.164,1033.11Z" style="fill:rgb(26,57,102);fill-rule:nonzero;"/>
            </g>
            <g transform="matrix(1,0,0,1,-429.108,-5.19277)">
                <path d="M479.703,627.533C477.941,629.134 475.959,630.534 473.839,631.668C473.697,632.11 473.555,632.553 473.399,632.989C471.203,639.126 467.86,643.775 462.396,647.298C461.958,647.58 461.478,647.843 460.98,648.094C460.543,649.829 460.022,651.551 459.433,653.261C470.772,647.805 480.128,638.809 483.183,627.08C483.516,625.805 483.739,624.523 483.881,623.239C482.595,624.728 481.207,626.165 479.703,627.533Z" style="fill:white;fill-rule:nonzero;"/>
            </g>
            <g transform="matrix(1,0,0,1,-429.108,-5.19277)">
                <path d="M251.19,967.575C251.19,925.313 261.765,877.356 271.4,822.776C284.757,753.843 303.032,702.816 329.846,636.855C344.35,613.125 353.086,608.048 365.328,619.166C377.57,630.283 391.496,633.751 393.861,652.096C414.911,653.683 442.349,650.509 463.4,652.096C471.694,643.802 466.919,648.2 474.198,636.588C481.478,624.977 492.729,611.491 505.828,615.52C517.956,619.252 522.281,625.506 527.533,637.058C545.575,676.741 563.83,728.005 572.643,769.769C585.352,829.998 600.85,879.462 604.482,948.868C605.621,970.619 607.54,987.145 603.159,1008.48C598.779,1029.82 587.83,1061.54 567.547,1069.48C567.159,1074.15 490.113,1105.86 488.467,1099.28C485.429,1122.97 403.359,1110.78 335.99,1098.54C332.785,1101.74 279.72,1073.13 282.948,1063.76C266.898,1047.71 262.658,1035.78 256.207,1018.6C249.756,1001.43 251.19,985.922 251.19,967.575Z" style="fill:white;fill-rule:nonzero;"/>
            </g>
            <g transform="matrix(1,0,0,1,-429.108,-5.19277)">
                <path d="M477.603,655.05C464.62,652.273 451.463,650.194 438.205,649.344C426.408,648.588 414.57,648.86 402.813,650.079C396.008,650.785 389.235,651.78 382.5,652.973C381.115,653.219 380.334,654.91 380.682,656.175C381.083,657.635 382.494,658.239 383.883,657.993C395.318,655.966 406.858,654.58 418.471,654.219C430.306,653.85 442.164,654.529 453.897,656.111C461.388,657.12 468.829,658.488 476.22,660.069C479.486,660.768 480.883,655.751 477.603,655.05Z" style="fill:rgb(26,57,102);fill-rule:nonzero;"/>
            </g>
            <g transform="matrix(1,0,0,1,-429.108,-5.19277)">
                <path d="M266.836,1037.24C260.786,1023.79 258.131,1008.86 256.751,994.269C255.216,978.048 255.301,961.688 256.2,945.432C257.514,921.726 260.539,898.08 264.948,874.753C271.884,838.051 280.611,801.672 290.149,765.567C298.238,734.949 306.745,704.342 316.811,674.306C321.724,659.644 327.343,644.796 336.182,632.015C341.38,624.499 349.539,615.287 359.716,619.03C364.541,620.805 368.457,624.593 372.053,628.131C375.865,631.882 379.442,635.875 382.743,640.083C386.061,644.314 389.062,648.788 391.805,653.41C393.514,656.288 398.015,653.672 396.3,650.782C390.6,641.182 383.694,632.284 375.734,624.45C368.634,617.464 359.406,610.17 348.854,613.986C339.151,617.496 332.67,627.151 327.702,635.676C322.444,644.702 318.468,654.468 314.828,664.238C311.173,674.048 308.112,684.095 305.041,694.098C299.926,710.756 295.108,727.505 290.488,744.307C279.082,785.785 268.837,827.619 260.605,869.849C256.501,890.914 253.521,912.231 251.801,933.624C250.474,950.123 249.909,966.723 250.752,983.262C251.554,999.005 253.502,1015 258.491,1030.01C259.603,1033.36 260.894,1036.65 262.342,1039.86C263.714,1042.91 268.201,1040.27 266.836,1037.24Z" style="fill:rgb(26,57,102);fill-rule:nonzero;"/>
            </g>
            <g transform="matrix(1,0,0,1,-429.108,-5.19277)">
                <path d="M528.455,798.258C517.818,803.796 508.657,811.843 501.539,821.472C494.304,831.258 489.066,843.027 487.54,855.15C486.705,861.782 487.295,868.643 490.232,874.719C492.751,879.929 497.35,884.057 502.682,886.226C508.087,888.424 514.283,888.044 519.215,884.84C524.499,881.406 527.753,875.869 530.055,870.152C532.867,863.166 534.54,855.865 538.997,849.65C542.841,844.289 548.177,840.112 554.169,837.405C555.45,836.826 555.759,834.967 555.102,833.844C554.332,832.527 552.828,832.329 551.542,832.91C546.308,835.275 541.546,838.762 537.701,843.029C533.51,847.679 530.671,853.042 528.548,858.9C525.232,868.05 521.344,883.275 508.755,882.409C504.09,882.088 499.669,879.161 496.842,875.548C493.25,870.957 492.204,864.871 492.409,859.181C492.813,847.91 497.594,836.649 503.757,827.35C510.614,817.001 520.073,808.484 531.082,802.752C534.055,801.205 531.425,796.711 528.455,798.258Z" style="fill:rgb(26,57,102);fill-rule:nonzero;"/>
            </g>
            <g transform="matrix(1,0,0,1,-429.108,-5.19277)">
                <path d="M497.857,859.896C495.274,866.628 494.699,873.929 495.921,881.016C496.16,882.402 497.863,883.18 499.123,882.833C500.588,882.431 501.18,881.022 500.94,879.632C499.875,873.458 500.639,867.111 502.876,861.28C503.379,859.967 502.319,858.424 501.058,858.078C499.591,857.675 498.362,858.578 497.857,859.896Z" style="fill:rgb(26,57,102);fill-rule:nonzero;"/>
            </g>
            <g transform="matrix(1,0,0,1,-429.108,-5.19277)">
                <path d="M511.599,863.976C508.602,870.704 507.648,877.938 508.793,885.213C509.012,886.603 510.749,887.373 511.995,887.031C513.476,886.624 514.031,885.223 513.813,883.829C512.909,878.086 513.716,871.938 516.093,866.603C516.664,865.32 516.466,863.807 515.159,863.043C514.05,862.394 512.174,862.686 511.599,863.976Z" style="fill:rgb(26,57,102);fill-rule:nonzero;"/>
            </g>
            <g transform="matrix(1,0,0,1,-429.108,-5.19277)">
                <path d="M438.068,835.681C457.618,845.859 472.849,865.451 476.307,887.431C477.219,893.228 477.018,899.653 474.423,905.021C472.326,909.36 468.511,913.032 463.899,914.58C459.155,916.173 454.334,915.176 450.641,911.765C446.324,907.779 444.182,902.209 442.316,896.779C441.058,893.118 439.846,889.433 438.178,885.931C436.763,882.957 434.957,880.216 432.893,877.653C428.827,872.604 423.514,868.507 417.609,865.839C416.329,865.261 414.809,865.471 414.048,866.773C413.396,867.888 413.694,869.752 414.982,870.333C420.491,872.823 425.26,876.496 429.086,881.176C433.169,886.17 435.23,892.15 437.297,898.163C439.372,904.203 441.783,910.31 446.395,914.903C450.8,919.291 456.705,921.351 462.853,920.228C468.463,919.203 473.436,915.612 476.803,911.104C480.68,905.912 482.087,899.16 481.965,892.78C481.73,880.519 476.763,868.14 470.107,857.983C462.754,846.762 452.608,837.388 440.695,831.186C437.728,829.641 435.093,834.132 438.068,835.681Z" style="fill:rgb(26,57,102);fill-rule:nonzero;"/>
            </g>
            <g transform="matrix(1,0,0,1,-429.108,-5.19277)">
                <path d="M466.275,894.208C468.512,900.039 469.275,906.386 468.21,912.56C467.971,913.944 468.579,915.364 470.028,915.762C471.28,916.106 472.989,915.337 473.229,913.944C474.452,906.858 473.877,899.557 471.294,892.824C470.791,891.513 469.542,890.608 468.092,891.006C466.838,891.351 465.768,892.889 466.275,894.208Z" style="fill:rgb(26,57,102);fill-rule:nonzero;"/>
            </g>
            <g transform="matrix(1,0,0,1,-429.108,-5.19277)">
                <path d="M453.057,899.532C455.434,904.866 456.242,911.014 455.338,916.758C455.119,918.145 455.693,919.557 457.155,919.959C458.392,920.299 460.137,919.538 460.357,918.141C461.502,910.867 460.548,903.632 457.552,896.905C456.98,895.621 455.109,895.317 453.991,895.971C452.668,896.745 452.483,898.243 453.057,899.532Z" style="fill:rgb(26,57,102);fill-rule:nonzero;"/>
            </g>
            <g transform="matrix(1,0,0,1,-429.108,-5.19277)">
                <path d="M488.659,1101.88C523.663,1097.4 561.26,1085.01 584.628,1057.09C590.474,1050.11 595.202,1042.35 598.683,1033.93C602.671,1024.29 604.711,1013.73 606.208,1003.44C609.358,981.78 609.224,959.772 607.487,937.997C605.891,917.984 602.916,898.108 599.423,878.347C596.218,860.216 592.918,842.086 589.195,824.054C584.171,799.721 577.849,775.784 570.928,751.929C563.742,727.159 556.65,702.249 548.22,677.87C544.438,666.933 540.728,655.94 535.811,645.446C533.332,640.157 530.541,635.008 527.321,630.131C524.226,625.443 520.945,620.938 516.453,617.503C512.466,614.455 507.66,612.318 502.543,612.824C497.704,613.302 492.813,615.712 488.774,618.322C480.705,623.535 474.622,631.122 469.217,638.939C466.521,642.838 463.972,646.837 461.345,650.782C459.482,653.578 463.989,656.187 465.839,653.41C470.97,645.707 475.79,637.69 482.092,630.861C485.195,627.498 488.632,624.451 492.565,622.091C496.516,619.72 501.528,617.226 506.249,618.152C511.385,619.16 515.794,623.189 518.88,627.2C522.307,631.657 525.307,636.445 527.969,641.395C533.241,651.201 537.093,661.662 540.746,672.154C548.826,695.363 555.836,718.95 562.761,742.527C569.661,766.02 576.348,789.536 581.621,813.457C585.673,831.845 589.053,850.366 592.446,868.883C595.757,886.952 598.84,905.07 600.875,923.333C603.203,944.226 604.318,965.353 602.841,986.349C601.477,1005.73 598.444,1026.27 588.25,1043.16C569.983,1073.42 534.562,1088.33 501.202,1094.68C497.042,1095.47 492.859,1096.14 488.659,1096.68C485.382,1097.1 485.34,1102.31 488.659,1101.88Z" style="fill:rgb(26,57,102);fill-rule:nonzero;"/>
            </g>
            <g transform="matrix(1,0,0,1,-429.108,-5.19277)">
                <path d="M343.832,1002.08C352.194,987.816 364.454,974.899 380.799,970.31C388.995,968.009 397.793,967.892 405.864,970.764C412.853,973.252 418.856,978.105 423.37,983.93C433.876,997.485 435.991,1015.18 433.745,1031.75C433.087,1036.6 432.077,1041.41 430.873,1046.16C430.262,1048.57 429.597,1050.97 428.892,1053.35C428.208,1055.66 428.413,1058.13 430.791,1059.39C431.743,1059.89 432.897,1060.03 433.929,1060.3C435.097,1060.6 436.261,1060.91 437.42,1061.25C439.592,1061.88 441.747,1062.57 443.88,1063.32C448.007,1064.78 452.043,1066.47 455.975,1068.39C463.735,1072.18 471.418,1076.76 477.982,1082.41C483.621,1087.26 489.774,1095.56 485.197,1103.14C482.076,1108.31 475.052,1108.3 469.678,1108.45C464.075,1108.61 458.461,1108.47 452.86,1108.3C441.513,1107.94 430.173,1107.31 418.845,1106.57C411.037,1106.06 403.231,1105.49 395.434,1104.83C381.2,1103.64 366.989,1102.03 352.933,1099.46C338.096,1096.74 323.162,1093.09 309.333,1086.95C306.184,1085.55 303.096,1084.02 300.093,1082.33C297.169,1080.68 294.543,1085.18 297.465,1086.82C310.95,1094.41 326.007,1099.01 341.044,1102.35C356.144,1105.71 371.517,1107.77 386.903,1109.27C396.394,1110.19 405.907,1110.9 415.42,1111.55C425.871,1112.26 436.331,1112.86 446.798,1113.28C452.978,1113.53 459.165,1113.73 465.35,1113.72C471.326,1113.7 477.851,1113.86 483.391,1111.36C487.022,1109.72 489.652,1106.66 491.012,1102.94C492.702,1098.33 491.877,1093.25 489.859,1088.9C486.208,1081.02 478.242,1075.6 471.19,1071.02C463.352,1065.93 454.905,1061.78 446.115,1058.61C443.988,1057.84 441.839,1057.13 439.671,1056.48C438.588,1056.16 437.499,1055.85 436.407,1055.56C435.824,1055.41 435.24,1055.26 434.655,1055.11C434.436,1055.06 434.216,1055 433.996,1054.95C433.777,1054.89 433.557,1054.84 433.337,1054.79C433.07,1054.7 433.046,1054.71 433.265,1054.84C433.277,1054.88 433.582,1055.44 433.619,1055.48C433.622,1055.55 433.625,1055.62 433.628,1055.68C433.675,1055.53 433.723,1055.37 433.77,1055.21C434.001,1054.6 434.148,1053.93 434.329,1053.3C434.696,1052.03 435.051,1050.75 435.392,1049.47C436.053,1046.98 436.659,1044.49 437.197,1041.97C441.066,1023.86 441.238,1004.41 432.086,987.798C428.243,980.823 422.881,974.635 416.23,970.212C408.977,965.389 400.249,963.121 391.569,963.403C373.278,963.995 357.481,974.684 346.542,988.788C343.908,992.184 341.511,995.742 339.337,999.449C337.639,1002.35 342.136,1004.97 343.832,1002.08Z" style="fill:rgb(26,57,102);fill-rule:nonzero;"/>
            </g>
            <g transform="matrix(1,0,0,1,-429.108,-5.19277)">
                <path d="M424.573,606.582C418.704,610.03 410.736,618.198 406.942,623.849C403.148,629.501 401.527,636.757 403.358,643.313C405.188,649.869 410.73,655.448 417.443,656.574C424.156,657.701 431.587,653.811 433.942,646.914C432.886,650.729 435.041,655.006 438.484,656.96C441.926,658.914 446.323,658.734 449.917,657.074C453.511,655.415 456.362,652.428 456.684,647.571C456.813,654.301 463.22,659.974 469.949,660.182C476.677,660.391 483.033,655.812 485.904,649.724C488.776,643.636 488.471,636.366 486.096,630.068C483.72,623.769 481.888,618.639 477.048,613.96C472.828,609.881 467.151,605.523 461.582,603.669C455.117,601.517 442.258,596.191 424.573,606.582Z" style="fill:white;fill-rule:nonzero;"/>
            </g>
            <g transform="matrix(1,0,0,1,-429.108,-5.19277)">
                <path d="M420.459,608.904C410.623,615.426 401.928,624.52 400.408,636.704C399.691,642.452 400.821,648.713 404.33,653.426C406.162,655.888 408.474,657.78 411.383,658.82C414.3,659.864 417.555,659.792 420.551,659.16C426.745,657.855 432.158,653.801 435.602,648.562C434.016,647.893 432.43,647.225 430.845,646.556C429.217,654.229 435.935,660.727 443.199,661.547C450.704,662.394 456.545,656.462 460.61,650.935C458.993,650.497 457.377,650.059 455.76,649.622C455.41,653.582 458.084,657.232 461.04,659.569C464.27,662.122 468.374,663.924 472.555,663.296C482.226,661.842 488.227,651.435 489.761,642.602C490.707,637.154 490.156,631.624 488.031,626.511C487.492,625.214 486.306,624.287 484.83,624.693C483.605,625.03 482.469,626.588 483.012,627.894C486.148,635.442 485.446,643.742 481.235,650.765C479.522,653.623 477.06,656.333 473.898,657.581C471.039,658.71 468.587,658.238 465.909,656.649C464.509,655.818 463.15,654.701 462.207,653.422C461.234,652.103 460.839,651.051 460.965,649.622C461.064,648.499 460.086,647.395 459.055,647.112C457.864,646.785 456.807,647.368 456.115,648.308C453.36,652.055 449.368,656.512 444.305,656.422C440.188,656.349 434.89,652.533 435.864,647.94C436.477,645.048 432.754,643.429 431.107,645.935C426.683,652.667 414.92,658.598 408.749,650.697C402.598,642.82 405.611,631.354 411.143,624.091C414.398,619.818 418.633,616.351 423.087,613.399C425.866,611.556 423.262,607.046 420.459,608.904Z" style="fill:rgb(26,57,102);fill-rule:nonzero;"/>
            </g>
            <g transform="matrix(1,0,0,1,-429.108,-5.19277)">
                <path d="M302.015,638.566C308.006,635.335 319.121,632.755 325.921,632.439C332.72,632.124 339.766,634.499 344.423,639.463C349.081,644.427 350.979,652.058 348.463,658.382C345.947,664.707 338.768,669.046 331.649,667.485C335.459,668.559 338.001,672.619 337.887,676.576C337.773,680.533 335.34,684.199 332.058,686.412C328.776,688.625 324.744,689.515 320.423,687.273C326.112,690.872 327.642,699.292 324.333,705.154C321.023,711.016 313.814,714.077 307.118,713.377C300.423,712.677 294.365,708.649 290.21,703.353C286.055,698.056 282.618,693.83 281.125,687.266C279.824,681.543 279.04,674.429 280.341,668.705C281.852,662.062 283.963,648.304 302.015,638.566Z" style="fill:white;fill-rule:nonzero;"/>
            </g>
            <g transform="matrix(1,0,0,1,-429.108,-5.19277)">
                <path d="M308.98,640.624C317.842,636.451 328.348,633.835 337.775,637.758C341.575,639.339 345.041,641.997 347.156,645.564C348.367,647.607 349.206,650.023 348.875,652.429C348.598,654.445 347.554,656.387 346.238,657.915C342.819,661.886 337.745,664.194 332.532,664.388C329.544,664.5 329.068,668.544 331.84,669.501C335.831,670.878 336.759,676.782 335.045,680.454C332.742,685.388 326.363,686.58 321.598,687.005C320.443,687.108 319.411,687.742 319.089,688.916C318.8,689.967 319.26,691.355 320.285,691.855C321.458,692.428 321.912,692.967 322.578,694.259C323.074,695.222 323.542,697.022 323.632,698.119C323.767,699.744 323.704,701.191 323.357,702.575C322.982,704.075 322.538,704.936 321.554,705.948C316.141,711.515 305.992,710.354 299.604,707.317C296.035,705.62 292.93,703.094 290.596,699.898C289.768,698.765 288.336,698.204 287.035,698.965C285.917,699.619 285.267,701.384 286.101,702.526C291.891,710.45 301.025,714.997 310.872,714.966C315.842,714.951 320.959,713.55 324.695,710.15C327.883,707.247 329.095,702.959 328.881,698.738C328.663,694.457 327.052,689.381 322.912,687.36C322.474,688.977 322.036,690.594 321.598,692.21C328.879,691.56 337.087,689.365 340.059,681.887C342.64,675.394 340.198,666.888 333.224,664.481C332.993,666.185 332.763,667.889 332.532,669.593C338.435,669.373 344.143,667.121 348.484,663.084C352.892,658.985 355.29,653.019 353.49,647.087C350.12,635.98 337.783,630.366 326.918,630.624C319.716,630.795 312.816,633.086 306.353,636.129C305.081,636.728 304.754,638.554 305.419,639.69C306.181,640.992 307.703,641.225 308.98,640.624Z" style="fill:rgb(26,57,102);fill-rule:nonzero;"/>
            </g>
            <g transform="matrix(1,0,0,1,-429.108,-5.19277)">
                <path d="M464.492,295.46C471.34,257.701 483.145,220.727 499.553,185.629C503.278,177.659 514.784,176.387 520.348,183.36C546.498,216.138 564.753,254.4 573.323,294.485C574.802,301.401 569.271,307.894 561.72,308.028C532.811,308.541 504.037,308.956 476.234,308.668C468.802,308.591 463.251,302.304 464.492,295.46Z" style="fill:rgb(242,107,96);fill-rule:nonzero;"/>
            </g>
            <g transform="matrix(1,0,0,1,-429.108,-5.19277)">
                <path d="M493.575,158.36C487.092,163.848 486.749,175.226 492.153,181.887C497.557,188.549 507.325,190.253 514.989,186.858C520.28,184.514 524.753,179.836 526.361,174.026C527.969,168.216 526.379,161.377 521.961,157.513C515.843,152.159 504.498,149.113 493.575,158.36Z" style="fill:white;fill-rule:nonzero;"/>
            </g>
            <g transform="matrix(1,0,0,1,-429.108,-5.19277)">
                <path d="M721.977,869.246C727.232,865.378 732.712,861.824 738.393,858.614C741.233,857.01 744.121,855.493 747.051,854.061C748.447,853.379 749.852,852.717 751.266,852.074C751.973,851.753 752.683,851.437 753.394,851.126C753.821,850.939 754.249,850.755 754.677,850.571C755.71,850.126 754.011,850.837 755.152,850.373C767.258,845.446 779.822,841.802 792.735,839.731C793.502,839.608 794.27,839.49 795.038,839.377C795.346,839.332 795.654,839.29 795.961,839.245C797.497,839.02 794.885,839.376 796.425,839.182C798.12,838.968 799.816,838.77 801.517,838.604C804.763,838.286 808.018,838.065 811.277,837.941C817.718,837.696 824.174,837.832 830.598,838.361C832.183,838.492 833.766,838.646 835.346,838.826C835.747,838.871 836.147,838.918 836.548,838.968C836.494,838.961 838.068,839.159 837.296,839.059C836.524,838.959 838.097,839.172 838.044,839.165C838.523,839.234 839.002,839.305 839.481,839.38C842.83,839.9 846.16,840.553 849.451,841.368C852.727,842.18 855.965,843.152 859.135,844.313C859.888,844.588 860.636,844.875 861.38,845.172C861.47,845.208 862.934,845.818 861.912,845.382C862.207,845.507 862.5,845.635 862.793,845.765C864.403,846.477 865.989,847.245 867.544,848.069C868.961,848.82 870.352,849.621 871.712,850.468C872.306,850.838 872.897,851.216 873.474,851.611C873.753,851.801 874.029,851.996 874.301,852.194C874.436,852.293 874.571,852.392 874.704,852.494C875.015,852.728 874.883,852.626 874.308,852.188C874.27,852.293 876.531,854.123 876.752,854.339C877.582,855.149 878.367,856.006 879.101,856.905C879.186,857.009 879.865,857.799 879.272,857.112C878.686,856.433 879.336,857.213 879.42,857.33C879.719,857.746 880.007,858.169 880.285,858.6C880.888,859.535 881.44,860.504 881.936,861.5C882.152,861.933 882.318,862.454 882.574,862.861C881.9,861.791 882.289,862.151 882.453,862.585C882.542,862.817 882.635,863.048 882.721,863.281C883.1,864.303 883.425,865.345 883.694,866.401C883.938,867.358 884.117,868.324 884.289,869.295C884.475,870.339 884.182,868.212 884.247,868.933C884.269,869.177 884.306,869.421 884.33,869.665C884.39,870.251 884.433,870.838 884.46,871.426C884.505,872.404 884.506,873.385 884.463,874.364C884.441,874.853 884.409,875.341 884.365,875.829C884.348,876.024 884.329,876.218 884.308,876.413C884.151,877.869 884.464,875.551 884.305,876.485C883.957,878.517 883.496,880.508 882.805,882.454C882.646,882.905 882.393,883.364 882.283,883.827C882.299,883.76 882.818,882.619 882.465,883.396C882.343,883.663 882.225,883.933 882.099,884.199C881.658,885.131 881.172,886.042 880.642,886.927C880.109,887.818 879.522,888.666 878.916,889.509C878.691,889.823 878.336,890.001 879.188,889.163C878.982,889.366 878.81,889.634 878.624,889.856C878.272,890.276 877.908,890.686 877.534,891.086C876.848,891.82 876.125,892.519 875.369,893.18C874.987,893.515 874.585,893.824 874.199,894.153C873.657,894.616 875.276,893.377 874.399,893.989C874.104,894.195 873.815,894.409 873.517,894.611C872.654,895.197 871.76,895.738 870.842,896.233C870.374,896.484 869.9,896.724 869.419,896.951C869.177,897.066 868.931,897.174 868.687,897.286C867.7,897.741 869.68,896.913 868.73,897.263C866.09,898.232 863.398,898.917 860.643,899.485C859.036,899.817 857.42,900.106 855.798,900.357C855.309,900.433 854.818,900.502 854.327,900.574C855.255,900.437 854.406,900.565 854.233,900.586C853.242,900.708 852.25,900.824 851.256,900.924C847.743,901.279 844.214,901.476 840.684,901.55C833.577,901.701 826.462,901.348 819.387,900.674C817.725,900.515 816.064,900.338 814.404,900.145C813.582,900.049 812.76,899.949 811.939,899.845C811.53,899.794 811.122,899.739 810.714,899.688C810.333,899.637 810.388,899.645 810.878,899.711C810.522,899.663 810.167,899.615 809.812,899.566C806.083,899.054 802.359,898.507 798.641,897.925C791.204,896.761 783.789,895.459 776.4,894.018C761.799,891.172 747.303,887.787 732.951,883.873C729.32,882.882 725.699,881.857 722.086,880.8C721.164,884.146 720.241,887.493 719.319,890.839C736.622,894.936 753.945,899.232 770.433,905.998C771.351,906.375 770.587,906.06 770.408,905.984C770.678,906.098 770.948,906.213 771.217,906.329C771.688,906.532 772.158,906.737 772.627,906.944C773.697,907.416 774.762,907.9 775.82,908.397C777.797,909.324 779.753,910.296 781.684,911.317C785.522,913.345 789.26,915.566 792.85,918.008C793.686,918.576 794.514,919.156 795.333,919.748C795.743,920.045 796.15,920.343 796.555,920.646C796.787,920.819 797.017,920.994 797.248,921.167C798.035,921.756 796.916,920.895 797.396,921.28C799.092,922.643 800.771,924.017 802.388,925.474C805.677,928.435 808.778,931.624 811.539,935.085C811.679,935.261 811.818,935.437 811.957,935.614C811.36,934.852 811.849,935.476 811.962,935.632C812.314,936.116 812.673,936.595 813.018,937.085C813.663,938.002 814.282,938.937 814.873,939.89C816.046,941.782 817.104,943.747 818.012,945.782C818.075,945.922 818.431,946.789 818.187,946.177C817.96,945.61 818.23,946.299 818.258,946.374C818.467,946.926 818.678,947.475 818.87,948.032C819.228,949.074 819.544,950.131 819.813,951.2C820.083,952.271 820.295,953.352 820.476,954.442C820.492,954.538 820.58,955.272 820.506,954.627C820.426,953.931 820.524,954.872 820.54,955.037C820.598,955.629 820.64,956.222 820.667,956.816C820.717,957.942 820.71,959.072 820.645,960.197C820.614,960.731 820.542,961.263 820.512,961.796C820.477,962.421 820.549,961.598 820.56,961.522C820.509,961.873 820.453,962.222 820.389,962.571C820.201,963.612 819.955,964.644 819.65,965.657C819.508,966.128 819.353,966.595 819.187,967.057C819.115,967.255 819.04,967.451 818.967,967.648C818.502,968.902 819.27,967.071 818.923,967.759C818.451,968.695 818.009,969.633 817.462,970.53C817.209,970.946 816.943,971.353 816.666,971.753C816.547,971.924 816.418,972.089 816.303,972.262C816.905,971.352 816.387,972.156 816.219,972.358C815.55,973.161 814.829,973.921 814.057,974.626C813.902,974.768 813.745,974.907 813.586,975.045C813.466,975.148 812.785,975.732 813.297,975.306C813.77,974.911 813.229,975.357 813.15,975.412C812.838,975.633 812.525,975.851 812.205,976.061C811.231,976.696 810.212,977.235 809.162,977.734C810.066,977.305 808.862,977.838 808.542,977.949C807.922,978.162 807.292,978.349 806.656,978.506C806.166,978.626 805.672,978.728 805.175,978.815C804.963,978.852 804.751,978.886 804.538,978.918C805.664,978.748 804.884,978.871 804.642,978.881C803.492,978.93 802.361,979 801.209,978.944C800.705,978.919 800.202,978.879 799.701,978.827C799.485,978.805 799.27,978.78 799.055,978.754C800.171,978.892 799.378,978.796 799.146,978.748C797.994,978.509 796.847,978.291 795.711,977.976C794.707,977.698 793.714,977.378 792.733,977.024C792.239,976.846 791.747,976.658 791.259,976.463C791.121,976.408 790.245,976.034 790.836,976.292C791.448,976.56 790.194,975.999 790.211,976.007C786.1,974.131 782.248,971.756 778.521,969.212C776.669,967.948 774.847,966.638 773.059,965.285C772.88,965.149 772.702,965.012 772.523,964.877C771.888,964.401 773.133,965.361 772.511,964.868C772.101,964.543 771.688,964.223 771.279,963.896C770.344,963.15 769.419,962.391 768.503,961.621C761.638,955.844 755.33,949.405 749.687,942.429C749.358,942.022 749.031,941.613 748.707,941.202C748.516,940.961 747.695,939.897 748.28,940.663C747.554,939.712 746.835,938.756 746.131,937.788C744.811,935.975 743.535,934.13 742.303,932.255C739.84,928.506 737.557,924.638 735.469,920.668C734.424,918.682 733.432,916.67 732.483,914.638C729.487,916.389 726.49,918.14 723.494,919.892C726.084,924.048 728.415,928.361 730.468,932.807C730.97,933.895 731.449,934.993 731.925,936.092C731.399,934.877 732.125,936.587 732.244,936.879C732.519,937.56 732.788,938.242 733.051,938.927C733.912,941.171 734.706,943.441 735.433,945.733C736.928,950.443 738.139,955.244 739.05,960.101C739.271,961.28 739.475,962.462 739.661,963.647C739.754,964.239 739.835,964.832 739.925,965.424C740.052,966.252 739.764,964.119 739.927,965.424C739.976,965.82 740.027,966.215 740.074,966.611C740.355,968.981 740.565,971.359 740.699,973.741C740.971,978.597 740.933,983.471 740.553,988.32C740.462,989.49 740.35,990.658 740.218,991.824C740.189,992.082 740.159,992.341 740.128,992.599C740.119,992.671 739.968,993.95 740.073,993.068C740.163,992.308 740.06,993.154 740.034,993.341C739.978,993.726 739.921,994.111 739.862,994.496C739.496,996.859 739.044,999.209 738.502,1001.54C737.425,1006.16 735.976,1010.68 734.189,1015.08C733.833,1015.96 734.217,1015.04 734.268,1014.9C734.161,1015.2 734.014,1015.49 733.886,1015.78C733.654,1016.3 733.417,1016.83 733.173,1017.35C732.66,1018.45 732.122,1019.53 731.559,1020.61C730.462,1022.71 729.271,1024.75 727.988,1026.74C727.361,1027.71 726.712,1028.67 726.042,1029.61C725.744,1030.03 725.441,1030.45 725.134,1030.86C724.941,1031.12 724.745,1031.38 724.552,1031.64C724.322,1031.94 724.396,1031.84 724.773,1031.35C724.654,1031.5 724.533,1031.66 724.412,1031.81C722.911,1033.7 721.319,1035.51 719.643,1037.24C718.706,1038.21 717.743,1039.16 716.748,1040.07C716.298,1040.48 715.842,1040.89 715.379,1041.28C715.089,1041.53 714.797,1041.78 714.502,1042.02C714.382,1042.12 713.313,1042.96 713.775,1042.61C714.371,1042.15 713.171,1043.04 713.206,1043.02C712.96,1043.2 712.711,1043.37 712.462,1043.55C711.963,1043.89 711.457,1044.23 710.944,1044.55C709.667,1045.35 708.344,1046.08 706.977,1046.72C706.705,1046.85 706.431,1046.97 706.154,1047.09C707.071,1046.7 706.333,1047.01 706.145,1047.08C705.433,1047.32 704.733,1047.59 704.009,1047.8C703.43,1047.97 702.845,1048.13 702.256,1048.26C701.927,1048.34 701.596,1048.41 701.264,1048.47C701.105,1048.5 699.761,1048.69 700.568,1048.59C701.438,1048.49 700.133,1048.63 700.071,1048.63C699.808,1048.66 699.544,1048.68 699.28,1048.69C698.754,1048.72 698.227,1048.74 697.701,1048.73C697.045,1048.73 696.389,1048.71 695.736,1048.66C695.475,1048.64 695.214,1048.61 694.954,1048.59C693.623,1048.47 696.097,1048.8 694.781,1048.57C693.617,1048.37 692.466,1048.13 691.329,1047.8C690.822,1047.66 690.319,1047.5 689.821,1047.33C689.508,1047.23 689.198,1047.12 688.889,1047C688.746,1046.95 687.516,1046.45 688.219,1046.75C688.877,1047.03 688.086,1046.68 687.928,1046.61C687.625,1046.47 687.324,1046.33 687.025,1046.18C686.545,1045.95 686.071,1045.7 685.602,1045.44C684.42,1044.79 683.275,1044.08 682.169,1043.31C681.724,1043 681.286,1042.67 680.852,1042.35C681.872,1043.12 680.2,1041.79 679.997,1041.61C679.06,1040.81 678.16,1039.96 677.298,1039.08C676.432,1038.19 675.604,1037.27 674.818,1036.31C674.807,1036.29 673.961,1035.23 674.453,1035.86C674.945,1036.49 674.123,1035.41 674.113,1035.4C673.707,1034.84 673.314,1034.28 672.935,1033.7C671.578,1031.64 670.398,1029.47 669.425,1027.2C669.886,1028.27 669.518,1027.4 669.412,1027.12C669.268,1026.75 669.129,1026.37 668.994,1026C668.77,1025.38 668.559,1024.75 668.359,1024.12C667.863,1022.55 667.44,1020.96 667.086,1019.35C666.767,1017.91 666.51,1016.46 666.294,1015C666.326,1015.22 666.408,1015.96 666.286,1014.92C666.248,1014.59 666.209,1014.26 666.174,1013.94C666.088,1013.12 666.016,1012.3 665.958,1011.48C665.738,1008.34 665.725,1005.19 665.867,1002.04C666.004,999.033 666.296,996.038 666.663,993.049C666.86,991.448 666.566,993.643 666.712,992.686C666.775,992.271 666.83,991.855 666.892,991.44C666.992,990.775 667.095,990.112 667.203,989.449C667.473,987.795 667.768,986.144 668.082,984.497C670.432,972.205 673.592,960.043 677.315,948.098C679.182,942.107 681.21,936.165 683.394,930.282C684.457,927.419 685.556,924.571 686.693,921.737C687.262,920.32 687.839,918.907 688.426,917.498C688.556,917.184 688.687,916.871 688.818,916.559C688.48,917.365 688.904,916.356 688.987,916.161C689.319,915.381 689.654,914.602 689.991,913.824C692.49,908.067 695.143,902.377 697.947,896.762C698.629,895.396 699.32,894.035 700.019,892.678C700.847,891.074 702.065,889.348 702.55,887.603C703.274,885.002 702.251,882.137 699.88,880.75C698.746,880.087 697.576,880.015 696.302,879.863C695.494,879.766 697.147,879.986 696.342,879.868C695.895,879.803 695.447,879.742 695,879.675C683.973,878.032 673.151,875.058 662.812,870.89C662.183,870.636 661.556,870.379 660.931,870.116C661.847,870.501 661.108,870.19 660.926,870.11C660.581,869.959 660.235,869.811 659.89,869.659C658.58,869.083 657.278,868.487 655.985,867.872C653.468,866.675 650.985,865.405 648.541,864.065C643.653,861.385 638.92,858.423 634.374,855.196C633.33,854.455 632.296,853.7 631.272,852.931C630.971,852.705 630.673,852.474 630.372,852.249C629.663,851.719 631.315,852.995 630.173,852.096C629.582,851.63 628.99,851.164 628.404,850.691C626.236,848.94 624.119,847.126 622.059,845.25C617.882,841.447 613.848,837.416 610.289,833.022C610.093,832.779 609.901,832.533 609.705,832.29C609.138,831.588 610.398,833.255 609.522,832.044C609.157,831.54 608.785,831.041 608.43,830.53C607.545,829.259 606.715,827.949 605.957,826.598C605.656,826.061 605.366,825.516 605.089,824.965C604.916,824.621 604.749,824.274 604.587,823.925C604.48,823.696 604.069,822.754 604.461,823.689C603.925,822.409 603.476,821.088 603.112,819.748C602.836,818.729 602.366,817.424 602.406,816.361C602.36,817.589 602.471,816.822 602.432,816.427C602.401,816.114 602.374,815.8 602.354,815.486C602.312,814.862 602.292,814.235 602.291,813.609C602.289,812.485 602.376,811.372 602.477,810.254C602.518,809.806 602.772,809.632 602.436,810.528C602.511,810.328 602.517,810.012 602.555,809.791C602.662,809.179 602.786,808.569 602.929,807.963C603.185,806.869 603.499,805.788 603.865,804.726C604.049,804.192 604.262,803.67 604.456,803.139C604.728,802.393 603.919,804.296 604.444,803.164C604.603,802.821 604.756,802.474 604.92,802.133C605.914,800.064 607.1,798.089 608.44,796.226C608.628,795.965 608.823,795.709 609.013,795.45C609.486,794.804 608.214,796.404 609.033,795.436C609.367,795.041 609.69,794.637 610.03,794.246C610.883,793.265 611.78,792.323 612.717,791.423C613.564,790.609 614.443,789.829 615.352,789.085C615.555,788.919 615.761,788.758 615.964,788.593C615.836,788.697 615.085,789.248 615.844,788.689C616.372,788.302 616.901,787.918 617.442,787.549C619.497,786.151 621.671,784.925 623.935,783.901C624.117,783.819 624.479,783.596 624.652,783.585C623.944,783.63 624.029,783.834 624.494,783.661C625.044,783.457 625.589,783.241 626.144,783.049C627.311,782.644 628.497,782.292 629.698,781.999C630.328,781.845 630.963,781.708 631.601,781.587C631.987,781.514 632.813,781.54 633.137,781.329C632.654,781.642 632.295,781.422 632.912,781.365C633.242,781.335 633.571,781.296 633.901,781.267C634.684,781.2 635.469,781.152 636.254,781.125C638.802,781.035 641.345,781.171 643.875,781.476C642.513,781.312 644.717,781.622 644.995,781.672C645.55,781.77 646.102,781.879 646.653,781.996C648.031,782.289 649.397,782.639 650.747,783.041C651.899,783.384 653.039,783.765 654.166,784.182C654.765,784.403 655.358,784.637 655.95,784.875C656.859,785.24 656.056,784.921 655.885,784.845C656.276,785.018 656.667,785.189 657.055,785.367C659.529,786.501 661.925,787.8 664.235,789.238C665.276,789.886 666.299,790.563 667.304,791.265C667.838,791.638 668.367,792.018 668.89,792.405C669.123,792.578 669.353,792.753 669.585,792.927C668.67,792.241 669.71,793.026 669.905,793.181C674.108,796.532 677.949,800.334 681.371,804.478C681.786,804.98 682.187,805.492 682.596,805.998C683.135,806.667 681.877,805.023 682.706,806.145C682.878,806.376 683.052,806.605 683.223,806.837C684.091,808.014 684.926,809.215 685.735,810.433C687.38,812.91 688.912,815.463 690.34,818.071C691.767,820.678 693.091,823.341 694.326,826.044C694.627,826.702 694.923,827.363 695.213,828.026C695.342,828.321 695.469,828.617 695.598,828.912C696.219,830.33 695.379,828.364 695.733,829.226C696.315,830.643 696.891,832.062 697.442,833.493C699.594,839.09 701.457,844.795 703.174,850.538C704.847,856.133 706.381,861.767 707.909,867.402C708.622,870.029 711.644,871.901 714.313,871.038C717.005,870.166 718.712,867.45 717.948,864.635C711.744,841.757 705.143,818.165 690.356,799.149C677.295,782.352 656.49,769.223 634.543,770.806C614.333,772.263 595.012,788.28 592.252,808.821C591.555,814.011 591.943,819.308 593.613,824.292C595.595,830.206 598.896,835.37 602.781,840.201C609.791,848.918 618.469,856.412 627.47,862.996C645.288,876.03 666.265,885.091 687.996,889.015C689.331,889.256 690.668,889.478 692.009,889.68C692.605,889.77 693.201,889.856 693.798,889.938C694.409,890.022 695.019,890.104 695.63,890.185C695.779,890.205 695.929,890.224 696.078,890.244C696.745,890.319 696.675,890.326 695.869,890.264C695.103,889.818 694.337,889.371 693.572,888.925C693.412,888.714 693.252,888.504 693.093,888.293C692.856,887.417 692.619,886.541 692.382,885.666C692.521,885.124 692.659,884.583 692.798,884.041C692.639,884.341 692.481,884.641 692.323,884.942C692.165,885.242 692.008,885.542 691.851,885.843C691.458,886.595 691.068,887.348 690.681,888.103C689.868,889.687 689.068,891.278 688.279,892.875C686.739,895.993 685.245,899.133 683.799,902.295C680.86,908.719 678.103,915.229 675.53,921.808C670.558,934.525 666.322,947.53 662.856,960.737C659.361,974.055 656.181,987.751 655.481,1001.54C654.818,1014.62 656.856,1028.64 664.407,1039.64C670.965,1049.19 681.081,1057.06 692.79,1058.72C699.488,1059.67 705.882,1058.62 712.027,1055.8C717.815,1053.15 722.904,1048.9 727.277,1044.32C742.497,1028.4 750.111,1006.96 751.162,985.187C752.222,963.21 746.771,940.864 736.446,921.492C735.204,919.162 733.879,916.878 732.483,914.638C731.044,912.328 727.771,911.217 725.362,912.77C722.813,914.413 722.258,917.245 723.494,919.892C731.573,937.2 743.25,952.936 757.423,965.739C764.576,972.201 772.425,978.307 780.896,982.952C789.709,987.784 800.245,991.214 810.264,988.319C820.297,985.421 827.754,976.845 830.126,966.792C832.517,956.656 830.244,946.163 825.324,937.143C820.737,928.735 813.974,921.477 806.618,915.415C799.274,909.361 791.215,904.306 782.654,900.161C765.553,891.881 747.157,886.841 728.755,882.393C726.534,881.856 724.31,881.327 722.086,880.8C719.442,880.174 716.323,881.627 715.683,884.436C715.048,887.223 716.521,890.02 719.319,890.839C749.457,899.653 780.298,906.201 811.448,910.194C825.766,912.028 840.37,912.799 854.726,910.933C861.492,910.054 868.303,908.914 874.529,906.009C878.791,904.019 882.735,901.02 885.793,897.445C892.019,890.166 895.423,880.592 894.847,870.985C894.256,861.13 889.85,851.588 882.182,845.242C876.776,840.768 870.415,837.617 863.924,835.045C857.412,832.465 850.586,830.726 843.684,829.573C830.001,827.287 816.021,826.835 802.213,828.127C774.775,830.694 747.932,839.69 724.77,854.69C722.031,856.464 719.35,858.323 716.723,860.257C714.536,861.866 713.221,864.844 714.855,867.379C716.251,869.544 719.632,870.973 721.977,869.246Z" style="fill:rgb(26,57,102);fill-rule:nonzero;"/>
            </g>
            <g transform="matrix(1,0,0,1,-429.108,-5.19277)">
                <path d="M620.757,886.186C639.669,887.225 658.551,888.791 677.374,890.895C682.679,891.489 687.979,892.126 693.273,892.802C692.812,889.394 692.351,885.986 691.889,882.577C668.098,888.011 644.114,892.589 619.991,896.284C616.629,896.798 613.265,897.296 609.898,897.777C608.214,898.018 606.53,898.254 604.845,898.486C604.003,898.601 603.16,898.716 602.318,898.83C601.452,898.948 603.052,898.734 602.185,898.848C601.595,898.926 601.005,899.005 600.415,899.083C597.726,899.437 595.072,901.222 595.209,904.288C595.322,906.803 597.523,909.875 600.415,909.493C625.157,906.229 649.779,902.121 674.219,897.066C681.047,895.653 687.86,894.168 694.657,892.616C697.182,892.039 698.714,889.348 698.385,886.905C698.013,884.136 695.888,882.726 693.273,882.392C674.485,879.991 655.632,878.114 636.739,876.778C631.414,876.401 626.087,876.068 620.757,875.775C618.034,875.626 615.431,878.276 615.552,880.981C615.684,883.929 617.84,886.026 620.757,886.186Z" style="fill:rgb(26,57,102);fill-rule:nonzero;"/>
            </g>
            <g transform="matrix(1,0,0,1,-429.108,-5.19277)">
                <path d="M713.356,736.092C714.195,766.585 715.033,797.078 715.872,827.571C716.11,836.234 716.349,844.896 716.587,853.559C716.662,856.279 718.927,858.893 721.792,858.765C724.874,858.626 726.669,856.468 726.997,853.559C730.116,825.939 733.234,798.319 736.352,770.699C739.471,743.079 742.589,715.459 745.707,687.839C747.456,672.352 749.205,656.864 750.953,641.376C751.26,638.661 748.34,636.055 745.748,636.171C742.666,636.309 740.871,638.467 740.543,641.376C737.424,668.996 734.306,696.616 731.188,724.236C728.069,751.856 724.951,779.476 721.833,807.096C720.084,822.584 718.335,838.071 716.587,853.559L726.997,853.559C726.159,823.066 725.32,792.573 724.481,762.08C724.243,753.417 724.005,744.755 723.767,736.092C723.692,733.372 721.426,730.758 718.561,730.887C715.805,731.01 713.276,733.176 713.356,736.092Z" style="fill:rgb(26,57,102);fill-rule:nonzero;"/>
            </g>
            <g transform="matrix(1,0,0,1,-429.108,-5.19277)">
                <path d="M705.184,1022.27C707.855,1004.8 710.526,987.335 713.198,969.868C715.856,952.485 718.514,935.103 721.173,917.721C722.678,907.874 724.185,898.027 725.69,888.18C722.282,887.719 718.874,887.258 715.466,886.796C715.928,913.454 716.079,940.116 715.912,966.777C715.746,993.351 715.267,1019.92 714.474,1046.49C714.028,1061.45 713.48,1076.42 712.836,1091.38C712.718,1094.1 715.314,1096.71 718.041,1096.59C720.962,1096.46 723.12,1094.3 723.246,1091.38C724.394,1064.74 725.23,1038.09 725.749,1011.44C726.266,984.869 726.47,958.294 726.36,931.719C726.298,916.744 726.136,901.769 725.876,886.796C725.831,884.196 723.93,882.029 721.363,881.684C719.052,881.374 716.044,882.85 715.652,885.413C712.98,902.88 710.309,920.348 707.638,937.816C704.979,955.198 702.321,972.58 699.663,989.962C698.157,999.809 696.651,1009.66 695.145,1019.5C694.735,1022.18 695.82,1025.23 698.781,1025.91C701.263,1026.47 704.743,1025.15 705.184,1022.27Z" style="fill:rgb(26,57,102);fill-rule:nonzero;"/>
            </g>
            <g transform="matrix(1,0,0,1,-429.108,-5.19277)">
                <path d="M494.325,229.995C504.353,224.341 514.38,218.687 524.408,213.032C525.817,212.238 527.226,211.444 528.635,210.649C531.553,209.004 528.932,204.506 526.007,206.155C515.979,211.809 505.952,217.463 495.924,223.117C494.516,223.912 493.107,224.706 491.698,225.5C488.78,227.146 491.401,231.644 494.325,229.995Z" style="fill:white;fill-rule:nonzero;"/>
            </g>
            <g transform="matrix(1,0,0,1,-429.108,-5.19277)">
                <path d="M495.943,299.107C503.174,295.03 510.405,290.952 517.636,286.875C529.203,280.353 540.771,273.83 552.339,267.308C554.984,265.816 557.63,264.324 560.276,262.832C563.194,261.187 560.573,256.689 557.648,258.338C550.418,262.415 543.187,266.492 535.956,270.569C524.388,277.092 512.82,283.614 501.253,290.137C498.607,291.629 495.962,293.12 493.316,294.612C490.398,296.258 493.018,300.756 495.943,299.107Z" style="fill:white;fill-rule:nonzero;"/>
            </g>
            <g transform="matrix(1,0,0,1,-429.108,-5.19277)">
                <path d="M465.826,277.477C468.638,275.891 471.451,274.305 474.264,272.719C480.98,268.933 487.695,265.146 494.411,261.359C502.571,256.758 510.732,252.156 518.892,247.555C525.917,243.594 532.943,239.632 539.969,235.671C543.392,233.741 546.937,231.939 550.274,229.86C550.321,229.831 550.371,229.805 550.419,229.778C553.337,228.133 550.716,223.635 547.792,225.284C544.979,226.87 542.166,228.456 539.354,230.042C532.638,233.828 525.922,237.615 519.206,241.402C511.046,246.003 502.886,250.604 494.725,255.206C487.7,259.167 480.674,263.129 473.649,267.09C470.226,269.02 466.68,270.822 463.344,272.901C463.297,272.93 463.247,272.956 463.198,272.983C460.28,274.628 462.901,279.126 465.826,277.477Z" style="fill:white;fill-rule:nonzero;"/>
            </g>
            <g transform="matrix(1,0,0,1,-429.108,-5.19277)">
                <path d="M420.533,534.82C426.37,534.01 431.759,538.085 432.57,543.922C433.38,549.759 429.305,555.148 423.468,555.959C417.631,556.77 412.242,552.695 411.431,546.858C410.621,541.02 414.696,535.631 420.533,534.82Z" style="fill:rgb(26,57,102);fill-rule:nonzero;"/>
            </g>
            <g transform="matrix(1,0,0,1,-429.108,-5.19277)">
                <path d="M325.637,547.997C331.474,547.187 336.863,551.262 337.674,557.099C338.484,562.936 334.409,568.325 328.572,569.136C322.735,569.947 317.346,565.872 316.535,560.034C315.724,554.197 319.799,548.808 325.637,547.997Z" style="fill:rgb(26,57,102);fill-rule:nonzero;"/>
            </g>
            <g transform="matrix(1,0,0,1,-429.108,-5.19277)">
                <path d="M451.604,558.209C469.543,555.718 484.919,559.7 485.947,567.104C486.975,574.507 473.266,582.528 455.327,585.019C437.388,587.51 422.013,583.527 420.985,576.124C419.956,568.721 433.665,560.7 451.604,558.209Z" style="fill:rgb(251,210,207);fill-rule:nonzero;"/>
            </g>
            <g transform="matrix(1,0,0,1,-429.108,-5.19277)">
                <path d="M303.586,578.762C321.525,576.271 336.901,580.253 337.929,587.657C338.957,595.06 325.248,603.081 307.309,605.572C289.37,608.063 273.995,604.081 272.966,596.677C271.938,589.274 285.647,581.253 303.586,578.762Z" style="fill:rgb(251,210,207);fill-rule:nonzero;"/>
            </g>
            <g transform="matrix(1,0,0,1,-429.108,-5.19277)">
                <path d="M464.543,547.36C480.851,538.718 498.277,532.295 516.289,528.264C521.383,527.124 526.52,526.181 531.685,525.423C533.077,525.218 533.843,523.457 533.503,522.221C533.093,520.729 531.698,520.198 530.301,520.403C511.663,523.142 493.486,528.411 476.227,535.951C471.37,538.073 466.598,540.384 461.916,542.865C458.955,544.434 461.582,548.929 464.543,547.36Z" style="fill:rgb(26,57,102);fill-rule:nonzero;"/>
            </g>
            <g transform="matrix(1,0,0,1,-429.108,-5.19277)">
                <path d="M471.581,568.719C489.424,564.028 507.827,561.729 526.277,561.913C531.503,561.965 536.724,562.219 541.931,562.659C543.333,562.777 544.533,561.378 544.533,560.056C544.533,558.549 543.337,557.572 541.931,557.453C523.175,555.869 504.247,556.828 485.734,560.228C480.513,561.187 475.331,562.35 470.197,563.7C466.96,564.551 468.333,569.573 471.581,568.719Z" style="fill:rgb(26,57,102);fill-rule:nonzero;"/>
            </g>
            <g transform="matrix(1,0,0,1,-429.108,-5.19277)">
                <path d="M474.566,556.773C490.484,549.833 507.854,546.405 525.205,546.601C528.556,546.639 528.558,541.433 525.205,541.396C506.882,541.189 488.723,544.96 471.939,552.279C470.65,552.841 470.355,554.728 471.005,555.84C471.783,557.17 473.272,557.337 474.566,556.773Z" style="fill:rgb(26,57,102);fill-rule:nonzero;"/>
            </g>
            <g transform="matrix(1,0,0,1,-429.108,-5.19277)">
                <path d="M286.41,563.566C267.716,560.625 248.699,560.1 229.885,562.197C224.472,562.8 219.08,563.604 213.726,564.607C212.344,564.866 211.558,566.535 211.909,567.809C212.307,569.259 213.724,569.886 215.11,569.627C233.074,566.26 251.469,565.322 269.687,566.773C274.822,567.181 279.938,567.784 285.026,568.585C286.413,568.803 287.826,568.23 288.228,566.767C288.568,565.531 287.807,563.785 286.41,563.566Z" style="fill:rgb(26,57,102);fill-rule:nonzero;"/>
            </g>
            <g transform="matrix(1,0,0,1,-429.108,-5.19277)">
                <path d="M285.335,585.914C266.472,587.314 247.806,591.174 229.979,597.508C224.857,599.327 219.812,601.357 214.839,603.551C213.553,604.118 213.253,605.997 213.906,607.112C214.681,608.438 216.175,608.615 217.466,608.045C234.195,600.665 251.946,595.565 270.02,592.823C275.1,592.052 280.211,591.499 285.335,591.119C286.737,591.015 287.937,589.997 287.937,588.516C287.937,587.188 286.744,585.809 285.335,585.914Z" style="fill:rgb(26,57,102);fill-rule:nonzero;"/>
            </g>
            <g transform="matrix(1,0,0,1,-429.108,-5.19277)">
                <path d="M279.301,575.634C261.318,574.193 243.049,576.606 226.056,582.665C224.733,583.136 223.846,584.439 224.238,585.866C224.59,587.147 226.11,588.158 227.44,587.684C244.052,581.761 261.721,579.43 279.301,580.839C280.704,580.952 281.904,579.562 281.904,578.236C281.904,576.735 280.708,575.746 279.301,575.634Z" style="fill:rgb(26,57,102);fill-rule:nonzero;"/>
            </g>
            <g transform="matrix(1,0,0,1,-429.108,-5.19277)">
                <path d="M374.656,567.775C374.418,567.635 374.186,567.481 373.959,567.329C371.932,565.974 364.688,561.78 368.916,558.931C371.505,557.186 375.453,557.134 378.458,557.098C379.271,557.088 380.088,557.092 380.898,557.16C384.383,557.455 384.319,560.014 382.791,562.507C381.489,564.632 379.137,568.565 376.193,568.327C375.643,568.283 375.137,568.057 374.656,567.775Z" style="fill:rgb(26,57,102);fill-rule:nonzero;"/>
            </g>
            <g transform="matrix(1,0,0,1,-429.108,-5.19277)">
                <path d="M373.483,561.663C374.257,567.23 375.029,572.797 375.802,578.363C375.912,579.154 376.022,579.944 376.132,580.735C376.325,582.128 378.105,582.89 379.333,582.552C380.834,582.14 381.345,580.749 381.151,579.351C380.378,573.784 379.605,568.217 378.832,562.65C378.722,561.86 378.612,561.07 378.503,560.279C378.309,558.886 376.529,558.124 375.301,558.462C373.8,558.874 373.289,560.265 373.483,561.663Z" style="fill:rgb(26,57,102);fill-rule:nonzero;"/>
            </g>
            <g transform="matrix(1,0,0,1,-429.108,-5.19277)">
                <path d="M439.845,727.536C444.823,728.566 449.956,727.289 453.825,723.978C457.483,720.847 459.51,715.799 459.179,711.016C459.085,709.66 458.049,708.347 456.576,708.413C455.247,708.473 453.873,709.561 453.973,711.016C454.008,711.519 454.022,712.022 454.003,712.527C453.993,712.779 453.969,713.029 453.951,713.281C453.915,713.767 453.979,713.174 453.928,713.463C453.757,714.418 453.507,715.346 453.152,716.25C453.285,715.911 453.127,716.301 453.062,716.438C452.954,716.666 452.84,716.891 452.72,717.113C452.5,717.519 452.26,717.914 451.999,718.295C451.991,718.307 451.52,718.941 451.806,718.578C451.65,718.776 451.485,718.967 451.317,719.154C451.007,719.497 450.679,719.824 450.334,720.131C450.178,720.271 450.018,720.408 449.854,720.539C450.214,720.252 449.583,720.724 449.571,720.732C449.19,720.993 448.794,721.232 448.387,721.45C448.165,721.57 447.94,721.682 447.711,721.789C447.573,721.854 447.182,722.004 447.522,721.874C447.051,722.054 446.573,722.214 446.085,722.344C445.638,722.464 445.186,722.558 444.729,722.634C444.541,722.663 444.563,722.661 444.797,722.627C444.672,722.642 444.546,722.654 444.421,722.664C444.211,722.682 444.002,722.696 443.792,722.704C443.288,722.724 442.784,722.715 442.281,722.678C442.174,722.669 441.456,722.576 441.973,722.655C441.723,722.617 441.476,722.568 441.229,722.517C439.899,722.242 438.353,722.904 438.027,724.335C437.731,725.636 438.419,727.241 439.845,727.536Z" style="fill:rgb(26,57,102);fill-rule:nonzero;"/>
            </g>
            <g transform="matrix(1,0,0,1,-429.108,-5.19277)">
                <path d="M473.753,719.335C470.754,720.607 466.911,720.252 464.007,718.42C462.902,717.723 461.597,716.42 460.884,715.322C460.635,714.938 460.405,714.541 460.196,714.135C459.962,713.681 459.87,713.468 459.795,713.25C459.662,712.861 459.529,712.472 459.423,712.074C459.365,711.853 459.311,711.631 459.264,711.407C459.247,711.324 459.121,710.577 459.179,711.016C458.996,709.622 458.113,708.413 456.576,708.413C455.312,708.413 453.789,709.612 453.973,711.016C454.614,715.898 457.172,720.254 461.379,722.914C465.904,725.775 471.542,725.88 476.38,723.83C477.675,723.281 477.959,721.372 477.314,720.269C476.53,718.929 475.053,718.785 473.753,719.335Z" style="fill:rgb(26,57,102);fill-rule:nonzero;"/>
            </g>
            <g transform="matrix(1,0,0,1,-429.108,-5.19277)">
                <path d="M501.713,682.825C507.578,682.24 512.806,686.52 513.391,692.384C513.974,698.248 509.696,703.476 503.832,704.061C497.967,704.646 492.739,700.366 492.154,694.502C491.57,688.638 495.849,683.41 501.713,682.825Z" style="fill:rgb(26,57,102);fill-rule:nonzero;"/>
            </g>
            <g transform="matrix(1,0,0,1,-429.108,-5.19277)">
                <path d="M406.38,692.334C412.244,691.749 417.472,696.029 418.057,701.893C418.642,707.757 414.362,712.985 408.498,713.57C402.634,714.155 397.406,709.875 396.821,704.011C396.236,698.147 400.516,692.919 406.38,692.334Z" style="fill:rgb(26,57,102);fill-rule:nonzero;"/>
            </g>
            <g transform="matrix(1,0,0,1,-429.108,-5.19277)">
                <path d="M531.86,707.394C549.882,705.596 565.093,710.168 565.834,717.606C566.576,725.043 552.568,732.53 534.547,734.327C516.525,736.125 501.314,731.553 500.572,724.115C499.831,716.678 513.839,709.191 531.86,707.394Z" style="fill:rgb(251,210,207);fill-rule:nonzero;"/>
            </g>
            <g transform="matrix(1,0,0,1,-429.108,-5.19277)">
                <path d="M383.16,722.226C401.181,720.428 416.392,725 417.134,732.438C417.876,739.875 403.868,747.362 385.846,749.159C367.825,750.957 352.614,746.385 351.872,738.947C351.13,731.51 365.138,724.023 383.16,722.226Z" style="fill:rgb(251,210,207);fill-rule:nonzero;"/>
            </g>
            <g transform="matrix(1,0,0,1,-429.108,-5.19277)">
                <path d="M545.295,696.995C561.74,689.078 579.234,683.385 597.175,680.039C602.271,679.089 607.398,678.335 612.551,677.78C613.948,677.629 615.154,676.692 615.154,675.177C615.154,673.887 613.957,672.423 612.551,672.575C593.699,674.606 575.159,679.068 557.51,686.017C552.485,687.995 547.533,690.158 542.668,692.501C541.401,693.111 541.065,694.918 541.734,696.062C542.491,697.356 544.024,697.607 545.295,696.995Z" style="fill:rgb(26,57,102);fill-rule:nonzero;"/>
            </g>
            <g transform="matrix(1,0,0,1,-429.108,-5.19277)">
                <path d="M551.514,718.634C569.483,714.644 587.939,713.08 606.326,713.963C611.582,714.215 616.826,714.673 622.048,715.317C623.446,715.489 624.651,713.997 624.651,712.715C624.651,711.165 623.45,710.285 622.048,710.112C603.387,707.808 584.508,708.061 565.9,710.729C560.608,711.487 555.349,712.456 550.13,713.615C546.862,714.34 548.245,719.36 551.514,718.634Z" style="fill:rgb(26,57,102);fill-rule:nonzero;"/>
            </g>
            <g transform="matrix(1,0,0,1,-429.108,-5.19277)">
                <path d="M554.326,707.051C570.75,700.631 588.342,697.747 605.954,698.626C609.302,698.793 609.293,693.588 605.954,693.421C587.935,692.522 569.747,695.463 552.942,702.031C551.634,702.543 550.724,703.777 551.124,705.233C551.467,706.481 553.009,707.565 554.326,707.051Z" style="fill:rgb(26,57,102);fill-rule:nonzero;"/>
            </g>
            <g transform="matrix(1,0,0,1,-429.108,-5.19277)">
                <path d="M366.486,706.343C347.898,702.679 328.842,701.445 309.943,702.83C304.546,703.226 299.168,703.844 293.815,704.635C292.423,704.841 291.658,706.6 291.997,707.837C292.407,709.328 293.803,709.861 295.199,709.654C313.303,706.979 331.792,706.782 349.96,708.946C355.037,709.551 360.086,710.373 365.102,711.362C366.48,711.634 367.912,710.97 368.304,709.544C368.655,708.265 367.872,706.616 366.486,706.343Z" style="fill:rgb(26,57,102);fill-rule:nonzero;"/>
            </g>
            <g transform="matrix(1,0,0,1,-429.108,-5.19277)">
                <path d="M364.546,728.659C345.805,729.326 327.137,732.448 309.223,738.002C304.101,739.59 299.044,741.38 294.057,743.354C292.751,743.871 291.838,745.095 292.24,746.556C292.581,747.799 294.127,748.894 295.441,748.373C312.515,741.615 330.491,737.043 348.749,735.013C353.998,734.43 359.268,734.052 364.546,733.864C367.886,733.746 367.902,728.54 364.546,728.659Z" style="fill:rgb(26,57,102);fill-rule:nonzero;"/>
            </g>
            <g transform="matrix(1,0,0,1,-429.108,-5.19277)">
                <path d="M358.913,718.154C340.994,716.021 322.657,717.754 305.44,723.154C302.254,724.153 303.614,729.18 306.823,728.173C323.648,722.897 341.405,721.275 358.913,723.36C360.311,723.526 361.515,722.044 361.515,720.757C361.515,719.212 360.315,718.321 358.913,718.154Z" style="fill:rgb(26,57,102);fill-rule:nonzero;"/>
            </g>
            <g transform="matrix(1,0,0,1,-429.108,-5.19277)">
                <path d="M454.601,713.986C454.368,713.837 454.142,713.675 453.921,713.514C451.948,712.082 444.871,707.612 449.205,704.928C451.86,703.284 455.807,703.385 458.811,703.464C459.623,703.486 460.44,703.521 461.246,703.621C464.717,704.05 464.555,706.604 462.932,709.036C461.549,711.109 459.048,714.949 456.115,714.598C455.567,714.532 455.07,714.287 454.601,713.986Z" style="fill:rgb(26,57,102);fill-rule:nonzero;"/>
            </g>
            <g transform="matrix(1,0,0,1,-429.108,-5.19277)">
                <path d="M596.589,377.028C614.7,377.028 629.382,383.087 629.382,390.561C629.382,398.035 614.7,404.095 596.589,404.095C578.478,404.095 563.796,398.035 563.796,390.561C563.796,383.087 578.478,377.028 596.589,377.028Z" style="fill:rgb(251,210,207);fill-rule:nonzero;"/>
            </g>
            <g transform="matrix(1,0,0,1,-429.108,-5.19277)">
                <path d="M447.15,377.028C465.261,377.028 479.943,383.087 479.943,390.561C479.943,398.035 465.261,404.095 447.15,404.095C429.039,404.095 414.358,398.035 414.358,390.561C414.358,383.087 429.039,377.028 447.15,377.028Z" style="fill:rgb(251,210,207);fill-rule:nonzero;"/>
            </g>
            <g transform="matrix(1,0,0,1,-429.108,-5.19277)">
                <path d="M610.598,368.138C627.905,361.834 646.031,357.778 664.393,356.263C669.611,355.832 674.844,355.604 680.079,355.562C683.427,355.536 683.435,350.33 680.079,350.357C661.285,350.506 642.489,353.144 624.392,358.224C619.272,359.661 614.211,361.299 609.214,363.119C607.894,363.599 607.002,364.887 607.396,366.32C607.746,367.593 609.271,368.621 610.598,368.138Z" style="fill:rgb(26,57,102);fill-rule:nonzero;"/>
            </g>
            <g transform="matrix(1,0,0,1,-429.108,-5.19277)">
                <path d="M614.591,390.18C632.84,387.997 651.415,388.155 669.602,390.856C674.807,391.628 679.98,392.604 685.112,393.764C688.375,394.501 689.768,389.483 686.496,388.744C668.185,384.607 649.327,382.862 630.569,383.669C625.229,383.898 619.899,384.34 614.591,384.975C613.196,385.142 611.989,386.052 611.989,387.578C611.989,388.855 613.186,390.348 614.591,390.18Z" style="fill:rgb(26,57,102);fill-rule:nonzero;"/>
            </g>
            <g transform="matrix(1,0,0,1,-429.108,-5.19277)">
                <path d="M619.231,378.84C635.932,374.161 653.591,372.977 670.754,375.558C672.143,375.767 673.552,375.21 673.956,373.74C674.294,372.511 673.537,370.749 672.138,370.539C654.021,367.815 635.501,368.875 617.847,373.821C614.626,374.723 615.995,379.747 619.231,378.84Z" style="fill:rgb(26,57,102);fill-rule:nonzero;"/>
            </g>
            <g transform="matrix(1,0,0,1,-429.108,-5.19277)">
                <path d="M431.891,359.468C413.935,354.031 395.244,350.986 376.49,350.444C371.137,350.289 365.781,350.347 360.433,350.6C357.098,350.758 357.079,355.964 360.433,355.806C378.809,354.936 397.256,356.471 415.216,360.467C420.362,361.612 425.461,362.959 430.507,364.487C433.72,365.46 435.093,360.438 431.891,359.468Z" style="fill:rgb(26,57,102);fill-rule:nonzero;"/>
            </g>
            <g transform="matrix(1,0,0,1,-429.108,-5.19277)">
                <path d="M427.733,381.55C408.955,380.349 390.035,381.681 371.602,385.457C366.401,386.522 361.245,387.791 356.139,389.245C352.923,390.162 354.29,395.185 357.523,394.265C375.267,389.211 393.616,386.522 412.067,386.329C417.292,386.274 422.518,386.422 427.733,386.755C429.137,386.845 430.335,385.495 430.335,384.152C430.335,382.669 429.141,381.64 427.733,381.55Z" style="fill:rgb(26,57,102);fill-rule:nonzero;"/>
            </g>
            <g transform="matrix(1,0,0,1,-429.108,-5.19277)">
                <path d="M423.862,370.631C405.972,366.67 387.411,366.555 369.47,370.275C368.094,370.56 367.297,372.184 367.653,373.476C368.045,374.906 369.473,375.58 370.854,375.294C387.849,371.77 405.534,371.898 422.478,375.65C425.742,376.373 427.136,371.356 423.862,370.631Z" style="fill:rgb(26,57,102);fill-rule:nonzero;"/>
            </g>
            <g transform="matrix(1,0,0,1,-429.108,-5.19277)">
                <path d="M519.056,375.919C518.839,375.748 518.63,375.564 518.427,375.382C516.606,373.761 510.007,368.61 514.586,366.37C517.391,364.998 521.309,365.49 524.291,365.867C525.096,365.969 525.905,366.085 526.698,366.264C530.109,367.036 529.695,369.561 527.838,371.821C526.256,373.746 523.386,377.318 520.502,376.678C519.964,376.558 519.492,376.265 519.056,375.919Z" style="fill:rgb(26,57,102);fill-rule:nonzero;"/>
            </g>
            <g transform="matrix(1,0,0,1,-429.108,-5.19277)">
                <path d="M518.715,369.338L518.715,388.593C518.715,391.942 523.919,391.947 523.919,388.593L523.919,369.338C523.919,365.989 518.715,365.983 518.715,369.338Z" style="fill:rgb(26,57,102);fill-rule:nonzero;"/>
            </g>
            <g transform="matrix(1,0,0,1,-429.108,-5.19277)">
                <path d="M457.478,371.03C456.792,364.834 461.044,358.819 467.021,357.116C473.422,355.293 480.197,358.3 484.301,363.259C485.197,364.343 487.053,364.187 487.981,363.259C489.054,362.187 488.88,360.665 487.981,359.579C482.671,353.161 473.406,349.666 465.28,352.203C457.456,354.647 451.349,362.679 452.273,371.03C452.427,372.426 453.358,373.632 454.875,373.632C456.162,373.632 457.633,372.436 457.478,371.03Z" style="fill:rgb(26,57,102);fill-rule:nonzero;"/>
            </g>
            <g transform="matrix(1,0,0,1,-429.108,-5.19277)">
                <path d="M589.979,371.03C590.903,362.678 584.796,354.647 576.971,352.203C568.846,349.666 559.581,353.161 554.27,359.579C553.375,360.661 553.211,362.2 554.27,363.259C555.193,364.182 557.05,364.347 557.951,363.259C562.054,358.3 568.83,355.293 575.231,357.116C581.208,358.818 585.459,364.834 584.774,371.03C584.619,372.429 586.081,373.632 587.376,373.632C588.912,373.632 589.824,372.433 589.979,371.03Z" style="fill:rgb(26,57,102);fill-rule:nonzero;"/>
            </g>
        </g>
    </g>
</svg>
