<?xml version="1.0" encoding="UTF-8" standalone="no"?>
<!DOCTYPE svg PUBLIC "-//W3C//DTD SVG 1.1//EN" "http://www.w3.org/Graphics/SVG/1.1/DTD/svg11.dtd">
<svg width="100%" height="100%" viewBox="0 0 1720 2562" version="1.1" xmlns="http://www.w3.org/2000/svg" xmlns:xlink="http://www.w3.org/1999/xlink" xml:space="preserve" xmlns:serif="http://www.serif.com/" style="fill-rule:evenodd;clip-rule:evenodd;stroke-linejoin:round;stroke-miterlimit:2;">
    <g transform="matrix(1,0,0,1,-11491.6,-308.547)">
        <g transform="matrix(4.16667,0,0,4.16667,1617.99,-391.541)">
            <g transform="matrix(1,0,0,1,-346.138,-136.649)">
                <path d="M2739.66,684.549C2754.72,613.861 2767.1,554.039 2792.89,488.029C2797.98,475.015 2807.57,456.059 2820.86,451.756C2842.68,444.693 2853.96,468.012 2870.04,490.411C2901.78,489.009 2922.93,488.791 2948.48,488.791C2948.48,474.877 2940.05,479.985 2945.02,467.62C2949.98,455.254 2955.45,444.205 2968.77,443.74C2989.5,443.017 3015.35,478.47 3022.88,497.801C3052.53,573.918 3069.56,648.357 3076.28,729.768C2967.97,698.613 2848.7,679.325 2739.66,684.549Z" style="fill:white;fill-rule:nonzero;"/>
            </g>
            <g transform="matrix(1,0,0,1,-346.138,-136.649)">
                <path d="M2750.43,657.202C2753.1,637.965 2756.56,618.84 2760.81,599.889C2765.06,580.94 2770.1,562.167 2775.91,543.635C2778.81,534.37 2781.91,525.164 2785.2,516.027C2788.35,507.267 2791.56,498.495 2795.33,489.976C2798.98,481.711 2803.2,473.655 2808.56,466.356C2812.81,460.559 2818.92,453.742 2826.65,453.329C2835.04,452.88 2841.84,459.813 2847.29,465.297C2853.61,471.652 2859.29,478.614 2864.22,486.1C2865.46,487.986 2866.65,489.903 2867.8,491.846C2869.66,494.992 2874.58,492.135 2872.71,488.976C2867.9,480.856 2862.28,473.207 2855.97,466.195C2850.03,459.607 2843.35,452.44 2834.96,449.081C2816.34,441.625 2802.49,463.32 2795.26,477.035C2790.83,485.432 2787.29,494.266 2783.92,503.131C2780.35,512.545 2776.98,522.037 2773.82,531.598C2767.55,550.548 2762.09,569.765 2757.46,589.181C2752.81,608.683 2748.99,628.385 2746.03,648.215C2745.65,650.705 2745.3,653.197 2744.95,655.69C2744.74,657.209 2745.32,658.743 2746.94,659.187C2748.27,659.552 2750.22,658.732 2750.43,657.202Z" style="fill:rgb(26,57,102);fill-rule:nonzero;"/>
            </g>
            <g transform="matrix(1,0,0,1,-346.138,-136.649)">
                <path d="M3067.15,655.69C3064.4,635.83 3060.8,616.089 3056.36,596.536C3051.92,576.985 3046.64,557.623 3040.54,538.524C3037.5,529.017 3034.26,519.574 3030.82,510.206C3027.48,501.086 3024.03,491.969 3019.9,483.172C3015.93,474.738 3011.25,466.511 3005.24,459.349C2999.93,453.013 2992.39,447.149 2983.67,447.647C2974.35,448.178 2967.03,455.004 2960.79,461.276C2954.2,467.907 2948.27,475.222 2943.12,483.021C2941.83,484.974 2940.59,486.962 2939.4,488.976C2937.53,492.132 2942.44,494.995 2944.31,491.846C2948.87,484.132 2954.16,476.877 2960.16,470.215C2963.15,466.897 2966.29,463.688 2969.61,460.707C2972.58,458.051 2975.91,455.458 2979.73,454.166C2987.6,451.498 2994.55,456.022 2999.74,461.672C3005.69,468.159 3010.17,476.105 3014,483.979C3018.03,492.238 3021.31,500.834 3024.5,509.44C3027.88,518.544 3031.07,527.718 3034.06,536.954C3040.03,555.341 3045.23,573.975 3049.66,592.792C3054.11,611.696 3057.77,630.785 3060.64,649.993C3060.99,652.394 3061.34,654.797 3061.67,657.202C3061.88,658.724 3063.83,659.556 3065.17,659.187C3066.81,658.737 3067.37,657.217 3067.15,655.69Z" style="fill:rgb(26,57,102);fill-rule:nonzero;"/>
            </g>
            <g transform="matrix(1,0,0,1,-346.138,-136.649)">
                <path d="M2856.46,499.12C2870.23,496.174 2884.16,493.964 2898.22,493.076C2910.8,492.282 2923.42,492.558 2935.95,493.824C2943.11,494.547 2950.23,495.596 2957.32,496.852C2958.83,497.119 2960.38,496.444 2960.81,494.866C2961.19,493.492 2960.35,491.639 2958.83,491.369C2945.92,489.082 2932.88,487.473 2919.77,487.051C2906.37,486.621 2892.99,487.466 2879.71,489.262C2871.4,490.386 2863.15,491.884 2854.95,493.637C2851.37,494.402 2852.89,499.884 2856.46,499.12Z" style="fill:rgb(26,57,102);fill-rule:nonzero;"/>
            </g>
            <g transform="matrix(1,0,0,1,-346.138,-136.649)">
                <path d="M2731.61,653.894L3088.09,637.587C3091.83,637.416 3094.96,640.374 3095.02,644.12C3096.27,726.81 3102.26,809.427 3112.93,891.434C3114.31,902.03 3105.89,911.347 3095.21,911.033C2984.72,907.779 2873.86,905.443 2764.16,918.595C2755.59,919.622 2745.89,920.422 2739.36,914.787C2733.92,910.103 2732.46,902.405 2731.38,895.314C2720.34,823.179 2714.63,750.232 2716.02,669.895C2716.17,661.288 2723.01,654.287 2731.61,653.894Z" style="fill:rgb(242,107,96);fill-rule:nonzero;"/>
            </g>
            <g transform="matrix(1,0,0,1,-346.138,-136.649)">
                <path d="M2936.35,438.281C2938.61,427.486 2941.87,416.912 2946.08,406.717C2946.15,406.553 2946.52,405.64 2946.24,406.329C2945.9,407.142 2946.49,405.742 2946.49,405.73C2946.74,405.163 2946.98,404.598 2947.23,404.034C2947.79,402.764 2948.37,401.501 2948.96,400.244C2950.14,397.731 2951.38,395.245 2952.67,392.789C2955.26,387.877 2958.07,383.082 2961.1,378.427C2962.57,376.164 2964.09,373.934 2965.66,371.739C2966.42,370.673 2967.2,369.615 2967.98,368.565C2968.35,368.072 2968.73,367.581 2969.1,367.09C2970,365.896 2968.62,367.686 2969.2,366.959C2969.44,366.657 2969.67,366.351 2969.91,366.049C2973.35,361.692 2977,357.495 2980.83,353.477C2984.62,349.499 2988.59,345.68 2992.76,342.096C2993.79,341.217 2994.82,340.354 2995.87,339.51C2996.36,339.111 2996.86,338.717 2997.36,338.327C2996.45,339.035 2997.31,338.376 2997.54,338.202C2997.86,337.963 2998.18,337.726 2998.5,337.49C3000.79,335.801 3003.16,334.208 3005.62,332.75C3008.05,331.306 3010.55,330.016 3013.14,328.863C3013.36,328.762 3014.15,328.468 3013.07,328.889C3013.36,328.776 3013.64,328.655 3013.93,328.542C3014.58,328.287 3015.24,328.045 3015.9,327.814C3017.29,327.33 3018.69,326.901 3020.12,326.537C3021.32,326.23 3022.53,325.969 3023.75,325.756C3024.13,325.69 3024.52,325.636 3024.9,325.572C3025.75,325.43 3023.92,325.665 3024.77,325.592C3025.55,325.526 3026.32,325.433 3027.1,325.384C3028.24,325.313 3029.37,325.292 3030.5,325.332C3031.02,325.35 3031.53,325.38 3032.04,325.421C3032.36,325.447 3032.69,325.478 3033.01,325.513C3034.17,325.638 3033.03,325.332 3032.84,325.481C3033.01,325.351 3034.33,325.731 3034.56,325.778C3035.14,325.89 3035.71,326.017 3036.28,326.156C3037.41,326.435 3038.53,326.769 3039.64,327.154C3040.19,327.347 3040.73,327.565 3041.28,327.77C3042.01,328.042 3040.29,327.323 3041,327.649C3041.29,327.784 3041.59,327.912 3041.88,328.05C3042.93,328.544 3043.96,329.088 3044.96,329.679C3045.9,330.234 3046.81,330.832 3047.69,331.471C3047.86,331.592 3048.55,332.081 3047.88,331.6C3047.11,331.051 3048.11,331.796 3048.2,331.866C3048.68,332.268 3049.16,332.684 3049.62,333.114C3050.35,333.797 3051.06,334.515 3051.72,335.267C3051.92,335.5 3052.12,335.741 3052.32,335.977C3052.46,336.138 3052.95,336.804 3052.46,336.13C3051.89,335.357 3052.61,336.357 3052.68,336.449C3052.86,336.7 3053.03,336.956 3053.2,337.213C3053.78,338.087 3054.3,338.994 3054.77,339.931C3054.88,340.152 3054.98,340.376 3055.08,340.597C3055.56,341.57 3054.92,340.265 3054.95,340.255C3055,340.24 3055.53,341.846 3055.58,341.994C3055.92,343.068 3056.15,344.157 3056.36,345.262C3056.45,345.709 3056.27,346.086 3056.32,344.878C3056.31,345.115 3056.37,345.396 3056.39,345.638C3056.45,346.398 3056.48,347.16 3056.47,347.922C3056.46,348.599 3056.43,349.274 3056.37,349.948C3056.35,350.145 3056.25,351.111 3056.34,350.305C3056.45,349.369 3056.25,350.817 3056.24,350.874C3056,352.194 3055.66,353.495 3055.25,354.77C3055.06,355.341 3054.85,355.901 3054.64,356.465C3054.28,357.455 3054.63,356.545 3054.7,356.362C3054.56,356.714 3054.4,357.056 3054.24,357.399C3053.62,358.717 3052.93,360.002 3052.19,361.254C3051.56,362.324 3050.88,363.371 3050.18,364.396C3049.78,364.978 3049.37,365.553 3048.95,366.122C3048.72,366.439 3048.48,366.753 3048.24,367.068C3048.72,366.434 3048.43,366.825 3048.11,367.225C3046.35,369.445 3044.47,371.575 3042.55,373.655C3038.44,378.09 3034.19,382.402 3029.92,386.673C3021.22,395.358 3012.25,403.769 3002.99,411.845C2998.29,415.938 2993.52,419.946 2988.67,423.859C2986.32,425.761 2983.93,427.63 2981.55,429.496C2980.76,430.114 2982.58,428.704 2981.26,429.718C2980.99,429.929 2980.71,430.14 2980.44,430.35C2979.89,430.771 2979.34,431.191 2978.79,431.609C2977.48,432.603 2976.16,433.59 2974.84,434.569C2972.41,436.374 2969.96,438.152 2967.49,439.908C2969.41,443.181 2971.32,446.454 2973.23,449.727C2986.05,440.092 2999.06,430.519 3013.32,423.094C3014.89,422.28 3016.46,421.493 3018.06,420.737C3018.92,420.327 3019.79,419.926 3020.66,419.535C3021.1,419.34 3021.53,419.147 3021.97,418.957C3022.26,418.831 3022.56,418.705 3022.85,418.581C3022.22,418.846 3022.21,418.853 3022.81,418.604C3026.47,417.139 3030.17,415.793 3033.97,414.715C3037.61,413.683 3041.29,412.926 3045.01,412.32C3046.58,412.066 3043.79,412.452 3045.37,412.268C3045.84,412.214 3046.31,412.155 3046.78,412.105C3047.73,412.005 3048.67,411.921 3049.62,411.855C3051.61,411.716 3053.61,411.639 3055.61,411.675C3056.02,411.683 3059.74,411.924 3059.73,411.967C3059.72,412.011 3058.35,411.754 3059.73,411.98C3060.11,412.042 3060.49,412.109 3060.86,412.183C3061.74,412.353 3062.61,412.555 3063.47,412.791C3064.2,412.992 3064.92,413.217 3065.64,413.469C3065.99,413.593 3066.34,413.732 3066.69,413.862C3067.92,414.319 3065.53,413.292 3066.7,413.873C3067.35,414.2 3068.01,414.511 3068.65,414.876C3068.96,415.055 3069.27,415.242 3069.57,415.436C3069.82,415.598 3070.46,416.227 3070.74,416.245C3070.54,416.093 3070.34,415.94 3070.14,415.788C3070.32,415.934 3070.5,416.084 3070.67,416.237C3070.89,416.427 3071.1,416.624 3071.31,416.825C3071.69,417.193 3072.14,417.975 3072.58,418.219C3072.42,418.016 3072.26,417.813 3072.11,417.61C3072.24,417.794 3072.37,417.981 3072.49,418.171C3072.68,418.457 3072.86,418.75 3073.02,419.049C3073.13,419.241 3073.32,419.851 3073.49,419.97C3073.15,419.14 3073.09,419.009 3073.31,419.578C3073.39,419.799 3073.47,420.022 3073.53,420.246C3073.64,420.589 3073.73,420.936 3073.81,421.287C3073.83,421.406 3073.86,421.525 3073.88,421.643C3073.99,422.278 3073.98,422.161 3073.85,421.291C3074.02,421.324 3073.91,423.337 3073.9,423.55C3073.89,423.673 3073.88,423.796 3073.87,423.919C3073.81,424.548 3073.82,424.408 3073.93,423.5C3073.84,423.55 3073.73,424.446 3073.7,424.572C3073.61,424.926 3073.51,425.277 3073.39,425.623C3073.31,425.854 3073.23,426.084 3073.14,426.311C3073.48,425.521 3073.52,425.407 3073.27,425.967C3072.92,426.631 3072.58,427.293 3072.18,427.928C3072.04,428.142 3071.9,428.353 3071.75,428.561C3071.68,428.665 3071.61,428.77 3071.53,428.874C3071.17,429.365 3071.23,429.288 3071.72,428.645C3071.52,429.241 3070.59,429.966 3070.15,430.416C3069.5,431.094 3068.81,431.739 3068.09,432.355C3067.78,432.623 3067.46,432.88 3067.14,433.143C3066.06,434.044 3068.14,432.452 3066.98,433.263C3066.29,433.741 3065.62,434.23 3064.92,434.686C3063.4,435.668 3061.83,436.563 3060.22,437.38C3058.79,438.106 3057.33,438.753 3055.86,439.385C3056.97,438.905 3055.38,439.582 3055.28,439.623C3054.8,439.823 3054.31,440.02 3053.83,440.216C3052.7,440.672 3051.56,441.117 3050.41,441.549C3046.33,443.094 3042.2,444.488 3038.01,445.728C3033.5,447.068 3028.93,448.228 3024.32,449.207C3021.93,449.715 3019.52,450.173 3017.12,450.582C3015.91,450.787 3014.71,450.98 3013.5,451.16C3012.98,451.237 3012.46,451.309 3011.94,451.384C3011.27,451.478 3011.25,451.48 3011.9,451.392C3011.55,451.438 3011.2,451.482 3010.86,451.525C3001.33,452.718 2991.72,453.129 2982.12,452.779C2979.15,452.671 2976.3,455.472 2976.44,458.465C2976.58,461.638 2978.93,464.034 2982.12,464.15C3000.48,464.819 3019.01,462.687 3036.75,457.904C3045.8,455.465 3054.65,452.296 3063.22,448.499C3070.23,445.392 3076.83,440.888 3081.35,434.613C3085.97,428.203 3086.73,419.168 3082.31,412.432C3078.21,406.171 3071.08,402.62 3063.88,401.218C3055.8,399.642 3047.48,400.324 3039.43,401.777C3031.01,403.296 3022.94,406.145 3015.14,409.62C2999.81,416.453 2985.95,426.173 2972.52,436.147C2970.84,437.395 2969.17,438.651 2967.49,439.908C2965.12,441.689 2963.66,444.901 2965.45,447.687C2967,450.086 2970.64,451.571 2973.23,449.727C2994.43,434.641 3014.34,417.793 3032.97,399.638C3037.55,395.167 3042.07,390.619 3046.5,386C3050.89,381.435 3055.16,376.791 3058.91,371.671C3065.82,362.214 3070.39,349.861 3066.31,338.269C3062.63,327.819 3053.9,320.484 3043.76,316.591C3033.19,312.535 3021.32,313.497 3010.91,317.577C2999.36,322.106 2989.4,329.571 2980.36,337.963C2971.69,346.013 2963.9,354.954 2956.93,364.5C2943.24,383.226 2933.08,404.688 2927.27,427.148C2926.58,429.836 2925.95,432.541 2925.38,435.258C2924.77,438.161 2926.23,441.541 2929.35,442.252C2932.2,442.901 2935.69,441.394 2936.35,438.281Z" style="fill:rgb(26,57,102);fill-rule:nonzero;"/>
            </g>
            <g transform="matrix(1,0,0,1,-346.138,-136.649)">
                <path d="M2898.32,448.478C2889.03,445.952 2879.86,442.964 2870.86,439.504C2868.66,438.654 2866.46,437.777 2864.28,436.873C2864.01,436.76 2862.5,436.127 2863.45,436.532C2862.97,436.327 2862.49,436.12 2862,435.913C2860.8,435.393 2859.59,434.865 2858.4,434.329C2854.08,432.398 2849.81,430.358 2845.6,428.211C2837.81,424.245 2830.14,419.983 2822.99,414.938C2822.18,414.364 2821.37,413.779 2820.58,413.184C2820.33,413.001 2820.09,412.817 2819.84,412.632C2819.76,412.571 2819.16,412.096 2819.69,412.518C2820.23,412.94 2819.63,412.463 2819.55,412.399C2819.31,412.209 2819.07,412.02 2818.83,411.829C2817.18,410.495 2815.56,409.107 2814.01,407.656C2812.52,406.266 2811.08,404.819 2809.71,403.312C2809.05,402.588 2808.41,401.851 2807.78,401.099C2807.44,400.695 2807.12,400.279 2806.78,399.874C2806.37,399.38 2806.94,400.087 2806.98,400.134C2806.75,399.834 2806.53,399.534 2806.3,399.231C2805.09,397.589 2803.97,395.886 2802.94,394.126C2802.48,393.346 2802.04,392.555 2801.64,391.747C2801.43,391.341 2801.25,390.929 2801.05,390.518C2800.98,390.378 2800.67,389.782 2801.02,390.479C2801.43,391.282 2800.9,390.159 2800.86,390.065C2800.22,388.403 2799.7,386.691 2799.32,384.949C2799.22,384.499 2799.13,384.047 2799.05,383.593C2799.02,383.4 2798.99,383.204 2798.96,383.011C2798.84,382.369 2799.03,383.552 2799.03,383.552C2799.09,382.686 2798.86,381.73 2798.84,380.85C2798.82,379.96 2798.88,379.084 2798.94,378.197C2799,377.116 2798.72,379.285 2798.92,378.23C2799.02,377.748 2799.1,377.266 2799.22,376.788C2799.31,376.435 2799.4,376.083 2799.51,375.735C2799.58,375.505 2799.67,375.279 2799.74,375.048C2799.86,374.651 2800.07,374.72 2799.72,375.055C2799.37,375.391 2799.54,375.424 2799.72,375.072C2799.83,374.858 2799.92,374.64 2800.04,374.427C2800.23,374.055 2800.44,373.692 2800.67,373.337C2800.76,373.185 2800.87,373.039 2800.97,372.886C2801.53,371.978 2800.78,373.21 2800.73,373.165C2800.71,373.145 2801.39,372.403 2801.45,372.337C2801.75,372.021 2802.07,371.719 2802.39,371.431C2802.54,371.306 2802.68,371.184 2802.83,371.063C2802.22,371.564 2802.57,371.277 2803.01,370.993C2803.4,370.741 2803.81,370.508 2804.22,370.292C2804.43,370.184 2804.65,370.093 2804.85,369.98C2803.92,370.496 2804.51,370.109 2804.79,370.01C2805.84,369.648 2806.89,369.335 2807.97,369.12C2808.2,369.074 2808.44,369.045 2808.67,368.994C2809.51,368.808 2807.71,369.061 2808.57,369.005C2809.04,368.974 2809.51,368.917 2809.98,368.892C2811.14,368.829 2812.3,368.834 2813.46,368.902C2813.92,368.93 2814.37,368.974 2814.83,369.013C2815.89,369.103 2813.89,368.841 2815.35,369.085C2816.4,369.259 2817.44,369.483 2818.47,369.753C2819.43,370.003 2820.37,370.292 2821.31,370.615C2821.81,370.79 2822.32,370.976 2822.81,371.17C2823.03,371.253 2823.24,371.342 2823.46,371.425C2823,371.251 2822.81,371.137 2823.37,371.394C2825.35,372.301 2827.28,373.298 2829.15,374.421C2830.98,375.52 2832.76,376.712 2834.48,377.968C2834.93,378.296 2835.38,378.631 2835.82,378.965C2836.69,379.616 2835.34,378.569 2836.19,379.247C2837.06,379.943 2837.93,380.644 2838.78,381.361C2842.25,384.272 2845.57,387.369 2848.84,390.492C2862.71,403.697 2875.6,417.925 2887.38,433.021C2887.54,433.227 2887.7,433.433 2887.86,433.639C2887.89,433.676 2888.42,434.358 2888.06,433.889C2887.66,433.374 2888.33,434.236 2888.41,434.348C2888.57,434.555 2888.73,434.763 2888.89,434.97C2889.63,435.938 2890.36,436.91 2891.09,437.885C2892.87,440.256 2896.09,441.72 2898.87,439.925C2901.22,438.413 2902.82,434.69 2900.91,432.146C2888.65,415.809 2875.25,400.365 2860.64,386.078C2847.35,373.074 2831.55,357.489 2811.61,357.477C2806.47,357.473 2800.97,358.586 2796.69,361.565C2792.76,364.302 2789.98,368.139 2788.55,372.712C2786,380.867 2788.09,390.048 2791.82,397.486C2795.83,405.484 2802.08,412.502 2808.86,418.268C2815.82,424.197 2823.53,429.168 2831.51,433.599C2849.38,443.508 2868.41,451.481 2887.97,457.352C2890.41,458.082 2892.85,458.776 2895.3,459.442C2898.17,460.221 2901.61,458.472 2902.29,455.471C2902.98,452.475 2901.39,449.312 2898.32,448.478Z" style="fill:rgb(26,57,102);fill-rule:nonzero;"/>
            </g>
            <g transform="matrix(1,0,0,1,-346.138,-136.649)">
                <path d="M2723.94,448.442C2722.52,457.563 2728.49,466.2 2737.53,468.056L3089.52,540.332C3096.38,541.741 3103.75,543.108 3110.2,540.389C3120.42,536.084 3124.12,523.547 3125.02,512.493C3125.67,504.427 3125.64,495.872 3128.06,488.317C3129.48,483.875 3126.82,479.155 3122.29,478.052C2994.62,446.98 2873.28,425.095 2743.32,407.957C2738.65,407.34 2734.07,409.877 2732.24,414.223C2727.79,424.778 2725.89,435.981 2723.94,448.442Z" style="fill:rgb(242,107,96);fill-rule:nonzero;"/>
            </g>
            <g transform="matrix(1,0,0,1,-346.138,-136.649)">
                <path d="M2919.79,450.445C2919.37,449.915 2918.95,449.385 2918.53,448.853C2918.32,448.587 2918.11,448.321 2917.9,448.054C2917.94,448.102 2916.92,446.789 2917.42,447.427C2917.83,447.957 2917.18,447.116 2917.09,446.998C2916.88,446.729 2916.67,446.46 2916.47,446.191C2916.01,445.586 2915.55,444.979 2915.09,444.37C2913.37,442.071 2911.67,439.749 2910.01,437.404C2906.68,432.715 2903.48,427.938 2900.4,423.079C2894.21,413.289 2888.54,403.169 2883.42,392.774C2880.89,387.615 2878.48,382.388 2876.22,377.101C2876.16,376.957 2875.75,375.978 2876.01,376.612C2876.28,377.246 2875.87,376.266 2875.81,376.122C2875.55,375.498 2875.29,374.873 2875.03,374.247C2874.44,372.81 2873.86,371.369 2873.3,369.92C2872.22,367.141 2871.21,364.337 2870.3,361.498C2869.39,358.664 2868.58,355.795 2867.93,352.89C2867.61,351.45 2867.32,350.002 2867.08,348.545C2867.03,348.204 2866.98,347.862 2866.92,347.521C2866.89,347.304 2866.79,346.402 2866.91,347.494C2866.82,346.726 2866.74,345.958 2866.67,345.187C2866.41,342.293 2866.37,339.38 2866.59,336.483C2866.64,335.801 2866.72,335.125 2866.79,334.445C2866.89,333.455 2866.53,335.79 2866.83,334.178C2866.9,333.841 2866.95,333.502 2867.01,333.165C2867.27,331.771 2867.59,330.388 2867.99,329.028C2868.16,328.437 2868.35,327.851 2868.56,327.27C2868.68,326.931 2869.49,325.081 2868.92,326.265C2869.49,325.088 2870.05,323.925 2870.75,322.815C2870.9,322.58 2872.16,320.852 2871.31,321.914C2871.69,321.439 2872.09,320.978 2872.51,320.537C2872.93,320.094 2873.37,319.671 2873.83,319.27C2873.91,319.198 2874.45,318.718 2874.47,318.735C2874.4,318.69 2873.49,319.443 2874.5,318.767C2875.01,318.421 2875.54,318.101 2876.09,317.806C2876.44,317.614 2877.32,317.39 2877.57,317.087C2877.47,317.209 2876.36,317.523 2877.35,317.202C2877.62,317.117 2877.87,317.018 2878.13,316.934C2878.72,316.743 2879.32,316.581 2879.93,316.441C2880.45,316.321 2881.28,316.332 2881.76,316.095C2881.61,316.168 2880.44,316.215 2881.5,316.148C2881.77,316.131 2882.05,316.1 2882.33,316.083C2883.59,316.006 2884.86,316.025 2886.12,316.13C2886.26,316.142 2886.9,316.258 2886.96,316.214C2886.89,316.267 2885.58,315.98 2886.71,316.185C2887.27,316.286 2887.83,316.383 2888.38,316.507C2889.63,316.784 2890.85,317.147 2892.05,317.589C2892.15,317.627 2892.84,317.873 2892.84,317.895C2892.84,317.919 2891.56,317.3 2892.64,317.824C2893.16,318.075 2893.67,318.319 2894.18,318.588C2895.37,319.224 2896.53,319.937 2897.64,320.71C2897.93,320.918 2899.29,321.98 2898.29,321.161C2898.75,321.541 2899.22,321.916 2899.67,322.309C2900.7,323.195 2901.68,324.133 2902.61,325.109C2903.45,325.981 2904.26,326.887 2905.03,327.816C2905.42,328.282 2905.8,328.758 2906.18,329.233C2905.46,328.326 2905.98,328.973 2906.12,329.17C2906.39,329.538 2906.66,329.904 2906.93,330.276C2910,334.553 2912.6,339.167 2914.93,343.883C2915.48,345.009 2916.02,346.144 2916.54,347.287C2916.8,347.858 2917.05,348.431 2917.3,349.005C2917.43,349.293 2917.55,349.58 2917.67,349.868C2917.14,348.626 2917.76,350.088 2917.82,350.244C2918.82,352.703 2919.74,355.196 2920.58,357.715C2922.26,362.755 2923.62,367.9 2924.69,373.104C2925.23,375.716 2925.7,378.343 2926.09,380.981C2926.18,381.603 2926.29,382.225 2926.36,382.849C2926.2,381.496 2926.41,383.309 2926.46,383.68C2926.63,385.089 2926.78,386.5 2926.92,387.913C2927.95,398.694 2927.91,409.564 2927.09,420.357C2926.88,423.077 2926.62,425.792 2926.32,428.502C2926.17,429.778 2926.02,431.053 2925.85,432.326C2925.81,432.645 2925.77,432.963 2925.73,433.282C2925.9,432.029 2925.75,433.126 2925.7,433.44C2925.6,434.155 2925.5,434.87 2925.4,435.584C2924.59,440.968 2923.62,446.325 2922.49,451.65C2921.93,454.295 2921.34,456.931 2920.71,459.56C2920.01,462.447 2921.61,465.857 2924.68,466.554C2927.6,467.219 2930.93,465.677 2931.67,462.583C2937.06,440.096 2940.15,416.735 2938.73,393.59C2937.34,370.794 2931.56,347.802 2919.29,328.331C2913.16,318.592 2904.79,309.522 2893.46,306.083C2887.96,304.412 2881.88,304.177 2876.3,305.624C2870.25,307.193 2865.3,310.895 2861.69,315.937C2858,321.105 2856.33,327.472 2855.51,333.682C2854.66,340.165 2855.19,346.696 2856.39,353.104C2858.69,365.459 2863.82,377.248 2868.96,388.646C2878.86,410.616 2891.22,431.478 2905.73,450.718C2907.7,453.332 2909.71,455.921 2911.75,458.485C2913.61,460.824 2917.87,460.572 2919.79,458.485C2922.07,456.003 2921.77,452.94 2919.79,450.445Z" style="fill:rgb(26,57,102);fill-rule:nonzero;"/>
            </g>
            <g transform="matrix(1,0,0,1,-346.138,-136.649)">
                <path d="M3007.98,780.613C3004.69,785.3 3007.5,792.908 3013.05,794.332C3018.59,795.756 3024.72,790.445 3024.1,784.755C3023.48,779.064 3013.7,772.447 3007.98,780.613Z" style="fill:white;fill-rule:nonzero;"/>
            </g>
            <g transform="matrix(1,0,0,1,-346.138,-136.649)">
                <path d="M3073.75,775.013C3070.46,779.7 3073.27,787.308 3078.82,788.733C3084.36,790.157 3090.49,784.845 3089.87,779.155C3089.25,773.465 3079.47,766.847 3073.75,775.013Z" style="fill:white;fill-rule:nonzero;"/>
            </g>
            <g transform="matrix(1,0,0,1,-346.138,-136.649)">
                <path d="M2939.31,786.459C2936.02,791.146 2938.83,798.755 2944.38,800.179C2949.92,801.603 2956.05,796.292 2955.43,790.601C2954.81,784.911 2945.03,778.294 2939.31,786.459Z" style="fill:white;fill-rule:nonzero;"/>
            </g>
            <g transform="matrix(1,0,0,1,-346.138,-136.649)">
                <path d="M2865.3,792.76C2862.01,797.447 2864.82,805.056 2870.37,806.48C2875.91,807.904 2882.04,802.593 2881.42,796.903C2880.8,791.212 2871.02,784.595 2865.3,792.76Z" style="fill:white;fill-rule:nonzero;"/>
            </g>
            <g transform="matrix(1,0,0,1,-346.138,-136.649)">
                <path d="M2795.12,798.736C2791.83,803.423 2794.64,811.031 2800.19,812.455C2805.73,813.879 2811.86,808.568 2811.24,802.878C2810.62,797.187 2800.84,790.57 2795.12,798.736Z" style="fill:white;fill-rule:nonzero;"/>
            </g>
            <g transform="matrix(1,0,0,1,-346.138,-136.649)">
                <path d="M2737.48,804.559C2734.19,809.246 2737,816.855 2742.55,818.279C2748.09,819.703 2754.22,814.392 2753.6,808.702C2752.98,803.011 2743.2,796.394 2737.48,804.559Z" style="fill:white;fill-rule:nonzero;"/>
            </g>
            <g transform="matrix(1,0,0,1,-346.138,-136.649)">
                <path d="M2739.84,860.409C2744.86,856.258 2749.87,852.106 2754.89,847.955C2758.34,845.095 2761.8,842.234 2765.25,839.373C2766.34,838.476 2767.42,837.578 2768.51,836.681C2768.8,836.439 2769.08,836.186 2769.38,835.953C2769.46,835.897 2769.52,835.83 2769.6,835.776C2769.61,835.765 2769.62,835.752 2769.64,835.742C2769.19,836.056 2769.86,835.627 2769.93,835.602C2771.96,834.89 2774.26,836.734 2775.99,837.629C2779.66,839.524 2783.32,841.418 2786.99,843.313C2793.8,846.835 2800.6,850.395 2807.43,853.878C2811.1,855.751 2814.66,855.356 2817.8,852.671C2820.24,850.589 2822.65,848.47 2825.07,846.37C2828.69,843.231 2832.31,840.092 2835.93,836.954C2838.08,835.088 2840.16,832.969 2842.47,831.287C2844.38,829.885 2846.27,831.599 2847.92,832.616C2851.41,834.76 2854.9,836.904 2858.39,839.048C2862.26,841.428 2866.13,843.807 2870,846.187C2872.05,847.449 2874.14,849.067 2876.42,849.923C2879.38,851.04 2882.48,850.211 2884.83,848.205C2885.53,847.605 2886.21,846.973 2886.9,846.357C2890.02,843.577 2893.13,840.797 2896.25,838.017C2899.53,835.096 2902.8,832.174 2906.08,829.252C2907.54,827.952 2909.39,825.446 2911.6,826.262C2913.66,827.02 2915.64,828.31 2917.59,829.298C2921.59,831.322 2925.58,833.346 2929.57,835.37C2935.75,838.501 2941.88,841.765 2948.12,844.77C2950.8,846.065 2953.98,846.171 2956.53,844.44C2957.29,843.924 2957.97,843.277 2958.66,842.676C2961.46,840.236 2964.27,837.796 2967.07,835.356C2970.59,832.291 2974.11,829.226 2977.63,826.16C2979.38,824.637 2981.11,822.683 2983.07,821.42C2983.41,821.2 2983.83,821.018 2984.24,820.97C2984.46,820.944 2985.69,821.187 2985.26,821.042C2985.45,821.104 2985.63,821.206 2985.8,821.284C2986.73,821.684 2987.65,822.107 2988.57,822.518C2992.09,824.084 2995.6,825.65 2999.12,827.216C3007.15,830.797 3015.19,834.378 3023.22,837.96C3025.18,838.834 3027.38,840.118 3029.51,840.462C3033.68,841.132 3036.3,838.479 3039.09,835.992C3045.5,830.267 3051.91,824.543 3058.32,818.819C3059.86,817.446 3061.43,815.285 3063.71,816.424C3065.9,817.516 3067.97,818.933 3070.08,820.171C3077.78,824.709 3085.48,829.246 3093.19,833.784C3094.79,834.726 3096.39,835.668 3097.99,836.611C3101.15,838.471 3104.01,833.559 3100.86,831.702C3095.23,828.389 3089.61,825.077 3083.99,821.764C3078.18,818.344 3072.45,814.686 3066.52,811.481C3063.3,809.739 3059.66,810.146 3056.88,812.504C3056.39,812.912 3055.93,813.348 3055.46,813.769C3052.51,816.403 3049.56,819.037 3046.61,821.671C3043.21,824.704 3039.81,827.737 3036.41,830.77C3034.85,832.168 3032.78,834.93 3030.48,834.895C3030.18,834.89 3029.5,834.572 3028.82,834.267C3027.66,833.752 3026.51,833.236 3025.35,832.721C3021.52,831.013 3017.69,829.305 3013.85,827.598C3006.15,824.162 2998.44,820.726 2990.73,817.29C2987.56,815.88 2984.52,814.446 2981.01,816.089C2978.68,817.183 2976.61,819.52 2974.7,821.186C2968.24,826.813 2961.78,832.44 2955.32,838.068C2953.88,839.319 2952.72,840.654 2950.66,839.697C2948.07,838.49 2945.54,837.101 2942.99,835.807C2935.01,831.763 2927.03,827.719 2919.06,823.676C2917.06,822.663 2914.94,821.274 2912.76,820.663C2908.43,819.451 2905.5,822.165 2902.59,824.756C2896.19,830.465 2889.79,836.176 2883.39,841.885C2881.79,843.312 2880.15,845.568 2877.8,844.311C2875.42,843.036 2873.15,841.453 2870.85,840.038C2863.74,835.669 2856.64,831.301 2849.53,826.932C2848.61,826.363 2847.71,825.769 2846.67,825.424C2843.75,824.462 2840.84,825.277 2838.54,827.189C2836.37,828.987 2834.28,830.88 2832.15,832.723C2826.06,838.005 2820.06,843.412 2813.87,848.579C2812.22,849.951 2810.87,849.267 2809.23,848.418C2806.03,846.761 2802.82,845.104 2799.61,843.446C2792.07,839.55 2784.53,835.653 2777,831.756C2776.31,831.399 2775.62,831.022 2774.92,830.684C2772.08,829.309 2768.81,829.353 2766.21,831.266C2764.41,832.585 2762.74,834.104 2761.03,835.523C2754.16,841.208 2747.3,846.892 2740.43,852.576C2738.89,853.847 2737.36,855.118 2735.82,856.389C2734.64,857.369 2734.81,859.395 2735.82,860.409C2736.99,861.58 2738.66,861.392 2739.84,860.409Z" style="fill:white;fill-rule:nonzero;"/>
            </g>
            <g transform="matrix(1,0,0,1,-346.138,-136.649)">
                <path d="M2731.48,767.976C2736.49,763.824 2741.51,759.673 2746.52,755.521C2749.98,752.661 2753.43,749.8 2756.89,746.94C2757.97,746.042 2759.05,745.145 2760.14,744.247C2760.43,744.005 2760.72,743.752 2761.02,743.52C2761.09,743.463 2761.16,743.396 2761.23,743.342C2761.25,743.332 2761.26,743.318 2761.27,743.308C2760.82,743.623 2761.49,743.193 2761.57,743.168C2763.59,742.456 2765.89,744.3 2767.62,745.195C2771.29,747.09 2774.96,748.985 2778.62,750.879C2785.43,754.401 2792.23,757.962 2799.06,761.444C2802.74,763.317 2806.29,762.922 2809.44,760.237C2811.87,758.155 2814.28,756.036 2816.7,753.936C2820.32,750.797 2823.94,747.659 2827.56,744.52C2829.71,742.655 2831.8,740.535 2834.1,738.853C2836.02,737.452 2837.9,739.166 2839.55,740.182C2843.04,742.326 2846.53,744.47 2850.02,746.614C2853.89,748.994 2857.76,751.373 2861.63,753.753C2863.68,755.015 2865.78,756.633 2868.05,757.489C2871.02,758.607 2874.11,757.778 2876.46,755.772C2877.16,755.171 2877.84,754.539 2878.53,753.923C2881.65,751.143 2884.77,748.364 2887.88,745.584C2891.16,742.662 2894.43,739.74 2897.71,736.819C2899.17,735.519 2901.02,733.012 2903.24,733.829C2905.29,734.586 2907.28,735.876 2909.22,736.864C2913.22,738.888 2917.21,740.912 2921.2,742.936C2927.38,746.068 2933.51,749.331 2939.75,752.337C2942.44,753.631 2945.61,753.737 2948.16,752.006C2948.92,751.491 2949.6,750.843 2950.29,750.242C2953.1,747.802 2955.9,745.362 2958.7,742.922C2962.22,739.857 2965.74,736.792 2969.26,733.727C2971.01,732.203 2972.75,730.249 2974.7,728.986C2975.04,728.766 2975.46,728.584 2975.87,728.536C2976.09,728.51 2977.33,728.754 2976.89,728.608C2977.08,728.671 2977.26,728.773 2977.44,728.85C2978.37,729.25 2979.28,729.673 2980.21,730.085C2983.72,731.651 2987.23,733.217 2990.75,734.782C2998.78,738.364 3006.82,741.945 3014.85,745.526C3016.82,746.401 3019.01,747.684 3021.15,748.028C3025.31,748.698 3027.93,746.045 3030.72,743.558C3037.13,737.834 3043.54,732.11 3049.96,726.386C3051.5,725.012 3053.07,722.851 3055.35,723.99C3057.53,725.082 3059.61,726.499 3061.71,727.738C3069.41,732.275 3077.12,736.813 3084.82,741.35C3086.42,742.292 3088.02,743.235 3089.62,744.177C3092.78,746.038 3095.65,741.125 3092.49,739.268C3086.87,735.955 3081.24,732.643 3075.62,729.33C3069.81,725.91 3064.09,722.252 3058.16,719.047C3054.94,717.305 3051.29,717.712 3048.51,720.07C3048.03,720.478 3047.56,720.914 3047.09,721.335C3044.14,723.969 3041.19,726.603 3038.24,729.237C3034.84,732.27 3031.44,735.303 3028.04,738.336C3026.48,739.734 3024.41,742.496 3022.12,742.461C3021.81,742.456 3021.14,742.138 3020.45,741.833C3019.3,741.318 3018.14,740.803 3016.98,740.287C3013.15,738.579 3009.32,736.872 3005.49,735.164C2997.78,731.728 2990.07,728.292 2982.36,724.856C2979.2,723.446 2976.15,722.012 2972.65,723.655C2970.31,724.749 2968.25,727.086 2966.33,728.752C2959.87,734.379 2953.41,740.007 2946.95,745.634C2945.51,746.885 2944.35,748.22 2942.29,747.264C2939.7,746.056 2937.17,744.667 2934.62,743.373C2926.64,739.329 2918.67,735.285 2910.69,731.242C2908.69,730.229 2906.57,728.84 2904.39,728.229C2900.07,727.017 2897.13,729.731 2894.22,732.322C2887.82,738.032 2881.42,743.742 2875.02,749.452C2873.42,750.878 2871.78,753.134 2869.44,751.877C2867.05,750.603 2864.79,749.02 2862.48,747.605C2855.38,743.236 2848.27,738.867 2841.16,734.498C2840.24,733.929 2839.34,733.335 2838.3,732.99C2835.38,732.028 2832.47,732.843 2830.17,734.755C2828,736.553 2825.91,738.446 2823.79,740.289C2817.69,745.571 2811.69,750.978 2805.5,756.145C2803.85,757.518 2802.51,756.833 2800.86,755.984C2797.66,754.327 2794.45,752.67 2791.25,751.013C2783.71,747.116 2776.17,743.219 2768.63,739.322C2767.94,738.965 2767.25,738.588 2766.56,738.251C2763.71,736.875 2760.44,736.919 2757.84,738.832C2756.04,740.152 2754.37,741.67 2752.66,743.09C2745.79,748.774 2738.93,754.458 2732.06,760.142C2730.53,761.413 2728.99,762.684 2727.46,763.955C2726.27,764.935 2726.44,766.962 2727.46,767.976C2728.63,769.146 2730.29,768.958 2731.48,767.976Z" style="fill:white;fill-rule:nonzero;"/>
            </g>
            <g transform="matrix(1,0,0,1,-346.138,-136.649)">
                <path d="M2890.76,583.908C2895.83,585.491 2901.76,584.644 2906.06,581.471C2910.47,578.218 2913.14,573.163 2913.31,567.678C2913.36,566.19 2911.97,564.768 2910.47,564.835C2908.89,564.906 2907.68,566.084 2907.63,567.678C2907.62,567.972 2907.6,568.263 2907.58,568.556C2907.56,569.053 2907.6,568.529 2907.56,568.819C2907.49,569.302 2907.38,569.78 2907.26,570.252C2907.12,570.772 2906.95,571.282 2906.76,571.785C2906.6,572.212 2906.76,571.808 2906.64,572.05C2906.54,572.271 2906.43,572.491 2906.32,572.707C2906.09,573.14 2905.84,573.561 2905.57,573.969C2905.41,574.212 2905.24,574.457 2905.06,574.688C2905.28,574.401 2904.94,574.822 2904.86,574.911C2904.54,575.281 2904.21,575.634 2903.85,575.969C2903.67,576.137 2903.49,576.296 2903.3,576.458C2902.67,577.028 2903.66,576.25 2902.95,576.734C2901.17,577.963 2899.9,578.474 2897.72,578.887C2897.45,578.94 2897.92,578.884 2897.44,578.93C2897.14,578.959 2896.84,578.982 2896.54,578.995C2896.04,579.017 2895.54,579.013 2895.05,578.983C2894.75,578.965 2894.45,578.943 2894.15,578.902C2894.46,578.946 2894.15,578.895 2894.02,578.868C2893.43,578.747 2892.85,578.606 2892.28,578.426C2890.86,577.983 2889.11,578.949 2888.78,580.411C2888.43,581.956 2889.24,583.434 2890.76,583.908Z" style="fill:rgb(26,57,102);fill-rule:nonzero;"/>
            </g>
            <g transform="matrix(1,0,0,1,-346.138,-136.649)">
                <path d="M2928.67,578.426C2928.14,578.59 2927.61,578.732 2927.07,578.839C2927,578.853 2926.37,578.963 2926.79,578.902C2926.55,578.937 2926.3,578.955 2926.05,578.973C2925.5,579.011 2924.95,579.018 2924.4,578.995C2924.15,578.985 2923.9,578.967 2923.65,578.944C2923.51,578.931 2922.98,578.848 2923.37,578.913C2922.33,578.741 2921.31,578.47 2920.34,578.08C2920.15,578.009 2920.15,578.007 2920.32,578.076C2920.23,578.033 2920.14,577.991 2920.05,577.949C2919.83,577.834 2919.61,577.727 2919.39,577.607C2918.9,577.343 2918.44,577.047 2917.99,576.734C2917.63,576.486 2917.95,576.717 2917.75,576.552C2917.56,576.395 2917.38,576.236 2917.2,576.07C2916.84,575.738 2916.5,575.389 2916.18,575.022C2916.18,575.031 2915.62,574.354 2915.88,574.688C2915.73,574.496 2915.59,574.293 2915.46,574.09C2915.18,573.685 2914.93,573.267 2914.7,572.836C2914.58,572.621 2914.48,572.4 2914.36,572.183C2913.96,571.409 2914.49,572.602 2914.18,571.785C2914.01,571.328 2913.85,570.865 2913.72,570.394C2913.59,569.922 2913.49,569.445 2913.41,568.964C2913.25,568.072 2913.42,569.46 2913.36,568.556C2913.34,568.264 2913.32,567.971 2913.31,567.678C2913.27,566.193 2912.04,564.765 2910.47,564.835C2908.97,564.902 2907.58,566.086 2907.63,567.678C2907.8,573.156 2910.47,578.228 2914.88,581.471C2919.19,584.638 2925.1,585.493 2930.18,583.908C2931.64,583.451 2932.58,581.928 2932.16,580.411C2931.77,578.966 2930.14,577.967 2928.67,578.426Z" style="fill:rgb(26,57,102);fill-rule:nonzero;"/>
            </g>
            <g transform="matrix(1,0,0,1,-346.138,-136.649)">
                <path d="M2962.58,541.952C2969.02,541.952 2974.24,547.171 2974.24,553.608C2974.24,560.045 2969.02,565.263 2962.58,565.263C2956.15,565.263 2950.93,560.045 2950.93,553.608C2950.93,547.171 2956.15,541.952 2962.58,541.952Z" style="fill:rgb(26,57,102);fill-rule:nonzero;"/>
            </g>
            <g transform="matrix(1,0,0,1,-346.138,-136.649)">
                <path d="M2857.94,541.952C2864.38,541.952 2869.59,547.171 2869.59,553.608C2869.59,560.045 2864.38,565.263 2857.94,565.263C2851.5,565.263 2846.28,560.045 2846.28,553.608C2846.28,547.171 2851.5,541.952 2857.94,541.952Z" style="fill:rgb(26,57,102);fill-rule:nonzero;"/>
            </g>
            <g transform="matrix(1,0,0,1,-346.138,-136.649)">
                <path d="M2992.69,571.924C3012.47,571.924 3028.5,578.542 3028.5,586.706C3028.5,594.87 3012.47,601.488 2992.69,601.488C2972.9,601.488 2956.87,594.87 2956.87,586.706C2956.87,578.542 2972.9,571.924 2992.69,571.924Z" style="fill:rgb(251,210,207);fill-rule:nonzero;"/>
            </g>
            <g transform="matrix(1,0,0,1,-346.138,-136.649)">
                <path d="M2829.46,571.924C2849.24,571.924 2865.28,578.542 2865.28,586.706C2865.28,594.87 2849.24,601.488 2829.46,601.488C2809.68,601.488 2793.64,594.87 2793.64,586.706C2793.64,578.542 2809.68,571.924 2829.46,571.924Z" style="fill:rgb(251,210,207);fill-rule:nonzero;"/>
            </g>
            <g transform="matrix(1,0,0,1,-346.138,-136.649)">
                <path d="M3007.99,562.214C3026.89,555.329 3046.69,550.898 3066.75,549.243C3072.45,548.773 3078.16,548.523 3083.88,548.478C3087.54,548.449 3087.55,542.763 3083.88,542.792C3063.35,542.955 3042.82,545.837 3023.05,551.385C3017.46,552.955 3011.93,554.744 3006.48,556.731C3005.03,557.257 3004.06,558.663 3004.49,560.228C3004.87,561.619 3006.54,562.742 3007.99,562.214Z" style="fill:rgb(26,57,102);fill-rule:nonzero;"/>
            </g>
            <g transform="matrix(1,0,0,1,-346.138,-136.649)">
                <path d="M3012.35,586.29C3032.28,583.905 3052.57,584.078 3072.44,587.027C3078.12,587.871 3083.77,588.937 3089.38,590.204C3092.94,591.009 3094.46,585.529 3090.89,584.721C3070.89,580.202 3050.29,578.297 3029.8,579.177C3023.97,579.428 3018.15,579.911 3012.35,580.605C3010.83,580.787 3009.51,581.781 3009.51,583.447C3009.51,584.842 3010.82,586.474 3012.35,586.29Z" style="fill:rgb(26,57,102);fill-rule:nonzero;"/>
            </g>
            <g transform="matrix(1,0,0,1,-346.138,-136.649)">
                <path d="M3017.42,573.904C3035.66,568.793 3054.95,567.5 3073.69,570.318C3075.21,570.546 3076.75,569.938 3077.19,568.333C3077.56,566.991 3076.73,565.066 3075.21,564.836C3055.42,561.861 3035.19,563.019 3015.91,568.421C3012.39,569.407 3013.88,574.894 3017.42,573.904Z" style="fill:rgb(26,57,102);fill-rule:nonzero;"/>
            </g>
            <g transform="matrix(1,0,0,1,-346.138,-136.649)">
                <path d="M2812.79,552.744C2793.18,546.805 2772.77,543.479 2752.28,542.887C2746.44,542.719 2740.59,542.782 2734.74,543.058C2731.1,543.231 2731.08,548.917 2734.74,548.744C2754.81,547.794 2774.96,549.47 2794.58,553.836C2800.2,555.086 2805.77,556.557 2811.28,558.226C2814.79,559.289 2816.29,553.803 2812.79,552.744Z" style="fill:rgb(26,57,102);fill-rule:nonzero;"/>
            </g>
            <g transform="matrix(1,0,0,1,-346.138,-136.649)">
                <path d="M2808.25,576.863C2787.74,575.552 2767.08,577.006 2746.94,581.131C2741.26,582.295 2735.63,583.68 2730.05,585.269C2726.54,586.269 2728.03,591.757 2731.57,590.751C2750.95,585.231 2770.99,582.294 2791.14,582.083C2796.85,582.023 2802.56,582.184 2808.25,582.548C2809.79,582.647 2811.09,581.172 2811.09,579.706C2811.09,578.085 2809.79,576.961 2808.25,576.863Z" style="fill:rgb(26,57,102);fill-rule:nonzero;"/>
            </g>
            <g transform="matrix(1,0,0,1,-346.138,-136.649)">
                <path d="M2804.02,564.937C2784.48,560.61 2764.21,560.484 2744.61,564.548C2743.11,564.86 2742.24,566.633 2742.63,568.045C2743.06,569.606 2744.62,570.343 2746.13,570.03C2764.69,566.181 2784,566.321 2802.51,570.419C2806.08,571.208 2807.6,565.728 2804.02,564.937Z" style="fill:rgb(26,57,102);fill-rule:nonzero;"/>
            </g>
            <g transform="matrix(1,0,0,1,-346.138,-136.649)">
                <path d="M2908,570.713C2907.76,570.526 2907.54,570.325 2907.31,570.126C2905.32,568.356 2898.12,562.73 2903.12,560.283C2906.18,558.784 2910.46,559.321 2913.72,559.733C2914.6,559.845 2915.48,559.972 2916.35,560.167C2920.07,561.01 2919.62,563.769 2917.59,566.237C2915.87,568.34 2912.73,572.241 2909.58,571.542C2908.99,571.411 2908.48,571.09 2908,570.713Z" style="fill:rgb(26,57,102);fill-rule:nonzero;"/>
            </g>
        </g>
    </g>
</svg>
